<?xml version="1.0" encoding="UTF-8"?>
<svg id="Capa_1" data-name="Capa 1" xmlns="http://www.w3.org/2000/svg" xmlns:xlink="http://www.w3.org/1999/xlink" viewBox="0 0 425.5 53">
  <defs>
    <style>
      .cls-1 {
        letter-spacing: -.03em;
      }

      .cls-2 {
        fill: url(#Degradado_sin_nombre_16);
      }

      .cls-3 {
        font-family: BebasNeue-Book, 'Bebas Neue';
      }

      .cls-4 {
        fill: #00aeef;
      }

      .cls-5 {
        fill: url(#Degradado_sin_nombre_26);
      }

      .cls-6, .cls-7, .cls-8 {
        fill: #fff;
      }

      .cls-7, .cls-9, .cls-10 {
        fill-rule: evenodd;
      }

      .cls-11 {
        fill: none;
      }

      .cls-12 {
        fill: url(#Degradado_sin_nombre_2);
        opacity: .05;
      }

      .cls-13 {
        fill: #231f20;
      }

      .cls-8 {
        font-size: 21px;
      }

      .cls-9 {
        fill: #b52e31;
      }

      .cls-14 {
        fill: url(#Degradado_sin_nombre_26-2);
      }

      .cls-10 {
        fill: #e23237;
      }

      .cls-15 {
        font-family: BebasNeueBold, 'Bebas Neue';
      }

      .cls-16 {
        fill: #f05138;
      }

      .cls-17 {
        fill: url(#Degradado_sin_nombre_29);
      }
    </style>
    <linearGradient id="Degradado_sin_nombre_16" data-name="Degradado sin nombre 16" x1="53.05" y1="33.41" x2="143.57" y2="381.78" gradientUnits="userSpaceOnUse">
      <stop offset="0" stop-color="#00aeef"/>
      <stop offset=".36" stop-color="#049ddf"/>
      <stop offset="1" stop-color="#0f75bc"/>
    </linearGradient>
    <linearGradient id="Degradado_sin_nombre_2" data-name="Degradado sin nombre 2" x1="216.43" y1="-46.74" x2="450.87" y2="305.3" gradientUnits="userSpaceOnUse">
      <stop offset="0" stop-color="#fff"/>
      <stop offset="1" stop-color="#000"/>
    </linearGradient>
    <linearGradient id="Degradado_sin_nombre_29" data-name="Degradado sin nombre 29" x1="361.93" y1="-2013.15" x2="370.52" y2="-2004.55" gradientTransform="translate(0 -1982) scale(1 -1)" gradientUnits="userSpaceOnUse">
      <stop offset=".11" stop-color="#c757bc"/>
      <stop offset=".21" stop-color="#d0609a"/>
      <stop offset=".43" stop-color="#e1725c"/>
      <stop offset=".6" stop-color="#ee7e2f"/>
      <stop offset=".74" stop-color="#f58613"/>
      <stop offset=".82" stop-color="#f88909"/>
    </linearGradient>
    <linearGradient id="Degradado_sin_nombre_26" data-name="Degradado sin nombre 26" x1="366.92" y1="-2016.17" x2="371.45" y2="-2011.65" gradientTransform="translate(0 -1982) scale(1 -1)" gradientUnits="userSpaceOnUse">
      <stop offset=".1" stop-color="#0095d5"/>
      <stop offset=".3" stop-color="#238ad9"/>
      <stop offset=".62" stop-color="#557bde"/>
      <stop offset=".86" stop-color="#7472e2"/>
      <stop offset="1" stop-color="#806ee3"/>
    </linearGradient>
    <linearGradient id="Degradado_sin_nombre_26-2" data-name="Degradado sin nombre 26" x1="362.65" y1="-2007.2" x2="366.6" y2="-2003.25" xlink:href="#Degradado_sin_nombre_26"/>
    <clipPath id="clippath">
      <rect class="cls-11" x="553.83" y="-655.66" width="960.22" height="540.01"/>
    </clipPath>
  </defs>
  <rect class="cls-2" x="-.49" y="-.18" width="103.44" height="53.18"/>
  <rect class="cls-12" x="104.97" y="-.18" width="320.36" height="53.18"/>
  <text class="cls-8" transform="translate(8.49 23.95)"><tspan class="cls-15"><tspan x="0" y="0">Fron</tspan><tspan class="cls-1" x="32.95" y="0">t</tspan><tspan x="39.75" y="0">-end</tspan></tspan><tspan class="cls-3"><tspan x="0" y="19.05">development</tspan></tspan></text>
  <g>
    <path class="cls-4" d="M283.36,23.63c0-2.15-2.69-4.18-6.81-5.44.95-4.2.53-7.54-1.33-8.61-.43-.25-.93-.37-1.48-.37v1.47c.3,0,.55.06.75.17.9.52,1.29,2.48.98,5-.07.62-.19,1.27-.34,1.94-1.29-.32-2.71-.56-4.19-.72-.89-1.22-1.82-2.33-2.75-3.3,2.15-2,4.17-3.1,5.55-3.1v-1.47c-1.82,0-4.19,1.29-6.6,3.54-2.4-2.23-4.78-3.51-6.6-3.51v1.47c1.37,0,3.39,1.09,5.55,3.08-.92.97-1.85,2.07-2.73,3.3-1.49.16-2.91.4-4.2.73-.15-.66-.26-1.3-.34-1.92-.31-2.52.07-4.48.96-5.01.2-.12.46-.17.76-.17v-1.47c-.55,0-1.06.12-1.49.37-1.86,1.07-2.27,4.4-1.31,8.59-4.11,1.27-6.78,3.3-6.78,5.44s2.69,4.18,6.81,5.44c-.95,4.2-.53,7.54,1.33,8.61.43.25.93.37,1.49.37,1.82,0,4.19-1.29,6.6-3.54,2.4,2.23,4.78,3.51,6.6,3.51.55,0,1.06-.12,1.49-.37,1.86-1.07,2.27-4.41,1.31-8.59,4.09-1.26,6.77-3.3,6.77-5.44h0ZM274.76,19.22c-.24.85-.55,1.73-.89,2.61-.27-.53-.55-1.06-.87-1.59-.3-.53-.63-1.04-.95-1.55.94.14,1.84.31,2.71.52h0ZM271.74,26.26c-.52.89-1.04,1.74-1.59,2.52-.98.09-1.98.13-2.99.13s-1.99-.05-2.97-.13c-.55-.79-1.08-1.62-1.6-2.51-.5-.87-.96-1.74-1.37-2.63.41-.89.87-1.77,1.37-2.64.52-.89,1.04-1.74,1.59-2.52.98-.09,1.98-.13,2.99-.13s1.99.05,2.97.13c.55.79,1.08,1.62,1.6,2.51.5.87.96,1.74,1.37,2.63-.42.88-.87,1.77-1.37,2.63ZM273.87,25.4c.35.86.65,1.74.91,2.63-.87.21-1.78.39-2.72.53.32-.51.65-1.03.95-1.57.3-.53.59-1.06.86-1.59h0ZM267.18,32.44c-.61-.63-1.23-1.34-1.84-2.11.59.03,1.2.05,1.82.05s1.24-.01,1.84-.05c-.57.74-1.17,1.44-1.82,2.11ZM262.26,28.55c-.94-.14-1.84-.31-2.71-.52.24-.85.55-1.73.89-2.61.27.53.55,1.06.87,1.59.31.53.63,1.04.95,1.55ZM267.14,14.81c.61.63,1.23,1.34,1.84,2.11-.59-.03-1.2-.05-1.82-.05s-1.24.01-1.84.05c.57-.74,1.17-1.44,1.82-2.11ZM262.25,18.7c-.32.51-.65,1.03-.95,1.57-.3.53-.59,1.06-.86,1.59-.35-.86-.65-1.74-.91-2.63.87-.2,1.78-.38,2.72-.52ZM256.28,26.97c-2.34-1-3.85-2.3-3.85-3.34s1.51-2.35,3.85-3.34c.57-.24,1.19-.46,1.83-.67.38,1.29.87,2.64,1.49,4.02-.61,1.37-1.1,2.71-1.47,4-.65-.2-1.27-.43-1.85-.67h0ZM259.83,36.41c-.9-.52-1.29-2.48-.98-5,.07-.62.19-1.27.34-1.94,1.29.32,2.71.56,4.19.72.89,1.22,1.82,2.33,2.75,3.3-2.15,2-4.17,3.1-5.55,3.1-.3,0-.55-.07-.75-.18ZM275.5,31.37c.31,2.52-.07,4.48-.96,5.01-.2.12-.46.17-.76.17-1.37,0-3.39-1.09-5.55-3.08.92-.97,1.85-2.07,2.73-3.3,1.49-.16,2.91-.4,4.2-.73.15.67.27,1.31.34,1.92h0ZM278.04,26.97c-.57.24-1.19.46-1.83.67-.38-1.29-.87-2.64-1.49-4.02.61-1.37,1.1-2.71,1.47-4,.65.2,1.27.43,1.86.67,2.34,1,3.85,2.3,3.85,3.34,0,1.04-1.52,2.35-3.86,3.34h0Z"/>
    <path class="cls-4" d="M267.16,26.65c1.67,0,3.02-1.35,3.02-3.02s-1.35-3.02-3.02-3.02-3.02,1.35-3.02,3.02,1.35,3.02,3.02,3.02ZM252.43,43.25h-1v1.72h-.56v-4.24h1.4c.48,0,.84.11,1.1.33.26.22.39.53.39.95,0,.26-.07.49-.22.69-.14.2-.34.34-.59.44l1,1.8v.04h-.6l-.92-1.72ZM251.44,42.79h.86c.28,0,.5-.07.66-.22.17-.14.25-.34.25-.58,0-.26-.08-.46-.24-.6-.16-.14-.38-.21-.68-.21h-.86v1.61ZM255.78,45.02c-.43,0-.77-.14-1.04-.42-.27-.28-.4-.66-.4-1.13v-.1c0-.31.06-.59.18-.84.12-.25.29-.44.5-.58.22-.14.45-.21.7-.21.41,0,.73.13.96.4.23.27.34.66.34,1.16v.22h-2.14c0,.31.1.56.27.75.17.19.4.29.66.29.19,0,.35-.04.48-.12.13-.08.25-.18.35-.31l.33.26c-.26.41-.66.61-1.19.61h0ZM255.71,42.2c-.22,0-.4.08-.55.24-.15.16-.24.38-.27.66h1.58v-.04c-.02-.27-.09-.49-.22-.64-.13-.15-.31-.23-.54-.23h0ZM259.58,44.96c-.03-.06-.06-.17-.08-.33-.25.26-.55.39-.9.39-.31,0-.57-.09-.77-.26-.2-.18-.3-.4-.3-.67,0-.33.12-.58.37-.76.25-.18.6-.27,1.05-.27h.52v-.25c0-.19-.06-.34-.17-.45-.11-.11-.28-.17-.5-.17-.19,0-.35.05-.48.15-.13.1-.2.21-.2.35h-.54c0-.16.06-.31.17-.45.11-.15.26-.26.45-.35.19-.09.4-.13.63-.13.36,0,.65.09.85.27.21.18.31.43.32.75v1.45c0,.29.04.52.11.69v.05h-.57ZM258.68,44.55c.17,0,.33-.04.48-.13.15-.09.26-.2.33-.34v-.65h-.42c-.66,0-.99.19-.99.58,0,.17.06.3.17.4.11.1.26.14.43.14h0ZM262.14,44.58c.19,0,.36-.06.5-.17s.22-.26.24-.44h.51c0,.18-.07.35-.19.52s-.27.29-.46.39c-.19.1-.39.15-.61.15-.43,0-.77-.14-1.03-.43-.25-.29-.38-.68-.38-1.18v-.09c0-.31.06-.58.17-.82.11-.24.27-.42.48-.56.21-.13.46-.2.75-.2.35,0,.65.11.88.32.23.21.36.49.38.82h-.51c-.02-.2-.09-.37-.23-.5-.14-.13-.31-.2-.51-.2-.27,0-.49.1-.64.3-.15.2-.22.48-.22.85v.1c0,.36.07.64.22.84.15.2.36.29.64.29h0ZM264.73,41.05v.76h.59v.42h-.59v1.95c0,.13.03.22.08.29.05.06.14.09.27.09.06,0,.15-.01.26-.04v.44c-.14.04-.28.06-.41.06-.24,0-.42-.07-.54-.22-.12-.15-.18-.35-.18-.62v-1.95h-.57v-.42h.57v-.76h.54ZM270.78,44.96h-.56l-2.14-3.27v3.27h-.56v-4.24h.56l2.14,3.28v-3.28h.56v4.24ZM273.63,44.96c-.03-.06-.06-.17-.08-.33-.25.26-.55.39-.9.39-.31,0-.57-.09-.77-.26-.2-.18-.3-.4-.3-.67,0-.33.12-.58.37-.76.25-.18.6-.27,1.05-.27h.52v-.25c0-.19-.06-.34-.17-.45-.11-.11-.28-.17-.5-.17-.19,0-.35.05-.48.15-.13.1-.2.21-.2.35h-.54c0-.16.06-.31.17-.45.11-.15.26-.26.45-.35.19-.09.4-.13.63-.13.36,0,.65.09.85.27.21.18.31.43.32.75v1.45c0,.29.04.52.11.69v.05h-.57ZM272.74,44.55c.17,0,.33-.04.48-.13.15-.09.26-.2.33-.34v-.65h-.42c-.66,0-.99.19-.99.58,0,.17.06.3.17.4.11.1.26.14.43.14h0ZM275.66,41.05v.76h.59v.42h-.59v1.95c0,.13.03.22.08.29.05.06.14.09.27.09.06,0,.15-.01.26-.04v.44c-.14.04-.28.06-.41.06-.24,0-.42-.07-.54-.22-.12-.15-.18-.35-.18-.62v-1.95h-.57v-.42h.57v-.76h.54ZM277.47,44.96h-.54v-3.15h.54v3.15ZM276.89,40.97c0-.09.03-.16.08-.22.05-.06.13-.09.24-.09s.18.03.24.09.08.13.08.22-.03.16-.08.22c-.05.06-.13.09-.24.09s-.18-.03-.24-.09c-.05-.06-.08-.13-.08-.22ZM279.37,44.23l.78-2.42h.55l-1.13,3.15h-.41l-1.14-3.15h.55l.8,2.42ZM282.49,45.02c-.43,0-.77-.14-1.04-.42-.27-.28-.4-.66-.4-1.13v-.1c0-.31.06-.59.18-.84.12-.25.29-.44.5-.58.22-.14.45-.21.7-.21.41,0,.73.13.96.4.23.27.34.66.34,1.16v.22h-2.14c0,.31.1.56.27.75.17.19.4.29.66.29.19,0,.35-.04.48-.12s.25-.18.35-.31l.33.26c-.26.41-.66.61-1.19.61h0ZM282.42,42.2c-.22,0-.4.08-.55.24-.15.16-.24.38-.27.66h1.58v-.04c-.02-.27-.09-.49-.22-.64-.13-.15-.31-.23-.54-.23h0Z"/>
  </g>
  <g>
    <path class="cls-4" d="M231.17,23.63c0-2.15-2.69-4.18-6.81-5.44.95-4.2.53-7.54-1.33-8.61-.43-.25-.93-.37-1.48-.37v1.47c.3,0,.55.06.75.17.9.52,1.29,2.48.98,5-.07.62-.19,1.27-.34,1.94-1.29-.32-2.71-.56-4.19-.72-.89-1.22-1.82-2.33-2.75-3.3,2.15-2,4.17-3.1,5.55-3.1v-1.47c-1.82,0-4.19,1.29-6.6,3.54-2.4-2.23-4.78-3.51-6.6-3.51v1.47c1.37,0,3.39,1.09,5.55,3.08-.92.97-1.85,2.07-2.73,3.3-1.49.16-2.91.4-4.2.73-.15-.66-.26-1.3-.34-1.92-.31-2.52.07-4.48.96-5.01.2-.12.46-.17.76-.17v-1.47c-.55,0-1.06.12-1.49.37-1.86,1.07-2.27,4.4-1.31,8.59-4.11,1.27-6.78,3.3-6.78,5.44s2.69,4.18,6.81,5.44c-.95,4.2-.53,7.54,1.33,8.61.43.25.93.37,1.49.37,1.82,0,4.19-1.29,6.6-3.54,2.4,2.23,4.78,3.51,6.6,3.51.55,0,1.06-.12,1.49-.37,1.86-1.07,2.27-4.41,1.31-8.59,4.09-1.26,6.77-3.3,6.77-5.44h0ZM222.57,19.22c-.24.85-.55,1.73-.89,2.61-.27-.53-.55-1.06-.87-1.59-.3-.53-.63-1.04-.95-1.55.94.14,1.84.31,2.71.52h0ZM219.54,26.26c-.52.89-1.04,1.74-1.59,2.52-.98.09-1.98.13-2.99.13s-1.99-.05-2.97-.13c-.55-.79-1.08-1.62-1.6-2.51-.5-.87-.96-1.74-1.37-2.63.41-.89.87-1.77,1.37-2.64.52-.89,1.04-1.74,1.59-2.52.98-.09,1.98-.13,2.99-.13s1.99.05,2.97.13c.55.79,1.08,1.62,1.6,2.51.5.87.96,1.74,1.37,2.63-.42.88-.87,1.77-1.37,2.63ZM221.68,25.4c.35.86.65,1.74.91,2.63-.87.21-1.78.39-2.72.53.32-.51.65-1.03.95-1.57.3-.53.59-1.06.86-1.59h0ZM214.98,32.44c-.61-.63-1.23-1.34-1.84-2.11.59.03,1.2.05,1.82.05s1.24-.01,1.84-.05c-.57.74-1.17,1.44-1.82,2.11ZM210.07,28.55c-.94-.14-1.84-.31-2.71-.52.24-.85.55-1.73.89-2.61.27.53.55,1.06.87,1.59.31.53.63,1.04.95,1.55ZM214.95,14.81c.61.63,1.23,1.34,1.84,2.11-.59-.03-1.2-.05-1.82-.05s-1.24.01-1.84.05c.57-.74,1.17-1.44,1.82-2.11ZM210.06,18.7c-.32.51-.65,1.03-.95,1.57-.3.53-.59,1.06-.86,1.59-.35-.86-.65-1.74-.91-2.63.87-.2,1.78-.38,2.72-.52ZM204.08,26.97c-2.34-1-3.85-2.3-3.85-3.34s1.51-2.35,3.85-3.34c.57-.24,1.19-.46,1.83-.67.38,1.29.87,2.64,1.49,4.02-.61,1.37-1.1,2.71-1.47,4-.65-.2-1.27-.43-1.85-.67h0ZM207.64,36.41c-.9-.52-1.29-2.48-.98-5,.07-.62.19-1.27.34-1.94,1.29.32,2.71.56,4.19.72.89,1.22,1.82,2.33,2.75,3.3-2.15,2-4.17,3.1-5.55,3.1-.3,0-.55-.07-.75-.18ZM223.3,31.37c.31,2.52-.07,4.48-.96,5.01-.2.12-.46.17-.76.17-1.37,0-3.39-1.09-5.55-3.08.92-.97,1.85-2.07,2.73-3.3,1.49-.16,2.91-.4,4.2-.73.15.67.27,1.31.34,1.92h0ZM225.84,26.97c-.57.24-1.19.46-1.83.67-.38-1.29-.87-2.64-1.49-4.02.61-1.37,1.1-2.71,1.47-4,.65.2,1.27.43,1.86.67,2.34,1,3.85,2.3,3.85,3.34,0,1.04-1.52,2.35-3.86,3.34h0Z"/>
    <path class="cls-4" d="M214.96,26.65c1.67,0,3.02-1.35,3.02-3.02s-1.35-3.02-3.02-3.02-3.02,1.35-3.02,3.02,1.35,3.02,3.02,3.02ZM209.29,43.25h-1v1.72h-.56v-4.24h1.4c.48,0,.84.11,1.1.33.26.22.39.53.39.95,0,.26-.07.49-.22.69-.14.2-.34.34-.59.44l1,1.8v.04h-.6l-.92-1.72ZM208.29,42.79h.86c.28,0,.5-.07.66-.22.17-.14.25-.34.25-.58,0-.26-.08-.46-.24-.6-.16-.14-.38-.21-.68-.21h-.86v1.61ZM212.63,45.02c-.43,0-.77-.14-1.04-.42-.27-.28-.4-.66-.4-1.13v-.1c0-.31.06-.59.18-.84.12-.25.29-.44.5-.58.22-.14.45-.21.7-.21.41,0,.73.13.96.4.23.27.34.66.34,1.16v.22h-2.14c0,.31.1.56.27.75.17.19.4.29.66.29.19,0,.35-.04.48-.12.13-.08.25-.18.35-.31l.33.26c-.26.41-.66.61-1.19.61h0ZM212.56,42.2c-.22,0-.4.08-.55.24-.15.16-.24.38-.27.66h1.58v-.04c-.02-.27-.09-.49-.22-.64-.13-.15-.31-.23-.54-.23h0ZM216.43,44.96c-.03-.06-.06-.17-.08-.33-.25.26-.55.39-.9.39-.31,0-.57-.09-.77-.26-.2-.18-.3-.4-.3-.67,0-.33.12-.58.37-.76.25-.18.6-.27,1.05-.27h.52v-.25c0-.19-.06-.34-.17-.45-.11-.11-.28-.17-.5-.17-.19,0-.35.05-.48.15-.13.1-.2.21-.2.35h-.54c0-.16.06-.31.17-.45.11-.15.26-.26.45-.35.19-.09.4-.13.63-.13.36,0,.65.09.85.27.21.18.31.43.32.75v1.45c0,.29.04.52.11.69v.05h-.57ZM215.54,44.55c.17,0,.33-.04.48-.13.15-.09.26-.2.33-.34v-.65h-.42c-.66,0-.99.19-.99.58,0,.17.06.3.17.4.11.1.26.14.43.14h0ZM219,44.58c.19,0,.36-.06.5-.17s.22-.26.24-.44h.51c0,.18-.07.35-.19.52s-.27.29-.46.39c-.19.1-.39.15-.61.15-.43,0-.77-.14-1.03-.43-.25-.29-.38-.68-.38-1.18v-.09c0-.31.06-.58.17-.82.11-.24.27-.42.48-.56.21-.13.46-.2.75-.2.35,0,.65.11.88.32.23.21.36.49.38.82h-.51c-.02-.2-.09-.37-.23-.5-.14-.13-.31-.2-.51-.2-.27,0-.49.1-.64.3-.15.2-.22.48-.22.85v.1c0,.36.07.64.22.84.15.2.36.29.64.29h0ZM221.58,41.05v.76h.59v.42h-.59v1.95c0,.13.03.22.08.29.05.06.14.09.27.09.06,0,.15-.01.26-.04v.44c-.14.04-.28.06-.41.06-.24,0-.42-.07-.54-.22-.12-.15-.18-.35-.18-.62v-1.95h-.57v-.42h.57v-.76h.54Z"/>
  </g>
  <g>
    <g>
      <g>
        <path class="cls-13" d="M377.31,21.89h2.36v4.68s4.35-4.68,4.35-4.68h2.85l-4.36,4.55,4.56,6.17h-2.83s-3.32-4.56-3.32-4.56l-1.24,1.29v3.28h-2.36v-10.72s0,0,0,0Z"/>
        <path class="cls-13" d="M385.81,28.55v-.03c0-2.36,1.9-4.27,4.46-4.27s4.42,1.88,4.42,4.24v.03c0,2.36-1.9,4.27-4.46,4.27s-4.42-1.88-4.42-4.24h0ZM392.39,28.55v-.03c0-1.21-.87-2.27-2.16-2.27s-2.13,1.03-2.13,2.24v.03c0,1.21.87,2.27,2.16,2.27s2.13-1.03,2.13-2.24h0Z"/>
        <path class="cls-13" d="M395.33,30.28v-3.89h-.98v-1.99h.98v-2.1h2.33v2.1h1.93v1.99h-1.93v3.51c0,.54.23.8.75.8.43,0,.81-.11,1.15-.29v1.87c-.49.29-1.06.47-1.84.47-1.42,0-2.39-.57-2.39-2.46h0Z"/>
        <path class="cls-13" d="M400.25,21.43h2.33v11.18h-2.33v-11.18h0Z"/>
        <path class="cls-13" d="M403.42,21.43h2.45v2.07h-2.45v-2.07s0,0,0,0ZM403.48,24.4h2.33v8.21h-2.33v-8.21Z"/>
        <path class="cls-13" d="M406.69,24.4h2.33v1.16c.54-.69,1.22-1.32,2.4-1.32,1.76,0,2.79,1.16,2.79,3.05v5.31h-2.33v-4.58c0-1.1-.52-1.67-1.41-1.67s-1.45.57-1.45,1.67v4.58h-2.33v-8.21s0,0,0,0Z"/>
      </g>
      <polygon class="cls-17" points="368.52 21.88 363.14 27.54 363.14 32.6 368.51 27.22 373.86 21.88 368.52 21.88"/>
      <polygon class="cls-5" points="363.14 32.6 368.51 27.22 373.86 32.6 363.14 32.6"/>
    </g>
    <polygon class="cls-14" points="363.14 21.88 368.52 21.88 363.14 27.54 363.14 21.88"/>
  </g>
  <g>
    <g>
      <path class="cls-16" d="M314.34,23.53c0-.16,0-.32,0-.48,0-.35-.03-.71-.09-1.06-.06-.35-.17-.68-.33-1-.16-.32-.37-.6-.62-.85-.25-.25-.54-.46-.85-.62-.32-.16-.65-.27-1-.33-.35-.06-.7-.08-1.06-.09-.16,0-.32,0-.48,0-.19,0-.38,0-.58,0h-6.02c-.19,0-.38,0-.58,0-.16,0-.32,0-.48,0-.09,0-.18,0-.26,0-.26.01-.53.04-.79.08-.26.05-.52.12-.76.22-.08.03-.16.07-.24.11-.24.12-.46.27-.66.44-.07.06-.13.12-.19.18-.25.25-.46.54-.62.85-.16.32-.27.65-.33,1-.06.35-.08.7-.09,1.06,0,.16,0,.32,0,.48,0,.19,0,.38,0,.58v6.02c0,.19,0,.38,0,.58,0,.16,0,.32,0,.48,0,.35.03.71.09,1.06.06.35.17.68.33,1,.16.32.37.6.62.85.25.25.54.46.85.62.32.16.65.27,1,.33.35.06.7.08,1.06.09.16,0,.32,0,.48,0,.19,0,.38,0,.58,0h6.02c.19,0,.38,0,.58,0,.16,0,.32,0,.48,0,.35,0,.71-.03,1.06-.09.35-.06.68-.17,1-.33.32-.16.6-.37.85-.62.25-.25.46-.54.62-.85.16-.32.27-.65.33-1,.06-.35.08-.7.09-1.06,0-.16,0-.32,0-.48,0-.19,0-.38,0-.58v-6.02c0-.19,0-.38,0-.58Z"/>
      <path class="cls-6" d="M311.01,28.99s0,0,0,0c.02-.06.04-.12.05-.18.67-2.66-.96-5.8-3.71-7.45,1.21,1.64,1.74,3.62,1.27,5.35-.04.15-.09.3-.15.45-.06-.04-.14-.09-.24-.14,0,0-2.74-1.69-5.71-4.68-.08-.08,1.58,2.37,3.47,4.37-.89-.5-3.36-2.3-4.93-3.73.19.32.42.63.67.93,1.31,1.66,3.02,3.71,5.06,5.28-1.44.88-3.47.95-5.49,0-.5-.23-.97-.52-1.4-.84.86,1.37,2.17,2.55,3.78,3.24,1.91.82,3.81.77,5.23.01h0s.01,0,.02-.01c.06-.03.12-.06.17-.1.68-.35,2.02-.71,2.75.69.18.34.55-1.48-.83-3.18Z"/>
    </g>
    <g>
      <path d="M320.44,29.5c.13,1.11,1.19,1.85,2.67,1.85s2.41-.73,2.41-1.74c0-.87-.61-1.4-2.02-1.76l-1.37-.35c-1.96-.49-2.85-1.37-2.85-2.83,0-1.8,1.57-3.05,3.81-3.05s3.71,1.26,3.77,3.06h-1.44c-.11-1.11-1.01-1.79-2.36-1.79s-2.27.69-2.27,1.69c0,.78.58,1.25,1.99,1.61l1.14.3c2.2.54,3.1,1.4,3.1,2.94,0,1.96-1.56,3.2-4.04,3.2-2.3,0-3.88-1.23-3.99-3.12h1.45Z"/>
      <path d="M336.16,32.45h-1.45l-1.69-5.89h-.03l-1.68,5.89h-1.45l-2.14-7.72h1.4l1.49,6.19h.03l1.68-6.19h1.36l1.7,6.19h.03l1.49-6.19h1.39l-2.13,7.72Z"/>
      <path d="M339.23,22.66c0-.46.38-.84.85-.84s.86.38.86.84-.38.85-.86.85-.85-.38-.85-.85ZM339.38,24.73h1.41v7.72h-1.41v-7.72Z"/>
      <path d="M350,25.87v-1.14h-1.49v-1.85h-1.4v1.85h-2.7v-.68c0-.69.27-.97.91-.97.21,0,.41.02.58.05v-1.11c-.25-.04-.48-.06-.75-.06-1.51,0-2.14.63-2.14,2.07v.7h-1.08v1.14h1.08v6.58h1.4v-6.58h2.69v4.56c0,1.49.57,2.07,2.04,2.07.32,0,.68-.02.84-.06v-1.15c-.1.01-.38.04-.53.04-.66,0-.95-.31-.95-1v-4.44h1.49Z"/>
    </g>
  </g>
  <g>
    <path class="cls-9" d="M139.89,30.68v-6.71h.86l4.1,5.4v-5.4h.82v6.71h-.86l-4.1-5.45v5.45h-.82ZM152.36,30.41c-.54.2-1.13.31-1.75.31-2.43,0-3.64-1.16-3.64-3.49,0-2.2,1.17-3.31,3.51-3.31.67,0,1.3.1,1.87.28v.75c-.58-.22-1.17-.33-1.78-.33-1.83,0-2.75.87-2.75,2.6,0,1.86.91,2.79,2.71,2.79.29,0,.61-.04.96-.12v-2.25h.86v2.78h0ZM153.74,28.09v-4.12h.86v4.12c0,1.29.64,1.94,1.93,1.94s1.93-.65,1.93-1.94v-4.12h.86v4.12c0,1.76-.93,2.64-2.79,2.64s-2.79-.88-2.79-2.64ZM161.73,23.97v6.01h3.51v.7h-4.38v-6.71h.86ZM166.49,30.68h-.91l3.33-7.59,3.33,7.59h-.96l-.86-2.11h-2.22l.23-.7h1.69l-1.26-3.04-2.4,5.85h0ZM173.18,30.68v-6.71h2.87c1.28,0,1.92.53,1.92,1.61,0,.87-.63,1.52-1.87,1.94l2.3,3.16h-1.14l-2.13-3.01v-.56c1.28-.2,1.93-.69,1.93-1.48,0-.62-.35-.93-1.07-.93h-1.92v5.99h-.88Z"/>
    <path class="cls-10" d="M123.85,22.18l6.87-2.45,7.05,2.41-1.14,9.08-5.91,3.27-5.82-3.23-1.05-9.08Z"/>
    <path class="cls-9" d="M137.77,22.14l-7.05-2.41v14.76l5.91-3.27,1.14-9.08h0Z"/>
    <path class="cls-7" d="M130.73,21.45l-4.28,9.52,1.6-.03.86-2.15h3.82l.94,2.17,1.52.03-4.46-9.54h0ZM130.75,24.51l1.45,3.02h-2.72l1.27-3.02Z"/>
  </g>
</svg>