<?xml version="1.0" encoding="UTF-8"?>
<svg id="Capa_1" data-name="Capa 1" xmlns="http://www.w3.org/2000/svg" xmlns:xlink="http://www.w3.org/1999/xlink" viewBox="0 0 425.5 62">
  <defs>
    <style>
      .cls-1 {
        fill: url(#Degradado_sin_nombre_16);
      }

      .cls-2 {
        font-family: BebasNeue-Book, 'Bebas Neue';
      }

      .cls-3 {
        fill: none;
      }

      .cls-4 {
        fill: #009c4d;
      }

      .cls-5 {
        letter-spacing: .02em;
      }

      .cls-6 {
        fill: url(#Degradado_sin_nombre_2);
        opacity: .05;
      }

      .cls-7 {
        letter-spacing: 0em;
      }

      .cls-8 {
        letter-spacing: 0em;
      }

      .cls-9 {
        letter-spacing: 0em;
      }

      .cls-10 {
        fill: #fff;
        font-size: 21px;
      }

      .cls-11 {
        letter-spacing: .02em;
      }

      .cls-12 {
        font-family: SegoeUI-Bold, 'Segoe UI';
        font-size: 7.55px;
        font-weight: 700;
      }

      .cls-13 {
        fill: #292323;
      }

      .cls-14 {
        fill: #e51b27;
      }

      .cls-15 {
        font-family: BebasNeueBold, 'Bebas Neue';
      }

      .cls-16 {
        fill: #54565b;
      }
    </style>
    <linearGradient id="Degradado_sin_nombre_2" data-name="Degradado sin nombre 2" x1="148.98" y1="-130.66" x2="388.89" y2="203.4" gradientUnits="userSpaceOnUse">
      <stop offset="0" stop-color="#fff"/>
      <stop offset="1" stop-color="#000"/>
    </linearGradient>
    <linearGradient id="Degradado_sin_nombre_16" data-name="Degradado sin nombre 16" x1="-7.59" y1="-194.86" x2="83.12" y2="154.26" gradientUnits="userSpaceOnUse">
      <stop offset="0" stop-color="#00aeef"/>
      <stop offset=".36" stop-color="#049ddf"/>
      <stop offset="1" stop-color="#0f75bc"/>
    </linearGradient>
    <clipPath id="clippath">
      <rect class="cls-3" x="123.83" y="-786.66" width="960.22" height="540.01"/>
    </clipPath>
  </defs>
  <rect class="cls-6" x="104.8" y="-.27" width="320.36" height="62.27"/>
  <rect class="cls-1" x="-.66" y="-.27" width="103.44" height="62.27"/>
  <text class="cls-10" transform="translate(8.32 25.93)"><tspan class="cls-15"><tspan x="0" y="0">PMO</tspan></tspan><tspan class="cls-2"><tspan x="0" y="19.05">as a se</tspan><tspan class="cls-9" x="47.73" y="19.05">r</tspan><tspan x="55.8" y="19.05">vice</tspan></tspan></text>
  <text class="cls-12" transform="translate(124.81 47.7)"><tspan class="cls-7" x="0" y="0">P</tspan><tspan class="cls-8" x="4.69" y="0">ow</tspan><tspan class="cls-5" x="15.46" y="0">e</tspan><tspan x="19.72" y="0">r </tspan><tspan class="cls-11" x="24.81" y="0">B</tspan><tspan x="29.79" y="0">i</tspan></text>
  <image width="3840" height="2160" transform="translate(116.78 11.73) scale(.01)" xlink:href="../../../Alejandro Mendoza/Valtre/Logos Matriz/Analítica Avanzada/Power-BI-Logo.png"/>
  <image width="3840" height="2160" transform="translate(295.48 13.66) scale(.01)" xlink:href="../../../Alejandro Mendoza/Valtre/Logos Matriz/Analítica Avanzada/Tableau-Logo.png"/>
  <g>
    <path class="cls-14" d="M183.52,23.15c.55,0,1.1,0,1.66,0,1.02,0,2.03.68,2.4,1.66.41,1.06.25,2.04-.53,2.9-.55.61-1.25.87-2.06.86-1.01,0-2.02,0-3.03,0-1.2,0-2.23-.72-2.6-1.82-.38-1.12-.01-2.34.94-3.06.45-.34.96-.52,1.54-.52.56,0,1.12,0,1.69,0ZM183.49,27.58h0c.48,0,.96,0,1.44,0,1.03,0,1.81-.74,1.82-1.73.01-.93-.76-1.74-1.74-1.76-1.01-.02-2.02-.02-3.03,0-.96.02-1.68.73-1.74,1.66-.06.88.6,1.71,1.5,1.81.58.06,1.16.01,1.75.01Z"/>
    <path class="cls-13" d="M174.7,31.61c-.04-.1-.03-.19-.01-.3h51.05c.05.1.04.19,0,.3h-51.05Z"/>
    <path class="cls-14" d="M221.19,23.15c-.22.35-.41.65-.6.95-1,0-1.99,0-2.98,0-.86,0-1.52.48-1.74,1.25h5.01c-.17.38-.39.66-.6.98h-4.4c.1.68.83,1.26,1.58,1.26,1.16,0,2.31,0,3.47,0h.36c-.22.35-.42.66-.62.97-1.19-.02-2.37.07-3.54-.04-1.45-.13-2.49-1.41-2.39-2.88.09-1.39,1.28-2.5,2.7-2.5,1.13,0,2.27,0,3.4,0h.34Z"/>
    <path class="cls-14" d="M194.51,28.56c-.54,0-1.01,0-1.47,0-.05,0-.12-.04-.16-.08-.99-.86-1.97-1.72-3.02-2.63.36,0,.66,0,.95,0,.65,0,1.29,0,1.94,0,.52,0,.92-.36.94-.84.02-.49-.37-.89-.92-.9-.81-.01-1.62,0-2.44,0-.31,0-.62,0-.96,0v4.44h-1.03v-5.35c.09-.06.2-.03.3-.03,1.42,0,2.83,0,4.25,0,1.04,0,1.85.81,1.84,1.83,0,1.02-.8,1.81-1.83,1.81-.12,0-.25,0-.48,0,.71.6,1.36,1.15,2.09,1.76Z"/>
    <path class="cls-14" d="M200.14,26.66c-.5-.82-.97-1.57-1.46-2.36-.91,1.44-1.79,2.84-2.69,4.25h-1.2c-.03-.1.06-.18.11-.26,1.02-1.6,2.04-3.21,3.07-4.81.34-.53,1.01-.56,1.35-.04,1.09,1.68,2.17,3.37,3.27,5.09h-1.24c-.18-.29-.38-.61-.58-.93h-2.8c-.19-.3-.39-.6-.62-.95h2.78Z"/>
    <path class="cls-14" d="M208.49,23.2c-.19.3-.37.59-.57.91-.98,0-1.95,0-2.93,0-.58,0-1.09.17-1.47.63-.45.54-.56,1.16-.28,1.8.29.67.83,1.04,1.56,1.05,1.16.02,2.31,0,3.47,0,.1,0,.2,0,.35,0-.22.35-.42.66-.6.95-1.21,0-2.39.06-3.56-.02-1.45-.1-2.48-1.39-2.39-2.84.09-1.43,1.26-2.53,2.69-2.53,1.13,0,2.27,0,3.4,0,.1,0,.2-.03.33.04Z"/>
    <path class="cls-14" d="M209.07,23.17h1.06v4.43h4.83c-.16.37-.4.65-.59.97h-.72c-1.29,0-2.58,0-3.87,0-.53,0-.7-.16-.7-.68,0-1.56,0-3.12,0-4.71Z"/>
    <path class="cls-13" d="M196.81,38.03h-1.15c-.46-.96-.92-1.93-1.39-2.91-.02,0-.03,0-.05,0v2.91h-.75v-3.69h1.18c.44.9.89,1.82,1.33,2.74.02,0,.03,0,.05,0v-2.72c.28-.05.52-.04.78-.02v3.69Z"/>
    <path class="cls-13" d="M182.24,36.1c.44.16.7.41.75.84.04.34-.08.61-.36.81-.25.17-.52.27-.82.28-.56.01-1.12,0-1.7,0v-3.69c.62,0,1.24-.03,1.86.01.41.03.75.26.84.71.1.47-.11.78-.57,1.03ZM180.92,37.4c.3,0,.58.02.85,0,.28-.02.38-.23.37-.48-.01-.24-.12-.43-.38-.44-.28-.01-.55,0-.84,0v.93ZM180.92,35.8c.25,0,.48,0,.71,0,.24-.01.39-.14.4-.39,0-.26-.13-.42-.38-.44-.23-.02-.47,0-.72,0v.83Z"/>
    <path class="cls-13" d="M187.9,36.85h.8c0,.25.08.49.32.61.22.11.45.07.67,0,.21-.06.35-.18.36-.41.01-.22-.12-.35-.31-.41-.18-.06-.36-.1-.54-.15-.19-.06-.38-.11-.56-.18-.37-.15-.64-.4-.66-.83-.01-.43.18-.77.55-.99.49-.28,1.02-.35,1.56-.16.48.17.71.52.72,1.04-.25.06-.49.02-.73.02-.21-.5-.43-.64-.83-.54-.22.05-.39.17-.4.42-.02.24.12.39.34.45.33.09.66.17.99.28.39.14.72.34.73.82.02.52-.2.9-.66,1.1-.55.24-1.11.26-1.67.07-.47-.16-.68-.52-.69-1.16Z"/>
    <path class="cls-13" d="M203.9,35.39h-.73c-.21-.48-.36-.6-.75-.55-.25.03-.44.15-.48.42-.04.28.14.42.39.49.34.09.69.16,1.02.29.37.15.66.38.67.81.02.46-.17.84-.59,1.05-.6.29-1.22.32-1.84.07-.43-.17-.62-.55-.59-1.1h.77c.17.62.48.8,1.03.61.2-.07.35-.19.35-.42,0-.21-.13-.35-.32-.41-.29-.09-.59-.14-.87-.24-.63-.21-.9-.52-.88-.98.02-.53.35-.92.95-1.09.32-.09.65-.12.99-.05.56.12.87.5.89,1.11Z"/>
    <path class="cls-13" d="M210.11,36.86s.08-.01.12-.01c.22,0,.44,0,.65,0,.12.64.61.88,1.14.58.15-.08.24-.2.23-.37,0-.17-.08-.31-.24-.37-.14-.06-.29-.1-.44-.14-.3-.07-.59-.14-.86-.28-.63-.34-.72-1.11-.2-1.6.49-.45,1.41-.56,1.99-.23.36.21.5.53.51.95h-.75c-.15-.47-.37-.62-.79-.54-.24.05-.41.18-.43.43-.02.25.13.38.35.45.32.09.64.17.96.27.4.14.74.35.76.84.02.53-.23.93-.72,1.12-.51.2-1.04.22-1.56.06-.52-.16-.77-.57-.72-1.17Z"/>
    <path class="cls-13" d="M207.58,35.39h-.71c-.21-.48-.38-.61-.79-.54-.23.04-.41.16-.44.42-.03.26.13.4.36.47.33.09.66.17.99.28.38.13.7.35.71.81.02.47-.15.86-.6,1.08-.6.29-1.23.31-1.84.06-.47-.19-.58-.61-.6-1.09.27-.06.53-.02.78-.03.23.64.51.8,1.04.63.2-.07.35-.19.36-.41.01-.23-.14-.35-.34-.43-.32-.12-.67-.14-.99-.28-.38-.17-.73-.37-.74-.86-.01-.51.24-.89.73-1.09.46-.19.93-.23,1.4-.06.46.17.71.55.67,1.04Z"/>
    <path class="cls-13" d="M214.02,34.34h.78c0,.68,0,1.34,0,2.01,0,.16,0,.31.03.47.07.52.31.73.8.72.47,0,.75-.25.76-.77.02-.8,0-1.6,0-2.41.28-.06.53-.02.83-.03v1c0,.41,0,.81,0,1.22.02,1.1-.66,1.59-1.66,1.59-1.04,0-1.58-.59-1.59-1.63,0-.7,0-1.39,0-2.09,0-.02.02-.04.03-.07Z"/>
    <path class="cls-13" d="M183.84,34.34c.27-.03.53-.03.81,0,0,.46,0,.92,0,1.38,0,.34,0,.69.01,1.03.03.54.28.78.77.78.5,0,.76-.22.79-.75.04-.65.02-1.31.03-1.96,0-.15,0-.31,0-.48h.8c-.02.9.06,1.81-.04,2.7-.06.5-.42.83-.9.98-.48.15-.96.15-1.43-.04-.49-.19-.8-.56-.82-1.08-.04-.85,0-1.7,0-2.56Z"/>
    <path class="cls-13" d="M197.69,34.34h2.46c.06.19.03.39.02.62h-1.66v.83h1.53c.07.23.05.43.02.66h-1.54v.96h1.7c.04.23.03.42.01.63h-2.53v-3.69Z"/>
    <path class="cls-13" d="M177.14,34.34v.59h-1.66v.88h1.54c.04.22.03.41,0,.63h-1.54v.97h1.69c.08.21.03.4.04.62h-2.54v-3.68h2.47Z"/>
    <path class="cls-13" d="M225.78,34.34v.6h-1.65v.87h1.53v.62h-1.53v.97h1.7v.63h-2.53v-3.69h2.47Z"/>
    <path class="cls-13" d="M219.67,34.96c-.03-.22-.03-.41,0-.62h2.98v.61h-1.08v3.08h-.82v-3.07h-1.08Z"/>
    <path class="cls-13" d="M218.2,38.03v-3.69h.79v3.69h-.79Z"/>
    <path class="cls-13" d="M192.53,38.03h-.79v-3.69c.27-.03.53-.03.79,0v3.69Z"/>
    <path class="cls-13" d="M177.99,36.4h1.27v.55h-1.27v-.55Z"/>
    <path class="cls-14" d="M222.85,23.74c0,.32-.3.61-.63.61-.33,0-.61-.29-.61-.62,0-.35.29-.63.64-.62.34.01.6.3.6.63ZM221.98,23.35c-.25.21-.29.43-.11.66.16.21.42.25.63.09.22-.16.28-.42.14-.63-.15-.23-.39-.28-.66-.12h0Z"/>
    <path class="cls-14" d="M221.97,23.36c.17.02.36-.05.5.12.05.18-.15.36.05.55-.22.04-.21-.15-.31-.21-.11.03.01.21-.16.23-.13-.21,0-.47-.07-.69,0,0,0,0,0,0ZM222.19,23.49c-.04.05-.04.11,0,.16.07.01.12-.02.14-.08-.03-.06-.07-.09-.14-.08Z"/>
  </g>
  <g>
    <g id="g68">
      <path id="path70" class="cls-16" d="M266.05,30.96c-.2-.33.07-.62.07-.62l2.38-2.46c.27-.28-.12-.28-.12-.28h-2.22c-.39,0-.66.28-.66.28l-2.21,2.34c-.27.28-.27-.11-.27-.11v-5.12c0-.39-.39-.39-.39-.39h-1.69c-.38,0-.38.38-.38.38v10.71c0,.39.39.39.39.39h1.67c.38,0,.38-.38.38-.38v-1.88c0-.39.29-.66.29-.66l.79-.74,1.98,3.32c.2.34.59.34.59.34h2.11c.39,0,.19-.33.19-.33l-2.9-4.79ZM258.81,35.7v-7.72c0-.39-.39-.39-.39-.39h-1.69c-.39,0-.39.39-.39.39v7.72c0,.39.39.39.39.39h1.69c.39,0,.39-.39.39-.39M258.75,26.09v-1.11s0-.38-.38-.38h-1.65s-.38,0-.38.38v1.11s0,.38.38.38h1.65s.38,0,.38-.38M254.52,35.7v-10.69c0-.39-.39-.39-.39-.39h-1.72c-.39,0-.39.39-.39.39v10.69c0,.39.39.39.39.39h1.72c.39,0,.39-.39.39-.39M250.65,35.24s.22-.25-.03-.47l-1.38-1.2c.62-.92.98-2.02.98-3.21,0-3.17-2.57-5.74-5.74-5.74s-5.74,2.57-5.74,5.74,2.57,5.74,5.74,5.74c1.16,0,2.24-.35,3.14-.94l1.52,1.32s.25.22.47-.03l1.04-1.2ZM247.79,30.35c0,1.83-1.48,3.32-3.32,3.32s-3.32-1.48-3.32-3.32,1.48-3.32,3.32-3.32,3.32,1.48,3.32,3.32"/>
    </g>
    <g id="g72">
      <path id="path74" class="cls-4" d="M285.21,35.36l-1.84-1.55c.64-1.02,1.02-2.22,1.02-3.52,0-3.64-2.95-6.59-6.59-6.59s-6.59,2.95-6.59,6.59,2.95,6.59,6.59,6.59c1.41,0,2.72-.45,3.79-1.2l1.97,1.65s.29.24.54-.05l1.17-1.39s.25-.29-.05-.54M281.84,30.29c0,2.24-1.81,4.05-4.05,4.05s-4.05-1.81-4.05-4.05,1.81-4.05,4.05-4.05,4.05,1.81,4.05,4.05"/>
    </g>
    <g id="g76">
      <path id="path78" class="cls-16" d="M275.19,30.29c0-1.43,1.16-2.6,2.6-2.6s2.6,1.16,2.6,2.6-1.16,2.6-2.6,2.6c-1.43,0-2.6-1.16-2.6-2.6"/>
    </g>
    <g id="g80">
      <path id="path82" class="cls-16" d="M284.09,25.65c0-.4.32-.72.72-.72s.72.32.72.72-.32.72-.72.72-.72-.32-.72-.72M284.81,25.02c-.34,0-.6.28-.6.62s.26.62.6.62.6-.27.6-.62-.26-.62-.6-.62M284.65,26.08h-.1v-.87h.32c.15,0,.27.08.27.24,0,.14-.07.23-.21.24l.25.39h-.12l-.23-.39h-.18v.39ZM284.65,25.61h.2c.12,0,.2-.03.2-.16,0-.11-.09-.16-.2-.16h-.2v.32Z"/>
    </g>
  </g>
  <image width="1280" height="397" transform="translate(360.53 20.92) scale(.04)" xlink:href="../../../Alejandro Mendoza/Valtre/Logos Matriz/PMO as a Service/1630502985340.png"/>
</svg>