<?xml version="1.0" encoding="UTF-8"?>
<svg id="Capa_1" data-name="Capa 1" xmlns="http://www.w3.org/2000/svg" xmlns:xlink="http://www.w3.org/1999/xlink" viewBox="0 0 425.5 62">
  <defs>
    <style>
      .cls-1 {
        fill: url(#Degradado_sin_nombre_6);
      }

      .cls-2 {
        fill: url(#Degradado_sin_nombre_16);
      }

      .cls-3 {
        fill: #5b6591;
      }

      .cls-4 {
        fill: #fff;
      }

      .cls-5 {
        fill: none;
      }

      .cls-6 {
        fill: #009c4d;
      }

      .cls-7 {
        fill: url(#Degradado_sin_nombre_5);
      }

      .cls-7, .cls-8, .cls-9, .cls-10 {
        fill-rule: evenodd;
      }

      .cls-11 {
        letter-spacing: .02em;
      }

      .cls-12 {
        fill: url(#Degradado_sin_nombre_4);
      }

      .cls-13 {
        letter-spacing: .02em;
      }

      .cls-14 {
        fill: url(#Degradado_sin_nombre_2);
        opacity: .05;
      }

      .cls-15 {
        fill: #fbca41;
      }

      .cls-16, .cls-8 {
        fill: #1f447e;
      }

      .cls-17 {
        fill: #7099a6;
      }

      .cls-18 {
        fill: #e8762c;
      }

      .cls-19 {
        font-family: 72-Regular, 72;
        font-size: 6.68px;
      }

      .cls-20 {
        fill: #eb912c;
      }

      .cls-21 {
        fill: #ee8f33;
      }

      .cls-22 {
        fill: #34c8de;
      }

      .cls-23 {
        letter-spacing: .02em;
      }

      .cls-24 {
        letter-spacing: .01em;
      }

      .cls-10 {
        fill: url(#Degradado_sin_nombre_3);
      }

      .cls-25 {
        fill: #292323;
      }

      .cls-26 {
        fill: #e51b27;
      }

      .cls-27 {
        fill: #59879b;
      }

      .cls-28 {
        fill: #c72035;
      }

      .cls-29 {
        fill: #54565b;
      }
    </style>
    <linearGradient id="Degradado_sin_nombre_2" data-name="Degradado sin nombre 2" x1="148.98" y1="-130.66" x2="388.89" y2="203.4" gradientUnits="userSpaceOnUse">
      <stop offset="0" stop-color="#fff"/>
      <stop offset="1" stop-color="#000"/>
    </linearGradient>
    <linearGradient id="Degradado_sin_nombre_16" data-name="Degradado sin nombre 16" x1="2.89" y1="30.86" x2="102.71" y2="30.86" gradientUnits="userSpaceOnUse">
      <stop offset="0" stop-color="#00aeef"/>
      <stop offset=".36" stop-color="#049ddf"/>
      <stop offset="1" stop-color="#0f75bc"/>
    </linearGradient>
    <clipPath id="clippath">
      <rect class="cls-5" x="123.83" y="-786.66" width="960.22" height="540.01"/>
    </clipPath>
    <linearGradient id="Degradado_sin_nombre_6" data-name="Degradado sin nombre 6" x1="-1794.63" y1="-728.43" x2="-1794.63" y2="-728.47" gradientTransform="translate(393169.5 -458898) scale(219 -630)" gradientUnits="userSpaceOnUse">
      <stop offset="0" stop-color="#ebbb14"/>
      <stop offset="1" stop-color="#b25400"/>
    </linearGradient>
    <linearGradient id="Degradado_sin_nombre_5" data-name="Degradado sin nombre 5" x1="-1794.07" y1="-728.92" x2="-1794.07" y2="-728.96" gradientTransform="translate(393040.5 -344759) scale(219 -473)" gradientUnits="userSpaceOnUse">
      <stop offset="0" stop-color="#f9e583"/>
      <stop offset="1" stop-color="#de9800"/>
    </linearGradient>
    <linearGradient id="Degradado_sin_nombre_3" data-name="Degradado sin nombre 3" x1="-1793.51" y1="-729.9" x2="-1793.51" y2="-729.94" gradientTransform="translate(392913.5 -229893.02) scale(219 -315)" gradientUnits="userSpaceOnUse">
      <stop offset="0" stop-color="#f9e68b"/>
      <stop offset="1" stop-color="#f3cd32"/>
    </linearGradient>
    <linearGradient id="Degradado_sin_nombre_4" data-name="Degradado sin nombre 4" x1="376.09" y1="-2264.82" x2="376.09" y2="-2280" gradientTransform="translate(0 -2244) scale(1 -1)" gradientUnits="userSpaceOnUse">
      <stop offset="0" stop-color="#0ae"/>
      <stop offset="1" stop-color="#05a"/>
    </linearGradient>
  </defs>
  <rect class="cls-14" x="104.8" y="-.27" width="320.36" height="62.27"/>
  <rect class="cls-2" x="-.66" y="-.27" width="103.44" height="62.27"/>
  <g>
    <path class="cls-4" d="M16.01,14.87v1.91c0,2.35-1.13,3.63-3.44,3.63h-1.09v5.52h-2.31v-14.7h3.4c2.31,0,3.44,1.28,3.44,3.63ZM11.47,13.33v4.98h1.09c.73,0,1.13-.34,1.13-1.39v-2.2c0-1.05-.4-1.39-1.13-1.39h-1.09Z"/>
    <path class="cls-4" d="M22.08,21.67l1.58-10.44h3.21v14.7h-2.18v-10.54l-1.6,10.54h-2.18l-1.72-10.39v10.39h-2.02v-14.7h3.21l1.7,10.44Z"/>
    <path class="cls-4" d="M28.36,14.76c0-2.35,1.24-3.7,3.51-3.7s3.51,1.34,3.51,3.7v7.64c0,2.35-1.24,3.7-3.51,3.7s-3.51-1.34-3.51-3.7v-7.64ZM30.67,22.55c0,1.05.46,1.45,1.2,1.45s1.2-.4,1.2-1.45v-7.94c0-1.05-.46-1.45-1.2-1.45s-1.2.4-1.2,1.45v7.94Z"/>
    <path class="cls-4" d="M9.83,44.98h-.88l3.21-14.72h1.41l3.28,14.72h-.97l-.73-3.25h-4.58l-.74,3.25ZM15,40.89l-2.16-9.51-2.12,9.51h4.28Z"/>
    <path class="cls-4" d="M23.75,31.15c.51.67.77,1.56.77,2.68v.31h-.92v-.38c0-.84-.18-1.51-.53-2-.35-.49-.9-.73-1.66-.73s-1.31.25-1.66.73c-.35.49-.52,1.15-.52,1.97,0,.53.11,1,.34,1.42.22.41.5.77.83,1.07s.78.66,1.35,1.08c.6.43,1.09.82,1.47,1.15s.69.75.94,1.24c.25.49.38,1.06.38,1.72,0,1.12-.26,2.01-.78,2.68-.52.67-1.32,1-2.39,1s-1.88-.33-2.39-1c-.52-.66-.78-1.56-.78-2.68v-.76h.92v.82c0,.84.18,1.5.54,1.98.36.48.92.72,1.69.72s1.33-.24,1.69-.72c.36-.48.54-1.14.54-1.98,0-.53-.11-1-.34-1.41s-.5-.76-.83-1.06c-.33-.3-.77-.65-1.33-1.06-.6-.43-1.09-.82-1.47-1.17-.38-.34-.7-.76-.96-1.26-.26-.5-.39-1.07-.39-1.73,0-1.13.26-2.02.78-2.67.52-.64,1.3-.97,2.35-.99,1.06,0,1.85.33,2.36,1Z"/>
    <path class="cls-4" d="M30.01,44.98h-.88l3.21-14.72h1.41l3.28,14.72h-.97l-.73-3.25h-4.58l-.74,3.25ZM35.18,40.89l-2.16-9.51-2.12,9.51h4.28Z"/>
    <path class="cls-4" d="M47.18,31.15c.51.67.77,1.56.77,2.68v.31h-.92v-.38c0-.84-.18-1.51-.53-2-.35-.49-.9-.73-1.66-.73s-1.31.25-1.66.73c-.35.49-.52,1.15-.52,1.97,0,.53.11,1,.34,1.42.22.41.5.77.83,1.07s.78.66,1.35,1.08c.6.43,1.09.82,1.47,1.15s.69.75.94,1.24c.25.49.38,1.06.38,1.72,0,1.12-.26,2.01-.78,2.68-.52.67-1.32,1-2.39,1s-1.88-.33-2.39-1c-.52-.66-.78-1.56-.78-2.68v-.76h.92v.82c0,.84.18,1.5.54,1.98.36.48.92.72,1.69.72s1.33-.24,1.69-.72c.36-.48.54-1.14.54-1.98,0-.53-.11-1-.34-1.41s-.5-.76-.83-1.06c-.33-.3-.77-.65-1.33-1.06-.6-.43-1.09-.82-1.47-1.17-.38-.34-.7-.76-.96-1.26-.26-.5-.39-1.07-.39-1.73,0-1.13.26-2.02.78-2.67.52-.64,1.3-.97,2.35-.99,1.06,0,1.85.33,2.36,1Z"/>
    <path class="cls-4" d="M54.5,37.97h-4.01v6.13h4.83v.88h-5.8v-14.7h5.8v.88h-4.83v5.92h4.01v.88Z"/>
    <path class="cls-4" d="M63.11,33.6v1.28c0,.87-.17,1.55-.51,2.05-.34.5-.88.83-1.61,1,1.41.31,2.12,1.31,2.12,3v2.29c0,.81.12,1.4.36,1.76h-1.01c-.13-.21-.21-.45-.25-.72-.04-.27-.06-.62-.06-1.04v-2.31c0-.92-.23-1.57-.69-1.94-.46-.37-1.15-.56-2.06-.56h-1.53v6.57h-.97v-14.7h3.07c2.1,0,3.15,1.11,3.15,3.32ZM61.47,37c.45-.35.67-.99.67-1.93v-1.38c0-.83-.17-1.45-.52-1.88-.35-.43-.91-.64-1.68-.64h-2.08v6.36h1.55c.92,0,1.61-.17,2.06-.52Z"/>
    <path class="cls-4" d="M68.72,43.87l2.98-13.59h.9l-3.19,14.7h-1.43l-3.23-14.7h.99l2.98,13.59Z"/>
    <path class="cls-4" d="M75.04,44.98h-.97v-14.7h.97v14.7Z"/>
    <path class="cls-4" d="M82.22,31.17c.52.68.78,1.58.78,2.7v1.22h-.92v-1.28c0-.84-.18-1.51-.54-2.02-.36-.5-.92-.76-1.69-.76s-1.33.25-1.69.76c-.36.5-.54,1.18-.54,2.02v7.64c0,.84.18,1.51.54,2.01.36.5.92.75,1.69.75s1.33-.25,1.69-.75c.36-.5.54-1.17.54-2.01v-1.74h.92v1.68c0,1.12-.26,2.02-.78,2.7-.52.68-1.32,1.02-2.39,1.02s-1.88-.34-2.39-1.02c-.52-.68-.78-1.58-.78-2.7v-7.52c0-1.12.26-2.02.78-2.7.52-.68,1.32-1.02,2.39-1.02s1.88.34,2.39,1.02Z"/>
    <path class="cls-4" d="M89.55,37.97h-4.01v6.13h4.83v.88h-5.8v-14.7h5.8v.88h-4.83v5.92h4.01v.88Z"/>
  </g>
  <g>
    <path d="M126.6,45.88v1.82h-1.19v-5.29h1.87c1.33,0,2,.56,2,1.69,0,.53-.19.96-.57,1.29-.38.33-.89.49-1.53.49h-.57ZM126.6,43.32v1.65h.47c.63,0,.95-.28.95-.83s-.32-.81-.95-.81h-.47Z"/>
    <path d="M131.79,47.79c-.63,0-1.12-.18-1.48-.53-.36-.35-.54-.83-.54-1.44s.19-1.11.56-1.47.88-.53,1.52-.53,1.12.18,1.47.53.54.82.54,1.4c0,.63-.18,1.12-.55,1.49-.37.36-.87.55-1.51.55ZM131.82,44.72c-.28,0-.49.09-.64.28s-.23.46-.23.8c0,.73.29,1.09.88,1.09s.84-.37.84-1.12-.28-1.06-.84-1.06Z"/>
    <path d="M140.14,43.92l-1.09,3.78h-1.22l-.56-2.21c-.04-.15-.06-.31-.06-.48h-.02c-.02.19-.04.35-.07.47l-.6,2.23h-1.21l-1.07-3.78h1.19l.52,2.46c.03.12.04.26.06.42h.02c.01-.17.03-.32.07-.43l.65-2.45h1.11l.58,2.46c.01.06.03.2.05.43h.03c.01-.14.03-.29.06-.43l.49-2.46h1.08Z"/>
    <path d="M144.14,46.14h-2.46c.04.55.38.82,1.04.82.42,0,.78-.1,1.1-.29v.84c-.35.19-.8.28-1.36.28-.61,0-1.08-.17-1.42-.51-.34-.34-.5-.81-.5-1.41s.18-1.12.55-1.49.81-.55,1.34-.55.98.16,1.28.49c.3.33.45.77.45,1.33v.49ZM143.06,45.42c0-.54-.22-.81-.66-.81-.19,0-.35.08-.49.23-.14.16-.22.35-.25.58h1.39Z"/>
    <path d="M147.48,44.97c-.14-.08-.3-.11-.49-.11-.25,0-.45.09-.59.28s-.21.44-.21.76v1.8h-1.17v-3.78h1.17v.7h.01c.18-.51.52-.77,1-.77.12,0,.22.01.29.04v1.07Z"/>
    <path d="M150.22,47.7v-5.29h1.92c.59,0,1.04.11,1.36.33.32.22.48.52.48.91,0,.29-.1.54-.29.75-.19.21-.44.36-.74.45h0c.38.06.68.2.9.43.22.23.34.51.34.84,0,.48-.17.87-.52,1.15s-.82.43-1.42.43h-2.03ZM151.42,43.29v1.25h.52c.25,0,.44-.06.58-.18s.21-.28.21-.49c0-.39-.29-.58-.87-.58h-.45ZM151.42,45.42v1.39h.65c.28,0,.49-.06.65-.19s.23-.3.23-.52-.08-.38-.23-.5c-.15-.12-.37-.18-.64-.18h-.65Z"/>
    <path d="M155.68,43.32c-.2,0-.36-.06-.48-.17-.12-.12-.19-.26-.19-.43s.06-.32.19-.43c.12-.11.29-.17.48-.17s.36.05.48.17c.12.11.19.25.19.43s-.06.32-.19.43-.29.17-.48.17ZM156.26,47.7h-1.17v-3.78h1.17v3.78Z"/>
  </g>
  <g>
    <path class="cls-26" d="M183.52,23.15c.55,0,1.1,0,1.66,0,1.02,0,2.03.68,2.4,1.66.41,1.06.25,2.04-.53,2.9-.55.61-1.25.87-2.06.86-1.01,0-2.02,0-3.03,0-1.2,0-2.23-.72-2.6-1.82-.38-1.12-.01-2.34.94-3.06.45-.34.96-.52,1.54-.52.56,0,1.12,0,1.69,0ZM183.49,27.58h0c.48,0,.96,0,1.44,0,1.03,0,1.81-.74,1.82-1.73.01-.93-.76-1.74-1.74-1.76-1.01-.02-2.02-.02-3.03,0-.96.02-1.68.73-1.74,1.66-.06.88.6,1.71,1.5,1.81.58.06,1.16.01,1.75.01Z"/>
    <path class="cls-25" d="M174.7,31.61c-.04-.1-.03-.19-.01-.3h51.05c.05.1.04.19,0,.3h-51.05Z"/>
    <path class="cls-26" d="M221.19,23.15c-.22.35-.41.65-.6.95-1,0-1.99,0-2.98,0-.86,0-1.52.48-1.74,1.25h5.01c-.17.38-.39.66-.6.98h-4.4c.1.68.83,1.26,1.58,1.26,1.16,0,2.31,0,3.47,0h.36c-.22.35-.42.66-.62.97-1.19-.02-2.37.07-3.54-.04-1.45-.13-2.49-1.41-2.39-2.88.09-1.39,1.28-2.5,2.7-2.5,1.13,0,2.27,0,3.4,0h.34Z"/>
    <path class="cls-26" d="M194.51,28.56c-.54,0-1.01,0-1.47,0-.05,0-.12-.04-.16-.08-.99-.86-1.97-1.72-3.02-2.63.36,0,.66,0,.95,0,.65,0,1.29,0,1.94,0,.52,0,.92-.36.94-.84.02-.49-.37-.89-.92-.9-.81-.01-1.62,0-2.44,0-.31,0-.62,0-.96,0v4.44h-1.03v-5.35c.09-.06.2-.03.3-.03,1.42,0,2.83,0,4.25,0,1.04,0,1.85.81,1.84,1.83,0,1.02-.8,1.81-1.83,1.81-.12,0-.25,0-.48,0,.71.6,1.36,1.15,2.09,1.76Z"/>
    <path class="cls-26" d="M200.14,26.66c-.5-.82-.97-1.57-1.46-2.36-.91,1.44-1.79,2.84-2.69,4.25h-1.2c-.03-.1.06-.18.11-.26,1.02-1.6,2.04-3.21,3.07-4.81.34-.53,1.01-.56,1.35-.04,1.09,1.68,2.17,3.37,3.27,5.09h-1.24c-.18-.29-.38-.61-.58-.93h-2.8c-.19-.3-.39-.6-.62-.95h2.78Z"/>
    <path class="cls-26" d="M208.49,23.2c-.19.3-.37.59-.57.91-.98,0-1.95,0-2.93,0-.58,0-1.09.17-1.47.63-.45.54-.56,1.16-.28,1.8.29.67.83,1.04,1.56,1.05,1.16.02,2.31,0,3.47,0,.1,0,.2,0,.35,0-.22.35-.42.66-.6.95-1.21,0-2.39.06-3.56-.02-1.45-.1-2.48-1.39-2.39-2.84.09-1.43,1.26-2.53,2.69-2.53,1.13,0,2.27,0,3.4,0,.1,0,.2-.03.33.04Z"/>
    <path class="cls-26" d="M209.07,23.17h1.06v4.43h4.83c-.16.37-.4.65-.59.97h-.72c-1.29,0-2.58,0-3.87,0-.53,0-.7-.16-.7-.68,0-1.56,0-3.12,0-4.71Z"/>
    <path class="cls-25" d="M196.81,38.03h-1.15c-.46-.96-.92-1.93-1.39-2.91-.02,0-.03,0-.05,0v2.91h-.75v-3.69h1.18c.44.9.89,1.82,1.33,2.74.02,0,.03,0,.05,0v-2.72c.28-.05.52-.04.78-.02v3.69Z"/>
    <path class="cls-25" d="M182.24,36.1c.44.16.7.41.75.84.04.34-.08.61-.36.81-.25.17-.52.27-.82.28-.56.01-1.12,0-1.7,0v-3.69c.62,0,1.24-.03,1.86.01.41.03.75.26.84.71.1.47-.11.78-.57,1.03ZM180.92,37.4c.3,0,.58.02.85,0,.28-.02.38-.23.37-.48-.01-.24-.12-.43-.38-.44-.28-.01-.55,0-.84,0v.93ZM180.92,35.8c.25,0,.48,0,.71,0,.24-.01.39-.14.4-.39,0-.26-.13-.42-.38-.44-.23-.02-.47,0-.72,0v.83Z"/>
    <path class="cls-25" d="M187.9,36.85h.8c0,.25.08.49.32.61.22.11.45.07.67,0,.21-.06.35-.18.36-.41.01-.22-.12-.35-.31-.41-.18-.06-.36-.1-.54-.15-.19-.06-.38-.11-.56-.18-.37-.15-.64-.4-.66-.83-.01-.43.18-.77.55-.99.49-.28,1.02-.35,1.56-.16.48.17.71.52.72,1.04-.25.06-.49.02-.73.02-.21-.5-.43-.64-.83-.54-.22.05-.39.17-.4.42-.02.24.12.39.34.45.33.09.66.17.99.28.39.14.72.34.73.82.02.52-.2.9-.66,1.1-.55.24-1.11.26-1.67.07-.47-.16-.68-.52-.69-1.16Z"/>
    <path class="cls-25" d="M203.9,35.39h-.73c-.21-.48-.36-.6-.75-.55-.25.03-.44.15-.48.42-.04.28.14.42.39.49.34.09.69.16,1.02.29.37.15.66.38.67.81.02.46-.17.84-.59,1.05-.6.29-1.22.32-1.84.07-.43-.17-.62-.55-.59-1.1h.77c.17.62.48.8,1.03.61.2-.07.35-.19.35-.42,0-.21-.13-.35-.32-.41-.29-.09-.59-.14-.87-.24-.63-.21-.9-.52-.88-.98.02-.53.35-.92.95-1.09.32-.09.65-.12.99-.05.56.12.87.5.89,1.11Z"/>
    <path class="cls-25" d="M210.11,36.86s.08-.01.12-.01c.22,0,.44,0,.65,0,.12.64.61.88,1.14.58.15-.08.24-.2.23-.37,0-.17-.08-.31-.24-.37-.14-.06-.29-.1-.44-.14-.3-.07-.59-.14-.86-.28-.63-.34-.72-1.11-.2-1.6.49-.45,1.41-.56,1.99-.23.36.21.5.53.51.95h-.75c-.15-.47-.37-.62-.79-.54-.24.05-.41.18-.43.43-.02.25.13.38.35.45.32.09.64.17.96.27.4.14.74.35.76.84.02.53-.23.93-.72,1.12-.51.2-1.04.22-1.56.06-.52-.16-.77-.57-.72-1.17Z"/>
    <path class="cls-25" d="M207.58,35.39h-.71c-.21-.48-.38-.61-.79-.54-.23.04-.41.16-.44.42-.03.26.13.4.36.47.33.09.66.17.99.28.38.13.7.35.71.81.02.47-.15.86-.6,1.08-.6.29-1.23.31-1.84.06-.47-.19-.58-.61-.6-1.09.27-.06.53-.02.78-.03.23.64.51.8,1.04.63.2-.07.35-.19.36-.41.01-.23-.14-.35-.34-.43-.32-.12-.67-.14-.99-.28-.38-.17-.73-.37-.74-.86-.01-.51.24-.89.73-1.09.46-.19.93-.23,1.4-.06.46.17.71.55.67,1.04Z"/>
    <path class="cls-25" d="M214.02,34.34h.78c0,.68,0,1.34,0,2.01,0,.16,0,.31.03.47.07.52.31.73.8.72.47,0,.75-.25.76-.77.02-.8,0-1.6,0-2.41.28-.06.53-.02.83-.03v1c0,.41,0,.81,0,1.22.02,1.1-.66,1.59-1.66,1.59-1.04,0-1.58-.59-1.59-1.63,0-.7,0-1.39,0-2.09,0-.02.02-.04.03-.07Z"/>
    <path class="cls-25" d="M183.84,34.34c.27-.03.53-.03.81,0,0,.46,0,.92,0,1.38,0,.34,0,.69.01,1.03.03.54.28.78.77.78.5,0,.76-.22.79-.75.04-.65.02-1.31.03-1.96,0-.15,0-.31,0-.48h.8c-.02.9.06,1.81-.04,2.7-.06.5-.42.83-.9.98-.48.15-.96.15-1.43-.04-.49-.19-.8-.56-.82-1.08-.04-.85,0-1.7,0-2.56Z"/>
    <path class="cls-25" d="M197.69,34.34h2.46c.06.19.03.39.02.62h-1.66v.83h1.53c.07.23.05.43.02.66h-1.54v.96h1.7c.04.23.03.42.01.63h-2.53v-3.69Z"/>
    <path class="cls-25" d="M177.14,34.34v.59h-1.66v.88h1.54c.04.22.03.41,0,.63h-1.54v.97h1.69c.08.21.03.4.04.62h-2.54v-3.68h2.47Z"/>
    <path class="cls-25" d="M225.78,34.34v.6h-1.65v.87h1.53v.62h-1.53v.97h1.7v.63h-2.53v-3.69h2.47Z"/>
    <path class="cls-25" d="M219.67,34.96c-.03-.22-.03-.41,0-.62h2.98v.61h-1.08v3.08h-.82v-3.07h-1.08Z"/>
    <path class="cls-25" d="M218.2,38.03v-3.69h.79v3.69h-.79Z"/>
    <path class="cls-25" d="M192.53,38.03h-.79v-3.69c.27-.03.53-.03.79,0v3.69Z"/>
    <path class="cls-25" d="M177.99,36.4h1.27v.55h-1.27v-.55Z"/>
    <path class="cls-26" d="M222.85,23.74c0,.32-.3.61-.63.61-.33,0-.61-.29-.61-.62,0-.35.29-.63.64-.62.34.01.6.3.6.63ZM221.98,23.35c-.25.21-.29.43-.11.66.16.21.42.25.63.09.22-.16.28-.42.14-.63-.15-.23-.39-.28-.66-.12h0Z"/>
    <path class="cls-26" d="M221.97,23.36c.17.02.36-.05.5.12.05.18-.15.36.05.55-.22.04-.21-.15-.31-.21-.11.03.01.21-.16.23-.13-.21,0-.47-.07-.69,0,0,0,0,0,0ZM222.19,23.49c-.04.05-.04.11,0,.16.07.01.12-.02.14-.08-.03-.06-.07-.09-.14-.08Z"/>
  </g>
  <g>
    <g id="g68">
      <path id="path70" class="cls-29" d="M266.05,30.96c-.2-.33.07-.62.07-.62l2.38-2.46c.27-.28-.12-.28-.12-.28h-2.22c-.39,0-.66.28-.66.28l-2.21,2.34c-.27.28-.27-.11-.27-.11v-5.12c0-.39-.39-.39-.39-.39h-1.69c-.38,0-.38.38-.38.38v10.71c0,.39.39.39.39.39h1.67c.38,0,.38-.38.38-.38v-1.88c0-.39.29-.66.29-.66l.79-.74,1.98,3.32c.2.34.59.34.59.34h2.11c.39,0,.19-.33.19-.33l-2.9-4.79ZM258.81,35.7v-7.72c0-.39-.39-.39-.39-.39h-1.69c-.39,0-.39.39-.39.39v7.72c0,.39.39.39.39.39h1.69c.39,0,.39-.39.39-.39M258.75,26.09v-1.11s0-.38-.38-.38h-1.65s-.38,0-.38.38v1.11s0,.38.38.38h1.65s.38,0,.38-.38M254.52,35.7v-10.69c0-.39-.39-.39-.39-.39h-1.72c-.39,0-.39.39-.39.39v10.69c0,.39.39.39.39.39h1.72c.39,0,.39-.39.39-.39M250.65,35.24s.22-.25-.03-.47l-1.38-1.2c.62-.92.98-2.02.98-3.21,0-3.17-2.57-5.74-5.74-5.74s-5.74,2.57-5.74,5.74,2.57,5.74,5.74,5.74c1.16,0,2.24-.35,3.14-.94l1.52,1.32s.25.22.47-.03l1.04-1.2ZM247.79,30.35c0,1.83-1.48,3.32-3.32,3.32s-3.32-1.48-3.32-3.32,1.48-3.32,3.32-3.32,3.32,1.48,3.32,3.32"/>
    </g>
    <g id="g72">
      <path id="path74" class="cls-6" d="M285.21,35.36l-1.84-1.55c.64-1.02,1.02-2.22,1.02-3.52,0-3.64-2.95-6.59-6.59-6.59s-6.59,2.95-6.59,6.59,2.95,6.59,6.59,6.59c1.41,0,2.72-.45,3.79-1.2l1.97,1.65s.29.24.54-.05l1.17-1.39s.25-.29-.05-.54M281.84,30.29c0,2.24-1.81,4.05-4.05,4.05s-4.05-1.81-4.05-4.05,1.81-4.05,4.05-4.05,4.05,1.81,4.05,4.05"/>
    </g>
    <g id="g76">
      <path id="path78" class="cls-29" d="M275.19,30.29c0-1.43,1.16-2.6,2.6-2.6s2.6,1.16,2.6,2.6-1.16,2.6-2.6,2.6c-1.43,0-2.6-1.16-2.6-2.6"/>
    </g>
    <g id="g80">
      <path id="path82" class="cls-29" d="M284.09,25.65c0-.4.32-.72.72-.72s.72.32.72.72-.32.72-.72.72-.72-.32-.72-.72M284.81,25.02c-.34,0-.6.28-.6.62s.26.62.6.62.6-.27.6-.62-.26-.62-.6-.62M284.65,26.08h-.1v-.87h.32c.15,0,.27.08.27.24,0,.14-.07.23-.21.24l.25.39h-.12l-.23-.39h-.18v.39ZM284.65,25.61h.2c.12,0,.2-.03.2-.16,0-.11-.09-.16-.2-.16h-.2v.32Z"/>
    </g>
  </g>
  <g>
    <path class="cls-17" d="M301.97,24.2v.56h-1v.36h1v1.12h.39v-1.12h1.03v-.36h-1.03v-1.12h-.39v.56Z"/>
    <path class="cls-20" d="M298.69,25.62v.81h-1.52v.51h1.52v1.65h.56v-1.65h1.54v-.51h-1.54v-1.63h-.56v.81Z"/>
    <path class="cls-27" d="M305.06,25.62v.81h-1.52v.54h1.52v1.63h.59v-1.63h1.52v-.54h-1.52v-1.63h-.59v.81Z"/>
    <path class="cls-8" d="M332.76,26.07h.78v6.93h-.78v-6.93ZM326.29,26.8h.8v.96c0,.9,0,.96.04.95.03,0,.14-.04.26-.08.14-.04.32-.06.5-.08.21,0,.33,0,.49.03.13.03.29.08.43.15.12.06.28.16.36.23.07.06.19.2.26.3.07.1.15.26.19.36.04.1.09.28.11.4.03.16.03.31.03.53,0,.17-.03.37-.05.46-.02.09-.08.23-.12.33s-.13.24-.19.32c-.06.08-.18.2-.27.26-.08.07-.24.16-.34.2-.1.05-.27.11-.37.13-.16.04-.26.05-.71.05-.43,0-.57,0-.73-.04-.11-.03-.3-.07-.42-.1s-.21-.07-.22-.08-.02-1.2-.03-2.65v-2.63ZM327.28,29.39l-.18.06v2.02c.38.1.47.11.72.1.25,0,.33-.02.45-.06.08-.03.19-.09.24-.13.05-.04.13-.12.17-.17s.1-.16.13-.24c.03-.08.07-.23.08-.34.02-.15.02-.25,0-.4-.02-.14-.06-.26-.11-.38-.05-.1-.13-.22-.18-.27s-.14-.12-.2-.16c-.06-.04-.18-.08-.26-.1-.08-.02-.22-.04-.32-.04s-.22.01-.27.03c-.05.01-.18.05-.28.09h0ZM313.33,27.04h.78v2.21h2.1v.73h-2.1v2.38h-.78v-2.38h-2.1v-.73h2.1v-2.21Z"/>
    <path class="cls-18" d="M301.83,28.39v.91h-1.69v.68h1.69v1.82h.68v-1.82h1.69v-.68h-1.69v-1.82h-.68v.91Z"/>
    <path class="cls-3" d="M306.79,28.85v.57h-1.03v.46h1.03v1.14h.51v-1.14h1.03v-.46h-1.03v-1.14h-.51v.57Z"/>
    <path class="cls-17" d="M297,28.9v.55h-1v.39h1v1.09h.39v-1.09l1.03-.04v-.35h-1.03v-1.09h-.39v.55Z"/>
    <path class="cls-8" d="M321.73,28.52h.78v1.44c0,.79,0,1.6-.04,2.14l-.2.06c-.11.03-.33.08-.5.11-.26.04-.37.05-.75.04-.34,0-.48-.02-.64-.06-.11-.03-.3-.1-.42-.16-.13-.06-.28-.16-.37-.24-.08-.07-.19-.2-.25-.29-.06-.09-.13-.22-.16-.3s-.08-.24-.1-.35c-.03-.16-.04-.29-.03-.57.01-.28.03-.41.07-.55.03-.1.1-.26.15-.36s.16-.25.23-.34c.08-.09.21-.2.29-.26.08-.05.21-.12.29-.16.08-.03.23-.08.32-.09s.28-.03.4-.03.3.02.4.04c.09.02.24.07.33.11.09.04.16.07.16.07,0,0,0-.05,0-.12v-.12ZM320.39,29.42c-.07.04-.16.11-.21.17s-.12.16-.16.23c-.03.07-.08.19-.1.27-.02.08-.04.23-.04.33s.01.25.03.33c.02.08.06.21.1.29.05.1.12.19.21.28.09.08.2.16.29.19.11.05.21.06.44.07.17,0,.38,0,.49-.02.11-.02.21-.04.22-.05.02-.01.03-.33.04-1.01l.02-.99c-.2-.11-.31-.16-.38-.18-.07-.03-.22-.05-.34-.05-.15,0-.26,0-.36.03-.07.02-.19.07-.25.1ZM345.93,28.52h.78v1.22c0,.67,0,1.48-.04,2.36l-.2.06c-.11.03-.32.08-.48.11-.2.04-.4.05-.66.05-.21,0-.45-.01-.53-.03-.09-.02-.26-.06-.38-.1-.13-.04-.3-.12-.4-.19-.1-.07-.24-.18-.32-.26-.07-.08-.17-.21-.22-.3s-.11-.25-.15-.35c-.05-.15-.06-.27-.07-.55,0-.22,0-.42.02-.52.02-.09.06-.25.09-.35.03-.1.11-.26.17-.35.06-.09.18-.24.27-.33.1-.1.24-.19.35-.25.1-.05.25-.11.33-.13.08-.02.28-.05.44-.05.22,0,.34,0,.48.03.1.02.26.07.34.11.09.04.16.07.16.07,0,0,0-.05,0-.12v-.12ZM344.6,29.42c-.07.04-.16.11-.21.17s-.12.16-.16.23c-.03.07-.08.19-.1.27-.02.08-.04.24-.04.36s.02.28.04.36c.02.08.06.2.09.26s.1.16.17.22c.06.07.16.14.22.17.06.03.17.08.25.1.08.03.22.04.39.04.14,0,.33-.01.43-.03.1-.01.19-.03.21-.04.02-.01.03-.31.04-1.01v-1c-.24-.13-.38-.18-.46-.2-.08-.02-.22-.04-.31-.03-.09,0-.22.02-.29.04-.08.02-.19.07-.26.1h0ZM338.59,28.56c.14,0,.32.03.4.05.08.02.21.07.29.11.08.04.21.12.29.18.08.06.2.18.26.25s.14.22.19.31.1.26.13.36.06.32.08.77h-2.7l.02.09c0,.05.04.16.06.24.03.08.09.21.14.28s.13.16.16.18c.04.03.12.08.18.11.06.03.16.07.23.09s.25.03.42.03.39-.02.52-.04.29-.06.38-.09.2-.07.25-.1.1-.05.12-.05c.02,0,.03.14.03.73l-.13.06c-.08.03-.23.09-.35.12-.12.03-.34.07-.48.09-.2.02-.34.02-.55,0-.16-.02-.38-.06-.5-.09s-.3-.1-.39-.15c-.09-.05-.25-.17-.35-.26-.1-.09-.23-.25-.29-.34s-.13-.25-.17-.35-.08-.28-.09-.39c-.02-.13-.02-.3-.01-.44,0-.13.04-.32.06-.43s.09-.28.15-.39.15-.26.21-.34c.07-.08.2-.2.29-.27s.25-.16.35-.2c.12-.05.24-.08.37-.11.13-.02.28-.03.45-.03h0ZM338.06,29.43c-.07.04-.18.13-.23.19-.05.06-.12.16-.16.23s-.06.13-.06.14c0,.02.31.03.88.03h.88c-.03-.18-.05-.27-.07-.32-.02-.05-.08-.13-.13-.19-.06-.07-.14-.12-.23-.16-.08-.03-.21-.05-.31-.06-.11,0-.22,0-.31.03-.07.02-.19.07-.26.12h0ZM349.75,28.62h.81v1.22c0,1.15,0,1.23.05,1.38.03.09.08.2.13.25.04.05.13.12.2.15.07.03.19.07.28.08.09.01.23.01.32,0,.09-.01.21-.05.28-.08.07-.03.16-.1.2-.15.05-.05.1-.16.13-.25.05-.15.05-.23.05-2.6h.8v1.32c0,1.25,0,1.32-.05,1.46-.03.08-.08.2-.13.27-.04.07-.12.16-.17.21-.05.05-.16.13-.24.18s-.23.11-.34.15c-.12.04-.29.07-.44.08-.14,0-.36,0-.49,0-.15,0-.32-.04-.44-.08-.12-.04-.23-.09-.34-.15-.08-.05-.19-.13-.24-.18-.05-.05-.13-.14-.17-.21-.04-.07-.1-.19-.13-.27-.05-.14-.05-.22-.06-1.46v-1.32Z"/>
    <path class="cls-28" d="M298.69,31.48v.81h-1.52v.54h1.52v1.63h.59v-1.63h1.52v-.54h-1.52v-1.63h-.59v.81Z"/>
    <path class="cls-16" d="M305.06,31.48v.81h-1.52v.51h1.52v1.65h.59v-1.65h1.52v-.51h-1.52v-1.63h-.59v.81Z"/>
    <path class="cls-3" d="M301.92,33.55v.57h-1.03v.46h1.03v1.14h.51v-1.14h1.03v-.46h-1.03v-1.14h-.51v.57Z"/>
  </g>
  <g id="PBI-Logo">
    <g id="Group">
      <rect id="Rectangle" class="cls-1" x="140.94" y="12" width="9.08" height="26.11" rx="1.08" ry="1.08"/>
      <g id="Combined-Shape">
        <path id="path-3" class="cls-9" d="M144.67,37.03v1.08h-8c-.6,0-1.08-.48-1.08-1.08v-17.45c0-.6.48-1.08,1.08-1.08h6.92c.6,0,1.08.48,1.08,1.08v17.45Z"/>
        <path id="path-3-2" data-name="path-3" class="cls-7" d="M144.67,37.03v1.08h-8c-.6,0-1.08-.48-1.08-1.08v-17.45c0-.6.48-1.08,1.08-1.08h6.92c.6,0,1.08.48,1.08,1.08v17.45Z"/>
      </g>
      <path id="Combined-Shape-2" data-name="Combined-Shape" class="cls-10" d="M139.4,37.03v1.08h-8c-.6,0-1.08-.48-1.08-1.08v-10.9c0-.6.48-1.08,1.08-1.08h6.92c.6,0,1.08.48,1.08,1.08v10.9Z"/>
    </g>
  </g>
  <g>
    <g>
      <path class="cls-12" d="M391.44,20.82h-30.7v15.18h15.52"/>
      <path class="cls-4" d="M375.92,23.85v7.15l-2.63-7.15h-2.63l-2.23,5.94c-.27-1.48-1.82-2.02-3.04-2.43-.81-.27-1.69-.61-1.69-1.08,0-.34.47-.67,1.35-.61.61.07,1.15.07,2.23.61l1.08-1.82c-1.01-.54-2.36-.81-3.44-.81-1.28,0-2.36.4-3.04,1.08-.47.47-.67,1.08-.74,1.75,0,.94.34,1.62,1.08,2.16.61.4,1.35.67,2.02.88.88.27,1.55.54,1.55,1.01-.07.61-.74.74-1.21.74-.81.07-1.48-.07-2.5-.67l-.94,1.82c1.01.61,2.09.88,3.37.88.88,0,2.23-.27,2.97-.94l-.13.61h2.56l.47-1.15c1.01.27,2.16.34,3.17,0l.34,1.15h4.59v-2.7h.94c2.36,0,3.78-1.15,3.78-3.17,0-2.29-1.35-3.24-4.25-3.24h-3.04ZM371,29.79l.94-3.04h.07l.94,3.04c-.67.2-1.35.2-1.96,0ZM378.49,28.24v-2.43h.67c.88,0,1.55.27,1.55,1.15,0,.94-.67,1.28-1.55,1.28h-.67Z"/>
    </g>
    <text class="cls-19" transform="translate(387.36 33.22)"><tspan class="cls-24" x="0" y="0">L</tspan><tspan class="cls-11" x="3.61" y="0">u</tspan><tspan class="cls-13" x="7.47" y="0">mi</tspan><tspan class="cls-23" x="14.81" y="0">r</tspan><tspan x="17.2" y="0">a</tspan></text>
    <g>
      <circle class="cls-15" cx="414" cy="28" r="2.12"/>
      <path class="cls-4" d="M414,26c1.1,0,2,.9,2,2s-.9,2-2,2-2-.9-2-2,.9-2,2-2M414,25.75c-1.24,0-2.25,1.01-2.25,2.25s1.01,2.25,2.25,2.25,2.25-1.01,2.25-2.25-1.01-2.25-2.25-2.25h0Z"/>
    </g>
    <g>
      <circle class="cls-21" cx="411" cy="31" r="2.12"/>
      <path class="cls-4" d="M411,29c1.1,0,2,.9,2,2s-.9,2-2,2-2-.9-2-2,.9-2,2-2M411,28.75c-1.24,0-2.25,1.01-2.25,2.25s1.01,2.25,2.25,2.25,2.25-1.01,2.25-2.25-1.01-2.25-2.25-2.25h0Z"/>
    </g>
    <g>
      <circle class="cls-22" cx="415" cy="32" r="2.12"/>
      <path class="cls-4" d="M415,30c1.1,0,2,.9,2,2s-.9,2-2,2-2-.9-2-2,.9-2,2-2M415,29.75c-1.24,0-2.25,1.01-2.25,2.25s1.01,2.25,2.25,2.25,2.25-1.01,2.25-2.25-1.01-2.25-2.25-2.25h0Z"/>
    </g>
  </g>
</svg>