<?xml version="1.0" encoding="UTF-8"?>
<svg id="Capa_1" data-name="Capa 1" xmlns="http://www.w3.org/2000/svg" xmlns:xlink="http://www.w3.org/1999/xlink" viewBox="0 0 425.5 62">
  <defs>
    <style>
      .cls-1, .cls-2 {
        font-size: 8px;
      }

      .cls-1, .cls-2, .cls-3 {
        font-family: BebasNeueBold, 'Bebas Neue';
      }

      .cls-1, .cls-4 {
        letter-spacing: .1em;
      }

      .cls-5 {
        fill: url(#Degradado_sin_nombre_16);
      }

      .cls-6 {
        font-family: BebasNeue-Book, 'Bebas Neue';
      }

      .cls-7, .cls-8, .cls-9, .cls-10 {
        fill: none;
      }

      .cls-11 {
        fill: url(#Degradado_sin_nombre_2);
        opacity: .05;
      }

      .cls-12 {
        letter-spacing: .1em;
      }

      .cls-13 {
        letter-spacing: .1em;
      }

      .cls-14 {
        fill: #fff;
        font-size: 21px;
      }

      .cls-15 {
        fill: #212121;
      }

      .cls-8 {
        stroke-linecap: round;
      }

      .cls-8, .cls-9, .cls-10 {
        stroke: #212121;
        stroke-miterlimit: 10;
        stroke-width: 1.5px;
      }

      .cls-9 {
        stroke-linecap: square;
      }

      .cls-16 {
        letter-spacing: .09em;
      }
    </style>
    <linearGradient id="Degradado_sin_nombre_2" data-name="Degradado sin nombre 2" x1="118.17" y1="-173.36" x2="357.66" y2="160.12" gradientUnits="userSpaceOnUse">
      <stop offset="0" stop-color="#fff"/>
      <stop offset="1" stop-color="#000"/>
    </linearGradient>
    <linearGradient id="Degradado_sin_nombre_16" data-name="Degradado sin nombre 16" x1="-23.18" y1="-254.68" x2="67.01" y2="92.43" gradientUnits="userSpaceOnUse">
      <stop offset="0" stop-color="#00aeef"/>
      <stop offset=".36" stop-color="#049ddf"/>
      <stop offset="1" stop-color="#0f75bc"/>
    </linearGradient>
    <clipPath id="clippath">
      <rect class="cls-7" x="123.83" y="-851.66" width="960.22" height="540.01"/>
    </clipPath>
  </defs>
  <rect class="cls-11" x="104.8" y=".18" width="320.36" height="61.76"/>
  <rect class="cls-5" x="-.66" y=".18" width="103.44" height="61.76"/>
  <text class="cls-14" transform="translate(8.32 31.04)"><tspan class="cls-3"><tspan x="0" y="0">Profesional</tspan></tspan><tspan class="cls-6"><tspan x="0" y="19.05">Training</tspan></tspan></text>
  <text class="cls-2" transform="translate(119.68 49.43)"><tspan class="cls-12" x="0" y="0">Risk Man</tspan><tspan class="cls-13" x="29.68" y="0">a</tspan><tspan class="cls-4" x="33.73" y="0">gement</tspan></text>
  <text class="cls-1" transform="translate(189.24 49.43)"><tspan x="0" y="0">Cronogramas</tspan></text>
  <text class="cls-2" transform="translate(338.51 49.43)"><tspan class="cls-4" x="0" y="0">Gestión de pr</tspan><tspan class="cls-16" x="45.33" y="0">o</tspan><tspan class="cls-4" x="49.18" y="0">yectos</tspan></text>
  <image width="257" height="171" transform="translate(281.95 10.16) scale(.25)" xlink:href="../../../Alejandro Mendoza/Valtre/Logos Matriz/Profesional Training/CSPO_conMarco.png"/>
  <image width="369" height="246" transform="translate(230.8 10.11) scale(.17)" xlink:href="../../../Alejandro Mendoza/Valtre/Logos Matriz/Profesional Training/CSM_conMarco.png"/>
  <g>
    <g>
      <circle class="cls-15" cx="154.06" cy="32.99" r=".99"/>
      <line class="cls-9" x1="154.06" y1="30.04" x2="154.06" y2="26.88"/>
      <path class="cls-9" d="M152.62,22.99l-6.23,10.87c-.64,1.11.16,2.49,1.44,2.49h12.46c1.28,0,2.08-1.38,1.44-2.49l-6.23-10.87c-.64-1.11-2.25-1.11-2.89,0h0Z"/>
    </g>
    <path class="cls-8" d="M150.34,21.07v-.03c-.25-.54-.55-1.05-.92-1.51l1.23-2.02c.11-.18.07-.42-.11-.55l-2.01-1.47c-.17-.13-.42-.1-.56.06l-1.55,1.78c-.55-.21-1.13-.36-1.72-.42l-.55-2.29c-.05-.21-.25-.35-.47-.31l-2.45.38c-.21.03-.37.22-.35.44l.17,2.35c-.54.24-1.05.55-1.51.92l-2.02-1.23c-.18-.11-.42-.07-.55.11l-1.47,2c-.13.17-.1.42.06.56l1.78,1.55c-.21.55-.36,1.13-.42,1.72l-2.29.55c-.21.05-.35.25-.31.47l.38,2.45c.03.21.22.37.44.35l2.35-.16c.24.54.55,1.05.92,1.51l-1.23,2.01c-.11.18-.07.42.11.55l2,1.47c.17.13.42.1.56-.06l1.55-1.78c.55.21,1.13.36,1.72.42M150.71,21.01,144.36,26.76c-1.58.24-3.06-.84-3.3-2.42-.24-1.58.84-3.06,2.42-3.3s3.06.84,3.3,2.42c.24,1.58-.84,3.06-2.42,3.3Z"/>
  </g>
  <g>
    <g>
      <line class="cls-9" x1="199.14" y1="19.79" x2="215.69" y2="19.79"/>
      <polyline class="cls-9" points="209.44 30.32 199.14 30.32 199.14 15.65 203.28 15.65"/>
      <polyline class="cls-9" points="213.44 15.65 215.69 15.65 215.69 20.61"/>
      <line class="cls-9" x1="205.16" y1="15.65" x2="211.56" y2="15.65"/>
      <line class="cls-9" x1="203.28" y1="17.54" x2="203.28" y2="14.15"/>
      <line class="cls-9" x1="211.56" y1="17.54" x2="211.56" y2="14.15"/>
    </g>
    <g>
      <line class="cls-10" x1="219.03" y1="22.77" x2="219.03" y2="24.75"/>
      <line class="cls-10" x1="225.97" y1="29.71" x2="223.99" y2="29.71"/>
      <line class="cls-10" x1="219.03" y1="36.64" x2="219.03" y2="34.66"/>
      <line class="cls-10" x1="212.09" y1="29.71" x2="214.08" y2="29.71"/>
      <circle class="cls-9" cx="219.03" cy="29.71" r="6.94"/>
      <polyline class="cls-9" points="216.06 25.74 219.03 29.71 222.01 29.71"/>
    </g>
  </g>
  <g>
    <polyline class="cls-9" points="368.49 28.78 368.49 30.77 376.45 30.77 376.45 19.82 364.51 19.82 364.51 30.77"/>
    <polyline class="cls-9" points="370.98 19.82 370.98 24.8 368.49 24.8"/>
    <path class="cls-10" d="M383.42,30.77v-13.93c0-1.65-1.34-2.99-2.99-2.99h-1v13.93h1c1.65,0,2.99,1.34,2.99,2.99s-1.34,2.99-2.99,2.99h-18.91v-16.92h15.42"/>
  </g>
</svg>