<?xml version="1.0" encoding="UTF-8"?>
<svg id="Capa_1" data-name="Capa 1" xmlns="http://www.w3.org/2000/svg" xmlns:xlink="http://www.w3.org/1999/xlink" viewBox="0 0 425.5 62">
  <defs>
    <style>
      .cls-1 {
        fill: url(#Degradado_sin_nombre_16);
      }

      .cls-2 {
        fill: #fff;
      }

      .cls-3 {
        fill: #e45823;
      }

      .cls-4, .cls-5, .cls-6, .cls-7 {
        fill: none;
      }

      .cls-8 {
        fill: url(#Degradado_sin_nombre_2);
        opacity: .05;
      }

      .cls-9 {
        fill: #212121;
      }

      .cls-5 {
        stroke-linecap: round;
      }

      .cls-5, .cls-6, .cls-7 {
        stroke: #212121;
        stroke-miterlimit: 10;
        stroke-width: 1.5px;
      }

      .cls-6 {
        stroke-linecap: square;
      }

      .cls-10 {
        fill: #182340;
      }

      .cls-11 {
        fill: #faaa00;
      }
    </style>
    <linearGradient id="Degradado_sin_nombre_2" data-name="Degradado sin nombre 2" x1="118.17" y1="-173.36" x2="357.66" y2="160.12" gradientUnits="userSpaceOnUse">
      <stop offset="0" stop-color="#fff"/>
      <stop offset="1" stop-color="#000"/>
    </linearGradient>
    <linearGradient id="Degradado_sin_nombre_16" data-name="Degradado sin nombre 16" x1="2.89" y1="31.06" x2="102.71" y2="31.06" gradientUnits="userSpaceOnUse">
      <stop offset="0" stop-color="#00aeef"/>
      <stop offset=".36" stop-color="#049ddf"/>
      <stop offset="1" stop-color="#0f75bc"/>
    </linearGradient>
    <clipPath id="clippath">
      <rect class="cls-4" x="123.83" y="-851.66" width="960.22" height="540.01"/>
    </clipPath>
  </defs>
  <rect class="cls-8" x="104.8" y=".18" width="320.36" height="61.76"/>
  <rect class="cls-1" x="-.66" y=".18" width="103.44" height="61.76"/>
  <g>
    <path d="M121.84,49.43c-.05-.14-.08-.23-.08-.69v-.88c0-.52-.18-.71-.58-.71h-.3v2.28h-.88v-5.6h1.33c.91,0,1.3.42,1.3,1.29v.44c0,.58-.18.95-.58,1.13.44.18.58.61.58,1.19v.86c0,.27,0,.47.1.68h-.9ZM120.88,44.64v1.72h.34c.33,0,.53-.14.53-.59v-.55c0-.4-.14-.58-.45-.58h-.42Z"/>
    <path d="M124.01,43.84h.88v5.6h-.88v-5.6Z"/>
    <path d="M127.52,43.77c.86,0,1.3.51,1.3,1.41v.18h-.83v-.23c0-.4-.16-.55-.44-.55s-.44.15-.44.55c0,1.15,1.72,1.37,1.72,2.97,0,.9-.45,1.41-1.31,1.41s-1.31-.51-1.31-1.41v-.34h.83v.4c0,.4.18.54.46.54s.46-.14.46-.54c0-1.15-1.72-1.37-1.72-2.97,0-.9.44-1.41,1.29-1.41Z"/>
    <path d="M131.28,47.2l-.27.51v1.72h-.88v-5.6h.88v2.44l1.15-2.44h.88l-1.22,2.5,1.22,3.1h-.9l-.86-2.23Z"/>
    <path d="M138.14,47.81l.6-3.97h1.22v5.6h-.83v-4.01l-.61,4.01h-.83l-.65-3.96v3.96h-.77v-5.6h1.22l.65,3.97Z"/>
    <path d="M144.25,49.43h-.89l-.15-1.02h-1.08l-.15,1.02h-.81l.9-5.6h1.29l.9,5.6ZM142.24,47.66h.85l-.42-2.83-.42,2.83Z"/>
    <path d="M146.24,45.38v4.05h-.79v-5.6h1.1l.9,3.35v-3.35h.78v5.6h-.9l-1.1-4.05Z"/>
    <path d="M152.52,49.43h-.89l-.15-1.02h-1.08l-.15,1.02h-.81l.9-5.6h1.29l.9,5.6ZM150.52,47.66h.85l-.42-2.83-.42,2.83Z"/>
    <path d="M155.04,46.32h1.23v1.77c0,.9-.45,1.41-1.31,1.41s-1.31-.51-1.31-1.41v-2.91c0-.9.45-1.41,1.31-1.41s1.31.51,1.31,1.41v.54h-.83v-.6c0-.4-.18-.55-.46-.55s-.46.15-.46.55v3.02c0,.4.18.54.46.54s.46-.14.46-.54v-1.03h-.4v-.8Z"/>
    <path d="M158.52,46.2h1.21v.8h-1.21v1.64h1.52v.8h-2.4v-5.6h2.4v.8h-1.52v1.56Z"/>
    <path d="M163.25,47.81l.6-3.97h1.22v5.6h-.83v-4.01l-.61,4.01h-.83l-.66-3.96v3.96h-.77v-5.6h1.22l.65,3.97Z"/>
    <path d="M167.4,46.2h1.21v.8h-1.21v1.64h1.52v.8h-2.4v-5.6h2.4v.8h-1.52v1.56Z"/>
    <path d="M171.04,45.38v4.05h-.79v-5.6h1.1l.9,3.35v-3.35h.78v5.6h-.9l-1.1-4.05Z"/>
    <path d="M174.22,43.84h2.72v.8h-.92v4.8h-.88v-4.8h-.92v-.8Z"/>
  </g>
  <g>
    <path d="M192.11,47.35v.74c0,.9-.45,1.41-1.31,1.41s-1.31-.51-1.31-1.41v-2.91c0-.9.45-1.41,1.31-1.41s1.31.51,1.31,1.41v.54h-.83v-.6c0-.4-.18-.55-.46-.55s-.46.15-.46.55v3.02c0,.4.18.54.46.54s.46-.14.46-.54v-.8h.83Z"/>
    <path d="M195.29,49.43c-.05-.14-.08-.23-.08-.69v-.88c0-.52-.18-.71-.58-.71h-.3v2.28h-.88v-5.6h1.33c.91,0,1.3.42,1.3,1.29v.44c0,.58-.18.95-.58,1.13.44.18.58.61.58,1.19v.86c0,.27,0,.47.1.68h-.9ZM194.33,44.64v1.72h.34c.33,0,.53-.14.53-.59v-.55c0-.4-.14-.58-.45-.58h-.42Z"/>
    <path d="M197.39,45.18c0-.9.47-1.41,1.33-1.41s1.34.51,1.34,1.41v2.91c0,.9-.47,1.41-1.34,1.41s-1.33-.51-1.33-1.41v-2.91ZM198.27,48.15c0,.4.18.55.46.55s.46-.15.46-.55v-3.02c0-.4-.18-.55-.46-.55s-.46.15-.46.55v3.02Z"/>
    <path d="M202.22,45.38v4.05h-.79v-5.6h1.1l.9,3.35v-3.35h.78v5.6h-.9l-1.1-4.05Z"/>
    <path d="M205.58,45.18c0-.9.47-1.41,1.33-1.41s1.33.51,1.33,1.41v2.91c0,.9-.47,1.41-1.33,1.41s-1.33-.51-1.33-1.41v-2.91ZM206.46,48.15c0,.4.18.55.46.55s.46-.15.46-.55v-3.02c0-.4-.18-.55-.46-.55s-.46.15-.46.55v3.02Z"/>
    <path d="M210.94,46.32h1.23v1.77c0,.9-.45,1.41-1.31,1.41s-1.31-.51-1.31-1.41v-2.91c0-.9.45-1.41,1.31-1.41s1.31.51,1.31,1.41v.54h-.83v-.6c0-.4-.18-.55-.46-.55s-.46.15-.46.55v3.02c0,.4.18.54.46.54s.46-.14.46-.54v-1.03h-.4v-.8Z"/>
    <path d="M215.38,49.43c-.05-.14-.08-.23-.08-.69v-.88c0-.52-.18-.71-.58-.71h-.3v2.28h-.88v-5.6h1.33c.91,0,1.3.42,1.3,1.29v.44c0,.58-.18.95-.58,1.13.44.18.58.61.58,1.19v.86c0,.27,0,.47.1.68h-.9ZM214.42,44.64v1.72h.34c.33,0,.53-.14.53-.59v-.55c0-.4-.14-.58-.45-.58h-.42Z"/>
    <path d="M220.4,49.43h-.89l-.15-1.02h-1.08l-.15,1.02h-.81l.9-5.6h1.29l.9,5.6ZM218.39,47.66h.85l-.42-2.83-.42,2.83Z"/>
    <path d="M223.47,47.81l.6-3.97h1.22v5.6h-.83v-4.01l-.61,4.01h-.83l-.66-3.96v3.96h-.77v-5.6h1.22l.65,3.97Z"/>
    <path d="M229.58,49.43h-.89l-.15-1.02h-1.08l-.15,1.02h-.81l.9-5.6h1.29l.9,5.6ZM227.58,47.66h.85l-.42-2.83-.42,2.83Z"/>
    <path d="M231.98,43.77c.86,0,1.3.51,1.3,1.41v.18h-.83v-.23c0-.4-.16-.55-.44-.55s-.44.15-.44.55c0,1.15,1.72,1.37,1.72,2.97,0,.9-.45,1.41-1.31,1.41s-1.31-.51-1.31-1.41v-.34h.83v.4c0,.4.18.54.46.54s.46-.14.46-.54c0-1.15-1.72-1.37-1.72-2.97,0-.9.44-1.41,1.29-1.41Z"/>
  </g>
  <g>
    <path d="M340.15,46.32h1.23v1.77c0,.9-.45,1.41-1.31,1.41s-1.31-.51-1.31-1.41v-2.91c0-.9.45-1.41,1.31-1.41s1.31.51,1.31,1.41v.54h-.83v-.6c0-.4-.18-.55-.46-.55s-.46.15-.46.55v3.02c0,.4.18.54.46.54s.46-.14.46-.54v-1.03h-.4v-.8Z"/>
    <path d="M343.63,46.2h1.21v.8h-1.21v1.64h1.52v.8h-2.4v-5.6h2.4v.8h-1.52v1.56Z"/>
    <path d="M347.68,43.77c.86,0,1.29.51,1.29,1.41v.18h-.83v-.23c0-.4-.16-.55-.44-.55s-.44.15-.44.55c0,1.15,1.72,1.37,1.72,2.97,0,.9-.45,1.41-1.31,1.41s-1.31-.51-1.31-1.41v-.34h.83v.4c0,.4.18.54.46.54s.46-.14.46-.54c0-1.15-1.72-1.37-1.72-2.97,0-.9.44-1.41,1.3-1.41Z"/>
    <path d="M350.03,43.84h2.72v.8h-.92v4.8h-.88v-4.8h-.92v-.8Z"/>
    <path d="M353.94,43.84h.88v5.6h-.88v-5.6Z"/>
    <path d="M356.18,45.18c0-.9.47-1.41,1.33-1.41s1.34.51,1.34,1.41v2.91c0,.9-.47,1.41-1.34,1.41s-1.33-.51-1.33-1.41v-2.91ZM358.46,42.65l-.82.89h-.59l.54-.89h.86ZM357.06,48.15c0,.4.18.55.46.55s.46-.15.46-.55v-3.02c0-.4-.18-.55-.46-.55s-.46.15-.46.55v3.02Z"/>
    <path d="M361.01,45.38v4.05h-.79v-5.6h1.1l.9,3.35v-3.35h.78v5.6h-.9l-1.1-4.05Z"/>
    <path d="M366.48,43.84h1.39c.88,0,1.31.49,1.31,1.38v2.83c0,.9-.43,1.38-1.31,1.38h-1.39v-5.6ZM367.36,44.64v4h.5c.28,0,.45-.14.45-.54v-2.91c0-.4-.17-.54-.45-.54h-.5Z"/>
    <path d="M371.42,46.2h1.21v.8h-1.21v1.64h1.52v.8h-2.4v-5.6h2.4v.8h-1.52v1.56Z"/>
    <path d="M378.93,45.22v.73c0,.9-.43,1.38-1.31,1.38h-.42v2.1h-.88v-5.6h1.3c.88,0,1.31.49,1.31,1.38ZM377.21,44.64v1.89h.42c.28,0,.43-.13.43-.53v-.84c0-.4-.15-.53-.43-.53h-.42Z"/>
    <path d="M381.98,49.43c-.05-.14-.08-.23-.08-.69v-.88c0-.52-.18-.71-.58-.71h-.3v2.28h-.88v-5.6h1.33c.91,0,1.3.42,1.3,1.29v.44c0,.58-.18.95-.58,1.13.44.18.58.61.58,1.19v.86c0,.27,0,.47.1.68h-.9ZM381.02,44.64v1.72h.34c.33,0,.53-.14.53-.59v-.55c0-.4-.14-.58-.45-.58h-.42Z"/>
    <path d="M384.09,45.18c0-.9.47-1.41,1.33-1.41s1.34.51,1.34,1.41v2.91c0,.9-.47,1.41-1.34,1.41s-1.33-.51-1.33-1.41v-2.91ZM384.97,48.15c0,.4.18.55.46.55s.46-.15.46-.55v-3.02c0-.4-.18-.55-.46-.55s-.46.15-.46.55v3.02Z"/>
    <path d="M388.83,47.58l-1.11-3.74h.92l.67,2.55.67-2.55h.84l-1.11,3.74v1.85h-.88v-1.85Z"/>
    <path d="M392.85,46.2h1.21v.8h-1.21v1.64h1.52v.8h-2.4v-5.6h2.4v.8h-1.52v1.56Z"/>
    <path d="M398.27,47.35v.74c0,.9-.45,1.41-1.31,1.41s-1.31-.51-1.31-1.41v-2.91c0-.9.45-1.41,1.31-1.41s1.31.51,1.31,1.41v.54h-.83v-.6c0-.4-.18-.55-.46-.55s-.46.15-.46.55v3.02c0,.4.18.54.46.54s.46-.14.46-.54v-.8h.83Z"/>
    <path d="M399.35,43.84h2.72v.8h-.92v4.8h-.88v-4.8h-.92v-.8Z"/>
    <path d="M403.18,45.18c0-.9.47-1.41,1.33-1.41s1.33.51,1.33,1.41v2.91c0,.9-.47,1.41-1.33,1.41s-1.33-.51-1.33-1.41v-2.91ZM404.06,48.15c0,.4.18.55.46.55s.46-.15.46-.55v-3.02c0-.4-.18-.55-.46-.55s-.46.15-.46.55v3.02Z"/>
    <path d="M408.41,43.77c.86,0,1.3.51,1.3,1.41v.18h-.83v-.23c0-.4-.16-.55-.44-.55s-.44.15-.44.55c0,1.15,1.72,1.37,1.72,2.97,0,.9-.45,1.41-1.31,1.41s-1.31-.51-1.31-1.41v-.34h.83v.4c0,.4.18.54.46.54s.46-.14.46-.54c0-1.15-1.72-1.37-1.72-2.97,0-.9.44-1.41,1.29-1.41Z"/>
  </g>
  <g>
    <g>
      <circle class="cls-9" cx="154.06" cy="32.99" r=".99"/>
      <line class="cls-6" x1="154.06" y1="30.04" x2="154.06" y2="26.88"/>
      <path class="cls-6" d="M152.62,22.99l-6.23,10.87c-.64,1.11.16,2.49,1.44,2.49h12.46c1.28,0,2.08-1.38,1.44-2.49l-6.23-10.87c-.64-1.11-2.25-1.11-2.89,0h0Z"/>
    </g>
    <path class="cls-5" d="M150.34,21.07v-.03c-.25-.54-.55-1.05-.92-1.51l1.23-2.02c.11-.18.07-.42-.11-.55l-2.01-1.47c-.17-.13-.42-.1-.56.06l-1.55,1.78c-.55-.21-1.13-.36-1.72-.42l-.55-2.29c-.05-.21-.25-.35-.47-.31l-2.45.38c-.21.03-.37.22-.35.44l.17,2.35c-.54.24-1.05.55-1.51.92l-2.02-1.23c-.18-.11-.42-.07-.55.11l-1.47,2c-.13.17-.1.42.06.56l1.78,1.55c-.21.55-.36,1.13-.42,1.72l-2.29.55c-.21.05-.35.25-.31.47l.38,2.45c.03.21.22.37.44.35l2.35-.16c.24.54.55,1.05.92,1.51l-1.23,2.01c-.11.18-.07.42.11.55l2,1.47c.17.13.42.1.56-.06l1.55-1.78c.55.21,1.13.36,1.72.42M150.71,21.01,144.36,26.76c-1.58.24-3.06-.84-3.3-2.42-.24-1.58.84-3.06,2.42-3.3s3.06.84,3.3,2.42c.24,1.58-.84,3.06-2.42,3.3Z"/>
  </g>
  <g>
    <g>
      <line class="cls-6" x1="199.14" y1="19.79" x2="215.69" y2="19.79"/>
      <polyline class="cls-6" points="209.44 30.32 199.14 30.32 199.14 15.65 203.28 15.65"/>
      <polyline class="cls-6" points="213.44 15.65 215.69 15.65 215.69 20.61"/>
      <line class="cls-6" x1="205.16" y1="15.65" x2="211.56" y2="15.65"/>
      <line class="cls-6" x1="203.28" y1="17.54" x2="203.28" y2="14.15"/>
      <line class="cls-6" x1="211.56" y1="17.54" x2="211.56" y2="14.15"/>
    </g>
    <g>
      <line class="cls-7" x1="219.03" y1="22.77" x2="219.03" y2="24.75"/>
      <line class="cls-7" x1="225.97" y1="29.71" x2="223.99" y2="29.71"/>
      <line class="cls-7" x1="219.03" y1="36.64" x2="219.03" y2="34.66"/>
      <line class="cls-7" x1="212.09" y1="29.71" x2="214.08" y2="29.71"/>
      <circle class="cls-6" cx="219.03" cy="29.71" r="6.94"/>
      <polyline class="cls-6" points="216.06 25.74 219.03 29.71 222.01 29.71"/>
    </g>
  </g>
  <g>
    <polyline class="cls-6" points="368.49 28.78 368.49 30.77 376.45 30.77 376.45 19.82 364.51 19.82 364.51 30.77"/>
    <polyline class="cls-6" points="370.98 19.82 370.98 24.8 368.49 24.8"/>
    <path class="cls-7" d="M383.42,30.77v-13.93c0-1.65-1.34-2.99-2.99-2.99h-1v13.93h1c1.65,0,2.99,1.34,2.99,2.99s-1.34,2.99-2.99,2.99h-18.91v-16.92h15.42"/>
  </g>
  <g id="CSM_Outline" data-name="CSM Outline">
    <path class="cls-2" d="M267.59,48l-2.26-1.45-2.58.75-1.77-2.02h-2.69s-1.12-2.45-1.12-2.45l-1.41-.42-2.85.52.57-3.14-2.27-2.72.89-.16.23-1.62-1.75-2.04,1.11-2.45-1.11-2.45,1.75-2.04-.38-2.66,2.26-1.46.39-2.66,2.58-.76,1.12-2.44h2.69s1.76-2.04,1.76-2.04l2.58.75,2.27-1.44,2.26,1.45,2.58-.75,1.77,2.02h2.69s1.12,2.45,1.12,2.45l2.57.77.39,2.66,2.26,1.46-.37,2.66,1.76,2.04-1.11,2.45,1.11,2.45-1.75,2.03.23,1.62.89.16-2.27,2.72.57,3.14-2.85-.52-1.41.42-1.12,2.44h-2.69s-1.76,2.04-1.76,2.04l-2.58-.75-2.27,1.45h0ZM265.44,45.82l2.16,1.38,2.16-1.38,2.46.72,1.68-1.93h2.56s1.07-2.34,1.07-2.34l1.86-.55,2.05.38-.45-2.49,1.74-2.08-.23-.04-.34-2.41,1.67-1.94-1.06-2.33,1.06-2.33-1.67-1.94.35-2.54-2.15-1.39-.37-2.53-2.45-.73-1.07-2.33h-2.56s-1.68-1.94-1.68-1.94l-2.46.72-2.16-1.38-2.16,1.38-2.46-.72-1.68,1.93h-2.56s-1.07,2.34-1.07,2.34l-2.46.73-.37,2.53-2.15,1.39.36,2.54-1.67,1.94,1.06,2.33-1.06,2.33,1.67,1.94-.34,2.4-.23.04,1.74,2.08-.45,2.49,2.06-.38,1.86.55,1.07,2.33h2.56s1.69,1.94,1.69,1.94l2.46-.72h0Z"/>
    <polygon class="cls-11" points="283.13 30.8 284.22 28.41 282.5 26.43 282.87 23.83 280.66 22.4 280.28 19.81 277.77 19.06 276.67 16.68 274.05 16.67 272.32 14.69 269.8 15.43 267.6 14.01 265.38 15.42 262.86 14.69 261.14 16.67 258.52 16.68 257.42 19.06 254.91 19.81 254.52 22.4 252.32 23.83 252.69 26.43 250.98 28.42 252.06 30.81 250.97 33.2 252.69 35.18 252.32 37.78 254.52 39.21 254.91 41.8 257.42 42.55 258.51 44.93 261.14 44.94 262.87 46.92 265.38 46.18 267.59 47.6 269.81 46.19 272.33 46.92 274.05 44.94 276.67 44.93 277.77 42.55 280.28 41.8 280.67 39.21 282.87 37.78 282.5 35.18 284.21 33.19 283.13 30.8"/>
    <g>
      <polygon class="cls-10" points="283.03 37.69 281.34 39.7 281.78 42.09 281.85 42.51 281.44 42.44 275.07 41.27 274.75 41.21 274.84 40.9 276.15 36.25 276.22 35.99 276.49 36.04 282.85 37.21 283.35 37.3 283.03 37.69"/>
      <polygon class="cls-10" points="260.44 41.21 260.12 41.27 253.75 42.44 253.33 42.51 253.41 42.09 253.84 39.7 252.16 37.69 251.84 37.3 252.34 37.21 258.7 36.04 258.97 35.99 259.04 36.25 260.35 40.9 260.44 41.21"/>
    </g>
    <path class="cls-11" d="M267.59,44.66c-7.64,0-13.85-6.21-13.85-13.85s6.21-13.85,13.85-13.85,13.85,6.21,13.85,13.85-6.21,13.85-13.85,13.85h0ZM267.59,17.63c-7.27,0-13.18,5.91-13.18,13.18s5.91,13.18,13.18,13.18,13.18-5.91,13.18-13.18-5.91-13.18-13.18-13.18Z"/>
    <circle class="cls-2" cx="267.59" cy="30.8" r="13.52"/>
    <path class="cls-10" d="M254.72,40.72c8.49-1.76,17.26-1.76,25.75,0,.38-1.82.75-3.63,1.13-5.45-9.24-1.91-18.77-1.91-28.01,0,.38,1.82.75,3.63,1.13,5.45h0Z"/>
    <g>
      <path class="cls-2" d="M256.42,37.93l.25-.24c.12.15.32.23.56.2.2-.03.31-.11.3-.22-.02-.11-.09-.13-.26-.14h-.32c-.32,0-.5-.12-.54-.38-.04-.29.18-.5.61-.57.32-.05.59.01.76.2l-.22.25c-.11-.13-.3-.2-.52-.16-.18.03-.28.1-.27.2.01.1.08.13.26.13h.31c.34,0,.52.1.56.37.05.31-.18.54-.64.61-.38.06-.68-.04-.84-.25h0Z"/>
      <path class="cls-2" d="M258.2,37.23c-.06-.48.24-.85.76-.91.43-.05.75.12.86.46l-.39.12c-.06-.2-.22-.3-.44-.27-.28.04-.42.25-.39.55.04.3.23.47.52.44.21-.03.34-.16.36-.36l.4.04c-.05.34-.31.58-.74.63-.54.07-.89-.21-.95-.69h0Z"/>
      <path class="cls-2" d="M260.23,36.21l.83-.08c.43-.04.61.16.63.42.02.18-.06.37-.28.46l.43.58-.43.04-.38-.54-.31.03.05.57-.39.04-.15-1.53h0ZM261.04,36.84c.19-.02.25-.12.24-.25-.01-.12-.09-.2-.28-.19l-.35.03.04.43.35-.03h0Z"/>
      <path class="cls-2" d="M262.48,36.01l.06.9c.01.21.15.35.39.33.23-.01.35-.17.34-.38l-.06-.9.39-.03.06.93c.03.39-.23.66-.71.69-.48.03-.77-.2-.8-.59l-.06-.93.39-.03h0Z"/>
      <path class="cls-2" d="M264.17,35.9l.56-.02.36.92c.02.07.04.12.05.18h0c0-.05.02-.11.04-.18l.29-.94.57-.02.05,1.53h-.36s-.04-1-.04-1c0-.07,0-.14,0-.21h0s-.03.13-.05.19l-.33,1.05h-.35s-.41-1.01-.41-1.01c-.03-.06-.05-.14-.06-.18h0c.01.06.02.13.02.21l.04,1.02h-.34s-.05-1.52-.05-1.52h0Z"/>
      <path class="cls-2" d="M267.56,35.82h.56s.32.95.32.95c.02.07.04.13.04.18h0c0-.05.03-.11.05-.18l.34-.93h.57s-.02,1.54-.02,1.54h-.36s.01-1.02.01-1.02c0-.07,0-.14.02-.21h0s-.03.13-.06.19l-.38,1.03h-.35s-.35-1.05-.35-1.05c-.02-.06-.04-.14-.05-.19h0c0,.06.01.13.01.21v1.02s-.35,0-.35,0l.02-1.53h0Z"/>
      <path class="cls-2" d="M270.54,35.88l.47.02.57,1.56-.41-.02-.11-.34-.68-.03-.14.33-.41-.02.72-1.5h0ZM270.97,36.83l-.14-.43c-.02-.06-.05-.16-.06-.24h0c-.02.08-.06.17-.09.23l-.18.42.48.02h0Z"/>
      <path class="cls-2" d="M271.85,37.15l.3-.18c.09.17.26.3.5.32.2.01.33-.03.34-.15,0-.11-.06-.15-.22-.19l-.31-.07c-.31-.07-.46-.23-.44-.5.02-.29.29-.45.72-.41.32.02.57.14.7.36l-.27.19c-.08-.16-.25-.26-.47-.28-.18-.01-.3.04-.3.14,0,.1.05.15.23.19l.3.07c.33.08.48.21.46.49-.02.31-.3.49-.77.45-.38-.03-.65-.19-.77-.43h0Z"/>
      <path class="cls-2" d="M273.77,36.09l1.44.14-.03.31-.52-.05-.12,1.22-.39-.04.12-1.22-.52-.05.03-.31Z"/>
      <path class="cls-2" d="M276.76,37.68l-.04.28-1.26-.16.19-1.52,1.25.16-.04.28-.86-.11-.04.33.82.1-.03.27-.82-.1-.04.36.87.11h0Z"/>
      <path class="cls-2" d="M277.45,36.51l.82.12c.43.06.55.3.51.56-.03.18-.15.34-.38.38l.27.67-.43-.06-.24-.61-.31-.05-.09.56-.39-.06.23-1.52h0ZM278.08,37.32c.19.03.28-.06.29-.18.02-.12-.04-.22-.23-.25l-.35-.05-.06.43.35.05h0Z"/>
    </g>
    <g>
      <path class="cls-10" d="M259.95,29.69c0-1.37.96-2.29,2.43-2.29,1.23,0,2.05.61,2.24,1.58l-1.13.2c-.11-.58-.5-.91-1.13-.91-.79,0-1.27.54-1.27,1.41s.49,1.4,1.29,1.4c.61,0,1-.32,1.13-.88l1.12.24c-.27.94-1.06,1.51-2.27,1.51-1.52,0-2.41-.89-2.41-2.27h0Z"/>
      <path class="cls-10" d="M264.76,30.91l.81-.56c.27.47.78.78,1.47.78.57,0,.92-.16.92-.5,0-.3-.19-.41-.66-.49l-.89-.13c-.88-.15-1.35-.55-1.35-1.3,0-.81.72-1.31,1.94-1.31.9,0,1.63.28,2.03.87l-.71.6c-.26-.43-.75-.67-1.38-.67-.52,0-.83.16-.83.45s.18.4.67.48l.86.13c.94.15,1.39.5,1.39,1.27,0,.87-.74,1.43-2.05,1.43-1.07,0-1.88-.41-2.23-1.04h0Z"/>
      <path class="cls-10" d="M269.61,27.52h1.58l.93,2.63c.06.19.1.35.12.5h.01c.02-.15.07-.31.13-.51l.91-2.62h1.61v4.31h-1.01v-2.86c0-.19.01-.4.04-.59h-.02c-.02.12-.09.36-.16.53l-1.03,2.92h-.98l-1.04-2.92c-.07-.17-.12-.39-.15-.52h-.02c.02.17.04.38.04.58v2.86h-.95v-4.31h0Z"/>
    </g>
    <g>
      <path class="cls-10" d="M268.19,22.97c-.07,0-.12.05-.12.12s.05.12.12.12.12-.05.12-.12-.05-.12-.12-.12ZM264.62,22.63c.41,0,.76-.25.76-.64,0-.64-.91-.45-.91-.9,0-.24.23-.39.5-.39.16,0,.38.05.36.2l-.03.15h.2l.04-.2c.05-.23-.3-.33-.53-.33-.39,0-.75.22-.75.59,0,.61.91.41.91.91,0,.27-.23.43-.52.43-.22,0-.45-.07-.42-.26l.03-.17h-.2c-.02.07-.03.11-.04.19-.07.33.33.43.58.43h0ZM266.44,21.09c-.45,0-.88.39-.88.9,0,.39.25.64.65.64.37,0,.57-.2.57-.2l-.06-.16s-.18.18-.49.18-.46-.19-.46-.47c0-.4.33-.7.66-.7.14,0,.35.05.33.19v.07s.17,0,.17,0l.02-.12c.05-.25-.3-.33-.5-.33h0ZM268.02,21.32l.04-.2s-.05-.01-.08-.01c-.24,0-.44.2-.54.4h0c.02-.07.06-.23.06-.27,0-.08-.04-.12-.15-.12h-.2l-.04.17h.12s.06.03.05.06l-.24,1.23h.2l.11-.56c.06-.34.29-.72.6-.72.03,0,.05,0,.07,0h0ZM268.32,21.34s0,.04-.01.05l-.13.66c-.01.06-.02.13-.02.18,0,.24.12.39.41.39.33,0,.55-.24.63-.37h0c-.02.07-.04.16-.04.22,0,.08.04.12.15.12h.2l.03-.17h-.12s-.06-.02-.06-.05c0-.01,0-.05.01-.06l.23-1.18h-.19l-.13.66c-.06.3-.33.64-.66.64-.2,0-.26-.11-.26-.26,0-.06,0-.11.02-.17l.13-.68s.01-.05.01-.07c0-.08-.05-.13-.15-.13h-.2l-.04.17h.12s.05.01.05.04h0ZM269.77,22.59h.2l.13-.69c.06-.3.31-.62.63-.62.17,0,.23.11.23.26,0,.06,0,.11-.02.18l-.17.88h.2l.13-.69c.06-.29.33-.62.63-.62.18,0,.23.11.23.26,0,.06-.01.11-.02.18l-.13.68s-.01.05-.01.07c0,.09.05.13.15.13h.2l.03-.17h-.12s-.05-.01-.05-.05c0-.01,0-.04.01-.05l.13-.67c.01-.07.02-.13.02-.18,0-.23-.11-.38-.38-.38-.31,0-.53.23-.62.37h0c0-.23-.12-.37-.38-.37-.31,0-.53.24-.61.37h0c.02-.06.04-.16.04-.21,0-.08-.05-.13-.15-.13h-.2l-.03.17h.11s.06.02.06.05c0,.01,0,.05-.01.07l-.23,1.18h0ZM266.1,24.83h.05l-.04.18h-.12c-.11,0-.14-.03-.17-.17l-.08-.48h-.81l-.27.48c-.08.14-.11.17-.24.17h-.14l.04-.18h.05s.07-.01.1-.06l1.02-1.8h.22l.32,1.81s.03.06.07.06h0ZM265.72,24.18l-.13-.73c-.01-.09-.02-.27-.02-.27h0s-.08.17-.13.27l-.41.73h.7ZM266.74,22.97h-.2l-.04.17h.12s.05.01.05.05c0,.02,0,.04-.01.06l-.3,1.57s-.01.05-.01.07c0,.09.05.13.15.13h.2l.03-.17h-.11s-.06-.01-.06-.05c0-.01,0-.04.01-.05l.3-1.57s.01-.06.01-.08c0-.08-.05-.12-.15-.12h0ZM267.45,22.97h-.2l-.04.17h.12s.05.01.05.05c0,.02,0,.04-.01.06l-.3,1.57s-.01.05-.01.07c0,.09.05.13.15.13h.2l.03-.17h-.12s-.06-.01-.06-.05c0-.01,0-.04.01-.05l.3-1.57s.01-.06.01-.08c0-.08-.05-.12-.15-.12h0ZM268.05,23.55h-.2l-.04.17h.12s.05.01.05.05c0,.02,0,.04-.01.06l-.19.98s-.01.06-.01.08c0,.09.05.13.15.13h.2l.03-.17h-.12s-.06-.01-.06-.05c0-.01,0-.04.01-.05l.19-.99s.01-.06.01-.09c0-.08-.04-.12-.15-.12h0ZM269.54,24.84h.12l-.03.17h-.18c-.11,0-.16-.05-.16-.11,0-.04.02-.13.04-.18h0s-.18.33-.55.33c-.22,0-.43-.11-.43-.38,0-.44.54-.56.99-.56h.09v-.04c.02-.05.02-.09.02-.14,0-.17-.1-.26-.3-.26-.1,0-.3.02-.33.13v.09h-.21l.02-.14c.04-.19.33-.25.53-.25.33,0,.47.16.47.4,0,.06,0,.11-.02.18l-.13.64s-.01.05-.01.07c0,.02.02.04.06.04h0ZM269.39,24.27h-.08c-.25,0-.77.04-.77.37,0,.16.11.25.27.25.3,0,.53-.34.57-.55v-.07ZM271.18,24.8s0-.04,0-.05l.13-.66c.01-.06.02-.13.02-.18,0-.24-.13-.39-.41-.39-.34,0-.56.24-.64.37h0c.02-.07.04-.16.04-.22,0-.08-.05-.12-.15-.12h-.2l-.03.17h.11s.06.02.06.05c0,.01,0,.05-.01.07l-.23,1.18h.2l.13-.69c.06-.29.33-.62.67-.62.2,0,.26.11.26.26,0,.06-.01.11-.02.17l-.13.69s0,.05,0,.07c0,.09.05.13.15.13h.2l.03-.17h-.12s-.06-.01-.05-.04h0ZM272.38,23.52c-.45,0-.88.39-.88.9,0,.39.25.64.65.64.37,0,.57-.2.57-.2l-.06-.16s-.18.18-.49.18-.46-.19-.46-.47c0-.4.33-.7.66-.7.14,0,.35.05.33.19v.07s.17,0,.17,0l.02-.12c.05-.25-.3-.33-.5-.33h0ZM274.33,24.04c0,.11-.04.24-.04.24h-1.12s-.01.06-.01.13c0,.26.16.45.47.45.27,0,.47-.18.47-.18l.06.16s-.24.19-.55.19c-.4,0-.66-.25-.66-.62,0-.48.36-.92.86-.92.36,0,.52.23.52.53h0ZM274.13,24.03c0-.24-.14-.35-.33-.35-.24,0-.48.16-.59.45h.91s.01-.05.01-.1h0ZM274.94,23.29l.06.11h-.06l-.05-.11h-.05v.11h-.06v-.29h.11c.06,0,.09.04.09.09,0,.05-.03.07-.05.08h0s0,0,.01.02h0ZM274.93,23.19s-.02-.05-.05-.05h-.05v.09h.05s.05-.02.05-.05ZM275.15,23.25c0,.15-.12.28-.28.28s-.27-.12-.27-.28.12-.28.27-.28.28.12.28.28ZM275.09,23.25c0-.13-.09-.22-.22-.22s-.22.1-.22.22.09.22.22.22.22-.1.22-.22Z"/>
      <path class="cls-10" d="M262.1,22.74c.13,0,.24-.11.24-.24s-.11-.24-.24-.24-.24.11-.24.24.11.24.24.24Z"/>
      <path class="cls-10" d="M262.51,22.39c0-.12.1-.22.22-.22s.22.1.22.22-.1.22-.22.22-.22-.1-.22-.22Z"/>
      <path class="cls-10" d="M263.33,22.36c.11,0,.21.09.21.21s-.09.21-.21.21-.21-.09-.21-.21.09-.21.21-.21Z"/>
      <path class="cls-10" d="M261.09,23.53c0-.15.12-.28.28-.28s.28.12.28.28-.12.28-.28.28c-.15,0-.28-.13-.28-.28Z"/>
      <path class="cls-10" d="M261.35,22.9c0-.14.11-.26.26-.26s.26.11.26.26-.11.26-.26.26-.26-.12-.26-.26Z"/>
      <path class="cls-10" d="M263.95,23c0,.1-.08.18-.18.18s-.18-.08-.18-.18.08-.18.18-.18.18.08.18.18Z"/>
      <path class="cls-10" d="M263.79,23.55c0-.09.07-.17.17-.17s.17.07.17.17-.07.17-.17.17c-.09,0-.17-.08-.17-.17Z"/>
      <path class="cls-10" d="M263.74,24.12c0-.08.06-.14.14-.14s.14.06.14.14-.06.14-.14.14-.14-.06-.14-.14Z"/>
      <path class="cls-10" d="M263.47,24.62c0-.07.06-.12.12-.12s.12.06.12.12-.06.12-.12.12-.12-.06-.12-.12Z"/>
      <path class="cls-10" d="M263.02,24.9c0-.06.05-.11.11-.11s.11.05.11.11-.05.11-.11.11-.11-.05-.11-.11Z"/>
      <path class="cls-10" d="M262.2,20.68c.01.08-.05.16-.13.17-.08.01-.16-.05-.17-.13s.05-.16.13-.17c.09-.01.16.05.17.13Z"/>
      <path class="cls-10" d="M261.78,20.67c.01.08-.04.15-.12.16-.08.01-.15-.04-.16-.12s.04-.15.12-.16c.08-.01.15.04.16.12Z"/>
      <path class="cls-10" d="M261.4,20.84c.01.07-.04.14-.11.15h0c-.07.01-.14-.04-.15-.11-.01-.07.04-.14.11-.15.07-.01.14.04.15.11Z"/>
      <path class="cls-10" d="M262.78,21.26c.01.09-.05.18-.15.2-.09.01-.18-.05-.2-.15s.05-.18.15-.2c.09-.01.18.05.2.15Z"/>
      <path class="cls-10" d="M262.37,20.75c.09-.01.17.05.18.14.01.09-.05.17-.14.18-.09.01-.17-.05-.18-.14-.01-.09.05-.17.14-.18Z"/>
      <path class="cls-10" d="M261.15,21.16c.01.06-.04.12-.1.13h0c-.06.01-.12-.04-.13-.1-.01-.06.04-.12.1-.13.06,0,.12.04.13.1Z"/>
      <path class="cls-10" d="M260.95,21.44c.06,0,.11.03.12.09h0c0,.06-.03.11-.09.12-.06,0-.11-.04-.12-.09,0-.06.04-.11.09-.12Z"/>
      <path class="cls-10" d="M261.06,21.8s.09.03.1.08h0s-.03.09-.08.1-.09-.03-.1-.08.03-.09.08-.1Z"/>
      <path class="cls-10" d="M261.22,22.2s.02-.08.07-.09h0s.08.02.09.07c0,.04-.02.08-.07.09s-.08-.02-.09-.07Z"/>
      <path class="cls-10" d="M261.54,22.34s.02-.08.06-.08c.04,0,.08.02.08.06s-.02.08-.06.08c-.04,0-.08-.02-.08-.06Z"/>
    </g>
    <path class="cls-11" d="M266.23,41.76c.71-.15,1.26-.69,1.37-1.37.11.68.66,1.22,1.37,1.37-.71.15-1.26.69-1.37,1.37-.11-.68-.66-1.22-1.37-1.37Z"/>
  </g>
  <g id="CSPO_Outline" data-name="CSPO Outline">
    <path class="cls-2" d="M312.98,48l-2.26-1.45-2.58.75-1.77-2.02h-2.69s-1.12-2.45-1.12-2.45l-1.41-.42-2.85.52.57-3.14-2.27-2.72.89-.16.23-1.62-1.75-2.04,1.11-2.45-1.11-2.45,1.75-2.04-.38-2.66,2.26-1.46.39-2.66,2.58-.76,1.12-2.44h2.69s1.76-2.04,1.76-2.04l2.58.75,2.27-1.44,2.26,1.45,2.58-.75,1.77,2.02h2.69s1.12,2.45,1.12,2.45l2.57.77.39,2.66,2.26,1.46-.37,2.66,1.76,2.04-1.11,2.45,1.11,2.45-1.75,2.03.23,1.62.89.16-2.27,2.72.57,3.14-2.85-.52-1.41.42-1.12,2.44h-2.69s-1.76,2.04-1.76,2.04l-2.58-.75-2.27,1.45h0ZM310.82,45.82l2.16,1.38,2.16-1.38,2.46.72,1.68-1.93h2.56s1.07-2.34,1.07-2.34l1.86-.55,2.05.38-.45-2.49,1.74-2.08-.23-.04-.34-2.41,1.67-1.94-1.06-2.33,1.06-2.33-1.67-1.94.35-2.54-2.15-1.39-.37-2.53-2.45-.73-1.07-2.33h-2.56s-1.68-1.94-1.68-1.94l-2.46.72-2.16-1.38-2.16,1.38-2.46-.72-1.68,1.93h-2.56s-1.07,2.34-1.07,2.34l-2.46.73-.37,2.53-2.15,1.39.36,2.54-1.67,1.94,1.06,2.33-1.06,2.33,1.67,1.94-.34,2.4-.23.04,1.74,2.08-.45,2.49,2.06-.38,1.86.55,1.07,2.33h2.56s1.69,1.94,1.69,1.94l2.46-.72h0Z"/>
    <polygon class="cls-3" points="328.51 30.8 329.6 28.41 327.89 26.43 328.25 23.83 326.05 22.4 325.67 19.81 323.15 19.06 322.06 16.68 319.43 16.67 317.71 14.69 315.19 15.43 312.98 14.01 310.77 15.42 308.25 14.69 306.52 16.67 303.9 16.68 302.8 19.06 300.29 19.81 299.91 22.4 297.7 23.83 298.07 26.43 296.36 28.42 297.44 30.81 296.36 33.2 298.07 35.18 297.7 37.78 299.91 39.21 300.29 41.8 302.8 42.55 303.9 44.93 306.52 44.94 308.25 46.92 310.77 46.18 312.98 47.6 315.19 46.19 317.71 46.92 319.43 44.94 322.06 44.93 323.15 42.55 325.67 41.8 326.05 39.21 328.25 37.78 327.89 35.18 329.6 33.19 328.51 30.8"/>
    <g>
      <polygon class="cls-10" points="328.41 37.69 326.73 39.7 327.16 42.09 327.24 42.51 326.82 42.44 320.45 41.27 320.13 41.21 320.22 40.9 321.53 36.25 321.61 35.99 321.87 36.04 328.24 37.21 328.73 37.3 328.41 37.69"/>
      <polygon class="cls-10" points="305.82 41.21 305.5 41.27 299.14 42.44 298.72 42.51 298.79 42.09 299.23 39.7 297.55 37.69 297.22 37.3 297.72 37.21 304.08 36.04 304.35 35.99 304.42 36.25 305.73 40.9 305.82 41.21"/>
    </g>
    <path class="cls-3" d="M312.98,44.66c-7.64,0-13.85-6.21-13.85-13.85s6.21-13.85,13.85-13.85,13.85,6.21,13.85,13.85-6.21,13.85-13.85,13.85h0ZM312.98,17.63c-7.27,0-13.18,5.91-13.18,13.18s5.91,13.18,13.18,13.18,13.18-5.91,13.18-13.18-5.91-13.18-13.18-13.18Z"/>
    <circle class="cls-2" cx="312.98" cy="30.8" r="13.52"/>
    <path class="cls-10" d="M300.1,40.72c8.49-1.76,17.26-1.76,25.75,0,.38-1.82.75-3.63,1.13-5.45-9.24-1.91-18.77-1.91-28.01,0,.38,1.82.75,3.63,1.13,5.45h0Z"/>
    <g>
      <path class="cls-2" d="M301.32,38.35l-.24-1.47.79-.13c.35-.06.59.09.64.38.05.3-.14.53-.49.58l-.41.07.08.5-.37.06h0ZM301.89,37.47c.16-.03.25-.12.22-.26-.02-.14-.13-.2-.29-.18l-.33.05.07.44.33-.05h0Z"/>
      <path class="cls-2" d="M302.87,36.6l.8-.11c.41-.06.59.13.63.38.02.17-.04.36-.25.46l.43.55-.42.06-.39-.5-.3.04.07.55-.38.05-.2-1.47h0ZM303.68,37.18c.18-.02.24-.13.22-.25-.02-.12-.1-.19-.28-.17l-.34.05.06.42.34-.05Z"/>
      <path class="cls-2" d="M304.69,37.1c-.05-.48.25-.81.75-.87.51-.06.87.21.92.69s-.24.81-.75.87c-.51.06-.87-.22-.92-.69ZM305.58,37.51c.27-.03.43-.24.39-.54-.03-.3-.22-.47-.5-.44-.27.03-.42.24-.39.54.03.3.22.47.5.44Z"/>
      <path class="cls-2" d="M306.75,36.14l.74-.06c.49-.04.82.21.86.66.04.45-.26.78-.74.82l-.73.06-.12-1.48h0ZM307.54,37.3c.28-.02.42-.24.4-.52-.02-.28-.2-.45-.47-.42l-.32.03.07.94.32-.03h0Z"/>
      <path class="cls-2" d="M309.11,35.97l.04.88c.01.21.14.34.37.33.22-.01.34-.16.33-.36l-.04-.88.38-.02.05.91c.02.37-.23.63-.7.66-.47.02-.74-.21-.76-.59l-.05-.9.38-.02h0Z"/>
      <path class="cls-2" d="M310.65,36.65c-.01-.47.31-.8.82-.81.42,0,.71.19.78.53l-.39.08c-.04-.2-.18-.31-.4-.3-.27,0-.43.2-.43.5,0,.29.18.48.45.47.21,0,.34-.12.38-.31l.39.08c-.09.33-.35.53-.77.54-.52.01-.84-.29-.85-.76h0Z"/>
      <path class="cls-2" d="M312.53,35.87h1.4v.3h-.51s0,1.18,0,1.18h-.38v-1.19s-.51,0-.51,0v-.3h0Z"/>
      <path class="cls-2" d="M315.09,36.64c.02-.48.37-.77.88-.75.51.02.83.34.81.82s-.36.77-.88.75c-.51-.02-.83-.34-.81-.82ZM315.91,37.17c.28.01.45-.17.47-.47.01-.3-.15-.5-.43-.51-.27-.01-.45.17-.47.47-.01.3.15.5.42.51Z"/>
      <path class="cls-2" d="M317.08,35.98l.38.03.16.98s.01.09.01.13h0s.02-.08.04-.13l.34-.94.39.03.2.98s.02.09.02.13h0s.02-.08.03-.13l.31-.94.38.03-.53,1.45-.43-.03-.19-1s-.01-.08,0-.12h-.01s-.01.08-.03.11l-.34.96-.43-.03-.31-1.51h0Z"/>
      <path class="cls-2" d="M319.81,36.2l.41.04.51.91c.03.06.06.13.08.19h0c0-.06.01-.13.02-.2l.09-.83.35.04-.16,1.48-.39-.04-.53-.92c-.04-.06-.07-.13-.08-.19h0c0,.06-.01.13-.02.2l-.09.83-.35-.04.16-1.48h0Z"/>
      <path class="cls-2" d="M322.91,37.8l-.04.27-1.22-.17.2-1.47,1.21.16-.04.27-.83-.11-.04.32.8.11-.04.26-.8-.11-.05.35.85.11h0Z"/>
      <path class="cls-2" d="M323.59,36.67l.79.13c.41.07.53.3.49.55-.03.17-.14.33-.37.37l.25.65-.42-.07-.22-.6-.3-.05-.09.55-.37-.06.24-1.47h0ZM324.19,37.46c.18.03.27-.05.29-.17.02-.12-.04-.21-.22-.24l-.34-.06-.07.42.34.06h0Z"/>
    </g>
    <g>
      <path class="cls-10" d="M303.6,29.69c0-1.37.96-2.29,2.43-2.29,1.23,0,2.05.61,2.24,1.58l-1.13.2c-.11-.58-.5-.91-1.13-.91-.79,0-1.27.54-1.27,1.41s.49,1.4,1.29,1.4c.61,0,1-.32,1.13-.88l1.12.24c-.27.94-1.06,1.51-2.27,1.51-1.52,0-2.41-.89-2.41-2.27h0Z"/>
      <path class="cls-10" d="M308.4,30.91l.81-.56c.27.47.78.78,1.47.78.57,0,.92-.16.92-.5,0-.3-.19-.41-.66-.49l-.89-.13c-.88-.15-1.35-.55-1.35-1.3,0-.81.72-1.31,1.94-1.31.9,0,1.63.28,2.03.87l-.71.6c-.26-.43-.75-.67-1.38-.67-.52,0-.83.16-.83.45s.18.4.67.48l.86.13c.94.15,1.39.5,1.39,1.27,0,.87-.74,1.43-2.05,1.43-1.07,0-1.88-.41-2.23-1.04h0Z"/>
      <path class="cls-10" d="M313.26,31.83v-4.31h2.34c1.01,0,1.65.53,1.65,1.38s-.65,1.45-1.68,1.45h-1.21v1.48h-1.1ZM315.32,29.59c.48,0,.77-.24.77-.65s-.27-.64-.76-.64h-.97v1.29h.96Z"/>
      <path class="cls-10" d="M317.45,29.68c0-1.39.96-2.28,2.45-2.28s2.45.89,2.45,2.28-.96,2.28-2.45,2.28-2.45-.89-2.45-2.28ZM319.9,31.11c.8,0,1.3-.55,1.3-1.43s-.5-1.43-1.3-1.43-1.29.55-1.29,1.43.5,1.43,1.29,1.43Z"/>
    </g>
    <g>
      <path class="cls-10" d="M313.57,22.97c-.07,0-.12.05-.12.12s.05.12.12.12.12-.05.12-.12-.05-.12-.12-.12ZM310,22.63c.41,0,.76-.25.76-.64,0-.64-.91-.45-.91-.9,0-.24.23-.39.5-.39.16,0,.38.05.36.2l-.03.15h.2l.04-.2c.05-.23-.3-.33-.53-.33-.39,0-.75.22-.75.59,0,.61.91.41.91.91,0,.27-.23.43-.52.43-.22,0-.45-.07-.42-.26l.03-.17h-.2c-.02.07-.03.11-.04.19-.07.33.33.43.58.43h0ZM311.82,21.09c-.45,0-.88.39-.88.9,0,.39.25.64.65.64.37,0,.57-.2.57-.2l-.06-.16s-.18.18-.49.18-.46-.19-.46-.47c0-.4.33-.7.66-.7.14,0,.35.05.33.19v.07s.17,0,.17,0l.02-.12c.05-.25-.3-.33-.5-.33h0ZM313.4,21.32l.04-.2s-.05-.01-.08-.01c-.24,0-.44.2-.54.4h0c.02-.07.06-.23.06-.27,0-.08-.04-.12-.15-.12h-.2l-.04.17h.12s.06.03.05.06l-.24,1.23h.2l.11-.56c.06-.34.29-.72.6-.72.03,0,.05,0,.07,0h0ZM313.7,21.34s0,.04-.01.05l-.13.66c-.01.06-.02.13-.02.18,0,.24.12.39.41.39.33,0,.55-.24.63-.37h0c-.02.07-.04.16-.04.22,0,.08.04.12.15.12h.2l.03-.17h-.12s-.06-.02-.06-.05c0-.01,0-.05.01-.06l.23-1.18h-.19l-.13.66c-.06.3-.33.64-.66.64-.2,0-.26-.11-.26-.26,0-.06,0-.11.02-.17l.13-.68s.01-.05.01-.07c0-.08-.05-.13-.15-.13h-.2l-.04.17h.12s.05.01.05.04h0ZM315.15,22.59h.2l.13-.69c.06-.3.31-.62.63-.62.17,0,.23.11.23.26,0,.06,0,.11-.02.18l-.17.88h.2l.13-.69c.06-.29.33-.62.63-.62.18,0,.23.11.23.26,0,.06-.01.11-.02.18l-.13.68s-.01.05-.01.07c0,.09.05.13.15.13h.2l.03-.17h-.12s-.05-.01-.05-.05c0-.01,0-.04.01-.05l.13-.67c.01-.07.02-.13.02-.18,0-.23-.11-.38-.38-.38-.31,0-.53.23-.62.37h0c0-.23-.12-.37-.38-.37-.31,0-.53.24-.61.37h0c.02-.06.04-.16.04-.21,0-.08-.05-.13-.15-.13h-.2l-.03.17h.11s.06.02.06.05c0,.01,0,.05-.01.07l-.23,1.18h0ZM311.48,24.83h.05l-.04.18h-.12c-.11,0-.14-.03-.17-.17l-.08-.48h-.81l-.27.48c-.08.14-.11.17-.24.17h-.14l.04-.18h.05s.07-.01.1-.06l1.02-1.8h.22l.32,1.81s.03.06.07.06h0ZM311.1,24.18l-.13-.73c-.01-.09-.02-.27-.02-.27h0s-.08.17-.13.27l-.41.73h.7ZM312.12,22.97h-.2l-.04.17h.12s.05.01.05.05c0,.02,0,.04-.01.06l-.3,1.57s-.01.05-.01.07c0,.09.05.13.15.13h.2l.03-.17h-.11s-.06-.01-.06-.05c0-.01,0-.04.01-.05l.3-1.57s.01-.06.01-.08c0-.08-.05-.12-.15-.12h0ZM312.83,22.97h-.2l-.04.17h.12s.05.01.05.05c0,.02,0,.04-.01.06l-.3,1.57s-.01.05-.01.07c0,.09.05.13.15.13h.2l.03-.17h-.12s-.06-.01-.06-.05c0-.01,0-.04.01-.05l.3-1.57s.01-.06.01-.08c0-.08-.05-.12-.15-.12h0ZM313.43,23.55h-.2l-.04.17h.12s.05.01.05.05c0,.02,0,.04-.01.06l-.19.98s-.01.06-.01.08c0,.09.05.13.15.13h.2l.03-.17h-.12s-.06-.01-.06-.05c0-.01,0-.04.01-.05l.19-.99s.01-.06.01-.09c0-.08-.04-.12-.15-.12h0ZM314.93,24.84h.12l-.03.17h-.18c-.11,0-.16-.05-.16-.11,0-.04.02-.13.04-.18h0s-.18.33-.55.33c-.22,0-.43-.11-.43-.38,0-.44.54-.56.99-.56h.09v-.04c.02-.05.02-.09.02-.14,0-.17-.1-.26-.3-.26-.1,0-.3.02-.33.13v.09h-.21l.02-.14c.04-.19.33-.25.53-.25.33,0,.47.16.47.4,0,.06,0,.11-.02.18l-.13.64s-.01.05-.01.07c0,.02.02.04.06.04h0ZM314.78,24.27h-.08c-.25,0-.77.04-.77.37,0,.16.11.25.27.25.3,0,.53-.34.57-.55v-.07ZM316.56,24.8s0-.04,0-.05l.13-.66c.01-.06.02-.13.02-.18,0-.24-.13-.39-.41-.39-.34,0-.56.24-.64.37h0c.02-.07.04-.16.04-.22,0-.08-.05-.12-.15-.12h-.2l-.03.17h.11s.06.02.06.05c0,.01,0,.05-.01.07l-.23,1.18h.2l.13-.69c.06-.29.33-.62.67-.62.2,0,.26.11.26.26,0,.06-.01.11-.02.17l-.13.69s0,.05,0,.07c0,.09.05.13.15.13h.2l.03-.17h-.12s-.06-.01-.05-.04h0ZM317.77,23.52c-.45,0-.88.39-.88.9,0,.39.25.64.65.64.37,0,.57-.2.57-.2l-.06-.16s-.18.18-.49.18-.46-.19-.46-.47c0-.4.33-.7.66-.7.14,0,.35.05.33.19v.07s.17,0,.17,0l.02-.12c.05-.25-.3-.33-.5-.33h0ZM319.71,24.04c0,.11-.04.24-.04.24h-1.12s-.01.06-.01.13c0,.26.16.45.47.45.27,0,.47-.18.47-.18l.06.16s-.24.19-.55.19c-.4,0-.66-.25-.66-.62,0-.48.36-.92.86-.92.36,0,.52.23.52.53h0ZM319.51,24.03c0-.24-.14-.35-.33-.35-.24,0-.48.16-.59.45h.91s.01-.05.01-.1h0ZM320.32,23.29l.06.11h-.06l-.05-.11h-.05v.11h-.06v-.29h.11c.06,0,.09.04.09.09,0,.05-.03.07-.05.08h0s0,0,.01.02h0ZM320.31,23.19s-.02-.05-.05-.05h-.05v.09h.05s.05-.02.05-.05ZM320.53,23.25c0,.15-.12.28-.28.28s-.27-.12-.27-.28.12-.28.27-.28.28.12.28.28ZM320.47,23.25c0-.13-.09-.22-.22-.22s-.22.1-.22.22.09.22.22.22.22-.1.22-.22Z"/>
      <path class="cls-10" d="M307.49,22.74c.13,0,.24-.11.24-.24s-.11-.24-.24-.24-.24.11-.24.24.11.24.24.24Z"/>
      <path class="cls-10" d="M307.89,22.39c0-.12.1-.22.22-.22s.22.1.22.22-.1.22-.22.22-.22-.1-.22-.22Z"/>
      <path class="cls-10" d="M308.71,22.36c.11,0,.21.09.21.21s-.09.21-.21.21-.21-.09-.21-.21.09-.21.21-.21Z"/>
      <path class="cls-10" d="M306.48,23.53c0-.15.12-.28.28-.28s.28.12.28.28-.12.28-.28.28c-.15,0-.28-.13-.28-.28Z"/>
      <path class="cls-10" d="M306.74,22.9c0-.14.11-.26.26-.26s.26.11.26.26-.11.26-.26.26-.26-.12-.26-.26Z"/>
      <path class="cls-10" d="M309.33,23c0,.1-.08.18-.18.18s-.18-.08-.18-.18.08-.18.18-.18.18.08.18.18Z"/>
      <path class="cls-10" d="M309.17,23.55c0-.09.07-.17.17-.17s.17.07.17.17-.07.17-.17.17c-.09,0-.17-.08-.17-.17Z"/>
      <path class="cls-10" d="M309.12,24.12c0-.08.06-.14.14-.14s.14.06.14.14-.06.14-.14.14-.14-.06-.14-.14Z"/>
      <path class="cls-10" d="M308.85,24.62c0-.07.06-.12.12-.12s.12.06.12.12-.06.12-.12.12-.12-.06-.12-.12Z"/>
      <path class="cls-10" d="M308.41,24.9c0-.06.05-.11.11-.11s.11.05.11.11-.05.11-.11.11-.11-.05-.11-.11Z"/>
      <path class="cls-10" d="M307.58,20.68c.01.08-.05.16-.13.17-.08.01-.16-.05-.17-.13s.05-.16.13-.17c.09-.01.16.05.17.13Z"/>
      <path class="cls-10" d="M307.16,20.67c.01.08-.04.15-.12.16-.08.01-.15-.04-.16-.12s.04-.15.12-.16c.08-.01.15.04.16.12Z"/>
      <path class="cls-10" d="M306.78,20.84c.01.07-.04.14-.11.15h0c-.07.01-.14-.04-.15-.11-.01-.07.04-.14.11-.15.07-.01.14.04.15.11Z"/>
      <path class="cls-10" d="M308.16,21.26c.01.09-.05.18-.15.2-.09.01-.18-.05-.2-.15s.05-.18.15-.2c.09-.01.18.05.2.15Z"/>
      <path class="cls-10" d="M307.76,20.75c.09-.01.17.05.18.14.01.09-.05.17-.14.18-.09.01-.17-.05-.18-.14-.01-.09.05-.17.14-.18Z"/>
      <path class="cls-10" d="M306.53,21.16c.01.06-.04.12-.1.13h0c-.06.01-.12-.04-.13-.1-.01-.06.04-.12.1-.13.06,0,.12.04.13.1Z"/>
      <path class="cls-10" d="M306.33,21.44c.06,0,.11.03.12.09h0c0,.06-.03.11-.09.12-.06,0-.11-.04-.12-.09,0-.06.04-.11.09-.12Z"/>
      <path class="cls-10" d="M306.44,21.8s.09.03.1.08h0s-.03.09-.08.1-.09-.03-.1-.08.03-.09.08-.1Z"/>
      <path class="cls-10" d="M306.6,22.2s.02-.08.07-.09h0s.08.02.09.07c0,.04-.02.08-.07.09s-.08-.02-.09-.07Z"/>
      <path class="cls-10" d="M306.92,22.34s.02-.08.06-.08c.04,0,.08.02.08.06s-.02.08-.06.08c-.04,0-.08-.02-.08-.06Z"/>
    </g>
    <path class="cls-3" d="M311.61,41.76c.71-.15,1.26-.69,1.37-1.37.11.68.66,1.22,1.37,1.37-.71.15-1.26.69-1.37,1.37-.11-.68-.66-1.22-1.37-1.37Z"/>
  </g>
  <g>
    <path class="cls-2" d="M16.01,19.97v1.91c0,2.35-1.13,3.63-3.44,3.63h-1.09v5.52h-2.31v-14.7h3.4c2.31,0,3.44,1.28,3.44,3.63ZM11.47,18.44v4.98h1.09c.73,0,1.13-.34,1.13-1.39v-2.21c0-1.05-.4-1.39-1.13-1.39h-1.09Z"/>
    <path class="cls-2" d="M21.59,31.04c-.13-.38-.21-.61-.21-1.81v-2.31c0-1.36-.46-1.87-1.51-1.87h-.8v5.98h-2.31v-14.7h3.49c2.39,0,3.42,1.11,3.42,3.38v1.15c0,1.51-.48,2.5-1.51,2.98,1.16.48,1.53,1.6,1.53,3.13v2.27c0,.71.02,1.24.25,1.78h-2.35ZM19.07,18.44v4.51h.9c.86,0,1.39-.38,1.39-1.55v-1.45c0-1.05-.36-1.51-1.18-1.51h-1.11Z"/>
    <path class="cls-2" d="M24.6,19.87c0-2.35,1.24-3.7,3.51-3.7s3.51,1.34,3.51,3.7v7.64c0,2.35-1.24,3.7-3.51,3.7s-3.51-1.34-3.51-3.7v-7.64ZM26.91,27.66c0,1.05.46,1.45,1.2,1.45s1.2-.4,1.2-1.45v-7.94c0-1.05-.46-1.45-1.2-1.45s-1.2.4-1.2,1.45v7.94Z"/>
    <path class="cls-2" d="M34.99,22.87h2.98v2.1h-2.98v6.07h-2.31v-14.7h6.11v2.1h-3.8v4.43Z"/>
    <path class="cls-2" d="M41.79,22.54h3.17v2.1h-3.17v4.3h3.99v2.1h-6.3v-14.7h6.3v2.1h-3.99v4.09Z"/>
    <path class="cls-2" d="M49.9,16.17c2.25,0,3.4,1.34,3.4,3.7v.46h-2.18v-.61c0-1.05-.42-1.45-1.15-1.45s-1.16.4-1.16,1.45c0,3.02,4.51,3.59,4.51,7.79,0,2.35-1.18,3.7-3.44,3.7s-3.44-1.34-3.44-3.7v-.9h2.18v1.05c0,1.05.46,1.43,1.2,1.43s1.2-.38,1.2-1.43c0-3.02-4.51-3.59-4.51-7.79,0-2.35,1.15-3.7,3.4-3.7Z"/>
    <path class="cls-2" d="M57.33,16.17c2.25,0,3.4,1.34,3.4,3.7v.46h-2.18v-.61c0-1.05-.42-1.45-1.16-1.45s-1.15.4-1.15,1.45c0,3.02,4.51,3.59,4.51,7.79,0,2.35-1.18,3.7-3.44,3.7s-3.44-1.34-3.44-3.7v-.9h2.18v1.05c0,1.05.46,1.43,1.2,1.43s1.2-.38,1.2-1.43c0-3.02-4.51-3.59-4.51-7.79,0-2.35,1.16-3.7,3.4-3.7Z"/>
    <path class="cls-2" d="M61.66,16.34h2.31v14.7h-2.31v-14.7Z"/>
    <path class="cls-2" d="M65.04,19.87c0-2.35,1.24-3.7,3.51-3.7s3.51,1.34,3.51,3.7v7.64c0,2.35-1.24,3.7-3.51,3.7s-3.51-1.34-3.51-3.7v-7.64ZM67.35,27.66c0,1.05.46,1.45,1.2,1.45s1.2-.4,1.2-1.45v-7.94c0-1.05-.46-1.45-1.2-1.45s-1.2.4-1.2,1.45v7.94Z"/>
    <path class="cls-2" d="M75.18,20.39v10.64h-2.08v-14.7h2.9l2.37,8.8v-8.8h2.06v14.7h-2.37l-2.88-10.64Z"/>
    <path class="cls-2" d="M89.15,31.04h-2.33l-.4-2.67h-2.83l-.4,2.67h-2.12l2.35-14.7h3.38l2.35,14.7ZM83.88,26.38h2.23l-1.11-7.43-1.11,7.43Z"/>
    <path class="cls-2" d="M89.8,16.34h2.31v12.6h3.8v2.1h-6.11v-14.7Z"/>
    <path class="cls-2" d="M11.7,36.27h-3v-.88h6.95v.88h-2.98v13.82h-.97v-13.82Z"/>
    <path class="cls-2" d="M22.71,38.71v1.28c0,.87-.17,1.55-.51,2.05-.34.5-.88.83-1.61,1,1.41.31,2.12,1.31,2.12,3v2.29c0,.81.12,1.4.36,1.76h-1.01c-.13-.21-.21-.45-.25-.72-.04-.27-.06-.62-.06-1.04v-2.31c0-.92-.23-1.57-.69-1.94-.46-.37-1.15-.56-2.06-.56h-1.53v6.57h-.97v-14.7h3.07c2.1,0,3.15,1.11,3.15,3.32ZM21.07,42.11c.45-.35.67-.99.67-1.93v-1.39c0-.83-.17-1.45-.52-1.88-.35-.43-.91-.64-1.68-.64h-2.08v6.36h1.55c.92,0,1.61-.17,2.06-.53Z"/>
    <path class="cls-2" d="M24.85,50.09h-.88l3.21-14.72h1.41l3.28,14.72h-.97l-.73-3.25h-4.58l-.74,3.25ZM30.01,45.99l-2.16-9.51-2.12,9.51h4.28Z"/>
    <path class="cls-2" d="M33.88,50.09h-.97v-14.7h.97v14.7Z"/>
    <path class="cls-2" d="M35.14,50.09v-14.7h1.26l4.41,12.41v-12.41h.88v14.7h-1.07l-4.6-13.1v13.1h-.88Z"/>
    <path class="cls-2" d="M43.89,50.09h-.97v-14.7h.97v14.7Z"/>
    <path class="cls-2" d="M45.16,50.09v-14.7h1.26l4.41,12.41v-12.41h.88v14.7h-1.07l-4.6-13.1v13.1h-.88Z"/>
    <path class="cls-2" d="M58.45,36.28c.52.68.78,1.58.78,2.7v1.09h-.92v-1.15c0-.84-.18-1.51-.54-2.02-.36-.5-.92-.76-1.69-.76s-1.33.25-1.69.76c-.36.5-.54,1.18-.54,2.02v7.64c0,.84.18,1.51.54,2.01.36.5.92.75,1.69.75s1.33-.25,1.69-.75c.36-.5.54-1.17.54-2.01v-3.17h-1.95v-.88h2.88v3.99c0,1.12-.26,2.02-.78,2.7s-1.32,1.02-2.39,1.02-1.88-.34-2.39-1.02c-.52-.68-.78-1.58-.78-2.7v-7.52c0-1.12.26-2.02.78-2.7.52-.68,1.32-1.02,2.39-1.02s1.88.34,2.39,1.02Z"/>
  </g>
</svg>