<?xml version="1.0" encoding="UTF-8"?>
<svg id="Capa_1" data-name="Capa 1" xmlns="http://www.w3.org/2000/svg" xmlns:xlink="http://www.w3.org/1999/xlink" viewBox="0 0 425.5 62">
  <defs>
    <style>
      .cls-1 {
        fill: #08a2c9;
      }

      .cls-2 {
        fill: #00a0c8;
      }

      .cls-3 {
        fill: #084466;
      }

      .cls-4 {
        fill: #2bb2e6;
      }

      .cls-5 {
        fill: url(#Degradado_sin_nombre_16);
      }

      .cls-6, .cls-7 {
        fill: #00aeef;
      }

      .cls-8 {
        fill: #0ba0c8;
      }

      .cls-9 {
        fill: #fff;
      }

      .cls-10 {
        fill: #2bb1e5;
      }

      .cls-11 {
        fill: #425066;
      }

      .cls-12 {
        fill: #92c848;
      }

      .cls-13 {
        fill: #2db2e5;
      }

      .cls-14 {
        fill: #2eb2e5;
      }

      .cls-15 {
        fill: #0da3ca;
      }

      .cls-16 {
        fill: #91c749;
      }

      .cls-17 {
        fill: none;
      }

      .cls-18 {
        fill: #08a0c8;
      }

      .cls-19 {
        clip-path: url(#clippath-1);
      }

      .cls-20 {
        fill: url(#Degradado_sin_nombre_2);
        opacity: .05;
      }

      .cls-21 {
        fill: #91c74f;
      }

      .cls-22 {
        fill: #05a1c9;
      }

      .cls-23 {
        fill: #0aa2c9;
      }

      .cls-24 {
        fill: url(#Degradado_sin_nombre_17);
      }

      .cls-25 {
        fill: #8fc644;
      }

      .cls-26 {
        fill: #0a4668;
      }

      .cls-27 {
        fill: #02a0c8;
      }

      .cls-28 {
        fill: #ee4c2c;
      }

      .cls-29 {
        fill: #02a1c8;
      }

      .cls-30 {
        fill: #93c84e;
      }

      .cls-7 {
        fill-rule: evenodd;
      }

      .cls-31 {
        fill: #93c84f;
      }

      .cls-32 {
        fill: #90c74d;
      }

      .cls-33 {
        fill: #f8fbfc;
      }

      .cls-34 {
        fill: #01a0c8;
      }

      .cls-35 {
        fill: #09a2c9;
      }

      .cls-36 {
        fill: #93c952;
      }

      .cls-37 {
        fill: url(#Degradado_sin_nombre_17-2);
      }

      .cls-38 {
        fill: #89d2ea;
      }

      .cls-39 {
        fill: #cee6ef;
      }

      .cls-40 {
        clip-path: url(#clippath);
      }

      .cls-41 {
        fill: #094567;
      }

      .cls-42 {
        fill: #04a1c9;
      }

      .cls-43 {
        fill: #084566;
      }

      .cls-44 {
        fill: #91c956;
      }
    </style>
    <linearGradient id="Degradado_sin_nombre_2" data-name="Degradado sin nombre 2" x1="86.79" y1="-217.3" x2="326.78" y2="116.87" gradientUnits="userSpaceOnUse">
      <stop offset="0" stop-color="#fff"/>
      <stop offset="1" stop-color="#000"/>
    </linearGradient>
    <linearGradient id="Degradado_sin_nombre_16" data-name="Degradado sin nombre 16" x1="2.89" y1="30.82" x2="102.71" y2="30.82" gradientUnits="userSpaceOnUse">
      <stop offset="0" stop-color="#00aeef"/>
      <stop offset=".36" stop-color="#049ddf"/>
      <stop offset="1" stop-color="#0f75bc"/>
    </linearGradient>
    <clipPath id="clippath">
      <polygon class="cls-17" points="395.19 21.87 389.19 18.45 389.19 32.49 391.59 31.1 391.59 27.15 393.4 28.2 393.39 25.49 391.59 24.47 391.59 22.9 395.2 24.98 395.19 21.87"/>
    </clipPath>
    <linearGradient id="Degradado_sin_nombre_17" data-name="Degradado sin nombre 17" x1="382.1" y1="-2531.45" x2="396.83" y2="-2531.45" gradientTransform="translate(0 -2506) scale(1 -1)" gradientUnits="userSpaceOnUse">
      <stop offset="0" stop-color="#ff6f00"/>
      <stop offset="1" stop-color="#ffa800"/>
    </linearGradient>
    <clipPath id="clippath-1">
      <polygon class="cls-17" points="382.66 21.87 388.66 18.45 388.66 32.49 386.26 31.1 386.26 22.9 382.65 24.98 382.66 21.87"/>
    </clipPath>
    <linearGradient id="Degradado_sin_nombre_17-2" data-name="Degradado sin nombre 17" x1="382" x2="396.73" xlink:href="#Degradado_sin_nombre_17"/>
    <clipPath id="clippath-2">
      <rect class="cls-17" x="123.83" y="-917.66" width="960.22" height="540.01"/>
    </clipPath>
  </defs>
  <rect class="cls-20" x="104.8" y="-.37" width="320.36" height="62.37"/>
  <rect class="cls-5" x="-.66" y="-.37" width="103.44" height="62.37"/>
  <g>
    <path class="cls-9" d="M9.16,22.35h2.31v14.7h-2.31v-14.7Z"/>
    <path class="cls-9" d="M20.63,37.05h-2.33l-.4-2.67h-2.83l-.4,2.67h-2.12l2.35-14.7h3.38l2.35,14.7ZM15.36,32.39h2.22l-1.11-7.43-1.11,7.43Z"/>
    <path class="cls-9" d="M24.95,22.35h2.31v12.6h3.8v2.1h-6.11v-14.7Z"/>
    <path class="cls-9" d="M39.55,37.05h-2.33l-.4-2.67h-2.83l-.4,2.67h-2.12l2.35-14.7h3.38l2.35,14.7ZM34.28,32.39h2.23l-1.11-7.43-1.11,7.43Z"/>
    <path class="cls-9" d="M47.53,25.73v.53c0,1.51-.46,2.48-1.49,2.96,1.24.48,1.72,1.6,1.72,3.15v1.2c0,2.27-1.2,3.49-3.51,3.49h-3.63v-14.7h3.49c2.39,0,3.42,1.11,3.42,3.38ZM42.93,24.45v3.88h.9c.86,0,1.39-.38,1.39-1.55v-.82c0-1.05-.36-1.51-1.18-1.51h-1.11ZM42.93,30.44v4.51h1.32c.78,0,1.2-.36,1.2-1.45v-1.28c0-1.37-.44-1.79-1.49-1.79h-1.03Z"/>
    <path class="cls-9" d="M52.25,22.19c2.25,0,3.4,1.34,3.4,3.7v.46h-2.18v-.61c0-1.05-.42-1.45-1.16-1.45s-1.15.4-1.15,1.45c0,3.02,4.51,3.59,4.51,7.79,0,2.35-1.18,3.7-3.44,3.7s-3.44-1.34-3.44-3.7v-.9h2.18v1.05c0,1.05.46,1.43,1.2,1.43s1.2-.38,1.2-1.43c0-3.02-4.51-3.59-4.51-7.79,0-2.35,1.16-3.7,3.4-3.7Z"/>
  </g>
  <g>
    <rect class="cls-33" x="192" y="42.26" width="36" height="7.66"/>
    <path class="cls-2" d="M227.9,13.58v28.76h-35.86V13.58h35.86ZM207.7,39.18v-2.21l1.55.24c.09.88-.39,2.24.78,2.5,1.04,0,.55-1.83.66-2.5l1.67-.24v2.21c0,.33.56.61.92.45.93-.4.3-2.33.57-3.14,2.36-1.13,4.36-3.16,5.1-5.71,2.7-.29,3.79-3.67,1.59-5.39-.53-.42-1.52-.56-1.59-.62-.03-.03-.15-.6-.24-.78-.81-1.73-2.11-3.36-3.76-4.36-.39-.24-1.75-.74-1.93-.93-.17-.17-.28-.78-.46-1.09-1.11-1.88-3.89-1.82-5.08-.02-.19.29-.4,1.09-.5,1.17-.16.14-.85.29-1.12.43-1.9,1-3.36,2.46-4.36,4.36-.14.27-.29.95-.43,1.12-.12.14-.88.26-1.16.39-2.09.97-2.25,4.02-.29,5.24.41.25,1.21.38,1.4.51.09.06.74,1.61.94,1.93.98,1.63,2.56,2.93,4.26,3.74.23.65-.19,2.54.24,2.98.36.37,1.15.19,1.25-.3Z"/>
    <path class="cls-35" d="M204.11,44.14l.48,2.5.61-2.49c.22-.02.75-.09.89.1.1.15.29,1.6.41,1.98.05.16,0,.37.24.41l.41-2.39.9-.11-.97,3.57h-.93s-.55-2.38-.55-2.38l-.55,2.38h-.94c-.02-1.02-.85-2.44-.85-3.39,0-.36.63-.12.84-.17Z"/>
    <path class="cls-1" d="M202.07,44.15l1.21,3.56-.82-.02-.24-.75-1.13-.05-.33.81h-.82s1.21-3.55,1.21-3.55h.92ZM201.73,44.97c-.25-.04-.19-.01-.27.15-.07.15-.38,1.24-.33,1.28h.96s-.36-1.43-.36-1.43Z"/>
    <path class="cls-23" d="M210.68,44.14v.58c-.08.1-1.39-.38-1.53.19s1.45.66,1.72,1.24c.21.47.06,1.13-.37,1.41-.59.38-2.34.52-2.07-.58.36.09,1.63.36,1.68-.18.07-.81-1.75-.37-1.69-1.79.05-1.21,1.38-1.12,2.27-.88Z"/>
    <path class="cls-15" d="M215.2,44.99c2-.41,2.15,2.67.44,2.83s-1.83-2.55-.44-2.83ZM215.2,45.47c-.74.23-.62,2.32.68,1.87.55-.19.73-2.3-.68-1.87Z"/>
    <path class="cls-8" d="M220.01,44.13v.36c-.08.08-1.03-.17-1.2.18v3.04h-.6v-3.22h-1.08s0-.36,0-.36h2.87Z"/>
    <rect class="cls-18" x="212.96" y="44.13" width=".6" height="3.58"/>
    <path class="cls-33" d="M207.7,39.18c-.1.49-.9.66-1.25.3-.43-.44,0-2.33-.24-2.98-1.71-.81-3.28-2.11-4.26-3.74-.19-.32-.85-1.87-.94-1.93-.18-.13-.99-.26-1.4-.51-1.95-1.22-1.8-4.27.29-5.24.28-.13,1.04-.25,1.16-.39.14-.16.29-.84.43-1.12,1-1.89,2.47-3.36,4.36-4.36.27-.14.96-.3,1.12-.43.1-.09.31-.89.5-1.17,1.18-1.8,3.96-1.86,5.08.02.18.31.3.92.46,1.09.19.19,1.54.7,1.93.93,1.65.99,2.95,2.63,3.76,4.36.08.18.21.75.24.78.06.06,1.06.2,1.59.62,2.2,1.72,1.11,5.1-1.59,5.39-.74,2.55-2.74,4.58-5.1,5.71-.27.81.36,2.74-.57,3.14-.37.16-.92-.12-.92-.45v-2.21l-1.67.24c-.11.66.39,2.5-.66,2.5-1.16-.26-.69-1.61-.78-2.5l-1.55-.24v2.21ZM209.58,17.67c-1.86.42-1.36,3.6.78,3.17,2.01-.41,1.42-3.67-.78-3.17ZM209.38,22.18c-.99-.17-1.68-.9-2.15-1.74-2.15.51-3.99,2.58-4.67,4.64.81.42,1.37,1.07,1.58,1.97.72.16,3.05-.29,3.44.33l.15,7.97c.07.19,1.18.39,1.41.38.14,0,.16,0,.24-.13v-13.42ZM210.69,22.18v13.48l1.68-.31.06-7.92c.12-.17.26-.32.48-.36.46-.09,2.78.09,2.91-.02.16-.87.8-1.57,1.57-1.97-.74-2.16-2.52-3.96-4.67-4.7-.26.92-1.11,1.62-2.03,1.79ZM202.4,26.63c-1.63-1.61-3.85.99-2.22,2.4,1.53,1.31,3.62-1.01,2.22-2.4ZM217.54,26.63c-1.4,1.38.69,3.71,2.22,2.4,1.63-1.4-.59-4.01-2.22-2.4ZM206.27,28.5h-2.15c-.16.81-.76,1.61-1.54,1.93.41,1.88,2.01,3.53,3.69,4.4v-6.32ZM215.83,28.5h-2.03v6.2c1.18-.55,2.25-1.65,2.92-2.75.15-.25.76-1.34.65-1.52-.78-.31-1.38-1.11-1.54-1.93Z"/>
    <path class="cls-22" d="M209.38,22.18v13.42c-.09.12-.11.13-.24.13-.24,0-1.35-.19-1.41-.38l-.15-7.97c-.39-.62-2.72-.16-3.44-.33-.21-.89-.77-1.55-1.58-1.97.68-2.06,2.52-4.13,4.67-4.64.48.84,1.17,1.56,2.15,1.74Z"/>
    <path class="cls-34" d="M210.69,22.18c.93-.17,1.78-.87,2.03-1.79,2.15.75,3.93,2.55,4.67,4.7-.78.4-1.41,1.09-1.57,1.97-.13.11-2.45-.07-2.91.02-.22.04-.36.19-.48.36l-.06,7.92-1.68.31v-13.48Z"/>
    <path class="cls-27" d="M206.27,28.5v6.32c-1.68-.87-3.28-2.51-3.69-4.4.78-.32,1.38-1.11,1.54-1.93h2.15Z"/>
    <path class="cls-29" d="M215.83,28.5c.16.82.76,1.61,1.54,1.93.11.19-.5,1.28-.65,1.52-.67,1.11-1.74,2.21-2.92,2.75v-6.2h2.03Z"/>
    <path class="cls-42" d="M209.58,17.67c2.2-.5,2.8,2.76.78,3.17-2.14.43-2.64-2.75-.78-3.17Z"/>
    <path class="cls-42" d="M202.4,26.63c1.4,1.38-.69,3.71-2.22,2.4-1.63-1.4.59-4.01,2.22-2.4Z"/>
    <path class="cls-42" d="M217.54,26.63c1.63-1.61,3.85.99,2.22,2.4-1.53,1.31-3.62-1.01-2.22-2.4Z"/>
  </g>
  <g>
    <g class="cls-40">
      <rect class="cls-24" x="382.1" y="18.4" width="14.73" height="14.11"/>
    </g>
    <g class="cls-19">
      <rect class="cls-37" x="382" y="18.4" width="14.73" height="14.11"/>
    </g>
    <path class="cls-11" d="M370.59,38.14h-2.17v5.97h-1.19v-5.97h-2.15v-.97h5.51v.97Z"/>
    <path class="cls-11" d="M372.03,44.2c-.73,0-1.33-.23-1.79-.69-.46-.46-.68-1.08-.68-1.85v-.14c0-.48.09-.95.3-1.38.18-.39.47-.72.84-.95.36-.23.78-.34,1.2-.34.7,0,1.25.22,1.63.67s.57,1.08.57,1.9v.46h-3.37c.04.43.18.76.43,1.01.25.25.59.38.94.37.51.01.99-.23,1.3-.64l.62.6c-.21.31-.49.56-.83.72-.36.17-.76.26-1.16.25ZM371.89,39.78c-.29-.01-.58.11-.77.33-.2.22-.32.53-.37.93h2.21v-.08c-.03-.39-.13-.68-.31-.88-.2-.21-.47-.32-.76-.3h0Z"/>
    <path class="cls-11" d="M376.07,38.95l.03.6c.37-.45.92-.71,1.5-.69,1.07,0,1.62.61,1.64,1.84v3.41h-1.16v-3.35c0-.33-.07-.57-.21-.73s-.37-.24-.69-.24c-.47,0-.81.21-1.04.63v3.67h-1.16v-5.16h1.09Z"/>
    <path class="cls-11" d="M383.01,42.71c0-.19-.09-.37-.25-.47-.17-.11-.45-.2-.85-.29-.34-.07-.67-.17-.99-.32-.58-.28-.87-.68-.87-1.22,0-.44.2-.85.56-1.12.38-.3.85-.45,1.43-.45.62,0,1.11.15,1.49.46.37.28.58.72.57,1.19h-1.16c0-.21-.09-.42-.25-.56-.18-.15-.42-.23-.66-.22-.22,0-.44.05-.62.18-.16.11-.25.28-.24.47,0,.17.08.33.22.41.15.1.45.2.91.3.37.07.73.19,1.07.36.23.11.43.29.58.5.13.21.19.46.19.71,0,.45-.21.87-.58,1.13-.38.29-.89.43-1.51.43-.39,0-.77-.07-1.13-.23-.31-.14-.58-.35-.77-.63-.18-.25-.28-.55-.28-.86h1.13c0,.25.12.48.31.63.22.16.49.24.76.22.3,0,.54-.06.7-.17.15-.1.24-.27.24-.45Z"/>
    <path class="cls-11" d="M384.74,41.48c0-.47.1-.94.3-1.37.18-.39.48-.71.84-.93.38-.22.81-.33,1.25-.33.7,0,1.26.22,1.69.67.43.45.67,1.04.7,1.78v.27c.01.47-.09.94-.29,1.36-.18.39-.47.71-.84.93-.38.22-.82.34-1.26.33-.73,0-1.31-.24-1.75-.73-.44-.48-.66-1.13-.66-1.94v-.06ZM385.9,41.58c0,.53.11.95.33,1.25.21.3.55.47.92.45.36.01.71-.16.91-.46.22-.31.33-.75.33-1.34,0-.52-.11-.93-.34-1.24-.37-.5-1.08-.61-1.59-.23-.09.06-.16.14-.23.23-.22.3-.33.75-.33,1.35Z"/>
    <path class="cls-11" d="M393.02,40.01c-.16-.03-.31-.04-.47-.04-.53,0-.89.2-1.07.61v3.53h-1.16v-5.16h1.11l.03.58c.28-.45.67-.67,1.16-.67.14,0,.28.02.41.07v1.09Z"/>
    <path class="cls-11" d="M397.87,41.17h-2.79v2.94h-1.21v-6.94h4.41v.97h-3.2v2.06h2.79v.96Z"/>
    <path class="cls-11" d="M400.16,44.11h-1.16v-6.95h1.16v6.95Z"/>
    <path class="cls-11" d="M401,41.48c0-.47.1-.94.3-1.37.18-.39.48-.71.84-.93.38-.22.81-.33,1.25-.33.7,0,1.26.22,1.7.67s.67,1.04.7,1.78v.27c.01.47-.09.94-.29,1.36-.18.39-.47.71-.84.93-.38.22-.82.34-1.26.33-.73,0-1.31-.24-1.75-.73-.44-.48-.65-1.13-.65-1.94v-.06ZM402.16,41.58c0,.53.11.95.33,1.25.38.5,1.1.6,1.61.22.08-.06.16-.14.22-.22.22-.31.33-.75.33-1.34,0-.52-.11-.93-.34-1.24-.21-.3-.55-.47-.91-.46-.36-.01-.7.16-.9.45-.22.3-.33.75-.33,1.35Z"/>
    <path class="cls-11" d="M411.03,42.51l.82-3.56h1.13l-1.41,5.16h-.95l-1.11-3.54-1.09,3.54h-.95l-1.41-5.16h1.13l.84,3.52,1.06-3.52h.87l1.07,3.56Z"/>
  </g>
  <g>
    <g id="group">
      <path id="Path" class="cls-28" d="M313.38,29.53l-.64.64c1.05,1.05,1.05,2.74,0,3.78-1.05,1.05-2.74,1.05-3.78,0-1.05-1.05-1.05-2.74,0-3.78l1.66-1.66.23-.23v-1.26l-2.51,2.51c-1.4,1.4-1.4,3.66,0,5.06,1.4,1.4,3.66,1.4,5.03,0,1.4-1.41,1.4-3.66,0-5.06Z"/>
      <path id="Path-1" class="cls-28" d="M312.59,28.9c0,.26-.21.47-.47.47s-.47-.21-.47-.47.21-.47.47-.47.47.21.47.47Z"/>
    </g>
    <g id="group-1">
      <g id="group-2">
        <path id="Path-2" d="M319.87,31.36h-1.08v2.77h-.82v-7.89h1.99c2.07,0,3.07,1.02,3.07,2.45.03,1.76-1.2,2.67-3.15,2.67ZM319.96,27.03h-1.14v3.63l1.11-.03c1.49-.03,2.31-.61,2.31-1.84,0-1.15-.82-1.76-2.28-1.76Z"/>
        <path id="Path-3" d="M326.68,34.1l-.47,1.26c-.53,1.4-1.08,1.81-1.87,1.81-.44,0-.76-.12-1.11-.26l.23-.73c.26.15.55.26.88.26.44,0,.76-.23,1.2-1.34l.38-1.02-2.25-5.7h.85l1.81,4.77,1.78-4.77h.82l-2.25,5.73Z"/>
        <path id="Path-4" d="M331.6,27.03v7.13h-.82v-7.13h-2.77v-.76h6.35v.76h-2.75Z"/>
        <path id="Path-5" d="M336.66,34.31c-1.61,0-2.77-1.2-2.77-3.04s1.23-3.07,2.86-3.07,2.77,1.2,2.77,3.04c-.03,1.84-1.26,3.07-2.86,3.07ZM336.69,28.94c-1.23,0-2.01.96-2.01,2.34s.82,2.37,2.04,2.37,2.01-.96,2.01-2.34-.82-2.37-2.04-2.37Z"/>
        <path id="Path-6" d="M341.48,34.16h-.79v-5.79l.79-.18v1.23c.38-.73.93-1.23,1.69-1.23.38,0,.73.12,1.02.26l-.2.73c-.26-.15-.55-.26-.88-.26-.61,0-1.17.47-1.64,1.49v3.75Z"/>
        <path id="Path-7" d="M347.27,34.31c-1.75,0-2.83-1.26-2.83-3.04s1.2-3.07,2.83-3.07c.7,0,1.31.18,1.81.5l-.2.7c-.44-.29-.99-.47-1.61-.47-1.26,0-2.01.93-2.01,2.31s.82,2.34,2.04,2.34c.58,0,1.17-.18,1.61-.47l.18.73c-.53.29-1.14.47-1.81.47Z"/>
        <path id="Path-8" d="M353.91,34.16v-3.75c0-1.02-.41-1.46-1.23-1.46-.67,0-1.31.35-1.78.82v4.39h-.79v-8.51l.79-.18v3.66c.61-.61,1.37-.91,2.01-.91,1.11,0,1.81.73,1.81,1.99v3.95h-.82Z"/>
      </g>
    </g>
  </g>
  <g id="g1093">
    <g id="g1074">
      <polyline id="polyline4" points="242.41 34.35 242.41 26.23 244.45 26.23 244.45 32.64 247.62 32.64 247.62 34.35 242.41 34.35"/>
      <path id="path6" d="M257.95,27.73v2.19h1.86c.72,0,1.09-.37,1.09-1.09s-.36-1.09-1.09-1.09h-1.86ZM255.92,34.35v-8.13h4.06c1.97,0,2.95.89,2.95,2.67,0,.53-.15.98-.45,1.37s-.71.67-1.22.82l1.86,3.26h-2.27l-1.6-2.93h-1.3v2.93h-2.03"/>
      <path id="path8" d="M267.53,31.82v-.42l-1.2.35c-.57.16-.85.42-.85.79,0,.45.28.68.83.68.37,0,.66-.12.89-.36.22-.25.33-.59.33-1.04M269.23,29.88v3.21c0,.57.05.99.16,1.26h-1.64c-.06-.19-.1-.4-.11-.63h-.02c-.14.23-.41.42-.79.57-.35.14-.69.22-1.04.22-.61,0-1.08-.15-1.45-.46-.39-.32-.58-.78-.58-1.34,0-.69.28-1.22.83-1.58.48-.3,1.23-.53,2.28-.67l.65-.09v-.51c0-.43-.28-.65-.84-.65-.29,0-.51.06-.65.18s-.24.33-.28.63h-1.73c.03-1.28.88-1.9,2.51-1.9.89,0,1.55.12,1.98.37.49.27.72.73.72,1.38"/>
      <path id="path10" d="M251.49,29.48c-.49,0-.85.17-1.1.53-.23.32-.35.76-.35,1.31s.12.98.35,1.31c.25.36.62.53,1.1.53.97,0,1.45-.64,1.45-1.91,0-.52-.12-.94-.35-1.25-.25-.33-.62-.51-1.1-.51M251.49,28.12c.97,0,1.75.28,2.34.84s.89,1.35.89,2.36-.29,1.79-.89,2.36c-.59.56-1.37.84-2.34.84s-1.75-.28-2.34-.84c-.59-.56-.89-1.35-.89-2.36s.29-1.79.89-2.36c.61-.56,1.38-.84,2.34-.84"/>
      <path id="path12" class="cls-6" d="M251.44,26.91c.89,0,1.72.26,2.41.71l.35-.5c-.8-.52-1.74-.82-2.76-.82s-1.88.28-2.66.76l.35.5c.68-.42,1.47-.65,2.31-.65"/>
      <path id="path14" class="cls-6" d="M247.7,25.5l.46.66c.95-.61,2.07-.95,3.27-.95s2.41.38,3.38,1.02l.46-.66c-1.1-.73-2.43-1.17-3.85-1.17s-2.66.41-3.74,1.1"/>
      <path id="path16" class="cls-6" d="M251.44,23.48c1.62,0,3.12.49,4.39,1.33l.58-.83c-1.42-.96-3.13-1.51-4.97-1.51s-3.46.53-4.85,1.44l.58.83c1.23-.79,2.69-1.25,4.27-1.25"/>
      <path id="path18" class="cls-6" d="M251.56,35.75c-.89,0-1.72-.26-2.41-.71l-.35.5c.8.52,1.74.82,2.77.82.97,0,1.88-.28,2.66-.76l-.35-.5c-.69.42-1.48.65-2.32.65"/>
      <path id="path20" class="cls-6" d="M255.29,37.15l-.46-.66c-.95.61-2.07.95-3.27.95s-2.41-.38-3.38-1.02l-.46.66c1.1.73,2.42,1.17,3.85,1.17s2.66-.41,3.74-1.1"/>
      <path id="path22" class="cls-6" d="M251.56,39.17c-1.62,0-3.12-.49-4.39-1.33l-.58.83c1.42.95,3.13,1.51,4.97,1.51s3.46-.53,4.85-1.44l-.58-.83c-1.23.79-2.7,1.25-4.27,1.25"/>
      <path id="path24" class="cls-7" d="M270.48,26.18h1.98v4.57l3.16-4.57h1.58v4.57l3.16-4.57h2.37l-5.52,8.12h-1.98v-3.94l-2.76,3.94h-1.97v-8.12h-.01Z"/>
      <polygon id="polygon26" class="cls-7" points="294.69 26.18 294.69 34.3 292.59 34.3 289.74 30.04 289.74 34.3 287.8 34.3 287.8 26.18 289.82 26.18 292.73 30.65 292.73 26.18 294.69 26.18"/>
      <path id="path28" class="cls-7" d="M286.36,26.18v8.12h-1.92v-1.17h-2.67l-.81,1.18h-2.26l5.66-8.12h2ZM282.91,31.46h1.52v-2.24l-1.52,2.24Z"/>
    </g>
    <g id="g36">
      <g id="g34">
        <path id="path32" d="M297.98,27.37c0,.62-.49,1.1-1.11,1.1s-1.11-.49-1.11-1.1.5-1.08,1.11-1.08c.63-.01,1.11.48,1.11,1.08ZM296.02,27.37c0,.49.36.86.84.86s.83-.39.83-.86-.35-.88-.83-.88-.84.39-.84.88ZM296.69,27.93h-.25v-1.08c.1-.02.24-.03.42-.03.21,0,.3.03.38.08.06.04.11.13.11.24,0,.12-.1.22-.23.25h0c.11.05.16.13.19.27.03.16.05.23.08.27h-.27s-.05-.14-.09-.26c-.02-.12-.09-.17-.23-.17h-.12v.44ZM296.7,27.32h.12c.14,0,.25-.04.25-.16,0-.1-.08-.16-.23-.16-.06,0-.11.01-.14.01v.31Z"/>
      </g>
    </g>
  </g>
  <g>
    <path class="cls-3" d="M153.39,31.2c-.01.06,0,.13,0,.21-.29,1.27-.66,2.53-.95,3.79h-1.42s-1.63-6.26-1.63-6.26h1.39l.95,4.17,1.14-4.16,1.31.03c.23,1.16.63,2.29.81,3.45,0,.06.01.1.08.12.02.11.02.25.04.36s.08.21.08.32c.07.08.11-.17.12-.2.01-.06,0-.13,0-.21.29-1.26.63-2.51.9-3.78l.06-.1h1.33l-1.67,6.26-1.41-.03c-.24-1.02-.51-2.03-.76-3.05-.07-.27-.14-.56-.17-.84,0-.02-.02-.04-.04-.04,0-.02,0-.06,0-.08-.02-.09-.02-.19-.12-.16,0,.07-.03.13-.04.2Z"/>
    <path class="cls-12" d="M145.81,28.94h.91v6.27h-.6v-5.24c-.09-.02-.06,0-.09.05-.05.1-.12.28-.17.39-.5,1.17-.92,2.42-1.39,3.57-.17.41-.33.83-.52,1.23h-.54s-.11-.17-.12-.2c-.64-1.53-1.15-3.13-1.81-4.66-.05-.13-.14-.32-.24-.42v5.22c0,.14-.48.03-.57.06-.03,0-.07-.09-.07-.1v-6.07s.06-.07.08-.08c.07-.03.68-.04.77-.02.04,0,.07.02.1.06l2.13,5.29,2.12-5.35Z"/>
    <path class="cls-41" d="M161.61,35.2h-1.25c-.09-.08-.08-.2-.1-.3,0-.03.01-.09-.06-.06-.04.02-.15.13-.22.17-1.2.71-3.19.27-2.77-1.45.28-1.13,1.71-.9,2.55-1.14.33-.1.51-.24.42-.61-.17-.68-1.64-.55-1.58.25h-1.27c0-.55.31-1.01.78-1.26.81-.43,3.18-.48,3.34.73.11.81-.05,1.89,0,2.74.02.31.07.64.16.93ZM160.16,33.02c-.49.31-1.63.04-1.72.82-.09.83,1.31.84,1.64.2.08-.15.25-1.02.08-1.03Z"/>
    <path class="cls-43" d="M171.73,30.54c3.48-.22,3.47,5.29-.32,4.78-2.49-.34-2.61-4.59.32-4.78ZM171.81,31.49c-.65.05-.94.62-.98,1.2-.07.88.19,1.79,1.25,1.69,1.3-.13,1.31-3.01-.27-2.89Z"/>
    <path class="cls-43" d="M174.71,35.2v-4.5l.06-.06h1.07c.12.15.03.41.06.6.26-.28.51-.52.9-.63,1.1-.33,2.2.27,2.2,1.49v3.05l-.06.06h-1.19l-.06-.06v-2.94c0-.15-.19-.46-.32-.55-.31-.22-.96-.12-1.19.2-.06.08-.2.43-.2.52v2.78l-.06.06h-1.21Z"/>
    <path class="cls-41" d="M167.94,32.03c-.11-.07-.09-.19-.14-.29-.33-.65-1.93-.31-1.35.31.51.54,2.57.22,2.74,1.47.14,1.07-.63,1.73-1.64,1.8-1.13.08-2.56-.17-2.56-1.56l.06-.06,1.1.03c.08.66.77.86,1.34.7.45-.13.62-.62.17-.88-.74-.43-2.47-.23-2.59-1.42-.19-2,3.28-2.04,3.88-.7.03.08.22.6.07.6h-1.07Z"/>
    <path class="cls-12" d="M138.12,28.94c.31.03.84.24,1.07.44.6.51.56,1.63,0,2.17-.08.08-.48.29-.46.35.95.33,1.3,1.16,1.05,2.12-.17.66-1,1.19-1.67,1.19h-3.16v-6.27h3.16ZM135.6,31.67h2.32c.23,0,.72-.25.87-.44.35-.42.27-1.17-.16-1.51-.21-.17-.66-.28-.91-.28h-2.12v2.22ZM135.56,32.29v2.34l.06.06h2.34c.61,0,1.21-.43,1.29-1.06.15-1.25-.86-1.4-1.84-1.45-.58-.03-1.17.02-1.75,0h-.05s-.04.08-.05.1Z"/>
    <path class="cls-26" d="M163.75,30.64h.85l.06.06v.75l-.06.06h-.85v2.48c0,.07.17.26.26.26h.66v.93c-.07.07-.23.09-.34.1-.42.04-1.28,0-1.59-.32-.16-.17-.3-.55-.3-.77v-2.68h-.71c0-.27-.06-.63.06-.87h.66v-1.29l.06-.06h1.19l.06.06v1.29Z"/>
    <polygon class="cls-25" points="133.82 28.94 133.86 34.95 133.79 35.21 133.22 35.2 133.22 28.94 133.82 28.94"/>
    <path class="cls-38" d="M155.1,32.9h.08s0,.11,0,.11h.12s-.05.28-.12.2c0-.11-.06-.21-.08-.32Z"/>
    <path class="cls-38" d="M153.39,31.2c.01-.07.04-.13.04-.2.1-.03.1.07.12.16l-.16.04Z"/>
    <path class="cls-38" d="M154.98,32.43h.08s0,.08,0,.12c-.07-.02-.07-.06-.08-.12Z"/>
    <path class="cls-38" d="M153.59,31.28s-.04-.02-.04-.04c.02,0,.04.02.04.04Z"/>
    <g>
      <path class="cls-4" d="M123.98,22.41c.19.47.2,1.36.14,1.88-.03.28-.27.62-.53.36-.12-.12-.11-1.66-.09-1.93.01-.13.06-.21.14-.3h.34Z"/>
      <path class="cls-13" d="M116.96,25.89c.14-.12.3-.19.47-.1.23.23,1.54.86,1.57,1.09,0,.25-.15.42-.41.35l-1.64-1.06v-.27Z"/>
      <path class="cls-10" d="M123.28,25.5c4.3-.4,7.26,4.23,5.05,7.98-1.86,3.16-6.26,3.46-8.61.66-2.71-3.22-.6-8.25,3.57-8.64ZM124.32,25.96h-1.19c-.18,0-.94.26-1.16.34-.08.03-.25.03-.24.14.67-.05,1.31.2,1.94.4l.65-.88ZM124.18,26.91c-.03.07-.08.12-.07.2.01.01.22.04.27.07.21.11.7.41.89.55.07.05.22.16.27.2.15.13.56.69.75.79.11.05.22-.01.33,0,.28.06.52.28.56.57.01.08,0,.19,0,.27,0,.02-.1.07-.06.22.05.18.33.37.33.6.11.09.32-.67.34-.75.02-.09.06-.18.07-.27.12-.85-.04-1.71-.89-2.11.13-.05-.14-.25-.17-.27-.22-.18-.38-.22-.58-.34-.31-.18-.43-.29-.82-.41-.11-.03-.32-.13-.41-.14-.32-.02-.69.56-.82.82ZM120.02,27.8s-.05.04-.07.07c-.27.37-.36.54-.55.95-.37.83-.45,1.22-.41,2.11,0,.15-.02.34,0,.48.03.2.23.28.41.34.08.03.24.05.34.07.23.04.58.06.82.07.09,0,.18,0,.27,0,.2,0,1.26-.02,1.33-.13-.02-.4.33-1.1.2-1.43-.03-.08-.19-.19-.24-.28-.01-.02-.07-.13-.07-.14-.05-.32.12-.7.39-.88.12-.08.4-.13.43-.2.12-.2.3-.97.41-1.25.03-.07.09-.12.14-.27,0-.02.12,0,.03-.07-.52-.35-1.76-.47-2.35-.31s-.75.43-1.09.86ZM123.71,29.57c0,.05,0,.15,0,.2-.04.42-.4.71-.8.76l-.29,1.21c.65.19.48-.48.99-.54.45-.06.51.29.69.33.16.04.37-.1.5-.13.06-.01.14.01.2,0,.26-.05,2.17-.5,2.18-.65-.14-.17-.28-.61-.44-.72s-.35-.02-.52-.1c-.13-.06-.27-.35-.34-.37,0-.07-.01-.14,0-.2.02-.14.11-.24.04-.41-.09-.19-.36-.27-.44-.34-.09-.08-.15-.17-.27-.27-.41-.33-.82-.65-1.29-.89l-.55,1.47c0,.21.29.35.34.64ZM128.27,29.44c-.02.12-.04.23-.07.34-.06.23-.09.47-.2.68.27-.08.53-.24.55-.54.01-.25-.06-.29-.14-.48-.04-.09.09-.25-.14-.2,0,.07.01.14,0,.2ZM128.62,30.66l-.82.34c.17.58.39,1.16.34,1.77.12-.02.12-.14.15-.22.25-.57.35-1.27.32-1.89ZM126.84,31.41c-.67.19-1.37.32-2.05.48-.08.02-.14.05-.2.07-.46.13-.21.08-.48.3-.42.35-.71-.08-.98-.1-.1-.01-.52.04-.57.09-.08.09-.13,1.08-.15,1.28,0,.07,0,.14,0,.2,0,.01-.06.08-.07.16-.01.17.01.35,0,.52.27.04.53-.14.75-.2.1-.03.2-.02.34-.07.11-.04.23-.09.34-.14.16-.06.27-.14.41-.2.18-.09.91-.41.99-.54.06-.11-.2-.53.31-.85.32-.2.4-.05.66-.05.22,0,.67-.73.77-.94,0,0,.04.01.07-.03l-.14.03ZM124.05,34.41c-.26,0-.51.22-.68.27-.14.04-.92.17-.95.21,0,.24.07.41.27.54.16.1.3.12.48.14,1.05.1,1.79-.04,2.73-.48.35-.17.5-.24.82-.48.07-.05.1-.1.14-.14.34-.29.53-.35.72-.82.31-.76.13-1.42-.03-2.18l-.99,1.16c.11.8-.36,1.2-1.14.97l-1.35.81ZM119.27,32.44c.13.36.23.77.55,1.02.36.88,1.24,1.08,2.11,1.02-.08-.38.02-.76,0-1.16,0-.07,0-.14,0-.2l.14-.89c-.3.03-.58.06-.89.07-.07,0-.14,0-.2,0-.44,0-.86,0-1.3-.07-.09-.01-.24-.05-.34-.07-.03,0-.1-.11-.2-.07-.03.14.1.24.14.34ZM122,35.23l-.06-.31-.62-.03c.04.14.63.4.68.34Z"/>
      <path class="cls-14" d="M126.89,25.33c-.19.19-.58.03-.52-.27.27-.43.5-1.33.8-1.71.2-.25.58-.02.54.24l-.83,1.74Z"/>
      <path class="cls-13" d="M130.17,25.77c.08-.02.16-.03.24,0l.15.12c.09.18.01.26-.1.38-.07.08-1.42.93-1.5.96-.35.1-.57-.27-.31-.52l1.52-.94Z"/>
      <path class="cls-13" d="M120.01,23.24c.14-.02.18.03.25.13.16.2.82,1.58.79,1.8-.04.33-.37.27-.54.06-.07-.08-.7-1.4-.73-1.52-.06-.22-.05-.43.22-.47Z"/>
      <path class="cls-30" d="M123.43,27.32c-.04.15-.11.2-.14.27-.26.1-1.44.78-1.47.99-.02.14.11.24-.07.44-.22.25-.44.02-.58.1-.15.09-.65.86-.75,1.06,0,.02-.06.01-.07.03v.1c.11.05.16-.06.2-.07.49-.14,1-.26,1.5-.34,0,0,.06.11.07.14l-1.91.61.61,1.23c-.09,0-.18,0-.27,0l-.48-.95c-.12-.09-.36.78-.34.89-.1-.02-.26-.04-.34-.07l.27-.82c-.25.12-.51.25-.68.48-.02-.14,0-.33,0-.48l.81-.45c-.2-.54-.31-1.09-.4-1.66.18-.41.27-.59.55-.95h.07c-.3.78-.24,1.61.03,2.39.23-.27.43-.57.65-.85.09-.11.33-.29.37-.38.08-.19-.04-.38.13-.55.21-.21.38-.04.56-.11.15-.06.62-.49.82-.62.26-.17.54-.34.84-.42Z"/>
      <path class="cls-31" d="M125.48,28.62l-.07.75h.48c-.01.06,0,.14,0,.2-.13-.04-.39.03-.54,0,.04.17-.08.37-.07.51.01.16.22.19.21.4-.02.34-.36.33-.4.39-.04.07-.03.41-.08.53-.06.01-.14-.01-.2,0-.04-.19.09-.4.07-.57-.03-.23-.36-.3-.07-.62.07-.07.2-.11.24-.17.07-.12,0-.34.1-.48-.26-.07-.49.25-.65.28-.24.03-.49-.3-.78-.07,0-.06,0-.15,0-.2.32.08.48-.31.66-.33.26-.03.42.32.71.16.17-.33.13-.71.13-1.06.12.1.18.19.27.27Z"/>
      <path class="cls-21" d="M124.05,34.41c.28-.01.8.27,1.06.27h1.09s.41-.11.51-.14v.07c-.32.24-.47.31-.82.48-.73.05-1.4-.23-2.07-.47l-.65.95c-.18-.02-.32-.04-.48-.14.33,0,.59-.47.68-.75.17-.05.42-.26.68-.27Z"/>
      <path class="cls-32" d="M125.41,26.23l.08.4h.74c.2.13.36.17.58.35.03.02.3.22.17.27-.41-.2-.98-.26-1.43-.27v.96s-.2-.15-.27-.2v-.68c-.3-.02-.61.03-.89.14-.05-.03-.26-.05-.27-.07-.01-.08.04-.14.07-.2l1.02-.2c.02-.23-.07-.44-.2-.61.09,0,.3.1.41.14Z"/>
      <path class="cls-16" d="M121.18,32.3c.1.24.46.08.6.22.04.04.14.51.15.6,0,.07,0,.14,0,.2-.2-.29-.56-.03-.76-.3-.15-.21.09-.5-.2-.72.07,0,.14,0,.2,0Z"/>
      <path class="cls-36" d="M124.8,31.89c-.09.66-.41,1.28-.61,1.91-.14.07-.25.14-.41.2l.82-2.05c.07-.02.13-.05.2-.07Z"/>
      <path class="cls-44" d="M119.68,32.23c0,.41-.02.84.14,1.23-.32-.26-.42-.66-.55-1.02l.07-.27c.1.02.25.06.34.07Z"/>
      <path class="cls-36" d="M123.43,34.14c-.14.05-.25.04-.34.07l-.68-.48c0-.07,0-.14,0-.2l1.02.61Z"/>
      <path class="cls-44" d="M127.87,29.37c-.01.09-.05.18-.07.27l-.61-.07c0-.08.01-.19,0-.27.23.01.48-.05.68.07Z"/>
      <path class="cls-44" d="M128.41,29.44c.08.18.15.23.14.48l-.34-.14c.03-.12.05-.22.07-.34h.14Z"/>
      <path class="cls-39" d="M126.84,31.41l.14-.03s-.07.03-.07.03h-.07Z"/>
      <path class="cls-44" d="M120.02,27.87h-.07s.05-.04.07-.07v.07Z"/>
      <path class="cls-44" d="M126.71,34.62v-.07s.09-.05.14-.07c-.04.04-.07.08-.14.14Z"/>
    </g>
  </g>
</svg>