<?xml version="1.0" encoding="UTF-8"?>
<svg id="Capa_1" data-name="Capa 1" xmlns="http://www.w3.org/2000/svg" xmlns:xlink="http://www.w3.org/1999/xlink" viewBox="0 0 425.5 62">
  <defs>
    <style>
      .cls-1 {
        fill: #fff;
        font-family: BebasNeueBold, 'Bebas Neue';
        font-size: 21px;
      }

      .cls-2 {
        fill: url(#Degradado_sin_nombre_16);
      }

      .cls-3, .cls-4 {
        fill: #00aeef;
      }

      .cls-5 {
        fill: #425066;
      }

      .cls-6 {
        fill: none;
      }

      .cls-7 {
        clip-path: url(#clippath-1);
      }

      .cls-8 {
        fill: url(#Degradado_sin_nombre_2);
        opacity: .05;
      }

      .cls-9 {
        fill: url(#Degradado_sin_nombre_17);
      }

      .cls-10 {
        fill: #ee4c2c;
      }

      .cls-4 {
        fill-rule: evenodd;
      }

      .cls-11 {
        clip-path: url(#clippath-2);
      }

      .cls-12 {
        fill: url(#Degradado_sin_nombre_17-2);
      }

      .cls-13 {
        clip-path: url(#clippath);
      }
    </style>
    <linearGradient id="Degradado_sin_nombre_2" data-name="Degradado sin nombre 2" x1="86.79" y1="-217.3" x2="326.78" y2="116.87" gradientUnits="userSpaceOnUse">
      <stop offset="0" stop-color="#fff"/>
      <stop offset="1" stop-color="#000"/>
    </linearGradient>
    <linearGradient id="Degradado_sin_nombre_16" data-name="Degradado sin nombre 16" x1="-39.73" y1="-318.62" x2="51.08" y2="30.88" gradientUnits="userSpaceOnUse">
      <stop offset="0" stop-color="#00aeef"/>
      <stop offset=".36" stop-color="#049ddf"/>
      <stop offset="1" stop-color="#0f75bc"/>
    </linearGradient>
    <clipPath id="clippath">
      <polygon class="cls-6" points="395.19 21.87 389.19 18.45 389.19 32.49 391.59 31.1 391.59 27.15 393.4 28.2 393.39 25.49 391.59 24.47 391.59 22.9 395.2 24.98 395.19 21.87"/>
    </clipPath>
    <linearGradient id="Degradado_sin_nombre_17" data-name="Degradado sin nombre 17" x1="382.1" y1="-2531.45" x2="396.83" y2="-2531.45" gradientTransform="translate(0 -2506) scale(1 -1)" gradientUnits="userSpaceOnUse">
      <stop offset="0" stop-color="#ff6f00"/>
      <stop offset="1" stop-color="#ffa800"/>
    </linearGradient>
    <clipPath id="clippath-1">
      <polygon class="cls-6" points="382.66 21.87 388.66 18.45 388.66 32.49 386.26 31.1 386.26 22.9 382.65 24.98 382.66 21.87"/>
    </clipPath>
    <linearGradient id="Degradado_sin_nombre_17-2" data-name="Degradado sin nombre 17" x1="382" x2="396.73" xlink:href="#Degradado_sin_nombre_17"/>
    <clipPath id="clippath-2">
      <polygon class="cls-6" points="130.59 45.71 130.59 28.18 141.82 16.95 181.4 16.95 181.4 45.71 130.59 45.71"/>
    </clipPath>
    <clipPath id="clippath-3">
      <rect class="cls-6" x="123.83" y="-917.66" width="960.22" height="540.01"/>
    </clipPath>
  </defs>
  <rect class="cls-8" x="104.8" y="-.37" width="320.36" height="62.37"/>
  <rect class="cls-2" x="-.66" y="-.37" width="103.44" height="62.37"/>
  <text class="cls-1" transform="translate(8.32 37.05)"><tspan x="0" y="0">Ia Labs</tspan></text>
  <image width="600" height="300" transform="translate(174.67 13.5) scale(.12)" xlink:href="../../../Alejandro Mendoza/Valtre/Logos Matriz/IA Labs/unnamed.png"/>
  <g>
    <g class="cls-13">
      <rect class="cls-9" x="382.1" y="18.4" width="14.73" height="14.11"/>
    </g>
    <g class="cls-7">
      <rect class="cls-12" x="382" y="18.4" width="14.73" height="14.11"/>
    </g>
    <path class="cls-5" d="M370.59,38.14h-2.17v5.97h-1.19v-5.97h-2.15v-.97h5.51v.97Z"/>
    <path class="cls-5" d="M372.03,44.2c-.73,0-1.33-.23-1.79-.69-.46-.46-.68-1.08-.68-1.85v-.14c0-.48.09-.95.3-1.38.18-.39.47-.72.84-.95.36-.23.78-.34,1.2-.34.7,0,1.25.22,1.63.67s.57,1.08.57,1.9v.46h-3.37c.04.43.18.76.43,1.01.25.25.59.38.94.37.51.01.99-.23,1.3-.64l.62.6c-.21.31-.49.56-.83.72-.36.17-.76.26-1.16.25ZM371.89,39.78c-.29-.01-.58.11-.77.33-.2.22-.32.53-.37.93h2.21v-.08c-.03-.39-.13-.68-.31-.88-.2-.21-.47-.32-.76-.3h0Z"/>
    <path class="cls-5" d="M376.07,38.95l.03.6c.37-.45.92-.71,1.5-.69,1.07,0,1.62.61,1.64,1.84v3.41h-1.16v-3.35c0-.33-.07-.57-.21-.73s-.37-.24-.69-.24c-.47,0-.81.21-1.04.63v3.67h-1.16v-5.16h1.09Z"/>
    <path class="cls-5" d="M383.01,42.71c0-.19-.09-.37-.25-.47-.17-.11-.45-.2-.85-.29-.34-.07-.67-.17-.99-.32-.58-.28-.87-.68-.87-1.22,0-.44.2-.85.56-1.12.38-.3.85-.45,1.43-.45.62,0,1.11.15,1.49.46.37.28.58.72.57,1.19h-1.16c0-.21-.09-.42-.25-.56-.18-.15-.42-.23-.66-.22-.22,0-.44.05-.62.18-.16.11-.25.28-.24.47,0,.17.08.33.22.41.15.1.45.2.91.3.37.07.73.19,1.07.36.23.11.43.29.58.5.13.21.19.46.19.71,0,.45-.21.87-.58,1.13-.38.29-.89.43-1.51.43-.39,0-.77-.07-1.13-.23-.31-.14-.58-.35-.77-.63-.18-.25-.28-.55-.28-.86h1.13c0,.25.12.48.31.63.22.16.49.24.76.22.3,0,.54-.06.7-.17.15-.1.24-.27.24-.45Z"/>
    <path class="cls-5" d="M384.74,41.48c0-.47.1-.94.3-1.37.18-.39.48-.71.84-.93.38-.22.81-.33,1.25-.33.7,0,1.26.22,1.69.67.43.45.67,1.04.7,1.78v.27c.01.47-.09.94-.29,1.36-.18.39-.47.71-.84.93-.38.22-.82.34-1.26.33-.73,0-1.31-.24-1.75-.73-.44-.48-.66-1.13-.66-1.94v-.06ZM385.9,41.58c0,.53.11.95.33,1.25.21.3.55.47.92.45.36.01.71-.16.91-.46.22-.31.33-.75.33-1.34,0-.52-.11-.93-.34-1.24-.37-.5-1.08-.61-1.59-.23-.09.06-.16.14-.23.23-.22.3-.33.75-.33,1.35Z"/>
    <path class="cls-5" d="M393.02,40.01c-.16-.03-.31-.04-.47-.04-.53,0-.89.2-1.07.61v3.53h-1.16v-5.16h1.11l.03.58c.28-.45.67-.67,1.16-.67.14,0,.28.02.41.07v1.09Z"/>
    <path class="cls-5" d="M397.87,41.17h-2.79v2.94h-1.21v-6.94h4.41v.97h-3.2v2.06h2.79v.96Z"/>
    <path class="cls-5" d="M400.16,44.11h-1.16v-6.95h1.16v6.95Z"/>
    <path class="cls-5" d="M401,41.48c0-.47.1-.94.3-1.37.18-.39.48-.71.84-.93.38-.22.81-.33,1.25-.33.7,0,1.26.22,1.7.67s.67,1.04.7,1.78v.27c.01.47-.09.94-.29,1.36-.18.39-.47.71-.84.93-.38.22-.82.34-1.26.33-.73,0-1.31-.24-1.75-.73-.44-.48-.65-1.13-.65-1.94v-.06ZM402.16,41.58c0,.53.11.95.33,1.25.38.5,1.1.6,1.61.22.08-.06.16-.14.22-.22.22-.31.33-.75.33-1.34,0-.52-.11-.93-.34-1.24-.21-.3-.55-.47-.91-.46-.36-.01-.7.16-.9.45-.22.3-.33.75-.33,1.35Z"/>
    <path class="cls-5" d="M411.03,42.51l.82-3.56h1.13l-1.41,5.16h-.95l-1.11-3.54-1.09,3.54h-.95l-1.41-5.16h1.13l.84,3.52,1.06-3.52h.87l1.07,3.56Z"/>
  </g>
  <g>
    <g id="group">
      <path id="Path" class="cls-10" d="M313.38,29.53l-.64.64c1.05,1.05,1.05,2.74,0,3.78-1.05,1.05-2.74,1.05-3.78,0-1.05-1.05-1.05-2.74,0-3.78l1.66-1.66.23-.23v-1.26l-2.51,2.51c-1.4,1.4-1.4,3.66,0,5.06,1.4,1.4,3.66,1.4,5.03,0,1.4-1.41,1.4-3.66,0-5.06Z"/>
      <path id="Path-1" class="cls-10" d="M312.59,28.9c0,.26-.21.47-.47.47s-.47-.21-.47-.47.21-.47.47-.47.47.21.47.47Z"/>
    </g>
    <g id="group-1">
      <g id="group-2">
        <path id="Path-2" d="M319.87,31.36h-1.08v2.77h-.82v-7.89h1.99c2.07,0,3.07,1.02,3.07,2.45.03,1.76-1.2,2.67-3.15,2.67ZM319.96,27.03h-1.14v3.63l1.11-.03c1.49-.03,2.31-.61,2.31-1.84,0-1.15-.82-1.76-2.28-1.76Z"/>
        <path id="Path-3" d="M326.68,34.1l-.47,1.26c-.53,1.4-1.08,1.81-1.87,1.81-.44,0-.76-.12-1.11-.26l.23-.73c.26.15.55.26.88.26.44,0,.76-.23,1.2-1.34l.38-1.02-2.25-5.7h.85l1.81,4.77,1.78-4.77h.82l-2.25,5.73Z"/>
        <path id="Path-4" d="M331.6,27.03v7.13h-.82v-7.13h-2.77v-.76h6.35v.76h-2.75Z"/>
        <path id="Path-5" d="M336.66,34.31c-1.61,0-2.77-1.2-2.77-3.04s1.23-3.07,2.86-3.07,2.77,1.2,2.77,3.04c-.03,1.84-1.26,3.07-2.86,3.07ZM336.69,28.94c-1.23,0-2.01.96-2.01,2.34s.82,2.37,2.04,2.37,2.01-.96,2.01-2.34-.82-2.37-2.04-2.37Z"/>
        <path id="Path-6" d="M341.48,34.16h-.79v-5.79l.79-.18v1.23c.38-.73.93-1.23,1.69-1.23.38,0,.73.12,1.02.26l-.2.73c-.26-.15-.55-.26-.88-.26-.61,0-1.17.47-1.64,1.49v3.75Z"/>
        <path id="Path-7" d="M347.27,34.31c-1.75,0-2.83-1.26-2.83-3.04s1.2-3.07,2.83-3.07c.7,0,1.31.18,1.81.5l-.2.7c-.44-.29-.99-.47-1.61-.47-1.26,0-2.01.93-2.01,2.31s.82,2.34,2.04,2.34c.58,0,1.17-.18,1.61-.47l.18.73c-.53.29-1.14.47-1.81.47Z"/>
        <path id="Path-8" d="M353.91,34.16v-3.75c0-1.02-.41-1.46-1.23-1.46-.67,0-1.31.35-1.78.82v4.39h-.79v-8.51l.79-.18v3.66c.61-.61,1.37-.91,2.01-.91,1.11,0,1.81.73,1.81,1.99v3.95h-.82Z"/>
      </g>
    </g>
  </g>
  <g id="g1093">
    <g id="g1074">
      <polyline id="polyline4" points="242.41 34.35 242.41 26.23 244.45 26.23 244.45 32.64 247.62 32.64 247.62 34.35 242.41 34.35"/>
      <path id="path6" d="M257.95,27.73v2.19h1.86c.72,0,1.09-.37,1.09-1.09s-.36-1.09-1.09-1.09h-1.86ZM255.92,34.35v-8.13h4.06c1.97,0,2.95.89,2.95,2.67,0,.53-.15.98-.45,1.37s-.71.67-1.22.82l1.86,3.26h-2.27l-1.6-2.93h-1.3v2.93h-2.03"/>
      <path id="path8" d="M267.53,31.82v-.42l-1.2.35c-.57.16-.85.42-.85.79,0,.45.28.68.83.68.37,0,.66-.12.89-.36.22-.25.33-.59.33-1.04M269.23,29.88v3.21c0,.57.05.99.16,1.26h-1.64c-.06-.19-.1-.4-.11-.63h-.02c-.14.23-.41.42-.79.57-.35.14-.69.22-1.04.22-.61,0-1.08-.15-1.45-.46-.39-.32-.58-.78-.58-1.34,0-.69.28-1.22.83-1.58.48-.3,1.23-.53,2.28-.67l.65-.09v-.51c0-.43-.28-.65-.84-.65-.29,0-.51.06-.65.18s-.24.33-.28.63h-1.73c.03-1.28.88-1.9,2.51-1.9.89,0,1.55.12,1.98.37.49.27.72.73.72,1.38"/>
      <path id="path10" d="M251.49,29.48c-.49,0-.85.17-1.1.53-.23.32-.35.76-.35,1.31s.12.98.35,1.31c.25.36.62.53,1.1.53.97,0,1.45-.64,1.45-1.91,0-.52-.12-.94-.35-1.25-.25-.33-.62-.51-1.1-.51M251.49,28.12c.97,0,1.75.28,2.34.84s.89,1.35.89,2.36-.29,1.79-.89,2.36c-.59.56-1.37.84-2.34.84s-1.75-.28-2.34-.84c-.59-.56-.89-1.35-.89-2.36s.29-1.79.89-2.36c.61-.56,1.38-.84,2.34-.84"/>
      <path id="path12" class="cls-3" d="M251.44,26.91c.89,0,1.72.26,2.41.71l.35-.5c-.8-.52-1.74-.82-2.76-.82s-1.88.28-2.66.76l.35.5c.68-.42,1.47-.65,2.31-.65"/>
      <path id="path14" class="cls-3" d="M247.7,25.5l.46.66c.95-.61,2.07-.95,3.27-.95s2.41.38,3.38,1.02l.46-.66c-1.1-.73-2.43-1.17-3.85-1.17s-2.66.41-3.74,1.1"/>
      <path id="path16" class="cls-3" d="M251.44,23.48c1.62,0,3.12.49,4.39,1.33l.58-.83c-1.42-.96-3.13-1.51-4.97-1.51s-3.46.53-4.85,1.44l.58.83c1.23-.79,2.69-1.25,4.27-1.25"/>
      <path id="path18" class="cls-3" d="M251.56,35.75c-.89,0-1.72-.26-2.41-.71l-.35.5c.8.52,1.74.82,2.77.82.97,0,1.88-.28,2.66-.76l-.35-.5c-.69.42-1.48.65-2.32.65"/>
      <path id="path20" class="cls-3" d="M255.29,37.15l-.46-.66c-.95.61-2.07.95-3.27.95s-2.41-.38-3.38-1.02l-.46.66c1.1.73,2.42,1.17,3.85,1.17s2.66-.41,3.74-1.1"/>
      <path id="path22" class="cls-3" d="M251.56,39.17c-1.62,0-3.12-.49-4.39-1.33l-.58.83c1.42.95,3.13,1.51,4.97,1.51s3.46-.53,4.85-1.44l-.58-.83c-1.23.79-2.7,1.25-4.27,1.25"/>
      <path id="path24" class="cls-4" d="M270.48,26.18h1.98v4.57l3.16-4.57h1.58v4.57l3.16-4.57h2.37l-5.52,8.12h-1.98v-3.94l-2.76,3.94h-1.97v-8.12h-.01Z"/>
      <polygon id="polygon26" class="cls-4" points="294.69 26.18 294.69 34.3 292.59 34.3 289.74 30.04 289.74 34.3 287.8 34.3 287.8 26.18 289.82 26.18 292.73 30.65 292.73 26.18 294.69 26.18"/>
      <path id="path28" class="cls-4" d="M286.36,26.18v8.12h-1.92v-1.17h-2.67l-.81,1.18h-2.26l5.66-8.12h2ZM282.91,31.46h1.52v-2.24l-1.52,2.24Z"/>
    </g>
    <g id="g36">
      <g id="g34">
        <path id="path32" d="M297.98,27.37c0,.62-.49,1.1-1.11,1.1s-1.11-.49-1.11-1.1.5-1.08,1.11-1.08c.63-.01,1.11.48,1.11,1.08ZM296.02,27.37c0,.49.36.86.84.86s.83-.39.83-.86-.35-.88-.83-.88-.84.39-.84.88ZM296.69,27.93h-.25v-1.08c.1-.02.24-.03.42-.03.21,0,.3.03.38.08.06.04.11.13.11.24,0,.12-.1.22-.23.25h0c.11.05.16.13.19.27.03.16.05.23.08.27h-.27s-.05-.14-.09-.26c-.02-.12-.09-.17-.23-.17h-.12v.44ZM296.7,27.32h.12c.14,0,.25-.04.25-.16,0-.1-.08-.16-.23-.16-.06,0-.11.01-.14.01v.31Z"/>
      </g>
    </g>
  </g>
  <g>
    <g class="cls-11">
      <image width="1634" height="683" transform="translate(112.58 16.94) scale(.04)" xlink:href="../../../../Downloads/5caa691a0569256392965c70d57b4125.png"/>
    </g>
    <image width="200" height="200" transform="translate(116.96 22.23) scale(.07)" xlink:href="../../../Alejandro Mendoza/Valtre/Logos Matriz/IA Labs/9221727.png"/>
  </g>
</svg>