<?xml version="1.0" encoding="UTF-8"?>
<svg id="Capa_1" data-name="Capa 1" xmlns="http://www.w3.org/2000/svg" xmlns:xlink="http://www.w3.org/1999/xlink" viewBox="0 0 425.5 62">
  <defs>
    <style>
      .cls-1 {
        fill: #f26322;
      }

      .cls-2 {
        fill: #fff;
        font-family: BebasNeueBold, 'Bebas Neue';
        font-size: 21px;
      }

      .cls-3 {
        fill: url(#Degradado_sin_nombre_16);
      }

      .cls-4 {
        fill: #4d4d4d;
      }

      .cls-5 {
        fill: #4b4e52;
      }

      .cls-6 {
        fill: none;
      }

      .cls-7 {
        fill: #f36;
      }

      .cls-8 {
        fill: url(#Degradado_sin_nombre_2);
        opacity: .05;
      }

      .cls-9 {
        fill: #5ce500;
      }

      .cls-10 {
        fill: #00aeef;
        fill-rule: evenodd;
      }
    </style>
    <linearGradient id="Degradado_sin_nombre_2" data-name="Degradado sin nombre 2" x1="56.03" y1="-259.89" x2="295.66" y2="73.76" gradientUnits="userSpaceOnUse">
      <stop offset="0" stop-color="#fff"/>
      <stop offset="1" stop-color="#000"/>
    </linearGradient>
    <linearGradient id="Degradado_sin_nombre_16" data-name="Degradado sin nombre 16" x1="-55.23" y1="-378.05" x2="35.12" y2="-30.32" gradientUnits="userSpaceOnUse">
      <stop offset="0" stop-color="#00aeef"/>
      <stop offset=".36" stop-color="#049ddf"/>
      <stop offset="1" stop-color="#0f75bc"/>
    </linearGradient>
    <clipPath id="clippath">
      <rect class="cls-6" x="123.83" y="-982.66" width="960.22" height="540.01"/>
    </clipPath>
  </defs>
  <rect class="cls-8" x="104.8" y=".08" width="320.36" height="61.92"/>
  <rect class="cls-3" x="-.66" y=".08" width="103.44" height="61.92"/>
  <text class="cls-2" transform="translate(8.32 37.41)"><tspan x="0" y="0">E-Commerce</tspan></text>
  <g id="Layer_2" data-name="Layer 2">
    <g id="Layer_1-2" data-name="Layer 1-2">
      <polygon class="cls-1" points="120.08 20.78 113.75 24.43 113.75 31.74 115.56 32.79 115.54 25.48 120.07 22.86 124.6 25.48 124.6 32.78 126.41 31.74 126.41 24.43 120.08 20.78"/>
      <polygon class="cls-1" points="120.98 32.79 120.08 33.31 119.17 32.79 119.17 25.48 117.36 26.52 117.36 33.83 120.08 35.4 122.79 33.83 122.79 26.52 120.98 25.48 120.98 32.79"/>
      <path class="cls-4" d="M130.55,24.48l2.49,6.29h.02l2.43-6.29h.95v7.2h-.65v-6.27h-.02c-.03.11-.07.23-.11.34l-.12.31-.12.33-2.08,5.29h-.59l-2.11-5.29c-.04-.09-.08-.2-.12-.3s-.08-.22-.11-.32l-.12-.35h-.02v6.25h-.62v-7.2h.92Z"/>
      <path class="cls-4" d="M138.34,31.72c-.2-.05-.38-.15-.54-.27-.15-.12-.27-.28-.36-.45-.09-.2-.14-.42-.13-.64,0-.26.05-.52.17-.75.11-.19.27-.35.46-.47.21-.12.44-.21.68-.27.28-.06.56-.11.85-.15.25-.03.47-.05.65-.09.15-.02.29-.06.43-.12.1-.04.18-.1.24-.19.05-.1.08-.21.08-.32v-.1c.02-.3-.1-.59-.32-.79-.27-.19-.6-.28-.93-.25-.92,0-1.41.39-1.46,1.16h-.63c.02-.46.22-.9.56-1.21.43-.33.97-.49,1.51-.45.48-.02.95.11,1.34.38.35.31.54.77.49,1.23v2.83c0,.12.03.24.1.34.06.07.16.12.25.12.04,0,.07,0,.11,0,.04,0,.09-.02.13-.03h.03v.46c-.06.02-.11.04-.17.05-.08.02-.17.03-.25.03-.2.01-.39-.05-.54-.18-.15-.15-.23-.35-.22-.56v-.11h-.03c-.08.11-.17.21-.27.31-.11.12-.24.22-.38.3-.16.09-.34.15-.52.19-.22.06-.44.08-.67.08-.23,0-.45-.02-.67-.08M139.87,31.17c.2-.08.39-.19.55-.34.14-.13.26-.3.33-.48.07-.17.11-.35.11-.54v-.95c-.19.1-.4.18-.61.22-.24.05-.48.09-.74.13s-.43.07-.62.11c-.17.03-.34.09-.49.17-.14.08-.25.19-.33.33-.09.17-.13.35-.12.54,0,.16.03.31.09.46.06.12.15.22.25.3.11.08.24.13.37.16.15.03.29.05.44.04.26,0,.51-.04.75-.14"/>
      <path class="cls-4" d="M143.12,33.11c-.33-.22-.54-.58-.59-.97h.59c.04.28.23.53.49.65.3.14.64.21.97.2.45.04.9-.1,1.25-.39.28-.29.42-.69.4-1.09v-.83h-.03c-.17.27-.4.5-.67.67-.3.17-.64.25-.98.23-.32,0-.63-.06-.93-.19-.27-.12-.51-.31-.7-.53-.2-.24-.36-.52-.45-.82-.11-.34-.16-.7-.16-1.05,0-.38.06-.76.18-1.12.11-.3.27-.58.48-.82.2-.22.44-.39.71-.5.27-.11.57-.17.86-.17.35-.01.7.07,1,.25.27.17.49.39.65.66h.03v-.81h.62v5.01c.02.51-.15,1.01-.48,1.4-.47.44-1.1.67-1.74.63-.52.03-1.04-.11-1.48-.39M145.86,30.48c.29-.45.44-.98.41-1.51,0-.29-.03-.57-.1-.85-.06-.24-.17-.46-.31-.66-.14-.18-.32-.33-.53-.43-.23-.1-.48-.16-.74-.15-.47-.02-.92.19-1.2.58-.31.45-.46.99-.43,1.53,0,.28.03.55.1.82.06.23.16.46.3.65.13.18.31.33.51.43.22.11.47.16.72.16.5.04.97-.18,1.28-.57"/>
      <path class="cls-4" d="M149,31.6c-.29-.13-.55-.33-.76-.57-.21-.26-.37-.55-.47-.87-.11-.35-.17-.72-.16-1.08,0-.37.06-.73.17-1.08.11-.32.27-.61.48-.87.2-.24.46-.44.75-.57.31-.14.64-.21.98-.21.37-.01.73.07,1.05.24.28.15.52.37.69.64.18.28.31.59.38.91.07.35.11.7.11,1.06h-3.97c0,.28.05.55.13.82.07.24.18.46.33.66.15.19.33.34.55.44.24.11.51.17.77.16.37.02.73-.09,1.01-.32.25-.23.42-.52.51-.85h.59c-.09.48-.34.91-.7,1.24-.4.32-.91.49-1.42.46-.36,0-.71-.06-1.04-.21M151.45,27.98c-.06-.21-.16-.41-.3-.59-.13-.16-.3-.3-.48-.39-.22-.1-.46-.15-.69-.14-.24,0-.48.04-.7.14-.2.09-.37.22-.52.39-.15.18-.26.38-.34.59-.09.23-.14.48-.17.73h3.3c0-.24-.04-.49-.11-.72"/>
      <path class="cls-4" d="M153.63,26.47v.81h.04c.18-.27.41-.49.69-.65.32-.18.68-.27,1.05-.26.43-.01.86.14,1.18.42.33.31.5.75.47,1.2v3.7h-.62v-3.65c.03-.32-.09-.64-.32-.87-.25-.19-.56-.29-.87-.27-.21,0-.42.04-.62.11-.19.07-.36.17-.51.3-.3.27-.48.66-.47,1.06v3.31h-.62v-5.21h.62Z"/>
      <path class="cls-4" d="M158.66,31.5c-.2-.18-.3-.45-.27-.72v-3.8h-.79v-.51h.79v-1.6h.62v1.6h.97v.51h-.97v3.7c-.02.14.03.28.13.39.11.08.24.12.38.11.08,0,.15,0,.22-.03.06-.01.13-.03.19-.06h.03v.54c-.19.06-.38.09-.58.09-.26.01-.52-.06-.72-.22"/>
      <path class="cls-4" d="M161.83,31.6c-.29-.13-.55-.33-.76-.57-.21-.26-.38-.55-.48-.87-.23-.7-.23-1.46,0-2.16.1-.32.26-.61.48-.87.21-.25.47-.44.76-.57.64-.28,1.37-.28,2.02,0,.29.13.55.33.75.57.21.25.38.55.47.87.22.71.22,1.46,0,2.16-.1.32-.26.61-.47.87-.21.24-.46.44-.75.57-.64.28-1.37.28-2.02,0M163.6,31.12c.22-.11.41-.27.55-.47.16-.21.27-.45.34-.7.15-.56.15-1.15,0-1.71-.07-.25-.18-.49-.33-.7-.14-.2-.33-.36-.55-.47-.49-.23-1.05-.23-1.54,0-.22.11-.41.28-.55.47-.16.21-.27.45-.34.7-.15.56-.15,1.15,0,1.71.07.25.18.49.34.7.15.2.33.36.55.47.49.23,1.05.23,1.54,0"/>
      <path class="cls-4" d="M166.04,27.34c-.35.02-.64-.25-.66-.6,0-.02,0-.04,0-.07-.02-.35.25-.65.6-.67.02,0,.04,0,.05,0,.35-.01.64.26.65.6,0,.02,0,.05,0,.07.02.35-.25.65-.6.67-.02,0-.04,0-.06,0M166.04,26.07c-.3,0-.56.23-.56.54,0,.02,0,.04,0,.05,0,.31.25.56.56.56s.56-.25.56-.56c.02-.3-.2-.57-.51-.59-.02,0-.04,0-.05,0M166.23,27.03l-.22-.32h-.07v.3h-.13v-.73h.22c.15,0,.26.08.26.22,0,.1-.06.18-.15.2l.21.3-.13.04ZM166.04,26.39h-.1v.22h.09c.08,0,.14-.04.14-.11s-.05-.11-.13-.11"/>
      <path class="cls-4" d="M130.3,36.68l-.32.89s-.02.03-.03.03h-.3s-.03-.01-.03-.04l.95-2.66s0-.04.02-.06c0-.04,0-.08,0-.12,0-.01,0-.02.02-.02,0,0,0,0,0,0h.43s.03.01.03.02l1.03,2.83s0,.03-.02.03h-.3s-.03,0-.04-.02l-.32-.89h-1.13ZM131.31,36.35c-.02-.07-.06-.17-.1-.3s-.09-.25-.13-.38-.09-.26-.13-.38-.07-.22-.09-.3h0c-.02.07-.04.16-.08.26s-.07.21-.12.33l-.13.38c-.04.13-.09.25-.13.37h.9Z"/>
      <path class="cls-4" d="M132.49,35.96v-.46s0-.03.02-.03h.27s.03.01.04.03c0,.03,0,.06,0,.09v.13c.17-.19.41-.29.67-.3.08,0,.16.01.24.04.08.02.16.07.23.13.08.08.14.17.18.27.05.14.07.28.07.42v1.29s0,.03-.03.03h-.3s-.03,0-.03-.04v-1.26c0-.14-.03-.28-.11-.4-.08-.11-.21-.16-.34-.15-.1,0-.2.02-.3.07-.09.05-.18.11-.24.2v1.55s0,.03-.03.03h-.33s-.02,0-.02-.03v-1.6Z"/>
      <path class="cls-4" d="M136.24,36.68l-.31.89s-.02.03-.04.03h-.3s-.03,0-.02-.04l.95-2.66s0-.04.02-.06c0-.04,0-.08,0-.12,0,0,0-.02.02-.02h.43s.02,0,.02.02l1.03,2.83s0,.03-.02.03h-.32s-.03,0-.04-.02l-.32-.89h-1.11ZM137.24,36.35c-.02-.07-.06-.17-.1-.3l-.13-.38c-.05-.13-.09-.26-.13-.38s-.07-.22-.09-.3h0c-.02.07-.04.16-.08.26s-.07.21-.11.33-.09.25-.13.38-.09.25-.13.37h.9Z"/>
      <path class="cls-4" d="M139.33,37.63c-.14,0-.29-.02-.42-.07-.26-.09-.47-.29-.57-.55-.06-.15-.09-.31-.08-.47,0-.15.03-.3.08-.44.06-.13.14-.25.25-.35.11-.1.24-.18.38-.23.16-.06.32-.09.48-.09.05,0,.1,0,.15,0l.12.02v-.96s0-.02.02-.03c0,0,0,0,0,0h.32s.03,0,.03.02v2.85s0,.07,0,.11c0,.01,0,.03-.02.03-.12.06-.24.1-.37.12-.12.02-.24.04-.37.03ZM139.71,35.78s-.08-.03-.13-.03c-.05,0-.1,0-.16,0-.11,0-.23.02-.33.06-.1.04-.18.09-.25.17-.07.07-.13.16-.16.25-.04.1-.06.21-.06.31,0,.12.02.25.06.36.07.18.22.32.4.38.09.03.18.04.28.04.06,0,.12,0,.18,0,.06,0,.12-.02.17-.04v-1.5Z"/>
      <path class="cls-4" d="M141.54,35.43c.14,0,.29.03.42.08.11.06.21.13.3.23.09.1.16.22.2.35.05.14.07.29.07.44,0,.15-.02.31-.07.45-.04.13-.11.25-.21.35-.09.1-.19.17-.31.22-.12.05-.25.08-.39.08-.16,0-.31-.03-.45-.1-.12-.06-.23-.15-.31-.25-.08-.11-.14-.23-.18-.36-.04-.13-.06-.26-.06-.4,0-.15.02-.29.07-.43.04-.13.11-.25.2-.35.09-.1.19-.18.32-.23.13-.06.27-.08.41-.08ZM141.54,35.74c-.09,0-.17.02-.25.06-.08.04-.14.09-.2.16-.06.07-.1.16-.12.25-.03.1-.05.21-.05.32,0,.11,0,.21.03.31.03.09.07.18.12.25.05.07.12.13.2.17.16.07.34.07.5,0,.08-.03.14-.08.2-.14.06-.07.11-.15.14-.24.04-.11.06-.23.05-.35,0-.1-.01-.2-.04-.3-.02-.09-.06-.17-.11-.25-.11-.15-.29-.24-.48-.23Z"/>
      <path class="cls-4" d="M143.31,34.46h.02v1.05c.15-.06.31-.09.47-.09.14,0,.28.02.41.08.12.05.22.12.31.21.09.09.16.2.2.32.1.3.09.63-.03.93-.06.14-.16.27-.27.37-.11.1-.24.18-.39.22-.14.05-.29.07-.43.07-.1,0-.2,0-.3,0-.1-.01-.2-.03-.3-.07-.02,0-.03,0-.03-.04v-3.03s0-.03.03-.03h.29ZM144.44,36.48c0-.2-.06-.39-.18-.54-.13-.14-.31-.21-.5-.2-.08,0-.16,0-.24.02-.06.01-.12.03-.18.06v1.48s.09.02.13.03c.05,0,.1,0,.16,0,.1,0,.2-.02.3-.05.1-.03.18-.09.26-.16.08-.07.14-.17.18-.27.05-.12.08-.24.09-.37h-.01Z"/>
      <path class="cls-4" d="M145.53,36.57c0,.1.01.2.04.3.03.09.07.17.14.24.06.07.14.12.23.16.1.04.21.06.32.06.1,0,.2,0,.3-.03.09-.02.18-.05.26-.09,0,0,.02,0,.02.02v.25s0,.04-.02.04c-.08.04-.17.07-.26.09-.12.03-.24.04-.35.04-.16,0-.33-.03-.48-.09-.12-.06-.23-.14-.32-.25-.08-.1-.14-.22-.17-.35-.04-.13-.06-.26-.06-.4,0-.15.02-.29.07-.43.04-.13.1-.25.19-.36.08-.1.18-.18.3-.24.13-.06.27-.09.41-.09.14,0,.27.03.4.09.1.05.19.12.26.21.07.09.12.19.15.3.03.1.04.2.04.3v.14s0,.06,0,.09c0,.02,0,.03-.03.03-.06,0-.12.01-.18.01h-1.25ZM146.34,36.31h.29s0-.02,0-.02v-.03s0-.1-.02-.14c-.02-.06-.04-.12-.08-.17-.04-.06-.1-.11-.16-.14-.08-.04-.17-.06-.25-.06-.08,0-.16.01-.24.05-.07.03-.13.07-.17.13-.05.05-.09.12-.12.18-.03.07-.04.14-.05.22h.81Z"/>
      <path class="cls-4" d="M150.38,37.51s0,.04-.02.04c-.08.04-.16.06-.25.08-.11.01-.22.02-.33.02-.18,0-.36-.03-.54-.08-.17-.05-.34-.14-.47-.26-.14-.13-.26-.28-.33-.46-.09-.22-.14-.45-.13-.69,0-.2.04-.4.11-.59.14-.36.43-.64.79-.77.19-.08.4-.12.61-.12.12,0,.24,0,.35.02.07,0,.14.03.2.06.01,0,.02.02.02.04v.3s0,.03-.03.02c-.18-.08-.37-.11-.56-.1-.16,0-.32.03-.47.08-.14.05-.26.13-.36.23-.1.1-.18.23-.23.36-.06.15-.09.31-.09.47,0,.2.03.39.12.57.13.27.37.47.66.55.12.03.24.05.37.06.1,0,.2,0,.3-.02.09,0,.17-.03.25-.06.02,0,.02,0,.02.02v.25Z"/>
      <path class="cls-4" d="M151.66,35.43c.14,0,.29.03.42.08.11.06.21.13.3.23.09.1.16.22.2.35.05.14.07.29.07.44,0,.15-.02.31-.07.45-.04.13-.11.25-.21.35-.09.1-.19.17-.31.22-.13.06-.26.09-.4.08-.16,0-.31-.03-.45-.1-.12-.06-.23-.15-.31-.25-.08-.11-.14-.23-.18-.36-.04-.13-.06-.26-.06-.4,0-.15.02-.29.07-.43.04-.13.11-.25.2-.35.09-.1.2-.18.32-.23.14-.06.28-.09.43-.09ZM151.65,35.74c-.09,0-.17.02-.25.06-.08.04-.14.09-.2.16-.06.07-.1.16-.13.25-.06.21-.06.42,0,.63.03.09.07.18.12.25.05.07.12.13.2.17.16.07.34.07.5,0,.08-.03.14-.08.2-.14.06-.07.11-.15.14-.24.04-.11.05-.23.05-.35,0-.1-.01-.2-.04-.3-.02-.09-.06-.17-.11-.25-.11-.16-.3-.26-.49-.25h0Z"/>
      <path class="cls-4" d="M153.14,37.59s-.03,0-.03-.03v-2.06s0-.03.02-.03h.27s.03,0,.04.02c0,.03.01.06.01.1v.11c.17-.17.41-.27.65-.27.24-.02.47.11.59.32.09-.09.2-.17.31-.23.13-.06.27-.1.41-.09.08,0,.17.01.25.04.08.03.16.07.22.13.07.07.13.16.17.25.05.13.07.27.07.41v1.3s0,.03-.03.03h-.3s-.03,0-.03-.03v-1.27c0-.13-.03-.27-.11-.38-.08-.11-.21-.17-.34-.16-.1,0-.2.02-.3.07-.09.05-.17.11-.24.19v1.56s0,.03-.03.03h-.3s-.03,0-.03-.02c0,0,0,0,0,0v-1.29c0-.14-.03-.27-.11-.38-.08-.09-.2-.15-.32-.14-.1,0-.19.02-.28.06-.09.05-.18.11-.25.19v1.57s0,.02-.02.03c0,0,0,0,0,0h-.32Z"/>
      <path class="cls-4" d="M157.56,35.43c.15,0,.29.02.43.08.12.05.23.12.32.22.09.09.16.2.2.33.05.13.07.27.07.41,0,.18-.03.36-.11.52-.07.14-.17.27-.3.37-.12.1-.26.17-.4.22-.15.05-.3.07-.46.07h-.11s-.1,0-.1,0v.87s0,.03-.02.03c0,0,0,0,0,0h-.32s-.02,0-.02-.03v-2.89s0-.01,0-.02c.08-.03.18-.07.33-.11.16-.05.32-.07.48-.07ZM157.51,35.75c-.07,0-.14,0-.21.02-.07.01-.13.03-.19.05v1.48s.08.02.12.02h.13c.1,0,.2-.02.3-.05.1-.03.19-.09.27-.15.08-.07.15-.16.2-.26.05-.12.08-.25.07-.38,0-.19-.06-.39-.18-.54-.13-.13-.31-.2-.5-.19Z"/>
      <path class="cls-4" d="M160.53,37.22v.11s0,.07,0,.1c0,0,0,.01,0,.02-.14.07-.28.12-.43.15-.13.03-.26.04-.39.04-.11,0-.22-.01-.32-.04-.09-.03-.18-.07-.26-.13-.07-.06-.13-.13-.17-.21-.04-.09-.06-.19-.06-.3,0-.1.02-.21.08-.3.05-.08.12-.16.21-.21.09-.06.19-.1.3-.12.13-.03.25-.04.38-.04h.3v-.1s0-.09-.02-.13c-.01-.05-.04-.1-.07-.14-.04-.05-.09-.09-.15-.12-.08-.04-.17-.05-.26-.05-.1,0-.2.01-.3.04-.09.02-.17.05-.25.09-.02,0-.03,0-.03-.02v-.27s0-.03.02-.04c.09-.04.19-.08.3-.09.11-.02.22-.04.33-.04.12,0,.25.02.36.07.09.04.18.1.25.18.06.08.11.16.14.26.03.1.05.21.04.32v.97ZM160.17,36.58s-.08-.01-.12-.01h-.17c-.16-.01-.33.02-.47.1-.1.06-.16.18-.15.3,0,.05,0,.1.03.14.02.05.05.09.09.12.05.04.1.07.16.09.08.02.16.04.24.03.14,0,.27-.02.4-.07v-.69Z"/>
      <path class="cls-4" d="M161.14,35.96v-.38s0-.06,0-.08c0-.01,0-.02.02-.03,0,0,0,0,0,0h.27s.03.01.04.03c0,.03,0,.06,0,.09,0,.04,0,.08.01.13.17-.19.41-.29.67-.3.08,0,.16.01.24.04.09.02.16.07.23.13.08.07.13.16.17.26.05.14.07.28.07.42v1.29s0,.03-.03.03h-.3s-.03,0-.03-.04v-1.24c0-.14-.03-.28-.11-.4-.08-.11-.21-.16-.34-.15-.1,0-.2.02-.3.07-.09.05-.18.11-.24.2v1.55s0,.03-.02.03h-.31s-.03,0-.03-.03l-.03-1.6Z"/>
      <path class="cls-4" d="M163.53,35.47s.03,0,.03.02c.09.24.17.46.24.64s.13.34.17.47.09.25.12.33l.07.21c.07-.2.15-.43.25-.69s.21-.59.34-.96c0-.01.02-.02.04-.02h.3s.03,0,.02.03c-.08.24-.17.48-.27.74-.09.25-.19.51-.3.77s-.21.51-.31.77-.21.49-.32.73c0,.02-.03.03-.05.03l-.33.03s-.02,0,0-.04l.21-.45c.07-.17.15-.34.22-.51,0-.02,0-.04,0-.06l-.08-.19-.12-.3-.15-.36c-.05-.13-.1-.26-.16-.39s-.11-.27-.16-.4l-.14-.37s0-.03.02-.03h.35Z"/>
    </g>
  </g>
  <g id="Page-1">
    <g id="xamarin-logo">
      <path id="Logo" class="cls-10" d="M199.23,33.44l-1.51-2.91-1.55,2.91h-1.67l2.36-3.75-2.13-3.73h1.69l1.38,2.83,1.49-2.83h1.54l-2.18,3.7,2.22,3.77h-1.65ZM204.63,33.44v-.81h-.02c-.41.64-.99.96-1.75.96-.58,0-1.04-.16-1.37-.47-.33-.32-.5-.75-.5-1.28,0-1.15.64-1.8,1.93-1.96l1.72-.24c0-.8-.37-1.21-1.12-1.21-.71,0-1.36.22-1.96.66v-1.18c.22-.13.54-.26.96-.36.42-.11.8-.16,1.14-.16,1.52,0,2.28.77,2.28,2.31v3.75h-1.31,0ZM203.37,30.74c-.4.05-.67.15-.84.29-.16.14-.24.36-.24.66,0,.25.09.45.27.61.18.15.42.23.71.23.4,0,.72-.14.98-.41.26-.27.39-.61.39-1.02v-.53l-1.27.17h0ZM214.44,33.44v-3.34c0-.55-.09-.96-.26-1.22-.17-.27-.47-.4-.91-.4-.35,0-.64.16-.88.48-.24.32-.36.71-.36,1.16v3.32h-1.33v-3.45c0-1.01-.39-1.51-1.16-1.51-.36,0-.66.15-.89.46-.23.3-.35.7-.35,1.19v3.32h-1.33v-5.91h1.33v.91h.02c.43-.7,1.05-1.06,1.87-1.06.39,0,.74.1,1.04.31.3.2.52.49.64.85.45-.77,1.11-1.16,1.98-1.16,1.28,0,1.93.8,1.93,2.4v3.65h-1.34ZM220.21,33.44v-.81h-.02c-.41.64-.99.96-1.75.96-.58,0-1.04-.16-1.37-.47-.33-.32-.5-.75-.5-1.28,0-1.15.64-1.8,1.93-1.96l1.72-.24c0-.8-.37-1.21-1.12-1.21-.71,0-1.36.22-1.96.66v-1.18c.22-.13.54-.26.96-.36.42-.11.8-.16,1.14-.16,1.52,0,2.28.77,2.28,2.31v3.75h-1.31,0ZM218.94,30.74c-.4.05-.67.15-.84.29-.16.14-.24.36-.24.66,0,.25.09.45.27.61.18.15.42.23.71.23.4,0,.72-.14.98-.41.26-.27.39-.61.39-1.02v-.53l-1.27.17h0ZM225.98,28.83c-.22-.13-.48-.2-.77-.2-.38,0-.7.17-.94.5-.24.33-.36.76-.36,1.29v3.03h-1.33v-5.91h1.33v1.15h.02c.28-.84.79-1.25,1.51-1.25.23,0,.41.03.54.08v1.32h0ZM227.31,26.21c-.23,0-.42-.07-.58-.22-.16-.15-.24-.33-.24-.55s.08-.41.24-.56c.16-.15.35-.23.58-.23.23,0,.42.08.58.23.16.15.24.33.24.55s-.08.4-.24.55c-.16.15-.35.22-.58.22ZM226.63,33.44v-5.91h1.33v5.91h-1.33ZM232.99,33.44v-3.32c0-1.1-.39-1.65-1.18-1.65-.4,0-.73.15-1,.46-.27.3-.4.68-.4,1.15v3.36h-1.33v-5.91h1.33v.95h.02c.43-.73,1.07-1.09,1.91-1.09,1.31,0,1.97.81,1.97,2.42v3.63h-1.33ZM180.08,22.99c-.4,0-.8.23-1,.58l-3.17,5.52c-.2.35-.2.81,0,1.16l3.17,5.52c.2.35.6.58,1,.58h6.33c.4,0,.8-.23,1-.58l3.17-5.52c.2-.35.2-.81,0-1.16l-3.17-5.52c-.2-.35-.6-.58-1-.58h-6.33ZM180.14,26.21s.02,0,.03,0h1.09s.1.03.12.07l1.85,3.31s.02.03.02.05c0-.02,0-.04.02-.05l1.85-3.31s.07-.07.12-.07h1.09c.1,0,.17.12.12.21l-1.81,3.24,1.81,3.24c.05.09-.02.21-.12.21h-1.09c-.05,0-.1-.03-.12-.08l-1.85-3.31s-.02-.03-.02-.05c0,.02,0,.04-.02.05l-1.85,3.31s-.07.07-.12.08h-1.09c-.1,0-.17-.13-.12-.21l1.81-3.24-1.81-3.24c-.04-.08,0-.19.1-.21h0Z"/>
    </g>
  </g>
  <image width="1052" height="1052" transform="translate(246.92 14.94) scale(.03)" xlink:href="../../../Alejandro Mendoza/Valtre/Logos Matriz/E-Commerce/JavaScript-logo.png"/>
  <g id="layer1">
    <path id="path739" class="cls-9" d="M304.06,26.21h0v5.74c0,.14-.08.27-.2.35l-.19.11-1.43.83-.97.56-.2.11v-6.21l-5.37-3.11,2.55-1.47.24-.13c.13-.06.27-.06.4,0l3.54,2.04,1.63.94v.23h0ZM299.88,28.4l-1.1-.64-2.58-1.49c-.13-.06-.27-.06-.4,0l-2.29,1.32-.2.12,3.88,2.24v4.48l2.28-1.32.2-.11c.12-.08.19-.21.2-.35v-4.25ZM293.31,32.19l2.68,1.55v-3.1l-2.68,1.55Z"/>
    <path id="path741" class="cls-5" d="M309.98,25.98h-2.93v7.93h1.3v-3.11h1.64c1.77,0,2.75-.87,2.75-2.44,0-.71-.27-2.38-2.76-2.38M311.42,28.38c0,.89-.46,1.26-1.6,1.26h-1.46v-2.49h1.64c.96,0,1.43.4,1.43,1.23M316.61,28.14l.1.05-.23,1.17-.15-.05c-.12-.04-.25-.06-.38-.06-1.21,0-1.31.97-1.31,2.14v2.53h-1.2v-5.82h1.13v.7c.31-.47.68-.72,1.17-.78.3-.04.6,0,.87.12M319.56,27.98c-.95,0-1.71.36-2.19,1.04-.51.72-.59,1.56-.59,2,0,1.84,1.09,3.03,2.78,3.03,2.05,0,2.78-1.66,2.78-3.07,0-.82-.24-1.56-.68-2.08-.5-.6-1.22-.91-2.1-.91M319.57,32.97c-.94,0-1.53-.75-1.53-1.95s.59-1.97,1.53-1.97,1.54.76,1.54,1.95-.59,1.98-1.54,1.98M332.46,28.14l.1.05-.23,1.17-.15-.05c-.12-.04-.25-.06-.37-.06-1.21,0-1.31.97-1.31,2.14v2.53h-1.2v-5.82h1.13v.7c.31-.47.68-.72,1.17-.78.3-.04.6,0,.87.12M336.78,32.05l-.02.06c-.25.72-.85.87-1.31.87-.91,0-1.5-.6-1.55-1.59h4.12l.02-.11c.01-.15.02-.31.01-.46v-.1c-.06-1.63-1.12-2.73-2.64-2.73-.89,0-1.62.35-2.11,1.01-.41.59-.63,1.3-.62,2.03,0,1.8,1.12,3.01,2.78,3.01,1.29,0,2.18-.65,2.5-1.84l.04-.14h-1.21ZM333.93,30.35c.1-.81.65-1.32,1.44-1.32.6,0,1.31.35,1.41,1.32h-2.85ZM327.1,28.58c-.39-.4-.91-.61-1.55-.61-1.77,0-2.57,1.55-2.57,3s.79,2.98,2.57,2.98c.56.01,1.11-.21,1.5-.61,0,.26-.01.5-.02.61-.07.96-.53,1.41-1.45,1.41-.5,0-1.08-.18-1.19-.68l-.02-.11h-1.19l.02.16c.12,1.03,1.03,1.66,2.35,1.66,1.16,0,1.99-.44,2.39-1.27.19-.4.29-.98.29-1.73v-5.3h-1.14v.49h0ZM325.63,32.87c-.42,0-1.4-.19-1.4-1.95,0-1.16.55-1.88,1.43-1.88.68,0,1.41.49,1.41,1.88,0,1.22-.54,1.95-1.44,1.95M343.6,32.16c0,.93-.77,1.86-2.49,1.86-1.52,0-2.42-.66-2.54-1.85l-.02-.12h1.18l.02.09c.15.72.83.87,1.38.87.6,0,1.24-.19,1.24-.74,0-.27-.18-.47-.53-.58-.21-.06-.47-.14-.74-.21-.47-.13-.95-.27-1.25-.37-.74-.26-1.16-.78-1.16-1.41,0-1.17,1.14-1.7,2.28-1.7,1.51,0,2.3.57,2.4,1.74v.12s-1.15,0-1.15,0l-.02-.09c-.11-.68-.79-.78-1.18-.78-.34,0-1.13.06-1.13.62,0,.25.22.44.66.57.13.04.33.09.56.15.47.12,1.07.28,1.36.38.74.26,1.12.75,1.12,1.46M349.15,32.17c0,.93-.77,1.86-2.49,1.86-1.52,0-2.42-.66-2.54-1.85v-.12s1.18,0,1.18,0v.08c.16.72.84.87,1.39.87.6,0,1.24-.19,1.24-.74,0-.27-.18-.47-.53-.58-.21-.06-.47-.14-.74-.21-.47-.13-.95-.27-1.25-.37-.74-.26-1.16-.78-1.16-1.41,0-1.17,1.14-1.7,2.28-1.7,1.51,0,2.3.57,2.4,1.74v.12s-1.15,0-1.15,0l-.02-.09c-.11-.68-.79-.78-1.18-.78-.34,0-1.12.06-1.12.62,0,.25.22.44.66.57.13.04.33.09.56.15.47.12,1.07.28,1.36.38.74.26,1.12.75,1.12,1.46"/>
    <path id="path743" class="cls-5" d="M350.11,28.71c-.46,0-.83-.36-.84-.82,0-.46.36-.83.82-.84.46,0,.83.36.84.82,0,0,0,0,0,0,0,.45-.35.82-.8.83,0,0-.02,0-.02,0M350.11,27.19c-.38,0-.69.29-.7.68,0,.38.29.69.68.7.38,0,.69-.29.7-.68,0,0,0,0,0-.01.01-.37-.27-.68-.64-.69-.01,0-.02,0-.03,0M350.01,28.03v.28h-.24v-.87h.41c.16-.02.3.1.32.26,0,.02,0,.03,0,.05.01.12-.06.22-.17.26l.2.3h-.28l-.17-.28h-.08,0ZM350.15,27.64h-.14v.19h.14c.05,0,.1-.03.11-.08,0,0,0-.01,0-.02,0-.05-.04-.1-.1-.1,0,0-.01,0-.02,0"/>
  </g>
  <g id="Page-1-2" data-name="Page-1">
    <g id="Artboard">
      <g id="vtex-logo">
        <path id="Shape" class="cls-7" d="M399.17,27.31h-1.87v6.39c0,.12-.1.22-.22.22h-1.44c-.12,0-.22-.1-.22-.22v-6.39h-1.88c-.06,0-.11-.02-.15-.06-.04-.04-.06-.09-.07-.15v-1.13c0-.06.02-.11.07-.15.04-.04.1-.06.15-.06h5.62c.12,0,.22.09.23.21v1.13c0,.12-.11.21-.23.21h0Z"/>
        <path id="path9" class="cls-7" d="M405.16,33.89c-.74.11-1.48.15-2.22.14-1.42,0-2.67-.36-2.67-2.36v-3.65c0-2,1.26-2.35,2.68-2.35.74-.01,1.48.04,2.21.14.15.02.22.08.22.22v1.03c0,.12-.1.22-.22.22h-2.31c-.51,0-.7.17-.7.75v1h2.93c.12,0,.22.1.22.22v1.04c0,.12-.1.22-.22.22h-2.93v1.17c0,.57.19.75.7.75h2.32c.12,0,.22.1.22.22v1.03c0,.14-.07.2-.22.23Z"/>
        <path id="path11" class="cls-7" d="M413.45,33.93h-1.75c-.12,0-.24-.06-.29-.17l-1.52-2.4-1.37,2.35c-.08.13-.15.22-.28.22h-1.62s-.09,0-.12-.03c-.03-.03-.05-.07-.05-.11,0-.03,0-.05.02-.08l2.38-3.97-2.41-3.77s-.02-.04-.02-.07c0-.09.08-.15.17-.14h1.77c.12,0,.21.11.28.21l1.41,2.22,1.37-2.22c.05-.11.15-.19.28-.21h1.63c.09,0,.16.06.17.14,0,.02,0,.05-.02.07l-2.4,3.79,2.49,3.93s.03.07.03.11c-.02.08-.08.12-.16.12Z"/>
        <path id="path13" class="cls-7" d="M390.69,25.79c-.08,0-.15.05-.17.14l-1.6,5.91c-.02.12-.05.17-.15.17s-.13-.04-.15-.17l-1.59-5.91c-.02-.08-.09-.14-.17-.14h-1.57c-.05,0-.1.02-.14.06s-.05.09-.03.15c0,0,1.95,6.77,1.97,6.84.26.81.89,1.2,1.69,1.2.77.03,1.46-.46,1.69-1.2.03-.09,1.94-6.84,1.94-6.84.01-.05,0-.1-.04-.14-.03-.04-.08-.06-.14-.06h-1.54Z"/>
        <path id="path15" class="cls-7" d="M381.79,20.3h-16.38c-.59,0-1.14.32-1.44.83-.3.51-.32,1.14-.05,1.66l1.64,3.12h-2.97c-.38,0-.73.19-.93.51-.2.32-.21.73-.03,1.06l5.27,9.96c.19.36.56.58.96.58s.78-.22.96-.58l1.43-2.7,1.8,3.4c.29.55.87.9,1.49.9s1.2-.34,1.49-.9l8.21-15.44c.27-.51.26-1.12-.04-1.62-.3-.49-.83-.79-1.41-.79ZM374.47,26.82l-3.59,6.74c-.12.23-.37.38-.63.38s-.51-.15-.63-.38l-3.55-6.67c-.11-.21-.1-.45.02-.65.12-.2.34-.32.57-.32h7.26c.22,0,.42.11.54.3s.12.42.02.61Z"/>
      </g>
    </g>
  </g>
</svg>