<?xml version="1.0" encoding="UTF-8"?>
<svg id="Capa_1" data-name="Capa 1" xmlns="http://www.w3.org/2000/svg" xmlns:xlink="http://www.w3.org/1999/xlink" viewBox="0 0 425.5 53">
  <defs>
    <style>
      .cls-1 {
        fill: #646464;
      }

      .cls-2 {
        fill: #512bd4;
      }

      .cls-3 {
        fill: url(#Degradado_sin_nombre_16);
      }

      .cls-4 {
        fill: #fff;
      }

      .cls-5 {
        fill: none;
      }

      .cls-6 {
        fill: #d9232e;
        fill-rule: evenodd;
      }

      .cls-7 {
        fill: #4e7896;
      }

      .cls-8 {
        fill: url(#Degradado_sin_nombre_2);
        opacity: .05;
      }

      .cls-9 {
        fill: url(#Degradado_sin_nombre_32);
      }

      .cls-10 {
        fill: url(#Degradado_sin_nombre_30);
        isolation: isolate;
        opacity: .44;
      }

      .cls-11 {
        fill: #f58219;
      }

      .cls-12 {
        fill: url(#Degradado_sin_nombre_31);
      }
    </style>
    <linearGradient id="Degradado_sin_nombre_2" data-name="Degradado sin nombre 2" x1="190.56" y1="-85.57" x2="424.96" y2="266.41" gradientUnits="userSpaceOnUse">
      <stop offset="0" stop-color="#fff"/>
      <stop offset="1" stop-color="#000"/>
    </linearGradient>
    <linearGradient id="Degradado_sin_nombre_16" data-name="Degradado sin nombre 16" x1="-2.17" y1="26.44" x2="103.71" y2="26.44" gradientUnits="userSpaceOnUse">
      <stop offset="0" stop-color="#00aeef"/>
      <stop offset=".36" stop-color="#049ddf"/>
      <stop offset="1" stop-color="#0f75bc"/>
    </linearGradient>
    <linearGradient id="Degradado_sin_nombre_32" data-name="Degradado sin nombre 32" x1="1676.86" y1="-3341.62" x2="1691.38" y2="-3354.11" gradientTransform="translate(-712.02 -1880.28) scale(.56 -.57)" gradientUnits="userSpaceOnUse">
      <stop offset="0" stop-color="#5a9fd4"/>
      <stop offset="1" stop-color="#306998"/>
    </linearGradient>
    <linearGradient id="Degradado_sin_nombre_31" data-name="Degradado sin nombre 31" x1="1697" y1="-3361.67" x2="1691.8" y2="-3354.33" gradientTransform="translate(-712.02 -1880.28) scale(.56 -.57)" gradientUnits="userSpaceOnUse">
      <stop offset="0" stop-color="#ffd43b"/>
      <stop offset="1" stop-color="#ffe873"/>
    </linearGradient>
    <radialGradient id="Degradado_sin_nombre_30" data-name="Degradado sin nombre 30" cx="-7743.03" cy="-2330" fx="-7743.03" fy="-2330" r="3.86" gradientTransform="translate(-2218.92 -1823.5) rotate(-90) scale(.24 -1.05)" gradientUnits="userSpaceOnUse">
      <stop offset="0" stop-color="#b8b8b8" stop-opacity=".5"/>
      <stop offset="1" stop-color="#7f7f7f" stop-opacity="0"/>
    </radialGradient>
    <clipPath id="clippath">
      <rect class="cls-5" x="553.83" y="-711.66" width="960.22" height="540.01"/>
    </clipPath>
  </defs>
  <rect class="cls-8" x="104.97" y="-.13" width="320.36" height="53.13"/>
  <rect class="cls-3" x="-.49" y="-.13" width="103.44" height="53.13"/>
  <g>
    <path class="cls-4" d="M16.24,12.68v.52c0,1.51-.46,2.48-1.49,2.96,1.24.48,1.72,1.6,1.72,3.15v1.2c0,2.27-1.2,3.49-3.51,3.49h-3.63v-14.7h3.49c2.39,0,3.42,1.11,3.42,3.38ZM11.64,11.4v3.88h.9c.86,0,1.39-.38,1.39-1.55v-.82c0-1.05-.36-1.51-1.18-1.51h-1.11ZM11.64,17.39v4.51h1.32c.78,0,1.2-.36,1.2-1.45v-1.28c0-1.36-.44-1.78-1.49-1.78h-1.03Z"/>
    <path class="cls-4" d="M25.33,24h-2.33l-.4-2.67h-2.83l-.4,2.67h-2.12l2.35-14.7h3.38l2.35,14.7ZM20.06,19.34h2.23l-1.11-7.43-1.11,7.43Z"/>
    <path class="cls-4" d="M33.08,18.52v1.95c0,2.35-1.18,3.7-3.44,3.7s-3.44-1.34-3.44-3.7v-7.64c0-2.35,1.18-3.7,3.44-3.7s3.44,1.34,3.44,3.7v1.43h-2.18v-1.57c0-1.05-.46-1.45-1.2-1.45s-1.2.4-1.2,1.45v7.94c0,1.05.46,1.43,1.2,1.43s1.2-.38,1.2-1.43v-2.1h2.18Z"/>
    <path class="cls-4" d="M37.51,18.14l-.71,1.34v4.51h-2.31v-14.7h2.31v6.4l3.02-6.4h2.31l-3.21,6.55,3.21,8.15h-2.37l-2.25-5.86Z"/>
    <path class="cls-4" d="M43.08,15.6h4.2v2.1h-4.2v-2.1Z"/>
    <path class="cls-4" d="M51.16,15.5h3.17v2.1h-3.17v4.3h3.99v2.1h-6.3v-14.7h6.3v2.1h-3.99v4.09Z"/>
    <path class="cls-4" d="M58.64,13.35v10.64h-2.08v-14.7h2.9l2.37,8.8v-8.8h2.06v14.7h-2.37l-2.88-10.64Z"/>
    <path class="cls-4" d="M65.55,9.3h3.65c2.31,0,3.44,1.28,3.44,3.63v7.43c0,2.35-1.13,3.63-3.44,3.63h-3.65v-14.7ZM67.86,11.4v10.5h1.3c.73,0,1.18-.38,1.18-1.43v-7.64c0-1.05-.44-1.43-1.18-1.43h-1.3Z"/>
    <path class="cls-4" d="M15.01,29.33c.54.65.81,1.54.81,2.68v7.39c0,1.13-.27,2.03-.81,2.68-.54.65-1.35.98-2.45.98h-3.23v-14.7h3.23c1.09,0,1.91.33,2.45.98ZM14.29,41.44c.38-.48.57-1.15.57-2.01v-7.48c0-.84-.19-1.5-.57-2s-.96-.74-1.74-.74h-2.25v12.94h2.25c.78,0,1.37-.24,1.74-.72Z"/>
    <path class="cls-4" d="M22.39,36.03h-4.01v6.13h4.83v.88h-5.8v-14.7h5.8v.88h-4.83v5.92h4.01v.88Z"/>
    <path class="cls-4" d="M28.55,41.94l2.98-13.59h.9l-3.19,14.7h-1.43l-3.23-14.7h.99l2.98,13.59Z"/>
    <path class="cls-4" d="M38.88,36.03h-4.01v6.13h4.83v.88h-5.8v-14.7h5.8v.88h-4.83v5.92h4.01v.88Z"/>
    <path class="cls-4" d="M41.27,28.35h.97v13.82h4.62v.88h-5.59v-14.7Z"/>
    <path class="cls-4" d="M49.05,29.24c.54-.68,1.34-1.02,2.4-1.02s1.91.34,2.45,1.01.81,1.58.81,2.71v7.52c0,1.13-.27,2.04-.81,2.71-.54.67-1.35,1.01-2.45,1.01s-1.87-.34-2.4-1.02c-.54-.68-.81-1.58-.81-2.7v-7.52c0-1.12.27-2.02.81-2.7ZM49.76,41.55c.36.5.93.75,1.7.75s1.36-.25,1.73-.75c.37-.5.56-1.17.56-2.03v-7.64c0-.85-.19-1.53-.56-2.03-.37-.5-.95-.75-1.73-.75s-1.34.25-1.7.75c-.36.5-.55,1.17-.55,2.03v7.64c0,.85.18,1.53.55,2.03Z"/>
    <path class="cls-4" d="M61.75,29.29c.5.63.76,1.5.76,2.62v1.6c0,1.18-.28,2.05-.83,2.62-.55.57-1.41.86-2.57.86h-1.83v6.05h-.97v-14.7h3.04c1.09,0,1.89.32,2.39.95ZM60.96,35.52c.38-.4.58-1.05.58-1.94v-1.72c0-.85-.17-1.5-.5-1.95-.34-.45-.9-.67-1.68-.67h-2.08v6.89h1.83c.85,0,1.47-.2,1.86-.6Z"/>
    <path class="cls-4" d="M67.92,43.03l-3.11-13v13.02h-.86v-14.7h1.39l3.09,13,3.07-13h1.39v14.7h-.92v-13.06l-3.07,13.04h-.97Z"/>
    <path class="cls-4" d="M79.54,36.03h-4.01v6.13h4.83v.88h-5.8v-14.7h5.8v.88h-4.83v5.92h4.01v.88Z"/>
    <path class="cls-4" d="M81.93,43.05v-14.7h1.26l4.41,12.41v-12.41h.88v14.7h-1.07l-4.6-13.1v13.1h-.88Z"/>
    <path class="cls-4" d="M92.62,29.23h-2.98v-.88h6.95v.88h-3v13.82h-.97v-13.82Z"/>
  </g>
  <g>
    <g>
      <path d="M390.49,45.27h-1.5l-.26-1.71h-1.82l-.26,1.71h-1.36l1.51-9.44h2.17l1.51,9.44ZM387.11,42.28h1.43l-.71-4.78-.71,4.78Z"/>
      <path d="M396.66,38.16v1.23c0,1.51-.73,2.33-2.21,2.33h-.7v3.55h-1.48v-9.44h2.19c1.48,0,2.21.82,2.21,2.33ZM393.74,37.18v3.2h.7c.47,0,.73-.22.73-.89v-1.42c0-.67-.26-.89-.73-.89h-.7Z"/>
      <path d="M398.49,35.83h1.48v9.44h-1.48v-9.44Z"/>
    </g>
    <g>
      <path d="M397.48,17.41l-1.34-.1c-.08-.33-.21-.64-.38-.93l.88-1.02c.08-.1.08-.24-.01-.33l-.69-.69c-.09-.09-.24-.1-.33-.01l-1.02.88c-.29-.17-.6-.3-.93-.39l-.1-1.34c-.01-.13-.12-.22-.24-.22h-.98c-.13,0-.23.1-.24.23l-.1,1.34c-.33.08-.64.21-.93.38l-1.02-.88c-.1-.08-.24-.08-.33.01l-.69.69c-.09.09-.1.24-.01.33l.88,1.01c-.17.29-.3.6-.39.93l-1.34.1c-.13,0-.23.12-.22.24v.98c0,.13.1.23.23.24l1.34.1c.08.33.21.64.38.93l-.88,1.02c-.08.1-.08.24.01.33l.69.69c.09.09.24.1.33.01l1.02-.88c.29.17.6.3.93.39l.1,1.34c0,.13.12.23.24.22h.98c.13,0,.23-.1.24-.23l.1-1.34c.33-.08.64-.21.93-.38l1.02.88c.1.08.24.08.33-.01l.69-.69c.09-.09.1-.24.01-.33l-.88-1.02c.17-.29.3-.6.39-.93l1.34-.1c.13,0,.23-.12.22-.24v-.98c0-.13-.1-.23-.23-.24ZM392.83,19.61c-.81,0-1.46-.66-1.46-1.46s.66-1.46,1.46-1.46,1.46.66,1.46,1.46-.66,1.46-1.46,1.46Z"/>
      <path d="M403.08,8.87c0-1.08-.87-1.96-1.94-1.96-1.08,0-1.96.87-1.96,1.94,0,.89.6,1.67,1.46,1.9v2.31l-1.81,1.81c-.19.19-.2.5-.01.69.19.19.5.2.69.01,0,0,0,0,.01-.01l1.95-1.95c.09-.09.14-.22.14-.34v-2.51c.86-.22,1.46-1,1.46-1.88Z"/>
      <path d="M386.83,14.87l-1.81-1.81v-2.31c1.04-.27,1.67-1.33,1.4-2.38-.27-1.04-1.33-1.67-2.38-1.4-1.04.27-1.67,1.33-1.4,2.38.18.69.71,1.22,1.4,1.4v2.51c0,.13.05.25.14.34l1.95,1.95c.19.19.5.18.69-.01.18-.19.18-.49,0-.68Z"/>
      <path d="M394.29,6.92h-2.93c-.27,0-.49.22-.49.49v2.93c0,.27.22.49.49.49h.98v.98c0,.27.22.49.49.49s.49-.22.49-.49v-.98h.98c.27,0,.49-.22.49-.49v-2.93c0-.27-.22-.49-.49-.49Z"/>
      <path d="M402.59,25.46h-.98v-2.44c0-.13-.05-.25-.14-.34l-1.95-1.95c-.19-.19-.5-.18-.69.01-.18.19-.18.49,0,.68l1.81,1.81v2.24h-.98c-.27,0-.49.22-.49.49v2.93c0,.27.22.49.49.49h2.93c.27,0,.49-.22.49-.49v-2.93c0-.27-.22-.49-.49-.49Z"/>
      <path d="M386.83,21.41c.19-.19.18-.5-.01-.69-.19-.18-.49-.18-.68,0l-1.95,1.95c-.09.09-.14.22-.14.34v2.44h-.98c-.27,0-.49.22-.49.49v2.93c0,.27.22.49.49.49h2.93c.27,0,.49-.22.49-.49v-2.93c0-.27-.22-.49-.49-.49h-.98v-2.24l1.81-1.81Z"/>
      <path d="M393.32,25.53v-1.05c0-.27-.22-.49-.49-.49s-.49.22-.49.49v1.05c-1.04.27-1.67,1.33-1.4,2.38.27,1.04,1.33,1.67,2.38,1.4s1.67-1.33,1.4-2.38c-.18-.69-.71-1.22-1.4-1.4Z"/>
    </g>
  </g>
  <g>
    <rect class="cls-2" x="185.03" y="11.4" width="29.38" height="29.38"/>
    <path class="cls-4" d="M190.26,30.17c-.21,0-.38-.07-.53-.21-.15-.14-.22-.31-.22-.51s.07-.37.22-.51c.15-.14.32-.21.53-.21s.39.07.53.21c.15.14.22.31.22.51s-.07.36-.22.51c-.15.14-.32.21-.53.21Z"/>
    <path class="cls-4" d="M198.57,30.05h-1.35l-3.56-5.61c-.09-.14-.16-.29-.22-.44h-.03c.03.16.04.51.04,1.05v5.01h-1.19v-7.64h1.44l3.44,5.48c.15.23.24.38.28.47h.02c-.03-.2-.05-.54-.05-1.03v-4.92h1.19v7.64Z"/>
    <path class="cls-4" d="M204.38,30.05h-4.18v-7.64h4.01v1.08h-2.78v2.16h2.56v1.07h-2.56v2.26h2.94v1.07Z"/>
    <path class="cls-4" d="M210.33,23.49h-2.14v6.56h-1.24v-6.56h-2.13v-1.08h5.51v1.08Z"/>
  </g>
  <g>
    <path class="cls-6" d="M303.69,22.84h2.18l.81,3.04h.05l.02-.11.03-.19.02-.1.03-.1.02-.1.02-.1.03-.1.65-2.26h2.18l.95,5.78h-2.05l-.29-3.17h-.05l-.03.14-.03.14-.02.06-.02.08-.02.08-.03.06-.84,2.59h-1.24l-.76-2.45-.05-.17-.02-.1-.02-.1-.03-.18-.02-.17h-.08v.17l-.02.08v.1l-.02.08v.17l-.02.08-.24,2.48h-2.07l.95-5.78ZM314.61,26.52l.02-.08.02-.06.02-.05.03-.05.06-.1.08-.1.05-.03.05-.02.06-.03.06-.02.05-.02h.24l.06.02h.05l.05.02.05.02.05.02.05.03.05.02.03.03.05.03.05.03.08.06.08.06v-1.65l-.14-.05-.16-.03-.16-.05-.16-.02-.16-.03-.16-.02-.16-.02h-.27l-.11.02-.11.02-.11.02-.1.02-.11.03-.1.03-.11.03-.08.05-.1.05-.1.05-.1.06-.06.06-.08.05-.08.08-.08.06-.08.08-.06.08-.11.16-.05.08-.05.1-.05.1-.05.1-.03.1-.03.08v-1.38h-2v4.07h2v-1.32l.03.11.05.1.05.1.05.1.05.08.06.1.05.08.08.08.06.06.08.06.08.08.08.06.08.05.1.05.1.05.1.05.1.05.11.03.1.03.11.03.11.02.11.03h.11l.13.02h.11l.13.02.06-.02h.21l.13-.02.13-.03.13-.03.13-.03.11-.03.13-.05.08-1.66-.08.05-.1.06-.1.05-.08.05-.06.03-.05.02-.05.02-.05.02h-.05l-.06.02h-.22l-.06-.02-.05-.03-.05-.02-.05-.03-.05-.03-.05-.05-.03-.03-.03-.05-.05-.05-.02-.05-.02-.06-.02-.05-.02-.06v-.11h0ZM354.57,24.48l.21,1.59.02.62h.05l.21-.62.7-1.59h2.12l-3.56,5.74h-2.12l1.4-2.08-1.18-3.66h2.16Z"/>
    <path class="cls-6" d="M350.59,24.48l-.05.59h-.05l-.05-.08-.03-.08-.05-.06-.05-.06-.06-.06-.06-.05-.06-.06-.06-.05-.06-.03-.08-.03-.08-.03-.05-.02-.03-.02-.08-.02-.1-.02h-.1l-.1-.02-.11.02h-.1l-.1.02-.11.02-.1.03-.1.03-.1.03-.1.05-.08.05-.08.06-.1.05-.08.06-.08.06-.08.06-.06.08-.08.06-.06.08-.06.08-.06.1-.05.08-.06.08-.06.1-.05.1-.03.08-.05.1-.03.1-.05.1-.03.1v-.02l-.02-.13-.02-.11-.03-.11-.08-.21-.05-.1-.05-.1-.06-.1-.06-.08-.08-.08-.06-.08-.1-.08-.08-.06-.1-.06-.1-.06-.1-.05-.11-.05-.11-.05-.1-.05-.13-.03-.11-.03-.13-.02-.13-.02-.13-.02-.14-.02h-.3l-.08.02-.11.02h-.13l-.11.03-.11.02-.13.05-.11.03-.11.03-.11.05-.11.05-.1.05-.11.06-.1.06-.1.06-.08.06-.11.08-.08.08-.08.08-.08.08-.08.1-.05.06.14-.95-.67.03.22-1.35h-2.02l-.22,1.35-.43-.02.02-.03h-1.97l-.02.48h-.03l-.05-.06-.05-.08-.06-.05-.05-.06-.06-.05-.05-.05-.08-.05-.06-.03-.06-.03-.08-.03-.08-.03h-.05l-.03-.02-.1-.02h-.08l-.1-.02h-.19l-.11.02-.1.02-.11.02-.1.03-.1.03-.1.03-.1.05-.1.05-.08.06-.1.05-.06.06-.08.06-.08.06-.06.08-.08.06-.08.08-.05.1-.06.08-.06.08-.05.08-.06.1-.03.1-.06.1-.03.1-.05.1-.02.05.25-1.58-.13-.02-.11.02h-.11l-.11.02-.1.02-.1.02-.1.03-.1.03-.03.02-.05.02-.05.03-.03.02-.05.03-.03.02-.05.03-.05.03-.08.06-.16.18-.08.1h-.05l.13-.56h-2v.02l-.68.03.22-1.37h-2.02l-.22,1.37-.48-.03-.19,1.21v-.02l-.03-.05-.05-.05-.03-.06-.05-.05-.05-.05-.03-.05-.07-.05-.06-.03-.05-.05-.05-.03-.08-.03-.05-.05-.06-.03-.08-.03-.06-.03-.08-.02-.08-.03-.06-.02-.1-.03-.08-.02-.46-.11-.06-.02-.06-.02h-.03l-.03-.02h-.03l-.03-.02-.03-.02-.03-.02-.02-.03-.02-.02-.02-.03-.02-.02v-.08l.02-.05.02-.03.02-.05.02-.03.03-.02.05-.03.03-.02.03-.03h.03l.03-.02.05-.02.05-.02.08-.02h.16l.08.02.08.02.08.02.08.02.08.02.06.03.08.02.08.03.06.03.06.05.08.03.05.05.06.05.08.03.05.05.81-1.48-.08-.06-.11-.05-.1-.06-.11-.05-.1-.05-.11-.05-.11-.03-.11-.03-.11-.03-.11-.02-.11-.03-.11-.02-.13-.02-.11-.02h-.49l-.13.02-.11.03-.13.02-.11.02-.13.03-.11.03-.13.03-.11.05-.11.05-.11.05-.11.06-.11.05-.1.06-.11.06-.1.06-.1.08-.1.08-.08.08-.1.1-.14.18-.08.1-.05.11-.08.1-.05.11-.05.11-.05.11-.06.25-.02.11-.02.1-.02.08v.14l.02.08v.08l.02.06.02.06.02.08.03.05.03.06.03.06.03.05.03.06.05.05.05.05.08.08.05.05.06.03.06.05.05.03.06.03.06.03.06.03.06.02.08.03.06.02.06.03.08.02.06.02.1.02.41.08.06.02.08.02h.03l.05.02.03.02.03.02.03.02.03.02.02.03.03.02.02.03v.17l-.02.02-.02.03-.03.03-.02.03-.03.03-.05.03-.03.03-.05.02-.05.02-.05.02-.05.02-.03.02h-.1l-.05.02h-.13l-.1-.02-.1-.02-.08-.02-.08-.02-.08-.03-.08-.03-.1-.03-.06-.05-.08-.03-.08-.05-.06-.05-.06-.05-.08-.05-.13-.1-.1-.1-.02.03v-.13l-.02-.13-.02-.13-.02-.13-.03-.11-.03-.11-.05-.11-.05-.1-.05-.1-.05-.11-.06-.08-.06-.08-.06-.1-.1-.08-.06-.08-.1-.06-.08-.08-.08-.05-.21-.11-.11-.05-.1-.05-.11-.05-.1-.03-.13-.03-.11-.03-.11-.02-.13-.03-.13-.02h-.11l-.13-.02h-.25l-.13.02h-.13l-.13.02-.11.03-.13.02-.11.03-.11.03-.11.03-.1.05-.13.05-.1.05-.1.05-.1.06-.08.05-.1.08-.08.06-.08.08-.08.08-.06.1-.06.05v-.92h-.24l-.1.02h-.11l-.1.02-.1.02-.1.03-.08.03-.05.02-.03.03-.05.02-.03.02-.05.03-.03.03-.03.03-.03.03-.14.13-.06.1-.06.1h-.06l.06-.54h-2v4.07h2v-1.75l.02-.08.03-.08v-.03l.02-.03.02-.05.02-.03.03-.02.02-.03.02-.03.03-.03.03-.03.02-.02.03-.03.03-.02.03-.02.03-.02.03-.02.03-.02.05-.02.03-.02h.03l.05-.02h.32l.05.02h.03l.05.02v.1l-.02.13v.25l.02.13.03.22.03.11.03.1.03.11.06.1.05.1.05.09.06.1.08.06.06.08.08.08.08.08.1.06.08.06.1.06.1.06.21.1.1.03.11.05.11.03.11.03.11.03.11.02.13.03h.11l.13.02h.11l.13.02h.08l.03-.02h.13l.11-.02h.13l.11-.03.11-.02.11-.03.11-.03.11-.03.11-.05.11-.03.1-.05.1-.05.1-.06.08-.05.1.05.13.05.11.06.14.05.13.05.13.03.14.05.14.03.13.03.14.03.16.02.13.03.14.02.14.02h.53l.13-.02.11-.02.11-.02.13-.02.11-.03.13-.03.11-.05.11-.03.13-.03.1-.05.11-.05.11-.05.11-.06.1-.06.1-.08.1-.06.1-.06.08-.1.08-.08.08-.08.08-.08.08-.11.06-.1.05-.1.06-.11.05-.11.05-.13.03-.11.03-.11.02-.14.02-.08v-.1l.02-.08v-.08l-.02-.08v-.14s.32-.03.32-.03l-.4,2.53h2.02l.4-2.53.68.03-.4,2.51h1.99l.25-1.56.02-.1.02-.08.05-.08.03-.08.02-.05.02-.03.02-.03.03-.03.02-.03.03-.03.03-.03.02-.02.03-.03.03-.03.03-.02.03-.02.03-.03.05-.02.03-.02h.03l.05-.02.03-.02.05-.02h.1l.03-.02h.19l.03.02h.05l.05.02h.03l.03.02.03.02.06.03.06.03.06.05.03.02-.02.03-.02.1-.02.1v.1l-.02.1v.18l.02.11.02.17.02.1.02.08.02.1.03.09.03.08.03.08.05.08.03.08.05.06.05.08.05.06.06.06.06.06.06.06.06.05.08.05.06.03.08.03.1.05.08.03.1.02.08.02h.11l.1.02.11-.02h.1l.1-.02.1-.02.08-.03.1-.02.08-.05.08-.03.08-.05.08-.05.1-.05.06-.05.08-.06v-.02l.08-.05.08-.06.08-.08h.05l-.16.54h1.97l.4-2.5.43-.03-.4,2.53h2.02l.4-2.53.43.03-.02.05-.05.11-.03.11-.03.13-.02.13-.02.13-.02.13v.24l.02.11.02.11.02.1.03.1.05.1.03.1.05.1.06.08.06.08.05.06.08.08.08.06.06.06.08.06.1.05.08.05.11.05.1.03.1.03.1.03.11.05.11.02.11.03.11.02.13.02h.24l.11.02.1-.02h.18l.09-.02h.1l.1-.02.1-.02.08-.03.11-.03.08-.02.1-.03.1-.03.1-.03.08-.03.1-.05.17-.08.1-.05.08-.05.08-.06.08-.05.06-.06.1-.06.06-.08.06-.06.06-.06.06-.08.05-.08.06-.08.05-.08.05-.1.05-.08h-1.96l-.02.03-.02.03-.02.03-.03.03-.02.03-.03.03-.02.02-.03.03-.03.02-.03.02-.03.02-.05.02-.03.02h-.24l-.03-.02-.03-.02-.03-.02h-.02l-.02-.02-.03-.03-.02-.03-.02-.02-.02-.02-.02-.03v-.02l-.02-.06-.02-.05v-.25l.02-.05v-.06h2.86v.18l.02.1.02.1.02.08.02.1.02.1.03.08.03.1.03.08.05.08.03.06.05.08.05.08.06.06.05.06.06.06.06.06.08.05.06.05.08.03.08.05.1.03.08.02.1.03.1.02.1.02h.19l.1-.02h.1l.1-.03.08-.03.11-.03.08-.02.1-.05.08-.05.1-.05.08-.05.08-.06.02-.02.02-.02.03-.03.03-.05.05-.03.02-.03.03-.03.03-.05.02-.05h.06l-.11.43-.02.08-.03.1-.05.08-.05.1-.03.06-.02.02-.05.06-.03.05-.03.03-.03.03-.03.03-.03.02-.05.03-.03.03-.05.02-.03.03-.03.02-.05.02-.03.03-.06.02-.03.02h-.05l-.05.02h-.05l-.05.02h-.29l-.1-.02-.1-.02-.08-.02-.1-.03-.1-.03-.1-.02-.08-.05-.1-.03-.08-.03-.08-.05-.08-.05-.08-.06-.06-.05-.06-.05-.67,1.35.19.08.11.03.1.03.1.03.11.03.1.03.11.03.11.03.1.02.11.02.11.02.11.02.1.02h.13l.1.02h.38l.13-.02h.13l.14-.02.14-.02.11-.02.14-.03.06-.02.06-.02.13-.03.13-.05.11-.03.13-.05.13-.05.1-.06.13-.06.1-.06.11-.06.1-.08.1-.06.1-.1.08-.1.1-.08.08-.1.08-.11.06-.11.06-.11.06-.11.05-.13.05-.13.03-.14.03-.14.05-.14.6-3.83h-1.94s0,0,0,0ZM322.4,26.66l-.02.05v.06l-.03.05-.02.05-.03.05-.06.08-.05.03-.03.03-.06.03-.05.03-.05.02-.05.02h-.22l-.06-.02-.05-.02-.05-.03-.05-.03-.08-.06-.03-.03-.03-.05-.03-.05-.02-.05-.02-.05-.03-.06v-.22l.02-.06.02-.06.03-.05.02-.05.03-.05.03-.03.05-.05.05-.03.03-.03.05-.03.06-.02.06-.02h.05l.06-.02.05.02h.08l.05.02.05.02.05.03.05.03.05.03.03.05.03.03.03.05.03.05.03.05.02.06v.06l.02.05v.13h0ZM337.75,26.49v.06l-.02.05v.06l-.03.05-.02.06-.02.06-.03.05-.05.05-.03.03-.05.05-.03.03-.05.05-.06.02-.05.03h-.06l-.03.02h-.24l-.03-.02h-.02l-.03-.02-.02-.02h-.02l-.03-.02-.02-.03h-.02l-.03-.05-.03-.03-.02-.05-.02-.05-.02-.05-.02-.05v-.17l.02-.05v-.06l.02-.05.03-.06.02-.05.03-.05.03-.05.03-.03.03-.05.05-.03.03-.05.06-.02.05-.03.05-.02.06-.02h.06l.05-.02.05.02h.06l.05.02.05.02.05.02.05.03.03.03.03.03.03.05.02.03.02.05.02.1.02.05v.06s-.01,0-.01,0ZM345.52,25.98v.11h-1.03l.02-.05.03-.11.02-.05.03-.06.03-.05.03-.05.03-.03.03-.03.05-.03.05-.03.05-.03.05-.03.05-.02h.24l.05.02.05.03.05.03.03.03.05.03.03.03.02.05.03.03.02.05.02.06v.1h0,0ZM350.34,26.41v.13l-.02.05-.02.06-.02.05-.03.05-.02.06-.03.05-.03.03-.03.05-.05.03-.05.03-.03.03-.05.02-.06.03-.05.02h-.06l-.06.02-.06-.02h-.06l-.05-.02-.05-.02-.06-.03-.03-.03-.03-.03-.03-.03-.03-.03-.02-.05-.03-.05v-.05l-.02-.06-.02-.05.02-.06.02-.06v-.06l.02-.05.03-.06.02-.05.03-.05.03-.05.03-.05.05-.05.05-.03.05-.03.1-.05.06-.03.05-.02h.19l.05.02.05.02.05.02.05.02.03.03.03.03.03.05.03.05.02.05.02.05.02.05v.1h0ZM312.16,22.64l.62-.16-.37.43.68.14-.81.16.38.49-.54-.19.02.03v.11l.02.19.02.06v.1h-.02l-.02-.02-.03-.02-.06-.06-.06-.08-.08-.08-.05-.08-.05-.05-.02-.02-.11.56v-.84h.03l.03-.02h.03l.03-.02.03-.02.03-.02.02-.02.03-.02.03-.03.03-.05.02-.03v-.03l.02-.03v-.13l-.02-.03v-.03l-.02-.03-.02-.03-.02-.03-.03-.02-.03-.02-.02-.02-.03-.02-.03-.02-.03-.02h-.03l-.03-.02h-.03v-.94l.16.6.43-.29-.11.61h0ZM311.61,21.63h.05l.02.08v.94h-.03l-.03.02h-.03l-.03.02-.03.02-.03.02-.03.02-.02.02-.03.02-.02.03-.02.03-.02.03v.03l-.02.03v.13l.02.03v.03l.02.03.02.03.02.02.03.03.02.02.03.02.03.02.03.02.03.02h.03l.03.02h.03v.84l-.05.25-.14-.81-.49.51.21-.6-.45.03.29-.32-.72-.16.7-.14-.41-.45.49.1-.18-.54.53.4.15-.8h0ZM358.67,24.66l.06.02h.06l.08.02.05.02.06.03.05.03.05.03.05.05.05.05.03.05.05.06.02.05.03.06.02.06v.29l-.02.05-.05.14-.05.05-.03.05-.05.05-.05.03-.05.05-.05.03-.06.03-.05.02-.08.02-.06.02h-.06v.13h.13l.03-.02h.05l.03-.02.05-.02.03-.02.03-.02.05-.02.02-.02.05-.02.03-.02.02-.03.03-.02.05-.03.02-.03.03-.03.02-.02.03-.03.02-.03.02-.03.02-.05.02-.03.02-.03.02-.03.02-.05.02-.05v-.08l.02-.03v-.09l-.02-.05v-.08l-.02-.03-.02-.05-.02-.03-.02-.03-.02-.03-.02-.05-.02-.03-.02-.03-.03-.03-.02-.03-.03-.02-.02-.03-.05-.02-.03-.03-.02-.02-.03-.03-.05-.02-.02-.02-.05-.03-.03-.02-.03-.02h-.05l-.03-.02h-.05l-.03-.02h-.13v.13h0ZM358.67,25.39v-.11h.08l.05-.02.03-.02.02-.02h.02l.02-.02v-.02l.02-.02v-.13h-.02v-.02l-.02-.02h-.02l-.02-.02-.03-.02h-.13v-.13h.13l.03.02h.06l.02.02.03.02.02.02.02.02.02.02.02.03.02.02v.03l.02.02.02.03v.06l-.02.03-.02.03v.02l-.02.02v.03l-.02.02-.02.02-.02.02-.02.02h-.02l-.03.02-.03.02h-.06l.27.41h-.16l-.24-.4h0ZM358.01,25.32v-.08l.03-.06v-.06l.03-.06.02-.05.03-.06.05-.05.03-.05.06-.05.05-.03.05-.03.05-.03.08-.02.05-.02h.08l.06-.02v-.13h-.13l-.03.02h-.05l-.03.02h-.05l-.03.02-.03.02-.03.03-.03.02-.05.02-.03.03-.03.02-.03.03-.02.02-.03.03-.03.02-.03.03-.02.03-.02.03-.02.03-.03.05-.02.03v.03l-.02.03-.02.05v.03l-.02.05v.25l.02.03v.05l.02.05.02.03v.03l.02.03.03.05.02.03.02.03.02.03.03.02.03.03.03.03.02.03.03.02.03.03.03.02.05.02.03.02.03.02.03.02.03.02.05.02.03.02h.05l.03.02h.13v-.13h-.06l-.08-.02-.05-.02-.08-.02-.05-.03-.05-.03-.05-.05-.06-.03-.03-.05-.05-.05-.03-.05-.05-.14v-.05l-.03-.08v-.06h0ZM358.67,24.86v.13h-.17v.29h.17v.11h-.17v.4h-.14v-.92h.32Z"/>
  </g>
  <g>
    <path class="cls-1" d="M255.41,24.73c0-1.94-.55-2.93-1.66-2.99-.44-.02-.87.05-1.29.21-.33.12-.56.24-.68.36v4.63c.71.44,1.34.65,1.88.62,1.16-.08,1.74-1.02,1.74-2.83h0ZM256.77,24.81c0,.99-.23,1.8-.7,2.45-.52.74-1.24,1.11-2.15,1.14-.69.02-1.4-.19-2.14-.65v4.21l-1.19-.42v-9.34c.19-.24.45-.44.75-.62.71-.41,1.56-.62,2.57-.63l.02.02c.92-.01,1.63.37,2.13,1.14.47.7.7,1.61.7,2.71h0Z"/>
    <path class="cls-1" d="M264.02,27.57c0,1.32-.13,2.24-.4,2.75-.27.51-.77.92-1.52,1.22-.61.24-1.26.37-1.97.39l-.2-.75c.72-.1,1.22-.19,1.51-.29.57-.19.97-.49,1.19-.89.17-.33.26-.95.26-1.87v-.31c-.81.37-1.66.55-2.55.55-.58,0-1.1-.18-1.54-.55-.5-.4-.75-.91-.75-1.53v-4.94l1.19-.41v4.97c0,.53.17.94.51,1.23s.79.42,1.33.41c.54-.01,1.13-.22,1.75-.63v-5.8h1.19v6.45h0Z"/>
    <path class="cls-1" d="M268.66,28.33c-.14.01-.27.02-.39.02-.67,0-1.19-.16-1.57-.48-.37-.32-.56-.76-.56-1.33v-4.67h-.81v-.75h.81v-1.98l1.19-.42v2.4h1.33v.75h-1.33v4.64c0,.45.12.76.36.94.21.15.53.24.97.26v.62h0Z"/>
    <path class="cls-1" d="M275.84,28.23h-1.19v-4.58c0-.47-.11-.87-.33-1.2-.25-.38-.6-.57-1.04-.57-.54,0-1.22.29-2.04.86v5.49h-1.19v-10.95l1.19-.37v4.99c.76-.55,1.59-.83,2.49-.83.63,0,1.14.21,1.53.63.39.42.59.95.59,1.58v4.95h0Z"/>
    <path class="cls-1" d="M282.15,24.54c0-.75-.14-1.36-.42-1.85-.33-.59-.86-.91-1.56-.94-1.3.08-1.95,1.01-1.95,2.79,0,.82.14,1.5.41,2.05.35.7.87,1.04,1.57,1.03,1.31-.01,1.96-1.04,1.96-3.09h0ZM283.45,24.55c0,1.06-.27,1.94-.81,2.65-.6.79-1.42,1.19-2.47,1.19s-1.85-.4-2.44-1.19c-.53-.7-.8-1.59-.8-2.65,0-1,.29-1.83.86-2.52.61-.72,1.4-1.09,2.39-1.09s1.79.36,2.4,1.09c.57.68.86,1.52.86,2.52h0Z"/>
    <path class="cls-1" d="M290.24,28.23h-1.19v-4.84c0-.53-.16-.94-.48-1.24-.32-.3-.75-.44-1.28-.43-.56.01-1.1.19-1.61.55v5.96h-1.19v-6.11c.68-.5,1.31-.82,1.88-.97.54-.14,1.02-.21,1.43-.21.28,0,.55.03.8.08.47.11.84.31,1.14.6.33.32.49.71.49,1.17v5.44h0Z"/>
    <path class="cls-9" d="M238.88,17.33c-.61,0-1.19.05-1.71.15-1.51.27-1.79.83-1.79,1.86v1.36h3.57v.45h-4.91c-1.04,0-1.95.62-2.23,1.81-.33,1.36-.34,2.21,0,3.63.25,1.06.86,1.81,1.9,1.81h1.23v-1.63c0-1.18,1.02-2.22,2.23-2.22h3.57c.99,0,1.79-.82,1.79-1.81v-3.4c0-.97-.82-1.69-1.79-1.86-.61-.1-1.25-.15-1.86-.15h0ZM236.95,18.43c.37,0,.67.31.67.68,0,.37-.3.68-.67.68-.37,0-.67-.3-.67-.68s.3-.68.67-.68Z"/>
    <path class="cls-12" d="M242.98,21.15v1.59c0,1.23-1.04,2.26-2.23,2.26h-3.57c-.98,0-1.79.84-1.79,1.81v3.4c0,.97.84,1.54,1.79,1.81,1.13.33,2.21.39,3.57,0,.9-.26,1.79-.78,1.79-1.81v-1.36h-3.57v-.45h5.35c1.04,0,1.42-.72,1.79-1.81.37-1.12.36-2.19,0-3.63-.26-1.03-.75-1.81-1.79-1.81h-1.34ZM240.97,29.76c.37,0,.67.3.67.68s-.3.68-.67.68-.67-.31-.67-.68.3-.68.67-.68Z"/>
    <path class="cls-10" d="M243.79,34.34c0,.51-2.14.93-4.79.93s-4.79-.42-4.79-.93h0c0-.51,2.14-.93,4.79-.93s4.79.42,4.79.93Z"/>
  </g>
  <g>
    <path class="cls-7" d="M141.52,27.61s-1.06.65.74.83c2.18.28,3.33.23,5.73-.23,0,0,.65.42,1.52.74-5.41,2.31-12.25-.14-7.99-1.34ZM140.82,24.61s-1.16.88.65,1.06c2.36.23,4.21.28,7.39-.37,0,0,.42.46,1.11.69-6.52,1.94-13.82.18-9.15-1.39h0ZM153.58,29.88s.79.65-.88,1.16c-3.1.92-12.99,1.2-15.76,0-.97-.42.88-1.02,1.48-1.11.6-.14.92-.14.92-.14-1.06-.74-7.07,1.52-3.05,2.18,11.04,1.8,20.15-.79,17.28-2.08h0ZM142.03,21.47s-5.04,1.2-1.8,1.62c1.39.18,4.11.14,6.65-.05,2.08-.18,4.16-.55,4.16-.55,0,0-.74.32-1.25.65-5.13,1.34-14.98.74-12.16-.65,2.4-1.16,4.39-1.02,4.39-1.02ZM151.04,26.5c5.18-2.68,2.77-5.27,1.11-4.94-.42.09-.6.18-.6.18,0,0,.14-.28.46-.37,3.28-1.16,5.87,3.47-1.06,5.27,0,0,.05-.05.09-.14h0ZM142.53,33.81c4.99.32,12.62-.18,12.8-2.54,0,0-.37.92-4.11,1.62-4.25.79-9.52.69-12.62.18,0,0,.65.55,3.93.74h0Z"/>
    <path class="cls-11" d="M147.89,6.22s2.86,2.91-2.73,7.3c-4.48,3.56-1.02,5.59,0,7.9-2.63-2.36-4.53-4.44-3.23-6.38,1.9-2.86,7.12-4.25,5.96-8.83ZM146.41,19.48c1.34,1.52-.37,2.91-.37,2.91,0,0,3.42-1.76,1.85-3.93-1.43-2.08-2.54-3.1,3.47-6.56,0,0-9.47,2.36-4.94,7.58h0Z"/>
    <path class="cls-7" d="M144.03,43.7v-4.53c0-1.16-.65-1.94-2.26-1.94-.92,0-1.71.23-2.4.51l.23.83c.51-.18,1.16-.37,1.85-.37.88,0,1.29.37,1.29,1.11v.6h-.46c-2.22,0-3.23.83-3.23,2.18,0,1.11.69,1.76,1.94,1.76.79,0,1.39-.37,1.94-.83l.09.69h1.02ZM142.73,42.22c-.46.42-.97.65-1.43.65-.6,0-.97-.37-.97-1.02s.37-1.11,1.85-1.11h.55v1.48h0ZM148.37,43.7h-1.62l-1.94-6.33h1.39l1.2,3.88.28,1.16c.6-1.66,1.06-3.37,1.25-5.04h1.39c-.37,2.08-1.02,4.34-1.94,6.33h0ZM155.86,43.7v-4.53c0-1.16-.65-1.94-2.26-1.94-.92,0-1.71.23-2.4.51l.18.83c.55-.18,1.2-.37,1.89-.37.88,0,1.29.37,1.29,1.11v.6h-.46c-2.22,0-3.23.83-3.23,2.18,0,1.11.65,1.76,1.89,1.76.83,0,1.43-.37,1.99-.83l.09.69h1.02ZM154.56,42.22c-.46.42-.97.65-1.43.65-.6,0-.97-.37-.97-1.02s.37-1.11,1.85-1.11h.55v1.48h0ZM137.6,44.76c-.37.55-.92.97-1.62,1.2l-.6-.74c.46-.28.92-.69,1.11-1.06.18-.32.23-.79.23-1.85v-7.21h1.39v7.12c0,1.43-.14,1.99-.51,2.54h0Z"/>
  </g>
</svg>