<?xml version="1.0" encoding="UTF-8"?>
<svg id="Capa_1" data-name="Capa 1" xmlns="http://www.w3.org/2000/svg" xmlns:xlink="http://www.w3.org/1999/xlink" viewBox="0 0 425.5 53">
  <defs>
    <style>
      .cls-1 {
        fill: #646464;
      }

      .cls-2 {
        fill: #512bd4;
      }

      .cls-3 {
        fill: url(#Degradado_sin_nombre_16);
      }

      .cls-4 {
        font-family: BebasNeue-Book, 'Bebas Neue';
      }

      .cls-5, .cls-6 {
        fill: #fff;
      }

      .cls-7 {
        fill: none;
      }

      .cls-8 {
        fill: #d9232e;
        fill-rule: evenodd;
      }

      .cls-9 {
        fill: url(#Degradado_sin_nombre_2);
        opacity: .05;
      }

      .cls-10 {
        fill: url(#Degradado_sin_nombre_32);
      }

      .cls-6 {
        font-size: 21px;
      }

      .cls-11 {
        letter-spacing: 0em;
      }

      .cls-12 {
        fill: url(#Degradado_sin_nombre_30);
        isolation: isolate;
        opacity: .44;
      }

      .cls-13 {
        font-size: 13.49px;
        letter-spacing: .08em;
      }

      .cls-13, .cls-14 {
        font-family: BebasNeueBold, 'Bebas Neue';
      }

      .cls-15 {
        fill: url(#Degradado_sin_nombre_31);
      }
    </style>
    <linearGradient id="Degradado_sin_nombre_2" data-name="Degradado sin nombre 2" x1="190.56" y1="-85.57" x2="424.96" y2="266.41" gradientUnits="userSpaceOnUse">
      <stop offset="0" stop-color="#fff"/>
      <stop offset="1" stop-color="#000"/>
    </linearGradient>
    <linearGradient id="Degradado_sin_nombre_16" data-name="Degradado sin nombre 16" x1="39.37" y1="-19.23" x2="129.83" y2="328.92" gradientUnits="userSpaceOnUse">
      <stop offset="0" stop-color="#00aeef"/>
      <stop offset=".36" stop-color="#049ddf"/>
      <stop offset="1" stop-color="#0f75bc"/>
    </linearGradient>
    <linearGradient id="Degradado_sin_nombre_32" data-name="Degradado sin nombre 32" x1="1676.86" y1="-3342.77" x2="1691.38" y2="-3355.26" gradientTransform="translate(-712.02 -1880.28) scale(.56 -.57)" gradientUnits="userSpaceOnUse">
      <stop offset="0" stop-color="#5a9fd4"/>
      <stop offset="1" stop-color="#306998"/>
    </linearGradient>
    <linearGradient id="Degradado_sin_nombre_31" data-name="Degradado sin nombre 31" x1="1697" y1="-3362.82" x2="1691.8" y2="-3355.49" gradientTransform="translate(-712.02 -1880.28) scale(.56 -.57)" gradientUnits="userSpaceOnUse">
      <stop offset="0" stop-color="#ffd43b"/>
      <stop offset="1" stop-color="#ffe873"/>
    </linearGradient>
    <radialGradient id="Degradado_sin_nombre_30" data-name="Degradado sin nombre 30" cx="-7745.77" cy="-2330" fx="-7745.77" fy="-2330" r="3.86" gradientTransform="translate(-2218.92 -1823.5) rotate(-90) scale(.24 -1.05)" gradientUnits="userSpaceOnUse">
      <stop offset="0" stop-color="#b8b8b8" stop-opacity=".5"/>
      <stop offset="1" stop-color="#7f7f7f" stop-opacity="0"/>
    </radialGradient>
    <clipPath id="clippath">
      <rect class="cls-7" x="553.83" y="-711.66" width="960.22" height="540.01"/>
    </clipPath>
  </defs>
  <rect class="cls-9" x="104.97" y="-.13" width="320.36" height="53.13"/>
  <rect class="cls-3" x="-.49" y="-.13" width="103.44" height="53.13"/>
  <text class="cls-6" transform="translate(8.49 24)"><tspan class="cls-14"><tspan x="0" y="0">b</tspan><tspan class="cls-11" x="8.53" y="0">a</tspan><tspan x="17.05" y="0">ck-end</tspan></tspan><tspan class="cls-4"><tspan x="0" y="19.05">development</tspan></tspan></text>
  <g>
    <text class="cls-13" transform="translate(385.15 44.99)"><tspan x="0" y="0">API</tspan></text>
    <g>
      <path d="M397.48,17.13l-1.34-.1c-.08-.33-.21-.64-.38-.93l.88-1.02c.08-.1.08-.24-.01-.33l-.69-.69c-.09-.09-.24-.1-.33-.01l-1.02.88c-.29-.17-.6-.3-.93-.39l-.1-1.34c-.01-.13-.12-.22-.24-.22h-.98c-.13,0-.23.1-.24.23l-.1,1.34c-.33.08-.64.21-.93.38l-1.02-.88c-.1-.08-.24-.08-.33.01l-.69.69c-.09.09-.1.24-.01.33l.88,1.01c-.17.29-.3.6-.39.93l-1.34.1c-.13,0-.23.12-.22.24v.98c0,.13.1.23.23.24l1.34.1c.08.33.21.64.38.93l-.88,1.02c-.08.1-.08.24.01.33l.69.69c.09.09.24.1.33.01l1.02-.88c.29.17.6.3.93.39l.1,1.34c0,.13.12.23.24.22h.98c.13,0,.23-.1.24-.23l.1-1.34c.33-.08.64-.21.93-.38l1.02.88c.1.08.24.08.33-.01l.69-.69c.09-.09.1-.24.01-.33l-.88-1.02c.17-.29.3-.6.39-.93l1.34-.1c.13,0,.23-.12.22-.24v-.98c0-.13-.1-.23-.23-.24ZM392.83,19.32c-.81,0-1.46-.66-1.46-1.46s.66-1.46,1.46-1.46,1.46.66,1.46,1.46-.66,1.46-1.46,1.46Z"/>
      <path d="M403.08,8.59c0-1.08-.87-1.96-1.94-1.96-1.08,0-1.96.87-1.96,1.94,0,.89.6,1.67,1.46,1.9v2.31l-1.81,1.81c-.19.19-.2.5-.01.69.19.19.5.2.69.01,0,0,0,0,.01-.01l1.95-1.95c.09-.09.14-.22.14-.34v-2.51c.86-.22,1.46-1,1.46-1.88Z"/>
      <path d="M386.83,14.59l-1.81-1.81v-2.31c1.04-.27,1.67-1.33,1.4-2.38-.27-1.04-1.33-1.67-2.38-1.4-1.04.27-1.67,1.33-1.4,2.38.18.69.71,1.22,1.4,1.4v2.51c0,.13.05.25.14.34l1.95,1.95c.19.19.5.18.69-.01.18-.19.18-.49,0-.68Z"/>
      <path d="M394.29,6.64h-2.93c-.27,0-.49.22-.49.49v2.93c0,.27.22.49.49.49h.98v.98c0,.27.22.49.49.49s.49-.22.49-.49v-.98h.98c.27,0,.49-.22.49-.49v-2.93c0-.27-.22-.49-.49-.49Z"/>
      <path d="M402.59,25.18h-.98v-2.44c0-.13-.05-.25-.14-.34l-1.95-1.95c-.19-.19-.5-.18-.69.01-.18.19-.18.49,0,.68l1.81,1.81v2.24h-.98c-.27,0-.49.22-.49.49v2.93c0,.27.22.49.49.49h2.93c.27,0,.49-.22.49-.49v-2.93c0-.27-.22-.49-.49-.49Z"/>
      <path d="M386.83,21.13c.19-.19.18-.5-.01-.69-.19-.18-.49-.18-.68,0l-1.95,1.95c-.09.09-.14.22-.14.34v2.44h-.98c-.27,0-.49.22-.49.49v2.93c0,.27.22.49.49.49h2.93c.27,0,.49-.22.49-.49v-2.93c0-.27-.22-.49-.49-.49h-.98v-2.24l1.81-1.81Z"/>
      <path d="M393.32,25.25v-1.05c0-.27-.22-.49-.49-.49s-.49.22-.49.49v1.05c-1.04.27-1.67,1.33-1.4,2.38.27,1.04,1.33,1.67,2.38,1.4s1.67-1.33,1.4-2.38c-.18-.69-.71-1.22-1.4-1.4Z"/>
    </g>
  </g>
  <g>
    <rect class="cls-2" x="185.03" y="12.48" width="29.38" height="29.38"/>
    <path class="cls-5" d="M190.26,31.26c-.21,0-.38-.07-.53-.21-.15-.14-.22-.31-.22-.51s.07-.37.22-.51c.15-.14.32-.21.53-.21s.39.07.53.21c.15.14.22.31.22.51s-.07.36-.22.51c-.15.14-.32.21-.53.21Z"/>
    <path class="cls-5" d="M198.57,31.14h-1.35l-3.56-5.61c-.09-.14-.16-.29-.22-.44h-.03c.03.16.04.51.04,1.05v5.01h-1.19v-7.64h1.44l3.44,5.48c.15.23.24.38.28.47h.02c-.03-.2-.05-.54-.05-1.03v-4.92h1.19v7.64Z"/>
    <path class="cls-5" d="M204.38,31.14h-4.18v-7.64h4.01v1.08h-2.78v2.16h2.56v1.07h-2.56v2.26h2.94v1.07Z"/>
    <path class="cls-5" d="M210.33,24.58h-2.14v6.56h-1.24v-6.56h-2.13v-1.08h5.51v1.08Z"/>
  </g>
  <image width="800" height="1467" transform="translate(135.16 4.22) scale(.03)" xlink:href="../../../Alejandro Mendoza/Valtre/Logos Matriz/Software Factory/Java_programming_language_logo.svg.png"/>
  <g>
    <path class="cls-8" d="M303.69,23.34h2.18l.81,3.04h.05l.02-.11.03-.19.02-.1.03-.1.02-.1.02-.1.03-.1.65-2.26h2.18l.95,5.78h-2.05l-.29-3.17h-.05l-.03.14-.03.14-.02.06-.02.08-.02.08-.03.06-.84,2.59h-1.24l-.76-2.45-.05-.17-.02-.1-.02-.1-.03-.18-.02-.17h-.08v.17l-.02.08v.1l-.02.08v.17l-.02.08-.24,2.48h-2.07l.95-5.78ZM314.61,27.02l.02-.08.02-.06.02-.05.03-.05.06-.1.08-.1.05-.03.05-.02.06-.03.06-.02.05-.02h.24l.06.02h.05l.05.02.05.02.05.02.05.03.05.02.03.03.05.03.05.03.08.06.08.06v-1.65l-.14-.05-.16-.03-.16-.05-.16-.02-.16-.03-.16-.02-.16-.02h-.27l-.11.02-.11.02-.11.02-.1.02-.11.03-.1.03-.11.03-.08.05-.1.05-.1.05-.1.06-.06.06-.08.05-.08.08-.08.06-.08.08-.06.08-.11.16-.05.08-.05.1-.05.1-.05.1-.03.1-.03.08v-1.38h-2v4.07h2v-1.32l.03.11.05.1.05.1.05.1.05.08.06.1.05.08.08.08.06.06.08.06.08.08.08.06.08.05.1.05.1.05.1.05.1.05.11.03.1.03.11.03.11.02.11.03h.11l.13.02h.11l.13.02.06-.02h.21l.13-.02.13-.03.13-.03.13-.03.11-.03.13-.05.08-1.66-.08.05-.1.06-.1.05-.08.05-.06.03-.05.02-.05.02-.05.02h-.05l-.06.02h-.22l-.06-.02-.05-.03-.05-.02-.05-.03-.05-.03-.05-.05-.03-.03-.03-.05-.05-.05-.02-.05-.02-.06-.02-.05-.02-.06v-.11h0ZM354.57,24.98l.21,1.59.02.62h.05l.21-.62.7-1.59h2.12l-3.56,5.74h-2.12l1.4-2.08-1.18-3.66h2.16Z"/>
    <path class="cls-8" d="M350.59,24.98l-.05.59h-.05l-.05-.08-.03-.08-.05-.06-.05-.06-.06-.06-.06-.05-.06-.06-.06-.05-.06-.03-.08-.03-.08-.03-.05-.02-.03-.02-.08-.02-.1-.02h-.1l-.1-.02-.11.02h-.1l-.1.02-.11.02-.1.03-.1.03-.1.03-.1.05-.08.05-.08.06-.1.05-.08.06-.08.06-.08.06-.06.08-.08.06-.06.08-.06.08-.06.1-.05.08-.06.08-.06.1-.05.1-.03.08-.05.1-.03.1-.05.1-.03.1v-.02l-.02-.13-.02-.11-.03-.11-.08-.21-.05-.1-.05-.1-.06-.1-.06-.08-.08-.08-.06-.08-.1-.08-.08-.06-.1-.06-.1-.06-.1-.05-.11-.05-.11-.05-.1-.05-.13-.03-.11-.03-.13-.02-.13-.02-.13-.02-.14-.02h-.3l-.08.02-.11.02h-.13l-.11.03-.11.02-.13.05-.11.03-.11.03-.11.05-.11.05-.1.05-.11.06-.1.06-.1.06-.08.06-.11.08-.08.08-.08.08-.08.08-.08.1-.05.06.14-.95-.67.03.22-1.35h-2.02l-.22,1.35-.43-.02.02-.03h-1.97l-.02.48h-.03l-.05-.06-.05-.08-.06-.05-.05-.06-.06-.05-.05-.05-.08-.05-.06-.03-.06-.03-.08-.03-.08-.03h-.05l-.03-.02-.1-.02h-.08l-.1-.02h-.19l-.11.02-.1.02-.11.02-.1.03-.1.03-.1.03-.1.05-.1.05-.08.06-.1.05-.06.06-.08.06-.08.06-.06.08-.08.06-.08.08-.05.1-.06.08-.06.08-.05.08-.06.1-.03.1-.06.1-.03.1-.05.1-.02.05.25-1.58-.13-.02-.11.02h-.11l-.11.02-.1.02-.1.02-.1.03-.1.03-.03.02-.05.02-.05.03-.03.02-.05.03-.03.02-.05.03-.05.03-.08.06-.16.18-.08.1h-.05l.13-.56h-2v.02l-.68.03.22-1.37h-2.02l-.22,1.37-.48-.03-.19,1.21v-.02l-.03-.05-.05-.05-.03-.06-.05-.05-.05-.05-.03-.05-.07-.05-.06-.03-.05-.05-.05-.03-.08-.03-.05-.05-.06-.03-.08-.03-.06-.03-.08-.02-.08-.03-.06-.02-.1-.03-.08-.02-.46-.11-.06-.02-.06-.02h-.03l-.03-.02h-.03l-.03-.02-.03-.02-.03-.02-.02-.03-.02-.02-.02-.03-.02-.02v-.08l.02-.05.02-.03.02-.05.02-.03.03-.02.05-.03.03-.02.03-.03h.03l.03-.02.05-.02.05-.02.08-.02h.16l.08.02.08.02.08.02.08.02.08.02.06.03.08.02.08.03.06.03.06.05.08.03.05.05.06.05.08.03.05.05.81-1.48-.08-.06-.11-.05-.1-.06-.11-.05-.1-.05-.11-.05-.11-.03-.11-.03-.11-.03-.11-.02-.11-.03-.11-.02-.13-.02-.11-.02h-.49l-.13.02-.11.03-.13.02-.11.02-.13.03-.11.03-.13.03-.11.05-.11.05-.11.05-.11.06-.11.05-.1.06-.11.06-.1.06-.1.08-.1.08-.08.08-.1.1-.14.18-.08.1-.05.11-.08.1-.05.11-.05.11-.05.11-.06.25-.02.11-.02.1-.02.08v.14l.02.08v.08l.02.06.02.06.02.08.03.05.03.06.03.06.03.05.03.06.05.05.05.05.08.08.05.05.06.03.06.05.05.03.06.03.06.03.06.03.06.02.08.03.06.02.06.03.08.02.06.02.1.02.41.08.06.02.08.02h.03l.05.02.03.02.03.02.03.02.03.02.02.03.03.02.02.03v.17l-.02.02-.02.03-.03.03-.02.03-.03.03-.05.03-.03.03-.05.02-.05.02-.05.02-.05.02-.03.02h-.1l-.05.02h-.13l-.1-.02-.1-.02-.08-.02-.08-.02-.08-.03-.08-.03-.1-.03-.06-.05-.08-.03-.08-.05-.06-.05-.06-.05-.08-.05-.13-.1-.1-.1-.02.03v-.13l-.02-.13-.02-.13-.02-.13-.03-.11-.03-.11-.05-.11-.05-.1-.05-.1-.05-.11-.06-.08-.06-.08-.06-.1-.1-.08-.06-.08-.1-.06-.08-.08-.08-.05-.21-.11-.11-.05-.1-.05-.11-.05-.1-.03-.13-.03-.11-.03-.11-.02-.13-.03-.13-.02h-.11l-.13-.02h-.25l-.13.02h-.13l-.13.02-.11.03-.13.02-.11.03-.11.03-.11.03-.1.05-.13.05-.1.05-.1.05-.1.06-.08.05-.1.08-.08.06-.08.08-.08.08-.06.1-.06.05v-.92h-.24l-.1.02h-.11l-.1.02-.1.02-.1.03-.08.03-.05.02-.03.03-.05.02-.03.02-.05.03-.03.03-.03.03-.03.03-.14.13-.06.1-.06.1h-.06l.06-.54h-2v4.07h2v-1.75l.02-.08.03-.08v-.03l.02-.03.02-.05.02-.03.03-.02.02-.03.02-.03.03-.03.03-.03.02-.02.03-.03.03-.02.03-.02.03-.02.03-.02.03-.02.05-.02.03-.02h.03l.05-.02h.32l.05.02h.03l.05.02v.1l-.02.13v.25l.02.13.03.22.03.11.03.1.03.11.06.1.05.1.05.09.06.1.08.06.06.08.08.08.08.08.1.06.08.06.1.06.1.06.21.1.1.03.11.05.11.03.11.03.11.03.11.02.13.03h.11l.13.02h.11l.13.02h.08l.03-.02h.13l.11-.02h.13l.11-.03.11-.02.11-.03.11-.03.11-.03.11-.05.11-.03.1-.05.1-.05.1-.06.08-.05.1.05.13.05.11.06.14.05.13.05.13.03.14.05.14.03.13.03.14.03.16.02.13.03.14.02.14.02h.53l.13-.02.11-.02.11-.02.13-.02.11-.03.13-.03.11-.05.11-.03.13-.03.1-.05.11-.05.11-.05.11-.06.1-.06.1-.08.1-.06.1-.06.08-.1.08-.08.08-.08.08-.08.08-.11.06-.1.05-.1.06-.11.05-.11.05-.13.03-.11.03-.11.02-.14.02-.08v-.1l.02-.08v-.08l-.02-.08v-.14s.32-.03.32-.03l-.4,2.53h2.02l.4-2.53.68.03-.4,2.51h1.99l.25-1.56.02-.1.02-.08.05-.08.03-.08.02-.05.02-.03.02-.03.03-.03.02-.03.03-.03.03-.03.02-.02.03-.03.03-.03.03-.02.03-.02.03-.03.05-.02.03-.02h.03l.05-.02.03-.02.05-.02h.1l.03-.02h.19l.03.02h.05l.05.02h.03l.03.02.03.02.06.03.06.03.06.05.03.02-.02.03-.02.1-.02.1v.1l-.02.1v.18l.02.11.02.17.02.1.02.08.02.1.03.09.03.08.03.08.05.08.03.08.05.06.05.08.05.06.06.06.06.06.06.06.06.05.08.05.06.03.08.03.1.05.08.03.1.02.08.02h.11l.1.02.11-.02h.1l.1-.02.1-.02.08-.03.1-.02.08-.05.08-.03.08-.05.08-.05.1-.05.06-.05.08-.06v-.02l.08-.05.08-.06.08-.08h.05l-.16.54h1.97l.4-2.5.43-.03-.4,2.53h2.02l.4-2.53.43.03-.02.05-.05.11-.03.11-.03.13-.02.13-.02.13-.02.13v.24l.02.11.02.11.02.1.03.1.05.1.03.1.05.1.06.08.06.08.05.06.08.08.08.06.06.06.08.06.1.05.08.05.11.05.1.03.1.03.1.03.11.05.11.02.11.03.11.02.13.02h.24l.11.02.1-.02h.18l.09-.02h.1l.1-.02.1-.02.08-.03.11-.03.08-.02.1-.03.1-.03.1-.03.08-.03.1-.05.17-.08.1-.05.08-.05.08-.06.08-.05.06-.06.1-.06.06-.08.06-.06.06-.06.06-.08.05-.08.06-.08.05-.08.05-.1.05-.08h-1.96l-.02.03-.02.03-.02.03-.03.03-.02.03-.03.03-.02.02-.03.03-.03.02-.03.02-.03.02-.05.02-.03.02h-.24l-.03-.02-.03-.02-.03-.02h-.02l-.02-.02-.03-.03-.02-.03-.02-.02-.02-.02-.02-.03v-.02l-.02-.06-.02-.05v-.25l.02-.05v-.06h2.86v.18l.02.1.02.1.02.08.02.1.02.1.03.08.03.1.03.08.05.08.03.06.05.08.05.08.06.06.05.06.06.06.06.06.08.05.06.05.08.03.08.05.1.03.08.02.1.03.1.02.1.02h.19l.1-.02h.1l.1-.03.08-.03.11-.03.08-.02.1-.05.08-.05.1-.05.08-.05.08-.06.02-.02.02-.02.03-.03.03-.05.05-.03.02-.03.03-.03.03-.05.02-.05h.06l-.11.43-.02.08-.03.1-.05.08-.05.1-.03.06-.02.02-.05.06-.03.05-.03.03-.03.03-.03.03-.03.02-.05.03-.03.03-.05.02-.03.03-.03.02-.05.02-.03.03-.06.02-.03.02h-.05l-.05.02h-.05l-.05.02h-.29l-.1-.02-.1-.02-.08-.02-.1-.03-.1-.03-.1-.02-.08-.05-.1-.03-.08-.03-.08-.05-.08-.05-.08-.06-.06-.05-.06-.05-.67,1.35.19.08.11.03.1.03.1.03.11.03.1.03.11.03.11.03.1.02.11.02.11.02.11.02.1.02h.13l.1.02h.38l.13-.02h.13l.14-.02.14-.02.11-.02.14-.03.06-.02.06-.02.13-.03.13-.05.11-.03.13-.05.13-.05.1-.06.13-.06.1-.06.11-.06.1-.08.1-.06.1-.1.08-.1.1-.08.08-.1.08-.11.06-.11.06-.11.06-.11.05-.13.05-.13.03-.14.03-.14.05-.14.6-3.83h-1.94s0,0,0,0ZM322.4,27.16l-.02.05v.06l-.03.05-.02.05-.03.05-.06.08-.05.03-.03.03-.06.03-.05.03-.05.02-.05.02h-.22l-.06-.02-.05-.02-.05-.03-.05-.03-.08-.06-.03-.03-.03-.05-.03-.05-.02-.05-.02-.05-.03-.06v-.22l.02-.06.02-.06.03-.05.02-.05.03-.05.03-.03.05-.05.05-.03.03-.03.05-.03.06-.02.06-.02h.05l.06-.02.05.02h.08l.05.02.05.02.05.03.05.03.05.03.03.05.03.03.03.05.03.05.03.05.02.06v.06l.02.05v.13h0ZM337.75,26.99v.06l-.02.05v.06l-.03.05-.02.06-.02.06-.03.05-.05.05-.03.03-.05.05-.03.03-.05.05-.06.02-.05.03h-.06l-.03.02h-.24l-.03-.02h-.02l-.03-.02-.02-.02h-.02l-.03-.02-.02-.03h-.02l-.03-.05-.03-.03-.02-.05-.02-.05-.02-.05-.02-.05v-.17l.02-.05v-.06l.02-.05.03-.06.02-.05.03-.05.03-.05.03-.03.03-.05.05-.03.03-.05.06-.02.05-.03.05-.02.06-.02h.06l.05-.02.05.02h.06l.05.02.05.02.05.02.05.03.03.03.03.03.03.05.02.03.02.05.02.1.02.05v.06s-.01,0-.01,0ZM345.52,26.48v.11h-1.03l.02-.05.03-.11.02-.05.03-.06.03-.05.03-.05.03-.03.03-.03.05-.03.05-.03.05-.03.05-.03.05-.02h.24l.05.02.05.03.05.03.03.03.05.03.03.03.02.05.03.03.02.05.02.06v.1h0,0ZM350.34,26.91v.13l-.02.05-.02.06-.02.05-.03.05-.02.06-.03.05-.03.03-.03.05-.05.03-.05.03-.03.03-.05.02-.06.03-.05.02h-.06l-.06.02-.06-.02h-.06l-.05-.02-.05-.02-.06-.03-.03-.03-.03-.03-.03-.03-.03-.03-.02-.05-.03-.05v-.05l-.02-.06-.02-.05.02-.06.02-.06v-.06l.02-.05.03-.06.02-.05.03-.05.03-.05.03-.05.05-.05.05-.03.05-.03.1-.05.06-.03.05-.02h.19l.05.02.05.02.05.02.05.02.03.03.03.03.03.05.03.05.02.05.02.05.02.05v.1h0ZM312.16,23.14l.62-.16-.37.43.68.14-.81.16.38.49-.54-.19.02.03v.11l.02.19.02.06v.1h-.02l-.02-.02-.03-.02-.06-.06-.06-.08-.08-.08-.05-.08-.05-.05-.02-.02-.11.56v-.84h.03l.03-.02h.03l.03-.02.03-.02.03-.02.02-.02.03-.02.03-.03.03-.05.02-.03v-.03l.02-.03v-.13l-.02-.03v-.03l-.02-.03-.02-.03-.02-.03-.03-.02-.03-.02-.02-.02-.03-.02-.03-.02-.03-.02h-.03l-.03-.02h-.03v-.94l.16.6.43-.29-.11.61h0ZM311.61,22.13h.05l.02.08v.94h-.03l-.03.02h-.03l-.03.02-.03.02-.03.02-.03.02-.02.02-.03.02-.02.03-.02.03-.02.03v.03l-.02.03v.13l.02.03v.03l.02.03.02.03.02.02.03.03.02.02.03.02.03.02.03.02.03.02h.03l.03.02h.03v.84l-.05.25-.14-.81-.49.51.21-.6-.45.03.29-.32-.72-.16.7-.14-.41-.45.49.1-.18-.54.53.4.15-.8h0ZM358.67,25.16l.06.02h.06l.08.02.05.02.06.03.05.03.05.03.05.05.05.05.03.05.05.06.02.05.03.06.02.06v.29l-.02.05-.05.14-.05.05-.03.05-.05.05-.05.03-.05.05-.05.03-.06.03-.05.02-.08.02-.06.02h-.06v.13h.13l.03-.02h.05l.03-.02.05-.02.03-.02.03-.02.05-.02.02-.02.05-.02.03-.02.02-.03.03-.02.05-.03.02-.03.03-.03.02-.02.03-.03.02-.03.02-.03.02-.05.02-.03.02-.03.02-.03.02-.05.02-.05v-.08l.02-.03v-.09l-.02-.05v-.08l-.02-.03-.02-.05-.02-.03-.02-.03-.02-.03-.02-.05-.02-.03-.02-.03-.03-.03-.02-.03-.03-.02-.02-.03-.05-.02-.03-.03-.02-.02-.03-.03-.05-.02-.02-.02-.05-.03-.03-.02-.03-.02h-.05l-.03-.02h-.05l-.03-.02h-.13v.13h0ZM358.67,25.89v-.11h.08l.05-.02.03-.02.02-.02h.02l.02-.02v-.02l.02-.02v-.13h-.02v-.02l-.02-.02h-.02l-.02-.02-.03-.02h-.13v-.13h.13l.03.02h.06l.02.02.03.02.02.02.02.02.02.02.02.03.02.02v.03l.02.02.02.03v.06l-.02.03-.02.03v.02l-.02.02v.03l-.02.02-.02.02-.02.02-.02.02h-.02l-.03.02-.03.02h-.06l.27.41h-.16l-.24-.4h0ZM358.01,25.83v-.08l.03-.06v-.06l.03-.06.02-.05.03-.06.05-.05.03-.05.06-.05.05-.03.05-.03.05-.03.08-.02.05-.02h.08l.06-.02v-.13h-.13l-.03.02h-.05l-.03.02h-.05l-.03.02-.03.02-.03.03-.03.02-.05.02-.03.03-.03.02-.03.03-.02.02-.03.03-.03.02-.03.03-.02.03-.02.03-.02.03-.03.05-.02.03v.03l-.02.03-.02.05v.03l-.02.05v.25l.02.03v.05l.02.05.02.03v.03l.02.03.03.05.02.03.02.03.02.03.03.02.03.03.03.03.02.03.03.02.03.03.03.02.05.02.03.02.03.02.03.02.03.02.05.02.03.02h.05l.03.02h.13v-.13h-.06l-.08-.02-.05-.02-.08-.02-.05-.03-.05-.03-.05-.05-.06-.03-.03-.05-.05-.05-.03-.05-.05-.14v-.05l-.03-.08v-.06h0ZM358.67,25.36v.13h-.17v.29h.17v.11h-.17v.4h-.14v-.92h.32Z"/>
  </g>
  <g>
    <path class="cls-1" d="M255.41,25.38c0-1.94-.55-2.93-1.66-2.99-.44-.02-.87.05-1.29.21-.33.12-.56.24-.68.36v4.63c.71.44,1.34.65,1.88.62,1.16-.08,1.74-1.02,1.74-2.83h0ZM256.77,25.46c0,.99-.23,1.8-.7,2.45-.52.74-1.24,1.11-2.15,1.14-.69.02-1.4-.19-2.14-.65v4.21l-1.19-.42v-9.34c.19-.24.45-.44.75-.62.71-.41,1.56-.62,2.57-.63l.02.02c.92-.01,1.63.37,2.13,1.14.47.7.7,1.61.7,2.71h0Z"/>
    <path class="cls-1" d="M264.02,28.22c0,1.32-.13,2.24-.4,2.75-.27.51-.77.92-1.52,1.22-.61.24-1.26.37-1.97.39l-.2-.75c.72-.1,1.22-.19,1.51-.29.57-.19.97-.49,1.19-.89.17-.33.26-.95.26-1.87v-.31c-.81.37-1.66.55-2.55.55-.58,0-1.1-.18-1.54-.55-.5-.4-.75-.91-.75-1.53v-4.94l1.19-.41v4.97c0,.53.17.94.51,1.23s.79.42,1.33.41c.54-.01,1.13-.22,1.75-.63v-5.8h1.19v6.45h0Z"/>
    <path class="cls-1" d="M268.66,28.99c-.14.01-.27.02-.39.02-.67,0-1.19-.16-1.57-.48-.37-.32-.56-.76-.56-1.33v-4.67h-.81v-.75h.81v-1.98l1.19-.42v2.4h1.33v.75h-1.33v4.64c0,.45.12.76.36.94.21.15.53.24.97.26v.62h0Z"/>
    <path class="cls-1" d="M275.84,28.89h-1.19v-4.58c0-.47-.11-.87-.33-1.2-.25-.38-.6-.57-1.04-.57-.54,0-1.22.29-2.04.86v5.49h-1.19v-10.95l1.19-.37v4.99c.76-.55,1.59-.83,2.49-.83.63,0,1.14.21,1.53.63.39.42.59.95.59,1.58v4.95h0Z"/>
    <path class="cls-1" d="M282.15,25.2c0-.75-.14-1.36-.42-1.85-.33-.59-.86-.91-1.56-.94-1.3.08-1.95,1.01-1.95,2.79,0,.82.14,1.5.41,2.05.35.7.87,1.04,1.57,1.03,1.31-.01,1.96-1.04,1.96-3.09h0ZM283.45,25.2c0,1.06-.27,1.94-.81,2.65-.6.79-1.42,1.19-2.47,1.19s-1.85-.4-2.44-1.19c-.53-.7-.8-1.59-.8-2.65,0-1,.29-1.83.86-2.52.61-.72,1.4-1.09,2.39-1.09s1.79.36,2.4,1.09c.57.68.86,1.52.86,2.52h0Z"/>
    <path class="cls-1" d="M290.24,28.89h-1.19v-4.84c0-.53-.16-.94-.48-1.24-.32-.3-.75-.44-1.28-.43-.56.01-1.1.19-1.61.55v5.96h-1.19v-6.11c.68-.5,1.31-.82,1.88-.97.54-.14,1.02-.21,1.43-.21.28,0,.55.03.8.08.47.11.84.31,1.14.6.33.32.49.71.49,1.17v5.44h0Z"/>
    <path class="cls-10" d="M238.88,17.99c-.61,0-1.19.05-1.71.15-1.51.27-1.79.83-1.79,1.86v1.36h3.57v.45h-4.91c-1.04,0-1.95.62-2.23,1.81-.33,1.36-.34,2.21,0,3.63.25,1.06.86,1.81,1.9,1.81h1.23v-1.63c0-1.18,1.02-2.22,2.23-2.22h3.57c.99,0,1.79-.82,1.79-1.81v-3.4c0-.97-.82-1.69-1.79-1.86-.61-.1-1.25-.15-1.86-.15h0ZM236.95,19.08c.37,0,.67.31.67.68,0,.37-.3.68-.67.68-.37,0-.67-.3-.67-.68s.3-.68.67-.68Z"/>
    <path class="cls-15" d="M242.98,21.8v1.59c0,1.23-1.04,2.26-2.23,2.26h-3.57c-.98,0-1.79.84-1.79,1.81v3.4c0,.97.84,1.54,1.79,1.81,1.13.33,2.21.39,3.57,0,.9-.26,1.79-.78,1.79-1.81v-1.36h-3.57v-.45h5.35c1.04,0,1.42-.72,1.79-1.81.37-1.12.36-2.19,0-3.63-.26-1.03-.75-1.81-1.79-1.81h-1.34ZM240.97,30.41c.37,0,.67.3.67.68s-.3.68-.67.68-.67-.31-.67-.68.3-.68.67-.68Z"/>
    <path class="cls-12" d="M243.79,34.99c0,.51-2.14.93-4.79.93s-4.79-.42-4.79-.93h0c0-.51,2.14-.93,4.79-.93s4.79.42,4.79.93Z"/>
  </g>
</svg>