<?xml version="1.0" encoding="UTF-8"?>
<svg id="Capa_1" data-name="Capa 1" xmlns="http://www.w3.org/2000/svg" xmlns:xlink="http://www.w3.org/1999/xlink" viewBox="0 0 425.5 53">
  <defs>
    <style>
      .cls-1 {
        fill: url(#Degradado_sin_nombre_6);
      }

      .cls-2 {
        fill: url(#Degradado_sin_nombre_16);
      }

      .cls-3 {
        fill: #5b6591;
      }

      .cls-4 {
        fill: #fff;
      }

      .cls-5 {
        fill: none;
      }

      .cls-6 {
        fill: #29b5e8;
      }

      .cls-7 {
        fill: url(#Degradado_sin_nombre_5);
      }

      .cls-7, .cls-8, .cls-9, .cls-10, .cls-11 {
        fill-rule: evenodd;
      }

      .cls-8 {
        fill: #d9232e;
      }

      .cls-12 {
        fill: #ff3621;
      }

      .cls-13 {
        letter-spacing: .02em;
      }

      .cls-14 {
        fill: url(#Degradado_sin_nombre_2);
        opacity: .05;
      }

      .cls-15, .cls-9 {
        fill: #1f447e;
      }

      .cls-16 {
        fill: #7099a6;
      }

      .cls-17 {
        fill: #e8762c;
      }

      .cls-18 {
        letter-spacing: 0em;
      }

      .cls-19 {
        letter-spacing: 0em;
      }

      .cls-20 {
        letter-spacing: .02em;
      }

      .cls-21 {
        fill: #eb912c;
      }

      .cls-22 {
        font-family: SegoeUI-Bold, 'Segoe UI';
        font-size: 7.55px;
        font-weight: 700;
      }

      .cls-11 {
        fill: url(#Degradado_sin_nombre_3);
      }

      .cls-23 {
        fill: #59879b;
      }

      .cls-24 {
        fill: #c72035;
      }
    </style>
    <linearGradient id="Degradado_sin_nombre_2" data-name="Degradado sin nombre 2" x1="164.7" y1="-124.38" x2="399.05" y2="227.53" gradientUnits="userSpaceOnUse">
      <stop offset="0" stop-color="#fff"/>
      <stop offset="1" stop-color="#000"/>
    </linearGradient>
    <linearGradient id="Degradado_sin_nombre_16" data-name="Degradado sin nombre 16" x1="-2.17" y1="26.46" x2="103.71" y2="26.46" gradientUnits="userSpaceOnUse">
      <stop offset="0" stop-color="#00aeef"/>
      <stop offset=".36" stop-color="#049ddf"/>
      <stop offset="1" stop-color="#0f75bc"/>
    </linearGradient>
    <clipPath id="clippath">
      <rect class="cls-5" x="553.83" y="-767.66" width="960.22" height="540.01"/>
    </clipPath>
    <linearGradient id="Degradado_sin_nombre_6" data-name="Degradado sin nombre 6" x1="-1366.27" y1="-709.39" x2="-1366.27" y2="-709.43" gradientTransform="translate(299429.5 -446909) scale(219 -630)" gradientUnits="userSpaceOnUse">
      <stop offset="0" stop-color="#ebbb14"/>
      <stop offset="1" stop-color="#b25400"/>
    </linearGradient>
    <linearGradient id="Degradado_sin_nombre_5" data-name="Degradado sin nombre 5" x1="-1365.71" y1="-709.87" x2="-1365.71" y2="-709.91" gradientTransform="translate(299300.5 -335753) scale(219 -473)" gradientUnits="userSpaceOnUse">
      <stop offset="0" stop-color="#f9e583"/>
      <stop offset="1" stop-color="#de9800"/>
    </linearGradient>
    <linearGradient id="Degradado_sin_nombre_3" data-name="Degradado sin nombre 3" x1="-1365.15" y1="-710.83" x2="-1365.15" y2="-710.87" gradientTransform="translate(299173.5 -223889.02) scale(219 -315)" gradientUnits="userSpaceOnUse">
      <stop offset="0" stop-color="#f9e68b"/>
      <stop offset="1" stop-color="#f3cd32"/>
    </linearGradient>
  </defs>
  <rect class="cls-14" x="104.97" y="-.08" width="320.36" height="53.08"/>
  <rect class="cls-2" x="-.49" y="-.08" width="103.44" height="53.08"/>
  <g>
    <path class="cls-4" d="M16.81,24.05h-2.33l-.4-2.67h-2.83l-.4,2.67h-2.12l2.35-14.7h3.38l2.35,14.7ZM11.54,19.39h2.23l-1.11-7.43-1.11,7.43Z"/>
    <path class="cls-4" d="M19.94,13.4v10.65h-2.08v-14.7h2.9l2.37,8.8v-8.8h2.06v14.7h-2.37l-2.88-10.65Z"/>
    <path class="cls-4" d="M34.32,24.05h-2.33l-.4-2.67h-2.83l-.4,2.67h-2.12l2.35-14.7h3.38l2.35,14.7ZM29.05,19.39h2.23l-1.11-7.43-1.11,7.43Z"/>
    <path class="cls-4" d="M35.39,9.35h2.31v12.6h3.8v2.1h-6.11v-14.7Z"/>
    <path class="cls-4" d="M46.14,6.24l-2.14,2.33h-1.55l1.43-2.33h2.27ZM42.51,9.35h2.31v14.7h-2.31v-14.7Z"/>
    <path class="cls-4" d="M45.83,9.35h7.14v2.1h-2.41v12.6h-2.31v-12.6h-2.41v-2.1Z"/>
    <path class="cls-4" d="M53.98,9.35h2.31v14.7h-2.31v-14.7Z"/>
    <path class="cls-4" d="M64.67,18.57v1.95c0,2.35-1.18,3.7-3.44,3.7s-3.44-1.34-3.44-3.7v-7.64c0-2.35,1.18-3.7,3.44-3.7s3.44,1.34,3.44,3.7v1.43h-2.18v-1.58c0-1.05-.46-1.45-1.2-1.45s-1.2.4-1.2,1.45v7.94c0,1.05.46,1.43,1.2,1.43s1.2-.38,1.2-1.43v-2.1h2.18Z"/>
    <path class="cls-4" d="M73.55,24.05h-2.33l-.4-2.67h-2.83l-.4,2.67h-2.12l2.35-14.7h3.38l2.35,14.7ZM68.28,19.39h2.23l-1.11-7.43-1.11,7.43Z"/>
    <path class="cls-4" d="M10,43.1h-.88l3.21-14.72h1.41l3.28,14.72h-.97l-.73-3.25h-4.58l-.74,3.25ZM15.17,39l-2.16-9.51-2.12,9.51h4.28Z"/>
    <path class="cls-4" d="M21.72,41.98l2.98-13.59h.9l-3.19,14.7h-1.43l-3.23-14.7h.99l2.98,13.59Z"/>
    <path class="cls-4" d="M27.22,43.1h-.88l3.21-14.72h1.41l3.28,14.72h-.97l-.73-3.25h-4.58l-.74,3.25ZM32.39,39l-2.16-9.51-2.12,9.51h4.28Z"/>
    <path class="cls-4" d="M35.71,43.1v-14.7h1.26l4.41,12.41v-12.41h.88v14.7h-1.07l-4.6-13.1v13.1h-.88Z"/>
    <path class="cls-4" d="M43.79,43.1v-.88l5.69-12.94h-5.42v-.88h6.43v.9l-5.69,12.92h5.61v.88h-6.62Z"/>
    <path class="cls-4" d="M52.74,43.1h-.88l3.21-14.72h1.41l3.28,14.72h-.97l-.73-3.25h-4.58l-.74,3.25ZM57.9,39l-2.16-9.51-2.12,9.51h4.28Z"/>
    <path class="cls-4" d="M66.9,29.37c.54.65.81,1.54.81,2.68v7.39c0,1.13-.27,2.03-.81,2.68s-1.35.98-2.45.98h-3.23v-14.7h3.23c1.09,0,1.91.33,2.45.98ZM66.18,41.49c.38-.48.57-1.15.57-2v-7.48c0-.84-.19-1.5-.57-2-.38-.49-.96-.74-1.74-.74h-2.25v12.94h2.25c.78,0,1.37-.24,1.74-.72Z"/>
    <path class="cls-4" d="M69.96,43.1h-.88l3.21-14.72h1.41l3.28,14.72h-.97l-.73-3.25h-4.58l-.74,3.25ZM75.12,39l-2.16-9.51-2.12,9.51h4.28Z"/>
  </g>
  <g>
    <path class="cls-8" d="M122.23,24.41h2.19l.82,3.06h.05l.02-.11.03-.19.02-.1.03-.1.02-.1.02-.1.03-.1.66-2.27h2.19l.96,5.81h-2.06l-.29-3.19h-.05l-.03.14-.03.14-.02.06-.02.08-.02.08-.03.06-.85,2.61h-1.25l-.77-2.47-.05-.18-.02-.1-.02-.1-.03-.18-.02-.18h-.08v.18l-.02.08v.1l-.02.08v.18l-.02.08-.24,2.5h-2.08l.96-5.81ZM133.21,28.11l.02-.08.02-.06.02-.05.03-.05.06-.1.08-.1.05-.03.05-.02.06-.03.06-.02.05-.02h.24l.06.02h.05l.05.02.05.02.05.02.05.03.05.02.03.03.05.03.05.03.08.06.08.06v-1.66l-.14-.05-.16-.03-.16-.05-.16-.02-.16-.03-.16-.02-.16-.02h-.27l-.11.02-.11.02-.11.02-.1.02-.11.03-.1.03-.11.03-.08.05-.1.05-.1.05-.1.06-.06.06-.08.05-.08.08-.08.06-.08.08-.06.08-.11.16-.05.08-.05.1-.05.1-.05.1-.03.1-.03.08v-1.39h-2.02v4.1h2.02v-1.33l.03.11.05.1.05.1.05.1.05.08.06.1.05.08.08.08.06.06.08.06.08.08.08.06.08.05.1.05.1.05.1.05.1.05.11.03.1.03.11.03.11.02.11.03h.11l.13.02h.11l.13.02.06-.02h.21l.13-.02.13-.03.13-.03.13-.03.11-.03.13-.05.08-1.67-.08.05-.1.06-.1.05-.08.05-.06.03-.05.02-.05.02-.05.02h-.05l-.06.02h-.22l-.06-.02-.05-.03-.05-.02-.05-.03-.05-.03-.05-.05-.03-.03-.03-.05-.05-.05-.02-.05-.02-.06-.02-.05-.02-.06v-.11h0ZM173.42,26.06l.21,1.6.02.62h.05l.21-.62.7-1.6h2.13l-3.59,5.78h-2.13l1.41-2.1-1.18-3.68h2.18Z"/>
    <path class="cls-8" d="M169.42,26.06l-.05.59h-.05l-.05-.08-.03-.08-.05-.06-.05-.06-.06-.06-.06-.05-.06-.06-.06-.05-.06-.03-.08-.03-.08-.03-.05-.02-.03-.02-.08-.02-.1-.02h-.1l-.1-.02-.11.02h-.1l-.1.02-.11.02-.1.03-.1.03-.1.03-.1.05-.08.05-.08.06-.1.05-.08.06-.08.06-.08.06-.06.08-.08.06-.06.08-.06.08-.06.1-.05.08-.06.08-.06.1-.05.1-.03.08-.05.1-.03.1-.05.1-.03.1v-.02l-.02-.13-.02-.11-.03-.11-.08-.21-.05-.1-.05-.1-.06-.1-.06-.08-.08-.08-.06-.08-.1-.08-.08-.06-.1-.06-.1-.06-.1-.05-.11-.05-.11-.05-.1-.05-.13-.03-.11-.03-.13-.02-.13-.02-.13-.02-.14-.02h-.3l-.08.02-.11.02h-.13l-.11.03-.11.02-.13.05-.11.03-.11.03-.11.05-.11.05-.1.05-.11.06-.1.06-.1.06-.08.06-.11.08-.08.08-.08.08-.08.08-.08.1-.05.06.14-.96-.67.03.22-1.36h-2.03l-.22,1.36-.43-.02.02-.03h-1.98l-.02.48h-.03l-.05-.06-.05-.08-.06-.05-.05-.06-.06-.05-.05-.05-.08-.05-.06-.03-.06-.03-.08-.03-.08-.03h-.05l-.03-.02-.1-.02h-.08l-.1-.02h-.19l-.11.02-.1.02-.11.02-.1.03-.1.03-.1.03-.1.05-.1.05-.08.06-.1.05-.06.06-.08.06-.08.06-.06.08-.08.06-.08.08-.05.1-.06.08-.06.08-.05.08-.06.1-.03.1-.06.1-.03.1-.05.1-.02.05.26-1.58-.13-.02-.11.02h-.11l-.11.02-.1.02-.1.02-.1.03-.1.03-.03.02-.05.02-.05.03-.03.02-.05.03-.03.02-.05.03-.05.03-.08.06-.16.18-.08.1h-.05l.13-.56h-2.02v.02l-.69.03.22-1.38h-2.03l-.22,1.38-.48-.03-.19,1.22v-.02l-.03-.05-.05-.05-.03-.06-.05-.05-.05-.05-.03-.05-.07-.05-.06-.03-.05-.05-.05-.03-.08-.03-.05-.05-.06-.03-.08-.03-.06-.03-.08-.02-.08-.03-.06-.02-.1-.03-.08-.02-.46-.11-.06-.02-.06-.02h-.03l-.03-.02h-.03l-.03-.02-.03-.02-.03-.02-.02-.03-.02-.02-.02-.03-.02-.02v-.08l.02-.05.02-.03.02-.05.02-.03.03-.02.05-.03.03-.02.03-.03h.03l.03-.02.05-.02.05-.02.08-.02h.16l.08.02.08.02.08.02.08.02.08.02.06.03.08.02.08.03.06.03.06.05.08.03.05.05.06.05.08.03.05.05.82-1.49-.08-.06-.11-.05-.1-.06-.11-.05-.1-.05-.11-.05-.11-.03-.11-.03-.11-.03-.11-.02-.11-.03-.11-.02-.13-.02-.11-.02h-.5l-.13.02-.11.03-.13.02-.11.02-.13.03-.11.03-.13.03-.11.05-.11.05-.11.05-.11.06-.11.05-.1.06-.11.06-.1.06-.1.08-.1.08-.08.08-.1.1-.14.18-.08.1-.05.11-.08.1-.05.11-.05.11-.05.11-.06.26-.02.11-.02.1-.02.08v.14l.02.08v.08l.02.06.02.06.02.08.03.05.03.06.03.06.03.05.03.06.05.05.05.05.08.08.05.05.06.03.06.05.05.03.06.03.06.03.06.03.06.02.08.03.06.02.06.03.08.02.06.02.1.02.42.08.06.02.08.02h.03l.05.02.03.02.03.02.03.02.03.02.02.03.03.02.02.03v.18l-.02.02-.02.03-.03.03-.02.03-.03.03-.05.03-.03.03-.05.02-.05.02-.05.02-.05.02-.03.02h-.1l-.05.02h-.13l-.1-.02-.1-.02-.08-.02-.08-.02-.08-.03-.08-.03-.1-.03-.06-.05-.08-.03-.08-.05-.06-.05-.06-.05-.08-.05-.13-.1-.1-.1-.02.03v-.13l-.02-.13-.02-.13-.02-.13-.03-.11-.03-.11-.05-.11-.05-.1-.05-.1-.05-.11-.06-.08-.06-.08-.06-.1-.1-.08-.06-.08-.1-.06-.08-.08-.08-.05-.21-.11-.11-.05-.1-.05-.11-.05-.1-.03-.13-.03-.11-.03-.11-.02-.13-.03-.13-.02h-.11l-.13-.02h-.26l-.13.02h-.13l-.13.02-.11.03-.13.02-.11.03-.11.03-.11.03-.1.05-.13.05-.1.05-.1.05-.1.06-.08.05-.1.08-.08.06-.08.08-.08.08-.06.1-.06.05v-.93h-.24l-.1.02h-.11l-.1.02-.1.02-.1.03-.08.03-.05.02-.03.03-.05.02-.03.02-.05.03-.03.03-.03.03-.03.03-.14.13-.06.1-.06.1h-.06l.06-.54h-2.02v4.1h2.02v-1.76l.02-.08.03-.08v-.03l.02-.03.02-.05.02-.03.03-.02.02-.03.02-.03.03-.03.03-.03.02-.02.03-.03.03-.02.03-.02.03-.02.03-.02.03-.02.05-.02.03-.02h.03l.05-.02h.32l.05.02h.03l.05.02v.1l-.02.13v.26l.02.13.03.22.03.11.03.1.03.11.06.1.05.1.05.1.06.1.08.06.06.08.08.08.08.08.1.06.08.06.1.06.1.06.21.1.1.03.11.05.11.03.11.03.11.03.11.02.13.03h.11l.13.02h.11l.13.02h.08l.03-.02h.13l.11-.02h.13l.11-.03.11-.02.11-.03.11-.03.11-.03.11-.05.11-.03.1-.05.1-.05.1-.06.08-.05.1.05.13.05.11.06.14.05.13.05.13.03.14.05.14.03.13.03.14.03.16.02.13.03.14.02.14.02h.53l.13-.02.11-.02.11-.02.13-.02.11-.03.13-.03.11-.05.11-.03.13-.03.1-.05.11-.05.11-.05.11-.06.1-.06.1-.08.1-.06.1-.06.08-.1.08-.08.08-.08.08-.08.08-.11.06-.1.05-.1.06-.11.05-.11.05-.13.03-.11.03-.11.02-.14.02-.08v-.1l.02-.08v-.08l-.02-.08v-.14s.32-.03.32-.03l-.4,2.55h2.03l.4-2.55.69.03-.4,2.53h2l.26-1.57.02-.1.02-.08.05-.08.03-.08.02-.05.02-.03.02-.03.03-.03.02-.03.03-.03.03-.03.02-.02.03-.03.03-.03.03-.02.03-.02.03-.03.05-.02.03-.02h.03l.05-.02.03-.02.05-.02h.1l.03-.02h.19l.03.02h.05l.05.02h.03l.03.02.03.02.06.03.06.03.06.05.03.02-.02.03-.02.1-.02.1v.1l-.02.1v.18l.02.11.02.18.02.1.02.08.02.1.03.1.03.08.03.08.05.08.03.08.05.06.05.08.05.06.06.06.06.06.06.06.06.05.08.05.06.03.08.03.1.05.08.03.1.02.08.02h.11l.1.02.11-.02h.1l.1-.02.1-.02.08-.03.1-.02.08-.05.08-.03.08-.05.08-.05.1-.05.06-.05.08-.06v-.02l.08-.05.08-.06.08-.08h.05l-.16.54h1.99l.4-2.51.43-.03-.4,2.55h2.03l.4-2.55.43.03-.02.05-.05.11-.03.11-.03.13-.02.13-.02.13-.02.13v.24l.02.11.02.11.02.1.03.1.05.1.03.1.05.1.06.08.06.08.05.06.08.08.08.06.06.06.08.06.1.05.08.05.11.05.1.03.1.03.1.03.11.05.11.02.11.03.11.02.13.02h.24l.11.02.1-.02h.18l.1-.02h.1l.1-.02.1-.02.08-.03.11-.03.08-.02.1-.03.1-.03.1-.03.08-.03.1-.05.18-.08.1-.05.08-.05.08-.06.08-.05.06-.06.1-.06.06-.08.06-.06.06-.06.06-.08.05-.08.06-.08.05-.08.05-.1.05-.08h-1.97l-.02.03-.02.03-.02.03-.03.03-.02.03-.03.03-.02.02-.03.03-.03.02-.03.02-.03.02-.05.02-.03.02h-.24l-.03-.02-.03-.02-.03-.02h-.02l-.02-.02-.03-.03-.02-.03-.02-.02-.02-.02-.02-.03v-.02l-.02-.06-.02-.05v-.26l.02-.05v-.06h2.88v.18l.02.1.02.1.02.08.02.1.02.1.03.08.03.1.03.08.05.08.03.06.05.08.05.08.06.06.05.06.06.06.06.06.08.05.06.05.08.03.08.05.1.03.08.02.1.03.1.02.1.02h.19l.1-.02h.1l.1-.03.08-.03.11-.03.08-.02.1-.05.08-.05.1-.05.08-.05.08-.06.02-.02.02-.02.03-.03.03-.05.05-.03.02-.03.03-.03.03-.05.02-.05h.06l-.11.43-.02.08-.03.1-.05.08-.05.1-.03.06-.02.02-.05.06-.03.05-.03.03-.03.03-.03.03-.03.02-.05.03-.03.03-.05.02-.03.03-.03.02-.05.02-.03.03-.06.02-.03.02h-.05l-.05.02h-.05l-.05.02h-.29l-.1-.02-.1-.02-.08-.02-.1-.03-.1-.03-.1-.02-.08-.05-.1-.03-.08-.03-.08-.05-.08-.05-.08-.06-.06-.05-.06-.05-.67,1.36.19.08.11.03.1.03.1.03.11.03.1.03.11.03.11.03.1.02.11.02.11.02.11.02.1.02h.13l.1.02h.38l.13-.02h.13l.14-.02.14-.02.11-.02.14-.03.06-.02.06-.02.13-.03.13-.05.11-.03.13-.05.13-.05.1-.06.13-.06.1-.06.11-.06.1-.08.1-.06.1-.1.08-.1.1-.08.08-.1.08-.11.06-.11.06-.11.06-.11.05-.13.05-.13.03-.14.03-.14.05-.14.61-3.86h-1.95s0,0,0,0ZM141.05,28.25l-.02.05v.06l-.03.05-.02.05-.03.05-.06.08-.05.03-.03.03-.06.03-.05.03-.05.02-.05.02h-.22l-.06-.02-.05-.02-.05-.03-.05-.03-.08-.06-.03-.03-.03-.05-.03-.05-.02-.05-.02-.05-.03-.06v-.22l.02-.06.02-.06.03-.05.02-.05.03-.05.03-.03.05-.05.05-.03.03-.03.05-.03.06-.02.06-.02h.05l.06-.02.05.02h.08l.05.02.05.02.05.03.05.03.05.03.03.05.03.03.03.05.03.05.03.05.02.06v.06l.02.05v.13h0ZM156.5,28.08v.06l-.02.05v.06l-.03.05-.02.06-.02.06-.03.05-.05.05-.03.03-.05.05-.03.03-.05.05-.06.02-.05.03h-.06l-.03.02h-.24l-.03-.02h-.02l-.03-.02-.02-.02h-.02l-.03-.02-.02-.03h-.02l-.03-.05-.03-.03-.02-.05-.02-.05-.02-.05-.02-.05v-.18l.02-.05v-.06l.02-.05.03-.06.02-.05.03-.05.03-.05.03-.03.03-.05.05-.03.03-.05.06-.02.05-.03.05-.02.06-.02h.06l.05-.02.05.02h.06l.05.02.05.02.05.02.05.03.03.03.03.03.03.05.02.03.02.05.02.1.02.05-.02.06h0ZM164.31,27.57v.11h-1.04l.02-.05.03-.11.02-.05.03-.06.03-.05.03-.05.03-.03.03-.03.05-.03.05-.03.05-.03.05-.03.05-.02h.24l.05.02.05.03.05.03.03.03.05.03.03.03.02.05.03.03.02.05.02.06v.1h0,0ZM169.16,28v.13l-.02.05-.02.06-.02.05-.03.05-.02.06-.03.05-.03.03-.03.05-.05.03-.05.03-.03.03-.05.02-.06.03-.05.02h-.06l-.06.02-.06-.02h-.06l-.05-.02-.05-.02-.06-.03-.03-.03-.03-.03-.03-.03-.03-.03-.02-.05-.03-.05v-.05l-.02-.06-.02-.05.02-.06.02-.06v-.06l.02-.05.03-.06.02-.05.03-.05.03-.05.03-.05.05-.05.05-.03.05-.03.1-.05.06-.03.05-.02h.19l.05.02.05.02.05.02.05.02.03.03.03.03.03.05.03.05.02.05.02.05.02.05v.1h0ZM130.74,24.2l.62-.16-.37.43.69.14-.82.16.38.5-.54-.19.02.03v.11l.02.19.02.06v.1h-.02l-.02-.02-.03-.02-.06-.06-.06-.08-.08-.08-.05-.08-.05-.05-.02-.02-.11.56v-.85h.03l.03-.02h.03l.03-.02.03-.02.03-.02.02-.02.03-.02.03-.03.03-.05.02-.03v-.03l.02-.03v-.13l-.02-.03v-.03l-.02-.03-.02-.03-.02-.03-.03-.02-.03-.02-.02-.02-.03-.02-.03-.02-.03-.02h-.03l-.03-.02h-.03v-.94l.16.61.43-.29-.11.61h0ZM130.19,23.19h.05l.02.08v.94h-.03l-.03.02h-.03l-.03.02-.03.02-.03.02-.03.02-.02.02-.03.02-.02.03-.02.03-.02.03v.03l-.02.03v.13l.02.03v.03l.02.03.02.03.02.02.03.03.02.02.03.02.03.02.03.02.03.02h.03l.03.02h.03v.85l-.05.26-.14-.82-.5.51.21-.61-.45.03.29-.32-.72-.16.7-.14-.42-.45.5.1-.18-.54.53.4.15-.8h0ZM177.55,26.24l.06.02h.06l.08.02.05.02.06.03.05.03.05.03.05.05.05.05.03.05.05.06.02.05.03.06.02.06v.29l-.02.05-.05.14-.05.05-.03.05-.05.05-.05.03-.05.05-.05.03-.06.03-.05.02-.08.02-.06.02h-.06v.13h.13l.03-.02h.05l.03-.02.05-.02.03-.02.03-.02.05-.02.02-.02.05-.02.03-.02.02-.03.03-.02.05-.03.02-.03.03-.03.02-.02.03-.03.02-.03.02-.03.02-.05.02-.03.02-.03.02-.03.02-.05.02-.05v-.08l.02-.03v-.09l-.02-.05v-.08l-.02-.03-.02-.05-.02-.03-.02-.03-.02-.03-.02-.05-.02-.03-.02-.03-.03-.03-.02-.03-.03-.02-.02-.03-.05-.02-.03-.03-.02-.02-.03-.03-.05-.02-.02-.02-.05-.03-.03-.02-.03-.02h-.05l-.03-.02h-.05l-.03-.02h-.13v.13h0ZM177.55,26.97v-.11h.08l.05-.02.03-.02.02-.02h.02l.02-.02v-.02l.02-.02v-.13h-.02v-.02l-.02-.02h-.02l-.02-.02-.03-.02h-.13v-.13h.13l.03.02h.06l.02.02.03.02.02.02.02.02.02.02.02.03.02.02v.03l.02.02.02.03v.06l-.02.03-.02.03v.02l-.02.02v.03l-.02.02-.02.02-.02.02-.02.02h-.02l-.03.02-.03.02h-.06l.27.42h-.16l-.24-.4h0ZM176.88,26.91v-.08l.03-.06v-.06l.03-.06.02-.05.03-.06.05-.05.03-.05.06-.05.05-.03.05-.03.05-.03.08-.02.05-.02h.08l.06-.02v-.13h-.13l-.03.02h-.05l-.03.02h-.05l-.03.02-.03.02-.03.03-.03.02-.05.02-.03.03-.03.02-.03.03-.02.02-.03.03-.03.02-.03.03-.02.03-.02.03-.02.03-.03.05-.02.03v.03l-.02.03-.02.05v.03l-.02.05v.26l.02.03v.05l.02.05.02.03v.03l.02.03.03.05.02.03.02.03.02.03.03.02.03.03.03.03.02.03.03.02.03.03.03.02.05.02.03.02.03.02.03.02.03.02.05.02.03.02h.05l.03.02h.13v-.13h-.06l-.08-.02-.05-.02-.08-.02-.05-.03-.05-.03-.05-.05-.06-.03-.03-.05-.05-.05-.03-.05-.05-.14v-.05l-.03-.08v-.06h0ZM177.55,26.44v.13h-.18v.29h.18v.11h-.18v.4h-.14v-.93h.32Z"/>
  </g>
  <g>
    <path class="cls-16" d="M247.97,22.2v.56h-1v.36h1v1.12h.39v-1.12h1.03v-.36h-1.03v-1.12h-.39v.56Z"/>
    <path class="cls-21" d="M244.69,23.62v.81h-1.52v.51h1.52v1.65h.56v-1.65h1.54v-.51h-1.54v-1.63h-.56v.81Z"/>
    <path class="cls-23" d="M251.06,23.62v.81h-1.52v.54h1.52v1.63h.59v-1.63h1.52v-.54h-1.52v-1.63h-.59v.81Z"/>
    <path class="cls-9" d="M278.76,24.07h.78v6.93h-.78v-6.93ZM272.29,24.8h.8v.96c0,.9,0,.96.04.95.03,0,.14-.04.26-.08.14-.04.32-.06.5-.08.21,0,.33,0,.49.03.13.03.29.08.43.15.12.06.28.16.36.23.07.06.19.2.26.3.07.1.15.26.19.36.04.1.09.28.11.4.03.16.03.31.03.53,0,.17-.03.37-.05.46-.02.09-.08.23-.12.33s-.13.24-.19.32c-.06.08-.18.2-.27.26-.08.07-.24.16-.34.2-.1.05-.27.11-.37.13-.16.04-.26.05-.71.05-.43,0-.57,0-.73-.04-.11-.03-.3-.07-.42-.1s-.21-.07-.22-.08-.02-1.2-.03-2.65v-2.63ZM273.28,27.39l-.18.06v2.02c.38.1.47.11.72.1.25,0,.33-.02.45-.06.08-.03.19-.09.24-.13.05-.04.13-.12.17-.17s.1-.16.13-.24c.03-.08.07-.23.08-.34.02-.15.02-.25,0-.4-.02-.14-.06-.26-.11-.38-.05-.1-.13-.22-.18-.27s-.14-.12-.2-.16c-.06-.04-.18-.08-.26-.1-.08-.02-.22-.04-.32-.04s-.22.01-.27.03c-.05.01-.18.05-.28.09h0ZM259.33,25.04h.78v2.21h2.1v.73h-2.1v2.38h-.78v-2.38h-2.1v-.73h2.1v-2.21Z"/>
    <path class="cls-17" d="M247.83,26.39v.91h-1.69v.68h1.69v1.82h.68v-1.82h1.69v-.68h-1.69v-1.82h-.68v.91Z"/>
    <path class="cls-3" d="M252.79,26.85v.57h-1.03v.46h1.03v1.14h.51v-1.14h1.03v-.46h-1.03v-1.14h-.51v.57Z"/>
    <path class="cls-16" d="M243,26.9v.55h-1v.39h1v1.09h.39v-1.09l1.03-.04v-.35h-1.03v-1.09h-.39v.55Z"/>
    <path class="cls-9" d="M267.73,26.52h.78v1.44c0,.79,0,1.6-.04,2.14l-.2.06c-.11.03-.33.08-.5.11-.26.04-.37.05-.75.04-.34,0-.48-.02-.64-.06-.11-.03-.3-.1-.42-.16-.13-.06-.28-.16-.37-.24-.08-.07-.19-.2-.25-.29-.06-.09-.13-.22-.16-.3s-.08-.24-.1-.35c-.03-.16-.04-.29-.03-.57.01-.28.03-.41.07-.55.03-.1.1-.26.15-.36s.16-.25.23-.34c.08-.09.21-.2.29-.26.08-.05.21-.12.29-.16.08-.03.23-.08.32-.09s.28-.03.4-.03.3.02.4.04c.09.02.24.07.33.11.09.04.16.07.16.07,0,0,0-.05,0-.12v-.12ZM266.39,27.42c-.07.04-.16.11-.21.17s-.12.16-.16.23c-.03.07-.08.19-.1.27-.02.08-.04.23-.04.33s.01.25.03.33c.02.08.06.21.1.29.05.1.12.19.21.28.09.08.2.16.29.19.11.05.21.06.44.07.17,0,.38,0,.49-.02.11-.02.21-.04.22-.05.02-.01.03-.33.04-1.01l.02-.99c-.2-.11-.31-.16-.38-.18-.07-.03-.22-.05-.34-.05-.15,0-.26,0-.36.03-.07.02-.19.07-.25.1ZM291.93,26.52h.78v1.22c0,.67,0,1.48-.04,2.36l-.2.06c-.11.03-.32.08-.48.11-.2.04-.4.05-.66.05-.21,0-.45-.01-.53-.03-.09-.02-.26-.06-.38-.1-.13-.04-.3-.12-.4-.19-.1-.07-.24-.18-.32-.26-.07-.08-.17-.21-.22-.3s-.11-.25-.15-.35c-.05-.15-.06-.27-.07-.55,0-.22,0-.42.02-.52.02-.09.06-.25.09-.35.03-.1.11-.26.17-.35.06-.09.18-.24.27-.33.1-.1.24-.19.35-.25.1-.05.25-.11.33-.13.08-.02.28-.05.44-.05.22,0,.34,0,.48.03.1.02.26.07.34.11.09.04.16.07.16.07,0,0,0-.05,0-.12v-.12ZM290.6,27.42c-.07.04-.16.11-.21.17s-.12.16-.16.23c-.03.07-.08.19-.1.27-.02.08-.04.24-.04.36s.02.28.04.36c.02.08.06.2.09.26s.1.16.17.22c.06.07.16.14.22.17.06.03.17.08.25.1.08.03.22.04.39.04.14,0,.33-.01.43-.03.1-.01.19-.03.21-.04.02-.01.03-.31.04-1.01v-1c-.24-.13-.38-.18-.46-.2-.08-.02-.22-.04-.31-.03-.09,0-.22.02-.29.04-.08.02-.19.07-.26.1h0ZM284.59,26.56c.14,0,.32.03.4.05.08.02.21.07.29.11.08.04.21.12.29.18.08.06.2.18.26.25s.14.22.19.31.1.26.13.36.06.32.08.77h-2.7l.02.09c0,.05.04.16.06.24.03.08.09.21.14.28s.13.16.16.18c.04.03.12.08.18.11.06.03.16.07.23.09s.25.03.42.03.39-.02.52-.04.29-.06.38-.09.2-.07.25-.1.1-.05.12-.05c.02,0,.03.14.03.73l-.13.06c-.08.03-.23.09-.35.12-.12.03-.34.07-.48.09-.2.02-.34.02-.55,0-.16-.02-.38-.06-.5-.09s-.3-.1-.39-.15c-.09-.05-.25-.17-.35-.26-.1-.09-.23-.25-.29-.34s-.13-.25-.17-.35-.08-.28-.09-.39c-.02-.13-.02-.3-.01-.44,0-.13.04-.32.06-.43s.09-.28.15-.39.15-.26.21-.34c.07-.08.2-.2.29-.27s.25-.16.35-.2c.12-.05.24-.08.37-.11.13-.02.28-.03.45-.03h0ZM284.06,27.43c-.07.04-.18.13-.23.19-.05.06-.12.16-.16.23s-.06.13-.06.14c0,.02.31.03.88.03h.88c-.03-.18-.05-.27-.07-.32-.02-.05-.08-.13-.13-.19-.06-.07-.14-.12-.23-.16-.08-.03-.21-.05-.31-.06-.11,0-.22,0-.31.03-.07.02-.19.07-.26.12h0ZM295.75,26.62h.81v1.22c0,1.15,0,1.23.05,1.38.03.09.08.2.13.25.04.05.13.12.2.15.07.03.19.07.28.08.09.01.23.01.32,0,.09-.01.21-.05.28-.08.07-.03.16-.1.2-.15.05-.05.1-.16.13-.25.05-.15.05-.23.05-2.6h.8v1.32c0,1.25,0,1.32-.05,1.46-.03.08-.08.2-.13.27-.04.07-.12.16-.17.21-.05.05-.16.13-.24.18s-.23.11-.34.15c-.12.04-.29.07-.44.08-.14,0-.36,0-.49,0-.15,0-.32-.04-.44-.08-.12-.04-.23-.09-.34-.15-.08-.05-.19-.13-.24-.18-.05-.05-.13-.14-.17-.21-.04-.07-.1-.19-.13-.27-.05-.14-.05-.22-.06-1.46v-1.32Z"/>
    <path class="cls-24" d="M244.69,29.48v.81h-1.52v.54h1.52v1.63h.59v-1.63h1.52v-.54h-1.52v-1.63h-.59v.81Z"/>
    <path class="cls-15" d="M251.06,29.48v.81h-1.52v.51h1.52v1.65h.59v-1.65h1.52v-.51h-1.52v-1.63h-.59v.81Z"/>
    <path class="cls-3" d="M247.92,31.55v.57h-1.03v.46h1.03v1.14h.51v-1.14h1.03v-.46h-1.03v-1.14h-.51v.57Z"/>
  </g>
  <g>
    <text class="cls-22" transform="translate(194.51 44.07)"><tspan class="cls-18" x="0" y="0">P</tspan><tspan class="cls-19" x="4.69" y="0">ow</tspan><tspan class="cls-13" x="15.46" y="0">e</tspan><tspan x="19.72" y="0">r </tspan><tspan class="cls-20" x="24.81" y="0">B</tspan><tspan x="29.79" y="0">i</tspan></text>
    <g id="PBI-Logo">
      <g id="Group">
        <rect id="Rectangle" class="cls-1" x="210.94" y="8.04" width="9.08" height="26.11" rx="1.08" ry="1.08"/>
        <g id="Combined-Shape">
          <path id="path-3" class="cls-10" d="M214.67,33.07v1.08h-8c-.6,0-1.08-.48-1.08-1.08V15.62c0-.6.48-1.08,1.08-1.08h6.92c.6,0,1.08.48,1.08,1.08v17.45Z"/>
          <path id="path-3-2" data-name="path-3" class="cls-7" d="M214.67,33.07v1.08h-8c-.6,0-1.08-.48-1.08-1.08V15.62c0-.6.48-1.08,1.08-1.08h6.92c.6,0,1.08.48,1.08,1.08v17.45Z"/>
        </g>
        <path id="Combined-Shape-2" data-name="Combined-Shape" class="cls-11" d="M209.4,33.07v1.08h-8c-.6,0-1.08-.48-1.08-1.08v-10.9c0-.6.48-1.08,1.08-1.08h6.92c.6,0,1.08.48,1.08,1.08v10.9Z"/>
      </g>
    </g>
  </g>
  <g>
    <path d="M320.69,37.56v-2.08c0-.05-.03-.09-.09-.09h-.68v-.81h.68c.05,0,.09-.03.09-.09v-1.31h.97v1.31c0,.05.03.09.09.09h.96v.81h-.96c-.05,0-.09.03-.09.09v1.84c0,.87.31.94.7.94.14,0,.36-.02.49-.03v.85c-.16.02-.43.05-.74.05-.38-.02-1.42-.02-1.42-1.57ZM347.1,38.07l.79-.42c.18.42.52.69.92.69.31,0,.65-.13.65-.51,0-.25-.16-.4-.54-.53l-.54-.18c-.76-.23-1.13-.67-1.13-1.28,0-.78.65-1.36,1.53-1.36.7,0,1.3.38,1.59.98l-.79.44c-.18-.38-.46-.59-.81-.59s-.57.18-.57.45c0,.23.18.42.54.53l.54.18c.79.25,1.17.69,1.17,1.28,0,.94-.81,1.43-1.62,1.43-.81-.02-1.46-.44-1.72-1.11ZM344.12,37.25s-.03.03-.03.05v1.74h-.99v-6.42h.99v3.51s.02.08.05.08c.03.02.08,0,.09-.02l1.6-1.63h1.2l-1.87,1.89s-.03.08,0,.11l2.03,2.48h-1.2l-1.56-1.95s-.03-.03-.05-.03-.03,0-.05.02l-.2.18ZM342.61,35.17l-.63.59c-.36-.27-.72-.4-1.11-.4-.83,0-1.44.61-1.44,1.45s.61,1.45,1.44,1.45c.36,0,.74-.13,1.13-.4l.56.59c-.81.59-1.24.7-1.8.7-.66,0-1.26-.23-1.69-.67-.42-.42-.65-1.03-.65-1.68,0-1.36.99-2.35,2.36-2.35.44,0,1.11.07,1.82.7ZM337.97,33.23c0,.33-.27.59-.59.59s-.59-.27-.59-.59.27-.59.59-.59c.32,0,.59.27.59.59ZM337.87,39.04h-.99v-4.47h.99v4.47ZM334.73,37.09v1.97h-.99v-4.47h.97v.54s.02.08.05.09c.03.02.08,0,.09-.03.25-.42.72-.69,1.22-.69.08,0,.12,0,.16.02v1.01c-.05-.02-.14-.02-.23-.02-.79-.01-1.28.6-1.28,1.58ZM329.42,36.82c0-.81.61-1.45,1.4-1.45s1.4.64,1.4,1.45-.61,1.45-1.4,1.45-1.4-.64-1.4-1.45ZM329.51,38.52h.03s.05.02.08.03c.34.4.85.61,1.42.61,1.22,0,2.16-1.03,2.16-2.35,0-.65-.22-1.23-.63-1.68-.4-.44-.96-.67-1.54-.67s-1.08.23-1.42.65c-.02.02-.05.03-.09.02-.03-.02-.05-.03-.05-.08v-2.43h-.99v6.42h.99v-.45c0-.05.01-.07.05-.09ZM325.41,38.26c-.77,0-1.4-.64-1.4-1.45s.61-1.45,1.4-1.45,1.4.64,1.4,1.45-.63,1.45-1.4,1.45ZM327.73,39.04v-4.47h-.97v.45s-.02.08-.05.08c-.03.02-.08,0-.09-.02-.32-.4-.83-.61-1.42-.61-1.22,0-2.16,1.03-2.16,2.35s.96,2.35,2.16,2.35c.56,0,1.08-.23,1.42-.65.02-.03.05-.03.09-.02.03.02.05.03.05.08v.49h.97v-.02ZM317.08,38.26c-.77,0-1.4-.64-1.4-1.45s.61-1.45,1.4-1.45,1.4.64,1.4,1.45-.63,1.45-1.4,1.45ZM319.4,39.04v-4.47h-.97v.45s-.02.08-.05.08c-.03.02-.08,0-.09-.02-.32-.4-.83-.61-1.42-.61-1.22,0-2.16,1.03-2.16,2.35s.96,2.35,2.16,2.35c.56,0,1.08-.23,1.42-.65.02-.03.05-.03.09-.02.03.02.05.03.05.08v.49h.97v-.02ZM311.83,38.26c-.79,0-1.4-.64-1.4-1.45s.61-1.45,1.4-1.45,1.4.64,1.4,1.45c0,.81-.63,1.45-1.4,1.45ZM314.15,39.04v-6.41h-.99v2.41s-.02.08-.05.08c-.03.02-.08,0-.09-.02-.34-.4-.85-.61-1.42-.61-1.22,0-2.16,1.03-2.16,2.35,0,.65.22,1.23.63,1.68.4.44.96.67,1.54.67s1.08-.23,1.42-.65c.02-.02.05-.03.09-.02.03.02.05.03.05.08v.47h.97s0-.01,0-.01Z"/>
    <path class="cls-12" d="M334.91,21.54l-5.36,3.04-5.7-3.24-.27.14v2.35l5.97,3.4,5.36-3.04v1.25l-5.36,3.04-5.71-3.24-.27.14v.4l5.97,3.4,5.99-3.4v-2.35l-.27-.14-5.73,3.24-5.34-3.04v-1.23l5.34,3.02,5.99-3.4v-2.32l-.31-.16-5.69,3.22-5.06-2.88,5.06-2.86,4.17,2.35.38-.2v-.29l-4.55-2.57-5.97,3.39v.36l5.97,3.4,5.36-3.04v1.24Z"/>
  </g>
  <g id="Page-1">
    <g id="Group-2" data-name="Group">
      <path id="Path" class="cls-6" d="M372.73,30.96l-2.64-1.53c-.37-.21-.85-.09-1.06.28-.08.15-.12.31-.1.46v2.98c0,.43.35.77.77.77s.77-.35.77-.77v-1.72l1.48.86c.37.21.85.09,1.06-.28.21-.37.09-.85-.28-1.06"/>
      <path id="Path2" class="cls-6" d="M366.16,27.69c0-.28-.14-.53-.38-.67l-2.64-1.53c-.11-.07-.25-.1-.38-.1-.27,0-.52.15-.66.38-.21.36-.08.83.28,1.04l1.52.88-1.52.88c-.18.1-.3.26-.35.46-.05.2-.03.4.08.58.14.23.39.38.66.38.13,0,.26-.03.38-.1l2.64-1.53c.24-.14.38-.39.38-.66"/>
      <path id="Path3" class="cls-6" d="M363.74,24.41l2.64,1.53c.31.18.69.12.93-.12.15-.14.25-.34.25-.57v-3.06c0-.43-.35-.77-.77-.77s-.77.35-.77.77v1.74l-1.5-.87c-.37-.21-.85-.09-1.06.28-.21.37-.09.85.28,1.06"/>
      <path id="Combined-Shape-3" data-name="Combined-Shape" class="cls-6" d="M369.68,27.81c0,.06-.03.14-.08.18l-1.05,1.05s-.12.08-.18.08h-.27c-.06,0-.14-.03-.18-.08l-1.05-1.05s-.08-.12-.08-.18v-.27c0-.06.03-.14.08-.18l1.05-1.05s.12-.08.18-.08h.27c.06,0,.14.03.18.08l1.05,1.05s.08.12.08.18v.27ZM368.75,27.69h0c0-.05-.02-.11-.06-.15l-.31-.31s-.09-.06-.13-.06h-.01s-.1.02-.13.06l-.31.31s-.06.09-.06.13h0c0,.06.02.11.06.15l.31.31s.09.06.13.06h.01s.1-.02.13-.06l.31-.31s.06-.09.06-.13Z"/>
      <path id="Path4" class="cls-6" d="M370.09,25.94l2.64-1.53c.37-.21.5-.69.28-1.06-.21-.37-.69-.5-1.06-.28l-1.48.86v-1.73c0-.43-.35-.77-.77-.77s-.77.35-.77.77v3c-.01.16.02.32.1.46.21.37.69.5,1.06.28"/>
      <path id="Path5" class="cls-6" d="M366.91,29.34c-.18-.03-.36,0-.53.09l-2.64,1.53c-.37.21-.5.69-.28,1.06.21.37.69.5,1.06.28l1.5-.87v1.73c0,.43.35.77.77.77s.77-.35.77-.77v-3.06c0-.39-.28-.71-.65-.76"/>
      <path id="Path6" class="cls-6" d="M374.39,25.76c-.21-.37-.69-.5-1.06-.28l-2.64,1.53c-.25.15-.39.41-.39.69,0,.27.14.54.39.68l2.64,1.53c.37.21.85.09,1.06-.28.21-.37.09-.85-.28-1.06l-1.5-.86,1.5-.86c.37-.21.5-.69.28-1.06"/>
      <path id="Combined-Shape2" class="cls-6" d="M415,27.51h0v.03c0,.14-.12.25-.27.25h-3.71c0,.09.02.17.04.26.17.8.86,1.4,1.68,1.41h.22s.03,0,.05,0c.02,0,.03,0,.05,0,0,0,0,0,0,0,.27-.02.54-.13.79-.31h0s.03-.02.04-.03c0,0,0,0,0,0,.01,0,.02-.02.03-.03,0,0,0,0,.01-.01,0,0,.02-.01.03-.02,0,0,.01-.01.02-.01,0,0,.01-.01.02-.02,0,0,.01-.01.02-.02,0,0,.01-.01.02-.02,0,0,.02-.02.03-.02,0,0,0-.01.01-.01l.03-.03h.01s.02-.03.03-.04c0,0,0,0,.01-.01.01-.01.02-.02.03-.03,0,0,0,0,.01-.01,0-.01.02-.02.03-.03v-.02s.03-.02.04-.03.01-.02.02-.02.01-.01.02-.02c0-.01.02-.02.03-.04,0,0,0,0,0-.01.02-.03.04-.07.07-.1,0,0,0,0,0,0,0,0,.01-.01.02-.02,0,0,0,0,0,0,0,0,0,0,.01-.01h.01s0-.02.01-.02c0,0,0,0,.01,0,0,0,.01,0,.02-.01,0,0,.01,0,.01,0,0,0,.01,0,.01,0s0,0,.01,0c0,0,.01,0,.02,0,0,0,0,0,0,0,.02,0,.04,0,.07,0,.02,0,.05,0,.07.01h0s.02,0,.03.01c0,0,0,0,0,0,.01,0,.02,0,.03.01h0c.12.09.16.25.09.38h0s-.02.03-.03.04h0c-.26.41-.62.73-1.02.92,0,0-.02,0-.03.01,0,0,0,0,0,0-.18.09-.38.15-.59.17,0,0,0,0-.01,0-.02,0-.04,0-.05,0-.01,0-.02,0-.03,0-.01,0-.03,0-.04,0-.02,0-.05,0-.07,0h-.22c-1.25,0-2.25-1.05-2.25-2.33s1.01-2.34,2.27-2.34c.04,0,.07,0,.11,0,.44.02.84.17,1.18.42,0,0,0,0,0,0,.02.01.04.03.06.04,0,0,.02.02.03.02,0,0,.02.01.03.02.47.39.79.99.85,1.67h0ZM411.05,27.26h3.36c-.17-.81-.86-1.4-1.67-1.4s-1.51.57-1.69,1.4Z"/>
      <path id="Combined-Shape3" class="cls-6" d="M405.51,25.4s.07.1.08.16c0,0,0,.02,0,.03v4.13c0,.15-.12.27-.27.27s-.27-.12-.27-.27v-.55c-.1.12-.21.24-.34.33,0,0,0,0-.01,0-.01,0-.02.02-.03.03-.37.29-.82.45-1.29.45-.76,0-1.43-.4-1.83-1.02,0,0,0-.01-.01-.01-.01-.02-.02-.04-.03-.06,0-.01-.01-.02-.02-.04s-.01-.03-.02-.04c-.01-.02-.02-.04-.03-.06,0,0,0-.01,0-.02-.15-.29-.24-.62-.25-.97,0-.04,0-.08,0-.12s0-.08,0-.12c.02-.35.11-.68.25-.97,0,0,0-.01,0-.02.01-.02.02-.04.03-.06,0-.01.01-.03.02-.04,0-.01.01-.02.02-.04.01-.02.02-.04.03-.06,0,0,0-.01.01-.01.4-.61,1.07-1.02,1.83-1.02.51,0,1,.19,1.38.52.11.09.2.19.29.29v-.54s0-.02,0-.03c0-.07.03-.12.08-.16h0s.01,0,.01-.01c0,0,0,0,0,0,0,0,0,0,.01,0s0,0,.01,0c0,0,0,0,0,0,0,0,.01,0,.02,0,0,0,0,0,0,0,0,0,.01,0,.02-.01h0s.03-.01.05-.01c0,0,0,0,0,0,0,0,.01,0,.02,0,0,0,.02,0,.03,0,.01,0,.02,0,.03,0,0,0,.01,0,.02,0,0,0,0,0,0,0,.02,0,.03,0,.05.01h0s.01,0,.02.01c0,0,0,0,0,0,0,0,.01,0,.01,0,0,0,0,0,0,0,0,0,0,0,.01,0s0,0,.01,0c0,0,0,0,0,0,0,0,.01,0,.01.01h0ZM403.37,29.46c.92,0,1.68-.81,1.68-1.8s-.75-1.81-1.68-1.81-1.68.81-1.68,1.81c0,.03,0,.06,0,.09,0,.01,0,.03,0,.04,0,.02,0,.04,0,.05,0,.01,0,.03,0,.04,0,.02,0,.03,0,.05,0,.01,0,.02,0,.03,0,.02,0,.04,0,.05,0,0,0,.02,0,.02,0,.02,0,.04.01.06,0,0,0,0,0,.01.19.77.85,1.33,1.62,1.33Z"/>
      <path id="Path7" class="cls-6" d="M398.74,23.37h-.07s-.02,0-.03,0c-.01,0-.02,0-.03,0-.03,0-.05,0-.08,0,0,0-.01,0-.01,0-.02,0-.04,0-.06,0h-.01s-.04,0-.06,0c0,0,0,0,0,0-.02,0-.04,0-.06,0h0c-.14.02-.26.06-.37.11,0,0,0,0,0,0-.02,0-.03.02-.05.03,0,0,0,0,0,0-.01,0-.03.02-.04.02,0,0-.01,0-.01.01-.01,0-.02.01-.03.02,0,0-.02.01-.02.02,0,0-.01.01-.02.02-.01.01-.02.02-.03.03,0,0,0,0,0,0-.01.01-.03.03-.04.04,0,0,0,0,0,0-.01.01-.02.02-.03.04,0,0,0,.01-.01.02,0,.01-.02.02-.02.03,0,0,0,0,0,.01,0,.01-.02.03-.03.04,0,0,0,0,0,0-.07.12-.12.26-.16.43,0,0,0,0,0,0,0,.02,0,.04-.01.07,0,0,0,.01,0,.02,0,.02,0,.04,0,.06,0,.01,0,.02,0,.03,0,.02,0,.03,0,.05,0,.02,0,.03,0,.05,0,.01,0,.02,0,.03,0,.02,0,.05,0,.07,0,0,0,.01,0,.02,0,.03,0,.06,0,.1v.44h-.56s-.07,0-.1.02c-.1.04-.17.13-.17.24,0,.1.05.19.13.25.04.03.09.04.14.04h0s.56,0,.56,0v3.92s0,.01,0,.02h0c0,.07.03.13.07.17h0s.01.01.02.02c0,0,0,0,0,0,0,0,.01,0,.01.01,0,0,0,0,0,0,0,0,0,0,0,0,.04.03.1.04.15.04,0,0,.02,0,.03,0,.05,0,.1-.03.14-.06h0s.01-.01.01-.02c0,0,0,0,0,0,0,0,0,0,.01-.01.04-.05.07-.12.06-.18v-3.92h.6s0,0,0,0c.16,0,.28-.13.27-.29h0s0-.01,0-.02h0c0-.07-.03-.12-.07-.16h0s-.01-.01-.02-.02c0,0,0,0,0,0,0,0,0,0-.01,0,0,0,0,0-.01,0,0,0,0,0,0,0,0,0-.01,0-.02,0,0,0,0,0,0,0,0,0-.01,0-.02,0,0,0,0,0,0,0,0,0-.01,0-.02,0,0,0,0,0,0,0,0,0-.01,0-.02,0,0,0,0,0-.01,0,0,0-.01,0-.02,0h-.01s0,0-.01,0h-.61v-.44h0s0-.05,0-.08c0,0,0-.01,0-.02,0-.02,0-.04,0-.06,0,0,0,0,0-.01,0-.02,0-.04,0-.06.02-.22.07-.36.12-.44,0,0,0,0,0,0,0,0,0-.01.01-.02,0,0,0,0,0-.01,0,0,0,0,0,0,0,0,.01-.01.02-.02.07-.08.18-.13.34-.15,0,0,0,0,0,0,0,0,.02,0,.03,0,0,0,.01,0,.01,0,0,0,.02,0,.03,0,0,0,.01,0,.02,0,0,0,.02,0,.02,0s.02,0,.02,0h.06s.02,0,.03,0c.01,0,.02,0,.03,0h.07c.15,0,.27-.12.27-.28s-.12-.27-.27-.27"/>
      <path id="Path8" class="cls-6" d="M400.19,23.38s0,0,0,0c0,0-.01,0-.02,0,0,0,0,0,0,0,0,0,0,0-.01,0s0,0-.01,0c0,0-.01,0-.02,0,0,0,0,0-.01,0,0,0-.02,0-.03,0-.15,0-.27.12-.27.27v6.1c0,.15.12.27.27.27,0,0,.02,0,.03,0,0,0,0,0,0,0h.02s0,0,0,0c0,0,.01,0,.02,0,0,0,0,0,0,0,.1-.03.18-.12.19-.23,0,0,0-.02,0-.03v-6.1s0-.02,0-.03c-.01-.1-.08-.18-.17-.22"/>
      <path id="Path9" class="cls-6" d="M379.54,28.56s0-.03,0-.05c0-.01,0-.02,0-.03,0-.01,0-.02,0-.04,0-.01,0-.02,0-.03,0,0,0-.02,0-.03,0-.01,0-.03,0-.04,0,0,0-.01,0-.02,0-.01,0-.03-.01-.04,0,0,0-.01,0-.02,0-.02-.01-.03-.02-.05,0,0,0,0,0,0,0-.02-.01-.03-.02-.05,0,0,0,0,0,0-.06-.13-.16-.24-.27-.33t0,0s-.03-.03-.05-.04c0,0,0,0,0,0,0,0,0,0,0,0-.01,0-.02-.01-.03-.02-.14-.1-.29-.18-.51-.26,0,0,0,0-.01,0,0,0,0,0-.01,0-.13-.05-.26-.09-.39-.14h0s0,0,0,0c0,0,0,0,0,0-.01,0-.03,0-.04-.01,0,0-.02,0-.02,0-.05-.02-.09-.03-.14-.05-.03-.01-.07-.02-.11-.04-.01,0-.04-.01-.06-.02,0,0,0,0,0,0-.01,0-.03,0-.04-.01-.11-.04-.2-.07-.28-.1-.13-.05-.25-.1-.34-.16,0,0,0,0,0,0-.13-.08-.22-.19-.24-.32h0s0-.02,0-.03c0,0,0,0,0,0,0-.01,0-.02,0-.03,0-.02,0-.03,0-.05,0,0,0,0,0-.01,0-.01,0-.02,0-.03,0,0,0,0,0-.01,0-.01,0-.02,0-.04,0,0,0,0,0,0,0-.01,0-.03.01-.04h0c.06-.18.2-.3.36-.4.01,0,.02-.01.03-.02.01,0,.02-.01.03-.02.02,0,.03-.02.05-.02.01,0,.02,0,.03-.01l.05-.02s.02,0,.03-.01c.02,0,.03-.01.05-.02.01,0,.02,0,.03,0,.02,0,.03,0,.05-.01.01,0,.02,0,.03,0,.02,0,.03,0,.05,0,.01,0,.02,0,.03,0,.02,0,.04,0,.06,0,0,0,0,0,.01,0,.02,0,.05,0,.07,0,.03,0,.06,0,.08,0h.01c.2.01.36.06.49.12.01,0,.02.01.03.01,0,0,.01,0,.02,0,.01,0,.02.01.04.02,0,0,0,0,0,0,.01,0,.03.02.04.02,0,0,0,0,0,0,.01,0,.03.02.04.03,0,0,0,0,0,0,.01,0,.03.02.04.03,0,0,.01,0,.02.01.03.02.08.06.13.1,0,0,.01,0,.01.01.03.03.07.05.1.08,0,0,.01,0,.01.01,0,0,0,0,0,0,0,0,0,0,.01,0,0,0,.02.01.02.02,0,0,0,0,.01,0,0,0,.02,0,.02.01,0,0,0,0,0,0,0,0,.02,0,.03.01,0,0,0,0,0,0,.01,0,.02,0,.03,0h0s.04,0,.07,0c0,0,0,0,0,0,0,0,.01,0,.02,0,0,0,0,0,0,0,0,0,0,0,0,0,0,0,.02,0,.03-.01,0,0,0,0,0,0,.01,0,.02-.01.03-.02h0s.01-.02.02-.02c0,0,0-.01.01-.02,0,0,0,0,0,0,.05-.08.02-.18-.06-.29,0,0,0,0,0,0,0,0,0,0,0-.01-.19-.25-.63-.52-1.03-.61,0,0,0,0,0,0-.02,0-.03,0-.05-.01,0,0-.01,0-.01,0-.01,0-.03,0-.04,0,0,0-.01,0-.02,0-.01,0-.03,0-.04,0,0,0-.01,0-.02,0-.02,0-.04,0-.06,0-.03,0-.06,0-.09,0-.02,0-.03,0-.05,0-.01,0-.02,0-.04,0-.02,0-.04,0-.07,0,0,0-.01,0-.02,0-.02,0-.05,0-.07,0h0s-.05,0-.08.01h0s-.05,0-.07.01c0,0,0,0,0,0-.05,0-.1.02-.15.03,0,0,0,0,0,0-.02,0-.05.01-.07.02-.02,0-.04.01-.06.02,0,0,0,0,0,0-.02,0-.04.01-.06.02,0,0,0,0,0,0-.02,0-.04.02-.06.02,0,0,0,0,0,0-.02,0-.03.02-.05.02,0,0,0,0-.01,0-.02,0-.03.02-.05.02,0,0,0,0-.01,0-.01,0-.03.02-.04.03,0,0,0,0-.01,0-.02.01-.04.02-.06.03-.02.02-.04.03-.06.05,0,0,0,0,0,0-.1.07-.18.15-.25.23,0,0,0,0,0,.01,0,.01-.02.02-.02.03,0,0-.01.02-.02.03,0,0,0,.01-.01.02,0,.01-.02.03-.02.05,0,0,0,0,0,0-.06.12-.1.26-.11.43,0,0,0,0,0,0,0,.03,0,.06,0,.09,0,.02,0,.05,0,.07h0c.01.33.16.57.42.76,0,0,0,0,0,0,.01,0,.02.02.03.02,0,0,.02.01.02.02,0,0,0,0,0,0,.26.17.58.26.85.34.13.04.25.07.28.08,0,0,.02,0,.02,0,.16.05.28.1.38.14,0,0,.01,0,.02,0,0,0,0,0,0,0,.06.02.11.05.17.08.05.02.09.05.13.07.11.07.19.14.24.22,0,0,0,0,0,0,0,0,.01.01.01.02,0,0,0,0,0,.01,0,0,0,.01,0,.02,0,0,0,.01,0,.02,0,0,0,0,0,.01,0,0,0,.01,0,.02,0,0,0,0,0,.01,0,0,0,.02,0,.02,0,0,0,0,0,.01,0,0,0,.02,0,.02,0,0,0,0,0,.01,0,0,0,.02,0,.03,0,0,0,0,0,.01,0,.01,0,.03,0,.04,0,.02,0,.04,0,.06,0,0,0,.01,0,.02,0,.01,0,.03,0,.04,0,0,0,0,0,.01,0,.04-.02.08-.03.11,0,0,0,0,0,0,0,.02-.02.03-.02.05,0,0,0,0,0,0-.02.04-.04.07-.07.1-.01.02-.03.03-.04.05t0,0s-.06.06-.1.08c0,0,0,0,0,0-.02.01-.03.02-.05.03,0,0,0,0,0,0-.03.02-.06.04-.09.05-.01,0-.02.01-.03.02-.01,0-.03.01-.04.02-.01,0-.02,0-.03.01-.03.01-.06.02-.09.03,0,0,0,0-.01,0-.02,0-.04.01-.05.02,0,0-.01,0-.01,0-.06.02-.12.03-.17.04h0s-.06,0-.08.01c-.01,0-.02,0-.03,0,0,0-.02,0-.03,0-.02,0-.04,0-.06,0-.04,0-.08,0-.12,0-.02,0-.03,0-.05,0-.02,0-.04,0-.06,0-.02,0-.04,0-.06,0-.02,0-.03,0-.05,0-.03,0-.07-.01-.1-.02-.01,0-.03,0-.05,0-.02,0-.03,0-.05-.01-.02,0-.04,0-.06-.01-.01,0-.03,0-.04-.01-.03,0-.06-.02-.09-.03,0,0-.01,0-.02,0-.07-.02-.13-.05-.19-.08,0,0,0,0,0,0-.04-.02-.11-.06-.17-.1,0,0-.01,0-.02-.01-.05-.03-.09-.05-.12-.07,0,0,0,0,0,0,0,0,0,0,0,0-.01,0-.02,0-.03-.01,0,0,0,0,0,0-.02,0-.05-.02-.07-.02,0,0-.01,0-.02,0,0,0,0,0,0,0-.04,0-.08.01-.11.05,0,0-.01.01-.02.02,0,0,0,0,0,0,0,0,0,.01-.01.01,0,0,0,0,0,0,0,0,0,0,0,.01,0,0,0,0,0,.01,0,0,0,0,0,.01,0,0,0,0,0,0,0,0,0,.01,0,.01,0,0,0,0,0,0,0,0,0,.01,0,.02,0,0,0,0,0,0,0,0,0,.01,0,.02h0s0,.02,0,.03h0s0,.02,0,.03c0,0,0,0,0,.01,0,0,0,.01,0,.02,0,0,0,0,0,0,.01.03.04.07.07.1.03.04.07.07.12.11t0,0s.03.02.04.03c0,0,0,0,0,0,.04.03.08.05.13.08.01,0,.02.01.03.02.01,0,.02.01.03.02.01,0,.03.02.04.02.01,0,.02.01.03.01.02.01.05.02.07.03,0,0,0,0,0,0,.03.01.05.02.08.03.01,0,.02,0,.03.01,0,0,0,0,0,0,.24.09.54.16.8.17.02,0,.04,0,.06,0h0s.02,0,.03,0h.06s0,0,0,0c.43-.01.78-.12,1.07-.34h0c.33-.25.51-.6.51-.99,0-.02,0-.05,0-.07,0,0,0-.02,0-.03"/>
      <path id="Path10" class="cls-6" d="M382.29,25.33h0c-.52,0-1.02.21-1.38.59v-.32c0-.15-.11-.27-.26-.27-.01,0-.02,0-.03,0-.06,0-.12.03-.16.08t0,0s0,0-.01.01c0,0,0,0,0,0,0,0,0,0,0,.01,0,0,0,0,0,.01,0,0,0,0,0,0,0,0,0,.01-.01.02,0,0,0,0,0,0,0,0,0,.01-.01.02,0,.02-.01.03-.01.05,0,0,0,0,0,0,0,0,0,.02,0,.02,0,0,0,.02,0,.03v4.2s.01.01.01.01c0,0,0,.01,0,.02,0,0,0,0,0,0,0,0,0,.01.01.02.03.07.1.12.17.14h0s.06,0,.06,0c.01,0,.02,0,.03,0,0,0,.01,0,.02,0,0,0,0,0,0,0,0,0,.02,0,.03,0h0s.09-.05.11-.09h0s.03-.04.04-.07c0,0,0,0,0,0t0,0s0-.03.01-.04h0v-2.53c.02-.75.63-1.37,1.37-1.37h0c.75,0,1.37.61,1.37,1.37v2.49s0,.02,0,.03c0,.07.03.12.08.16,0,0,0,0,0,0,0,0,0,0,.01.01,0,0,0,0,0,0,0,0,0,0,.01,0,0,0,0,0,.01,0,0,0,0,0,0,0,0,0,.01,0,.01,0,0,0,0,0,0,0,0,0,.01,0,.02.01h0s.03.01.05.01c0,0,0,0,0,0,0,0,.01,0,.02,0,0,0,.02,0,.03,0,0,0,.02,0,.03,0,0,0,.02,0,.02,0,0,0,0,0,0,0,.02,0,.03,0,.05-.01h.02s0-.01,0-.01c0,0,.01,0,.02,0,0,0,0,0,0,0,0,0,0,0,.01,0,0,0,0,0,.01,0,0,0,0,0,0,0,0,0,.01,0,.01-.01h0s.07-.1.08-.16c0,0,0-.02,0-.03v-2.49c0-1.05-.85-1.9-1.9-1.91"/>
      <path id="Combined-Shape4" class="cls-6" d="M387.14,25.32c1.22,0,2.22,1.05,2.22,2.34s-.99,2.34-2.22,2.34c-.04,0-.08,0-.11,0,0,0-.01,0-.02,0-.03,0-.07,0-.1,0h0c-.48-.05-.93-.27-1.29-.63-.01-.01-.03-.03-.04-.05,0,0,0,0,0,0,0,0-.01-.02-.02-.03-.02-.02-.03-.04-.05-.06-.01-.01-.03-.03-.04-.05,0-.01-.02-.02-.03-.04-.02-.02-.04-.05-.06-.08h0c-.22-.32-.36-.67-.42-1.05,0-.03,0-.07-.01-.1,0,0,0,0,0-.01,0-.03,0-.06,0-.1,0,0,0-.01,0-.02,0-.04,0-.08,0-.12s0-.08,0-.12c0,0,0-.01,0-.02,0-.03,0-.07,0-.1,0,0,0,0,0-.01,0-.03,0-.07.01-.1.05-.38.2-.73.42-1.04,0,0,0,0,0,0,.02-.03.04-.05.06-.08,0-.01.02-.02.03-.03.01-.02.03-.03.04-.05.02-.02.03-.03.05-.05,0,0,.02-.02.02-.03,0,0,0,0,0,0,.01-.01.03-.03.04-.04.36-.36.81-.59,1.3-.64h0s.06,0,.1,0c0,0,.01,0,.02,0,.04,0,.07,0,.11,0ZM388.81,27.47h0c-.04-.41-.21-.77-.45-1.06-.01-.01-.02-.02-.03-.04l-.02-.02s-.03-.03-.04-.04c-.01-.01-.03-.02-.04-.03,0,0-.01-.01-.02-.02-.02-.02-.04-.03-.06-.05,0,0,0,0,0,0-.24-.19-.52-.32-.82-.35,0,0,0,0,0,0-.02,0-.05,0-.07,0,0,0-.01,0-.01,0-.03,0-.06,0-.08,0s-.06,0-.08,0c0,0,0,0-.01,0-.02,0-.05,0-.07,0,0,0,0,0,0,0-.3.03-.59.16-.82.35,0,0,0,0,0,0-.02.02-.04.03-.06.05,0,0-.01.01-.02.02-.01.01-.03.02-.04.04s-.02.03-.04.04l-.02.02s-.02.02-.03.04c-.25.28-.42.65-.46,1.05h0s0,.05,0,.08c0,0,0,0,0,.01,0,.03,0,.06,0,.09,0,.99.76,1.8,1.68,1.8s1.68-.81,1.68-1.8c0-.03,0-.06,0-.09,0,0,0,0,0-.01,0-.03,0-.05,0-.08Z"/>
      <path id="Path11" class="cls-6" d="M395.87,25.44s0,0,0,0c-.03-.03-.06-.06-.1-.08h0s-.01,0-.01,0c0,0,0,0,0,0-.04-.01-.08-.01-.11,0h0c-.08.01-.15.06-.19.13h0s-.01.02-.02.03h0s-1.29,3.53-1.29,3.53l-1.01-2.41s-.02-.04-.04-.06c-.06-.06-.14-.1-.23-.1-.01,0-.03,0-.04,0h0c-.09.02-.17.08-.21.16h0s-1.01,2.41-1.01,2.41l-.49-1.33-.81-2.2s0-.02-.01-.03t0,0s-.06-.08-.11-.1c0,0,0,0,0,0-.02-.01-.05-.02-.07-.02,0,0,0,0,0,0-.01,0-.03,0-.04,0h0s-.01,0-.02,0c0,0,0,0-.01,0,0,0-.01,0-.01,0,0,0,0,0-.01,0,0,0-.01,0-.02,0,0,0,0,0,0,0,0,0-.01,0-.02,0h0s-.08.06-.11.1c0,0,0,0,0,0h0s-.03.08-.04.12c0,.04,0,.09.02.13l.94,2.51.6,1.61h0c.02.06.06.1.11.13,0,0,0,0,0,0s0,0,0,0c0,0,0,0,0,0,0,0,0,0,0,0h0s.02.01.03.01c0,0,0,0,0,0,0,0,0,0,.01,0,0,0,0,0,0,0,.03,0,.05.01.07.01.01,0,.02,0,.04,0,0,0,.02,0,.03,0,0,0,0,0,0,0,0,0,.02,0,.03-.01,0,0,0,0,.01,0,0,0,.01,0,.02-.01,0,0,.01,0,.02-.01,0,0,0,0,.01,0,0,0,.01-.01.02-.02,0,0,0,0,0,0,0,0,.02-.02.02-.02,0,0,0,0,0,0,0,0,.01-.02.02-.03,0-.01.01-.02.02-.04h0s0,0,0,0h0s1.02-2.43,1.02-2.43l1.03,2.43s.02.05.04.07c0,0,0,0,0,0,0,0,.01.01.02.02,0,0,0,0,.01,0,0,0,.01.01.02.02,0,0,0,0,0,0,0,0,.02.01.02.02h0s.02.01.03.02c0,0,0,0,0,0,0,0,.02,0,.02,0,.01,0,.02,0,.03,0h.03s.03,0,.04,0c0,0,0,0,0,0,.01,0,.02,0,.03,0,0,0,0,0,0,0,.01,0,.02,0,.03-.01,0,0,0,0,0,0,.01,0,.02-.02.03-.02.05-.03.08-.08.1-.13h0s.63-1.71.63-1.71l.89-2.4c.03-.08.02-.18-.03-.25,0,0,0,0,0-.01"/>
      <path id="Path12" class="cls-6" d="M410.18,25.51s0-.01,0-.01c0,0,0,0,0-.01,0,0,0-.01,0-.02,0,0,0,0,0,0,0,0,0-.01,0-.02,0,0,0,0,0,0,0,0,0-.01-.01-.02h0s-.03-.05-.05-.06h0c-.1-.1-.23-.11-.34-.04,0,0,0,0,0,0,0,0,0,0-.01.01,0,0-.01.01-.02.02,0,0,0,0,0,0l-2.64,2.57v-4.3s0-.02,0-.03c-.01-.1-.08-.18-.17-.22,0,0,0,0,0,0,0,0-.01,0-.02,0,0,0,0,0,0,0,0,0,0,0-.01,0,0,0,0,0-.01,0,0,0-.01,0-.01,0,0,0,0,0-.01,0-.01,0-.02,0-.03,0-.15,0-.27.12-.27.27v6.1c0,.15.12.27.27.27,0,0,.02,0,.03,0,0,0,0,0,0,0,0,0,.02,0,.02,0,0,0,0,0,0,0,0,0,.01,0,.02,0,0,0,0,0,0,0,.1-.03.18-.12.19-.23,0,0,0-.02,0-.03v-1.03l.89-.89,1.72,2.08s.02.03.04.05c0,0,0,0,0,0,0,0,0,0,.01,0,0,0,.01,0,.02.01,0,0,0,0,0,0,0,0,.01,0,.02,0,0,0,0,0,0,0,0,0,.02,0,.03,0,0,0,0,0,0,0,0,0,.02,0,.03,0,0,0,0,0,0,0,.01,0,.02,0,.03,0,.02,0,.03,0,.05,0h0s.06-.01.09-.03c0,0,0,0,0,0,.01,0,.02-.01.04-.02h0c.1-.11.12-.25.04-.36,0-.01-.01-.02-.02-.03l-1.75-2.13,1.74-1.68s.07-.1.08-.17c0,0,0,0,0,0v-.02s0,0,0,0h0s0-.01,0-.02c0,0,0,0,0-.01"/>
    </g>
  </g>
</svg>