<?xml version="1.0" encoding="UTF-8"?>
<svg id="Capa_1" data-name="Capa 1" xmlns="http://www.w3.org/2000/svg" xmlns:xlink="http://www.w3.org/1999/xlink" viewBox="0 0 425.5 53">
  <defs>
    <style>
      .cls-1 {
        fill: url(#Degradado_sin_nombre_16);
      }

      .cls-2 {
        letter-spacing: 0em;
      }

      .cls-3 {
        font-family: BebasNeue-Book, 'Bebas Neue';
      }

      .cls-4 {
        fill: none;
      }

      .cls-5 {
        fill: #d9232e;
        fill-rule: evenodd;
      }

      .cls-6 {
        letter-spacing: .02em;
      }

      .cls-7 {
        fill: url(#Degradado_sin_nombre_2);
        opacity: .05;
      }

      .cls-8 {
        letter-spacing: 0em;
      }

      .cls-9 {
        letter-spacing: 0em;
      }

      .cls-10 {
        fill: #fff;
        font-size: 21px;
      }

      .cls-11 {
        letter-spacing: .02em;
      }

      .cls-12 {
        letter-spacing: -.03em;
      }

      .cls-13 {
        letter-spacing: 0em;
      }

      .cls-14 {
        font-family: SegoeUI-Bold, 'Segoe UI';
        font-size: 7.55px;
        font-weight: 700;
      }

      .cls-15 {
        font-family: BebasNeueBold, 'Bebas Neue';
      }
    </style>
    <linearGradient id="Degradado_sin_nombre_2" data-name="Degradado sin nombre 2" x1="164.7" y1="-124.38" x2="399.05" y2="227.53" gradientUnits="userSpaceOnUse">
      <stop offset="0" stop-color="#fff"/>
      <stop offset="1" stop-color="#000"/>
    </linearGradient>
    <linearGradient id="Degradado_sin_nombre_16" data-name="Degradado sin nombre 16" x1="25.7" y1="-71.81" x2="116.1" y2="276.13" gradientUnits="userSpaceOnUse">
      <stop offset="0" stop-color="#00aeef"/>
      <stop offset=".36" stop-color="#049ddf"/>
      <stop offset="1" stop-color="#0f75bc"/>
    </linearGradient>
    <clipPath id="clippath">
      <rect class="cls-4" x="553.83" y="-767.66" width="960.22" height="540.01"/>
    </clipPath>
  </defs>
  <rect class="cls-7" x="104.97" y="-.08" width="320.36" height="53.08"/>
  <text class="cls-14" transform="translate(194.51 46.03)"><tspan class="cls-8" x="0" y="0">P</tspan><tspan class="cls-9" x="4.69" y="0">ow</tspan><tspan class="cls-6" x="15.46" y="0">e</tspan><tspan x="19.72" y="0">r </tspan><tspan class="cls-11" x="24.81" y="0">B</tspan><tspan x="29.79" y="0">i</tspan></text>
  <rect class="cls-1" x="-.49" y="-.08" width="103.44" height="53.08"/>
  <text class="cls-10" transform="translate(8.49 24.05)"><tspan class="cls-15"><tspan x="0" y="0">Analítica</tspan></tspan><tspan class="cls-3"><tspan class="cls-12" x="0" y="19.05">Av</tspan><tspan x="17.22" y="19.05">anza</tspan><tspan class="cls-13" x="51.89" y="19.05">d</tspan><tspan class="cls-2" x="59.95" y="19.05">a</tspan></tspan></text>
  <image width="3840" height="2160" transform="translate(186.48 10.07) scale(.01)" xlink:href="../../../Alejandro Mendoza/Valtre/Logos Matriz/Analítica Avanzada/Power-BI-Logo.png"/>
  <image width="3840" height="2160" transform="translate(362.24 12.45) scale(.01)" xlink:href="../../../Alejandro Mendoza/Valtre/Logos Matriz/Analítica Avanzada/Snowflake-Logo.png"/>
  <image width="3840" height="2160" transform="translate(241.89 11.21) scale(.01)" xlink:href="../../../Alejandro Mendoza/Valtre/Logos Matriz/Analítica Avanzada/Tableau-Logo.png"/>
  <image width="1200" height="630" transform="translate(304.19 13.66) scale(.04)" xlink:href="../../../Alejandro Mendoza/Valtre/Logos Matriz/Analítica Avanzada/Databricks_Logo.png"/>
  <g>
    <path class="cls-5" d="M122.23,23.99h2.19l.82,3.06h.05l.02-.11.03-.19.02-.1.03-.1.02-.1.02-.1.03-.1.66-2.27h2.19l.96,5.81h-2.06l-.29-3.19h-.05l-.03.14-.03.14-.02.06-.02.08-.02.08-.03.06-.85,2.61h-1.25l-.77-2.47-.05-.18-.02-.1-.02-.1-.03-.18-.02-.18h-.08v.18l-.02.08v.1l-.02.08v.18l-.02.08-.24,2.5h-2.08l.96-5.81ZM133.21,27.69l.02-.08.02-.06.02-.05.03-.05.06-.1.08-.1.05-.03.05-.02.06-.03.06-.02.05-.02h.24l.06.02h.05l.05.02.05.02.05.02.05.03.05.02.03.03.05.03.05.03.08.06.08.06v-1.66l-.14-.05-.16-.03-.16-.05-.16-.02-.16-.03-.16-.02-.16-.02h-.27l-.11.02-.11.02-.11.02-.1.02-.11.03-.1.03-.11.03-.08.05-.1.05-.1.05-.1.06-.06.06-.08.05-.08.08-.08.06-.08.08-.06.08-.11.16-.05.08-.05.1-.05.1-.05.1-.03.1-.03.08v-1.39h-2.02v4.1h2.02v-1.33l.03.11.05.1.05.1.05.1.05.08.06.1.05.08.08.08.06.06.08.06.08.08.08.06.08.05.1.05.1.05.1.05.1.05.11.03.1.03.11.03.11.02.11.03h.11l.13.02h.11l.13.02.06-.02h.21l.13-.02.13-.03.13-.03.13-.03.11-.03.13-.05.08-1.67-.08.05-.1.06-.1.05-.08.05-.06.03-.05.02-.05.02-.05.02h-.05l-.06.02h-.22l-.06-.02-.05-.03-.05-.02-.05-.03-.05-.03-.05-.05-.03-.03-.03-.05-.05-.05-.02-.05-.02-.06-.02-.05-.02-.06v-.11h0ZM173.42,25.64l.21,1.6.02.62h.05l.21-.62.7-1.6h2.13l-3.59,5.78h-2.13l1.41-2.1-1.18-3.68h2.18Z"/>
    <path class="cls-5" d="M169.42,25.64l-.05.59h-.05l-.05-.08-.03-.08-.05-.06-.05-.06-.06-.06-.06-.05-.06-.06-.06-.05-.06-.03-.08-.03-.08-.03-.05-.02-.03-.02-.08-.02-.1-.02h-.1l-.1-.02-.11.02h-.1l-.1.02-.11.02-.1.03-.1.03-.1.03-.1.05-.08.05-.08.06-.1.05-.08.06-.08.06-.08.06-.06.08-.08.06-.06.08-.06.08-.06.1-.05.08-.06.08-.06.1-.05.1-.03.08-.05.1-.03.1-.05.1-.03.1v-.02l-.02-.13-.02-.11-.03-.11-.08-.21-.05-.1-.05-.1-.06-.1-.06-.08-.08-.08-.06-.08-.1-.08-.08-.06-.1-.06-.1-.06-.1-.05-.11-.05-.11-.05-.1-.05-.13-.03-.11-.03-.13-.02-.13-.02-.13-.02-.14-.02h-.3l-.08.02-.11.02h-.13l-.11.03-.11.02-.13.05-.11.03-.11.03-.11.05-.11.05-.1.05-.11.06-.1.06-.1.06-.08.06-.11.08-.08.08-.08.08-.08.08-.08.1-.05.06.14-.96-.67.03.22-1.36h-2.03l-.22,1.36-.43-.02.02-.03h-1.98l-.02.48h-.03l-.05-.06-.05-.08-.06-.05-.05-.06-.06-.05-.05-.05-.08-.05-.06-.03-.06-.03-.08-.03-.08-.03h-.05l-.03-.02-.1-.02h-.08l-.1-.02h-.19l-.11.02-.1.02-.11.02-.1.03-.1.03-.1.03-.1.05-.1.05-.08.06-.1.05-.06.06-.08.06-.08.06-.06.08-.08.06-.08.08-.05.1-.06.08-.06.08-.05.08-.06.1-.03.1-.06.1-.03.1-.05.1-.02.05.26-1.58-.13-.02-.11.02h-.11l-.11.02-.1.02-.1.02-.1.03-.1.03-.03.02-.05.02-.05.03-.03.02-.05.03-.03.02-.05.03-.05.03-.08.06-.16.18-.08.1h-.05l.13-.56h-2.02v.02l-.69.03.22-1.38h-2.03l-.22,1.38-.48-.03-.19,1.22v-.02l-.03-.05-.05-.05-.03-.06-.05-.05-.05-.05-.03-.05-.07-.05-.06-.03-.05-.05-.05-.03-.08-.03-.05-.05-.06-.03-.08-.03-.06-.03-.08-.02-.08-.03-.06-.02-.1-.03-.08-.02-.46-.11-.06-.02-.06-.02h-.03l-.03-.02h-.03l-.03-.02-.03-.02-.03-.02-.02-.03-.02-.02-.02-.03-.02-.02v-.08l.02-.05.02-.03.02-.05.02-.03.03-.02.05-.03.03-.02.03-.03h.03l.03-.02.05-.02.05-.02.08-.02h.16l.08.02.08.02.08.02.08.02.08.02.06.03.08.02.08.03.06.03.06.05.08.03.05.05.06.05.08.03.05.05.82-1.49-.08-.06-.11-.05-.1-.06-.11-.05-.1-.05-.11-.05-.11-.03-.11-.03-.11-.03-.11-.02-.11-.03-.11-.02-.13-.02-.11-.02h-.5l-.13.02-.11.03-.13.02-.11.02-.13.03-.11.03-.13.03-.11.05-.11.05-.11.05-.11.06-.11.05-.1.06-.11.06-.1.06-.1.08-.1.08-.08.08-.1.1-.14.18-.08.1-.05.11-.08.1-.05.11-.05.11-.05.11-.06.26-.02.11-.02.1-.02.08v.14l.02.08v.08l.02.06.02.06.02.08.03.05.03.06.03.06.03.05.03.06.05.05.05.05.08.08.05.05.06.03.06.05.05.03.06.03.06.03.06.03.06.02.08.03.06.02.06.03.08.02.06.02.1.02.42.08.06.02.08.02h.03l.05.02.03.02.03.02.03.02.03.02.02.03.03.02.02.03v.18l-.02.02-.02.03-.03.03-.02.03-.03.03-.05.03-.03.03-.05.02-.05.02-.05.02-.05.02-.03.02h-.1l-.05.02h-.13l-.1-.02-.1-.02-.08-.02-.08-.02-.08-.03-.08-.03-.1-.03-.06-.05-.08-.03-.08-.05-.06-.05-.06-.05-.08-.05-.13-.1-.1-.1-.02.03v-.13l-.02-.13-.02-.13-.02-.13-.03-.11-.03-.11-.05-.11-.05-.1-.05-.1-.05-.11-.06-.08-.06-.08-.06-.1-.1-.08-.06-.08-.1-.06-.08-.08-.08-.05-.21-.11-.11-.05-.1-.05-.11-.05-.1-.03-.13-.03-.11-.03-.11-.02-.13-.03-.13-.02h-.11l-.13-.02h-.26l-.13.02h-.13l-.13.02-.11.03-.13.02-.11.03-.11.03-.11.03-.1.05-.13.05-.1.05-.1.05-.1.06-.08.05-.1.08-.08.06-.08.08-.08.08-.06.1-.06.05v-.93h-.24l-.1.02h-.11l-.1.02-.1.02-.1.03-.08.03-.05.02-.03.03-.05.02-.03.02-.05.03-.03.03-.03.03-.03.03-.14.13-.06.1-.06.1h-.06l.06-.54h-2.02v4.1h2.02v-1.76l.02-.08.03-.08v-.03l.02-.03.02-.05.02-.03.03-.02.02-.03.02-.03.03-.03.03-.03.02-.02.03-.03.03-.02.03-.02.03-.02.03-.02.03-.02.05-.02.03-.02h.03l.05-.02h.32l.05.02h.03l.05.02v.1l-.02.13v.26l.02.13.03.22.03.11.03.1.03.11.06.1.05.1.05.1.06.1.08.06.06.08.08.08.08.08.1.06.08.06.1.06.1.06.21.1.1.03.11.05.11.03.11.03.11.03.11.02.13.03h.11l.13.02h.11l.13.02h.08l.03-.02h.13l.11-.02h.13l.11-.03.11-.02.11-.03.11-.03.11-.03.11-.05.11-.03.1-.05.1-.05.1-.06.08-.05.1.05.13.05.11.06.14.05.13.05.13.03.14.05.14.03.13.03.14.03.16.02.13.03.14.02.14.02h.53l.13-.02.11-.02.11-.02.13-.02.11-.03.13-.03.11-.05.11-.03.13-.03.1-.05.11-.05.11-.05.11-.06.1-.06.1-.08.1-.06.1-.06.08-.1.08-.08.08-.08.08-.08.08-.11.06-.1.05-.1.06-.11.05-.11.05-.13.03-.11.03-.11.02-.14.02-.08v-.1l.02-.08v-.08l-.02-.08v-.14s.32-.03.32-.03l-.4,2.55h2.03l.4-2.55.69.03-.4,2.53h2l.26-1.57.02-.1.02-.08.05-.08.03-.08.02-.05.02-.03.02-.03.03-.03.02-.03.03-.03.03-.03.02-.02.03-.03.03-.03.03-.02.03-.02.03-.03.05-.02.03-.02h.03l.05-.02.03-.02.05-.02h.1l.03-.02h.19l.03.02h.05l.05.02h.03l.03.02.03.02.06.03.06.03.06.05.03.02-.02.03-.02.1-.02.1v.1l-.02.1v.18l.02.11.02.18.02.1.02.08.02.1.03.1.03.08.03.08.05.08.03.08.05.06.05.08.05.06.06.06.06.06.06.06.06.05.08.05.06.03.08.03.1.05.08.03.1.02.08.02h.11l.1.02.11-.02h.1l.1-.02.1-.02.08-.03.1-.02.08-.05.08-.03.08-.05.08-.05.1-.05.06-.05.08-.06v-.02l.08-.05.08-.06.08-.08h.05l-.16.54h1.99l.4-2.51.43-.03-.4,2.55h2.03l.4-2.55.43.03-.02.05-.05.11-.03.11-.03.13-.02.13-.02.13-.02.13v.24l.02.11.02.11.02.1.03.1.05.1.03.1.05.1.06.08.06.08.05.06.08.08.08.06.06.06.08.06.1.05.08.05.11.05.1.03.1.03.1.03.11.05.11.02.11.03.11.02.13.02h.24l.11.02.1-.02h.18l.1-.02h.1l.1-.02.1-.02.08-.03.11-.03.08-.02.1-.03.1-.03.1-.03.08-.03.1-.05.18-.08.1-.05.08-.05.08-.06.08-.05.06-.06.1-.06.06-.08.06-.06.06-.06.06-.08.05-.08.06-.08.05-.08.05-.1.05-.08h-1.97l-.02.03-.02.03-.02.03-.03.03-.02.03-.03.03-.02.02-.03.03-.03.02-.03.02-.03.02-.05.02-.03.02h-.24l-.03-.02-.03-.02-.03-.02h-.02l-.02-.02-.03-.03-.02-.03-.02-.02-.02-.02-.02-.03v-.02l-.02-.06-.02-.05v-.26l.02-.05v-.06h2.88v.18l.02.1.02.1.02.08.02.1.02.1.03.08.03.1.03.08.05.08.03.06.05.08.05.08.06.06.05.06.06.06.06.06.08.05.06.05.08.03.08.05.1.03.08.02.1.03.1.02.1.02h.19l.1-.02h.1l.1-.03.08-.03.11-.03.08-.02.1-.05.08-.05.1-.05.08-.05.08-.06.02-.02.02-.02.03-.03.03-.05.05-.03.02-.03.03-.03.03-.05.02-.05h.06l-.11.43-.02.08-.03.1-.05.08-.05.1-.03.06-.02.02-.05.06-.03.05-.03.03-.03.03-.03.03-.03.02-.05.03-.03.03-.05.02-.03.03-.03.02-.05.02-.03.03-.06.02-.03.02h-.05l-.05.02h-.05l-.05.02h-.29l-.1-.02-.1-.02-.08-.02-.1-.03-.1-.03-.1-.02-.08-.05-.1-.03-.08-.03-.08-.05-.08-.05-.08-.06-.06-.05-.06-.05-.67,1.36.19.08.11.03.1.03.1.03.11.03.1.03.11.03.11.03.1.02.11.02.11.02.11.02.1.02h.13l.1.02h.38l.13-.02h.13l.14-.02.14-.02.11-.02.14-.03.06-.02.06-.02.13-.03.13-.05.11-.03.13-.05.13-.05.1-.06.13-.06.1-.06.11-.06.1-.08.1-.06.1-.1.08-.1.1-.08.08-.1.08-.11.06-.11.06-.11.06-.11.05-.13.05-.13.03-.14.03-.14.05-.14.61-3.86h-1.95s0,0,0,0ZM141.05,27.83l-.02.05v.06l-.03.05-.02.05-.03.05-.06.08-.05.03-.03.03-.06.03-.05.03-.05.02-.05.02h-.22l-.06-.02-.05-.02-.05-.03-.05-.03-.08-.06-.03-.03-.03-.05-.03-.05-.02-.05-.02-.05-.03-.06v-.22l.02-.06.02-.06.03-.05.02-.05.03-.05.03-.03.05-.05.05-.03.03-.03.05-.03.06-.02.06-.02h.05l.06-.02.05.02h.08l.05.02.05.02.05.03.05.03.05.03.03.05.03.03.03.05.03.05.03.05.02.06v.06l.02.05v.13h0ZM156.5,27.65v.06l-.02.05v.06l-.03.05-.02.06-.02.06-.03.05-.05.05-.03.03-.05.05-.03.03-.05.05-.06.02-.05.03h-.06l-.03.02h-.24l-.03-.02h-.02l-.03-.02-.02-.02h-.02l-.03-.02-.02-.03h-.02l-.03-.05-.03-.03-.02-.05-.02-.05-.02-.05-.02-.05v-.18l.02-.05v-.06l.02-.05.03-.06.02-.05.03-.05.03-.05.03-.03.03-.05.05-.03.03-.05.06-.02.05-.03.05-.02.06-.02h.06l.05-.02.05.02h.06l.05.02.05.02.05.02.05.03.03.03.03.03.03.05.02.03.02.05.02.1.02.05-.02.06h0ZM164.31,27.14v.11h-1.04l.02-.05.03-.11.02-.05.03-.06.03-.05.03-.05.03-.03.03-.03.05-.03.05-.03.05-.03.05-.03.05-.02h.24l.05.02.05.03.05.03.03.03.05.03.03.03.02.05.03.03.02.05.02.06v.1h0,0ZM169.16,27.57v.13l-.02.05-.02.06-.02.05-.03.05-.02.06-.03.05-.03.03-.03.05-.05.03-.05.03-.03.03-.05.02-.06.03-.05.02h-.06l-.06.02-.06-.02h-.06l-.05-.02-.05-.02-.06-.03-.03-.03-.03-.03-.03-.03-.03-.03-.02-.05-.03-.05v-.05l-.02-.06-.02-.05.02-.06.02-.06v-.06l.02-.05.03-.06.02-.05.03-.05.03-.05.03-.05.05-.05.05-.03.05-.03.1-.05.06-.03.05-.02h.19l.05.02.05.02.05.02.05.02.03.03.03.03.03.05.03.05.02.05.02.05.02.05v.1h0ZM130.74,23.78l.62-.16-.37.43.69.14-.82.16.38.5-.54-.19.02.03v.11l.02.19.02.06v.1h-.02l-.02-.02-.03-.02-.06-.06-.06-.08-.08-.08-.05-.08-.05-.05-.02-.02-.11.56v-.85h.03l.03-.02h.03l.03-.02.03-.02.03-.02.02-.02.03-.02.03-.03.03-.05.02-.03v-.03l.02-.03v-.13l-.02-.03v-.03l-.02-.03-.02-.03-.02-.03-.03-.02-.03-.02-.02-.02-.03-.02-.03-.02-.03-.02h-.03l-.03-.02h-.03v-.94l.16.61.43-.29-.11.61h0ZM130.19,22.77h.05l.02.08v.94h-.03l-.03.02h-.03l-.03.02-.03.02-.03.02-.03.02-.02.02-.03.02-.02.03-.02.03-.02.03v.03l-.02.03v.13l.02.03v.03l.02.03.02.03.02.02.03.03.02.02.03.02.03.02.03.02.03.02h.03l.03.02h.03v.85l-.05.26-.14-.82-.5.51.21-.61-.45.03.29-.32-.72-.16.7-.14-.42-.45.5.1-.18-.54.53.4.15-.8h0ZM177.55,25.81l.06.02h.06l.08.02.05.02.06.03.05.03.05.03.05.05.05.05.03.05.05.06.02.05.03.06.02.06v.29l-.02.05-.05.14-.05.05-.03.05-.05.05-.05.03-.05.05-.05.03-.06.03-.05.02-.08.02-.06.02h-.06v.13h.13l.03-.02h.05l.03-.02.05-.02.03-.02.03-.02.05-.02.02-.02.05-.02.03-.02.02-.03.03-.02.05-.03.02-.03.03-.03.02-.02.03-.03.02-.03.02-.03.02-.05.02-.03.02-.03.02-.03.02-.05.02-.05v-.08l.02-.03v-.09l-.02-.05v-.08l-.02-.03-.02-.05-.02-.03-.02-.03-.02-.03-.02-.05-.02-.03-.02-.03-.03-.03-.02-.03-.03-.02-.02-.03-.05-.02-.03-.03-.02-.02-.03-.03-.05-.02-.02-.02-.05-.03-.03-.02-.03-.02h-.05l-.03-.02h-.05l-.03-.02h-.13v.13h0ZM177.55,26.55v-.11h.08l.05-.02.03-.02.02-.02h.02l.02-.02v-.02l.02-.02v-.13h-.02v-.02l-.02-.02h-.02l-.02-.02-.03-.02h-.13v-.13h.13l.03.02h.06l.02.02.03.02.02.02.02.02.02.02.02.03.02.02v.03l.02.02.02.03v.06l-.02.03-.02.03v.02l-.02.02v.03l-.02.02-.02.02-.02.02-.02.02h-.02l-.03.02-.03.02h-.06l.27.42h-.16l-.24-.4h0ZM176.88,26.48v-.08l.03-.06v-.06l.03-.06.02-.05.03-.06.05-.05.03-.05.06-.05.05-.03.05-.03.05-.03.08-.02.05-.02h.08l.06-.02v-.13h-.13l-.03.02h-.05l-.03.02h-.05l-.03.02-.03.02-.03.03-.03.02-.05.02-.03.03-.03.02-.03.03-.02.02-.03.03-.03.02-.03.03-.02.03-.02.03-.02.03-.03.05-.02.03v.03l-.02.03-.02.05v.03l-.02.05v.26l.02.03v.05l.02.05.02.03v.03l.02.03.03.05.02.03.02.03.02.03.03.02.03.03.03.03.02.03.03.02.03.03.03.02.05.02.03.02.03.02.03.02.03.02.05.02.03.02h.05l.03.02h.13v-.13h-.06l-.08-.02-.05-.02-.08-.02-.05-.03-.05-.03-.05-.05-.06-.03-.03-.05-.05-.05-.03-.05-.05-.14v-.05l-.03-.08v-.06h0ZM177.55,26.02v.13h-.18v.29h.18v.11h-.18v.4h-.14v-.93h.32Z"/>
  </g>
</svg>