<?xml version="1.0" encoding="UTF-8"?>
<svg id="Capa_1" data-name="Capa 1" xmlns="http://www.w3.org/2000/svg" xmlns:xlink="http://www.w3.org/1999/xlink" viewBox="0 0 425.5 53">
  <defs>
    <style>
      .cls-1 {
        fill: #0557a5;
      }

      .cls-2 {
        fill: #434244;
      }

      .cls-3 {
        fill: url(#Degradado_sin_nombre_16);
      }

      .cls-4 {
        fill: #444345;
      }

      .cls-5, .cls-6 {
        fill: #00aeef;
      }

      .cls-7 {
        fill: #f05824;
      }

      .cls-8 {
        fill: #a6a8aa;
      }

      .cls-9 {
        fill: #fff;
      }

      .cls-10 {
        fill: #f05723;
      }

      .cls-11 {
        fill: none;
      }

      .cls-12 {
        fill: #29b5e8;
      }

      .cls-13 {
        fill: #474648;
      }

      .cls-14 {
        fill: #747375;
      }

      .cls-15 {
        fill: url(#Degradado_sin_nombre_2);
        opacity: .05;
      }

      .cls-16 {
        fill: #f48223;
      }

      .cls-17 {
        fill: #31ace8;
      }

      .cls-18 {
        fill: #00a0df;
      }

      .cls-19 {
        fill: #484749;
      }

      .cls-20 {
        fill: #f48226;
      }

      .cls-21 {
        fill: #a7a8aa;
      }

      .cls-21, .cls-6, .cls-22 {
        fill-rule: evenodd;
      }

      .cls-23 {
        fill: #464547;
      }

      .cls-24 {
        fill: #424143;
      }

      .cls-25 {
        fill: #ebebeb;
      }

      .cls-26 {
        fill: #414042;
      }

      .cls-27 {
        fill: #929293;
      }

      .cls-28 {
        fill: #59585a;
      }

      .cls-29 {
        fill: #656466;
      }

      .cls-30 {
        fill: #474647;
      }
    </style>
    <linearGradient id="Degradado_sin_nombre_2" data-name="Degradado sin nombre 2" x1="138.84" y1="-163.18" x2="373.16" y2="188.67" gradientUnits="userSpaceOnUse">
      <stop offset="0" stop-color="#fff"/>
      <stop offset="1" stop-color="#000"/>
    </linearGradient>
    <linearGradient id="Degradado_sin_nombre_16" data-name="Degradado sin nombre 16" x1="-2.17" y1="26.49" x2="103.71" y2="26.49" gradientUnits="userSpaceOnUse">
      <stop offset="0" stop-color="#00aeef"/>
      <stop offset=".36" stop-color="#049ddf"/>
      <stop offset="1" stop-color="#0f75bc"/>
    </linearGradient>
    <clipPath id="clippath">
      <rect class="cls-11" x="553.83" y="-823.66" width="960.22" height="540.01"/>
    </clipPath>
  </defs>
  <rect class="cls-15" x="104.97" y="-.03" width="320.36" height="53.03"/>
  <rect class="cls-3" x="-.49" y="-.03" width="103.44" height="53.03"/>
  <g>
    <path class="cls-9" d="M9.33,9.4h3.65c2.31,0,3.44,1.28,3.44,3.63v7.43c0,2.35-1.13,3.63-3.44,3.63h-3.65v-14.7ZM11.64,11.5v10.5h1.3c.74,0,1.18-.38,1.18-1.43v-7.64c0-1.05-.44-1.43-1.18-1.43h-1.3Z"/>
    <path class="cls-9" d="M25.35,24.1h-2.33l-.4-2.67h-2.83l-.4,2.67h-2.12l2.35-14.7h3.38l2.35,14.7ZM20.08,19.44h2.23l-1.11-7.43-1.11,7.43Z"/>
    <path class="cls-9" d="M24.96,9.4h7.14v2.1h-2.41v12.6h-2.31v-12.6h-2.41v-2.1Z"/>
    <path class="cls-9" d="M39.78,24.1h-2.33l-.4-2.67h-2.83l-.4,2.67h-2.12l2.35-14.7h3.38l2.35,14.7ZM34.51,19.44h2.22l-1.11-7.43-1.11,7.43Z"/>
    <path class="cls-9" d="M10.3,43.15h-.97v-14.7h.97v14.7Z"/>
    <path class="cls-9" d="M11.98,43.15v-14.7h1.26l4.41,12.41v-12.41h.88v14.7h-1.07l-4.6-13.1v13.1h-.88Z"/>
    <path class="cls-9" d="M22.67,29.33h-2.98v-.88h6.95v.88h-3v13.82h-.97v-13.82Z"/>
    <path class="cls-9" d="M32.81,36.13h-4.01v6.13h4.83v.88h-5.8v-14.7h5.8v.88h-4.83v5.92h4.01v.88Z"/>
    <path class="cls-9" d="M40.71,29.34c.52.68.78,1.58.78,2.7v1.09h-.92v-1.15c0-.84-.18-1.51-.54-2.02-.36-.5-.92-.76-1.69-.76s-1.33.25-1.69.76c-.36.5-.54,1.18-.54,2.02v7.64c0,.84.18,1.51.54,2.01.36.5.92.75,1.69.75s1.33-.25,1.69-.75c.36-.5.54-1.17.54-2.01v-3.17h-1.95v-.88h2.88v3.99c0,1.12-.26,2.02-.78,2.7s-1.32,1.02-2.39,1.02-1.88-.34-2.39-1.02c-.52-.68-.78-1.58-.78-2.7v-7.52c0-1.12.26-2.02.78-2.7.52-.68,1.32-1.02,2.39-1.02s1.88.34,2.39,1.02Z"/>
    <path class="cls-9" d="M49.32,31.76v1.28c0,.87-.17,1.55-.51,2.05-.34.5-.88.83-1.61,1,1.41.31,2.12,1.31,2.12,3v2.29c0,.81.12,1.4.36,1.76h-1.01c-.13-.21-.21-.45-.25-.72-.04-.27-.06-.62-.06-1.04v-2.31c0-.92-.23-1.57-.69-1.94-.46-.37-1.15-.56-2.06-.56h-1.53v6.57h-.97v-14.7h3.07c2.1,0,3.15,1.11,3.15,3.32ZM47.68,35.17c.45-.35.67-.99.67-1.93v-1.39c0-.83-.17-1.45-.52-1.88-.35-.43-.91-.64-1.68-.64h-2.08v6.36h1.55c.92,0,1.61-.17,2.06-.53Z"/>
    <path class="cls-9" d="M51.88,43.15h-.88l3.21-14.72h1.41l3.28,14.72h-.97l-.73-3.25h-4.58l-.74,3.25ZM57.04,39.05l-2.16-9.51-2.12,9.51h4.28Z"/>
    <path class="cls-9" d="M62.04,29.33h-2.98v-.88h6.95v.88h-3v13.82h-.97v-13.82Z"/>
    <path class="cls-9" d="M68.17,43.15h-.97v-14.7h.97v14.7Z"/>
    <path class="cls-9" d="M70.6,29.34c.54-.68,1.34-1.02,2.4-1.02s1.91.34,2.45,1.01.81,1.58.81,2.71v7.52c0,1.13-.27,2.04-.81,2.71-.54.67-1.35,1.01-2.45,1.01s-1.87-.34-2.4-1.02c-.54-.68-.81-1.58-.81-2.7v-7.52c0-1.12.27-2.02.81-2.7ZM71.3,41.64c.36.5.93.75,1.7.75s1.36-.25,1.73-.75c.37-.5.56-1.17.56-2.03v-7.64c0-.85-.19-1.53-.56-2.03-.37-.5-.95-.75-1.73-.75s-1.34.25-1.7.75c-.36.5-.55,1.17-.55,2.03v7.64c0,.85.18,1.53.55,2.03Z"/>
    <path class="cls-9" d="M77.85,43.15v-14.7h1.26l4.41,12.41v-12.41h.88v14.7h-1.07l-4.6-13.1v13.1h-.88Z"/>
    <path class="cls-9" d="M91.49,29.32c.51.67.77,1.56.77,2.68v.32h-.92v-.38c0-.84-.18-1.5-.53-2s-.9-.74-1.66-.74-1.31.25-1.66.74c-.35.49-.52,1.15-.52,1.97,0,.53.11,1,.34,1.42.22.41.5.77.83,1.07.33.3.78.66,1.35,1.08.6.43,1.09.82,1.47,1.16.38.34.69.75.94,1.24.25.49.38,1.06.38,1.72,0,1.12-.26,2.01-.78,2.68-.52.67-1.32,1-2.39,1s-1.88-.33-2.39-1c-.52-.66-.78-1.56-.78-2.68v-.76h.92v.82c0,.84.18,1.5.54,1.98.36.48.92.72,1.69.72s1.33-.24,1.69-.72c.36-.48.54-1.14.54-1.98,0-.53-.11-1-.34-1.41-.22-.41-.5-.76-.83-1.06-.33-.3-.77-.65-1.33-1.06-.6-.43-1.09-.82-1.47-1.17s-.7-.76-.96-1.26c-.26-.5-.39-1.07-.39-1.73,0-1.13.26-2.02.78-2.67.52-.64,1.3-.97,2.35-.99,1.06,0,1.85.33,2.36,1Z"/>
  </g>
  <g>
    <path class="cls-21" d="M399.03,27.48h.57c.02.18.07.35.12.51l-.49.28c.09.21.19.41.32.59l.5-.26c.17.22.38.42.61.57l-.23.52c.19.12.4.21.61.28l.25-.51c.27.08.55.11.83.09l.13.55c.22-.02.44-.07.66-.14l-.11-.56c.26-.1.51-.24.72-.43l.44.36c.17-.15.31-.32.44-.51l-.42-.38c.15-.24.26-.5.32-.77l.57.03c.04-.22.06-.45.05-.67l-.57-.05c-.02-.28-.09-.56-.21-.81l.47-.32c-.1-.2-.22-.39-.36-.57l-.49.3c-.18-.21-.41-.39-.65-.53l.19-.54c-.2-.1-.41-.18-.63-.24l-.21.53c-.28-.06-.56-.07-.84-.03l-.17-.54c-.22.04-.44.1-.65.19l.15.55c-.26.12-.49.28-.69.48l-.46-.33c-.15.16-.29.34-.4.54l.45.35c-.14.25-.23.52-.27.8h-.57c-.01.12-.02.24-.02.35,0,.11,0,.22.02.33h0ZM401.98,25.62c.84,0,1.53.69,1.53,1.53,0,.85-.69,1.53-1.53,1.53-.84,0-1.53-.69-1.53-1.53,0-.85.69-1.53,1.53-1.53Z"/>
    <path class="cls-6" d="M412.02,29.58c-.25,0-.49-.04-.72-.12-.23-.08-.42-.16-.55-.25l-.11.28h-.3l-.05-1.56h.28c.04.13.1.27.19.43.09.16.19.3.3.42.12.13.26.23.41.32.15.09.32.13.49.13.23,0,.4-.05.52-.15.11-.1.17-.25.17-.46,0-.11-.03-.2-.08-.28-.06-.08-.13-.14-.21-.19-.1-.06-.21-.11-.33-.14-.12-.04-.26-.09-.44-.14-.15-.05-.3-.1-.44-.17-.12-.06-.25-.15-.38-.27-.12-.11-.21-.25-.27-.39-.07-.15-.1-.33-.1-.55,0-.39.15-.71.45-.95.3-.24.7-.36,1.18-.36.22,0,.43.02.64.08.19.05.36.11.49.17l.08-.25h.29l.06,1.42h-.27c-.09-.28-.24-.54-.46-.75-.22-.21-.45-.31-.7-.31-.2,0-.35.04-.46.13-.11.09-.17.21-.17.37,0,.21.08.36.25.46.16.1.39.18.69.27.46.13.79.3,1,.52.21.22.32.5.32.85,0,.46-.16.81-.49,1.06-.33.25-.75.38-1.28.38h0ZM408.06,28.6v-2.36c-.02-.07-.05-.14-.07-.21-.03-.08-.08-.15-.13-.22-.06-.06-.13-.12-.2-.15-.09-.05-.19-.07-.29-.07-.25,0-.46.16-.63.47-.16.32-.24.76-.24,1.33,0,.23.01.43.04.61.03.17.08.34.15.49.07.15.17.26.28.35.12.08.25.13.42.13s.28-.03.38-.1c.11-.07.2-.16.28-.26h0ZM410.01,29.35l-1.88.12-.06-.06v-.38h-.03c-.12.14-.29.27-.5.38-.21.11-.43.16-.64.16-.51,0-.94-.21-1.27-.63-.33-.42-.5-.96-.5-1.62,0-.59.19-1.09.56-1.51.37-.42.82-.63,1.35-.63.21,0,.4.03.59.08s.33.11.44.18v-1.37c0-.1-.02-.2-.06-.29-.04-.09-.09-.16-.15-.21-.09-.07-.19-.11-.3-.13-.12-.03-.24-.04-.36-.06v-.3l2.06-.11.06.07v5.48c0,.11.02.19.05.27.03.07.08.13.15.17.05.03.13.05.23.07s.19.02.25.03v.3h0ZM399.24,29.43h-2.29v-.31c.05,0,.11-.01.18-.02.07,0,.12-.02.15-.04.05-.03.09-.08.11-.13.02-.06.03-.14.03-.26v-1.95c0-.29-.05-.5-.15-.64-.1-.14-.24-.21-.42-.21-.1,0-.2.02-.28.05-.09.04-.18.09-.26.15-.07.06-.13.11-.18.17s-.08.11-.11.15v2.24c0,.1.01.18.03.24.02.06.07.11.13.15.04.03.09.05.15.07.06.02.12.03.18.04v.31h-2.32v-.31c.07,0,.13-.01.19-.02.06,0,.12-.02.17-.04.08-.03.14-.08.16-.14.03-.06.04-.15.04-.25v-4.66c0-.1-.02-.19-.06-.28-.04-.1-.09-.18-.16-.23-.05-.04-.12-.07-.22-.09-.09-.02-.17-.03-.26-.04v-.3l1.89-.11.06.07v2.87h.02c.1-.09.18-.18.26-.26.09-.08.18-.16.28-.23.09-.07.22-.12.37-.17.16-.05.32-.07.49-.07.41,0,.72.13.93.39.21.26.31.6.31,1.02v2.05c0,.1.01.19.04.25.03.06.08.11.16.15.05.02.1.04.15.06.06.02.12.03.21.04v.31h0Z"/>
    <path class="cls-6" d="M394.17,29.24c-.16.08-.34.15-.52.21-.19.06-.41.09-.68.09-.4,0-.69-.11-.88-.32-.19-.21-.29-.51-.29-.91v-2.56h-.69v-.45c.89-.02,1.24-.25,1.61-1.26h.33v1.26h1.07v.45h-1.06v2.29c0,.33.04.56.12.69.08.14.23.2.44.2.07,0,.16,0,.29-.02.12,0,.21-.02.26-.04v.35h0ZM389.75,26.85c0-.17,0-.34-.02-.51-.02-.18-.04-.32-.08-.43-.04-.13-.1-.23-.18-.3-.08-.07-.17-.1-.28-.1-.2,0-.35.11-.47.33-.12.22-.18.56-.19,1.03l1.22-.02h0ZM391.2,28.44c-.09.16-.2.31-.32.45-.13.14-.27.26-.43.36-.16.1-.33.18-.52.24-.17.05-.37.08-.6.08-.38,0-.7-.06-.97-.17-.27-.12-.5-.28-.68-.47-.18-.2-.32-.44-.4-.7-.09-.27-.13-.56-.13-.88,0-.28.05-.56.14-.82.09-.25.23-.49.41-.69.17-.2.39-.36.65-.48s.56-.18.88-.18c.36,0,.65.05.88.14.23.1.42.23.57.39.15.16.25.35.32.56.07.22.1.44.1.68v.27h-2.58c0,.57.1,1.01.3,1.3.2.3.52.45.96.45.23,0,.46-.07.64-.22.2-.15.36-.33.49-.54l.29.23h0ZM386.59,29.43h-2.93v-.33c.09,0,.19-.02.32-.04.12-.02.21-.04.26-.06.09-.04.16-.1.2-.17.04-.07.06-.16.06-.28v-4.83l-1.86,5.61h-.48c-.02-.09-.08-.28-.17-.55-.09-.27-.17-.49-.22-.66l-1.37-4.47v4c0,.34.02.61.06.79.04.18.11.31.2.39.06.06.18.11.34.17.16.05.28.08.34.09v.33h-2.32v-.33c.06,0,.17-.03.31-.06.14-.03.26-.08.35-.15.1-.08.17-.21.21-.4.04-.19.05-.45.05-.79v-3.34c0-.18-.02-.33-.06-.44-.04-.12-.1-.21-.18-.28-.1-.09-.21-.14-.31-.17-.11-.02-.21-.04-.32-.05v-.33h2.49l1.33,4.31,1.13-3.58c.04-.12.07-.26.11-.42.04-.16.05-.27.06-.32h2.4v.33c-.09,0-.17.02-.25.03-.09.02-.17.04-.25.07-.1.04-.16.09-.2.17-.03.08-.05.17-.05.26v4.6c0,.1.02.18.05.25.03.07.1.13.2.18.05.03.13.05.25.07.11.02.2.04.27.05v.33h0Z"/>
    <path class="cls-22" d="M377.49,27.44c0-.21-.01-.42-.04-.61-.03-.2-.08-.37-.15-.52-.07-.15-.16-.27-.27-.36-.11-.09-.25-.14-.42-.14-.15,0-.28.03-.38.08-.11.06-.2.14-.27.25v2.43c.01.06.04.13.09.22.04.09.08.16.13.21.06.07.12.13.19.17.07.04.17.06.29.06.26,0,.46-.16.61-.47.15-.31.23-.75.23-1.32ZM378.86,27.39c0,.63-.19,1.15-.57,1.56-.38.41-.86.62-1.43.62-.22,0-.42-.02-.58-.05-.14-.03-.28-.07-.41-.13-.1-.04-.19-.1-.28-.16-.06-.04-.11-.08-.17-.13l-.55.54-.22-.1c.01-.2.02-.42.03-.66,0-.24.01-.56.01-.96v-3.91c0-.1-.02-.2-.06-.29-.04-.09-.09-.16-.16-.21-.05-.03-.12-.06-.21-.09-.08-.02-.17-.04-.26-.05v-.3l1.88-.11.06.07v2.71h.02c.19-.2.38-.34.57-.43.2-.09.39-.14.59-.14.53,0,.95.2,1.26.6.31.4.46.94.46,1.62h0ZM372.49,26.85c0-.17,0-.34-.02-.51-.02-.18-.04-.32-.08-.43-.04-.13-.1-.23-.18-.3-.08-.07-.17-.1-.28-.1-.2,0-.35.11-.47.33-.12.22-.18.56-.19,1.03l1.22-.02h0ZM373.95,28.44c-.09.16-.2.31-.32.45-.13.14-.27.26-.43.36-.16.1-.34.18-.52.24-.17.05-.37.08-.6.08-.38,0-.7-.06-.97-.17-.27-.12-.5-.28-.68-.47-.18-.2-.32-.44-.4-.7-.09-.27-.13-.56-.13-.88,0-.28.05-.56.14-.82.09-.25.23-.49.41-.69.17-.2.39-.36.65-.48.26-.12.56-.18.88-.18.36,0,.65.05.88.14.23.1.42.23.57.39.15.16.25.35.32.56.07.22.1.44.1.68v.27h-2.58c0,.57.1,1.01.3,1.3.2.3.52.45.96.45.24,0,.45-.07.64-.22.2-.15.36-.33.49-.54l.29.23h0ZM370.15,25.6c-.12.02-.23.06-.32.13-.1.07-.18.19-.25.37-.18.48-.32.86-.43,1.15-.11.29-.26.71-.45,1.27-.05.16-.1.31-.15.47-.06.2-.1.37-.14.49h-.74l-.96-2.84-.9,2.84h-.74c-.2-.59-.4-1.18-.61-1.77-.19-.55-.39-1.11-.59-1.66-.04-.13-.12-.23-.23-.31-.11-.07-.22-.12-.34-.14v-.3h2.34v.3c-.09,0-.19.03-.31.07-.12.04-.18.09-.18.15,0,.03,0,.05,0,.07,0,.02.02.06.03.12.07.22.16.5.28.84s.26.74.42,1.2l.85-2.75h.75l.96,2.84c.15-.43.26-.77.34-1.01.08-.24.18-.56.3-.95.02-.06.03-.11.03-.16s0-.08,0-.09c0-.05-.02-.1-.07-.14-.05-.04-.1-.07-.16-.1-.11-.04-.22-.07-.34-.09v-.3h1.57v.3h0Z"/>
  </g>
  <g>
    <path class="cls-10" d="M305.21,21.24c.42-.43.84-.88,1.27-1.3.05-.05.23-.27.3-.17-.81,2.81-1.63,5.62-2.4,8.44-.16.6-.27,1.22-.47,1.82-.05.15.06.19-.21.16-1.05-1.05-2.36-2.15-3.29-3.28-.14-.17-.45-.39-.28-.58,1.71-1.67,3.39-3.39,5.07-5.09Z"/>
    <path class="cls-16" d="M309.32,25.75l-1.99-6.35,7.06,7.07-3.61,3.57-.09-.05-.96-3.01c.64-.14,1.38-.26,2-.43.07-.02.21-.02.19-.11-.86-.27-1.74-.45-2.6-.68Z"/>
    <path class="cls-20" d="M304.39,28.21l5.89,2.36-3.05,3.11c-1.24-1.08-2.36-2.32-3.53-3.49.27.03.16,0,.21-.16.2-.6.31-1.22.47-1.82Z"/>
    <path class="cls-4" d="M334.81,24.45h.62s.03.48.03.48c.51-.61,1.3-.8,2-.35.21.13.27.33.36.39.22.15.21-.1.34-.21.69-.59,1.75-.61,2.3.18.05.07.24.46.24.51v3.11h-.62v-2.77s-.16-.37-.19-.42c-.37-.58-1.21-.53-1.58.03-.04.06-.22.44-.22.47v2.7h-.57s-.1-.11-.1-.11c-.11-.84.11-1.91-.01-2.72-.12-.76-1.12-1.01-1.64-.46-.09.1-.34.56-.34.66v2.63h-.62v-4.1Z"/>
    <path class="cls-1" d="M309.32,25.75c.87.23,1.75.42,2.6.68.02.1-.12.1-.19.11-.62.17-1.36.29-2,.43-1.04.22-2.1.44-3.15.62-.01-.01-.11.03-.13-.03l.13-2.56c.91.26,1.83.51,2.74.75Z"/>
    <path class="cls-23" d="M344.27,26.02c.08-1.41-1.41-1.15-2.33-.82l-.14-.55c1.03-.45,2.68-.61,3.05.75.09.34.18,2.93.07,3.08l-.59.06c.08-.87-.2-.29-.62-.1-1.08.47-2.47-.1-2.24-1.42.06-.33.31-.62.6-.77.12-.06.62-.24.72-.24h1.47ZM344.34,26.5h-1.4c-.23,0-.71.27-.77.53-.32,1.41,1.95,1.35,2.16.17.04-.23,0-.47.02-.7Z"/>
    <path class="cls-23" d="M357.22,26.02c-.06-1.35-1.35-1.22-2.29-.83-.12-.03-.22-.43-.15-.54,1.4-.63,2.91-.46,3.06,1.33.02.29.04,2.4-.03,2.5l-.59.06s.1-.56-.1-.48c-.6.76-2.21.74-2.63-.18-.31-.66-.08-1.42.61-1.7.09-.04.52-.17.58-.17h1.54ZM357.22,26.5h-1.4c-.23,0-.71.28-.77.53-.31,1.19,1.38,1.34,1.97.6.28-.36.2-.7.21-1.13Z"/>
    <path class="cls-13" d="M330.47,28.05c-2.03,1.97-4.81-1.29-2.83-3.16s4.79,1.25,2.83,3.16ZM328.69,24.94c-1.43.29-1.39,2.84.06,3.05,2.37.34,2.13-3.5-.06-3.05Z"/>
    <path class="cls-23" d="M323.78,28.55h-.57s-.1-.11-.1-.11c-.1-.83.1-1.84-.02-2.65-.15-1.03-1.6-1.11-2-.23-.02.05-.12.34-.12.36v2.63h-.62v-4.1h.62s.03.55.03.55c.55-.88,1.91-.91,2.49-.02.11.17.29.63.29.81v2.77Z"/>
    <path class="cls-19" d="M353.7,27.55c.09.06.25.23.17.35-.76,1.14-2.69.88-3.31-.33-1.1-2.16,1.43-4.24,3.06-2.78.43.38.2.4-.14.75-.66-.86-1.95-.82-2.38.23-.67,1.64,1.08,3.05,2.39,1.7.09-.02.14.05.2.08Z"/>
    <path class="cls-7" d="M309.73,26.98l.96,3.01-4-2.2c-.09-.03-.09-.17-.11-.2,1.06-.17,2.11-.39,3.15-.62Z"/>
    <path class="cls-24" d="M325.01,25h-.75s0-.5,0-.5c.07-.2.57-.08.74-.11-.18-1.23.55-2.16,1.82-1.64l.03.55c-1.01-.27-1.32.1-1.23,1.09h1.23v.62h-1.23v3.55h-.62v-3.55Z"/>
    <path class="cls-24" d="M346.74,24.45h1.23v.55h-1.23v2.56s.14.27.16.29c.37.36,1.04-.02,1.08.02v.53c-.48.26-1.38.25-1.67-.27-.03-.05-.18-.48-.18-.51v-2.63h-.69s0-.51,0-.51l.69-.04v-1.09l.62-.34v1.44Z"/>
    <path class="cls-2" d="M331.93,24.45h.62s.03.82.03.82c.37-.52.85-.99,1.54-.89v.68c-.57-.1-1.17.34-1.38.84-.04.09-.19.63-.19.7v1.95h-.62v-4.1Z"/>
    <polygon class="cls-26" points="319.19 28.48 318.57 28.48 318.57 23.12 319.19 22.74 319.19 28.48"/>
    <rect class="cls-30" x="348.86" y="24.45" width=".62" height="4.1"/>
    <path class="cls-23" d="M349.48,22.94v.75s-.62-.03-.62-.03c-.13-.09-.04-.55-.06-.72h.69Z"/>
    <path class="cls-27" d="M358.93,24.52s0,.09,0,.14h-.27s-.14.2-.14.2c-.01-.11-.01-.19.07-.27.01-.01.12,0,.14-.07.05,0,.16,0,.21,0Z"/>
    <polygon class="cls-8" points="358.25 24.52 358.11 24.52 358.14 24.38 358.45 24.38 358.45 24.52 358.32 24.52 358.28 24.45 358.25 24.52"/>
    <path class="cls-29" d="M358.93,24.52s.01-.09.07-.07v.41s-.07,0-.07,0c0-.07,0-.14,0-.2,0-.05,0-.09,0-.14Z"/>
    <polygon class="cls-14" points="358.32 24.52 358.28 24.86 358.25 24.52 358.28 24.45 358.32 24.52"/>
    <path class="cls-28" d="M358.73,24.52c-.02.07-.13.06-.14.07v-.14c.07-.03.13.07.14.07Z"/>
    <path class="cls-20" d="M300.41,26.91c-.12-.08-.41-.31-.41-.44l.07-.14,5.14-5.09c-1.68,1.7-3.36,3.41-5.07,5.09-.18.2.14.41.28.58Z"/>
  </g>
  <g id="Page-1">
    <g id="Group">
      <path id="Path" class="cls-12" d="M186.73,29.82l-2.64-1.53c-.37-.21-.85-.09-1.06.28-.08.15-.12.31-.1.46v2.98c0,.43.35.77.77.77s.77-.35.77-.77v-1.72l1.48.86c.37.21.85.09,1.06-.28.21-.37.09-.85-.28-1.06"/>
      <path id="Path2" class="cls-12" d="M180.16,26.54c0-.28-.14-.53-.38-.67l-2.64-1.53c-.11-.07-.25-.1-.38-.1-.27,0-.52.15-.66.38-.21.36-.08.83.28,1.04l1.52.88-1.52.88c-.18.1-.3.26-.35.46-.05.2-.03.4.08.58.14.23.39.38.66.38.13,0,.26-.03.38-.1l2.64-1.53c.24-.14.38-.39.38-.66"/>
      <path id="Path3" class="cls-12" d="M177.74,23.27l2.64,1.53c.31.18.69.12.93-.12.15-.14.25-.34.25-.57v-3.06c0-.43-.35-.77-.77-.77s-.77.35-.77.77v1.74l-1.5-.87c-.37-.21-.85-.09-1.06.28-.21.37-.09.85.28,1.06"/>
      <path id="Combined-Shape" class="cls-12" d="M183.68,26.67c0,.06-.03.14-.08.18l-1.05,1.05s-.12.08-.18.08h-.27c-.06,0-.14-.03-.18-.08l-1.05-1.05s-.08-.12-.08-.18v-.27c0-.06.03-.14.08-.18l1.05-1.05s.12-.08.18-.08h.27c.06,0,.14.03.18.08l1.05,1.05s.08.12.08.18v.27ZM182.75,26.54h0c0-.05-.02-.11-.06-.15l-.31-.31s-.09-.06-.13-.06h-.01s-.1.02-.13.06l-.31.31s-.06.09-.06.13h0c0,.06.02.11.06.15l.31.31s.09.06.13.06h.01s.1-.02.13-.06l.31-.31s.06-.09.06-.13Z"/>
      <path id="Path4" class="cls-12" d="M184.09,24.79l2.64-1.53c.37-.21.5-.69.28-1.06-.21-.37-.69-.5-1.06-.28l-1.48.86v-1.73c0-.43-.35-.77-.77-.77s-.77.35-.77.77v3c-.01.16.02.32.1.46.21.37.69.5,1.06.28"/>
      <path id="Path5" class="cls-12" d="M180.91,28.2c-.18-.03-.36,0-.53.09l-2.64,1.53c-.37.21-.5.69-.28,1.06.21.37.69.5,1.06.28l1.5-.87v1.73c0,.43.35.77.77.77s.77-.35.77-.77v-3.06c0-.39-.28-.71-.65-.76"/>
      <path id="Path6" class="cls-12" d="M188.39,24.62c-.21-.37-.69-.5-1.06-.28l-2.64,1.53c-.25.15-.39.41-.39.69,0,.27.14.54.39.68l2.64,1.53c.37.21.85.09,1.06-.28.21-.37.09-.85-.28-1.06l-1.5-.86,1.5-.86c.37-.21.5-.69.28-1.06"/>
      <path id="Combined-Shape2" class="cls-12" d="M229,26.36h0v.03c0,.14-.12.25-.27.25h-3.71c0,.09.02.17.04.26.17.8.86,1.4,1.68,1.41h.22s.03,0,.05,0c.02,0,.03,0,.05,0,0,0,0,0,0,0,.27-.02.54-.13.79-.31h0s.03-.02.04-.03c0,0,0,0,0,0,.01,0,.02-.02.03-.03,0,0,0,0,.01-.01,0,0,.02-.01.03-.02,0,0,.01-.01.02-.01,0,0,.01-.01.02-.02,0,0,.01-.01.02-.02,0,0,.01-.01.02-.02,0,0,.02-.02.03-.02,0,0,0-.01.01-.01l.03-.03h.01s.02-.03.03-.04c0,0,0,0,.01-.01.01-.01.02-.02.03-.03,0,0,0,0,.01-.01,0-.01.02-.02.03-.03v-.02s.03-.02.04-.03.01-.02.02-.02.01-.01.02-.02c0-.01.02-.02.03-.04,0,0,0,0,0-.01.02-.03.04-.07.07-.1,0,0,0,0,0,0,0,0,.01-.01.02-.02,0,0,0,0,0,0,0,0,0,0,.01-.01h.01s0-.02.01-.02c0,0,0,0,.01,0,0,0,.01,0,.02-.01,0,0,.01,0,.01,0,0,0,.01,0,.01,0s0,0,.01,0c0,0,.01,0,.02,0,0,0,0,0,0,0,.02,0,.04,0,.07,0,.02,0,.05,0,.07.01h0s.02,0,.03.01c0,0,0,0,0,0,.01,0,.02,0,.03.01h0c.12.09.16.25.09.38h0s-.02.03-.03.04h0c-.26.41-.62.73-1.02.92,0,0-.02,0-.03.01,0,0,0,0,0,0-.18.09-.38.15-.59.17,0,0,0,0-.01,0-.02,0-.04,0-.05,0-.01,0-.02,0-.03,0-.01,0-.03,0-.04,0-.02,0-.05,0-.07,0h-.22c-1.25,0-2.25-1.05-2.25-2.33s1.01-2.34,2.27-2.34c.04,0,.07,0,.11,0,.44.02.84.17,1.18.42,0,0,0,0,0,0,.02.01.04.03.06.04,0,0,.02.02.03.02,0,0,.02.01.03.02.47.39.79.99.85,1.67h0ZM225.05,26.11h3.36c-.17-.81-.86-1.4-1.67-1.4s-1.51.57-1.69,1.4Z"/>
      <path id="Combined-Shape3" class="cls-12" d="M219.51,24.26s.07.1.08.16c0,0,0,.02,0,.03v4.13c0,.15-.12.27-.27.27s-.27-.12-.27-.27v-.55c-.1.12-.21.24-.34.33,0,0,0,0-.01,0-.01,0-.02.02-.03.03-.37.29-.82.45-1.29.45-.76,0-1.43-.4-1.83-1.02,0,0,0-.01-.01-.01-.01-.02-.02-.04-.03-.06,0-.01-.01-.02-.02-.04s-.01-.03-.02-.04c-.01-.02-.02-.04-.03-.06,0,0,0-.01,0-.02-.15-.29-.24-.62-.25-.97,0-.04,0-.08,0-.12s0-.08,0-.12c.02-.35.11-.68.25-.97,0,0,0-.01,0-.02.01-.02.02-.04.03-.06,0-.01.01-.03.02-.04,0-.01.01-.02.02-.04.01-.02.02-.04.03-.06,0,0,0-.01.01-.01.4-.61,1.07-1.02,1.83-1.02.51,0,1,.19,1.38.52.11.09.2.19.29.29v-.54s0-.02,0-.03c0-.07.03-.12.08-.16h0s.01,0,.01-.01c0,0,0,0,0,0,0,0,0,0,.01,0s0,0,.01,0c0,0,0,0,0,0,0,0,.01,0,.02,0,0,0,0,0,0,0,0,0,.01,0,.02-.01h0s.03-.01.05-.01c0,0,0,0,0,0,0,0,.01,0,.02,0,0,0,.02,0,.03,0,.01,0,.02,0,.03,0,0,0,.01,0,.02,0,0,0,0,0,0,0,.02,0,.03,0,.05.01h0s.01,0,.02.01c0,0,0,0,0,0,0,0,.01,0,.01,0,0,0,0,0,0,0,0,0,0,0,.01,0s0,0,.01,0c0,0,0,0,0,0,0,0,.01,0,.01.01h0ZM217.37,28.31c.92,0,1.68-.81,1.68-1.8s-.75-1.81-1.68-1.81-1.68.81-1.68,1.81c0,.03,0,.06,0,.09,0,.01,0,.03,0,.04,0,.02,0,.04,0,.05,0,.01,0,.03,0,.04,0,.02,0,.03,0,.05,0,.01,0,.02,0,.03,0,.02,0,.04,0,.05,0,0,0,.02,0,.02,0,.02,0,.04.01.06,0,0,0,0,0,.01.19.77.85,1.33,1.62,1.33Z"/>
      <path id="Path7" class="cls-12" d="M212.74,22.23h-.07s-.02,0-.03,0c-.01,0-.02,0-.03,0-.03,0-.05,0-.08,0,0,0-.01,0-.01,0-.02,0-.04,0-.06,0h-.01s-.04,0-.06,0c0,0,0,0,0,0-.02,0-.04,0-.06,0h0c-.14.02-.26.06-.37.11,0,0,0,0,0,0-.02,0-.03.02-.05.03,0,0,0,0,0,0-.01,0-.03.02-.04.02,0,0-.01,0-.01.01-.01,0-.02.01-.03.02,0,0-.02.01-.02.02,0,0-.01.01-.02.02-.01.01-.02.02-.03.03,0,0,0,0,0,0-.01.01-.03.03-.04.04,0,0,0,0,0,0-.01.01-.02.02-.03.04,0,0,0,.01-.01.02,0,.01-.02.02-.02.03,0,0,0,0,0,.01,0,.01-.02.03-.03.04,0,0,0,0,0,0-.07.12-.12.26-.16.43,0,0,0,0,0,0,0,.02,0,.04-.01.07,0,0,0,.01,0,.02,0,.02,0,.04,0,.06,0,.01,0,.02,0,.03,0,.02,0,.03,0,.05,0,.02,0,.03,0,.05,0,.01,0,.02,0,.03,0,.02,0,.05,0,.07,0,0,0,.01,0,.02,0,.03,0,.06,0,.1v.44h-.56s-.07,0-.1.02c-.1.04-.17.13-.17.24,0,.1.05.19.13.25.04.03.09.04.14.04h0s.56,0,.56,0v3.92s0,.01,0,.02h0c0,.07.03.13.07.17h0s.01.01.02.02c0,0,0,0,0,0,0,0,.01,0,.01.01,0,0,0,0,0,0,0,0,0,0,0,0,.04.03.1.04.15.04,0,0,.02,0,.03,0,.05,0,.1-.03.14-.06h0s.01-.01.01-.02c0,0,0,0,0,0,0,0,0,0,.01-.01.04-.05.07-.12.06-.18v-3.92h.6s0,0,0,0c.16,0,.28-.13.27-.29h0s0-.01,0-.02h0c0-.07-.03-.12-.07-.16h0s-.01-.01-.02-.02c0,0,0,0,0,0,0,0,0,0-.01,0,0,0,0,0-.01,0,0,0,0,0,0,0,0,0-.01,0-.02,0,0,0,0,0,0,0,0,0-.01,0-.02,0,0,0,0,0,0,0,0,0-.01,0-.02,0,0,0,0,0,0,0,0,0-.01,0-.02,0,0,0,0,0-.01,0,0,0-.01,0-.02,0h-.01s0,0-.01,0h-.61v-.44h0s0-.05,0-.08c0,0,0-.01,0-.02,0-.02,0-.04,0-.06,0,0,0,0,0-.01,0-.02,0-.04,0-.06.02-.22.07-.36.12-.44,0,0,0,0,0,0,0,0,0-.01.01-.02,0,0,0,0,0-.01,0,0,0,0,0,0,0,0,.01-.01.02-.02.07-.08.18-.13.34-.15,0,0,0,0,0,0,0,0,.02,0,.03,0,0,0,.01,0,.01,0,0,0,.02,0,.03,0,0,0,.01,0,.02,0,0,0,.02,0,.02,0s.02,0,.02,0h.06s.02,0,.03,0c.01,0,.02,0,.03,0h.07c.15,0,.27-.12.27-.28s-.12-.27-.27-.27"/>
      <path id="Path8" class="cls-12" d="M214.19,22.24s0,0,0,0c0,0-.01,0-.02,0,0,0,0,0,0,0,0,0,0,0-.01,0s0,0-.01,0c0,0-.01,0-.02,0,0,0,0,0-.01,0,0,0-.02,0-.03,0-.15,0-.27.12-.27.27v6.1c0,.15.12.27.27.27,0,0,.02,0,.03,0,0,0,0,0,0,0h.02s0,0,0,0c0,0,.01,0,.02,0,0,0,0,0,0,0,.1-.03.18-.12.19-.23,0,0,0-.02,0-.03v-6.1s0-.02,0-.03c-.01-.1-.08-.18-.17-.22"/>
      <path id="Path9" class="cls-12" d="M193.54,27.41s0-.03,0-.05c0-.01,0-.02,0-.03,0-.01,0-.02,0-.04,0-.01,0-.02,0-.03,0,0,0-.02,0-.03,0-.01,0-.03,0-.04,0,0,0-.01,0-.02,0-.01,0-.03-.01-.04,0,0,0-.01,0-.02,0-.02-.01-.03-.02-.05,0,0,0,0,0,0,0-.02-.01-.03-.02-.05,0,0,0,0,0,0-.06-.13-.16-.24-.27-.33t0,0s-.03-.03-.05-.04c0,0,0,0,0,0,0,0,0,0,0,0-.01,0-.02-.01-.03-.02-.14-.1-.29-.18-.51-.26,0,0,0,0-.01,0,0,0,0,0-.01,0-.13-.05-.26-.09-.39-.14h0s0,0,0,0c0,0,0,0,0,0-.01,0-.03,0-.04-.01,0,0-.02,0-.02,0-.05-.02-.09-.03-.14-.05-.03-.01-.07-.02-.11-.04-.01,0-.04-.01-.06-.02,0,0,0,0,0,0-.01,0-.03,0-.04-.01-.11-.04-.2-.07-.28-.1-.13-.05-.25-.1-.34-.16,0,0,0,0,0,0-.13-.08-.22-.19-.24-.32h0s0-.02,0-.03c0,0,0,0,0,0,0-.01,0-.02,0-.03,0-.02,0-.03,0-.05,0,0,0,0,0-.01,0-.01,0-.02,0-.03,0,0,0,0,0-.01,0-.01,0-.02,0-.04,0,0,0,0,0,0,0-.01,0-.03.01-.04h0c.06-.18.2-.3.36-.4.01,0,.02-.01.03-.02.01,0,.02-.01.03-.02.02,0,.03-.02.05-.02.01,0,.02,0,.03-.01l.05-.02s.02,0,.03-.01c.02,0,.03-.01.05-.02.01,0,.02,0,.03,0,.02,0,.03,0,.05-.01.01,0,.02,0,.03,0,.02,0,.03,0,.05,0,.01,0,.02,0,.03,0,.02,0,.04,0,.06,0,0,0,0,0,.01,0,.02,0,.05,0,.07,0,.03,0,.06,0,.08,0h.01c.2.01.36.06.49.12.01,0,.02.01.03.01,0,0,.01,0,.02,0,.01,0,.02.01.04.02,0,0,0,0,0,0,.01,0,.03.02.04.02,0,0,0,0,0,0,.01,0,.03.02.04.03,0,0,0,0,0,0,.01,0,.03.02.04.03,0,0,.01,0,.02.01.03.02.08.06.13.1,0,0,.01,0,.01.01.03.03.07.05.1.08,0,0,.01,0,.01.01,0,0,0,0,0,0,0,0,0,0,.01,0,0,0,.02.01.02.02,0,0,0,0,.01,0,0,0,.02,0,.02.01,0,0,0,0,0,0,0,0,.02,0,.03.01,0,0,0,0,0,0,.01,0,.02,0,.03,0h0s.04,0,.07,0c0,0,0,0,0,0,0,0,.01,0,.02,0,0,0,0,0,0,0,0,0,0,0,0,0,0,0,.02,0,.03-.01,0,0,0,0,0,0,.01,0,.02-.01.03-.02h0s.01-.02.02-.02c0,0,0-.01.01-.02,0,0,0,0,0,0,.05-.08.02-.18-.06-.29,0,0,0,0,0,0,0,0,0,0,0-.01-.19-.25-.63-.52-1.03-.61,0,0,0,0,0,0-.02,0-.03,0-.05-.01,0,0-.01,0-.01,0-.01,0-.03,0-.04,0,0,0-.01,0-.02,0-.01,0-.03,0-.04,0,0,0-.01,0-.02,0-.02,0-.04,0-.06,0-.03,0-.06,0-.09,0-.02,0-.03,0-.05,0-.01,0-.02,0-.04,0-.02,0-.04,0-.07,0,0,0-.01,0-.02,0-.02,0-.05,0-.07,0h0s-.05,0-.08.01h0s-.05,0-.07.01c0,0,0,0,0,0-.05,0-.1.02-.15.03,0,0,0,0,0,0-.02,0-.05.01-.07.02-.02,0-.04.01-.06.02,0,0,0,0,0,0-.02,0-.04.01-.06.02,0,0,0,0,0,0-.02,0-.04.02-.06.02,0,0,0,0,0,0-.02,0-.03.02-.05.02,0,0,0,0-.01,0-.02,0-.03.02-.05.02,0,0,0,0-.01,0-.01,0-.03.02-.04.03,0,0,0,0-.01,0-.02.01-.04.02-.06.03-.02.02-.04.03-.06.05,0,0,0,0,0,0-.1.07-.18.15-.25.23,0,0,0,0,0,.01,0,.01-.02.02-.02.03,0,0-.01.02-.02.03,0,0,0,.01-.01.02,0,.01-.02.03-.02.05,0,0,0,0,0,0-.06.12-.1.26-.11.43,0,0,0,0,0,0,0,.03,0,.06,0,.09,0,.02,0,.05,0,.07h0c.01.33.16.57.42.76,0,0,0,0,0,0,.01,0,.02.02.03.02,0,0,.02.01.02.02,0,0,0,0,0,0,.26.17.58.26.85.34.13.04.25.07.28.08,0,0,.02,0,.02,0,.16.05.28.1.38.14,0,0,.01,0,.02,0,0,0,0,0,0,0,.06.02.11.05.17.08.05.02.09.05.13.07.11.07.19.14.24.22,0,0,0,0,0,0,0,0,.01.01.01.02,0,0,0,0,0,.01,0,0,0,.01,0,.02,0,0,0,.01,0,.02,0,0,0,0,0,.01,0,0,0,.01,0,.02,0,0,0,0,0,.01,0,0,0,.02,0,.02,0,0,0,0,0,.01,0,0,0,.02,0,.02,0,0,0,0,0,.01,0,0,0,.02,0,.03,0,0,0,0,0,.01,0,.01,0,.03,0,.04,0,.02,0,.04,0,.06,0,0,0,.01,0,.02,0,.01,0,.03,0,.04,0,0,0,0,0,.01,0,.04-.02.08-.03.11,0,0,0,0,0,0,0,.02-.02.03-.02.05,0,0,0,0,0,0-.02.04-.04.07-.07.1-.01.02-.03.03-.04.05t0,0s-.06.06-.1.08c0,0,0,0,0,0-.02.01-.03.02-.05.03,0,0,0,0,0,0-.03.02-.06.04-.09.05-.01,0-.02.01-.03.02-.01,0-.03.01-.04.02-.01,0-.02,0-.03.01-.03.01-.06.02-.09.03,0,0,0,0-.01,0-.02,0-.04.01-.05.02,0,0-.01,0-.01,0-.06.02-.12.03-.17.04h0s-.06,0-.08.01c-.01,0-.02,0-.03,0,0,0-.02,0-.03,0-.02,0-.04,0-.06,0-.04,0-.08,0-.12,0-.02,0-.03,0-.05,0-.02,0-.04,0-.06,0-.02,0-.04,0-.06,0-.02,0-.03,0-.05,0-.03,0-.07-.01-.1-.02-.01,0-.03,0-.05,0-.02,0-.03,0-.05-.01-.02,0-.04,0-.06-.01-.01,0-.03,0-.04-.01-.03,0-.06-.02-.09-.03,0,0-.01,0-.02,0-.07-.02-.13-.05-.19-.08,0,0,0,0,0,0-.04-.02-.11-.06-.17-.1,0,0-.01,0-.02-.01-.05-.03-.09-.05-.12-.07,0,0,0,0,0,0,0,0,0,0,0,0-.01,0-.02,0-.03-.01,0,0,0,0,0,0-.02,0-.05-.02-.07-.02,0,0-.01,0-.02,0,0,0,0,0,0,0-.04,0-.08.01-.11.05,0,0-.01.01-.02.02,0,0,0,0,0,0,0,0,0,.01-.01.01,0,0,0,0,0,0,0,0,0,0,0,.01,0,0,0,0,0,.01,0,0,0,0,0,.01,0,0,0,0,0,0,0,0,0,.01,0,.01,0,0,0,0,0,0,0,0,0,.01,0,.02,0,0,0,0,0,0,0,0,0,.01,0,.02h0s0,.02,0,.03h0s0,.02,0,.03c0,0,0,0,0,.01,0,0,0,.01,0,.02,0,0,0,0,0,0,.01.03.04.07.07.1.03.04.07.07.12.11t0,0s.03.02.04.03c0,0,0,0,0,0,.04.03.08.05.13.08.01,0,.02.01.03.02.01,0,.02.01.03.02.01,0,.03.02.04.02.01,0,.02.01.03.01.02.01.05.02.07.03,0,0,0,0,0,0,.03.01.05.02.08.03.01,0,.02,0,.03.01,0,0,0,0,0,0,.24.09.54.16.8.17.02,0,.04,0,.06,0h0s.02,0,.03,0h.06s0,0,0,0c.43-.01.78-.12,1.07-.34h0c.33-.25.51-.6.51-.99,0-.02,0-.05,0-.07,0,0,0-.02,0-.03"/>
      <path id="Path10" class="cls-12" d="M196.29,24.19h0c-.52,0-1.02.21-1.38.59v-.32c0-.15-.11-.27-.26-.27-.01,0-.02,0-.03,0-.06,0-.12.03-.16.08t0,0s0,0-.01.01c0,0,0,0,0,0,0,0,0,0,0,.01,0,0,0,0,0,.01,0,0,0,0,0,0,0,0,0,.01-.01.02,0,0,0,0,0,0,0,0,0,.01-.01.02,0,.02-.01.03-.01.05,0,0,0,0,0,0,0,0,0,.02,0,.02,0,0,0,.02,0,.03v4.2s.01.01.01.01c0,0,0,.01,0,.02,0,0,0,0,0,0,0,0,0,.01.01.02.03.07.1.12.17.14h0s.06,0,.06,0c.01,0,.02,0,.03,0,0,0,.01,0,.02,0,0,0,0,0,0,0,0,0,.02,0,.03,0h0s.09-.05.11-.09h0s.03-.04.04-.07c0,0,0,0,0,0t0,0s0-.03.01-.04h0v-2.53c.02-.75.63-1.37,1.37-1.37h0c.75,0,1.37.61,1.37,1.37v2.49s0,.02,0,.03c0,.07.03.12.08.16,0,0,0,0,0,0,0,0,0,0,.01.01,0,0,0,0,0,0,0,0,0,0,.01,0,0,0,0,0,.01,0,0,0,0,0,0,0,0,0,.01,0,.01,0,0,0,0,0,0,0,0,0,.01,0,.02.01h0s.03.01.05.01c0,0,0,0,0,0,0,0,.01,0,.02,0,0,0,.02,0,.03,0,0,0,.02,0,.03,0,0,0,.02,0,.02,0,0,0,0,0,0,0,.02,0,.03,0,.05-.01h.02s0-.01,0-.01c0,0,.01,0,.02,0,0,0,0,0,0,0,0,0,0,0,.01,0,0,0,0,0,.01,0,0,0,0,0,0,0,0,0,.01,0,.01-.01h0s.07-.1.08-.16c0,0,0-.02,0-.03v-2.49c0-1.05-.85-1.9-1.9-1.91"/>
      <path id="Combined-Shape4" class="cls-12" d="M201.14,24.18c1.22,0,2.22,1.05,2.22,2.34s-.99,2.34-2.22,2.34c-.04,0-.08,0-.11,0,0,0-.01,0-.02,0-.03,0-.07,0-.1,0h0c-.48-.05-.93-.27-1.29-.63-.01-.01-.03-.03-.04-.05,0,0,0,0,0,0,0,0-.01-.02-.02-.03-.02-.02-.03-.04-.05-.06-.01-.01-.03-.03-.04-.05,0-.01-.02-.02-.03-.04-.02-.02-.04-.05-.06-.08h0c-.22-.32-.36-.67-.42-1.05,0-.03,0-.07-.01-.1,0,0,0,0,0-.01,0-.03,0-.06,0-.1,0,0,0-.01,0-.02,0-.04,0-.08,0-.12s0-.08,0-.12c0,0,0-.01,0-.02,0-.03,0-.07,0-.1,0,0,0,0,0-.01,0-.03,0-.07.01-.1.05-.38.2-.73.42-1.04,0,0,0,0,0,0,.02-.03.04-.05.06-.08,0-.01.02-.02.03-.03.01-.02.03-.03.04-.05.02-.02.03-.03.05-.05,0,0,.02-.02.02-.03,0,0,0,0,0,0,.01-.01.03-.03.04-.04.36-.36.81-.59,1.3-.64h0s.06,0,.1,0c0,0,.01,0,.02,0,.04,0,.07,0,.11,0ZM202.81,26.33h0c-.04-.41-.21-.77-.45-1.06-.01-.01-.02-.02-.03-.04l-.02-.02s-.03-.03-.04-.04c-.01-.01-.03-.02-.04-.03,0,0-.01-.01-.02-.02-.02-.02-.04-.03-.06-.05,0,0,0,0,0,0-.24-.19-.52-.32-.82-.35,0,0,0,0,0,0-.02,0-.05,0-.07,0,0,0-.01,0-.01,0-.03,0-.06,0-.08,0s-.06,0-.08,0c0,0,0,0-.01,0-.02,0-.05,0-.07,0,0,0,0,0,0,0-.3.03-.59.16-.82.35,0,0,0,0,0,0-.02.02-.04.03-.06.05,0,0-.01.01-.02.02-.01.01-.03.02-.04.04s-.02.03-.04.04l-.02.02s-.02.02-.03.04c-.25.28-.42.65-.46,1.05h0s0,.05,0,.08c0,0,0,0,0,.01,0,.03,0,.06,0,.09,0,.99.76,1.8,1.68,1.8s1.68-.81,1.68-1.8c0-.03,0-.06,0-.09,0,0,0,0,0-.01,0-.03,0-.05,0-.08Z"/>
      <path id="Path11" class="cls-12" d="M209.87,24.29s0,0,0,0c-.03-.03-.06-.06-.1-.08h0s-.01,0-.01,0c0,0,0,0,0,0-.04-.01-.08-.01-.11,0h0c-.08.01-.15.06-.19.13h0s-.01.02-.02.03h0s-1.29,3.53-1.29,3.53l-1.01-2.41s-.02-.04-.04-.06c-.06-.06-.14-.1-.23-.1-.01,0-.03,0-.04,0h0c-.09.02-.17.08-.21.16h0s-1.01,2.41-1.01,2.41l-.49-1.33-.81-2.2s0-.02-.01-.03t0,0s-.06-.08-.11-.1c0,0,0,0,0,0-.02-.01-.05-.02-.07-.02,0,0,0,0,0,0-.01,0-.03,0-.04,0h0s-.01,0-.02,0c0,0,0,0-.01,0,0,0-.01,0-.01,0,0,0,0,0-.01,0,0,0-.01,0-.02,0,0,0,0,0,0,0,0,0-.01,0-.02,0h0s-.08.06-.11.1c0,0,0,0,0,0h0s-.03.08-.04.12c0,.04,0,.09.02.13l.94,2.51.6,1.61h0c.02.06.06.1.11.13,0,0,0,0,0,0s0,0,0,0c0,0,0,0,0,0,0,0,0,0,0,0h0s.02.01.03.01c0,0,0,0,0,0,0,0,0,0,.01,0,0,0,0,0,0,0,.03,0,.05.01.07.01.01,0,.02,0,.04,0,0,0,.02,0,.03,0,0,0,0,0,0,0,0,0,.02,0,.03-.01,0,0,0,0,.01,0,0,0,.01,0,.02-.01,0,0,.01,0,.02-.01,0,0,0,0,.01,0,0,0,.01-.01.02-.02,0,0,0,0,0,0,0,0,.02-.02.02-.02,0,0,0,0,0,0,0,0,.01-.02.02-.03,0-.01.01-.02.02-.04h0s0,0,0,0h0s1.02-2.43,1.02-2.43l1.03,2.43s.02.05.04.07c0,0,0,0,0,0,0,0,.01.01.02.02,0,0,0,0,.01,0,0,0,.01.01.02.02,0,0,0,0,0,0,0,0,.02.01.02.02h0s.02.01.03.02c0,0,0,0,0,0,0,0,.02,0,.02,0,.01,0,.02,0,.03,0h.03s.03,0,.04,0c0,0,0,0,0,0,.01,0,.02,0,.03,0,0,0,0,0,0,0,.01,0,.02,0,.03-.01,0,0,0,0,0,0,.01,0,.02-.02.03-.02.05-.03.08-.08.1-.13h0s.63-1.71.63-1.71l.89-2.4c.03-.08.02-.18-.03-.25,0,0,0,0,0-.01"/>
      <path id="Path12" class="cls-12" d="M224.18,24.37s0-.01,0-.01c0,0,0,0,0-.01,0,0,0-.01,0-.02,0,0,0,0,0,0,0,0,0-.01,0-.02,0,0,0,0,0,0,0,0,0-.01-.01-.02h0s-.03-.05-.05-.06h0c-.1-.1-.23-.11-.34-.04,0,0,0,0,0,0,0,0,0,0-.01.01,0,0-.01.01-.02.02,0,0,0,0,0,0l-2.64,2.57v-4.3s0-.02,0-.03c-.01-.1-.08-.18-.17-.22,0,0,0,0,0,0,0,0-.01,0-.02,0,0,0,0,0,0,0,0,0,0,0-.01,0,0,0,0,0-.01,0,0,0-.01,0-.01,0,0,0,0,0-.01,0-.01,0-.02,0-.03,0-.15,0-.27.12-.27.27v6.1c0,.15.12.27.27.27,0,0,.02,0,.03,0,0,0,0,0,0,0,0,0,.02,0,.02,0,0,0,0,0,0,0,0,0,.01,0,.02,0,0,0,0,0,0,0,.1-.03.18-.12.19-.23,0,0,0-.02,0-.03v-1.03l.89-.89,1.72,2.08s.02.03.04.05c0,0,0,0,0,0,0,0,0,0,.01,0,0,0,.01,0,.02.01,0,0,0,0,0,0,0,0,.01,0,.02,0,0,0,0,0,0,0,0,0,.02,0,.03,0,0,0,0,0,0,0,0,0,.02,0,.03,0,0,0,0,0,0,0,.01,0,.02,0,.03,0,.02,0,.03,0,.05,0h0s.06-.01.09-.03c0,0,0,0,0,0,.01,0,.02-.01.04-.02h0c.1-.11.12-.25.04-.36,0-.01-.01-.02-.02-.03l-1.75-2.13,1.74-1.68s.07-.1.08-.17c0,0,0,0,0,0v-.02s0,0,0,0h0s0-.01,0-.02c0,0,0,0,0-.01"/>
    </g>
  </g>
  <g>
    <path class="cls-25" d="M144.26,20.26c-1.95,1.05-3.9,1.04-5.86.02-.02-.05-.03-.11-.05-.16-.06-.48.3-.68.61-.92,0,0,.02,0,.02,0,.45-.11.88-.26,1.34-.32,1.14-.14,2.27-.13,3.35.33.56.24.67.46.6,1.04ZM139.75,20.23c.8.41,1.65.25,2.48.21.24-.01.48-.13.72-.21.32.04.64-.04.67-.36.02-.15-.28-.43-.48-.49-1.27-.39-2.56-.41-3.82.06-.15.06-.25.27-.38.41.16.13.31.27.49.38.07.04.2,0,.3,0Z"/>
    <g>
      <path class="cls-17" d="M163.93,23.79c-.78-1.05-1.79-1.91-3.06-2.38-.4-.15-.79-.31-1.19-.46-.32-.12-.51-.32-.58-.67-.35-1.65-1.06-3.13-2-4.53-.85-1.26-1.9-2.3-3.09-3.21-1.07-.82-2.28-1.43-3.58-1.83-1.49-.46-3.01-.78-4.58-.7-2.2.1-4.29.59-6.19,1.75-.46.28-.96.51-1.43.77,0,0-.02.01-.02.01-.13.1-.26.2-.38.31-.02,0-.04.02-.05.04-.12.1-.25.21-.37.31-.14.13-.29.27-.43.4-.03.04-.06.07-.09.11,0,0,0,0,0,0-.03.03-.06.06-.09.09h0s-.06.06-.09.09h0s-.06.06-.09.09c0,0,0,0,0,0-.03.03-.06.06-.09.09,0,0,0,0,0,0-.03.03-.06.06-.08.09,0,0,0,0,0,0-.03.03-.06.06-.09.09,0,0,0,0,0,0-.03.03-.06.06-.1.1-.02,0-.04.02-.05.05-.27.33-.53.66-.8.99-.12.17-.24.34-.36.52,0,0,0,0,0,0-.18.29-.35.58-.53.87,0,0,0,0,0,0-.26.53-.53,1.07-.79,1.6-.02,0-.03.01-.04.03-.27,0-.53.01-.8.02-.14,0-.28,0-.42,0-.34.05-.69.1-1.03.15-.57.09-1.14.19-1.72.28-.04,0-.08.02-.12.03-.41.17-.82.34-1.23.51-.02,0-.04.01-.06.03-.24.13-.48.27-.72.4-.03,0-.05.02-.06.04-.1.07-.2.14-.3.21-.05.03-.1.06-.15.09,0,0-.03.02-.03.02-.03.01-.05.03-.06.06-.15.12-.29.24-.44.36,0,0,0,0,0,0-.03.03-.07.05-.1.08,0,0,.01.02.01.02v-.02s-.07.06-.1.09h0s-.06.06-.09.08c0,0,0,0,0,0-.1.1-.21.2-.31.3-.02,0-.03.02-.03.04-.03.04-.06.07-.09.11,0,0,0,0,0,0-.03.03-.06.06-.09.09,0,0,.02.03.02.03l-.02-.02s-.05.06-.08.09c0,0,0,0,0,0-.05.06-.1.13-.16.19,0,0,0,0,0,0-.1.11-.19.23-.29.34-.02.03-.04.05-.06.08-.14.21-.28.42-.43.63-.02,0-.02.02-.02.04-.16.35-.34.69-.46,1.05-.22.62-.41,1.25-.62,1.88-.03.09-.09.16-.14.25-.01.05-.02.11-.03.16,0,.48,0,.96-.02,1.44,0,.22-.03.44-.06.81-.01-.01-.02-.02-.04-.04.02.19.05.37.07.56.05.04.1.08.11.12.21.62.34,1.28.61,1.88.31.7.74,1.35,1.11,2.03.09.17.17.35.25.53,0,.02,0,.03.03.04.12.08.25.14.35.23.83.86,1.79,1.53,2.87,2.03,1.03.47,2.11.76,3.25.77,4.1.01,8.19,0,12.29,0,4.53.02,9.05.07,13.58.08,1.74,0,3.29-.6,4.65-1.69.15-.12.35-.18.52-.27.09-.15.17-.32.28-.45,1.18-1.27,1.87-2.76,2.13-4.48.32-2.17-.29-4.11-1.55-5.81ZM151.68,32.14h-13.29c0-.11-.03-.23-.03-.36,0-3.71,0-7.41,0-11.12,0-.13.03-.26.04-.38-.02-.05-.03-.11-.05-.16-.02-.16-.1-.36-.04-.49.11-.25.29-.5.64-.43h.02c.21-.41.64-.41.99-.43.9-.05,1.81-.07,2.71,0,.47.04.94.25,1.38.46.36.17.43.56.29,1.06,0,2.06,0,4.12,0,6.28,1.22-1.05,2.38-2.06,3.62-3.13v3.24c1.28-1.1,2.46-2.13,3.72-3.22v8.68Z"/>
      <path class="cls-5" d="M165.74,27.92c-.1-.57-.18-1.12-.34-1.63-.9-2.84-2.8-4.67-5.65-5.54-.17-.05-.38-.24-.42-.4-.75-3.18-2.39-5.76-4.99-7.76-2.15-1.66-4.58-2.54-7.26-2.73-2.32-.17-4.55.26-6.64,1.28-.78.38-1.48.92-2.22,1.39.48-.25.97-.48,1.43-.77,1.9-1.17,4-1.65,6.19-1.75,1.57-.07,3.09.24,4.58.7,1.3.4,2.51,1.01,3.58,1.83,1.19.9,2.24,1.94,3.09,3.21.94,1.4,1.65,2.88,2,4.53.07.35.26.56.58.67.4.14.79.31,1.19.46,1.27.47,2.28,1.33,3.06,2.38,1.27,1.71,1.88,3.64,1.55,5.81-.25,1.72-.95,3.21-2.13,4.48-.12.13-.19.3-.28.45.07-.05.15-.09.21-.15,1.51-1.48,2.31-3.27,2.44-5.38,0-.07,0-.15.02-.22v-.86Z"/>
      <path class="cls-5" d="M125.56,33.38c.12.08.25.14.35.23.83.86,1.79,1.53,2.87,2.03,1.03.47,2.11.76,3.25.77,4.1.01,8.19,0,12.29,0,4.53.02,9.05.07,13.58.08,1.74,0,3.29-.6,4.65-1.69.15-.12.35-.18.52-.27-.67.75-1.53,1.2-2.43,1.59-.94.4-1.93.56-2.96.56-3.91-.01-7.82,0-11.73-.02-4.72-.02-9.44,0-14.15-.11-2.47-.05-4.5-1.22-6.17-3.02-.04-.04-.05-.1-.07-.15Z"/>
      <g>
        <path class="cls-17" d="M138.91,42.31v-2.87c.51.04,1.02.02,1.52.12.65.13.93.58.91,1.36,0,.65-.4,1.16-1.05,1.29-.44.08-.9.07-1.38.11ZM139.4,39.91v1.95c1,.06,1.47-.28,1.44-1.04-.02-.73-.45-1-1.44-.91Z"/>
        <path class="cls-17" d="M128.98,42.25c-.38.12-.61.01-.67-.37-.04-.25-.19-.36-.45-.32-.15.03-.32.02-.47,0-.24-.03-.39.04-.43.29-.06.39-.28.53-.68.41.34-.87.67-1.74,1.02-2.61.04-.09.21-.17.32-.18.12,0,.32.05.35.13.35.87.68,1.76,1.02,2.65ZM127.62,39.94c-.16.47-.29.84-.43,1.23h.85c-.13-.39-.26-.76-.42-1.23Z"/>
        <path class="cls-17" d="M160.91,42.87c.63-.06.81-.38.57-.96-.22-.53-.44-1.06-.67-1.6.34-.12.56-.07.66.32.09.39.25.76.41,1.22.16-.45.3-.83.41-1.21.09-.31.25-.46.63-.33-.35.83-.67,1.67-1.06,2.47-.1.2-.4.35-.64.44-.27.1-.4-.05-.31-.34Z"/>
        <path class="cls-17" d="M147.26,42.35c-.22-.08-.37-.13-.58-.2-.13.04-.34.16-.57.18-.31.03-.57-.13-.62-.47-.05-.34.08-.61.42-.71.27-.08.56-.11.84-.16-.1-.49-.36-.54-1.03-.21-.09-.27,0-.41.27-.49.84-.23,1.25.07,1.26.92,0,.34,0,.69,0,1.15ZM146.77,41.28c-.32.15-.79-.07-.79.46,0,.07.25.22.37.21.35-.03.45-.28.41-.67Z"/>
        <path class="cls-17" d="M137.13,41.41c-.45,0-.86,0-1.28,0-.01,0-.03.01-.04.02-.01.52.4.67,1.15.4.12.27,0,.4-.26.45-.44.08-.87.12-1.21-.25-.29-.32-.3-.71-.19-1.1.15-.52.67-.81,1.19-.69.48.11.72.52.64,1.17ZM135.71,40.94s.07.08.1.13h.88s.05-.08.08-.11c-.17-.13-.34-.37-.5-.37-.19,0-.37.22-.56.35Z"/>
        <path class="cls-17" d="M158.81,41.27c0,.68-.4,1.07-1.08,1.06-.66,0-1.06-.4-1.06-1.04,0-.66.42-1.06,1.09-1.07.67,0,1.04.36,1.04,1.04ZM157.17,41.29c0,.4.22.67.57.68.36,0,.58-.23.59-.64.01-.44-.2-.72-.56-.73-.36,0-.59.27-.6.69Z"/>
        <path class="cls-17" d="M149.6,41.09v1.18h-.47v-2.78h1.54c0,.1.01.24.02.38h-1.06v.8c.3.2.84-.24,1.05.42h-1.09Z"/>
        <path class="cls-17" d="M132.71,40.27h.46v2.05c-.19-.05-.35-.09-.4-.1-.42.01-.77.1-1.08,0-.4-.12-.37-.53-.37-.88,0-.34,0-.69,0-1.07.15-.01.29-.02.48-.04,0,.39,0,.76,0,1.13,0,.3.06.57.42.58.37,0,.49-.25.49-.57,0-.36,0-.71,0-1.11Z"/>
        <path class="cls-17" d="M143.48,42.36c-.39-.21-.71-.13-1.05-.05-.32.07-.63-.06-.7-.46-.06-.37.11-.63.49-.74.12-.03.25-.05.38-.07.12-.02.25-.04.37-.06-.1-.49-.25-.52-1.04-.23-.09-.26,0-.39.26-.47.84-.25,1.27.06,1.27.93,0,.34,0,.68,0,1.14ZM143.03,41.31c-.22.03-.42.01-.58.08-.12.05-.19.21-.28.32.13.08.26.23.4.23.35,0,.43-.26.46-.63Z"/>
        <path class="cls-17" d="M152.21,40.97c-.22-.48-.41-.51-1.08-.19-.11-.3.01-.43.3-.5.84-.22,1.23.07,1.23.94,0,.34,0,.69,0,1.11-.21-.05-.37-.1-.56-.15-.18.04-.4.14-.63.14-.3,0-.52-.16-.56-.48-.04-.32.07-.58.39-.68.28-.09.58-.12.91-.19ZM152.2,41.3c-.33.11-.74-.1-.82.39-.01.07.19.25.3.26.38.02.52-.22.52-.65Z"/>
        <path class="cls-17" d="M129.83,41.91h1.09v.35h-1.87c.42-.57.81-1.08,1.21-1.62h-.97c-.01-.13-.02-.24-.03-.37h1.82c-.45.59-.82,1.08-1.24,1.63Z"/>
        <path class="cls-17" d="M145.27,42.07c-.12.08-.23.22-.36.24-.32.05-.64-.03-.67-.42-.04-.39,0-.78,0-1.11-.15-.14-.26-.24-.37-.33.1-.09.2-.18.35-.31v-.32c.16-.05.3-.09.48-.15v.58c.17,0,.32.02.48.02.16.51-.24.31-.43.38-.11,1.23-.09,1.35.43,1.3.03.04.07.08.1.12Z"/>
        <path class="cls-17" d="M154.75,41.79c.12.36-.04.47-.3.52-.49.09-.95-.08-1.18-.45-.2-.32-.17-.87.05-1.19.26-.37.79-.57,1.23-.42.13.04.2.24.26.42-.44-.15-.81-.17-1.07.23-.18.28-.18.59.05.84.27.3.61.28.96.04Z"/>
        <path class="cls-17" d="M156.44,42.06c-.11.09-.21.23-.33.25-.34.05-.66-.03-.69-.45-.03-.38,0-.77,0-1.04-.17-.19-.26-.29-.36-.4.09-.08.18-.15.35-.29,0-.03,0-.16.02-.32.14-.04.27-.08.43-.13.01.21.02.39.04.55.19.1.62-.15.48.38-.15.01-.31.03-.49.04,0,.27,0,.52,0,.78-.02.36.06.61.55.49,0,.05.02.09.03.14Z"/>
        <path class="cls-17" d="M133.85,42.3v-2.01c.14-.01.27-.02.43-.04.02.11.03.21.04.25.21-.09.41-.18.63-.24.02,0,.11.23.18.39q-.75.02-.83,1.63c-.13,0-.27.01-.45.02Z"/>
        <path class="cls-17" d="M159.36,40.21c.21.07.37.12.54.18-.01.03-.03.06-.04.09.21-.1.41-.19.68-.32.02.22.03.36.04.49q-.67,0-.76,1.62c-.14,0-.29.01-.46.02v-2.09Z"/>
      </g>
      <path class="cls-5" d="M123.67,29.74c.02.08.02.15.01.22.36,1.27.93,2.42,1.85,3.39-.08-.18-.16-.36-.25-.53-.37-.68-.8-1.33-1.11-2.03-.27-.6-.4-1.26-.61-1.88-.01-.04-.06-.09-.11-.12.08.32.16.63.22.95Z"/>
      <path class="cls-5" d="M124.75,22.69c-.16.35-.34.69-.46,1.05-.22.62-.41,1.25-.62,1.88-.03.09-.09.16-.14.25.14-1.16.53-2.23,1.23-3.17Z"/>
      <path class="cls-5" d="M132.49,18.38c-.34.05-.69.1-1.03.15-.57.09-1.14.19-1.72.28.88-.37,1.79-.52,2.74-.43Z"/>
      <path class="cls-5" d="M123.32,28.16s.06.06.1.1c.03-.36.05-.58.06-.81.01-.48.01-.96.02-1.44-.07.61-.14,1.22-.21,1.84.01.1.02.2.04.3Z"/>
      <path class="cls-5" d="M134.54,16.74c-.26.53-.53,1.07-.79,1.6.26-.53.53-1.07.79-1.6Z"/>
      <path class="cls-5" d="M136.22,14.37c-.27.33-.53.66-.8,1,.27-.33.53-.66.8-1Z"/>
      <path class="cls-5" d="M129.62,18.84c-.41.17-.82.34-1.23.51.41-.17.82-.34,1.23-.51Z"/>
      <path class="cls-5" d="M135.07,15.88c-.18.29-.35.58-.53.87.18-.29.35-.58.53-.87Z"/>
      <path class="cls-5" d="M133.71,18.37c-.27,0-.53.01-.8.02.27,0,.53-.01.8-.02Z"/>
      <path class="cls-5" d="M128.34,19.38c-.24.13-.48.27-.72.4.24-.13.48-.27.72-.4Z"/>
      <path class="cls-5" d="M125.2,22.02c-.14.21-.28.42-.43.63.14-.21.28-.42.43-.63Z"/>
      <path class="cls-5" d="M135.42,15.37c-.12.17-.24.34-.36.52.12-.17.24-.34.36-.52Z"/>
      <path class="cls-5" d="M127.02,20.2c-.15.12-.29.24-.44.36.15-.12.29-.24.44-.36Z"/>
      <path class="cls-5" d="M137.77,12.89c-.12.1-.25.21-.37.31.12-.1.25-.21.37-.31Z"/>
      <path class="cls-5" d="M138.21,12.55c-.13.1-.26.2-.38.31.13-.1.26-.2.38-.31Z"/>
      <path class="cls-5" d="M125.55,21.6c-.1.11-.19.23-.29.34.1-.11.19-.23.29-.34Z"/>
      <path class="cls-5" d="M126.3,20.8c-.1.1-.21.2-.31.3.1-.1.21-.2.31-.3Z"/>
      <path class="cls-5" d="M127.56,19.82c-.1.07-.2.14-.3.21.1-.07.2-.14.3-.21Z"/>
      <path class="cls-5" d="M125.7,21.41c-.05.06-.1.13-.16.19.05-.06.1-.13.16-.19Z"/>
      <path class="cls-5" d="M126.48,20.63s-.06.06-.09.09c.03-.03.06-.06.09-.09Z"/>
      <path class="cls-5" d="M136.97,13.6s-.06.07-.09.11c.03-.04.06-.07.09-.11Z"/>
      <path class="cls-5" d="M136.79,13.79s-.06.06-.09.09c.03-.03.06-.06.09-.09Z"/>
      <path class="cls-5" d="M136.7,13.88s-.06.06-.09.09c.03-.03.06-.06.09-.09Z"/>
      <path class="cls-5" d="M126.4,20.72s-.06.06-.09.08c.03-.03.06-.06.09-.08Z"/>
      <path class="cls-5" d="M136.62,13.96s-.06.06-.09.09c.03-.03.06-.06.09-.09Z"/>
      <path class="cls-5" d="M136.45,14.14s-.06.06-.09.09c.03-.03.06-.06.09-.09Z"/>
      <path class="cls-5" d="M125.97,21.13s-.06.07-.09.11c.03-.04.06-.07.09-.11Z"/>
      <path class="cls-5" d="M136.88,13.71s-.06.06-.09.09c.03-.03.06-.06.09-.09Z"/>
      <path class="cls-5" d="M136.53,14.05s-.06.06-.08.09c.03-.03.06-.06.08-.09Z"/>
      <path class="cls-5" d="M125.87,21.24s-.06.06-.09.09c.03-.03.06-.06.09-.09Z"/>
      <path class="cls-5" d="M136.36,14.23s-.06.06-.1.1c.03-.03.06-.06.1-.1Z"/>
      <polygon class="cls-5" points="127.11 20.12 127.08 20.14 127.08 20.11 127.11 20.12"/>
      <path class="cls-5" d="M126.58,20.55s-.07.05-.1.08c.03-.03.07-.05.1-.08Z"/>
      <path class="cls-5" d="M125.79,21.32s-.05.06-.08.09c.03-.03.05-.06.08-.09Z"/>
      <path class="cls-5" d="M144.26,20.26c.07-.58-.04-.8-.6-1.04-1.08-.46-2.21-.47-3.35-.33-.45.06-.89.21-1.34.32.21-.42.64-.42.99-.44.9-.05,1.81-.07,2.71,0,.47.04.94.25,1.38.46.36.17.43.56.29,1.06-.03-.01-.06-.03-.08-.04Z"/>
      <path class="cls-5" d="M138.95,19.2c-.3.24-.66.44-.61.92-.02-.16-.1-.36-.04-.49.11-.25.29-.5.64-.43Z"/>
      <path class="cls-17" d="M150.29,28.57v1.4h-1.41v-1.4h1.41Z"/>
      <path class="cls-17" d="M146.27,28.55h1.4v1.42h-1.4v-1.42Z"/>
      <path class="cls-17" d="M145.07,29.98h-1.39v-1.41h1.39v1.41Z"/>
      <path class="cls-17" d="M139.75,20.23c.4-.08.8-.23,1.2-.22.67.02,1.34.14,2.01.22-.24.07-.48.19-.72.21-.83.04-1.68.2-2.48-.21Z"/>
    </g>
  </g>
  <g id="Layer_2" data-name="Layer 2">
    <g id="Layer_1-2" data-name="Layer 1-2">
      <polygon class="cls-18" points="260 27.36 258.03 23.17 257.01 23.17 257.01 29.91 258.03 29.91 258.03 25.4 259.62 28.69 260.38 28.69 261.93 25.4 261.93 29.91 262.95 29.91 262.95 23.17 261.93 23.17 260 27.36"/>
      <path class="cls-18" d="M266.79,28.03c0,.74-.46,1.07-.99,1.07s-.97-.32-.97-1.07v-2.93h-.97v3.07c0,.54.11.99.48,1.36.28.27.69.44,1.18.44.48,0,.95-.19,1.28-.54v.48h.95v-4.8h-.97v2.93Z"/>
      <path class="cls-18" d="M269.65,28.53v-5.36h-.97v5.42c0,.71.4,1.33,1.32,1.33h.6v-.82h-.43c-.39,0-.52-.19-.52-.56Z"/>
      <path class="cls-18" d="M272.92,25.05c-1.23,0-2.03.9-2.03,2.45,0,1.83.96,2.46,2.16,2.46.84,0,1.31-.26,1.8-.75l-.62-.58c-.34.34-.62.49-1.16.49-.79,0-1.22-.52-1.22-1.34h3.11v-.43c0-1.36-.75-2.31-2.03-2.31ZM271.84,27.11c0-.29.03-.44.12-.65.16-.38.54-.62.96-.61.41-.01.79.23.95.61.09.21.14.43.13.65h-2.16Z"/>
      <path class="cls-18" d="M279.72,26.6c-.28-.26-.63-.41-1.26-.5l-.76-.11c-.28-.03-.54-.14-.76-.31-.17-.16-.27-.39-.26-.63,0-.6.44-1.05,1.23-1.05.57,0,1.05.12,1.47.52l.65-.64c-.58-.54-1.2-.76-2.09-.76-1.4,0-2.25.8-2.25,1.98,0,.55.16.98.49,1.29.29.27.73.46,1.28.54l.79.11c.4.06.57.12.74.28s.26.41.26.7c0,.65-.51,1.03-1.39,1.03-.69,0-1.23-.15-1.72-.64l-.68.67c.64.65,1.37.89,2.39.89,1.41,0,2.42-.74,2.42-1.98,0-.58-.18-1.06-.55-1.39Z"/>
      <path class="cls-18" d="M282.82,25.05c-.65,0-1.12.25-1.43.57-.45.47-.57,1.08-.57,1.88s.11,1.42.57,1.89c.31.32.78.57,1.43.57s1.13-.25,1.44-.57c.45-.47.57-1.08.57-1.89s-.11-1.41-.57-1.88c-.31-.32-.79-.57-1.44-.57ZM283.53,28.82c-.19.19-.45.29-.71.28-.26,0-.51-.1-.7-.28-.29-.29-.33-.8-.33-1.32s.04-1.02.33-1.32c.19-.18.44-.28.7-.27.26,0,.52.09.71.27.29.29.33.79.33,1.32s-.04,1.02-.33,1.32h0Z"/>
      <path class="cls-18" d="M285.8,24.46v.74h-.55v.74h.55v3.98h.97v-3.98h.96v-.74h-.96v-.69c0-.35.17-.56.53-.56h.43v-.83h-.61c-.89,0-1.31.64-1.31,1.34Z"/>
      <path class="cls-18" d="M289.83,23.74h-.96v1.46h-.55v.74h.55v2.64c0,.69.42,1.34,1.31,1.34h.58v-.83h-.4c-.36,0-.53-.21-.53-.56v-2.6h.93v-.73h-.93v-1.46Z"/>
      <path class="cls-18" d="M291.96,24.48c-.03-.06-.06-.12-.11-.16-.05-.05-.1-.08-.16-.11-.06-.03-.13-.04-.2-.04-.07,0-.14.01-.2.04-.06.03-.12.06-.17.11-.05.05-.09.1-.11.16-.03.06-.04.13-.04.2,0,.21.12.4.32.48.06.03.13.04.2.04.14,0,.27-.05.36-.15.05-.05.09-.1.11-.16.03-.07.04-.14.04-.21,0-.07-.01-.14-.04-.2ZM291.87,24.86c-.04.1-.12.19-.22.23-.05.02-.11.03-.17.03-.06,0-.12-.01-.17-.03-.05-.02-.1-.05-.14-.09-.04-.04-.07-.09-.09-.14-.02-.06-.03-.12-.03-.18,0-.06.01-.12.03-.17.02-.05.05-.1.09-.14.08-.08.19-.13.31-.13.06,0,.11.01.17.03.05.02.1.05.13.09.04.04.07.09.09.14.02.05.03.11.03.17,0,.06-.01.12-.03.18h0Z"/>
      <path class="cls-18" d="M291.68,24.68s.05-.07.05-.12c0-.05-.01-.1-.05-.13-.05-.03-.1-.05-.16-.04h-.23v.6h.09v-.26h.1l.16.26h.1l-.17-.27s.08-.02.12-.05ZM291.47,24.65h-.1v-.19h.12s.03,0,.05,0c.01,0,.03,0,.04.01.01,0,.02.02.03.03,0,.01.01.03.01.05,0,.02,0,.04-.01.06,0,.01-.02.02-.04.03-.02,0-.03.01-.05.01-.02,0-.04,0-.06,0Z"/>
      <path class="cls-18" d="M245.98,18.55c-4.41,0-7.98,3.57-7.98,7.98s3.57,7.98,7.98,7.98,7.98-3.57,7.98-7.98-3.57-7.98-7.98-7.98ZM245.98,33.81c-4.02,0-7.28-3.26-7.28-7.28s3.26-7.28,7.28-7.28,7.28,3.26,7.28,7.28h0c0,4.02-3.26,7.28-7.28,7.28Z"/>
      <path class="cls-18" d="M251.73,24.95h0c-.64-2.39-2.63-3.49-2.63-3.49l-.22.35-2.89,4.52h0l-2.89-4.53-.22-.34s-1.99,1.1-2.63,3.49h0c-.44,1.55-.23,3.21.6,4.6.61,1.04,1.53,1.88,2.62,2.39l.53-2.04c-1.2-.57-2.07-1.71-2.07-3.18,0-.74.22-1.47.63-2.09l2.49,3.9h1.86l2.5-3.9c.41.62.63,1.35.63,2.09,0,1.48-.87,2.62-2.07,3.18l.53,2.04c1.1-.51,2.01-1.34,2.62-2.39.83-1.38,1.04-3.05.6-4.6Z"/>
    </g>
  </g>
</svg>