<?xml version="1.0" encoding="UTF-8"?>
<svg id="Capa_1" data-name="Capa 1" xmlns="http://www.w3.org/2000/svg" xmlns:xlink="http://www.w3.org/1999/xlink" viewBox="0 0 425.5 53">
  <defs>
    <style>
      .cls-1 {
        fill: url(#Degradado_sin_nombre_16);
      }

      .cls-2 {
        font-family: BebasNeue-Book, 'Bebas Neue';
      }

      .cls-3, .cls-4 {
        fill: #00aeef;
      }

      .cls-5 {
        fill: none;
      }

      .cls-6 {
        fill: url(#Degradado_sin_nombre_2);
        opacity: .05;
      }

      .cls-7 {
        fill: #fff;
        font-size: 21px;
      }

      .cls-8 {
        fill: #a7a8aa;
      }

      .cls-8, .cls-4, .cls-9 {
        fill-rule: evenodd;
      }

      .cls-10 {
        letter-spacing: 0em;
      }

      .cls-11 {
        fill: #ebebeb;
      }

      .cls-12 {
        font-family: BebasNeueBold, 'Bebas Neue';
      }

      .cls-13 {
        letter-spacing: -.04em;
      }
    </style>
    <linearGradient id="Degradado_sin_nombre_2" data-name="Degradado sin nombre 2" x1="138.84" y1="-163.18" x2="373.16" y2="188.67" gradientUnits="userSpaceOnUse">
      <stop offset="0" stop-color="#fff"/>
      <stop offset="1" stop-color="#000"/>
    </linearGradient>
    <linearGradient id="Degradado_sin_nombre_16" data-name="Degradado sin nombre 16" x1="12.05" y1="-124.32" x2="102.4" y2="223.41" gradientUnits="userSpaceOnUse">
      <stop offset="0" stop-color="#00aeef"/>
      <stop offset=".36" stop-color="#049ddf"/>
      <stop offset="1" stop-color="#0f75bc"/>
    </linearGradient>
    <clipPath id="clippath">
      <rect class="cls-5" x="553.83" y="-823.66" width="960.22" height="540.01"/>
    </clipPath>
  </defs>
  <rect class="cls-6" x="104.97" y="-.03" width="320.36" height="53.03"/>
  <rect class="cls-1" x="-.49" y="-.03" width="103.44" height="53.03"/>
  <text class="cls-7" transform="translate(8.49 24.1)"><tspan class="cls-12"><tspan class="cls-10" x="0" y="0">D</tspan><tspan class="cls-13" x="8.55" y="0">at</tspan><tspan x="22.97" y="0">a</tspan></tspan><tspan class="cls-2"><tspan x="0" y="19.05">Integr</tspan><tspan class="cls-13" x="41.87" y="19.05">a</tspan><tspan x="50.23" y="19.05">tions</tspan></tspan></text>
  <image width="3840" height="2160" transform="translate(177.5 13.65) scale(.01)" xlink:href="../../../Alejandro Mendoza/Valtre/Logos Matriz/Analítica Avanzada/Snowflake-Logo.png"/>
  <image width="468" height="157" transform="translate(238.38 17.37) scale(.12)" xlink:href="../../../Alejandro Mendoza/Valtre/Logos Matriz/Data Integrations/MuleSoft Logo.png"/>
  <g>
    <path class="cls-8" d="M399.03,27.36h.57c.02.18.07.35.12.51l-.49.28c.09.21.19.41.32.59l.5-.26c.17.22.38.42.61.57l-.23.52c.19.12.4.21.61.28l.25-.51c.27.08.55.11.83.09l.13.55c.22-.02.44-.07.66-.14l-.11-.56c.26-.1.51-.24.72-.43l.44.36c.17-.15.31-.32.44-.51l-.42-.38c.15-.24.26-.5.32-.77l.57.03c.04-.22.06-.45.05-.67l-.57-.05c-.02-.28-.09-.56-.21-.81l.47-.32c-.1-.2-.22-.39-.36-.57l-.49.3c-.18-.21-.41-.39-.65-.53l.19-.54c-.2-.1-.41-.18-.63-.24l-.21.53c-.28-.06-.56-.07-.84-.03l-.17-.54c-.22.04-.44.1-.65.19l.15.55c-.26.12-.49.28-.69.48l-.46-.33c-.15.16-.29.34-.4.54l.45.35c-.14.25-.23.52-.27.8h-.57c-.01.12-.02.24-.02.35,0,.11,0,.22.02.33h0ZM401.98,25.5c.84,0,1.53.69,1.53,1.53,0,.85-.69,1.53-1.53,1.53-.84,0-1.53-.69-1.53-1.53,0-.85.69-1.53,1.53-1.53Z"/>
    <path class="cls-4" d="M412.02,29.46c-.25,0-.49-.04-.72-.12-.23-.08-.42-.16-.55-.25l-.11.28h-.3l-.05-1.56h.28c.04.13.1.27.19.43.09.16.19.3.3.42.12.13.26.23.41.32.15.09.32.13.49.13.23,0,.4-.05.52-.15.11-.1.17-.25.17-.46,0-.11-.03-.2-.08-.28-.06-.08-.13-.14-.21-.19-.1-.06-.21-.11-.33-.14-.12-.04-.26-.09-.44-.14-.15-.05-.3-.1-.44-.17-.12-.06-.25-.15-.38-.27-.12-.11-.21-.25-.27-.39-.07-.15-.1-.33-.1-.55,0-.39.15-.71.45-.95.3-.24.7-.36,1.18-.36.22,0,.43.02.64.08.19.05.36.11.49.17l.08-.25h.29l.06,1.42h-.27c-.09-.28-.24-.54-.46-.75-.22-.21-.45-.31-.7-.31-.2,0-.35.04-.46.13-.11.09-.17.21-.17.37,0,.21.08.36.25.46.16.1.39.18.69.27.46.13.79.3,1,.52.21.22.32.5.32.85,0,.46-.16.81-.49,1.06-.33.25-.75.38-1.28.38h0ZM408.06,28.48v-2.36c-.02-.07-.05-.14-.07-.21-.03-.08-.08-.15-.13-.22-.06-.06-.13-.12-.2-.15-.09-.05-.19-.07-.29-.07-.25,0-.46.16-.63.47-.16.32-.24.76-.24,1.33,0,.23.01.43.04.61.03.17.08.34.15.49.07.15.17.26.28.35.12.08.25.13.42.13s.28-.03.38-.1c.11-.07.2-.16.28-.26h0ZM410.01,29.23l-1.88.12-.06-.06v-.38h-.03c-.12.14-.29.27-.5.38-.21.11-.43.16-.64.16-.51,0-.94-.21-1.27-.63-.33-.42-.5-.96-.5-1.62,0-.59.19-1.09.56-1.51.37-.42.82-.63,1.35-.63.21,0,.4.03.59.08s.33.11.44.18v-1.37c0-.1-.02-.2-.06-.29-.04-.09-.09-.16-.15-.21-.09-.07-.19-.11-.3-.13-.12-.03-.24-.04-.36-.06v-.3l2.06-.11.06.07v5.48c0,.11.02.19.05.27.03.07.08.13.15.17.05.03.13.05.23.07s.19.02.25.03v.3h0ZM399.24,29.31h-2.29v-.31c.05,0,.11-.01.18-.02.07,0,.12-.02.15-.04.05-.03.09-.08.11-.13.02-.06.03-.14.03-.26v-1.95c0-.29-.05-.5-.15-.64-.1-.14-.24-.21-.42-.21-.1,0-.2.02-.28.05-.09.04-.18.09-.26.15-.07.06-.13.11-.18.17s-.08.11-.11.15v2.24c0,.1.01.18.03.24.02.06.07.11.13.15.04.03.09.05.15.07.06.02.12.03.18.04v.31h-2.32v-.31c.07,0,.13-.01.19-.02.06,0,.12-.02.17-.04.08-.03.14-.08.16-.14.03-.06.04-.15.04-.25v-4.66c0-.1-.02-.19-.06-.28-.04-.1-.09-.18-.16-.23-.05-.04-.12-.07-.22-.09-.09-.02-.17-.03-.26-.04v-.3l1.89-.11.06.07v2.87h.02c.1-.09.18-.18.26-.26.09-.08.18-.16.28-.23.09-.07.22-.12.37-.17.16-.05.32-.07.49-.07.41,0,.72.13.93.39.21.26.31.6.31,1.02v2.05c0,.1.01.19.04.25.03.06.08.11.16.15.05.02.1.04.15.06.06.02.12.03.21.04v.31h0Z"/>
    <path class="cls-4" d="M394.17,29.12c-.16.08-.34.15-.52.21-.19.06-.41.09-.68.09-.4,0-.69-.11-.88-.32-.19-.21-.29-.51-.29-.91v-2.56h-.69v-.45c.89-.02,1.24-.25,1.61-1.26h.33v1.26h1.07v.45h-1.06v2.29c0,.33.04.56.12.69.08.14.23.2.44.2.07,0,.16,0,.29-.02.12,0,.21-.02.26-.04v.35h0ZM389.75,26.73c0-.17,0-.34-.02-.51-.02-.18-.04-.32-.08-.43-.04-.13-.1-.23-.18-.3-.08-.07-.17-.1-.28-.1-.2,0-.35.11-.47.33-.12.22-.18.56-.19,1.03l1.22-.02h0ZM391.2,28.32c-.09.16-.2.31-.32.45-.13.14-.27.26-.43.36-.16.1-.33.18-.52.24-.17.05-.37.08-.6.08-.38,0-.7-.06-.97-.17-.27-.12-.5-.28-.68-.47-.18-.2-.32-.44-.4-.7-.09-.27-.13-.56-.13-.88,0-.28.05-.56.14-.82.09-.25.23-.49.41-.69.17-.2.39-.36.65-.48s.56-.18.88-.18c.36,0,.65.05.88.14.23.1.42.23.57.39.15.16.25.35.32.56.07.22.1.44.1.68v.27h-2.58c0,.57.1,1.01.3,1.3.2.3.52.45.96.45.23,0,.46-.07.64-.22.2-.15.36-.33.49-.54l.29.23h0ZM386.59,29.31h-2.93v-.33c.09,0,.19-.02.32-.04.12-.02.21-.04.26-.06.09-.04.16-.1.2-.17.04-.07.06-.16.06-.28v-4.83l-1.86,5.61h-.48c-.02-.09-.08-.28-.17-.55-.09-.27-.17-.49-.22-.66l-1.37-4.47v4c0,.34.02.61.06.79.04.18.11.31.2.39.06.06.18.11.34.17.16.05.28.08.34.09v.33h-2.32v-.33c.06,0,.17-.03.31-.06.14-.03.26-.08.35-.15.1-.08.17-.21.21-.4.04-.19.05-.45.05-.79v-3.34c0-.18-.02-.33-.06-.44-.04-.12-.1-.21-.18-.28-.1-.09-.21-.14-.31-.17-.11-.02-.21-.04-.32-.05v-.33h2.49l1.33,4.31,1.13-3.58c.04-.12.07-.26.11-.42.04-.16.05-.27.06-.32h2.4v.33c-.09,0-.17.02-.25.03-.09.02-.17.04-.25.07-.1.04-.16.09-.2.17-.03.08-.05.17-.05.26v4.6c0,.1.02.18.05.25.03.07.1.13.2.18.05.03.13.05.25.07.11.02.2.04.27.05v.33h0Z"/>
    <path class="cls-9" d="M377.49,27.32c0-.21-.01-.42-.04-.61-.03-.2-.08-.37-.15-.52-.07-.15-.16-.27-.27-.36-.11-.09-.25-.14-.42-.14-.15,0-.28.03-.38.08-.11.06-.2.14-.27.25v2.43c.01.06.04.13.09.22.04.09.08.16.13.21.06.07.12.13.19.17.07.04.17.06.29.06.26,0,.46-.16.61-.47.15-.31.23-.75.23-1.32ZM378.86,27.27c0,.63-.19,1.15-.57,1.56-.38.41-.86.62-1.43.62-.22,0-.42-.02-.58-.05-.14-.03-.28-.07-.41-.13-.1-.04-.19-.1-.28-.16-.06-.04-.11-.08-.17-.13l-.55.54-.22-.1c.01-.2.02-.42.03-.66,0-.24.01-.56.01-.96v-3.91c0-.1-.02-.2-.06-.29-.04-.09-.09-.16-.16-.21-.05-.03-.12-.06-.21-.09-.08-.02-.17-.04-.26-.05v-.3l1.88-.11.06.07v2.71h.02c.19-.2.38-.34.57-.43.2-.09.39-.14.59-.14.53,0,.95.2,1.26.6.31.4.46.94.46,1.62h0ZM372.49,26.73c0-.17,0-.34-.02-.51-.02-.18-.04-.32-.08-.43-.04-.13-.1-.23-.18-.3-.08-.07-.17-.1-.28-.1-.2,0-.35.11-.47.33-.12.22-.18.56-.19,1.03l1.22-.02h0ZM373.95,28.32c-.09.16-.2.31-.32.45-.13.14-.27.26-.43.36-.16.1-.34.18-.52.24-.17.05-.37.08-.6.08-.38,0-.7-.06-.97-.17-.27-.12-.5-.28-.68-.47-.18-.2-.32-.44-.4-.7-.09-.27-.13-.56-.13-.88,0-.28.05-.56.14-.82.09-.25.23-.49.41-.69.17-.2.39-.36.65-.48.26-.12.56-.18.88-.18.36,0,.65.05.88.14.23.1.42.23.57.39.15.16.25.35.32.56.07.22.1.44.1.68v.27h-2.58c0,.57.1,1.01.3,1.3.2.3.52.45.96.45.24,0,.45-.07.64-.22.2-.15.36-.33.49-.54l.29.23h0ZM370.15,25.48c-.12.02-.23.06-.32.13-.1.07-.18.19-.25.37-.18.48-.32.86-.43,1.15-.11.29-.26.71-.45,1.27-.05.16-.1.31-.15.47-.06.2-.1.37-.14.49h-.74l-.96-2.84-.9,2.84h-.74c-.2-.59-.4-1.18-.61-1.77-.19-.55-.39-1.11-.59-1.66-.04-.13-.12-.23-.23-.31-.11-.07-.22-.12-.34-.14v-.3h2.34v.3c-.09,0-.19.03-.31.07-.12.04-.18.09-.18.15,0,.03,0,.05,0,.07,0,.02.02.06.03.12.07.22.16.5.28.84s.26.74.42,1.2l.85-2.75h.75l.96,2.84c.15-.43.26-.77.34-1.01.08-.24.18-.56.3-.95.02-.06.03-.11.03-.16s0-.08,0-.09c0-.05-.02-.1-.07-.14-.05-.04-.1-.07-.16-.1-.11-.04-.22-.07-.34-.09v-.3h1.57v.3h0Z"/>
  </g>
  <image width="900" height="258" transform="translate(299.79 18.69) scale(.06)" xlink:href="../../../Alejandro Mendoza/Valtre/Logos Matriz/Software Factory/informatica-vector-logo copia.png"/>
  <g>
    <path class="cls-3" d="M144.34,20.18v6.28c1.22-1.05,2.38-2.06,3.62-3.13v3.24c1.28-1.1,2.46-2.13,3.72-3.22v8.68h-13.29c0-.11-.03-.23-.03-.36,0-3.71,0-7.41,0-11.12,0-.13.03-.26.04-.38,1.96,1.02,3.91,1.03,5.86-.02.03.01.06.03.08.04ZM150.29,28.46h-1.41v1.4h1.41v-1.4ZM146.27,28.44v1.42h1.4v-1.42h-1.4ZM145.07,29.86v-1.41h-1.39v1.41h1.39Z"/>
    <path class="cls-11" d="M144.26,20.14c-1.95,1.05-3.9,1.04-5.86.02-.02-.05-.03-.11-.05-.16-.06-.48.3-.68.61-.92,0,0,.02,0,.02,0,.45-.11.88-.26,1.34-.32,1.14-.14,2.27-.13,3.35.33.56.24.67.46.6,1.04ZM139.75,20.12c.8.41,1.65.25,2.48.21.24-.01.48-.13.72-.21.32.04.64-.04.67-.36.02-.15-.28-.43-.48-.49-1.27-.39-2.56-.41-3.82.06-.15.06-.25.27-.38.41.16.13.31.27.49.38.07.04.2,0,.3,0Z"/>
    <g>
      <path class="cls-3" d="M163.93,23.68c-.78-1.05-1.79-1.91-3.06-2.38-.4-.15-.79-.31-1.19-.46-.32-.12-.51-.32-.58-.67-.35-1.65-1.06-3.13-2-4.53-.85-1.26-1.9-2.3-3.09-3.21-1.07-.82-2.28-1.43-3.58-1.83-1.49-.46-3.01-.78-4.58-.7-2.2.1-4.29.59-6.19,1.75-.46.28-.96.51-1.43.77,0,0-.02.01-.02.01-.13.1-.26.2-.38.31-.02,0-.04.02-.05.04-.12.1-.25.21-.37.31-.14.13-.29.27-.43.4-.03.04-.06.07-.09.11,0,0,0,0,0,0-.03.03-.06.06-.09.09h0s-.06.06-.09.09h0s-.06.06-.09.09c0,0,0,0,0,0-.03.03-.06.06-.09.09,0,0,0,0,0,0-.03.03-.06.06-.08.09,0,0,0,0,0,0-.03.03-.06.06-.09.09,0,0,0,0,0,0-.03.03-.06.06-.1.1-.02,0-.04.02-.05.05-.27.33-.53.66-.8.99-.12.17-.24.34-.36.52,0,0,0,0,0,0-.18.29-.35.58-.53.87,0,0,0,0,0,0-.26.53-.53,1.07-.79,1.6-.02,0-.03.01-.04.03-.27,0-.53.01-.8.02-.14,0-.28,0-.42,0-.34.05-.69.1-1.03.15-.57.09-1.14.19-1.72.28-.04,0-.08.02-.12.03-.41.17-.82.34-1.23.51-.02,0-.04.01-.06.03-.24.13-.48.27-.72.4-.03,0-.05.02-.06.04-.1.07-.2.14-.3.21-.05.03-.1.06-.15.09,0,0-.03.02-.03.02-.03.01-.05.03-.06.06-.15.12-.29.24-.44.36,0,0,0,0,0,0-.03.03-.07.05-.1.08,0,0,.01.02.01.02v-.02s-.07.06-.1.09h0s-.06.06-.09.08c0,0,0,0,0,0-.1.1-.21.2-.31.3-.02,0-.03.02-.03.04-.03.04-.06.07-.09.11,0,0,0,0,0,0-.03.03-.06.06-.09.09,0,0,.02.03.02.03l-.02-.02s-.05.06-.08.09c0,0,0,0,0,0-.05.06-.1.13-.16.19,0,0,0,0,0,0-.1.11-.19.23-.29.34-.02.03-.04.05-.06.08-.14.21-.28.42-.43.63-.02,0-.02.02-.02.04-.16.35-.34.69-.46,1.05-.22.62-.41,1.25-.62,1.88-.03.09-.09.16-.14.25-.01.05-.02.11-.03.16,0,.48,0,.96-.02,1.44,0,.22-.03.44-.06.81-.01-.01-.02-.02-.04-.04.02.19.05.37.07.56.05.04.1.08.11.12.21.62.34,1.28.61,1.88.31.7.74,1.35,1.11,2.03.09.17.17.35.25.53,0,.02,0,.03.03.04.12.08.25.14.35.23.83.86,1.79,1.53,2.87,2.03,1.03.47,2.11.76,3.25.77,4.1.01,8.19,0,12.29,0,4.53.02,9.05.07,13.58.08,1.74,0,3.29-.6,4.65-1.69.15-.12.35-.18.52-.27.09-.15.17-.32.28-.45,1.18-1.27,1.87-2.76,2.13-4.48.32-2.17-.29-4.11-1.55-5.81ZM151.68,32.03h-13.29c0-.11-.03-.23-.03-.36,0-3.71,0-7.41,0-11.12,0-.13.03-.26.04-.38-.02-.05-.03-.11-.05-.16-.02-.16-.1-.36-.04-.49.11-.25.29-.5.64-.43h.02c.21-.41.64-.41.99-.43.9-.05,1.81-.07,2.71,0,.47.04.94.25,1.38.46.36.17.43.56.29,1.06,0,2.06,0,4.12,0,6.28,1.22-1.05,2.38-2.06,3.62-3.13v3.24c1.28-1.1,2.46-2.13,3.72-3.22v8.68Z"/>
      <path class="cls-3" d="M165.74,27.81c-.1-.57-.18-1.12-.34-1.63-.9-2.84-2.8-4.67-5.65-5.54-.17-.05-.38-.24-.42-.4-.75-3.18-2.39-5.76-4.99-7.76-2.15-1.66-4.58-2.54-7.26-2.73-2.32-.17-4.55.26-6.64,1.28-.78.38-1.48.92-2.22,1.39.48-.25.97-.48,1.43-.77,1.9-1.17,4-1.65,6.19-1.75,1.57-.07,3.09.24,4.58.7,1.3.4,2.51,1.01,3.58,1.83,1.19.9,2.24,1.94,3.09,3.21.94,1.4,1.65,2.88,2,4.53.07.35.26.56.58.67.4.14.79.31,1.19.46,1.27.47,2.28,1.33,3.06,2.38,1.27,1.71,1.88,3.64,1.55,5.81-.25,1.72-.95,3.21-2.13,4.48-.12.13-.19.3-.28.45.07-.05.15-.09.21-.15,1.51-1.48,2.31-3.27,2.44-5.38,0-.07,0-.15.02-.22v-.86Z"/>
      <path class="cls-3" d="M125.56,33.27c.12.08.25.14.35.23.83.86,1.79,1.53,2.87,2.03,1.03.47,2.11.76,3.25.77,4.1.01,8.19,0,12.29,0,4.53.02,9.05.07,13.58.08,1.74,0,3.29-.6,4.65-1.69.15-.12.35-.18.52-.27-.67.75-1.53,1.2-2.43,1.59-.94.4-1.93.56-2.96.56-3.91-.01-7.82,0-11.73-.02-4.72-.02-9.44,0-14.15-.11-2.47-.05-4.5-1.22-6.17-3.02-.04-.04-.05-.1-.07-.15Z"/>
      <g>
        <path class="cls-3" d="M138.91,42.2v-2.87c.51.04,1.02.02,1.52.12.65.13.93.58.91,1.36,0,.65-.4,1.16-1.05,1.29-.44.08-.9.07-1.38.11ZM139.4,39.79v1.95c1,.06,1.47-.28,1.44-1.04-.02-.73-.45-1-1.44-.91Z"/>
        <path class="cls-3" d="M128.98,42.14c-.38.12-.61.01-.67-.37-.04-.25-.19-.36-.45-.32-.15.03-.32.02-.47,0-.24-.03-.39.04-.43.29-.06.39-.28.53-.68.41.34-.87.67-1.74,1.02-2.61.04-.09.21-.17.32-.18.12,0,.32.05.35.13.35.87.68,1.76,1.02,2.65ZM127.62,39.83c-.16.47-.29.84-.43,1.23h.85c-.13-.39-.26-.76-.42-1.23Z"/>
        <path class="cls-3" d="M160.91,42.75c.63-.06.81-.38.57-.96-.22-.53-.44-1.06-.67-1.6.34-.12.56-.07.66.32.09.39.25.76.41,1.22.16-.45.3-.83.41-1.21.09-.31.25-.46.63-.33-.35.83-.67,1.67-1.06,2.47-.1.2-.4.35-.64.44-.27.1-.4-.05-.31-.34Z"/>
        <path class="cls-3" d="M147.26,42.23c-.22-.08-.37-.13-.58-.2-.13.04-.34.16-.57.18-.31.03-.57-.13-.62-.47-.05-.34.08-.61.42-.71.27-.08.56-.11.84-.16-.1-.49-.36-.54-1.03-.21-.09-.27,0-.41.27-.49.84-.23,1.25.07,1.26.92,0,.34,0,.69,0,1.15ZM146.77,41.16c-.32.15-.79-.07-.79.46,0,.07.25.22.37.21.35-.03.45-.28.41-.67Z"/>
        <path class="cls-3" d="M137.13,41.3c-.45,0-.86,0-1.28,0-.01,0-.03.01-.04.02-.01.52.4.67,1.15.4.12.27,0,.4-.26.45-.44.08-.87.12-1.21-.25-.29-.32-.3-.71-.19-1.1.15-.52.67-.81,1.19-.69.48.11.72.52.64,1.17ZM135.71,40.83s.07.08.1.13h.88s.05-.08.08-.11c-.17-.13-.34-.37-.5-.37-.19,0-.37.22-.56.35Z"/>
        <path class="cls-3" d="M158.81,41.15c0,.68-.4,1.07-1.08,1.06-.66,0-1.06-.4-1.06-1.04,0-.66.42-1.06,1.09-1.07.67,0,1.04.36,1.04,1.04ZM157.17,41.17c0,.4.22.67.57.68.36,0,.58-.23.59-.64.01-.44-.2-.72-.56-.73-.36,0-.59.27-.6.69Z"/>
        <path class="cls-3" d="M149.6,40.98v1.18h-.47v-2.78h1.54c0,.1.01.24.02.38h-1.06v.8c.3.2.84-.24,1.05.42h-1.09Z"/>
        <path class="cls-3" d="M132.71,40.16h.46v2.05c-.19-.05-.35-.09-.4-.1-.42.01-.77.1-1.08,0-.4-.12-.37-.53-.37-.88,0-.34,0-.69,0-1.07.15-.01.29-.02.48-.04,0,.39,0,.76,0,1.13,0,.3.06.57.42.58.37,0,.49-.25.49-.57,0-.36,0-.71,0-1.11Z"/>
        <path class="cls-3" d="M143.48,42.25c-.39-.21-.71-.13-1.05-.05-.32.07-.63-.06-.7-.46-.06-.37.11-.63.49-.74.12-.03.25-.05.38-.07.12-.02.25-.04.37-.06-.1-.49-.25-.52-1.04-.23-.09-.26,0-.39.26-.47.84-.25,1.27.06,1.27.93,0,.34,0,.68,0,1.14ZM143.03,41.2c-.22.03-.42.01-.58.08-.12.05-.19.21-.28.32.13.08.26.23.4.23.35,0,.43-.26.46-.63Z"/>
        <path class="cls-3" d="M152.21,40.85c-.22-.48-.41-.51-1.08-.19-.11-.3.01-.43.3-.5.84-.22,1.23.07,1.23.94,0,.34,0,.69,0,1.11-.21-.05-.37-.1-.56-.15-.18.04-.4.14-.63.14-.3,0-.52-.16-.56-.48-.04-.32.07-.58.39-.68.28-.09.58-.12.91-.19ZM152.2,41.19c-.33.11-.74-.1-.82.39-.01.07.19.25.3.26.38.02.52-.22.52-.65Z"/>
        <path class="cls-3" d="M129.83,41.8h1.09v.35h-1.87c.42-.57.81-1.08,1.21-1.62h-.97c-.01-.13-.02-.24-.03-.37h1.82c-.45.59-.82,1.08-1.24,1.63Z"/>
        <path class="cls-3" d="M145.27,41.96c-.12.08-.23.22-.36.24-.32.05-.64-.03-.67-.42-.04-.39,0-.78,0-1.11-.15-.14-.26-.24-.37-.33.1-.09.2-.18.35-.31v-.32c.16-.05.3-.09.48-.15v.58c.17,0,.32.02.48.02.16.51-.24.31-.43.38-.11,1.23-.09,1.35.43,1.3.03.04.07.08.1.12Z"/>
        <path class="cls-3" d="M154.75,41.67c.12.36-.04.47-.3.52-.49.09-.95-.08-1.18-.45-.2-.32-.17-.87.05-1.19.26-.37.79-.57,1.23-.42.13.04.2.24.26.42-.44-.15-.81-.17-1.07.23-.18.28-.18.59.05.84.27.3.61.28.96.04Z"/>
        <path class="cls-3" d="M156.44,41.95c-.11.09-.21.23-.33.25-.34.05-.66-.03-.69-.45-.03-.38,0-.77,0-1.04-.17-.19-.26-.29-.36-.4.09-.08.18-.15.35-.29,0-.03,0-.16.02-.32.14-.04.27-.08.43-.13.01.21.02.39.04.55.19.1.62-.15.48.38-.15.01-.31.03-.49.04,0,.27,0,.52,0,.78-.02.36.06.61.55.49,0,.05.02.09.03.14Z"/>
        <path class="cls-3" d="M133.85,42.18v-2.01c.14-.01.27-.02.43-.04.02.11.03.21.04.25.21-.09.41-.18.63-.24.02,0,.11.23.18.39q-.75.02-.83,1.63c-.13,0-.27.01-.45.02Z"/>
        <path class="cls-3" d="M159.36,40.09c.21.07.37.12.54.18-.01.03-.03.06-.04.09.21-.1.41-.19.68-.32.02.22.03.36.04.49q-.67,0-.76,1.62c-.14,0-.29.01-.46.02v-2.09Z"/>
      </g>
      <path class="cls-3" d="M123.67,29.62c.02.08.02.15.01.22.36,1.27.93,2.42,1.85,3.39-.08-.18-.16-.36-.25-.53-.37-.68-.8-1.33-1.11-2.03-.27-.6-.4-1.26-.61-1.88-.01-.04-.06-.09-.11-.12.08.32.16.63.22.95Z"/>
      <path class="cls-3" d="M124.75,22.57c-.16.35-.34.69-.46,1.05-.22.62-.41,1.25-.62,1.88-.03.09-.09.16-.14.25.14-1.16.53-2.23,1.23-3.17Z"/>
      <path class="cls-3" d="M132.49,18.27c-.34.05-.69.1-1.03.15-.57.09-1.14.19-1.72.28.88-.37,1.79-.52,2.74-.43Z"/>
      <path class="cls-3" d="M123.32,28.05s.06.06.1.1c.03-.36.05-.58.06-.81.01-.48.01-.96.02-1.44-.07.61-.14,1.22-.21,1.84.01.1.02.2.04.3Z"/>
      <path class="cls-3" d="M134.54,16.63c-.26.53-.53,1.07-.79,1.6.26-.53.53-1.07.79-1.6Z"/>
      <path class="cls-3" d="M136.22,14.26c-.27.33-.53.66-.8,1,.27-.33.53-.66.8-1Z"/>
      <path class="cls-3" d="M129.62,18.72c-.41.17-.82.34-1.23.51.41-.17.82-.34,1.23-.51Z"/>
      <path class="cls-3" d="M135.07,15.76c-.18.29-.35.58-.53.87.18-.29.35-.58.53-.87Z"/>
      <path class="cls-3" d="M133.71,18.25c-.27,0-.53.01-.8.02.27,0,.53-.01.8-.02Z"/>
      <path class="cls-3" d="M128.34,19.27c-.24.13-.48.27-.72.4.24-.13.48-.27.72-.4Z"/>
      <path class="cls-3" d="M125.2,21.91c-.14.21-.28.42-.43.63.14-.21.28-.42.43-.63Z"/>
      <path class="cls-3" d="M135.42,15.25c-.12.17-.24.34-.36.52.12-.17.24-.34.36-.52Z"/>
      <path class="cls-3" d="M127.02,20.08c-.15.12-.29.24-.44.36.15-.12.29-.24.44-.36Z"/>
      <path class="cls-3" d="M137.77,12.78c-.12.1-.25.21-.37.31.12-.1.25-.21.37-.31Z"/>
      <path class="cls-3" d="M138.21,12.43c-.13.1-.26.2-.38.31.13-.1.26-.2.38-.31Z"/>
      <path class="cls-3" d="M125.55,21.49c-.1.11-.19.23-.29.34.1-.11.19-.23.29-.34Z"/>
      <path class="cls-3" d="M126.3,20.68c-.1.1-.21.2-.31.3.1-.1.21-.2.31-.3Z"/>
      <path class="cls-3" d="M127.56,19.71c-.1.07-.2.14-.3.21.1-.07.2-.14.3-.21Z"/>
      <path class="cls-3" d="M125.7,21.3c-.05.06-.1.13-.16.19.05-.06.1-.13.16-.19Z"/>
      <path class="cls-3" d="M126.48,20.52s-.06.06-.09.09c.03-.03.06-.06.09-.09Z"/>
      <path class="cls-3" d="M136.97,13.49s-.06.07-.09.11c.03-.04.06-.07.09-.11Z"/>
      <path class="cls-3" d="M136.79,13.68s-.06.06-.09.09c.03-.03.06-.06.09-.09Z"/>
      <path class="cls-3" d="M136.7,13.76s-.06.06-.09.09c.03-.03.06-.06.09-.09Z"/>
      <path class="cls-3" d="M126.4,20.6s-.06.06-.09.08c.03-.03.06-.06.09-.08Z"/>
      <path class="cls-3" d="M136.62,13.85s-.06.06-.09.09c.03-.03.06-.06.09-.09Z"/>
      <path class="cls-3" d="M136.45,14.03s-.06.06-.09.09c.03-.03.06-.06.09-.09Z"/>
      <path class="cls-3" d="M125.97,21.02s-.06.07-.09.11c.03-.04.06-.07.09-.11Z"/>
      <path class="cls-3" d="M136.88,13.59s-.06.06-.09.09c.03-.03.06-.06.09-.09Z"/>
      <path class="cls-3" d="M136.53,13.94s-.06.06-.08.09c.03-.03.06-.06.08-.09Z"/>
      <path class="cls-3" d="M125.87,21.12s-.06.06-.09.09c.03-.03.06-.06.09-.09Z"/>
      <path class="cls-3" d="M136.36,14.11s-.06.06-.1.1c.03-.03.06-.06.1-.1Z"/>
      <polygon class="cls-3" points="127.11 20.01 127.08 20.03 127.08 20 127.11 20.01"/>
      <path class="cls-3" d="M126.58,20.44s-.07.05-.1.08c.03-.03.07-.05.1-.08Z"/>
      <path class="cls-3" d="M125.79,21.21s-.05.06-.08.09c.03-.03.05-.06.08-.09Z"/>
      <path class="cls-3" d="M144.26,20.14c.07-.58-.04-.8-.6-1.04-1.08-.46-2.21-.47-3.35-.33-.45.06-.89.21-1.34.32.21-.42.64-.42.99-.44.9-.05,1.81-.07,2.71,0,.47.04.94.25,1.38.46.36.17.43.56.29,1.06-.03-.01-.06-.03-.08-.04Z"/>
      <path class="cls-3" d="M138.95,19.09c-.3.24-.66.44-.61.92-.02-.16-.1-.36-.04-.49.11-.25.29-.5.64-.43Z"/>
      <path class="cls-3" d="M150.29,28.46v1.4h-1.41v-1.4h1.41Z"/>
      <path class="cls-3" d="M146.27,28.44h1.4v1.42h-1.4v-1.42Z"/>
      <path class="cls-3" d="M145.07,29.86h-1.39v-1.41h1.39v1.41Z"/>
      <path class="cls-3" d="M139.75,20.12c-.1,0-.22.05-.3,0-.18-.11-.33-.25-.49-.38.12-.14.22-.35.38-.41,1.26-.47,2.54-.45,3.82-.06.2.06.49.34.48.49-.03.33-.36.41-.67.36-.67-.08-1.34-.2-2.01-.22-.4-.01-.8.14-1.2.22Z"/>
      <path class="cls-3" d="M139.75,20.12c.4-.08.8-.23,1.2-.22.67.02,1.34.14,2.01.22-.24.07-.48.19-.72.21-.83.04-1.68.2-2.48-.21Z"/>
    </g>
  </g>
</svg>