<?xml version="1.0" encoding="UTF-8"?>
<svg id="Capa_1" data-name="Capa 1" xmlns="http://www.w3.org/2000/svg" xmlns:xlink="http://www.w3.org/1999/xlink" viewBox="0 0 425.5 53">
  <defs>
    <style>
      .cls-1 {
        fill: url(#Degradado_sin_nombre_16);
      }

      .cls-2 {
        fill: url(#Degradado_sin_nombre_7);
      }

      .cls-2, .cls-3 {
        isolation: isolate;
        opacity: .5;
      }

      .cls-4 {
        fill: #fff;
      }

      .cls-5 {
        mask: url(#mask);
      }

      .cls-6 {
        fill: none;
      }

      .cls-7 {
        fill: url(#Degradado_sin_nombre_4);
      }

      .cls-8 {
        clip-path: url(#clippath-1);
      }

      .cls-9 {
        fill: url(#Degradado_sin_nombre_2);
        opacity: .05;
      }

      .cls-10 {
        fill: url(#Degradado_sin_nombre_9);
      }

      .cls-11 {
        fill: #fdce0d;
      }

      .cls-12 {
        fill: #e51b27;
      }

      .cls-13 {
        fill: #112033;
      }

      .cls-14 {
        fill: url(#Degradado_sin_nombre_8);
      }

      .cls-15 {
        fill: #21b7b3;
      }

      .cls-3 {
        fill: #b0adff;
      }
    </style>
    <linearGradient id="Degradado_sin_nombre_2" data-name="Degradado sin nombre 2" x1="113" y1="-201.96" x2="347.27" y2="149.82" gradientUnits="userSpaceOnUse">
      <stop offset="0" stop-color="#fff"/>
      <stop offset="1" stop-color="#000"/>
    </linearGradient>
    <linearGradient id="Degradado_sin_nombre_16" data-name="Degradado sin nombre 16" x1="-2.17" y1="26.51" x2="103.71" y2="26.51" gradientUnits="userSpaceOnUse">
      <stop offset="0" stop-color="#00aeef"/>
      <stop offset=".36" stop-color="#049ddf"/>
      <stop offset="1" stop-color="#0f75bc"/>
    </linearGradient>
    <linearGradient id="Degradado_sin_nombre_4" data-name="Degradado sin nombre 4" x1="391.11" y1="-2446.74" x2="391.11" y2="-2467.38" gradientTransform="translate(0 -2430) scale(1 -1)" gradientUnits="userSpaceOnUse">
      <stop offset="0" stop-color="#0ae"/>
      <stop offset="1" stop-color="#05a"/>
    </linearGradient>
    <clipPath id="clippath">
      <rect class="cls-6" x="553.83" y="-879.66" width="960.22" height="540.01"/>
    </clipPath>
    <clipPath id="clippath-1">
      <rect class="cls-6" x="122" y="19.46" width="15" height="15"/>
    </clipPath>
    <mask id="mask" x="123.88" y="19.3" width="10.94" height="15.62" maskUnits="userSpaceOnUse">
      <g id="mask0">
        <path class="cls-4" d="M134.81,24.31c0-.66-.42-1.25-1.04-1.47l-9.07-3.24c-.41-.15-.84.16-.84.59v4.92c0,.26.17.5.41.59l4.06,1.45c.41.15.84-.16.84-.59v-2.83c0-.22.22-.37.42-.29l1.07.4c.61.23,1.01.81,1.01,1.46v1.23l-4.59,1.68c-.25.09-.41.32-.41.59v4.92c0,.43.43.74.84.59l6.26-2.29c.62-.23,1.03-.81,1.03-1.47v-6.24Z"/>
      </g>
    </mask>
    <linearGradient id="Degradado_sin_nombre_9" data-name="Degradado sin nombre 9" x1="127.47" y1="-2449.48" x2="130.38" y2="-2457.09" gradientTransform="translate(0 -2430) scale(1 -1)" gradientUnits="userSpaceOnUse">
      <stop offset="0" stop-color="#0b53ce"/>
      <stop offset="1" stop-color="#7252aa"/>
    </linearGradient>
    <linearGradient id="Degradado_sin_nombre_8" data-name="Degradado sin nombre 8" x1="130.75" y1="-2464.07" x2="130.75" y2="-2454.99" gradientTransform="translate(0 -2430) scale(1 -1)" gradientUnits="userSpaceOnUse">
      <stop offset="0" stop-color="#2266e3"/>
      <stop offset="1" stop-color="#ae7fe2"/>
    </linearGradient>
    <linearGradient id="Degradado_sin_nombre_7" data-name="Degradado sin nombre 7" x1="134.81" y1="-2459.46" x2="131.7" y2="-2459.46" gradientTransform="translate(0 -2430) scale(1 -1)" gradientUnits="userSpaceOnUse">
      <stop offset="0" stop-color="#94b9ff"/>
      <stop offset=".29" stop-color="#94b9ff" stop-opacity=".52"/>
      <stop offset="1" stop-color="#538fff" stop-opacity="0"/>
    </linearGradient>
  </defs>
  <rect class="cls-9" x="104.97" y=".02" width="320.36" height="52.98"/>
  <rect class="cls-1" x="-.49" y=".02" width="103.44" height="52.98"/>
  <g>
    <path class="cls-4" d="M12.8,15.96h3.23v4.66c0,2.35-1.18,3.7-3.44,3.7s-3.44-1.34-3.44-3.7v-7.64c0-2.35,1.18-3.7,3.44-3.7s3.44,1.34,3.44,3.7v1.43h-2.18v-1.58c0-1.05-.46-1.45-1.2-1.45s-1.2.4-1.2,1.45v7.94c0,1.05.46,1.43,1.2,1.43s1.2-.38,1.2-1.43v-2.71h-1.05v-2.1Z"/>
    <path class="cls-4" d="M19.83,15.64h3.17v2.1h-3.17v4.3h3.99v2.1h-6.3v-14.7h6.3v2.1h-3.99v4.09Z"/>
    <path class="cls-4" d="M28.36,9.28c2.25,0,3.4,1.34,3.4,3.7v.46h-2.18v-.61c0-1.05-.42-1.45-1.15-1.45s-1.16.4-1.16,1.45c0,3.02,4.51,3.59,4.51,7.79,0,2.35-1.18,3.7-3.44,3.7s-3.44-1.34-3.44-3.7v-.9h2.18v1.05c0,1.05.46,1.43,1.2,1.43s1.2-.38,1.2-1.43c0-3.02-4.51-3.59-4.51-7.79,0-2.35,1.15-3.7,3.4-3.7Z"/>
    <path class="cls-4" d="M32.43,9.45h7.14v2.1h-2.42v12.6h-2.31v-12.6h-2.42v-2.1Z"/>
    <path class="cls-4" d="M40.58,9.45h2.31v14.7h-2.31v-14.7Z"/>
    <path class="cls-4" d="M44.38,12.98c0-2.35,1.24-3.7,3.51-3.7s3.51,1.34,3.51,3.7v7.64c0,2.35-1.24,3.7-3.51,3.7s-3.51-1.34-3.51-3.7v-7.64ZM50.36,6.34l-2.14,2.33h-1.55l1.43-2.33h2.27ZM46.69,20.77c0,1.05.46,1.45,1.2,1.45s1.2-.4,1.2-1.45v-7.94c0-1.05-.46-1.45-1.2-1.45s-1.2.4-1.2,1.45v7.94Z"/>
    <path class="cls-4" d="M54.94,13.5v10.65h-2.08v-14.7h2.9l2.37,8.8v-8.8h2.06v14.7h-2.37l-2.88-10.65Z"/>
    <path class="cls-4" d="M65.11,9.45h3.65c2.31,0,3.44,1.28,3.44,3.63v7.43c0,2.35-1.13,3.63-3.44,3.63h-3.65v-14.7ZM67.42,11.55v10.5h1.3c.73,0,1.18-.38,1.18-1.43v-7.64c0-1.05-.44-1.43-1.18-1.43h-1.3Z"/>
    <path class="cls-4" d="M75.98,15.64h3.17v2.1h-3.17v4.3h3.99v2.1h-6.3v-14.7h6.3v2.1h-3.99v4.09Z"/>
    <path class="cls-4" d="M14.77,29.44c.5.63.76,1.5.76,2.62v1.6c0,1.18-.28,2.05-.83,2.62-.55.57-1.41.86-2.57.86h-1.83v6.05h-.97v-14.7h3.04c1.09,0,1.89.32,2.39.95ZM13.98,35.67c.38-.4.58-1.05.58-1.94v-1.72c0-.85-.17-1.5-.5-1.95-.34-.45-.9-.67-1.68-.67h-2.08v6.89h1.83c.85,0,1.47-.2,1.86-.6Z"/>
    <path class="cls-4" d="M23.23,31.81v1.28c0,.87-.17,1.55-.51,2.05-.34.5-.88.83-1.61,1,1.41.31,2.12,1.31,2.12,3v2.29c0,.81.12,1.4.36,1.76h-1.01c-.13-.21-.21-.45-.25-.72-.04-.27-.06-.62-.06-1.04v-2.31c0-.92-.23-1.57-.69-1.94-.46-.37-1.15-.56-2.06-.56h-1.53v6.57h-.97v-14.7h3.07c2.1,0,3.15,1.11,3.15,3.32ZM21.6,35.22c.45-.35.67-.99.67-1.93v-1.39c0-.83-.17-1.45-.52-1.88-.35-.43-.91-.64-1.68-.64h-2.08v6.36h1.55c.92,0,1.61-.17,2.06-.52Z"/>
    <path class="cls-4" d="M25.87,29.39c.54-.68,1.34-1.02,2.4-1.02s1.91.34,2.45,1.01c.54.67.81,1.57.81,2.71v7.52c0,1.13-.27,2.04-.81,2.71s-1.35,1.01-2.45,1.01-1.87-.34-2.4-1.02c-.54-.68-.81-1.58-.81-2.7v-7.52c0-1.12.27-2.02.81-2.7ZM26.57,41.69c.36.5.93.75,1.7.75s1.36-.25,1.73-.75.56-1.17.56-2.03v-7.64c0-.85-.19-1.53-.56-2.03s-.95-.75-1.73-.75-1.34.25-1.7.75-.55,1.17-.55,2.03v7.64c0,.85.18,1.53.55,2.03Z"/>
    <path class="cls-4" d="M32.54,28.5h1.01l2.81,7.73,2.81-7.73h.95l-3.32,9.05v5.65h-.97v-5.65l-3.3-9.05Z"/>
    <path class="cls-4" d="M46.5,36.18h-4.01v6.13h4.83v.88h-5.8v-14.7h5.8v.88h-4.83v5.92h4.01v.88Z"/>
    <path class="cls-4" d="M54.4,29.39c.52.68.78,1.58.78,2.7v1.22h-.92v-1.28c0-.84-.18-1.51-.54-2.02-.36-.5-.92-.76-1.69-.76s-1.33.25-1.69.76c-.36.5-.54,1.18-.54,2.02v7.64c0,.84.18,1.51.54,2,.36.5.92.75,1.69.75s1.33-.25,1.69-.75c.36-.5.54-1.17.54-2v-1.74h.92v1.68c0,1.12-.26,2.02-.78,2.7-.52.68-1.32,1.02-2.39,1.02s-1.88-.34-2.39-1.02c-.52-.68-.78-1.58-.78-2.7v-7.52c0-1.12.26-2.02.78-2.7.52-.68,1.32-1.02,2.39-1.02s1.88.34,2.39,1.02Z"/>
    <path class="cls-4" d="M59.23,29.38h-2.98v-.88h6.95v.88h-3v13.82h-.97v-13.82Z"/>
    <path class="cls-4" d="M65.14,29.39c.54-.68,1.34-1.02,2.4-1.02s1.91.34,2.45,1.01c.54.67.81,1.57.81,2.71v7.52c0,1.13-.27,2.04-.81,2.71s-1.35,1.01-2.45,1.01-1.87-.34-2.4-1.02c-.54-.68-.81-1.58-.81-2.7v-7.52c0-1.12.27-2.02.81-2.7ZM65.84,41.69c.36.5.93.75,1.7.75s1.36-.25,1.73-.75.56-1.17.56-2.03v-7.64c0-.85-.19-1.53-.56-2.03s-.95-.75-1.73-.75-1.34.25-1.7.75-.55,1.17-.55,2.03v7.64c0,.85.18,1.53.55,2.03Z"/>
    <path class="cls-4" d="M77.82,29.37c.51.67.77,1.56.77,2.68v.31h-.92v-.38c0-.84-.18-1.5-.53-2-.35-.49-.9-.73-1.66-.73s-1.31.25-1.66.73c-.35.49-.52,1.15-.52,1.97,0,.53.11,1,.34,1.42.22.41.5.77.83,1.07s.78.66,1.35,1.08c.6.43,1.09.82,1.47,1.16s.69.75.94,1.24.38,1.06.38,1.72c0,1.12-.26,2.01-.78,2.68-.52.67-1.32,1-2.39,1s-1.88-.33-2.39-1c-.52-.67-.78-1.56-.78-2.68v-.76h.92v.82c0,.84.18,1.5.54,1.98.36.48.92.72,1.69.72s1.33-.24,1.69-.72c.36-.48.54-1.14.54-1.98,0-.53-.11-1-.34-1.41s-.5-.76-.83-1.06c-.33-.3-.77-.65-1.33-1.06-.6-.43-1.09-.82-1.47-1.17-.38-.34-.7-.76-.96-1.26-.26-.5-.39-1.07-.39-1.73,0-1.13.26-2.02.78-2.67.52-.64,1.3-.97,2.35-.99,1.06,0,1.85.33,2.36,1Z"/>
  </g>
  <g>
    <path class="cls-7" d="M411.98,16.74h-41.73v20.63h21.09"/>
    <path class="cls-4" d="M390.89,20.87v9.72l-3.58-9.72h-3.58l-3.03,8.07c-.37-2.02-2.48-2.75-4.13-3.3-1.1-.37-2.29-.83-2.29-1.47,0-.46.64-.92,1.83-.83.83.09,1.56.09,3.03.83l1.47-2.48c-1.38-.73-3.21-1.1-4.68-1.1-1.74,0-3.21.55-4.13,1.47-.64.64-.92,1.47-1.01,2.38,0,1.28.46,2.2,1.47,2.93.83.55,1.83.92,2.75,1.19,1.19.37,2.11.73,2.11,1.38-.09.83-1.01,1.01-1.65,1.01-1.1.09-2.02-.09-3.39-.92l-1.28,2.48c1.38.83,2.84,1.19,4.59,1.19,1.19,0,3.03-.37,4.03-1.28l-.18.83h3.48l.64-1.56c1.38.37,2.93.46,4.31,0l.46,1.56h6.24v-3.67h1.28c3.21,0,5.14-1.56,5.14-4.31,0-3.12-1.83-4.4-5.78-4.4h-4.13ZM384.19,28.94l1.28-4.13h.09l1.28,4.13c-.92.28-1.83.28-2.66,0ZM394.37,26.83v-3.3h.92c1.19,0,2.11.37,2.11,1.56,0,1.28-.92,1.74-2.11,1.74h-.92Z"/>
  </g>
  <g>
    <path d="M325.06,21.65h2.35c1.48,0,2.21.82,2.21,2.33v4.77c0,1.51-.73,2.33-2.21,2.33h-2.35v-9.44ZM326.55,23v6.74h.84c.47,0,.76-.24.76-.92v-4.91c0-.67-.28-.92-.76-.92h-.84Z"/>
    <path d="M332.05,25.63h2.04v1.35h-2.04v2.76h2.56v1.35h-4.05v-9.44h4.05v1.35h-2.56v2.63Z"/>
    <path d="M335.53,21.65h1.48v8.09h2.44v1.35h-3.92v-9.44Z"/>
    <path d="M338.99,21.65h4.59v1.35h-1.55v8.09h-1.48v-8.09h-1.55v-1.35Z"/>
    <path d="M348.52,31.1h-1.5l-.26-1.71h-1.82l-.26,1.71h-1.36l1.51-9.44h2.17l1.51,9.44ZM345.13,28.1h1.43l-.71-4.77-.71,4.77Z"/>
  </g>
  <g>
    <path class="cls-12" d="M262.79,24.3c.59,0,1.18,0,1.77,0,1.09,0,2.16.73,2.56,1.77.43,1.13.26,2.18-.56,3.09-.59.65-1.33.92-2.2.92-1.08,0-2.15,0-3.23,0-1.28,0-2.38-.77-2.78-1.95-.41-1.2-.01-2.5,1.01-3.27.48-.36,1.03-.56,1.64-.56.6,0,1.2,0,1.8,0ZM262.77,29.02h0c.51.01,1.02.01,1.53.01,1.1,0,1.93-.79,1.95-1.84.02-.99-.81-1.85-1.86-1.87-1.08-.02-2.15-.02-3.23,0-1.03.02-1.79.77-1.86,1.77-.06.94.64,1.82,1.6,1.93.61.07,1.24.01,1.86.01Z"/>
    <path class="cls-12" d="M302.97,24.3c-.23.37-.44.69-.64,1.01-1.07,0-2.13,0-3.18,0-.91,0-1.63.51-1.85,1.33h5.35c-.19.4-.42.71-.63,1.04h-4.7c.11.73.88,1.34,1.69,1.35,1.23,0,2.47,0,3.7,0h.38c-.24.37-.45.7-.66,1.04-1.27-.02-2.53.07-3.78-.04-1.55-.14-2.65-1.51-2.55-3.07.09-1.48,1.37-2.66,2.88-2.66,1.21,0,2.42,0,3.63,0h.37Z"/>
    <path class="cls-12" d="M274.52,30.06c-.58,0-1.08,0-1.57,0-.06,0-.12-.05-.17-.09-1.05-.91-2.1-1.83-3.22-2.8.39,0,.7,0,1.02,0,.69,0,1.38,0,2.07,0,.55,0,.98-.38,1-.9.02-.52-.4-.95-.98-.96-.87-.01-1.73,0-2.6,0-.33,0-.66,0-1.02,0v4.73h-1.1v-5.71c.1-.07.21-.03.32-.03,1.51,0,3.02,0,4.53,0,1.11,0,1.97.86,1.96,1.96,0,1.09-.85,1.93-1.95,1.93-.13,0-.27,0-.51,0,.76.64,1.45,1.23,2.23,1.88Z"/>
    <path class="cls-12" d="M280.52,28.04c-.54-.87-1.03-1.67-1.56-2.52-.97,1.53-1.91,3.03-2.87,4.53h-1.27c-.03-.11.07-.19.12-.27,1.09-1.71,2.18-3.42,3.27-5.13.36-.56,1.08-.59,1.44-.05,1.17,1.79,2.31,3.6,3.49,5.43h-1.32c-.19-.31-.4-.65-.62-.99h-2.99c-.21-.32-.42-.64-.66-1.01h2.96Z"/>
    <path class="cls-12" d="M289.43,24.34c-.2.32-.4.63-.61.97-1.04,0-2.08,0-3.13,0-.62,0-1.16.18-1.56.67-.48.58-.6,1.24-.3,1.92.31.71.88,1.11,1.66,1.12,1.23.02,2.46,0,3.7,0,.11,0,.21,0,.37,0-.24.37-.45.7-.64,1.01-1.29,0-2.55.07-3.8-.02-1.54-.11-2.64-1.48-2.55-3.03.09-1.53,1.34-2.7,2.87-2.7,1.21,0,2.42,0,3.63,0,.11,0,.22-.03.35.05Z"/>
    <path class="cls-12" d="M290.04,24.31h1.13v4.72h5.15c-.17.4-.42.69-.63,1.03h-.77c-1.38,0-2.75,0-4.13,0-.57,0-.74-.17-.74-.73,0-1.66,0-3.33,0-5.02Z"/>
    <path class="cls-12" d="M304.74,24.92c0,.34-.32.65-.67.65-.35,0-.65-.31-.65-.66,0-.37.31-.67.68-.66.36.01.64.31.64.67ZM303.81,24.51c-.27.22-.31.46-.12.7.17.22.45.26.67.1.23-.17.29-.45.15-.67-.16-.25-.42-.29-.71-.13h0Z"/>
    <path class="cls-12" d="M303.8,24.51c.18.02.38-.05.53.13.06.19-.16.39.05.58-.24.04-.22-.16-.33-.23-.12.03.01.23-.17.24-.14-.23,0-.5-.07-.74,0,0,0,0,0,0ZM304.03,24.66c-.05.06-.05.12,0,.17.08.01.12-.02.15-.09-.03-.07-.08-.1-.15-.09Z"/>
  </g>
  <g>
    <g class="cls-8">
      <g class="cls-5">
        <g>
          <path class="cls-10" d="M123.88,19.3l10.94,3.91v5.36c0,.43-.43.73-.84.59l-2.29-.82v-3.04c0-.65-.4-1.23-1.01-1.46l-1.06-.4c-.2-.08-.42.07-.42.29v3.71l-5.31-1.9v-6.25Z"/>
          <path d="M134.81,24.36h0c0,.66-.41,1.24-1.03,1.47l-7.1,2.59v6.25l8.12-2.97v-7.34Z"/>
          <path d="M134.81,24.61h0c0,.66-.41,1.24-1.03,1.47l-7.1,2.59v6.25l8.12-2.97v-7.34Z"/>
          <path class="cls-14" d="M134.81,24.3h0c0,.66-.41,1.24-1.03,1.47l-7.1,2.59v6.25l8.12-2.97v-7.34Z"/>
          <path class="cls-2" d="M134.81,24.3h0c0,.66-.41,1.24-1.03,1.47l-7.1,2.59v6.25l8.12-2.97v-7.34Z"/>
          <path class="cls-3" d="M131.69,26.54l-2.5.92v3.67c0,.22.22.37.42.29l1.07-.4c.61-.23,1.01-.81,1.01-1.46v-3.01Z"/>
        </g>
      </g>
    </g>
    <g>
      <path d="M138.58,28.86v-4.5h1.4c.79,0,1.38.18,1.77.55.39.37.59.91.59,1.65s-.22,1.25-.65,1.68c-.43.42-1.01.63-1.73.63h-1.37ZM139.33,25.01v3.21h.58c.51,0,.91-.15,1.2-.44.29-.29.43-.7.43-1.21s-.14-.89-.41-1.16c-.27-.27-.68-.4-1.21-.4h-.6Z"/>
      <path d="M145.83,25.57l-1.49,3.89c-.12.3-.27.54-.48.7-.2.16-.44.24-.72.24-.08,0-.16,0-.24-.02s-.15-.03-.21-.04l.13-.58s.09.03.13.04c.04,0,.08.01.13.01.12,0,.22-.03.31-.1.09-.06.16-.16.21-.28l.24-.56-1.29-3.29h.82l.76,2.29s.02.09.04.14.03.12.04.19h.02s.02-.09.03-.15c.01-.05.03-.12.05-.19l.79-2.3h.75Z"/>
      <path d="M149.14,28.86h-.74v-1.86c0-.31-.05-.54-.17-.69-.11-.15-.27-.23-.49-.23s-.4.08-.55.25c-.14.17-.22.38-.22.64v1.88h-.74v-3.29h.74v.53h.01c.12-.2.27-.36.44-.46s.38-.15.61-.15c.36,0,.63.11.81.34.18.23.28.57.28,1.01v2.01Z"/>
      <path d="M152.43,28.86h-.71v-.5h-.01c-.11.19-.25.33-.41.43-.16.1-.35.15-.57.15-.3,0-.55-.09-.74-.26s-.29-.42-.29-.72.1-.54.29-.72.48-.31.87-.36l.87-.12v-.07c0-.22-.06-.38-.17-.49-.12-.1-.27-.15-.47-.15-.16,0-.31.03-.47.09s-.32.14-.47.26l-.32-.45c.2-.15.4-.27.62-.34s.45-.11.7-.11c.43,0,.75.11.97.33s.32.54.32.98v2.06ZM151.73,27.52v-.28l-.7.09c-.21.03-.36.09-.46.17-.1.08-.15.21-.15.37s.05.28.14.37c.1.09.22.13.38.13.24,0,.43-.08.58-.24.15-.16.22-.37.22-.62Z"/>
      <path d="M158.12,28.86h-.74v-1.89c0-.31-.05-.54-.15-.68-.1-.14-.26-.21-.49-.21-.2,0-.36.09-.49.26-.13.18-.2.39-.2.65v1.86h-.74v-1.93c0-.28-.05-.5-.16-.64-.11-.14-.26-.21-.48-.21s-.37.08-.5.25c-.13.17-.19.39-.19.67v1.85h-.74v-3.29h.74v.52h.01c.11-.19.25-.33.43-.44s.38-.16.6-.16.42.06.58.17c.16.11.28.27.35.48.12-.22.27-.38.45-.49s.39-.16.63-.16c.36,0,.62.11.8.33s.27.55.27,1v2.04Z"/>
      <path d="M159.29,24.99c-.13,0-.25-.04-.33-.13-.09-.09-.13-.19-.13-.32s.04-.24.13-.32.2-.13.33-.13.25.04.33.13.13.19.13.32-.04.23-.13.32-.2.13-.33.13ZM159.66,28.86h-.74v-3.29h.74v3.29Z"/>
      <path d="M163.01,28.65c-.16.1-.32.18-.49.22s-.34.07-.53.07c-.5,0-.9-.15-1.2-.45s-.45-.7-.45-1.2c0-.55.16-.99.47-1.31s.73-.49,1.26-.49c.18,0,.35.02.5.06.15.04.3.1.46.19l-.29.52c-.11-.06-.21-.11-.32-.14s-.22-.04-.34-.04c-.31,0-.56.1-.73.31s-.26.49-.26.83.09.63.27.83.41.29.69.29c.09,0,.19-.02.3-.05s.22-.08.34-.16l.3.51Z"/>
      <path d="M163.27,28.6l.32-.53c.12.09.26.16.4.21s.3.08.47.08c.18,0,.32-.03.43-.1.1-.07.15-.17.15-.3,0-.11-.04-.2-.13-.27s-.23-.13-.43-.18c-.41-.1-.69-.22-.85-.38-.16-.16-.24-.37-.24-.63,0-.3.12-.54.35-.73s.53-.28.9-.28c.18,0,.36.02.52.07s.33.12.48.22l-.29.51c-.14-.09-.27-.15-.38-.19-.12-.04-.23-.06-.36-.06-.18,0-.31.03-.41.1-.1.07-.15.16-.15.28s.05.21.14.27.26.12.49.17c.35.09.61.21.78.37.16.16.25.38.25.65,0,.32-.12.57-.35.76s-.54.29-.93.29c-.21,0-.42-.03-.61-.08-.19-.06-.38-.14-.55-.25Z"/>
      <path d="M167.78,28.55l.32-.51c.16.1.32.18.46.23.15.05.31.07.49.07.29,0,.5-.07.65-.21.14-.14.21-.31.21-.51,0-.26-.1-.46-.29-.59s-.47-.19-.82-.19h-.37v-.59h.34c.33,0,.58-.06.74-.18.17-.12.25-.31.25-.57,0-.2-.06-.36-.18-.46-.12-.11-.27-.16-.46-.16-.15,0-.3.03-.45.08-.15.05-.3.13-.46.23l-.32-.49c.21-.14.41-.25.62-.31.21-.07.44-.1.69-.1.39,0,.7.1.94.3.24.2.36.47.36.81,0,.27-.07.5-.21.69-.14.19-.34.33-.62.42h0c.29.06.52.17.7.37s.27.43.27.72c0,.41-.14.73-.42.98s-.65.37-1.12.37c-.26,0-.49-.03-.7-.09s-.42-.16-.64-.29Z"/>
      <path d="M174.16,27.41c0,.45-.14.81-.41,1.1-.27.29-.62.43-1.04.43-.47,0-.83-.18-1.09-.54-.26-.36-.39-.87-.39-1.54,0-.36.04-.7.11-1.02s.2-.61.38-.86c.17-.23.36-.41.59-.52.22-.12.49-.17.81-.17.15,0,.31.03.47.07s.32.14.49.27l-.38.47c-.09-.07-.19-.13-.29-.16-.09-.03-.2-.05-.33-.05-.17,0-.32.04-.45.11-.13.07-.25.18-.36.33-.1.14-.18.31-.23.5s-.08.41-.08.65h.02c.12-.15.26-.27.43-.34.17-.08.35-.11.54-.11.37,0,.67.13.89.39.22.26.33.6.33,1.02ZM173.44,27.45c0-.29-.06-.5-.19-.65-.12-.14-.29-.21-.5-.21-.24,0-.44.08-.58.24-.14.16-.21.35-.21.58,0,.27.07.49.21.67s.32.27.54.27.4-.08.53-.23c.13-.16.2-.38.2-.66Z"/>
      <path d="M174.71,28.48l.36-.48c.15.12.3.21.46.26.16.05.32.08.49.08.26,0,.47-.08.62-.23.16-.15.24-.35.24-.59,0-.27-.09-.48-.27-.62-.18-.14-.44-.21-.78-.21-.12,0-.25,0-.38.01-.14,0-.27.02-.4.04l.16-2.38h2.2v.63h-1.61l-.07,1.12c.07,0,.14,0,.22-.01.07,0,.14,0,.19,0,.46,0,.83.12,1.09.36.26.24.39.57.39,1s-.14.79-.43,1.07c-.29.28-.67.41-1.15.41-.26,0-.5-.04-.71-.11-.21-.08-.42-.19-.62-.35Z"/>
    </g>
  </g>
  <g>
    <path class="cls-13" d="M243.05,25.4c-.1-.06-.19-.14-.24-.25-.06-.11-.09-.24-.09-.38s.03-.27.09-.38c.06-.11.14-.19.24-.25.1-.06.22-.09.35-.09s.25.03.35.09.19.14.24.25c.06.11.09.24.09.38s-.03.27-.09.38c-.06.11-.14.19-.24.25s-.22.09-.35.09-.25-.03-.35-.09ZM243.71,25.31c.09-.05.15-.13.19-.22s.06-.2.06-.32-.02-.23-.06-.32-.11-.16-.19-.22c-.09-.05-.19-.08-.31-.08s-.23.03-.31.08c-.09.05-.15.13-.19.22s-.07.2-.07.32.02.23.07.32c.04.09.11.17.19.22.09.05.19.08.31.08.12,0,.23-.03.31-.08ZM243.14,24.4h.26c.08,0,.14.02.18.05s.06.09.06.16c0,.09-.04.15-.12.2l.15.29h-.14l-.13-.26h-.13v.26h-.13v-.7h0ZM243.39,24.73s.06-.01.08-.03c.02-.02.03-.05.03-.08s-.01-.06-.03-.08c-.02-.02-.05-.03-.08-.03h-.11v.22h.11Z"/>
    <g>
      <g>
        <path class="cls-13" d="M207.71,29.21c-.39-.23-.72-.57-.93-.97-.23-.44-.35-.94-.33-1.44-.01-.5.1-.99.33-1.44.21-.4.53-.74.93-.97.83-.46,1.84-.46,2.68,0,.39.23.72.57.93.97.23.44.35.94.33,1.44.01.5-.1.99-.33,1.44-.21.4-.54.74-.93.97-.83.46-1.84.46-2.68,0M210.23,28.12c.27-.33.41-.77.41-1.31s-.14-.98-.41-1.31c-.27-.33-.67-.5-1.18-.5s-.91.16-1.18.5-.41.77-.41,1.31.14.98.41,1.31c.27.33.67.5,1.18.5.51,0,.91-.17,1.18-.5"/>
        <path class="cls-13" d="M212.92,24.16h1.93c.57,0,1.01.13,1.33.41.32.27.49.67.49,1.19,0,.37-.08.67-.23.9-.16.24-.4.44-.66.56l1.19,2.22h-1.08l-1.02-1.96h-.98v1.97h-.97v-5.29h0ZM214.6,26.67c.71,0,1.07-.29,1.06-.86,0-.28-.08-.49-.24-.63s-.42-.22-.78-.22h-.75v1.72h.71Z"/>
        <polygon class="cls-13" points="219.11 25.09 217.61 25.09 217.61 24.16 221.56 24.16 221.56 25.09 220.07 25.09 220.07 29.45 219.11 29.45 219.11 25.09"/>
        <polygon class="cls-13" points="222.62 24.16 226 24.16 226 25.09 223.61 25.09 223.61 26.22 225.47 26.22 225.47 27.15 223.61 27.15 223.61 28.51 226.08 28.51 226.08 29.45 222.62 29.45 222.62 24.16"/>
        <path class="cls-13" d="M227.36,24.16h1.93c.56,0,1.01.13,1.33.41.32.27.49.67.48,1.19,0,.37-.08.67-.23.9-.16.24-.4.44-.66.56l1.19,2.22h-1.08l-1.02-1.96h-.98v1.97h-.97v-5.29h0ZM229.04,26.67c.71,0,1.07-.29,1.07-.86,0-.28-.08-.49-.24-.63-.16-.14-.42-.22-.78-.22h-.75v1.72h.71Z"/>
        <path class="cls-13" d="M232.5,24.16h1.93c.56,0,1.01.13,1.33.41.32.27.49.67.49,1.19,0,.37-.08.67-.24.9-.16.24-.4.44-.66.56l1.19,2.22h-1.08l-1.01-1.96h-.98v1.97h-.97v-5.29h0ZM234.18,26.67c.71,0,1.07-.29,1.07-.86,0-.28-.08-.49-.24-.63-.16-.14-.42-.22-.78-.22h-.75v1.72h.71Z"/>
        <path class="cls-13" d="M238.55,29.21c-.39-.23-.72-.57-.93-.97-.23-.44-.35-.94-.33-1.44-.01-.5.1-.99.33-1.44.21-.4.53-.74.93-.97.83-.46,1.84-.46,2.68,0,.39.23.72.57.93.97.23.44.35.94.33,1.44.01.5-.1.99-.33,1.44-.21.4-.53.74-.93.97-.83.46-1.84.46-2.68,0M241.06,28.12c.27-.33.41-.77.41-1.31s-.14-.98-.41-1.31c-.27-.33-.67-.5-1.18-.5s-.91.16-1.18.5c-.27.33-.41.77-.41,1.31s.14.98.41,1.31c.27.33.67.5,1.18.5.51,0,.91-.17,1.18-.5"/>
        <polygon class="cls-13" points="202.5 24.16 205.75 24.16 205.75 25.09 203.46 25.09 203.46 26.22 205.23 26.22 205.23 27.15 203.46 27.15 203.46 29.45 202.5 29.45 202.5 24.16"/>
      </g>
      <g>
        <path class="cls-15" d="M198.94,27.35l-.67-.67h-.01s-1.54,1.55-1.54,1.55h-.01c-.37.38-.37.98,0,1.35h0c.37.37.97.37,1.34,0l.88-.88h.01c.38-.38.38-.98,0-1.35Z"/>
        <path class="cls-13" d="M200.27,26.01h0l-2.23-2.23c-.37-.37-.97-.37-1.34,0h0c-.37.37-.37.97,0,1.34l2.22,2.22c.37.37.37.97,0,1.34l1.34-1.34h0c.38-.37.38-.97,0-1.34Z"/>
        <circle class="cls-11" cx="195.14" cy="26.68" r=".94"/>
      </g>
    </g>
  </g>
</svg>