<?xml version="1.0" encoding="UTF-8"?>
<svg id="Capa_1" data-name="Capa 1" xmlns="http://www.w3.org/2000/svg" xmlns:xlink="http://www.w3.org/1999/xlink" viewBox="0 0 425.5 53">
  <defs>
    <style>
      .cls-1 {
        letter-spacing: -.05em;
      }

      .cls-2 {
        fill: url(#Degradado_sin_nombre_16);
      }

      .cls-3 {
        font-family: BebasNeue-Book, 'Bebas Neue';
      }

      .cls-4, .cls-5 {
        fill: #fff;
      }

      .cls-6 {
        fill: none;
      }

      .cls-7 {
        fill: url(#Degradado_sin_nombre_4);
      }

      .cls-8 {
        fill: url(#Degradado_sin_nombre_2);
        opacity: .05;
      }

      .cls-5 {
        font-size: 21px;
      }

      .cls-9 {
        font-size: 13.49px;
      }

      .cls-9, .cls-10 {
        font-family: BebasNeueBold, 'Bebas Neue';
      }

      .cls-11 {
        letter-spacing: -.04em;
      }

      .cls-12 {
        fill: #e51b27;
      }

      .cls-13 {
        letter-spacing: -.02em;
      }
    </style>
    <linearGradient id="Degradado_sin_nombre_2" data-name="Degradado sin nombre 2" x1="113" y1="-201.96" x2="347.27" y2="149.82" gradientUnits="userSpaceOnUse">
      <stop offset="0" stop-color="#fff"/>
      <stop offset="1" stop-color="#000"/>
    </linearGradient>
    <linearGradient id="Degradado_sin_nombre_16" data-name="Degradado sin nombre 16" x1="-1.58" y1="-176.77" x2="88.71" y2="170.74" gradientUnits="userSpaceOnUse">
      <stop offset="0" stop-color="#00aeef"/>
      <stop offset=".36" stop-color="#049ddf"/>
      <stop offset="1" stop-color="#0f75bc"/>
    </linearGradient>
    <linearGradient id="Degradado_sin_nombre_4" data-name="Degradado sin nombre 4" x1="391.11" y1="-2446.74" x2="391.11" y2="-2467.38" gradientTransform="translate(0 -2430) scale(1 -1)" gradientUnits="userSpaceOnUse">
      <stop offset="0" stop-color="#0ae"/>
      <stop offset="1" stop-color="#05a"/>
    </linearGradient>
    <clipPath id="clippath">
      <rect class="cls-6" x="553.83" y="-879.66" width="960.22" height="540.01"/>
    </clipPath>
  </defs>
  <rect class="cls-8" x="104.97" y=".02" width="320.36" height="52.98"/>
  <rect class="cls-2" x="-.49" y=".02" width="103.44" height="52.98"/>
  <text class="cls-5" transform="translate(8.49 24.15)"><tspan class="cls-10"><tspan x="0" y="0">Gestión de</tspan></tspan><tspan class="cls-3"><tspan x="0" y="19.05">Pr</tspan><tspan class="cls-13" x="15.79" y="19.05">o</tspan><tspan x="23.48" y="19.05">yectos</tspan></tspan></text>
  <image width="3840" height="2160" transform="translate(123.39 12.19) scale(.01)" xlink:href="../../../Alejandro Mendoza/Valtre/Logos Matriz/Gestión de proyectos/Dynamics-365-Logo.png"/>
  <image width="198" height="61" transform="translate(185.48 19.43) scale(.25)" xlink:href="../../../Alejandro Mendoza/Valtre/Logos Matriz/Gestión de proyectos/69f40fa6-2165-4a6e-9da5-4e7a0700d7ed.png"/>
  <g>
    <path class="cls-7" d="M411.98,16.74h-41.73v20.63h21.09"/>
    <path class="cls-4" d="M390.89,20.87v9.72l-3.58-9.72h-3.58l-3.03,8.07c-.37-2.02-2.48-2.75-4.13-3.3-1.1-.37-2.29-.83-2.29-1.47,0-.46.64-.92,1.83-.83.83.09,1.56.09,3.03.83l1.47-2.48c-1.38-.73-3.21-1.1-4.68-1.1-1.74,0-3.21.55-4.13,1.47-.64.64-.92,1.47-1.01,2.38,0,1.28.46,2.2,1.47,2.93.83.55,1.83.92,2.75,1.19,1.19.37,2.11.73,2.11,1.38-.09.83-1.01,1.01-1.65,1.01-1.1.09-2.02-.09-3.39-.92l-1.28,2.48c1.38.83,2.84,1.19,4.59,1.19,1.19,0,3.03-.37,4.03-1.28l-.18.83h3.48l.64-1.56c1.38.37,2.93.46,4.31,0l.46,1.56h6.24v-3.67h1.28c3.21,0,5.14-1.56,5.14-4.31,0-3.12-1.83-4.4-5.78-4.4h-4.13ZM384.19,28.94l1.28-4.13h.09l1.28,4.13c-.92.28-1.83.28-2.66,0ZM394.37,26.83v-3.3h.92c1.19,0,2.11.37,2.11,1.56,0,1.28-.92,1.74-2.11,1.74h-.92Z"/>
  </g>
  <text class="cls-9" transform="translate(318.02 31.1)"><tspan x="0" y="0">de</tspan><tspan class="cls-1" x="10.47" y="0">l</tspan><tspan class="cls-11" x="14.36" y="0">t</tspan><tspan x="18.65" y="0">a</tspan></text>
  <g>
    <path class="cls-12" d="M254,24.3c.59,0,1.18,0,1.77,0,1.09,0,2.16.73,2.56,1.77.43,1.13.26,2.18-.56,3.09-.59.65-1.33.92-2.2.92-1.08,0-2.15,0-3.23,0-1.28,0-2.38-.77-2.78-1.95-.41-1.2-.01-2.5,1.01-3.27.48-.36,1.03-.56,1.64-.56.6,0,1.2,0,1.8,0ZM253.97,29.02h0c.51.01,1.02.01,1.53.01,1.1,0,1.93-.79,1.95-1.84.02-.99-.81-1.85-1.86-1.87-1.08-.02-2.15-.02-3.23,0-1.03.02-1.79.77-1.86,1.77-.06.94.64,1.82,1.6,1.93.61.07,1.24.01,1.86.01Z"/>
    <path class="cls-12" d="M294.17,24.3c-.23.37-.44.69-.64,1.01-1.07,0-2.13,0-3.18,0-.91,0-1.63.51-1.85,1.33h5.35c-.19.4-.42.71-.63,1.04h-4.7c.11.73.88,1.34,1.69,1.35,1.23,0,2.47,0,3.7,0h.38c-.24.37-.45.7-.66,1.04-1.27-.02-2.53.07-3.78-.04-1.55-.14-2.65-1.51-2.55-3.07.09-1.48,1.37-2.66,2.88-2.66,1.21,0,2.42,0,3.63,0h.37Z"/>
    <path class="cls-12" d="M265.72,30.06c-.58,0-1.08,0-1.57,0-.06,0-.12-.05-.17-.09-1.05-.91-2.1-1.83-3.22-2.8.39,0,.7,0,1.02,0,.69,0,1.38,0,2.07,0,.55,0,.98-.38,1-.9.02-.52-.4-.95-.98-.96-.87-.01-1.73,0-2.6,0-.33,0-.66,0-1.02,0v4.73h-1.1v-5.71c.1-.07.21-.03.32-.03,1.51,0,3.02,0,4.53,0,1.11,0,1.97.86,1.96,1.96,0,1.09-.85,1.93-1.95,1.93-.13,0-.27,0-.51,0,.76.64,1.45,1.23,2.23,1.88Z"/>
    <path class="cls-12" d="M271.73,28.04c-.54-.87-1.03-1.67-1.56-2.52-.97,1.53-1.91,3.03-2.87,4.53h-1.27c-.03-.11.07-.19.12-.27,1.09-1.71,2.18-3.42,3.27-5.13.36-.56,1.08-.59,1.44-.05,1.17,1.79,2.31,3.6,3.49,5.43h-1.32c-.19-.31-.4-.65-.62-.99h-2.99c-.21-.32-.42-.64-.66-1.01h2.96Z"/>
    <path class="cls-12" d="M280.63,24.34c-.2.32-.4.63-.61.97-1.04,0-2.08,0-3.13,0-.62,0-1.16.18-1.56.67-.48.58-.6,1.24-.3,1.92.31.71.88,1.11,1.66,1.12,1.23.02,2.46,0,3.7,0,.11,0,.21,0,.37,0-.24.37-.45.7-.64,1.01-1.29,0-2.55.07-3.8-.02-1.54-.11-2.64-1.48-2.55-3.03.09-1.53,1.34-2.7,2.87-2.7,1.21,0,2.42,0,3.63,0,.11,0,.22-.03.35.05Z"/>
    <path class="cls-12" d="M281.25,24.31h1.13v4.72h5.15c-.17.4-.42.69-.63,1.03h-.77c-1.38,0-2.75,0-4.13,0-.57,0-.74-.17-.74-.73,0-1.66,0-3.33,0-5.02Z"/>
    <path class="cls-12" d="M295.94,24.92c0,.34-.32.65-.67.65-.35,0-.65-.31-.65-.66,0-.37.31-.67.68-.66.36.01.64.31.64.67ZM295.01,24.51c-.27.22-.31.46-.12.7.17.22.45.26.67.1.23-.17.29-.45.15-.67-.16-.25-.42-.29-.71-.13h0Z"/>
    <path class="cls-12" d="M295,24.51c.18.02.38-.05.53.13.06.19-.16.39.05.58-.24.04-.22-.16-.33-.23-.12.03.01.23-.17.24-.14-.23,0-.5-.07-.74,0,0,0,0,0,0ZM295.24,24.66c-.05.06-.05.12,0,.17.08.01.12-.02.15-.09-.03-.07-.08-.1-.15-.09Z"/>
  </g>
</svg>