<?xml version="1.0" encoding="UTF-8"?>
<svg id="Capa_1" data-name="Capa 1" xmlns="http://www.w3.org/2000/svg" xmlns:xlink="http://www.w3.org/1999/xlink" viewBox="0 0 425.5 53">
  <defs>
    <style>
      .cls-1 {
        fill: #81bc06;
      }

      .cls-2 {
        fill: url(#Degradado_sin_nombre_16);
      }

      .cls-3, .cls-4 {
        fill: #00aeef;
      }

      .cls-5, .cls-6 {
        fill: #fff;
      }

      .cls-7 {
        mask: url(#mask);
      }

      .cls-6, .cls-8, .cls-4 {
        fill-rule: evenodd;
      }

      .cls-9 {
        fill: none;
      }

      .cls-10 {
        fill: #29b5e8;
      }

      .cls-11 {
        fill: url(#Degradado_sin_nombre_4);
      }

      .cls-12 {
        fill: url(#Degradado_sin_nombre_2);
        opacity: .05;
      }

      .cls-13 {
        fill: #ffba08;
      }

      .cls-8 {
        fill: #fffffe;
      }

      .cls-14 {
        fill: #e51b27;
      }

      .cls-15 {
        fill: #f35325;
      }

      .cls-16 {
        fill: #f3f3f3;
      }
    </style>
    <linearGradient id="Degradado_sin_nombre_2" data-name="Degradado sin nombre 2" x1="87.16" y1="-240.73" x2="321.39" y2="110.99" gradientUnits="userSpaceOnUse">
      <stop offset="0" stop-color="#fff"/>
      <stop offset="1" stop-color="#000"/>
    </linearGradient>
    <linearGradient id="Degradado_sin_nombre_16" data-name="Degradado sin nombre 16" x1="-2.17" y1="26.53" x2="103.71" y2="26.53" gradientUnits="userSpaceOnUse">
      <stop offset="0" stop-color="#00aeef"/>
      <stop offset=".36" stop-color="#049ddf"/>
      <stop offset="1" stop-color="#0f75bc"/>
    </linearGradient>
    <linearGradient id="Degradado_sin_nombre_4" data-name="Degradado sin nombre 4" x1="149.83" y1="-2558.23" x2="149.83" y2="-2578.87" gradientTransform="translate(0 -2542) scale(1 -1)" gradientUnits="userSpaceOnUse">
      <stop offset="0" stop-color="#0ae"/>
      <stop offset="1" stop-color="#05a"/>
    </linearGradient>
    <mask id="mask" x="252.77" y="11.93" width="41.76" height="29.23" maskUnits="userSpaceOnUse">
      <g id="b">
        <path id="a" class="cls-6" d="M252.82,11.93h41.72v29.14h-41.72V11.93Z"/>
      </g>
    </mask>
    <clipPath id="clippath">
      <rect class="cls-9" x="553.83" y="-935.66" width="960.22" height="540.01"/>
    </clipPath>
  </defs>
  <rect class="cls-12" x="104.97" y=".07" width="320.36" height="52.93"/>
  <rect class="cls-2" x="-.49" y=".07" width="103.44" height="52.93"/>
  <g>
    <path class="cls-5" d="M16.03,28.71v1.95c0,2.35-1.18,3.7-3.44,3.7s-3.44-1.34-3.44-3.7v-7.64c0-2.35,1.18-3.7,3.44-3.7s3.44,1.34,3.44,3.7v1.43h-2.18v-1.57c0-1.05-.46-1.45-1.2-1.45s-1.2.4-1.2,1.45v7.94c0,1.05.46,1.43,1.2,1.43s1.2-.38,1.2-1.43v-2.1h2.18Z"/>
    <path class="cls-5" d="M17.25,23.03c0-2.35,1.24-3.7,3.51-3.7s3.51,1.34,3.51,3.7v7.64c0,2.35-1.24,3.7-3.51,3.7s-3.51-1.34-3.51-3.7v-7.64ZM19.56,30.81c0,1.05.46,1.45,1.2,1.45s1.2-.4,1.2-1.45v-7.94c0-1.05-.46-1.45-1.2-1.45s-1.2.4-1.2,1.45v7.94Z"/>
    <path class="cls-5" d="M27.81,23.55v10.64h-2.08v-14.7h2.9l2.37,8.8v-8.8h2.06v14.7h-2.37l-2.88-10.64Z"/>
    <path class="cls-5" d="M37.83,19.33c2.25,0,3.4,1.34,3.4,3.7v.46h-2.18v-.61c0-1.05-.42-1.45-1.15-1.45s-1.16.4-1.16,1.45c0,3.02,4.51,3.59,4.51,7.79,0,2.35-1.18,3.7-3.44,3.7s-3.44-1.34-3.44-3.7v-.9h2.18v1.05c0,1.05.46,1.43,1.2,1.43s1.2-.38,1.2-1.43c0-3.02-4.51-3.59-4.51-7.79,0-2.35,1.15-3.7,3.4-3.7Z"/>
    <path class="cls-5" d="M44.78,19.5v11.34c0,1.05.46,1.43,1.2,1.43s1.2-.38,1.2-1.43v-11.34h2.18v11.19c0,2.35-1.18,3.7-3.44,3.7s-3.44-1.34-3.44-3.7v-11.19h2.31Z"/>
    <path class="cls-5" d="M50.93,19.5h2.31v12.6h3.8v2.1h-6.11v-14.7Z"/>
    <path class="cls-5" d="M56.33,19.5h7.14v2.1h-2.41v12.6h-2.31v-12.6h-2.41v-2.1Z"/>
    <path class="cls-5" d="M64.29,23.03c0-2.35,1.24-3.7,3.51-3.7s3.51,1.34,3.51,3.7v7.64c0,2.35-1.24,3.7-3.51,3.7s-3.51-1.34-3.51-3.7v-7.64ZM66.6,30.81c0,1.05.46,1.45,1.2,1.45s1.2-.4,1.2-1.45v-7.94c0-1.05-.46-1.45-1.2-1.45s-1.2.4-1.2,1.45v7.94Z"/>
    <path class="cls-5" d="M77.62,34.2c-.13-.38-.21-.61-.21-1.81v-2.31c0-1.37-.46-1.87-1.51-1.87h-.8v5.98h-2.31v-14.7h3.49c2.39,0,3.42,1.11,3.42,3.38v1.15c0,1.51-.48,2.5-1.51,2.98,1.16.48,1.53,1.6,1.53,3.13v2.27c0,.71.02,1.24.25,1.79h-2.35ZM75.1,21.6v4.51h.9c.86,0,1.39-.38,1.39-1.55v-1.45c0-1.05-.36-1.51-1.18-1.51h-1.11Z"/>
    <path class="cls-5" d="M84.87,16.39l-2.14,2.33h-1.55l1.43-2.33h2.27ZM81.23,19.5h2.31v14.7h-2.31v-14.7Z"/>
    <path class="cls-5" d="M92.7,34.2h-2.33l-.4-2.67h-2.83l-.4,2.67h-2.12l2.35-14.7h3.38l2.35,14.7ZM87.43,29.53h2.23l-1.11-7.43-1.11,7.43Z"/>
  </g>
  <g>
    <path class="cls-11" d="M170.69,16.23h-41.73v20.63h21.09"/>
    <path class="cls-5" d="M149.6,20.36v9.72l-3.58-9.72h-3.58l-3.03,8.07c-.37-2.02-2.48-2.75-4.13-3.3-1.1-.37-2.29-.83-2.29-1.47,0-.46.64-.92,1.83-.83.83.09,1.56.09,3.03.83l1.47-2.48c-1.38-.73-3.21-1.1-4.68-1.1-1.74,0-3.21.55-4.13,1.47-.64.64-.92,1.47-1.01,2.38,0,1.28.46,2.2,1.47,2.93.83.55,1.83.92,2.75,1.19,1.19.37,2.11.73,2.11,1.38-.09.83-1.01,1.01-1.65,1.01-1.1.09-2.02-.09-3.39-.92l-1.28,2.48c1.38.83,2.84,1.19,4.59,1.19,1.19,0,3.03-.37,4.03-1.28l-.18.83h3.48l.64-1.56c1.38.37,2.93.46,4.31,0l.46,1.56h6.24v-3.67h1.28c3.21,0,5.14-1.56,5.14-4.31,0-3.12-1.83-4.4-5.78-4.4h-4.13ZM142.9,28.43l1.28-4.13h.09l1.28,4.13c-.92.28-1.83.28-2.66,0ZM153.08,26.32v-3.3h.92c1.19,0,2.11.37,2.11,1.56,0,1.28-.92,1.74-2.11,1.74h-.92Z"/>
  </g>
  <g>
    <path class="cls-16" d="M317.37,15.05h23v23h-23V15.05Z"/>
    <path class="cls-15" d="M318.37,16.05h10v10h-10v-10Z"/>
    <path class="cls-1" d="M329.37,16.05h10v10h-10v-10Z"/>
    <path class="cls-3" d="M318.37,27.05h10v10h-10v-10Z"/>
    <path class="cls-13" d="M329.37,27.05h10v10h-10v-10Z"/>
  </g>
  <g>
    <g class="cls-7">
      <path class="cls-4" d="M270.14,15.12c1.35-1.4,3.22-2.27,5.29-2.27,2.76,0,5.15,1.53,6.44,3.82,1.14-.51,2.38-.78,3.63-.77,4.97,0,9,4.06,9,9.08s-4.03,9.08-9,9.08c-.61,0-1.2-.06-1.78-.18-1.13,2.01-3.28,3.37-5.74,3.37-1,0-1.99-.22-2.88-.66-1.14,2.68-3.8,4.57-6.9,4.57s-5.98-2.04-7.04-4.91c-.47.1-.95.15-1.43.15-3.85,0-6.96-3.16-6.96-7.04,0-2.61,1.4-4.88,3.48-6.1-.44-1.02-.67-2.11-.67-3.22,0-4.48,3.63-8.1,8.11-8.1,2.62,0,4.97,1.25,6.44,3.19"/>
    </g>
    <path class="cls-8" d="M258.85,27.09c-.03.07,0,.08.02.09.08.06.16.1.24.14.43.23.83.29,1.25.29.86,0,1.39-.46,1.39-1.19h0c0-.69-.6-.94-1.16-1.12l-.07-.02c-.42-.14-.79-.26-.79-.54h0c0-.25.21-.43.55-.43.37,0,.81.12,1.09.28,0,0,.08.05.11-.03.02-.04.16-.43.17-.47.02-.04-.01-.08-.04-.1-.32-.2-.77-.33-1.23-.33h-.09c-.78,0-1.33.47-1.33,1.15h0c0,.73.6.96,1.17,1.12l.09.03c.41.13.77.24.77.52h0c0,.28-.23.48-.6.48-.14,0-.6,0-1.1-.32-.06-.04-.09-.06-.14-.09-.02-.01-.09-.04-.11.04l-.17.47M271.38,27.08c-.03.07,0,.08.02.09.08.06.16.1.24.14.43.23.83.29,1.25.29.86,0,1.39-.46,1.39-1.19h0c0-.69-.6-.94-1.16-1.12l-.07-.02c-.42-.14-.79-.26-.79-.54h0c0-.25.21-.43.55-.43.37,0,.81.12,1.09.28,0,0,.08.05.11-.03.02-.04.16-.43.17-.47.02-.04-.01-.08-.04-.1-.32-.2-.77-.33-1.23-.33h-.09c-.78,0-1.33.47-1.33,1.15h0c0,.73.6.96,1.17,1.12l.09.03c.41.13.77.24.77.52h0c0,.28-.23.48-.6.48-.14,0-.61,0-1.1-.32-.06-.04-.1-.06-.14-.09-.02,0-.09-.04-.11.04l-.17.47M279.94,25.65c0,.41-.08.74-.23.97-.15.23-.38.34-.7.34s-.54-.11-.69-.34c-.15-.23-.23-.56-.23-.97s.08-.74.23-.97c.15-.23.37-.34.69-.34s.55.11.7.34c.15.23.23.55.23.97M280.65,24.88c-.07-.24-.18-.45-.33-.62-.15-.17-.33-.32-.55-.42-.22-.1-.48-.15-.77-.15s-.55.05-.77.15c-.22.1-.4.24-.55.42-.15.17-.25.38-.33.62-.07.24-.11.49-.11.77s.04.53.11.77c.07.24.18.45.33.62.15.17.33.31.55.41.22.1.48.15.77.15s.55-.05.77-.15c.22-.1.4-.24.55-.41.15-.17.25-.38.33-.62.07-.24.11-.49.11-.77s-.04-.53-.11-.77M286.52,26.84c-.02-.07-.09-.04-.09-.04-.1.04-.21.08-.33.09-.12.02-.25.03-.39.03-.35,0-.62-.1-.82-.31-.2-.2-.31-.53-.31-.98,0-.4.1-.71.27-.94.17-.23.44-.35.79-.35.29,0,.52.03.76.11,0,0,.06.02.08-.05.06-.17.11-.3.18-.49.02-.05-.03-.08-.04-.08-.09-.04-.31-.1-.48-.12-.15-.02-.33-.04-.54-.04-.3,0-.57.05-.8.15-.23.1-.42.24-.58.42s-.27.38-.35.62c-.08.24-.12.5-.12.77,0,.59.16,1.07.48,1.42.32.35.79.53,1.41.53.37,0,.74-.07,1.01-.18,0,0,.05-.02.03-.08l-.18-.48M287.77,25.25c.03-.23.1-.42.2-.57.15-.23.37-.35.69-.35s.53.12.68.35c.1.15.14.35.16.57h-1.73s0,0,0,0ZM290.18,24.74c-.06-.23-.21-.46-.31-.57-.16-.17-.31-.29-.46-.35-.22-.09-.46-.14-.69-.14-.3,0-.58.05-.8.15-.22.1-.41.25-.56.42-.15.18-.26.39-.33.63-.07.24-.11.5-.11.77s.04.54.11.77c.07.24.19.44.35.62.16.17.36.31.61.4.24.09.54.14.88.14.7,0,1.07-.16,1.22-.24.03-.02.05-.04.02-.12l-.16-.44c-.02-.07-.09-.04-.09-.04-.17.06-.42.18-.99.18-.38,0-.65-.11-.83-.29-.18-.18-.27-.44-.28-.81h2.42s.06,0,.07-.06c0-.03.08-.5-.07-1.04h0ZM268.4,25.25c.03-.23.1-.42.2-.57.15-.23.37-.35.69-.35s.53.12.68.35c.1.15.14.35.16.57h-1.73s0,0,0,0ZM270.81,24.74c-.06-.23-.21-.46-.31-.57-.16-.17-.31-.29-.46-.35-.22-.09-.46-.14-.69-.14-.3,0-.58.05-.8.15-.22.1-.41.25-.56.42-.15.18-.26.39-.33.63-.07.24-.11.5-.11.77s.04.54.11.77c.07.24.19.44.35.62.16.17.36.31.61.4.24.09.54.14.88.14.7,0,1.07-.16,1.22-.24.03-.02.05-.04.02-.12l-.16-.44c-.02-.07-.09-.04-.09-.04-.17.06-.42.18-.99.18-.37,0-.65-.11-.83-.29-.18-.18-.27-.44-.28-.81h2.42s.06,0,.07-.06c0-.03.08-.5-.07-1.04h0ZM263.17,26.83c-.09-.08-.11-.09-.14-.14-.05-.07-.07-.18-.07-.31,0-.21.07-.37.22-.47,0,0,.21-.18.7-.17.22,0,.44.02.66.06v1.1h0s-.31.07-.65.09c-.49.03-.71-.14-.71-.14h0ZM264.14,25.13c-.1,0-.23-.01-.38-.01-.21,0-.41.03-.6.08-.19.05-.36.13-.5.23-.15.1-.27.24-.35.4-.09.16-.13.35-.13.56s.04.4.11.55c.07.15.18.28.32.38.13.1.3.17.49.21.19.04.4.07.64.07.25,0,.5-.02.73-.06.2-.04.41-.07.61-.12.08-.02.17-.04.17-.04.06-.02.06-.08.06-.08v-2.21c0-.48-.13-.85-.39-1.07-.25-.22-.63-.33-1.11-.33-.18,0-.47.02-.65.06,0,0-.53.1-.75.27,0,0-.05.03-.02.1l.17.46c.02.06.08.04.08.04,0,0,.02,0,.04-.02.46-.25,1.05-.25,1.05-.25.26,0,.46.05.6.16.13.1.2.25.2.58v.1c-.21-.03-.4-.05-.4-.05h0ZM283.62,23.88s0-.07-.03-.09c0,0,0,0,0,0-.04-.02-.25-.06-.4-.07-.3-.02-.47.03-.62.1-.15.07-.32.18-.41.3v-.29s-.03-.07-.07-.07h-.62s-.07.03-.07.07v3.6s.03.07.07.07h.63s.07-.03.07-.07v-1.81c0-.24.03-.48.08-.63.05-.15.12-.27.21-.36.08-.08.19-.14.3-.18.11-.03.22-.05.33-.05.13,0,.27.03.27.03.05,0,.07-.02.09-.07.04-.11.16-.44.18-.51"/>
    <path class="cls-8" d="M277.68,22.22c-.08-.02-.16-.04-.24-.06-.11-.02-.22-.03-.33-.03-.44,0-.78.12-1.02.37-.24.24-.4.61-.49,1.1l-.03.16h-.55s-.07,0-.08.07l-.09.5s.01.08.08.08h.53l-.54,3.03c-.04.24-.09.44-.14.6-.05.15-.1.26-.17.34-.06.08-.12.14-.22.17-.08.03-.18.04-.28.04-.06,0-.14,0-.19-.02-.06-.01-.09-.02-.13-.04,0,0-.06-.02-.09.04-.02.05-.16.44-.18.49-.02.05,0,.09.04.1.07.03.12.04.22.06.13.03.25.03.35.03.22,0,.43-.03.59-.09.17-.06.32-.17.45-.31.14-.16.23-.32.31-.54.08-.22.16-.49.21-.81l.55-3.08h.8s.07,0,.08-.07l.09-.5s-.01-.08-.08-.08h-.77s.04-.29.13-.55c.04-.11.11-.2.17-.26.06-.06.13-.1.2-.13.08-.03.17-.04.26-.04.07,0,.14,0,.2.02.07.02.1.02.12.03.08.02.09,0,.1-.04l.18-.51c.02-.05-.03-.08-.04-.08M266.88,27.45s-.03.07-.07.07h-.64s-.07-.03-.07-.07v-5.16s.03-.07.07-.07h.64s.07.03.07.07v5.16"/>
  </g>
  <g>
    <path class="cls-14" d="M190.08,23.79c.59,0,1.18,0,1.77,0,1.09,0,2.16.73,2.56,1.77.43,1.13.26,2.18-.56,3.09-.59.65-1.33.92-2.2.92-1.08,0-2.15,0-3.23,0-1.28,0-2.38-.77-2.78-1.95-.41-1.2-.01-2.5,1.01-3.27.48-.36,1.03-.56,1.64-.56.6,0,1.2,0,1.8,0ZM190.06,28.51h0c.51.01,1.02.01,1.53.01,1.1,0,1.93-.79,1.95-1.84.02-.99-.81-1.85-1.86-1.87-1.08-.02-2.15-.02-3.23,0-1.03.02-1.79.77-1.86,1.77-.06.94.64,1.82,1.6,1.93.61.07,1.24.01,1.86.01Z"/>
    <path class="cls-14" d="M230.26,23.79c-.23.37-.44.69-.64,1.01-1.07,0-2.13,0-3.18,0-.91,0-1.63.51-1.85,1.33h5.35c-.19.4-.42.71-.63,1.04h-4.7c.11.73.88,1.34,1.69,1.35,1.23,0,2.47,0,3.7,0h.38c-.24.37-.45.7-.66,1.04-1.27-.02-2.53.07-3.78-.04-1.55-.14-2.65-1.51-2.55-3.07.09-1.48,1.37-2.66,2.88-2.66,1.21,0,2.42,0,3.63,0h.37Z"/>
    <path class="cls-14" d="M201.81,29.55c-.58,0-1.08,0-1.57,0-.06,0-.12-.05-.17-.09-1.05-.91-2.1-1.83-3.22-2.8.39,0,.7,0,1.02,0,.69,0,1.38,0,2.07,0,.55,0,.98-.38,1-.9.02-.52-.4-.95-.98-.96-.87-.01-1.73,0-2.6,0-.33,0-.66,0-1.02,0v4.73h-1.1v-5.71c.1-.07.21-.03.32-.03,1.51,0,3.02,0,4.53,0,1.11,0,1.97.86,1.96,1.96,0,1.09-.85,1.93-1.95,1.93-.13,0-.27,0-.51,0,.76.64,1.45,1.23,2.23,1.88Z"/>
    <path class="cls-14" d="M207.81,27.53c-.54-.87-1.03-1.67-1.56-2.52-.97,1.53-1.91,3.03-2.87,4.53h-1.27c-.03-.11.07-.19.12-.27,1.09-1.71,2.18-3.42,3.27-5.13.36-.56,1.08-.59,1.44-.05,1.17,1.79,2.31,3.6,3.49,5.43h-1.32c-.19-.31-.4-.65-.62-.99h-2.99c-.21-.32-.42-.64-.66-1.01h2.96Z"/>
    <path class="cls-14" d="M216.72,23.83c-.2.32-.4.63-.61.97-1.04,0-2.08,0-3.13,0-.62,0-1.16.18-1.56.67-.48.58-.6,1.24-.3,1.92.31.71.88,1.11,1.66,1.12,1.23.02,2.46,0,3.7,0,.11,0,.21,0,.37,0-.24.37-.45.7-.64,1.01-1.29,0-2.55.07-3.8-.02-1.54-.11-2.64-1.48-2.55-3.03.09-1.53,1.34-2.7,2.87-2.7,1.21,0,2.42,0,3.63,0,.11,0,.22-.03.35.05Z"/>
    <path class="cls-14" d="M217.33,23.8h1.13v4.72h5.15c-.17.4-.42.69-.63,1.03h-.77c-1.38,0-2.75,0-4.13,0-.57,0-.74-.17-.74-.73,0-1.66,0-3.33,0-5.02Z"/>
    <path class="cls-14" d="M232.03,24.41c0,.34-.32.65-.67.65-.35,0-.65-.31-.65-.66,0-.37.31-.67.68-.66.36.01.64.31.64.67ZM231.09,24c-.27.22-.31.46-.12.7.17.22.45.26.67.1.23-.17.29-.45.15-.67-.16-.25-.42-.29-.71-.13h0Z"/>
    <path class="cls-14" d="M231.09,24c.18.02.38-.05.53.13.06.19-.16.39.05.58-.24.04-.22-.16-.33-.23-.12.03.01.23-.17.24-.14-.23,0-.5-.07-.74,0,0,0,0,0,0ZM231.32,24.15c-.05.06-.05.12,0,.17.08.01.12-.02.15-.09-.03-.07-.08-.1-.15-.09Z"/>
  </g>
  <g id="Page-1">
    <g id="Group">
      <path id="Path" class="cls-10" d="M371.73,29.96l-2.64-1.53c-.37-.21-.85-.09-1.06.28-.08.15-.12.31-.1.46v2.98c0,.43.35.77.77.77s.77-.35.77-.77v-1.72l1.48.86c.37.21.85.09,1.06-.28.21-.37.09-.85-.28-1.06"/>
      <path id="Path2" class="cls-10" d="M365.16,26.69c0-.28-.14-.53-.38-.67l-2.64-1.53c-.11-.07-.25-.1-.38-.1-.27,0-.52.15-.66.38-.21.36-.08.83.28,1.04l1.52.88-1.52.88c-.18.1-.3.26-.35.46-.05.2-.03.4.08.58.14.23.39.38.66.38.13,0,.26-.03.38-.1l2.64-1.53c.24-.14.38-.39.38-.66"/>
      <path id="Path3" class="cls-10" d="M362.74,23.41l2.64,1.53c.31.18.69.12.93-.12.15-.14.25-.34.25-.57v-3.06c0-.43-.35-.77-.77-.77s-.77.35-.77.77v1.74l-1.5-.87c-.37-.21-.85-.09-1.06.28-.21.37-.09.85.28,1.06"/>
      <path id="Combined-Shape" class="cls-10" d="M368.68,26.81c0,.06-.03.14-.08.18l-1.05,1.05s-.12.08-.18.08h-.27c-.06,0-.14-.03-.18-.08l-1.05-1.05s-.08-.12-.08-.18v-.27c0-.06.03-.14.08-.18l1.05-1.05s.12-.08.18-.08h.27c.06,0,.14.03.18.08l1.05,1.05s.08.12.08.18v.27ZM367.75,26.69h0c0-.05-.02-.11-.06-.15l-.31-.31s-.09-.06-.13-.06h-.01s-.1.02-.13.06l-.31.31s-.06.09-.06.13h0c0,.06.02.11.06.15l.31.31s.09.06.13.06h.01s.1-.02.13-.06l.31-.31s.06-.09.06-.13Z"/>
      <path id="Path4" class="cls-10" d="M369.09,24.94l2.64-1.53c.37-.21.5-.69.28-1.06-.21-.37-.69-.5-1.06-.28l-1.48.86v-1.73c0-.43-.35-.77-.77-.77s-.77.35-.77.77v3c-.01.16.02.32.1.46.21.37.69.5,1.06.28"/>
      <path id="Path5" class="cls-10" d="M365.91,28.34c-.18-.03-.36,0-.53.09l-2.64,1.53c-.37.21-.5.69-.28,1.06.21.37.69.5,1.06.28l1.5-.87v1.73c0,.43.35.77.77.77s.77-.35.77-.77v-3.06c0-.39-.28-.71-.65-.76"/>
      <path id="Path6" class="cls-10" d="M373.39,24.76c-.21-.37-.69-.5-1.06-.28l-2.64,1.53c-.25.15-.39.41-.39.69,0,.27.14.54.39.68l2.64,1.53c.37.21.85.09,1.06-.28.21-.37.09-.85-.28-1.06l-1.5-.86,1.5-.86c.37-.21.5-.69.28-1.06"/>
      <path id="Combined-Shape2" class="cls-10" d="M414,26.51h0v.03c0,.14-.12.25-.27.25h-3.71c0,.09.02.17.04.26.17.8.86,1.4,1.68,1.41h.22s.03,0,.05,0c.02,0,.03,0,.05,0,0,0,0,0,0,0,.27-.02.54-.13.79-.31h0s.03-.02.04-.03c0,0,0,0,0,0,.01,0,.02-.02.03-.03,0,0,0,0,.01-.01,0,0,.02-.01.03-.02,0,0,.01-.01.02-.01,0,0,.01-.01.02-.02,0,0,.01-.01.02-.02,0,0,.01-.01.02-.02,0,0,.02-.02.03-.02,0,0,0-.01.01-.01l.03-.03h.01s.02-.03.03-.04c0,0,0,0,.01-.01.01-.01.02-.02.03-.03,0,0,0,0,.01-.01,0-.01.02-.02.03-.03v-.02s.03-.02.04-.03.01-.02.02-.02.01-.01.02-.02c0-.01.02-.02.03-.04,0,0,0,0,0-.01.02-.03.04-.07.07-.1,0,0,0,0,0,0,0,0,.01-.01.02-.02,0,0,0,0,0,0,0,0,0,0,.01-.01h.01s0-.02.01-.02c0,0,0,0,.01,0,0,0,.01,0,.02-.01,0,0,.01,0,.01,0,0,0,.01,0,.01,0s0,0,.01,0c0,0,.01,0,.02,0,0,0,0,0,0,0,.02,0,.04,0,.07,0,.02,0,.05,0,.07.01h0s.02,0,.03.01c0,0,0,0,0,0,.01,0,.02,0,.03.01h0c.12.09.16.25.09.38h0s-.02.03-.03.04h0c-.26.41-.62.73-1.02.92,0,0-.02,0-.03.01,0,0,0,0,0,0-.18.09-.38.15-.59.17,0,0,0,0-.01,0-.02,0-.04,0-.05,0-.01,0-.02,0-.03,0-.01,0-.03,0-.04,0-.02,0-.05,0-.07,0h-.22c-1.25,0-2.25-1.05-2.25-2.33s1.01-2.34,2.27-2.34c.04,0,.07,0,.11,0,.44.02.84.17,1.18.42,0,0,0,0,0,0,.02.01.04.03.06.04,0,0,.02.02.03.02,0,0,.02.01.03.02.47.39.79.99.85,1.67h0ZM410.05,26.26h3.36c-.17-.81-.86-1.4-1.67-1.4s-1.51.57-1.69,1.4Z"/>
      <path id="Combined-Shape3" class="cls-10" d="M404.51,24.4s.07.1.08.16c0,0,0,.02,0,.03v4.13c0,.15-.12.27-.27.27s-.27-.12-.27-.27v-.55c-.1.12-.21.24-.34.33,0,0,0,0-.01,0-.01,0-.02.02-.03.03-.37.29-.82.45-1.29.45-.76,0-1.43-.4-1.83-1.02,0,0,0-.01-.01-.01-.01-.02-.02-.04-.03-.06,0-.01-.01-.02-.02-.04s-.01-.03-.02-.04c-.01-.02-.02-.04-.03-.06,0,0,0-.01,0-.02-.15-.29-.24-.62-.25-.97,0-.04,0-.08,0-.12s0-.08,0-.12c.02-.35.11-.68.25-.97,0,0,0-.01,0-.02.01-.02.02-.04.03-.06,0-.01.01-.03.02-.04,0-.01.01-.02.02-.04.01-.02.02-.04.03-.06,0,0,0-.01.01-.01.4-.61,1.07-1.02,1.83-1.02.51,0,1,.19,1.38.52.11.09.2.19.29.29v-.54s0-.02,0-.03c0-.07.03-.12.08-.16h0s.01,0,.01-.01c0,0,0,0,0,0,0,0,0,0,.01,0s0,0,.01,0c0,0,0,0,0,0,0,0,.01,0,.02,0,0,0,0,0,0,0,0,0,.01,0,.02-.01h0s.03-.01.05-.01c0,0,0,0,0,0,0,0,.01,0,.02,0,0,0,.02,0,.03,0,.01,0,.02,0,.03,0,0,0,.01,0,.02,0,0,0,0,0,0,0,.02,0,.03,0,.05.01h0s.01,0,.02.01c0,0,0,0,0,0,0,0,.01,0,.01,0,0,0,0,0,0,0,0,0,0,0,.01,0s0,0,.01,0c0,0,0,0,0,0,0,0,.01,0,.01.01h0ZM402.37,28.46c.92,0,1.68-.81,1.68-1.8s-.75-1.81-1.68-1.81-1.68.81-1.68,1.81c0,.03,0,.06,0,.09,0,.01,0,.03,0,.04,0,.02,0,.04,0,.05,0,.01,0,.03,0,.04,0,.02,0,.03,0,.05,0,.01,0,.02,0,.03,0,.02,0,.04,0,.05,0,0,0,.02,0,.02,0,.02,0,.04.01.06,0,0,0,0,0,.01.19.77.85,1.33,1.62,1.33Z"/>
      <path id="Path7" class="cls-10" d="M397.74,22.37h-.07s-.02,0-.03,0c-.01,0-.02,0-.03,0-.03,0-.05,0-.08,0,0,0-.01,0-.01,0-.02,0-.04,0-.06,0h-.01s-.04,0-.06,0c0,0,0,0,0,0-.02,0-.04,0-.06,0h0c-.14.02-.26.06-.37.11,0,0,0,0,0,0-.02,0-.03.02-.05.03,0,0,0,0,0,0-.01,0-.03.02-.04.02,0,0-.01,0-.01.01-.01,0-.02.01-.03.02,0,0-.02.01-.02.02,0,0-.01.01-.02.02-.01.01-.02.02-.03.03,0,0,0,0,0,0-.01.01-.03.03-.04.04,0,0,0,0,0,0-.01.01-.02.02-.03.04,0,0,0,.01-.01.02,0,.01-.02.02-.02.03,0,0,0,0,0,.01,0,.01-.02.03-.03.04,0,0,0,0,0,0-.07.12-.12.26-.16.43,0,0,0,0,0,0,0,.02,0,.04-.01.07,0,0,0,.01,0,.02,0,.02,0,.04,0,.06,0,.01,0,.02,0,.03,0,.02,0,.03,0,.05,0,.02,0,.03,0,.05,0,.01,0,.02,0,.03,0,.02,0,.05,0,.07,0,0,0,.01,0,.02,0,.03,0,.06,0,.1v.44h-.56s-.07,0-.1.02c-.1.04-.17.13-.17.24,0,.1.05.19.13.25.04.03.09.04.14.04h0s.56,0,.56,0v3.92s0,.01,0,.02h0c0,.07.03.13.07.17h0s.01.01.02.02c0,0,0,0,0,0,0,0,.01,0,.01.01,0,0,0,0,0,0,0,0,0,0,0,0,.04.03.1.04.15.04,0,0,.02,0,.03,0,.05,0,.1-.03.14-.06h0s.01-.01.01-.02c0,0,0,0,0,0,0,0,0,0,.01-.01.04-.05.07-.12.06-.18v-3.92h.6s0,0,0,0c.16,0,.28-.13.27-.29h0s0-.01,0-.02h0c0-.07-.03-.12-.07-.16h0s-.01-.01-.02-.02c0,0,0,0,0,0,0,0,0,0-.01,0,0,0,0,0-.01,0,0,0,0,0,0,0,0,0-.01,0-.02,0,0,0,0,0,0,0,0,0-.01,0-.02,0,0,0,0,0,0,0,0,0-.01,0-.02,0,0,0,0,0,0,0,0,0-.01,0-.02,0,0,0,0,0-.01,0,0,0-.01,0-.02,0h-.01s0,0-.01,0h-.61v-.44h0s0-.05,0-.08c0,0,0-.01,0-.02,0-.02,0-.04,0-.06,0,0,0,0,0-.01,0-.02,0-.04,0-.06.02-.22.07-.36.12-.44,0,0,0,0,0,0,0,0,0-.01.01-.02,0,0,0,0,0-.01,0,0,0,0,0,0,0,0,.01-.01.02-.02.07-.08.18-.13.34-.15,0,0,0,0,0,0,0,0,.02,0,.03,0,0,0,.01,0,.01,0,0,0,.02,0,.03,0,0,0,.01,0,.02,0,0,0,.02,0,.02,0s.02,0,.02,0h.06s.02,0,.03,0c.01,0,.02,0,.03,0h.07c.15,0,.27-.12.27-.28s-.12-.27-.27-.27"/>
      <path id="Path8" class="cls-10" d="M399.19,22.38s0,0,0,0c0,0-.01,0-.02,0,0,0,0,0,0,0,0,0,0,0-.01,0s0,0-.01,0c0,0-.01,0-.02,0,0,0,0,0-.01,0,0,0-.02,0-.03,0-.15,0-.27.12-.27.27v6.1c0,.15.12.27.27.27,0,0,.02,0,.03,0,0,0,0,0,0,0h.02s0,0,0,0c0,0,.01,0,.02,0,0,0,0,0,0,0,.1-.03.18-.12.19-.23,0,0,0-.02,0-.03v-6.1s0-.02,0-.03c-.01-.1-.08-.18-.17-.22"/>
      <path id="Path9" class="cls-10" d="M378.54,27.56s0-.03,0-.05c0-.01,0-.02,0-.03,0-.01,0-.02,0-.04,0-.01,0-.02,0-.03,0,0,0-.02,0-.03,0-.01,0-.03,0-.04,0,0,0-.01,0-.02,0-.01,0-.03-.01-.04,0,0,0-.01,0-.02,0-.02-.01-.03-.02-.05,0,0,0,0,0,0,0-.02-.01-.03-.02-.05,0,0,0,0,0,0-.06-.13-.16-.24-.27-.33t0,0s-.03-.03-.05-.04c0,0,0,0,0,0,0,0,0,0,0,0-.01,0-.02-.01-.03-.02-.14-.1-.29-.18-.51-.26,0,0,0,0-.01,0,0,0,0,0-.01,0-.13-.05-.26-.09-.39-.14h0s0,0,0,0c0,0,0,0,0,0-.01,0-.03,0-.04-.01,0,0-.02,0-.02,0-.05-.02-.09-.03-.14-.05-.03-.01-.07-.02-.11-.04-.01,0-.04-.01-.06-.02,0,0,0,0,0,0-.01,0-.03,0-.04-.01-.11-.04-.2-.07-.28-.1-.13-.05-.25-.1-.34-.16,0,0,0,0,0,0-.13-.08-.22-.19-.24-.32h0s0-.02,0-.03c0,0,0,0,0,0,0-.01,0-.02,0-.03,0-.02,0-.03,0-.05,0,0,0,0,0-.01,0-.01,0-.02,0-.03,0,0,0,0,0-.01,0-.01,0-.02,0-.04,0,0,0,0,0,0,0-.01,0-.03.01-.04h0c.06-.18.2-.3.36-.4.01,0,.02-.01.03-.02.01,0,.02-.01.03-.02.02,0,.03-.02.05-.02.01,0,.02,0,.03-.01l.05-.02s.02,0,.03-.01c.02,0,.03-.01.05-.02.01,0,.02,0,.03,0,.02,0,.03,0,.05-.01.01,0,.02,0,.03,0,.02,0,.03,0,.05,0,.01,0,.02,0,.03,0,.02,0,.04,0,.06,0,0,0,0,0,.01,0,.02,0,.05,0,.07,0,.03,0,.06,0,.08,0h.01c.2.01.36.06.49.12.01,0,.02.01.03.01,0,0,.01,0,.02,0,.01,0,.02.01.04.02,0,0,0,0,0,0,.01,0,.03.02.04.02,0,0,0,0,0,0,.01,0,.03.02.04.03,0,0,0,0,0,0,.01,0,.03.02.04.03,0,0,.01,0,.02.01.03.02.08.06.13.1,0,0,.01,0,.01.01.03.03.07.05.1.08,0,0,.01,0,.01.01,0,0,0,0,0,0,0,0,0,0,.01,0,0,0,.02.01.02.02,0,0,0,0,.01,0,0,0,.02,0,.02.01,0,0,0,0,0,0,0,0,.02,0,.03.01,0,0,0,0,0,0,.01,0,.02,0,.03,0h0s.04,0,.07,0c0,0,0,0,0,0,0,0,.01,0,.02,0,0,0,0,0,0,0,0,0,0,0,0,0,0,0,.02,0,.03-.01,0,0,0,0,0,0,.01,0,.02-.01.03-.02h0s.01-.02.02-.02c0,0,0-.01.01-.02,0,0,0,0,0,0,.05-.08.02-.18-.06-.29,0,0,0,0,0,0,0,0,0,0,0-.01-.19-.25-.63-.52-1.03-.61,0,0,0,0,0,0-.02,0-.03,0-.05-.01,0,0-.01,0-.01,0-.01,0-.03,0-.04,0,0,0-.01,0-.02,0-.01,0-.03,0-.04,0,0,0-.01,0-.02,0-.02,0-.04,0-.06,0-.03,0-.06,0-.09,0-.02,0-.03,0-.05,0-.01,0-.02,0-.04,0-.02,0-.04,0-.07,0,0,0-.01,0-.02,0-.02,0-.05,0-.07,0h0s-.05,0-.08.01h0s-.05,0-.07.01c0,0,0,0,0,0-.05,0-.1.02-.15.03,0,0,0,0,0,0-.02,0-.05.01-.07.02-.02,0-.04.01-.06.02,0,0,0,0,0,0-.02,0-.04.01-.06.02,0,0,0,0,0,0-.02,0-.04.02-.06.02,0,0,0,0,0,0-.02,0-.03.02-.05.02,0,0,0,0-.01,0-.02,0-.03.02-.05.02,0,0,0,0-.01,0-.01,0-.03.02-.04.03,0,0,0,0-.01,0-.02.01-.04.02-.06.03-.02.02-.04.03-.06.05,0,0,0,0,0,0-.1.07-.18.15-.25.23,0,0,0,0,0,.01,0,.01-.02.02-.02.03,0,0-.01.02-.02.03,0,0,0,.01-.01.02,0,.01-.02.03-.02.05,0,0,0,0,0,0-.06.12-.1.26-.11.43,0,0,0,0,0,0,0,.03,0,.06,0,.09,0,.02,0,.05,0,.07h0c.01.33.16.57.42.76,0,0,0,0,0,0,.01,0,.02.02.03.02,0,0,.02.01.02.02,0,0,0,0,0,0,.26.17.58.26.85.34.13.04.25.07.28.08,0,0,.02,0,.02,0,.16.05.28.1.38.14,0,0,.01,0,.02,0,0,0,0,0,0,0,.06.02.11.05.17.08.05.02.09.05.13.07.11.07.19.14.24.22,0,0,0,0,0,0,0,0,.01.01.01.02,0,0,0,0,0,.01,0,0,0,.01,0,.02,0,0,0,.01,0,.02,0,0,0,0,0,.01,0,0,0,.01,0,.02,0,0,0,0,0,.01,0,0,0,.02,0,.02,0,0,0,0,0,.01,0,0,0,.02,0,.02,0,0,0,0,0,.01,0,0,0,.02,0,.03,0,0,0,0,0,.01,0,.01,0,.03,0,.04,0,.02,0,.04,0,.06,0,0,0,.01,0,.02,0,.01,0,.03,0,.04,0,0,0,0,0,.01,0,.04-.02.08-.03.11,0,0,0,0,0,0,0,.02-.02.03-.02.05,0,0,0,0,0,0-.02.04-.04.07-.07.1-.01.02-.03.03-.04.05t0,0s-.06.06-.1.08c0,0,0,0,0,0-.02.01-.03.02-.05.03,0,0,0,0,0,0-.03.02-.06.04-.09.05-.01,0-.02.01-.03.02-.01,0-.03.01-.04.02-.01,0-.02,0-.03.01-.03.01-.06.02-.09.03,0,0,0,0-.01,0-.02,0-.04.01-.05.02,0,0-.01,0-.01,0-.06.02-.12.03-.17.04h0s-.06,0-.08.01c-.01,0-.02,0-.03,0,0,0-.02,0-.03,0-.02,0-.04,0-.06,0-.04,0-.08,0-.12,0-.02,0-.03,0-.05,0-.02,0-.04,0-.06,0-.02,0-.04,0-.06,0-.02,0-.03,0-.05,0-.03,0-.07-.01-.1-.02-.01,0-.03,0-.05,0-.02,0-.03,0-.05-.01-.02,0-.04,0-.06-.01-.01,0-.03,0-.04-.01-.03,0-.06-.02-.09-.03,0,0-.01,0-.02,0-.07-.02-.13-.05-.19-.08,0,0,0,0,0,0-.04-.02-.11-.06-.17-.1,0,0-.01,0-.02-.01-.05-.03-.09-.05-.12-.07,0,0,0,0,0,0,0,0,0,0,0,0-.01,0-.02,0-.03-.01,0,0,0,0,0,0-.02,0-.05-.02-.07-.02,0,0-.01,0-.02,0,0,0,0,0,0,0-.04,0-.08.01-.11.05,0,0-.01.01-.02.02,0,0,0,0,0,0,0,0,0,.01-.01.01,0,0,0,0,0,0,0,0,0,0,0,.01,0,0,0,0,0,.01,0,0,0,0,0,.01,0,0,0,0,0,0,0,0,0,.01,0,.01,0,0,0,0,0,0,0,0,0,.01,0,.02,0,0,0,0,0,0,0,0,0,.01,0,.02h0s0,.02,0,.03h0s0,.02,0,.03c0,0,0,0,0,.01,0,0,0,.01,0,.02,0,0,0,0,0,0,.01.03.04.07.07.1.03.04.07.07.12.11t0,0s.03.02.04.03c0,0,0,0,0,0,.04.03.08.05.13.08.01,0,.02.01.03.02.01,0,.02.01.03.02.01,0,.03.02.04.02.01,0,.02.01.03.01.02.01.05.02.07.03,0,0,0,0,0,0,.03.01.05.02.08.03.01,0,.02,0,.03.01,0,0,0,0,0,0,.24.09.54.16.8.17.02,0,.04,0,.06,0h0s.02,0,.03,0h.06s0,0,0,0c.43-.01.78-.12,1.07-.34h0c.33-.25.51-.6.51-.99,0-.02,0-.05,0-.07,0,0,0-.02,0-.03"/>
      <path id="Path10" class="cls-10" d="M381.29,24.33h0c-.52,0-1.02.21-1.38.59v-.32c0-.15-.11-.27-.26-.27-.01,0-.02,0-.03,0-.06,0-.12.03-.16.08t0,0s0,0-.01.01c0,0,0,0,0,0,0,0,0,0,0,.01,0,0,0,0,0,.01,0,0,0,0,0,0,0,0,0,.01-.01.02,0,0,0,0,0,0,0,0,0,.01-.01.02,0,.02-.01.03-.01.05,0,0,0,0,0,0,0,0,0,.02,0,.02,0,0,0,.02,0,.03v4.2s.01.01.01.01c0,0,0,.01,0,.02,0,0,0,0,0,0,0,0,0,.01.01.02.03.07.1.12.17.14h0s.06,0,.06,0c.01,0,.02,0,.03,0,0,0,.01,0,.02,0,0,0,0,0,0,0,0,0,.02,0,.03,0h0s.09-.05.11-.09h0s.03-.04.04-.07c0,0,0,0,0,0t0,0s0-.03.01-.04h0v-2.53c.02-.75.63-1.37,1.37-1.37h0c.75,0,1.37.61,1.37,1.37v2.49s0,.02,0,.03c0,.07.03.12.08.16,0,0,0,0,0,0,0,0,0,0,.01.01,0,0,0,0,0,0,0,0,0,0,.01,0,0,0,0,0,.01,0,0,0,0,0,0,0,0,0,.01,0,.01,0,0,0,0,0,0,0,0,0,.01,0,.02.01h0s.03.01.05.01c0,0,0,0,0,0,0,0,.01,0,.02,0,0,0,.02,0,.03,0,0,0,.02,0,.03,0,0,0,.02,0,.02,0,0,0,0,0,0,0,.02,0,.03,0,.05-.01h.02s0-.01,0-.01c0,0,.01,0,.02,0,0,0,0,0,0,0,0,0,0,0,.01,0,0,0,0,0,.01,0,0,0,0,0,0,0,0,0,.01,0,.01-.01h0s.07-.1.08-.16c0,0,0-.02,0-.03v-2.49c0-1.05-.85-1.9-1.9-1.91"/>
      <path id="Combined-Shape4" class="cls-10" d="M386.14,24.32c1.22,0,2.22,1.05,2.22,2.34s-.99,2.34-2.22,2.34c-.04,0-.08,0-.11,0,0,0-.01,0-.02,0-.03,0-.07,0-.1,0h0c-.48-.05-.93-.27-1.29-.63-.01-.01-.03-.03-.04-.05,0,0,0,0,0,0,0,0-.01-.02-.02-.03-.02-.02-.03-.04-.05-.06-.01-.01-.03-.03-.04-.05,0-.01-.02-.02-.03-.04-.02-.02-.04-.05-.06-.08h0c-.22-.32-.36-.67-.42-1.05,0-.03,0-.07-.01-.1,0,0,0,0,0-.01,0-.03,0-.06,0-.1,0,0,0-.01,0-.02,0-.04,0-.08,0-.12s0-.08,0-.12c0,0,0-.01,0-.02,0-.03,0-.07,0-.1,0,0,0,0,0-.01,0-.03,0-.07.01-.1.05-.38.2-.73.42-1.04,0,0,0,0,0,0,.02-.03.04-.05.06-.08,0-.01.02-.02.03-.03.01-.02.03-.03.04-.05.02-.02.03-.03.05-.05,0,0,.02-.02.02-.03,0,0,0,0,0,0,.01-.01.03-.03.04-.04.36-.36.81-.59,1.3-.64h0s.06,0,.1,0c0,0,.01,0,.02,0,.04,0,.07,0,.11,0ZM387.81,26.47h0c-.04-.41-.21-.77-.45-1.06-.01-.01-.02-.02-.03-.04l-.02-.02s-.03-.03-.04-.04c-.01-.01-.03-.02-.04-.03,0,0-.01-.01-.02-.02-.02-.02-.04-.03-.06-.05,0,0,0,0,0,0-.24-.19-.52-.32-.82-.35,0,0,0,0,0,0-.02,0-.05,0-.07,0,0,0-.01,0-.01,0-.03,0-.06,0-.08,0s-.06,0-.08,0c0,0,0,0-.01,0-.02,0-.05,0-.07,0,0,0,0,0,0,0-.3.03-.59.16-.82.35,0,0,0,0,0,0-.02.02-.04.03-.06.05,0,0-.01.01-.02.02-.01.01-.03.02-.04.04s-.02.03-.04.04l-.02.02s-.02.02-.03.04c-.25.28-.42.65-.46,1.05h0s0,.05,0,.08c0,0,0,0,0,.01,0,.03,0,.06,0,.09,0,.99.76,1.8,1.68,1.8s1.68-.81,1.68-1.8c0-.03,0-.06,0-.09,0,0,0,0,0-.01,0-.03,0-.05,0-.08Z"/>
      <path id="Path11" class="cls-10" d="M394.87,24.44s0,0,0,0c-.03-.03-.06-.06-.1-.08h0s-.01,0-.01,0c0,0,0,0,0,0-.04-.01-.08-.01-.11,0h0c-.08.01-.15.06-.19.13h0s-.01.02-.02.03h0s-1.29,3.53-1.29,3.53l-1.01-2.41s-.02-.04-.04-.06c-.06-.06-.14-.1-.23-.1-.01,0-.03,0-.04,0h0c-.09.02-.17.08-.21.16h0s-1.01,2.41-1.01,2.41l-.49-1.33-.81-2.2s0-.02-.01-.03t0,0s-.06-.08-.11-.1c0,0,0,0,0,0-.02-.01-.05-.02-.07-.02,0,0,0,0,0,0-.01,0-.03,0-.04,0h0s-.01,0-.02,0c0,0,0,0-.01,0,0,0-.01,0-.01,0,0,0,0,0-.01,0,0,0-.01,0-.02,0,0,0,0,0,0,0,0,0-.01,0-.02,0h0s-.08.06-.11.1c0,0,0,0,0,0h0s-.03.08-.04.12c0,.04,0,.09.02.13l.94,2.51.6,1.61h0c.02.06.06.1.11.13,0,0,0,0,0,0s0,0,0,0c0,0,0,0,0,0,0,0,0,0,0,0h0s.02.01.03.01c0,0,0,0,0,0,0,0,0,0,.01,0,0,0,0,0,0,0,.03,0,.05.01.07.01.01,0,.02,0,.04,0,0,0,.02,0,.03,0,0,0,0,0,0,0,0,0,.02,0,.03-.01,0,0,0,0,.01,0,0,0,.01,0,.02-.01,0,0,.01,0,.02-.01,0,0,0,0,.01,0,0,0,.01-.01.02-.02,0,0,0,0,0,0,0,0,.02-.02.02-.02,0,0,0,0,0,0,0,0,.01-.02.02-.03,0-.01.01-.02.02-.04h0s0,0,0,0h0s1.02-2.43,1.02-2.43l1.03,2.43s.02.05.04.07c0,0,0,0,0,0,0,0,.01.01.02.02,0,0,0,0,.01,0,0,0,.01.01.02.02,0,0,0,0,0,0,0,0,.02.01.02.02h0s.02.01.03.02c0,0,0,0,0,0,0,0,.02,0,.02,0,.01,0,.02,0,.03,0h.03s.03,0,.04,0c0,0,0,0,0,0,.01,0,.02,0,.03,0,0,0,0,0,0,0,.01,0,.02,0,.03-.01,0,0,0,0,0,0,.01,0,.02-.02.03-.02.05-.03.08-.08.1-.13h0s.63-1.71.63-1.71l.89-2.4c.03-.08.02-.18-.03-.25,0,0,0,0,0-.01"/>
      <path id="Path12" class="cls-10" d="M409.18,24.51s0-.01,0-.01c0,0,0,0,0-.01,0,0,0-.01,0-.02,0,0,0,0,0,0,0,0,0-.01,0-.02,0,0,0,0,0,0,0,0,0-.01-.01-.02h0s-.03-.05-.05-.06h0c-.1-.1-.23-.11-.34-.04,0,0,0,0,0,0,0,0,0,0-.01.01,0,0-.01.01-.02.02,0,0,0,0,0,0l-2.64,2.57v-4.3s0-.02,0-.03c-.01-.1-.08-.18-.17-.22,0,0,0,0,0,0,0,0-.01,0-.02,0,0,0,0,0,0,0,0,0,0,0-.01,0,0,0,0,0-.01,0,0,0-.01,0-.01,0,0,0,0,0-.01,0-.01,0-.02,0-.03,0-.15,0-.27.12-.27.27v6.1c0,.15.12.27.27.27,0,0,.02,0,.03,0,0,0,0,0,0,0,0,0,.02,0,.02,0,0,0,0,0,0,0,0,0,.01,0,.02,0,0,0,0,0,0,0,.1-.03.18-.12.19-.23,0,0,0-.02,0-.03v-1.03l.89-.89,1.72,2.08s.02.03.04.05c0,0,0,0,0,0,0,0,0,0,.01,0,0,0,.01,0,.02.01,0,0,0,0,0,0,0,0,.01,0,.02,0,0,0,0,0,0,0,0,0,.02,0,.03,0,0,0,0,0,0,0,0,0,.02,0,.03,0,0,0,0,0,0,0,.01,0,.02,0,.03,0,.02,0,.03,0,.05,0h0s.06-.01.09-.03c0,0,0,0,0,0,.01,0,.02-.01.04-.02h0c.1-.11.12-.25.04-.36,0-.01-.01-.02-.02-.03l-1.75-2.13,1.74-1.68s.07-.1.08-.17c0,0,0,0,0,0v-.02s0,0,0,0h0s0-.01,0-.02c0,0,0,0,0-.01"/>
    </g>
  </g>
</svg>