<?xml version="1.0" encoding="UTF-8"?>
<svg id="Capa_1" data-name="Capa 1" xmlns="http://www.w3.org/2000/svg" xmlns:xlink="http://www.w3.org/1999/xlink" viewBox="0 0 425.5 53">
  <defs>
    <style>
      .cls-1 {
        font-family: BebasNeueBold, 'Bebas Neue';
        font-size: 21px;
      }

      .cls-1, .cls-2, .cls-3 {
        fill: #fff;
      }

      .cls-4 {
        fill: #81bc06;
      }

      .cls-5 {
        fill: url(#Degradado_sin_nombre_16);
      }

      .cls-6, .cls-7 {
        fill: #00aeef;
      }

      .cls-8 {
        mask: url(#mask);
      }

      .cls-9 {
        letter-spacing: -.05em;
      }

      .cls-3, .cls-10, .cls-7 {
        fill-rule: evenodd;
      }

      .cls-11 {
        fill: none;
      }

      .cls-12 {
        fill: url(#Degradado_sin_nombre_4);
      }

      .cls-13 {
        fill: url(#Degradado_sin_nombre_2);
        opacity: .05;
      }

      .cls-14 {
        fill: #ffba08;
      }

      .cls-10 {
        fill: #fffffe;
      }

      .cls-15 {
        fill: #e51b27;
      }

      .cls-16 {
        fill: #f35325;
      }

      .cls-17 {
        fill: #f3f3f3;
      }
    </style>
    <linearGradient id="Degradado_sin_nombre_2" data-name="Degradado sin nombre 2" x1="87.16" y1="-240.73" x2="321.39" y2="110.99" gradientUnits="userSpaceOnUse">
      <stop offset="0" stop-color="#fff"/>
      <stop offset="1" stop-color="#000"/>
    </linearGradient>
    <linearGradient id="Degradado_sin_nombre_16" data-name="Degradado sin nombre 16" x1="-15.2" y1="-229.16" x2="75.04" y2="118.15" gradientUnits="userSpaceOnUse">
      <stop offset="0" stop-color="#00aeef"/>
      <stop offset=".36" stop-color="#049ddf"/>
      <stop offset="1" stop-color="#0f75bc"/>
    </linearGradient>
    <linearGradient id="Degradado_sin_nombre_4" data-name="Degradado sin nombre 4" x1="149.83" y1="-2558.23" x2="149.83" y2="-2578.87" gradientTransform="translate(0 -2542) scale(1 -1)" gradientUnits="userSpaceOnUse">
      <stop offset="0" stop-color="#0ae"/>
      <stop offset="1" stop-color="#05a"/>
    </linearGradient>
    <mask id="mask" x="252.77" y="11.93" width="41.76" height="29.23" maskUnits="userSpaceOnUse">
      <g id="b">
        <path id="a" class="cls-3" d="M252.82,11.93h41.72v29.14h-41.72V11.93Z"/>
      </g>
    </mask>
    <clipPath id="clippath">
      <rect class="cls-11" x="553.83" y="-935.66" width="960.22" height="540.01"/>
    </clipPath>
  </defs>
  <rect class="cls-13" x="104.97" y=".07" width="320.36" height="52.93"/>
  <rect class="cls-5" x="-.49" y=".07" width="103.44" height="52.93"/>
  <text class="cls-1" transform="translate(8.49 34.2)"><tspan x="0" y="0">Consu</tspan><tspan class="cls-9" x="41.6" y="0">l</tspan><tspan x="47.67" y="0">toría</tspan></text>
  <image width="3840" height="2160" transform="translate(362.24 11.75) scale(.01)" xlink:href="../../../Alejandro Mendoza/Valtre/Logos Matriz/Analítica Avanzada/Snowflake-Logo.png"/>
  <g>
    <path class="cls-12" d="M170.69,16.23h-41.73v20.63h21.09"/>
    <path class="cls-2" d="M149.6,20.36v9.72l-3.58-9.72h-3.58l-3.03,8.07c-.37-2.02-2.48-2.75-4.13-3.3-1.1-.37-2.29-.83-2.29-1.47,0-.46.64-.92,1.83-.83.83.09,1.56.09,3.03.83l1.47-2.48c-1.38-.73-3.21-1.1-4.68-1.1-1.74,0-3.21.55-4.13,1.47-.64.64-.92,1.47-1.01,2.38,0,1.28.46,2.2,1.47,2.93.83.55,1.83.92,2.75,1.19,1.19.37,2.11.73,2.11,1.38-.09.83-1.01,1.01-1.65,1.01-1.1.09-2.02-.09-3.39-.92l-1.28,2.48c1.38.83,2.84,1.19,4.59,1.19,1.19,0,3.03-.37,4.03-1.28l-.18.83h3.48l.64-1.56c1.38.37,2.93.46,4.31,0l.46,1.56h6.24v-3.67h1.28c3.21,0,5.14-1.56,5.14-4.31,0-3.12-1.83-4.4-5.78-4.4h-4.13ZM142.9,28.43l1.28-4.13h.09l1.28,4.13c-.92.28-1.83.28-2.66,0ZM153.08,26.32v-3.3h.92c1.19,0,2.11.37,2.11,1.56,0,1.28-.92,1.74-2.11,1.74h-.92Z"/>
  </g>
  <g>
    <path class="cls-17" d="M317.37,15.05h23v23h-23V15.05Z"/>
    <path class="cls-16" d="M318.37,16.05h10v10h-10v-10Z"/>
    <path class="cls-4" d="M329.37,16.05h10v10h-10v-10Z"/>
    <path class="cls-6" d="M318.37,27.05h10v10h-10v-10Z"/>
    <path class="cls-14" d="M329.37,27.05h10v10h-10v-10Z"/>
  </g>
  <g>
    <g class="cls-8">
      <path class="cls-7" d="M270.14,15.12c1.35-1.4,3.22-2.27,5.29-2.27,2.76,0,5.15,1.53,6.44,3.82,1.14-.51,2.38-.78,3.63-.77,4.97,0,9,4.06,9,9.08s-4.03,9.08-9,9.08c-.61,0-1.2-.06-1.78-.18-1.13,2.01-3.28,3.37-5.74,3.37-1,0-1.99-.22-2.88-.66-1.14,2.68-3.8,4.57-6.9,4.57s-5.98-2.04-7.04-4.91c-.47.1-.95.15-1.43.15-3.85,0-6.96-3.16-6.96-7.04,0-2.61,1.4-4.88,3.48-6.1-.44-1.02-.67-2.11-.67-3.22,0-4.48,3.63-8.1,8.11-8.1,2.62,0,4.97,1.25,6.44,3.19"/>
    </g>
    <path class="cls-10" d="M258.85,27.09c-.03.07,0,.08.02.09.08.06.16.1.24.14.43.23.83.29,1.25.29.86,0,1.39-.46,1.39-1.19h0c0-.69-.6-.94-1.16-1.12l-.07-.02c-.42-.14-.79-.26-.79-.54h0c0-.25.21-.43.55-.43.37,0,.81.12,1.09.28,0,0,.08.05.11-.03.02-.04.16-.43.17-.47.02-.04-.01-.08-.04-.1-.32-.2-.77-.33-1.23-.33h-.09c-.78,0-1.33.47-1.33,1.15h0c0,.73.6.96,1.17,1.12l.09.03c.41.13.77.24.77.52h0c0,.28-.23.48-.6.48-.14,0-.6,0-1.1-.32-.06-.04-.09-.06-.14-.09-.02-.01-.09-.04-.11.04l-.17.47M271.38,27.08c-.03.07,0,.08.02.09.08.06.16.1.24.14.43.23.83.29,1.25.29.86,0,1.39-.46,1.39-1.19h0c0-.69-.6-.94-1.16-1.12l-.07-.02c-.42-.14-.79-.26-.79-.54h0c0-.25.21-.43.55-.43.37,0,.81.12,1.09.28,0,0,.08.05.11-.03.02-.04.16-.43.17-.47.02-.04-.01-.08-.04-.1-.32-.2-.77-.33-1.23-.33h-.09c-.78,0-1.33.47-1.33,1.15h0c0,.73.6.96,1.17,1.12l.09.03c.41.13.77.24.77.52h0c0,.28-.23.48-.6.48-.14,0-.61,0-1.1-.32-.06-.04-.1-.06-.14-.09-.02,0-.09-.04-.11.04l-.17.47M279.94,25.65c0,.41-.08.74-.23.97-.15.23-.38.34-.7.34s-.54-.11-.69-.34c-.15-.23-.23-.56-.23-.97s.08-.74.23-.97c.15-.23.37-.34.69-.34s.55.11.7.34c.15.23.23.55.23.97M280.65,24.88c-.07-.24-.18-.45-.33-.62-.15-.17-.33-.32-.55-.42-.22-.1-.48-.15-.77-.15s-.55.05-.77.15c-.22.1-.4.24-.55.42-.15.17-.25.38-.33.62-.07.24-.11.49-.11.77s.04.53.11.77c.07.24.18.45.33.62.15.17.33.31.55.41.22.1.48.15.77.15s.55-.05.77-.15c.22-.1.4-.24.55-.41.15-.17.25-.38.33-.62.07-.24.11-.49.11-.77s-.04-.53-.11-.77M286.52,26.84c-.02-.07-.09-.04-.09-.04-.1.04-.21.08-.33.09-.12.02-.25.03-.39.03-.35,0-.62-.1-.82-.31-.2-.2-.31-.53-.31-.98,0-.4.1-.71.27-.94.17-.23.44-.35.79-.35.29,0,.52.03.76.11,0,0,.06.02.08-.05.06-.17.11-.3.18-.49.02-.05-.03-.08-.04-.08-.09-.04-.31-.1-.48-.12-.15-.02-.33-.04-.54-.04-.3,0-.57.05-.8.15-.23.1-.42.24-.58.42s-.27.38-.35.62c-.08.24-.12.5-.12.77,0,.59.16,1.07.48,1.42.32.35.79.53,1.41.53.37,0,.74-.07,1.01-.18,0,0,.05-.02.03-.08l-.18-.48M287.77,25.25c.03-.23.1-.42.2-.57.15-.23.37-.35.69-.35s.53.12.68.35c.1.15.14.35.16.57h-1.73s0,0,0,0ZM290.18,24.74c-.06-.23-.21-.46-.31-.57-.16-.17-.31-.29-.46-.35-.22-.09-.46-.14-.69-.14-.3,0-.58.05-.8.15-.22.1-.41.25-.56.42-.15.18-.26.39-.33.63-.07.24-.11.5-.11.77s.04.54.11.77c.07.24.19.44.35.62.16.17.36.31.61.4.24.09.54.14.88.14.7,0,1.07-.16,1.22-.24.03-.02.05-.04.02-.12l-.16-.44c-.02-.07-.09-.04-.09-.04-.17.06-.42.18-.99.18-.38,0-.65-.11-.83-.29-.18-.18-.27-.44-.28-.81h2.42s.06,0,.07-.06c0-.03.08-.5-.07-1.04h0ZM268.4,25.25c.03-.23.1-.42.2-.57.15-.23.37-.35.69-.35s.53.12.68.35c.1.15.14.35.16.57h-1.73s0,0,0,0ZM270.81,24.74c-.06-.23-.21-.46-.31-.57-.16-.17-.31-.29-.46-.35-.22-.09-.46-.14-.69-.14-.3,0-.58.05-.8.15-.22.1-.41.25-.56.42-.15.18-.26.39-.33.63-.07.24-.11.5-.11.77s.04.54.11.77c.07.24.19.44.35.62.16.17.36.31.61.4.24.09.54.14.88.14.7,0,1.07-.16,1.22-.24.03-.02.05-.04.02-.12l-.16-.44c-.02-.07-.09-.04-.09-.04-.17.06-.42.18-.99.18-.37,0-.65-.11-.83-.29-.18-.18-.27-.44-.28-.81h2.42s.06,0,.07-.06c0-.03.08-.5-.07-1.04h0ZM263.17,26.83c-.09-.08-.11-.09-.14-.14-.05-.07-.07-.18-.07-.31,0-.21.07-.37.22-.47,0,0,.21-.18.7-.17.22,0,.44.02.66.06v1.1h0s-.31.07-.65.09c-.49.03-.71-.14-.71-.14h0ZM264.14,25.13c-.1,0-.23-.01-.38-.01-.21,0-.41.03-.6.08-.19.05-.36.13-.5.23-.15.1-.27.24-.35.4-.09.16-.13.35-.13.56s.04.4.11.55c.07.15.18.28.32.38.13.1.3.17.49.21.19.04.4.07.64.07.25,0,.5-.02.73-.06.2-.04.41-.07.61-.12.08-.02.17-.04.17-.04.06-.02.06-.08.06-.08v-2.21c0-.48-.13-.85-.39-1.07-.25-.22-.63-.33-1.11-.33-.18,0-.47.02-.65.06,0,0-.53.1-.75.27,0,0-.05.03-.02.1l.17.46c.02.06.08.04.08.04,0,0,.02,0,.04-.02.46-.25,1.05-.25,1.05-.25.26,0,.46.05.6.16.13.1.2.25.2.58v.1c-.21-.03-.4-.05-.4-.05h0ZM283.62,23.88s0-.07-.03-.09c0,0,0,0,0,0-.04-.02-.25-.06-.4-.07-.3-.02-.47.03-.62.1-.15.07-.32.18-.41.3v-.29s-.03-.07-.07-.07h-.62s-.07.03-.07.07v3.6s.03.07.07.07h.63s.07-.03.07-.07v-1.81c0-.24.03-.48.08-.63.05-.15.12-.27.21-.36.08-.08.19-.14.3-.18.11-.03.22-.05.33-.05.13,0,.27.03.27.03.05,0,.07-.02.09-.07.04-.11.16-.44.18-.51"/>
    <path class="cls-10" d="M277.68,22.22c-.08-.02-.16-.04-.24-.06-.11-.02-.22-.03-.33-.03-.44,0-.78.12-1.02.37-.24.24-.4.61-.49,1.1l-.03.16h-.55s-.07,0-.08.07l-.09.5s.01.08.08.08h.53l-.54,3.03c-.04.24-.09.44-.14.6-.05.15-.1.26-.17.34-.06.08-.12.14-.22.17-.08.03-.18.04-.28.04-.06,0-.14,0-.19-.02-.06-.01-.09-.02-.13-.04,0,0-.06-.02-.09.04-.02.05-.16.44-.18.49-.02.05,0,.09.04.1.07.03.12.04.22.06.13.03.25.03.35.03.22,0,.43-.03.59-.09.17-.06.32-.17.45-.31.14-.16.23-.32.31-.54.08-.22.16-.49.21-.81l.55-3.08h.8s.07,0,.08-.07l.09-.5s-.01-.08-.08-.08h-.77s.04-.29.13-.55c.04-.11.11-.2.17-.26.06-.06.13-.1.2-.13.08-.03.17-.04.26-.04.07,0,.14,0,.2.02.07.02.1.02.12.03.08.02.09,0,.1-.04l.18-.51c.02-.05-.03-.08-.04-.08M266.88,27.45s-.03.07-.07.07h-.64s-.07-.03-.07-.07v-5.16s.03-.07.07-.07h.64s.07.03.07.07v5.16"/>
  </g>
  <g>
    <path class="cls-15" d="M190.08,23.79c.59,0,1.18,0,1.77,0,1.09,0,2.16.73,2.56,1.77.43,1.13.26,2.18-.56,3.09-.59.65-1.33.92-2.2.92-1.08,0-2.15,0-3.23,0-1.28,0-2.38-.77-2.78-1.95-.41-1.2-.01-2.5,1.01-3.27.48-.36,1.03-.56,1.64-.56.6,0,1.2,0,1.8,0ZM190.06,28.51h0c.51.01,1.02.01,1.53.01,1.1,0,1.93-.79,1.95-1.84.02-.99-.81-1.85-1.86-1.87-1.08-.02-2.15-.02-3.23,0-1.03.02-1.79.77-1.86,1.77-.06.94.64,1.82,1.6,1.93.61.07,1.24.01,1.86.01Z"/>
    <path class="cls-15" d="M230.26,23.79c-.23.37-.44.69-.64,1.01-1.07,0-2.13,0-3.18,0-.91,0-1.63.51-1.85,1.33h5.35c-.19.4-.42.71-.63,1.04h-4.7c.11.73.88,1.34,1.69,1.35,1.23,0,2.47,0,3.7,0h.38c-.24.37-.45.7-.66,1.04-1.27-.02-2.53.07-3.78-.04-1.55-.14-2.65-1.51-2.55-3.07.09-1.48,1.37-2.66,2.88-2.66,1.21,0,2.42,0,3.63,0h.37Z"/>
    <path class="cls-15" d="M201.81,29.55c-.58,0-1.08,0-1.57,0-.06,0-.12-.05-.17-.09-1.05-.91-2.1-1.83-3.22-2.8.39,0,.7,0,1.02,0,.69,0,1.38,0,2.07,0,.55,0,.98-.38,1-.9.02-.52-.4-.95-.98-.96-.87-.01-1.73,0-2.6,0-.33,0-.66,0-1.02,0v4.73h-1.1v-5.71c.1-.07.21-.03.32-.03,1.51,0,3.02,0,4.53,0,1.11,0,1.97.86,1.96,1.96,0,1.09-.85,1.93-1.95,1.93-.13,0-.27,0-.51,0,.76.64,1.45,1.23,2.23,1.88Z"/>
    <path class="cls-15" d="M207.81,27.53c-.54-.87-1.03-1.67-1.56-2.52-.97,1.53-1.91,3.03-2.87,4.53h-1.27c-.03-.11.07-.19.12-.27,1.09-1.71,2.18-3.42,3.27-5.13.36-.56,1.08-.59,1.44-.05,1.17,1.79,2.31,3.6,3.49,5.43h-1.32c-.19-.31-.4-.65-.62-.99h-2.99c-.21-.32-.42-.64-.66-1.01h2.96Z"/>
    <path class="cls-15" d="M216.72,23.83c-.2.32-.4.63-.61.97-1.04,0-2.08,0-3.13,0-.62,0-1.16.18-1.56.67-.48.58-.6,1.24-.3,1.92.31.71.88,1.11,1.66,1.12,1.23.02,2.46,0,3.7,0,.11,0,.21,0,.37,0-.24.37-.45.7-.64,1.01-1.29,0-2.55.07-3.8-.02-1.54-.11-2.64-1.48-2.55-3.03.09-1.53,1.34-2.7,2.87-2.7,1.21,0,2.42,0,3.63,0,.11,0,.22-.03.35.05Z"/>
    <path class="cls-15" d="M217.33,23.8h1.13v4.72h5.15c-.17.4-.42.69-.63,1.03h-.77c-1.38,0-2.75,0-4.13,0-.57,0-.74-.17-.74-.73,0-1.66,0-3.33,0-5.02Z"/>
    <path class="cls-15" d="M232.03,24.41c0,.34-.32.65-.67.65-.35,0-.65-.31-.65-.66,0-.37.31-.67.68-.66.36.01.64.31.64.67ZM231.09,24c-.27.22-.31.46-.12.7.17.22.45.26.67.1.23-.17.29-.45.15-.67-.16-.25-.42-.29-.71-.13h0Z"/>
    <path class="cls-15" d="M231.09,24c.18.02.38-.05.53.13.06.19-.16.39.05.58-.24.04-.22-.16-.33-.23-.12.03.01.23-.17.24-.14-.23,0-.5-.07-.74,0,0,0,0,0,0ZM231.32,24.15c-.05.06-.05.12,0,.17.08.01.12-.02.15-.09-.03-.07-.08-.1-.15-.09Z"/>
  </g>
</svg>