<?xml version="1.0" encoding="UTF-8"?>
<svg id="Capa_1" data-name="Capa 1" xmlns="http://www.w3.org/2000/svg" xmlns:xlink="http://www.w3.org/1999/xlink" viewBox="0 0 425.5 53">
  <defs>
    <style>
      .cls-1 {
        letter-spacing: .08em;
      }

      .cls-2 {
        letter-spacing: .04em;
      }

      .cls-3 {
        fill: url(#Degradado_sin_nombre_16);
      }

      .cls-4 {
        font-family: BebasNeue-Book, 'Bebas Neue';
      }

      .cls-5 {
        letter-spacing: .08em;
      }

      .cls-5, .cls-6, .cls-7, .cls-8, .cls-9 {
        font-family: BebasNeueBold, 'Bebas Neue';
      }

      .cls-5, .cls-7 {
        font-size: 13.49px;
      }

      .cls-10 {
        stroke: #212121;
        stroke-linecap: square;
        stroke-miterlimit: 10;
        stroke-width: 2px;
      }

      .cls-10, .cls-11 {
        fill: none;
      }

      .cls-12 {
        letter-spacing: .08em;
      }

      .cls-6, .cls-9 {
        font-size: 8px;
      }

      .cls-13 {
        fill: url(#Degradado_sin_nombre_2);
        opacity: .05;
      }

      .cls-7 {
        letter-spacing: .08em;
      }

      .cls-14 {
        letter-spacing: -.04em;
      }

      .cls-15 {
        fill: #fff;
        font-size: 16px;
      }

      .cls-16 {
        letter-spacing: .05em;
      }

      .cls-17 {
        letter-spacing: 0em;
      }

      .cls-18 {
        letter-spacing: .08em;
      }

      .cls-9 {
        letter-spacing: .12em;
      }
    </style>
    <linearGradient id="Degradado_sin_nombre_2" data-name="Degradado sin nombre 2" x1="61.29" y1="-279.64" x2="295.62" y2="72.23" gradientUnits="userSpaceOnUse">
      <stop offset="0" stop-color="#fff"/>
      <stop offset="1" stop-color="#000"/>
    </linearGradient>
    <linearGradient id="Degradado_sin_nombre_16" data-name="Degradado sin nombre 16" x1="-28.93" y1="-282.03" x2="61.44" y2="65.77" gradientUnits="userSpaceOnUse">
      <stop offset="0" stop-color="#00aeef"/>
      <stop offset=".36" stop-color="#049ddf"/>
      <stop offset="1" stop-color="#0f75bc"/>
    </linearGradient>
    <clipPath id="clippath">
      <rect class="cls-11" x="553.83" y="-991.66" width="960.22" height="540.01"/>
    </clipPath>
  </defs>
  <rect class="cls-13" x="104.97" y="-.05" width="320.36" height="53.05"/>
  <rect class="cls-3" x="-.49" y="-.05" width="103.44" height="53.05"/>
  <text class="cls-15" transform="translate(8.92 24.17)"><tspan class="cls-8"><tspan x="0" y="0">Transform</tspan><tspan class="cls-17" x="58.38" y="0">a</tspan><tspan x="64.88" y="0">ción</tspan></tspan><tspan class="cls-4"><tspan x="0" y="15.05">Digi</tspan><tspan class="cls-14" x="16.21" y="15.05">t</tspan><tspan x="21.42" y="15.05">al</tspan></tspan></text>
  <g>
    <path d="M296.65,19.97h-9.38c-.19-.79-.9-1.37-1.75-1.37-1,0-1.8.81-1.8,1.8s.81,1.8,1.8,1.8c.85,0,1.55-.58,1.75-1.37h9.38c.24,0,.44-.19.44-.44s-.19-.44-.44-.44Z"/>
    <path d="M296.65,17.53h-3.57l-2.48-2.48c-.08-.08-.19-.13-.31-.13h-1.43c-.19-.79-.9-1.37-1.75-1.37-1,0-1.8.81-1.8,1.8s.81,1.8,1.8,1.8c.85,0,1.55-.58,1.75-1.37h1.25l2.48,2.48c.08.08.19.13.31.13h3.75c.24,0,.44-.19.44-.44s-.19-.44-.44-.44Z"/>
    <path d="M296.65,14.93h-.94l-2.67-2.67c.16-.27.26-.59.26-.93,0-1-.81-1.8-1.8-1.8s-1.8.81-1.8,1.8.81,1.8,1.8,1.8c.34,0,.66-.1.93-.26l2.8,2.8c.08.08.19.13.31.13h1.12c.24,0,.44-.19.44-.44s-.19-.44-.44-.44Z"/>
    <path d="M296.65,22.44h-3.75c-.12,0-.23.05-.31.13l-2.48,2.48h-1.25c-.19-.79-.9-1.37-1.75-1.37-1,0-1.8.81-1.8,1.8s.81,1.8,1.8,1.8c.85,0,1.55-.58,1.75-1.37h1.43c.12,0,.23-.05.31-.13l2.48-2.48h3.57c.24,0,.44-.19.44-.44s-.19-.44-.44-.44Z"/>
    <path d="M296.65,25.04h-1.12c-.12,0-.23.05-.31.13l-2.8,2.8c-.27-.16-.59-.26-.93-.26-1,0-1.8.81-1.8,1.8s.81,1.8,1.8,1.8,1.8-.81,1.8-1.8c0-.34-.1-.66-.26-.93l2.67-2.67h.94c.24,0,.44-.19.44-.44s-.19-.44-.44-.44Z"/>
    <path d="M298.23,20.87h9.38c.19.79.9,1.37,1.75,1.37,1,0,1.8-.81,1.8-1.8s-.81-1.8-1.8-1.8c-.85,0-1.55.58-1.75,1.37h-9.38c-.24,0-.44.19-.44.44s.19.44.44.44Z"/>
    <path d="M298.23,23.31h3.57l2.48,2.48c.08.08.19.13.31.13h1.43c.19.79.9,1.37,1.75,1.37,1,0,1.8-.81,1.8-1.8s-.81-1.8-1.8-1.8c-.85,0-1.55.58-1.75,1.37h-1.25l-2.48-2.48c-.08-.08-.19-.13-.31-.13h-3.75c-.24,0-.44.19-.44.44s.19.44.44.44Z"/>
    <path d="M298.23,25.91h.94l2.67,2.67c-.16.27-.26.59-.26.93,0,1,.81,1.8,1.8,1.8s1.8-.81,1.8-1.8-.81-1.8-1.8-1.8c-.34,0-.66.1-.93.26l-2.8-2.8c-.08-.08-.19-.13-.31-.13h-1.12c-.24,0-.44.19-.44.44s.19.44.44.44Z"/>
    <path d="M298.23,18.4h3.75c.12,0,.23-.05.31-.13l2.48-2.48h1.25c.19.79.9,1.37,1.75,1.37,1,0,1.8-.81,1.8-1.8s-.81-1.8-1.8-1.8c-.85,0-1.55.58-1.75,1.37h-1.43c-.12,0-.23.05-.31.13l-2.48,2.48h-3.57c-.24,0-.44.19-.44.44s.19.44.44.44Z"/>
    <path d="M298.23,15.8h1.12c.12,0,.23-.05.31-.13l2.8-2.8c.27.16.59.26.93.26,1,0,1.8-.81,1.8-1.8s-.81-1.8-1.8-1.8-1.8.81-1.8,1.8c0,.34.1.66.26.93l-2.67,2.67h-.94c-.24,0-.44.19-.44.44s.19.44.44.44Z"/>
  </g>
  <g>
    <path d="M380.95,11.74c-.03.08-.06.15-.08.23-.34,1.15-1.61,1.72-2.69,1.19-.13-.06-.22-.07-.35,0-1.05.63-2.1,1.25-3.15,1.88-.11.06-.15.13-.15.27-.01.95-.71,1.74-1.63,1.88-.94.14-1.81-.4-2.12-1.3-.04-.1-.14-.21-.23-.26-.95-.48-1.91-.95-2.86-1.43-.11-.06-.18-.07-.3.02-.59.47-1.25.55-1.95.26-.12-.05-.2-.04-.3.03-1.13.85-2.27,1.7-3.41,2.55-.12.09-.13.16-.09.3.19.8-.02,1.48-.66,1.99-.63.5-1.35.57-2.07.2-.73-.38-1.08-1.01-1.03-1.83.07-1.33,1.48-2.17,2.69-1.62.14.06.23.06.36-.03,1.11-.84,2.22-1.67,3.34-2.49.13-.09.14-.17.1-.32-.31-1.05.3-2.13,1.35-2.41,1.05-.28,2.11.37,2.36,1.44.04.17.02.36.04.54,0,.06.03.15.08.18.9.46,1.81.9,2.73,1.36.33-.56.8-.9,1.44-.99.63-.08,1.17.12,1.64.58,1.06-.63,2.12-1.26,3.13-1.86,0-.37-.05-.71,0-1.03.17-.91.94-1.53,1.85-1.54.91-.01,1.69.59,1.9,1.49.01.05.03.1.05.15v.59ZM379.67,11.44c0-.35-.29-.65-.64-.65-.35,0-.64.3-.64.65,0,.34.29.63.63.63.35,0,.65-.28.65-.63ZM360.43,17.86c0-.35-.29-.65-.64-.65-.34,0-.63.27-.64.62-.01.35.27.65.62.66.34.01.65-.28.66-.63ZM373.25,15.29c0-.36-.27-.64-.63-.65-.35,0-.63.27-.64.62,0,.35.27.65.62.66.35,0,.64-.28.65-.63ZM366.21,12.09c-.36,0-.63.26-.64.62,0,.36.27.65.63.66.35,0,.65-.29.64-.64,0-.35-.28-.63-.63-.63Z"/>
    <path d="M380.95,30.86c-.18.36-.46.48-.86.46-.74-.02-1.49,0-2.23,0-.52,0-.75-.23-.75-.76,0-4.2,0-8.4,0-12.6,0-.51.24-.75.74-.75.75,0,1.5,0,2.25,0,.39,0,.69.11.84.49v13.17ZM378.4,18.51v11.51h1.25v-11.51h-1.25Z"/>
    <path d="M364.28,24.89c0-1.86,0-3.73,0-5.59,0-.58.23-.8.8-.8.72,0,1.44.02,2.16,0,.72-.03.89.34.89.88-.01,3.06,0,6.12,0,9.17,0,.66,0,1.32,0,1.98,0,.55-.23.78-.78.78-.76,0-1.52,0-2.28,0-.57,0-.8-.23-.8-.81,0-1.87,0-3.74,0-5.61ZM366.83,30.03v-10.24h-1.25v10.24h1.25Z"/>
    <path d="M370.69,26.19c0-1.43,0-2.87,0-4.3,0-.61.21-.83.82-.83.76,0,1.52,0,2.28,0,.51,0,.75.24.75.76,0,2.91,0,5.81,0,8.72,0,.53-.24.77-.77.77-.77,0-1.53,0-2.3,0-.56,0-.79-.23-.79-.8,0-1.44,0-2.88,0-4.32ZM372,22.35v7.67h1.24v-7.67h-1.24Z"/>
    <path d="M361.71,27.47c0,1.02,0,2.04,0,3.06,0,.55-.22.78-.78.78-.78,0-1.56,0-2.34,0-.47,0-.72-.25-.72-.72,0-2.08,0-4.16,0-6.24,0-.46.24-.72.7-.72.81,0,1.62,0,2.43,0,.47,0,.7.25.71.72,0,1.04,0,2.09,0,3.13ZM360.42,30.03v-5.12h-1.25v5.12h1.25Z"/>
  </g>
  <text class="cls-5" transform="translate(292.52 44.25)"><tspan x="0" y="0">IA</tspan></text>
  <text class="cls-7" transform="translate(138.35 44.25)"><tspan x="0" y="0">Cloud</tspan></text>
  <text class="cls-6" transform="translate(339.58 40.01)"><tspan class="cls-18" x="0" y="0">Analítica de </tspan><tspan class="cls-1" x="41.88" y="0">d</tspan><tspan class="cls-2" x="45.78" y="0">a</tspan><tspan class="cls-12" x="49.37" y="0">tos</tspan><tspan class="cls-16" x="14.85" y="8.23">av</tspan><tspan class="cls-18" x="22.2" y="8.23">anza</tspan><tspan class="cls-1" x="37.65" y="8.23">d</tspan><tspan class="cls-18" x="41.55" y="8.23">a</tspan></text>
  <text class="cls-9" transform="translate(193.25 40.01)"><tspan x="0" y="0">Internet of things</tspan></text>
  <path class="cls-10" d="M160.5,27.92c2.2,0,4-1.8,4-4s-1.8-4-4-4h0c-.3-3.9-3.5-7-7.5-7s-7.3,3.2-7.5,7.1c-1.7.4-3,2-3,3.9,0,2.2,1.8,4,4,4h14Z"/>
  <image width="512" height="512" transform="translate(213.06 6.49) scale(.05)" xlink:href="../../../Alejandro Mendoza/Valtre/Logos Matriz/Transformación digital/internet-of-things.png"/>
</svg>