<?xml version="1.0" encoding="UTF-8"?>
<svg id="Capa_1" data-name="Capa 1" xmlns="http://www.w3.org/2000/svg" xmlns:xlink="http://www.w3.org/1999/xlink" viewBox="0 0 425.5 53">
  <defs>
    <style>
      .cls-1 {
        fill: url(#Degradado_sin_nombre_16);
      }

      .cls-2 {
        stroke: #212121;
        stroke-linecap: square;
        stroke-miterlimit: 10;
        stroke-width: 2px;
      }

      .cls-2, .cls-3 {
        fill: none;
      }

      .cls-4 {
        fill: #fff;
      }

      .cls-5 {
        fill: url(#Degradado_sin_nombre_2);
        opacity: .05;
      }
    </style>
    <linearGradient id="Degradado_sin_nombre_2" data-name="Degradado sin nombre 2" x1="61.29" y1="-279.64" x2="295.62" y2="72.23" gradientUnits="userSpaceOnUse">
      <stop offset="0" stop-color="#fff"/>
      <stop offset="1" stop-color="#000"/>
    </linearGradient>
    <linearGradient id="Degradado_sin_nombre_16" data-name="Degradado sin nombre 16" x1="-2.17" y1="26.48" x2="103.71" y2="26.48" gradientUnits="userSpaceOnUse">
      <stop offset="0" stop-color="#00aeef"/>
      <stop offset=".36" stop-color="#049ddf"/>
      <stop offset="1" stop-color="#0f75bc"/>
    </linearGradient>
    <clipPath id="clippath">
      <rect class="cls-3" x="553.83" y="-991.66" width="960.22" height="540.01"/>
    </clipPath>
  </defs>
  <rect class="cls-5" x="104.97" y="-.05" width="320.36" height="53.05"/>
  <rect class="cls-1" x="-.49" y="-.05" width="103.44" height="53.05"/>
  <g>
    <path class="cls-4" d="M9.04,12.97h5.44v1.6h-1.84v9.6h-1.76v-9.6h-1.84v-1.6Z"/>
    <path class="cls-4" d="M18.93,24.17c-.1-.29-.16-.46-.16-1.38v-1.76c0-1.04-.35-1.42-1.15-1.42h-.61v4.56h-1.76v-11.21h2.66c1.83,0,2.61.85,2.61,2.58v.88c0,1.15-.37,1.9-1.15,2.27.88.37,1.17,1.22,1.17,2.38v1.73c0,.54.02.94.19,1.36h-1.79ZM17.01,14.57v3.44h.69c.66,0,1.06-.29,1.06-1.18v-1.1c0-.8-.27-1.15-.9-1.15h-.85Z"/>
    <path class="cls-4" d="M27.38,24.17h-1.78l-.3-2.03h-2.16l-.3,2.03h-1.62l1.79-11.21h2.58l1.79,11.21ZM23.37,20.62h1.7l-.85-5.67-.85,5.67Z"/>
    <path class="cls-4" d="M29.76,16.06v8.12h-1.58v-11.21h2.21l1.81,6.71v-6.71h1.57v11.21h-1.81l-2.19-8.12Z"/>
    <path class="cls-4" d="M37.4,12.84c1.71,0,2.59,1.02,2.59,2.82v.35h-1.67v-.46c0-.8-.32-1.1-.88-1.1s-.88.3-.88,1.1c0,2.3,3.44,2.74,3.44,5.94,0,1.79-.9,2.82-2.62,2.82s-2.62-1.02-2.62-2.82v-.69h1.67v.8c0,.8.35,1.09.91,1.09s.91-.29.91-1.09c0-2.3-3.44-2.74-3.44-5.94,0-1.79.88-2.82,2.59-2.82Z"/>
    <path class="cls-4" d="M42.77,17.95h2.27v1.6h-2.27v4.63h-1.76v-11.21h4.66v1.6h-2.9v3.38Z"/>
    <path class="cls-4" d="M46.37,15.66c0-1.79.94-2.82,2.67-2.82s2.67,1.02,2.67,2.82v5.83c0,1.79-.94,2.82-2.67,2.82s-2.67-1.02-2.67-2.82v-5.83ZM48.13,21.6c0,.8.35,1.1.91,1.1s.91-.3.91-1.1v-6.05c0-.8-.35-1.1-.91-1.1s-.91.3-.91,1.1v6.05Z"/>
    <path class="cls-4" d="M56.53,24.17c-.1-.29-.16-.46-.16-1.38v-1.76c0-1.04-.35-1.42-1.15-1.42h-.61v4.56h-1.76v-11.21h2.66c1.83,0,2.61.85,2.61,2.58v.88c0,1.15-.37,1.9-1.15,2.27.88.37,1.17,1.22,1.17,2.38v1.73c0,.54.02.94.19,1.36h-1.79ZM54.61,14.57v3.44h.69c.66,0,1.06-.29,1.06-1.18v-1.1c0-.8-.27-1.15-.9-1.15h-.85Z"/>
    <path class="cls-4" d="M63.01,20.92l1.2-7.96h2.45v11.21h-1.67v-8.04l-1.22,8.04h-1.66l-1.31-7.92v7.92h-1.54v-11.21h2.45l1.3,7.96Z"/>
    <path class="cls-4" d="M73.64,24.17h-1.78l-.3-2.03h-2.16l-.3,2.03h-1.62l1.79-11.21h2.58l1.79,11.21ZM69.62,20.62h1.7l-.85-5.67-.85,5.67Z"/>
    <path class="cls-4" d="M79.54,20v1.49c0,1.79-.9,2.82-2.62,2.82s-2.62-1.02-2.62-2.82v-5.83c0-1.79.9-2.82,2.62-2.82s2.62,1.02,2.62,2.82v1.09h-1.66v-1.2c0-.8-.35-1.1-.91-1.1s-.91.3-.91,1.1v6.05c0,.8.35,1.09.91,1.09s.91-.29.91-1.09v-1.6h1.66Z"/>
    <path class="cls-4" d="M80.61,12.97h1.76v11.21h-1.76v-11.21Z"/>
    <path class="cls-4" d="M83.51,15.66c0-1.79.94-2.82,2.67-2.82s2.67,1.02,2.67,2.82v5.83c0,1.79-.94,2.82-2.67,2.82s-2.67-1.02-2.67-2.82v-5.83ZM88.07,10.6l-1.63,1.78h-1.18l1.09-1.78h1.73ZM85.27,21.6c0,.8.35,1.1.91,1.1s.91-.3.91-1.1v-6.05c0-.8-.35-1.1-.91-1.1s-.91.3-.91,1.1v6.05Z"/>
    <path class="cls-4" d="M91.56,16.06v8.12h-1.58v-11.21h2.21l1.81,6.71v-6.71h1.57v11.21h-1.81l-2.19-8.12Z"/>
    <path class="cls-4" d="M13.88,28.77c.41.5.62,1.18.62,2.04v5.63c0,.86-.21,1.54-.62,2.04-.41.5-1.03.74-1.86.74h-2.46v-11.2h2.46c.83,0,1.45.25,1.86.74ZM13.33,38c.29-.37.43-.88.43-1.53v-5.7c0-.64-.14-1.15-.43-1.52s-.73-.56-1.33-.56h-1.71v9.86h1.71c.6,0,1.04-.18,1.33-.55Z"/>
    <path class="cls-4" d="M16.45,39.22h-.74v-11.2h.74v11.2Z"/>
    <path class="cls-4" d="M21.92,28.7c.39.52.59,1.2.59,2.06v.83h-.7v-.88c0-.64-.14-1.15-.41-1.54-.27-.38-.7-.58-1.29-.58s-1.02.19-1.29.58c-.27.38-.41.9-.41,1.54v5.82c0,.64.14,1.15.41,1.53.27.38.7.57,1.29.57s1.02-.19,1.29-.57c.27-.38.41-.89.41-1.53v-2.42h-1.49v-.67h2.19v3.04c0,.85-.2,1.54-.59,2.06s-1,.78-1.82.78-1.43-.26-1.82-.78-.59-1.2-.59-2.06v-5.73c0-.85.2-1.54.59-2.06s1-.78,1.82-.78,1.43.26,1.82.78Z"/>
    <path class="cls-4" d="M24.48,39.22h-.74v-11.2h.74v11.2Z"/>
    <path class="cls-4" d="M27.65,28.7h-2.27v-.67h5.3v.67h-2.29v10.53h-.74v-10.53Z"/>
    <path class="cls-4" d="M31.49,39.22h-.67l2.45-11.22h1.07l2.5,11.22h-.74l-.56-2.48h-3.49l-.56,2.48ZM35.43,36.1l-1.65-7.25-1.62,7.25h3.26Z"/>
    <path class="cls-4" d="M37.96,28.02h.74v10.53h3.52v.67h-4.26v-11.2Z"/>
  </g>
  <g>
    <g>
      <path d="M296.65,20.13h-9.38c-.19-.79-.9-1.37-1.75-1.37-1,0-1.8.81-1.8,1.8s.81,1.8,1.8,1.8c.85,0,1.55-.58,1.75-1.37h9.38c.24,0,.44-.19.44-.44s-.19-.44-.44-.44Z"/>
      <path d="M296.65,17.69h-3.57l-2.48-2.48c-.08-.08-.19-.13-.31-.13h-1.43c-.19-.79-.9-1.37-1.75-1.37-1,0-1.8.81-1.8,1.8s.81,1.8,1.8,1.8c.85,0,1.55-.58,1.75-1.37h1.25l2.48,2.48c.08.08.19.13.31.13h3.75c.24,0,.44-.19.44-.44s-.19-.44-.44-.44Z"/>
      <path d="M296.65,15.09h-.94l-2.67-2.67c.16-.27.26-.59.26-.93,0-1-.81-1.8-1.8-1.8s-1.8.81-1.8,1.8.81,1.8,1.8,1.8c.34,0,.66-.1.93-.26l2.8,2.8c.08.08.19.13.31.13h1.12c.24,0,.44-.19.44-.44s-.19-.44-.44-.44Z"/>
      <path d="M296.65,22.6h-3.75c-.12,0-.23.05-.31.13l-2.48,2.48h-1.25c-.19-.79-.9-1.37-1.75-1.37-1,0-1.8.81-1.8,1.8s.81,1.8,1.8,1.8c.85,0,1.55-.58,1.75-1.37h1.43c.12,0,.23-.05.31-.13l2.48-2.48h3.57c.24,0,.44-.19.44-.44s-.19-.44-.44-.44Z"/>
      <path d="M296.65,25.2h-1.12c-.12,0-.23.05-.31.13l-2.8,2.8c-.27-.16-.59-.26-.93-.26-1,0-1.8.81-1.8,1.8s.81,1.8,1.8,1.8,1.8-.81,1.8-1.8c0-.34-.1-.66-.26-.93l2.67-2.67h.94c.24,0,.44-.19.44-.44s-.19-.44-.44-.44Z"/>
      <path d="M298.23,21.03h9.38c.19.79.9,1.37,1.75,1.37,1,0,1.8-.81,1.8-1.8s-.81-1.8-1.8-1.8c-.85,0-1.55.58-1.75,1.37h-9.38c-.24,0-.44.19-.44.44s.19.44.44.44Z"/>
      <path d="M298.23,23.47h3.57l2.48,2.48c.08.08.19.13.31.13h1.43c.19.79.9,1.37,1.75,1.37,1,0,1.8-.81,1.8-1.8s-.81-1.8-1.8-1.8c-.85,0-1.55.58-1.75,1.37h-1.25l-2.48-2.48c-.08-.08-.19-.13-.31-.13h-3.75c-.24,0-.44.19-.44.44s.19.44.44.44Z"/>
      <path d="M298.23,26.07h.94l2.67,2.67c-.16.27-.26.59-.26.93,0,1,.81,1.8,1.8,1.8s1.8-.81,1.8-1.8-.81-1.8-1.8-1.8c-.34,0-.66.1-.93.26l-2.8-2.8c-.08-.08-.19-.13-.31-.13h-1.12c-.24,0-.44.19-.44.44s.19.44.44.44Z"/>
      <path d="M298.23,18.56h3.75c.12,0,.23-.05.31-.13l2.48-2.48h1.25c.19.79.9,1.37,1.75,1.37,1,0,1.8-.81,1.8-1.8s-.81-1.8-1.8-1.8c-.85,0-1.55.58-1.75,1.37h-1.43c-.12,0-.23.05-.31.13l-2.48,2.48h-3.57c-.24,0-.44.19-.44.44s.19.44.44.44Z"/>
      <path d="M298.23,15.96h1.12c.12,0,.23-.05.31-.13l2.8-2.8c.27.16.59.26.93.26,1,0,1.8-.81,1.8-1.8s-.81-1.8-1.8-1.8-1.8.81-1.8,1.8c0,.34.1.66.26.93l-2.67,2.67h-.94c-.24,0-.44.19-.44.44s.19.44.44.44Z"/>
    </g>
    <g>
      <path d="M293.06,34.96h1.48v9.44h-1.48v-9.44Z"/>
      <path d="M301.5,44.41h-1.5l-.26-1.71h-1.82l-.26,1.71h-1.36l1.51-9.44h2.17l1.51,9.44ZM298.12,41.41h1.43l-.71-4.77-.71,4.77Z"/>
    </g>
  </g>
  <g>
    <g>
      <path d="M380.95,9.9c-.03.08-.06.15-.08.23-.34,1.15-1.61,1.72-2.69,1.19-.13-.06-.22-.07-.35,0-1.05.63-2.1,1.25-3.15,1.88-.11.06-.15.13-.15.27-.01.95-.71,1.74-1.63,1.88-.94.14-1.81-.4-2.12-1.3-.04-.1-.14-.21-.23-.26-.95-.48-1.91-.95-2.86-1.43-.11-.06-.18-.07-.3.02-.59.47-1.25.55-1.95.26-.12-.05-.2-.04-.3.03-1.13.85-2.27,1.7-3.41,2.55-.12.09-.13.16-.09.3.19.8-.02,1.48-.66,1.99-.63.5-1.35.57-2.07.2-.73-.38-1.08-1.01-1.03-1.83.07-1.33,1.48-2.17,2.69-1.62.14.06.23.06.36-.03,1.11-.84,2.22-1.67,3.34-2.49.13-.09.14-.17.1-.32-.31-1.05.3-2.13,1.35-2.41,1.05-.28,2.11.37,2.36,1.44.04.17.02.36.04.54,0,.06.03.15.08.18.9.46,1.81.9,2.73,1.36.33-.56.8-.9,1.44-.99.63-.08,1.17.12,1.64.58,1.06-.63,2.12-1.26,3.13-1.86,0-.37-.05-.71,0-1.03.17-.91.94-1.53,1.85-1.54.91-.01,1.69.59,1.9,1.49.01.05.03.1.05.15v.59ZM379.67,9.6c0-.35-.29-.65-.64-.65-.35,0-.64.3-.64.65,0,.34.29.63.63.63.35,0,.65-.28.65-.63ZM360.43,16.02c0-.35-.29-.65-.64-.65-.34,0-.63.27-.64.62-.01.35.27.65.62.66.34.01.65-.28.66-.63ZM373.25,13.45c0-.36-.27-.64-.63-.65-.35,0-.63.27-.64.62,0,.35.27.65.62.66.35,0,.64-.28.65-.63ZM366.21,10.25c-.36,0-.63.26-.64.62,0,.36.27.65.63.66.35,0,.65-.29.64-.64,0-.35-.28-.63-.63-.63Z"/>
      <path d="M380.95,29.02c-.18.36-.46.48-.86.46-.74-.02-1.49,0-2.23,0-.52,0-.75-.23-.75-.76,0-4.2,0-8.4,0-12.6,0-.51.24-.75.74-.75.75,0,1.5,0,2.25,0,.39,0,.69.11.84.49v13.17ZM378.4,16.67v11.51h1.25v-11.51h-1.25Z"/>
      <path d="M364.28,23.05c0-1.86,0-3.73,0-5.59,0-.58.23-.8.8-.8.72,0,1.44.02,2.16,0,.72-.03.89.34.89.88-.01,3.06,0,6.12,0,9.17,0,.66,0,1.32,0,1.98,0,.55-.23.78-.78.78-.76,0-1.52,0-2.28,0-.57,0-.8-.23-.8-.81,0-1.87,0-3.74,0-5.61ZM366.83,28.19v-10.24h-1.25v10.24h1.25Z"/>
      <path d="M370.69,24.35c0-1.43,0-2.87,0-4.3,0-.61.21-.83.82-.83.76,0,1.52,0,2.28,0,.51,0,.75.24.75.76,0,2.91,0,5.81,0,8.72,0,.53-.24.77-.77.77-.77,0-1.53,0-2.3,0-.56,0-.79-.23-.79-.8,0-1.44,0-2.88,0-4.32ZM372,20.51v7.67h1.24v-7.67h-1.24Z"/>
      <path d="M361.71,25.63c0,1.02,0,2.04,0,3.06,0,.55-.22.78-.78.78-.78,0-1.56,0-2.34,0-.47,0-.72-.25-.72-.72,0-2.08,0-4.16,0-6.24,0-.46.24-.72.7-.72.81,0,1.62,0,2.43,0,.47,0,.7.25.71.72,0,1.04,0,2.09,0,3.13ZM360.42,28.19v-5.12h-1.25v5.12h1.25Z"/>
    </g>
    <g>
      <path d="M342.75,38.17h-.89l-.15-1.02h-1.08l-.15,1.02h-.81l.9-5.6h1.29l.9,5.6ZM340.74,36.39h.85l-.42-2.83-.42,2.83Z"/>
      <path d="M344.58,34.11v4.05h-.79v-5.6h1.1l.9,3.35v-3.35h.78v5.6h-.9l-1.1-4.05Z"/>
      <path d="M350.7,38.17h-.89l-.15-1.02h-1.08l-.15,1.02h-.81l.9-5.6h1.29l.9,5.6ZM348.7,36.39h.85l-.42-2.83-.42,2.83Z"/>
      <path d="M351.75,32.57h.88v4.8h1.45v.8h-2.33v-5.6Z"/>
      <path d="M356.49,31.39l-.82.89h-.59l.54-.89h.86ZM355.1,32.57h.88v5.6h-.88v-5.6Z"/>
      <path d="M357.01,32.57h2.72v.8h-.92v4.8h-.88v-4.8h-.92v-.8Z"/>
      <path d="M360.75,32.57h.88v5.6h-.88v-5.6Z"/>
      <path d="M365.46,36.08v.74c0,.9-.45,1.41-1.31,1.41s-1.31-.51-1.31-1.41v-2.91c0-.9.45-1.41,1.31-1.41s1.31.51,1.31,1.41v.54h-.83v-.6c0-.4-.18-.55-.46-.55s-.46.15-.46.55v3.02c0,.4.18.54.46.54s.46-.14.46-.54v-.8h.83Z"/>
      <path d="M369.49,38.17h-.89l-.15-1.02h-1.08l-.15,1.02h-.81l.9-5.6h1.29l.9,5.6ZM367.48,36.39h.85l-.42-2.83-.42,2.83Z"/>
      <path d="M372.42,32.57h1.39c.88,0,1.31.49,1.31,1.38v2.83c0,.9-.43,1.38-1.31,1.38h-1.39v-5.6ZM373.29,33.37v4h.5c.28,0,.45-.14.45-.54v-2.91c0-.4-.17-.54-.45-.54h-.5Z"/>
      <path d="M377.2,34.93h1.21v.8h-1.21v1.64h1.52v.8h-2.4v-5.6h2.4v.8h-1.52v1.56Z"/>
      <path d="M381.78,32.57h1.39c.88,0,1.31.49,1.31,1.38v2.83c0,.9-.43,1.38-1.31,1.38h-1.39v-5.6ZM382.66,33.37v4h.5c.28,0,.45-.14.45-.54v-2.91c0-.4-.17-.54-.45-.54h-.5Z"/>
      <path d="M388.53,38.17h-.89l-.15-1.02h-1.08l-.15,1.02h-.81l.9-5.6h1.29l.9,5.6ZM386.52,36.39h.85l-.42-2.83-.42,2.83Z"/>
      <path d="M389.02,32.57h2.72v.8h-.92v4.8h-.88v-4.8h-.92v-.8Z"/>
      <path d="M392.69,33.91c0-.9.47-1.41,1.33-1.41s1.33.51,1.33,1.41v2.91c0,.9-.47,1.41-1.33,1.41s-1.33-.51-1.33-1.41v-2.91ZM393.57,36.88c0,.4.18.55.46.55s.46-.15.46-.55v-3.02c0-.4-.18-.55-.46-.55s-.46.15-.46.55v3.02Z"/>
      <path d="M397.75,32.51c.86,0,1.3.51,1.3,1.41v.18h-.83v-.23c0-.4-.16-.55-.44-.55s-.44.15-.44.55c0,1.15,1.72,1.37,1.72,2.97,0,.9-.45,1.41-1.31,1.41s-1.31-.51-1.31-1.41v-.34h.83v.4c0,.4.18.54.46.54s.46-.14.46-.54c0-1.15-1.72-1.37-1.72-2.97,0-.9.44-1.41,1.29-1.41Z"/>
      <path d="M357.6,46.4h-.89l-.15-1.02h-1.08l-.15,1.02h-.81l.9-5.6h1.29l.9,5.6ZM355.6,44.63h.85l-.42-2.83-.42,2.83Z"/>
      <path d="M359.78,45.37l.67-4.57h.81l-.86,5.6h-1.31l-.86-5.6h.89l.67,4.57Z"/>
      <path d="M364.96,46.4h-.89l-.15-1.02h-1.08l-.15,1.02h-.81l.9-5.6h1.29l.9,5.6ZM362.95,44.63h.85l-.42-2.83-.42,2.83Z"/>
      <path d="M366.79,42.35v4.05h-.79v-5.6h1.1l.9,3.35v-3.35h.78v5.6h-.9l-1.09-4.05Z"/>
      <path d="M372.5,40.81v.78l-1.67,4.01h1.67v.8h-2.57v-.78l1.67-4.01h-1.59v-.8h2.49Z"/>
      <path d="M376.51,46.4h-.89l-.15-1.02h-1.08l-.15,1.02h-.81l.9-5.6h1.29l.9,5.6ZM374.5,44.63h.85l-.42-2.83-.42,2.83Z"/>
      <path d="M377.56,40.81h1.39c.88,0,1.31.49,1.31,1.38v2.83c0,.9-.43,1.38-1.31,1.38h-1.39v-5.6ZM378.44,41.6v4h.5c.28,0,.45-.14.45-.54v-2.91c0-.4-.17-.54-.45-.54h-.5Z"/>
      <path d="M384.3,46.4h-.89l-.15-1.02h-1.08l-.15,1.02h-.81l.9-5.6h1.29l.9,5.6ZM382.29,44.63h.85l-.42-2.83-.42,2.83Z"/>
    </g>
  </g>
  <g>
    <g>
      <path d="M143.19,39.12v1.25c0,1.51-.75,2.37-2.21,2.37s-2.21-.86-2.21-2.37v-4.91c0-1.51.75-2.37,2.21-2.37s2.21.86,2.21,2.37v.92h-1.4v-1.01c0-.67-.3-.93-.77-.93s-.77.26-.77.93v5.1c0,.67.3.92.77.92s.77-.24.77-.92v-1.35h1.4Z"/>
      <path d="M145.17,33.2h1.48v8.09h2.44v1.35h-3.93v-9.44Z"/>
      <path d="M150.7,35.47c0-1.51.8-2.37,2.25-2.37s2.25.86,2.25,2.37v4.91c0,1.51-.8,2.37-2.25,2.37s-2.25-.86-2.25-2.37v-4.91ZM152.19,40.47c0,.67.3.93.77.93s.77-.26.77-.93v-5.1c0-.67-.3-.93-.77-.93s-.77.26-.77.93v5.1Z"/>
      <path d="M158.66,33.2v7.28c0,.67.3.92.77.92s.77-.24.77-.92v-7.28h1.4v7.19c0,1.51-.76,2.37-2.21,2.37s-2.21-.86-2.21-2.37v-7.19h1.48Z"/>
      <path d="M163.69,33.2h2.35c1.48,0,2.21.82,2.21,2.33v4.77c0,1.51-.73,2.33-2.21,2.33h-2.35v-9.44ZM165.17,34.55v6.74h.84c.47,0,.75-.24.75-.92v-4.91c0-.67-.28-.92-.75-.92h-.84Z"/>
    </g>
    <path class="cls-2" d="M160.5,26.32c2.2,0,4-1.8,4-4s-1.8-4-4-4h0c-.3-3.9-3.5-7-7.5-7s-7.3,3.2-7.5,7.1c-1.7.4-3,2-3,3.9,0,2.2,1.8,4,4,4h14Z"/>
  </g>
  <g>
    <g>
      <path d="M193.57,37.7h.88v5.6h-.88v-5.6Z"/>
      <path d="M196.84,39.24v4.05h-.79v-5.6h1.1l.9,3.35v-3.35h.78v5.6h-.9l-1.1-4.05Z"/>
      <path d="M200.17,37.7h2.72v.8h-.92v4.8h-.88v-4.8h-.92v-.8Z"/>
      <path d="M205.12,40.06h1.21v.8h-1.21v1.64h1.52v.8h-2.4v-5.6h2.4v.8h-1.52v1.56Z"/>
      <path d="M209.98,43.29c-.05-.14-.08-.23-.08-.69v-.88c0-.52-.18-.71-.58-.71h-.3v2.28h-.88v-5.6h1.33c.91,0,1.3.42,1.3,1.29v.44c0,.58-.18.95-.58,1.14.44.18.58.61.58,1.19v.86c0,.27,0,.47.1.68h-.9ZM209.02,38.5v1.72h.34c.33,0,.53-.14.53-.59v-.55c0-.4-.14-.58-.45-.58h-.42Z"/>
      <path d="M213.1,39.24v4.05h-.79v-5.6h1.1l.9,3.35v-3.35h.78v5.6h-.9l-1.1-4.05Z"/>
      <path d="M217.57,40.06h1.21v.8h-1.21v1.64h1.52v.8h-2.4v-5.6h2.4v.8h-1.52v1.56Z"/>
      <path d="M220.34,37.7h2.72v.8h-.92v4.8h-.88v-4.8h-.92v-.8Z"/>
      <path d="M226.53,39.04c0-.9.47-1.41,1.33-1.41s1.33.51,1.33,1.41v2.91c0,.9-.47,1.41-1.33,1.41s-1.33-.51-1.33-1.41v-2.91ZM227.41,42.01c0,.4.18.55.46.55s.46-.15.46-.55v-3.02c0-.4-.18-.55-.46-.55s-.46.15-.46.55v3.02Z"/>
      <path d="M231.61,40.18h1.14v.8h-1.14v2.31h-.88v-5.6h2.33v.8h-1.45v1.69Z"/>
      <path d="M236.39,37.7h2.72v.8h-.92v4.8h-.88v-4.8h-.92v-.8Z"/>
      <path d="M241.33,43.29h-.88v-5.6h.88v2.4h1v-2.4h.9v5.6h-.9v-2.4h-1v2.4Z"/>
      <path d="M244.83,37.7h.88v5.6h-.88v-5.6Z"/>
      <path d="M248.09,39.24v4.05h-.79v-5.6h1.1l.9,3.35v-3.35h.78v5.6h-.9l-1.1-4.05Z"/>
      <path d="M253,40.18h1.23v1.77c0,.9-.45,1.41-1.31,1.41s-1.31-.51-1.31-1.41v-2.91c0-.9.45-1.41,1.31-1.41s1.31.51,1.31,1.41v.54h-.83v-.6c0-.4-.18-.55-.46-.55s-.46.15-.46.55v3.02c0,.4.18.54.46.54s.46-.14.46-.54v-1.03h-.4v-.8Z"/>
      <path d="M256.95,37.63c.86,0,1.3.51,1.3,1.41v.18h-.83v-.23c0-.4-.16-.55-.44-.55s-.44.15-.44.55c0,1.15,1.72,1.37,1.72,2.97,0,.9-.45,1.41-1.31,1.41s-1.31-.51-1.31-1.41v-.34h.83v.4c0,.4.18.54.46.54s.46-.14.46-.54c0-1.15-1.72-1.37-1.72-2.97,0-.9.44-1.41,1.29-1.41Z"/>
    </g>
    <g>
      <path d="M225.93,19.53v1.79c-1.65.57-.71,3.02.91,2.41,1.11-.42,1.09-2.06-.04-2.41v-1.85c.38.05.78.29,1.06.54.11.1.1.25.24.22l1.41-3.23s.17-.13.19-.13h1.87v.87h-1.47l-1.57,3.67c-.11.88.6.59,1.19.81,1.29.47,1.79,1.99,1.1,3.16-.48.81-1.37,1.13-2.29,1.05v-.79s-.12-.29-.15-.34c-.21-.39-.58-.58-1.01-.62-1.27-.1-2.67.06-3.95.02-.35.03-.96.6-.96.94v.79c-.61.04-1.15-.04-1.66-.38-.21-.14-.44-.47-.65-.49-.53-.07-1.23.05-1.79.01l-.78,1.07-.67-.46c-.02-.09.86-1.39.98-1.45.31-.13,1.91.03,2-.04-.24-1.14.39-2.09,1.44-2.5.18-.07.38-.04.55-.16.18-.13.21-.44.34-.64.27-.43.78-.67,1.29-.61.4.05.53.36.9-.09.07-.08.33-.5.3-.57-.02-.04-.1-.1-.14-.14-.82-.79-1.86-1.46-2.69-2.25h-3.34v-.87h3.61l3.27,2.71c.17.12.32-.07.51-.05ZM222.46,22.95h-.87v.87h.87v-.87ZM224.2,22.95h-.87v.87h.87v-.87ZM229.41,22.95h-.87v.87h.87v-.87Z"/>
      <path d="M227.67,27.3v5.21h-4.35v-5.21h4.35ZM225.16,28.18c-.5.06-1.08.33-1.43.69-.05.06,0,.09.03.14.11.16.38.34.52.51.73-.64,1.71-.64,2.45,0l.57-.57c-.44-.62-1.4-.85-2.13-.76ZM225.27,29.48c-.22.03-.49.17-.64.35-.01.06.53.6.57.6.04,0,.16-.09.27-.1.14,0,.31.11.35.09.04-.02.6-.51.6-.55-.29-.33-.73-.46-1.15-.39ZM225.32,30.78c-.35.1-.35.74,0,.85.82.25.82-1.09,0-.85Z"/>
      <path d="M237.67,30.01h-.65c-.02.89-1.28.87-1.31,0h-1.7c-.03.61-.8.9-1.19.43-.12-.14-.12-.38-.15-.42s-.54-.24-.61-.39c-.05-.1-.04-.6-.03-.74.02-.18.49-.98.65-1.03l2.86-.02c.41.03.6.73.9.89.19.1,1.25.19,1.25.44v.84Z"/>
      <path d="M237.67,18.17h-5.21v-1.87c0-.18.3-.29.46-.3,1.38-.13,2.95.1,4.35,0,.13-.03.41.2.41.3v1.87Z"/>
      <path d="M217.68,14.69v4.35h-4.35v-4.35h4.35ZM215.22,15.14c-2.12.31-1.83,3.66.47,3.46s1.93-3.8-.47-3.46Z"/>
      <path d="M228.98,12.96h-.87v-1c0-.18-.3-.29-.46-.3-1.38-.13-2.95.1-4.35,0-.13-.03-.41.2-.41.3v1h-.87v-1.82c0-.18.34-.34.51-.36,1.9-.17,4.05.14,5.98,0,.14-.04.46.25.46.35v1.82Z"/>
      <path d="M218.11,28.6v3.04h-.87v-1.87c0-.18-.3-.29-.46-.3-.39-.03-1.43-.05-1.79,0-.12.02-.36.18-.36.3v1.87h-.87v-3.04h4.35Z"/>
      <path d="M224.2,13.82v1.93l2.44,1.63s.17.18.17.21v1.22h-.87v-.84l-2.44-1.63s-.17-.18-.17-.21v-2.31h.87Z"/>
      <rect x="213.33" y="19.91" width="4.35" height=".87"/>
      <path d="M227.67,26.43h-4.35c.02-.43-.15-.82.4-.87,1.16-.11,2.5.08,3.68.01.37.09.23.58.26.86Z"/>
      <path d="M227.67,33.38c-.02.43.15.82-.4.87-1.16.11-2.5-.08-3.68-.01-.37-.09-.23-.58-.26-.86h4.35Z"/>
      <path d="M237.67,18.82c.01.39.04.61-.4.65-1.43.13-3.06-.1-4.51,0-.35-.05-.31-.36-.3-.65h5.21Z"/>
      <path d="M234.13,24.7c.75-.08,1.64.18,2.13.77l-.58.57c-.75-.64-1.73-.65-2.48,0-.04,0-.49-.45-.53-.51s-.07-.06-.03-.14c.16-.31,1.14-.65,1.49-.69Z"/>
      <rect x="223.76" y="12.52" width="3.48" height=".43"/>
      <path d="M226.37,13.82c0,.5-.42.83-.43,1.3h-.87c-.05-.51.28-.86.43-1.3h.87Z"/>
      <path d="M228.11,13.82c.01.49-.42.84-.43,1.3h-.87c-.03-.49.29-.86.43-1.3h.87Z"/>
      <path d="M234.18,26.01c.39-.07.93.05,1.15.39l-.58.57c-.23-.22-.55.02-.64,0-.05-.01-.59-.55-.58-.61.13-.15.44-.31.63-.35Z"/>
      <rect x="215.51" y="30.34" width=".87" height="1.3"/>
      <polygon points="214.58 27.73 215.96 26.92 217.3 27.73 214.58 27.73"/>
      <path d="M235.77,20.78h-1.41l.13-.65c.07-.1.94-.05,1.12-.03l.16.68Z"/>
      <path d="M226.25,22.09c.64-.14.75.74.25.85-.64.14-.75-.74-.25-.85Z"/>
      <path d="M215.33,16.01c1.22-.2,1.4,1.54.35,1.71-1.22.2-1.4-1.54-.35-1.71Z"/>
    </g>
  </g>
</svg>