<?xml version="1.0" encoding="UTF-8"?>
<svg id="Capa_1" data-name="Capa 1" xmlns="http://www.w3.org/2000/svg" xmlns:xlink="http://www.w3.org/1999/xlink" viewBox="0 0 425.5 62">
  <defs>
    <style>
      .cls-1 {
        fill: #fff;
        font-family: BebasNeueBold, 'Bebas Neue';
        font-size: 21px;
      }

      .cls-2 {
        fill: url(#Degradado_sin_nombre_16);
      }

      .cls-3 {
        letter-spacing: 0em;
      }

      .cls-4 {
        fill: none;
      }

      .cls-5 {
        fill: #00b188;
      }

      .cls-6 {
        fill: url(#Degradado_sin_nombre_2);
        opacity: .05;
      }

      .cls-7 {
        letter-spacing: 0em;
      }

      .cls-8 {
        fill: #e51b27;
      }

      .cls-9 {
        fill: #040404;
      }
    </style>
    <linearGradient id="Degradado_sin_nombre_16" data-name="Degradado sin nombre 16" x1="24.49" y1="-71.37" x2="115.1" y2="277.37" gradientUnits="userSpaceOnUse">
      <stop offset="0" stop-color="#00aeef"/>
      <stop offset=".36" stop-color="#049ddf"/>
      <stop offset="1" stop-color="#0f75bc"/>
    </linearGradient>
    <linearGradient id="Degradado_sin_nombre_2" data-name="Degradado sin nombre 2" x1="211.13" y1="-44.07" x2="450.96" y2="289.88" gradientUnits="userSpaceOnUse">
      <stop offset="0" stop-color="#fff"/>
      <stop offset="1" stop-color="#000"/>
    </linearGradient>
    <clipPath id="clippath">
      <rect class="cls-4" x="123.83" y="-655.66" width="960.22" height="540.01"/>
    </clipPath>
  </defs>
  <rect class="cls-2" x="-.66" y="-.18" width="103.44" height="62.18"/>
  <rect class="cls-6" x="104.8" y="-.18" width="320.36" height="62.18"/>
  <text class="cls-1" transform="translate(8.32 37.15)"><tspan x="0" y="0">Se</tspan><tspan class="cls-7" x="15.58" y="0">r</tspan><tspan class="cls-3" x="23.98" y="0">vicio Qa</tspan></text>
  <image width="1120" height="446" transform="translate(296.25 17.37) scale(.06)" xlink:href="../../../Alejandro Mendoza/Valtre/Logos Matriz/Servicio QA/Tricentis-Logo-1-1120x446.png"/>
  <image width="2406" height="326" transform="translate(241.55 27.01) scale(.02)" xlink:href="../../../Alejandro Mendoza/Valtre/Logos Matriz/Servicio QA/15946574235336365823263873549818.jpg"/>
  <g>
    <rect x="187.39" y="37.76" width="7.99" height="1.14"/>
    <rect x="187.39" y="35.58" width="7.99" height="1.14"/>
    <rect x="189.67" y="33.4" width="3.42" height="1.14"/>
    <rect x="189.67" y="31.22" width="3.42" height="1.14"/>
    <rect x="189.67" y="29.04" width="3.42" height="1.14"/>
    <rect x="189.67" y="26.87" width="3.42" height="1.14"/>
    <rect x="187.39" y="24.69" width="7.99" height="1.14"/>
    <rect x="187.39" y="22.51" width="7.99" height="1.14"/>
    <path d="M196.52,36.72h12.17c.21-.36.36-.74.46-1.14h-12.63v1.14Z"/>
    <path d="M207.73,31.22h-8.94v1.14h9.89c-.25-.43-.57-.82-.95-1.14Z"/>
    <path d="M198.8,29.04v1.14h8.94c.38-.32.7-.71.95-1.14h-9.89Z"/>
    <path d="M208.69,24.69h-12.17v1.14h12.63c-.1-.4-.25-.78-.46-1.14Z"/>
    <path d="M204.92,22.51h-8.4v1.14h11.34c-.8-.74-1.85-1.14-2.94-1.14Z"/>
    <rect x="198.8" y="26.87" width="3.42" height="1.14"/>
    <path d="M205.43,28.01h3.68c.1-.37.15-.76.15-1.14h-3.84v1.14Z"/>
    <rect x="198.8" y="33.4" width="3.42" height="1.14"/>
    <path d="M205.43,33.4v1.14h3.84c0-.39-.05-.77-.15-1.14h-3.68Z"/>
    <path d="M196.52,38.89h8.4c1.09.01,2.14-.39,2.94-1.13h-11.34v1.13Z"/>
    <polygon points="219.33 38.9 219.73 37.76 218.93 37.76 219.33 38.9"/>
    <polygon points="218.57 36.72 220.09 36.72 220.49 35.58 218.17 35.58 218.57 36.72"/>
    <polygon points="217.81 34.54 220.86 34.54 221.26 33.4 217.41 33.4 217.81 34.54"/>
    <polygon points="217.04 32.36 221.62 32.36 222.02 31.22 216.64 31.22 217.04 32.36"/>
    <polygon points="212.49 28.01 218.65 28.01 218.25 26.87 212.49 26.87 212.49 28.01"/>
    <polygon points="220.77 25.83 228.46 25.83 228.46 24.69 221.17 24.69 220.77 25.83"/>
    <polygon points="221.92 22.51 221.53 23.65 228.46 23.65 228.46 22.51 221.92 22.51"/>
    <rect x="210.21" y="37.76" width="5.7" height="1.14"/>
    <rect x="210.21" y="35.58" width="5.7" height="1.14"/>
    <rect x="212.49" y="33.4" width="3.42" height="1.14"/>
    <rect x="212.49" y="31.22" width="3.42" height="1.14"/>
    <polygon points="226.18 26.87 220.41 26.87 220.01 28.01 226.18 28.01 226.18 26.87"/>
    <polygon points="222.75 30.19 226.18 30.19 226.18 29.04 222.75 29.04 222.75 29.04 219.65 29.04 219.33 29.97 219.01 29.04 215.91 29.04 212.49 29.04 212.49 30.19 215.91 30.19 215.91 29.14 216.28 30.19 222.39 30.19 222.75 29.14 222.75 30.19"/>
    <rect x="222.75" y="31.22" width="3.42" height="1.14"/>
    <rect x="222.75" y="33.4" width="3.42" height="1.14"/>
    <rect x="222.75" y="35.58" width="5.7" height="1.14"/>
    <rect x="222.75" y="37.76" width="5.7" height="1.14"/>
    <polygon points="217.89 25.83 217.5 24.69 210.21 24.69 210.21 25.83 217.89 25.83"/>
    <polygon points="217.14 23.65 216.74 22.51 210.21 22.51 210.21 23.65 217.14 23.65"/>
  </g>
  <g>
    <path class="cls-5" d="M137.02,23.34h-16.71v-3.1h16.71v3.1ZM138.22,19.05h-19.1v5.48h19.1v-5.48Z"/>
    <path class="cls-9" d="M120.31,33.6h-1.19v-5.49h1.19v2.17h2.13v-2.17h1.19v5.49h-1.19v-2.27h-2.13v2.27"/>
    <path class="cls-9" d="M125.46,31.18h1.42c-.03-.4-.19-.68-.66-.68-.35,0-.66.15-.76.68ZM126.36,33.68c-1.21,0-2.04-.76-2.04-2.02s.81-2.06,1.88-2.06c1.17,0,1.75.78,1.75,1.95v.44h-2.49c.14.6.61.76,1.09.76.41,0,.71-.09,1.08-.32h.04v.9c-.32.23-.76.34-1.31.34"/>
    <path class="cls-9" d="M131.06,31.3l-.61,2.3h-1.04l-1.19-3.86v-.04h1.14l.65,2.31.61-2.31h.93l.62,2.31.66-2.31h1.1v.04l-1.19,3.86h-1.04l-.62-2.3"/>
    <path class="cls-9" d="M135.84,33.67c-.95,0-1.33-.38-1.33-1.26v-4.31h1.16v4.23c0,.27.11.37.33.37.08,0,.19-.03.26-.05h.02v.96c-.1.03-.26.07-.44.07"/>
    <path class="cls-9" d="M137.75,31.18h1.42c-.03-.4-.19-.68-.66-.68-.35,0-.66.15-.76.68ZM138.65,33.68c-1.21,0-2.04-.76-2.04-2.02s.81-2.06,1.88-2.06c1.17,0,1.75.78,1.75,1.95v.44h-2.49c.14.6.61.76,1.09.76.41,0,.71-.09,1.08-.32h.04v.9c-.32.23-.76.34-1.31.34"/>
    <path class="cls-9" d="M145.01,29.7h.86v.93h-.86v1.59c0,.34.13.5.48.5.1,0,.22,0,.35-.05h.03v.91c-.15.05-.38.11-.71.11-.94,0-1.31-.43-1.31-1.42v-1.64h-1.48v1.59c0,.34.13.5.48.5.1,0,.22,0,.35-.05h.03v.91c-.15.05-.38.11-.71.11-.94,0-1.31-.43-1.31-1.42v-1.64h-.6v-.93h.6v-1.07h1.16v1.07h1.48v-1.07h1.16v1.07"/>
    <path class="cls-9" d="M149.77,30.79c.61,0,.9-.34.9-.83s-.29-.85-.9-.85h-.75v1.68h.75ZM151.87,29.96c0,1.19-.8,1.84-2.01,1.84h-.85v1.78h-1.19v-5.49h2.04c1.21,0,2.01.65,2.01,1.86"/>
    <path class="cls-9" d="M154.43,32.36v-.33c-.18-.1-.4-.13-.64-.13-.38,0-.61.14-.61.46s.23.47.57.47.57-.17.68-.46ZM154.46,33.21c-.25.31-.63.46-1.04.46-.76,0-1.39-.46-1.39-1.29,0-.76.62-1.27,1.52-1.27.28,0,.57.04.87.13v-.07c0-.42-.24-.61-.86-.61-.4,0-.77.11-1.1.3h-.04v-.93c.3-.18.83-.32,1.34-.32,1.18,0,1.82.56,1.82,1.54v2.45h-1.12v-.39"/>
    <path class="cls-9" d="M156.15,31.64c0-1.25.89-2.04,2.05-2.04.41,0,.8.09,1.09.3v.99h-.04c-.25-.19-.55-.31-.89-.31-.58,0-1.02.4-1.02,1.06s.44,1.05,1.02,1.05c.34,0,.64-.11.89-.31h.04v.99c-.29.21-.68.3-1.09.3-1.16,0-2.05-.78-2.05-2.04"/>
    <path class="cls-9" d="M161.18,31.82v1.77h-1.16v-5.49h1.16v3.12l1.17-1.54h1.32v.04l-1.4,1.77,1.4,2.04v.04h-1.33l-1.16-1.77"/>
    <path class="cls-9" d="M166.26,32.36v-.33c-.18-.1-.4-.13-.64-.13-.38,0-.61.14-.61.46s.23.47.57.47.57-.17.68-.46ZM166.3,33.21c-.25.31-.63.46-1.04.46-.76,0-1.39-.46-1.39-1.29,0-.76.62-1.27,1.52-1.27.28,0,.57.04.87.13v-.07c0-.42-.24-.61-.86-.61-.39,0-.77.11-1.1.3h-.04v-.93c.3-.18.83-.32,1.34-.32,1.18,0,1.82.56,1.82,1.54v2.45h-1.12v-.39"/>
    <path class="cls-9" d="M169.38,30.31c.21-.43.52-.68.95-.68.16,0,.32.04.38.07v1.11h-.04c-.13-.05-.29-.09-.51-.09-.36,0-.64.21-.74.61v2.25h-1.16v-3.9h1.12v.63"/>
    <path class="cls-9" d="M173.77,32.27v-1.25c-.19-.28-.45-.4-.74-.4-.51,0-.85.37-.85,1.04s.34,1.03.85,1.03c.29,0,.54-.12.74-.4ZM173.8,33.19c-.25.32-.63.49-1.16.49-1,0-1.64-.91-1.64-2.04s.64-2.04,1.64-2.04c.51,0,.88.16,1.12.45v-1.94h1.16v5.48h-1.12v-.4"/>
    <path class="cls-9" d="M119.13,35.39h3.39v.67h-2.62v1.68h2.38v.65h-2.38v1.83h2.62v.67h-3.39v-5.48"/>
    <path class="cls-9" d="M125.31,36.93c.87,0,1.35.57,1.35,1.51v2.43h-.73v-2.41c0-.5-.25-.86-.81-.86-.46,0-.84.29-.97.7v2.57h-.73v-3.86h.73v.56c.23-.36.61-.64,1.16-.64"/>
    <path class="cls-9" d="M128.61,36.99h.99v.62h-.99v2.08c0,.44.23.59.64.59.11,0,.24-.02.32-.05h.03v.62c-.11.04-.25.08-.46.08-.9,0-1.26-.41-1.26-1.17v-2.15h-.67v-.62h.67v-1.03h.73v1.03"/>
    <path class="cls-9" d="M130.82,38.57h1.92c-.03-.57-.31-1.01-.9-1.01-.55,0-.91.41-1.02,1.01ZM131.97,40.96c-1.13,0-1.9-.75-1.9-1.97s.72-2.05,1.76-2.05,1.61.76,1.61,1.9v.33h-2.65c.08.78.58,1.16,1.27,1.16.43,0,.74-.1,1.08-.35h.03v.64c-.32.25-.73.34-1.2.34"/>
    <path class="cls-9" d="M135.05,37.6c.17-.41.54-.66.96-.66.17,0,.32.03.38.06v.72h-.03c-.11-.05-.28-.08-.46-.08-.39,0-.73.26-.85.7v2.52h-.73v-3.86h.73v.6"/>
    <path class="cls-9" d="M138.72,40.29c.72,0,1.14-.57,1.14-1.35s-.42-1.35-1.14-1.35c-.39,0-.76.24-.96.61v1.48c.19.38.56.6.96.6ZM138.84,36.93c1.15,0,1.76.94,1.76,2.01s-.61,2.01-1.76,2.01c-.47,0-.88-.25-1.08-.51v1.91h-.73v-5.34h.73v.44c.2-.27.61-.52,1.08-.52"/>
    <path class="cls-9" d="M142.2,37.6c.17-.41.54-.66.96-.66.17,0,.32.03.38.06v.72h-.03c-.11-.05-.28-.08-.46-.08-.39,0-.73.26-.85.7v2.52h-.73v-3.86h.73v.6"/>
    <path class="cls-9" d="M144.59,35.45c.25,0,.46.2.46.46s-.21.46-.46.46-.47-.2-.47-.46.22-.46.47-.46"/>
    <path class="cls-9" d="M144.23,40.87h.73v-3.86h-.73v3.86Z"/>
    <path class="cls-9" d="M147.56,38.6c.55.18,1.17.4,1.17,1.14,0,.79-.65,1.19-1.48,1.19-.51,0-1.02-.12-1.31-.35v-.69h.04c.33.3.81.43,1.26.43.41,0,.78-.16.78-.49s-.31-.42-.91-.62c-.54-.18-1.15-.38-1.15-1.11s.61-1.18,1.4-1.18c.46,0,.86.1,1.18.32v.7h-.03c-.32-.25-.68-.4-1.14-.4s-.71.2-.71.47c0,.31.28.39.9.6"/>
    <path class="cls-9" d="M150.1,38.57h1.92c-.03-.57-.31-1.01-.9-1.01-.55,0-.91.41-1.02,1.01ZM151.25,40.96c-1.13,0-1.9-.75-1.9-1.97s.72-2.05,1.76-2.05,1.61.76,1.61,1.9v.33h-2.65c.08.78.58,1.16,1.27,1.16.43,0,.74-.1,1.08-.35h.03v.64c-.32.25-.73.34-1.2.34"/>
  </g>
  <g>
    <path class="cls-8" d="M371.32,27.85c.59,0,1.18,0,1.77,0,1.09,0,2.16.73,2.56,1.77.43,1.13.26,2.18-.56,3.09-.59.65-1.33.92-2.2.92-1.08,0-2.15,0-3.23,0-1.28,0-2.38-.77-2.78-1.95-.41-1.2-.01-2.5,1.01-3.27.48-.36,1.03-.56,1.64-.56.6,0,1.2,0,1.8,0ZM371.3,32.57h0c.51.01,1.02.01,1.53.01,1.1,0,1.93-.79,1.95-1.84.02-.99-.81-1.85-1.86-1.87-1.08-.02-2.15-.02-3.23,0-1.03.02-1.79.77-1.86,1.77-.06.94.64,1.82,1.6,1.93.61.07,1.24.01,1.86.01Z"/>
    <path class="cls-8" d="M411.5,27.85c-.23.37-.44.69-.64,1.01-1.07,0-2.13,0-3.18,0-.91,0-1.63.51-1.85,1.33h5.35c-.19.4-.42.71-.63,1.04h-4.7c.11.73.88,1.34,1.69,1.35,1.23,0,2.47,0,3.7,0h.38c-.24.37-.45.7-.66,1.04-1.27-.02-2.53.07-3.78-.04-1.55-.14-2.65-1.51-2.55-3.07.09-1.48,1.37-2.66,2.88-2.66,1.21,0,2.42,0,3.63,0h.37Z"/>
    <path class="cls-8" d="M383.05,33.61c-.58,0-1.08,0-1.57,0-.06,0-.12-.05-.17-.09-1.05-.91-2.1-1.83-3.22-2.8.39,0,.7,0,1.02,0,.69,0,1.38,0,2.07,0,.55,0,.98-.38,1-.9.02-.52-.4-.95-.98-.96-.87-.01-1.73,0-2.6,0-.33,0-.66,0-1.02,0v4.73h-1.1v-5.71c.1-.07.21-.03.32-.03,1.51,0,3.02,0,4.53,0,1.11,0,1.97.86,1.96,1.96,0,1.09-.85,1.93-1.95,1.93-.13,0-.27,0-.51,0,.76.64,1.45,1.23,2.23,1.88Z"/>
    <path class="cls-8" d="M389.05,31.59c-.54-.87-1.03-1.67-1.56-2.52-.97,1.53-1.91,3.03-2.87,4.53h-1.27c-.03-.11.07-.19.12-.27,1.09-1.71,2.18-3.42,3.27-5.13.36-.56,1.08-.59,1.44-.05,1.17,1.79,2.31,3.6,3.49,5.43h-1.32c-.19-.31-.4-.65-.62-.99h-2.99c-.21-.32-.42-.64-.66-1.01h2.96Z"/>
    <path class="cls-8" d="M397.96,27.89c-.2.32-.4.63-.61.97-1.04,0-2.08,0-3.13,0-.62,0-1.16.18-1.56.67-.48.58-.6,1.24-.3,1.92.31.71.88,1.11,1.66,1.12,1.23.02,2.46,0,3.7,0,.11,0,.21,0,.37,0-.24.37-.45.7-.64,1.01-1.29,0-2.55.07-3.8-.02-1.54-.11-2.64-1.48-2.55-3.03.09-1.53,1.34-2.7,2.87-2.7,1.21,0,2.42,0,3.63,0,.11,0,.22-.03.35.05Z"/>
    <path class="cls-8" d="M398.58,27.86h1.13v4.72h5.15c-.17.4-.42.69-.63,1.03h-.77c-1.38,0-2.75,0-4.13,0-.57,0-.74-.17-.74-.73,0-1.66,0-3.33,0-5.02Z"/>
    <path class="cls-8" d="M413.27,28.47c0,.34-.32.65-.67.65-.35,0-.65-.31-.65-.66,0-.37.31-.67.68-.66.36.01.64.31.64.67ZM412.34,28.06c-.27.22-.31.46-.12.7.17.22.45.26.67.1.23-.17.29-.45.15-.67-.16-.25-.42-.29-.71-.13h0Z"/>
    <path class="cls-8" d="M412.33,28.06c.18.02.38-.05.53.13.06.19-.16.39.05.58-.24.04-.22-.16-.33-.23-.12.03.01.23-.17.24-.14-.23,0-.5-.07-.74,0,0,0,0,0,0ZM412.56,28.21c-.05.06-.05.12,0,.17.08.01.12-.02.15-.09-.03-.07-.08-.1-.15-.09Z"/>
  </g>
</svg>