<?xml version="1.0" encoding="UTF-8"?>
<svg id="Capa_1" data-name="Capa 1" xmlns="http://www.w3.org/2000/svg" xmlns:xlink="http://www.w3.org/1999/xlink" viewBox="0 0 425.5 62">
  <defs>
    <style>
      .cls-1 {
        fill: url(#Degradado_sin_nombre_16);
      }

      .cls-2 {
        mask: url(#mask-1);
      }

      .cls-3 {
        fill: #fff;
      }

      .cls-4 {
        mask: url(#mask);
      }

      .cls-5 {
        fill: #231f20;
        fill-rule: evenodd;
      }

      .cls-6 {
        fill: none;
      }

      .cls-7 {
        fill: #00b188;
      }

      .cls-8 {
        mask: url(#mask-2);
      }

      .cls-9 {
        fill: url(#Degradado_sin_nombre_2);
        opacity: .05;
      }

      .cls-10 {
        fill: #005289;
      }

      .cls-11 {
        fill: #0090d4;
      }

      .cls-12 {
        fill: #e51b27;
      }

      .cls-13 {
        fill: #040404;
      }
    </style>
    <linearGradient id="Degradado_sin_nombre_16" data-name="Degradado sin nombre 16" x1="2.89" y1="30.91" x2="102.71" y2="30.91" gradientUnits="userSpaceOnUse">
      <stop offset="0" stop-color="#00aeef"/>
      <stop offset=".36" stop-color="#049ddf"/>
      <stop offset="1" stop-color="#0f75bc"/>
    </linearGradient>
    <linearGradient id="Degradado_sin_nombre_2" data-name="Degradado sin nombre 2" x1="211.13" y1="-44.07" x2="450.96" y2="289.88" gradientUnits="userSpaceOnUse">
      <stop offset="0" stop-color="#fff"/>
      <stop offset="1" stop-color="#000"/>
    </linearGradient>
    <clipPath id="clippath">
      <rect class="cls-6" x="123.83" y="-655.66" width="960.22" height="540.01"/>
    </clipPath>
    <mask id="mask" x="277.18" y="-7200" width="4.34" height="32766" maskUnits="userSpaceOnUse"/>
    <mask id="mask-1" x="280.54" y="-7200" width="4.34" height="32766" maskUnits="userSpaceOnUse"/>
    <mask id="mask-2" x="295.37" y="-7200" width="1.63" height="32766" maskUnits="userSpaceOnUse"/>
  </defs>
  <rect class="cls-1" x="-.66" y="-.18" width="103.44" height="62.18"/>
  <rect class="cls-9" x="104.8" y="-.18" width="320.36" height="62.18"/>
  <g>
    <path class="cls-3" d="M12.27,22.28c2.25,0,3.4,1.34,3.4,3.7v.46h-2.18v-.61c0-1.05-.42-1.45-1.15-1.45s-1.16.4-1.16,1.45c0,3.02,4.51,3.59,4.51,7.79,0,2.35-1.18,3.7-3.44,3.7s-3.44-1.34-3.44-3.7v-.9h2.18v1.05c0,1.05.46,1.43,1.2,1.43s1.2-.38,1.2-1.43c0-3.02-4.51-3.59-4.51-7.79,0-2.35,1.15-3.7,3.4-3.7Z"/>
    <path class="cls-3" d="M19.33,28.64h3.17v2.1h-3.17v4.3h3.99v2.1h-6.3v-14.7h6.3v2.1h-3.99v4.09Z"/>
    <path class="cls-3" d="M29.57,37.15c-.13-.38-.21-.61-.21-1.81v-2.31c0-1.37-.46-1.87-1.51-1.87h-.8v5.98h-2.31v-14.7h3.49c2.39,0,3.42,1.11,3.42,3.38v1.16c0,1.51-.48,2.5-1.51,2.98,1.16.48,1.53,1.6,1.53,3.13v2.27c0,.71.02,1.24.25,1.79h-2.35ZM27.05,24.55v4.51h.9c.86,0,1.39-.38,1.39-1.55v-1.45c0-1.05-.36-1.51-1.18-1.51h-1.11Z"/>
    <path class="cls-3" d="M36.63,34.44l1.76-11.99h2.12l-2.27,14.7h-3.44l-2.27-14.7h2.33l1.76,11.99Z"/>
    <path class="cls-3" d="M41.59,22.45h2.31v14.7h-2.31v-14.7Z"/>
    <path class="cls-3" d="M52.27,31.67v1.95c0,2.35-1.18,3.7-3.44,3.7s-3.44-1.34-3.44-3.7v-7.64c0-2.35,1.18-3.7,3.44-3.7s3.44,1.34,3.44,3.7v1.43h-2.18v-1.58c0-1.05-.46-1.45-1.2-1.45s-1.2.4-1.2,1.45v7.94c0,1.05.46,1.43,1.2,1.43s1.2-.38,1.2-1.43v-2.1h2.18Z"/>
    <path class="cls-3" d="M53.68,22.45h2.31v14.7h-2.31v-14.7Z"/>
    <path class="cls-3" d="M57.48,25.98c0-2.35,1.24-3.7,3.51-3.7s3.51,1.34,3.51,3.7v7.64c0,2.35-1.24,3.7-3.51,3.7s-3.51-1.34-3.51-3.7v-7.64ZM59.79,33.76c0,1.05.46,1.45,1.2,1.45s1.2-.4,1.2-1.45v-7.94c0-1.05-.46-1.45-1.2-1.45s-1.2.4-1.2,1.45v7.94Z"/>
    <path class="cls-3" d="M69.05,25.98c0-2.35,1.24-3.7,3.51-3.7s3.51,1.34,3.51,3.7v7.64c0,.82-.15,1.51-.44,2.06.11.27.27.31.65.31h.21v2.06h-.32c-1.03,0-1.68-.38-2-1.01-.46.17-1.01.27-1.62.27-2.27,0-3.51-1.34-3.51-3.7v-7.64ZM71.36,33.76c0,1.05.46,1.45,1.2,1.45s1.2-.4,1.2-1.45v-7.94c0-1.05-.46-1.45-1.2-1.45s-1.2.4-1.2,1.45v7.94Z"/>
    <path class="cls-3" d="M85.03,37.15h-2.33l-.4-2.67h-2.83l-.4,2.67h-2.12l2.35-14.7h3.38l2.35,14.7ZM79.76,32.48h2.22l-1.11-7.43-1.11,7.43Z"/>
  </g>
  <g>
    <rect x="187.39" y="37.27" width="7.99" height="1.14"/>
    <rect x="187.39" y="35.09" width="7.99" height="1.14"/>
    <rect x="189.67" y="32.91" width="3.42" height="1.14"/>
    <rect x="189.67" y="30.74" width="3.42" height="1.14"/>
    <rect x="189.67" y="28.56" width="3.42" height="1.14"/>
    <rect x="189.67" y="26.38" width="3.42" height="1.14"/>
    <rect x="187.39" y="24.2" width="7.99" height="1.14"/>
    <rect x="187.39" y="22.02" width="7.99" height="1.14"/>
    <path d="M196.52,36.23h12.17c.21-.36.36-.74.46-1.14h-12.63v1.14Z"/>
    <path d="M207.73,30.74h-8.94v1.14h9.89c-.25-.43-.57-.82-.95-1.14Z"/>
    <path d="M198.8,28.56v1.14h8.94c.38-.32.7-.71.95-1.14h-9.89Z"/>
    <path d="M208.69,24.2h-12.17v1.14h12.63c-.1-.4-.25-.78-.46-1.14Z"/>
    <path d="M204.92,22.02h-8.4v1.14h11.34c-.8-.74-1.85-1.14-2.94-1.14Z"/>
    <rect x="198.8" y="26.38" width="3.42" height="1.14"/>
    <path d="M205.43,27.52h3.68c.1-.37.15-.76.15-1.14h-3.84v1.14Z"/>
    <rect x="198.8" y="32.91" width="3.42" height="1.14"/>
    <path d="M205.43,32.91v1.14h3.84c0-.39-.05-.77-.15-1.14h-3.68Z"/>
    <path d="M196.52,38.4h8.4c1.09.01,2.14-.39,2.94-1.13h-11.34v1.13Z"/>
    <polygon points="219.33 38.41 219.73 37.27 218.93 37.27 219.33 38.41"/>
    <polygon points="218.57 36.23 220.09 36.23 220.49 35.09 218.17 35.09 218.57 36.23"/>
    <polygon points="217.81 34.05 220.86 34.05 221.26 32.91 217.41 32.91 217.81 34.05"/>
    <polygon points="217.04 31.88 221.62 31.88 222.02 30.74 216.64 30.74 217.04 31.88"/>
    <polygon points="212.49 27.52 218.65 27.52 218.25 26.38 212.49 26.38 212.49 27.52"/>
    <polygon points="220.77 25.34 228.46 25.34 228.46 24.2 221.17 24.2 220.77 25.34"/>
    <polygon points="221.92 22.02 221.53 23.16 228.46 23.16 228.46 22.02 221.92 22.02"/>
    <rect x="210.21" y="37.27" width="5.7" height="1.14"/>
    <rect x="210.21" y="35.09" width="5.7" height="1.14"/>
    <rect x="212.49" y="32.91" width="3.42" height="1.14"/>
    <rect x="212.49" y="30.74" width="3.42" height="1.14"/>
    <polygon points="226.18 26.38 220.41 26.38 220.01 27.52 226.18 27.52 226.18 26.38"/>
    <polygon points="222.75 29.7 226.18 29.7 226.18 28.56 222.75 28.56 222.75 28.56 219.65 28.56 219.33 29.48 219.01 28.56 215.91 28.56 212.49 28.56 212.49 29.7 215.91 29.7 215.91 28.65 216.28 29.7 222.39 29.7 222.75 28.65 222.75 29.7"/>
    <rect x="222.75" y="30.74" width="3.42" height="1.14"/>
    <rect x="222.75" y="32.91" width="3.42" height="1.14"/>
    <rect x="222.75" y="35.09" width="5.7" height="1.14"/>
    <rect x="222.75" y="37.27" width="5.7" height="1.14"/>
    <polygon points="217.89 25.34 217.5 24.2 210.21 24.2 210.21 25.34 217.89 25.34"/>
    <polygon points="217.14 23.16 216.74 22.02 210.21 22.02 210.21 23.16 217.14 23.16"/>
  </g>
  <g>
    <path class="cls-7" d="M137.02,22.86h-16.71v-3.1h16.71v3.1ZM138.22,18.56h-19.1v5.48h19.1v-5.48Z"/>
    <path class="cls-13" d="M120.31,33.12h-1.19v-5.49h1.19v2.17h2.13v-2.17h1.19v5.49h-1.19v-2.27h-2.13v2.27"/>
    <path class="cls-13" d="M125.46,30.7h1.42c-.03-.4-.19-.68-.66-.68-.35,0-.66.15-.76.68ZM126.36,33.19c-1.21,0-2.04-.76-2.04-2.02s.81-2.06,1.88-2.06c1.17,0,1.75.78,1.75,1.95v.44h-2.49c.14.6.61.76,1.09.76.41,0,.71-.09,1.08-.32h.04v.9c-.32.23-.76.34-1.31.34"/>
    <path class="cls-13" d="M131.06,30.82l-.61,2.3h-1.04l-1.19-3.86v-.04h1.14l.65,2.31.61-2.31h.93l.62,2.31.66-2.31h1.1v.04l-1.19,3.86h-1.04l-.62-2.3"/>
    <path class="cls-13" d="M135.84,33.18c-.95,0-1.33-.38-1.33-1.26v-4.31h1.16v4.23c0,.27.11.37.33.37.08,0,.19-.03.26-.05h.02v.96c-.1.03-.26.07-.44.07"/>
    <path class="cls-13" d="M137.75,30.7h1.42c-.03-.4-.19-.68-.66-.68-.35,0-.66.15-.76.68ZM138.65,33.19c-1.21,0-2.04-.76-2.04-2.02s.81-2.06,1.88-2.06c1.17,0,1.75.78,1.75,1.95v.44h-2.49c.14.6.61.76,1.09.76.41,0,.71-.09,1.08-.32h.04v.9c-.32.23-.76.34-1.31.34"/>
    <path class="cls-13" d="M145.01,29.21h.86v.93h-.86v1.59c0,.34.13.5.48.5.1,0,.22,0,.35-.05h.03v.91c-.15.05-.38.11-.71.11-.94,0-1.31-.43-1.31-1.42v-1.64h-1.48v1.59c0,.34.13.5.48.5.1,0,.22,0,.35-.05h.03v.91c-.15.05-.38.11-.71.11-.94,0-1.31-.43-1.31-1.42v-1.64h-.6v-.93h.6v-1.07h1.16v1.07h1.48v-1.07h1.16v1.07"/>
    <path class="cls-13" d="M149.77,30.3c.61,0,.9-.34.9-.83s-.29-.85-.9-.85h-.75v1.68h.75ZM151.87,29.47c0,1.19-.8,1.84-2.01,1.84h-.85v1.78h-1.19v-5.49h2.04c1.21,0,2.01.65,2.01,1.86"/>
    <path class="cls-13" d="M154.43,31.88v-.33c-.18-.1-.4-.13-.64-.13-.38,0-.61.14-.61.46s.23.47.57.47.57-.17.68-.46ZM154.46,32.72c-.25.31-.63.46-1.04.46-.76,0-1.39-.46-1.39-1.29,0-.76.62-1.27,1.52-1.27.28,0,.57.04.87.13v-.07c0-.42-.24-.61-.86-.61-.4,0-.77.11-1.1.3h-.04v-.93c.3-.18.83-.32,1.34-.32,1.18,0,1.82.56,1.82,1.54v2.45h-1.12v-.39"/>
    <path class="cls-13" d="M156.15,31.15c0-1.25.89-2.04,2.05-2.04.41,0,.8.09,1.09.3v.99h-.04c-.25-.19-.55-.31-.89-.31-.58,0-1.02.4-1.02,1.06s.44,1.05,1.02,1.05c.34,0,.64-.11.89-.31h.04v.99c-.29.21-.68.3-1.09.3-1.16,0-2.05-.78-2.05-2.04"/>
    <path class="cls-13" d="M161.18,31.33v1.77h-1.16v-5.49h1.16v3.12l1.17-1.54h1.32v.04l-1.4,1.77,1.4,2.04v.04h-1.33l-1.16-1.77"/>
    <path class="cls-13" d="M166.26,31.88v-.33c-.18-.1-.4-.13-.64-.13-.38,0-.61.14-.61.46s.23.47.57.47.57-.17.68-.46ZM166.3,32.72c-.25.31-.63.46-1.04.46-.76,0-1.39-.46-1.39-1.29,0-.76.62-1.27,1.52-1.27.28,0,.57.04.87.13v-.07c0-.42-.24-.61-.86-.61-.39,0-.77.11-1.1.3h-.04v-.93c.3-.18.83-.32,1.34-.32,1.18,0,1.82.56,1.82,1.54v2.45h-1.12v-.39"/>
    <path class="cls-13" d="M169.38,29.82c.21-.43.52-.68.95-.68.16,0,.32.04.38.07v1.11h-.04c-.13-.05-.29-.09-.51-.09-.36,0-.64.21-.74.61v2.25h-1.16v-3.9h1.12v.63"/>
    <path class="cls-13" d="M173.77,31.79v-1.25c-.19-.28-.45-.4-.74-.4-.51,0-.85.37-.85,1.04s.34,1.03.85,1.03c.29,0,.54-.12.74-.4ZM173.8,32.71c-.25.32-.63.49-1.16.49-1,0-1.64-.91-1.64-2.04s.64-2.04,1.64-2.04c.51,0,.88.16,1.12.45v-1.94h1.16v5.48h-1.12v-.4"/>
    <path class="cls-13" d="M119.13,34.9h3.39v.67h-2.62v1.68h2.38v.65h-2.38v1.83h2.62v.67h-3.39v-5.48"/>
    <path class="cls-13" d="M125.31,36.45c.87,0,1.35.57,1.35,1.51v2.43h-.73v-2.41c0-.5-.25-.86-.81-.86-.46,0-.84.29-.97.7v2.57h-.73v-3.86h.73v.56c.23-.36.61-.64,1.16-.64"/>
    <path class="cls-13" d="M128.61,36.51h.99v.62h-.99v2.08c0,.44.23.59.64.59.11,0,.24-.02.32-.05h.03v.62c-.11.04-.25.08-.46.08-.9,0-1.26-.41-1.26-1.17v-2.15h-.67v-.62h.67v-1.03h.73v1.03"/>
    <path class="cls-13" d="M130.82,38.08h1.92c-.03-.57-.31-1.01-.9-1.01-.55,0-.91.41-1.02,1.01ZM131.97,40.47c-1.13,0-1.9-.75-1.9-1.97s.72-2.05,1.76-2.05,1.61.76,1.61,1.9v.33h-2.65c.08.78.58,1.16,1.27,1.16.43,0,.74-.1,1.08-.35h.03v.64c-.32.25-.73.34-1.2.34"/>
    <path class="cls-13" d="M135.05,37.11c.17-.41.54-.66.96-.66.17,0,.32.03.38.06v.72h-.03c-.11-.05-.28-.08-.46-.08-.39,0-.73.26-.85.7v2.52h-.73v-3.86h.73v.6"/>
    <path class="cls-13" d="M138.72,39.81c.72,0,1.14-.57,1.14-1.35s-.42-1.35-1.14-1.35c-.39,0-.76.24-.96.61v1.48c.19.38.56.6.96.6ZM138.84,36.45c1.15,0,1.76.94,1.76,2.01s-.61,2.01-1.76,2.01c-.47,0-.88-.25-1.08-.51v1.91h-.73v-5.34h.73v.44c.2-.27.61-.52,1.08-.52"/>
    <path class="cls-13" d="M142.2,37.11c.17-.41.54-.66.96-.66.17,0,.32.03.38.06v.72h-.03c-.11-.05-.28-.08-.46-.08-.39,0-.73.26-.85.7v2.52h-.73v-3.86h.73v.6"/>
    <path class="cls-13" d="M144.59,34.96c.25,0,.46.2.46.46s-.21.46-.46.46-.47-.2-.47-.46.22-.46.47-.46"/>
    <path class="cls-13" d="M144.23,40.38h.73v-3.86h-.73v3.86Z"/>
    <path class="cls-13" d="M147.56,38.11c.55.18,1.17.4,1.17,1.14,0,.79-.65,1.19-1.48,1.19-.51,0-1.02-.12-1.31-.35v-.69h.04c.33.3.81.43,1.26.43.41,0,.78-.16.78-.49s-.31-.42-.91-.62c-.54-.18-1.15-.38-1.15-1.11s.61-1.18,1.4-1.18c.46,0,.86.1,1.18.32v.7h-.03c-.32-.25-.68-.4-1.14-.4s-.71.2-.71.47c0,.31.28.39.9.6"/>
    <path class="cls-13" d="M150.1,38.08h1.92c-.03-.57-.31-1.01-.9-1.01-.55,0-.91.41-1.02,1.01ZM151.25,40.47c-1.13,0-1.9-.75-1.9-1.97s.72-2.05,1.76-2.05,1.61.76,1.61,1.9v.33h-2.65c.08.78.58,1.16,1.27,1.16.43,0,.74-.1,1.08-.35h.03v.64c-.32.25-.73.34-1.2.34"/>
  </g>
  <g>
    <path class="cls-12" d="M371.32,27.36c.59,0,1.18,0,1.77,0,1.09,0,2.16.73,2.56,1.77.43,1.13.26,2.18-.56,3.09-.59.65-1.33.92-2.2.92-1.08,0-2.15,0-3.23,0-1.28,0-2.38-.77-2.78-1.95-.41-1.2-.01-2.5,1.01-3.27.48-.36,1.03-.56,1.64-.56.6,0,1.2,0,1.8,0ZM371.3,32.09h0c.51.01,1.02.01,1.53.01,1.1,0,1.93-.79,1.95-1.84.02-.99-.81-1.85-1.86-1.87-1.08-.02-2.15-.02-3.23,0-1.03.02-1.79.77-1.86,1.77-.06.94.64,1.82,1.6,1.93.61.07,1.24.01,1.86.01Z"/>
    <path class="cls-12" d="M411.5,27.36c-.23.37-.44.69-.64,1.01-1.07,0-2.13,0-3.18,0-.91,0-1.63.51-1.85,1.33h5.35c-.19.4-.42.71-.63,1.04h-4.7c.11.73.88,1.34,1.69,1.35,1.23,0,2.47,0,3.7,0h.38c-.24.37-.45.7-.66,1.04-1.27-.02-2.53.07-3.78-.04-1.55-.14-2.65-1.51-2.55-3.07.09-1.48,1.37-2.66,2.88-2.66,1.21,0,2.42,0,3.63,0h.37Z"/>
    <path class="cls-12" d="M383.05,33.13c-.58,0-1.08,0-1.57,0-.06,0-.12-.05-.17-.09-1.05-.91-2.1-1.83-3.22-2.8.39,0,.7,0,1.02,0,.69,0,1.38,0,2.07,0,.55,0,.98-.38,1-.9.02-.52-.4-.95-.98-.96-.87-.01-1.73,0-2.6,0-.33,0-.66,0-1.02,0v4.73h-1.1v-5.71c.1-.07.21-.03.32-.03,1.51,0,3.02,0,4.53,0,1.11,0,1.97.86,1.96,1.96,0,1.09-.85,1.93-1.95,1.93-.13,0-.27,0-.51,0,.76.64,1.45,1.23,2.23,1.88Z"/>
    <path class="cls-12" d="M389.05,31.1c-.54-.87-1.03-1.67-1.56-2.52-.97,1.53-1.91,3.03-2.87,4.53h-1.27c-.03-.11.07-.19.12-.27,1.09-1.71,2.18-3.42,3.27-5.13.36-.56,1.08-.59,1.44-.05,1.17,1.79,2.31,3.6,3.49,5.43h-1.32c-.19-.31-.4-.65-.62-.99h-2.99c-.21-.32-.42-.64-.66-1.01h2.96Z"/>
    <path class="cls-12" d="M397.96,27.41c-.2.32-.4.63-.61.97-1.04,0-2.08,0-3.13,0-.62,0-1.16.18-1.56.67-.48.58-.6,1.24-.3,1.92.31.71.88,1.11,1.66,1.12,1.23.02,2.46,0,3.7,0,.11,0,.21,0,.37,0-.24.37-.45.7-.64,1.01-1.29,0-2.55.07-3.8-.02-1.54-.11-2.64-1.48-2.55-3.03.09-1.53,1.34-2.7,2.87-2.7,1.21,0,2.42,0,3.63,0,.11,0,.22-.03.35.05Z"/>
    <path class="cls-12" d="M398.58,27.38h1.13v4.72h5.15c-.17.4-.42.69-.63,1.03h-.77c-1.38,0-2.75,0-4.13,0-.57,0-.74-.17-.74-.73,0-1.66,0-3.33,0-5.02Z"/>
    <path class="cls-12" d="M413.27,27.99c0,.34-.32.65-.67.65-.35,0-.65-.31-.65-.66,0-.37.31-.67.68-.66.36.01.64.31.64.67ZM412.34,27.57c-.27.22-.31.46-.12.7.17.22.45.26.67.1.23-.17.29-.45.15-.67-.16-.25-.42-.29-.71-.13h0Z"/>
    <path class="cls-12" d="M412.33,27.58c.18.02.38-.05.53.13.06.19-.16.39.05.58-.24.04-.22-.16-.33-.23-.12.03.01.23-.17.24-.14-.23,0-.5-.07-.74,0,0,0,0,0,0ZM412.56,27.72c-.05.06-.05.12,0,.17.08.01.12-.02.15-.09-.03-.07-.08-.1-.15-.09Z"/>
  </g>
  <g>
    <path id="Fill-1" class="cls-5" d="M256.43,31.65c-.34.74-.9,1.23-1.71,1.42-.71.16-1.42-.1-1.79-.66-.19-.29-.27-.62-.27-.97,0-.74.36-1.3.95-1.72.41-.3.87-.46,1.38-.45.77,0,1.42.49,1.6,1.21.1.41.02.81-.15,1.18M257.63,28.4c-.4-.39-.87-.61-1.57-.78-.68-.13-1.22-.06-1.22-.06-.8.08-1.54.35-2.19.81-1.43,1.01-2.09,2.37-1.8,4.11.16.94.7,1.62,1.57,2.04.78.37,1.6.42,2.43.27,1.13-.2,2.06-.75,2.76-1.66.53-.68.85-1.44.92-2.27.08-.91-.12-1.72-.89-2.45"/>
    <path id="Fill-3" class="cls-5" d="M273.45,34.86c-.8,0-1.55-.24-2.22-.73-.06-.04-.07-.09,0-.18.31-.44.58-.82.88-1.26.02-.02.04-.03.07-.03.04,0,.07.02.1.05.3.29.62.5,1.04.58.36.07.71.04,1.02-.18.17-.12.28-.29.3-.5.03-.22-.09-.37-.26-.49-.21-.14-.45-.2-.68-.28-.33-.1-.67-.2-.98-.37-.43-.23-.64-.59-.66-1.07-.04-1.44.95-2.63,2.38-2.83.88-.13,1.67.06,2.45.48.06.03.06.13,0,.19-.29.42-.5.73-.78,1.15-.04.06-.08.13-.15.07-.31-.27-.68-.42-1.09-.4-.29,0-.55.11-.74.35-.18.24-.14.5.11.67.2.14.43.2.65.27.32.1.63.19.93.35.37.21.65.49.74.92.07.31.03.62-.03.92-.13.58-.36,1.11-.82,1.52-.42.38-.93.6-1.49.72-.26.05-.51.08-.8.08"/>
    <path id="Fill-5" class="cls-5" d="M241,27.86l.92,6.7s.05.08.09.08h1.73s.07-.02.08-.05l2.03-3.94.57,3.91s.05.08.09.08h1.73s.07-.02.08-.05l3.32-6.69c.03-.06-.01-.13-.08-.13h-1.7s-.07.02-.08.05l-2.07,4.4-.62-4.38s-.05-.08-.09-.08h-1.33s-.07.02-.08.05l-2.2,4.38-.49-4.35s-.04-.08-.09-.08h-1.72c-.06,0-.1.05-.09.1"/>
    <path id="Fill-7" class="cls-5" d="M262.23,30.3c-.27.53-1,.54-1.46.54l.29-1.72s.62-.03.94.1.5.55.23,1.08M264.3,29.32c-.07-1.55-1.71-1.56-2.12-1.56-.05,0-.09,0-.14,0h-2.52s-.08.03-.09.08l-1.12,6.7c0,.05.03.1.09.1h1.64s.08-.03.09-.08l.43-2.58,1.27,2.6s.05.05.08.05h2.06c.07,0,.12-.08.08-.14l-1.65-2.67c.72-.09,1.96-.82,1.89-2.5"/>
    <path id="Fill-9" class="cls-5" d="M264.53,34.53l1.11-6.7s.05-.08.09-.08h1.64c.06,0,.1.05.09.11l-.45,2.73,2.65-2.81s.04-.03.07-.03h2.03c.07,0,.1.08.05.13l-3.21,3.12,2.37,3.52s0,.11-.06.11h-2.18s-.06-.02-.08-.04l-1.83-2.95-.48,2.92s-.05.08-.09.08h-1.64c-.06,0-.1-.05-.09-.1"/>
    <path id="Fill-11" class="cls-5" d="M284.94,34.53l1.11-6.68c0-.06.06-.1.11-.1h3.79c.06,0,.1.05.09.11l-.24,1.32s-.05.07-.09.07h-2.09l-.18,1.15h1.85c.06,0,.1.05.09.11l-.22,1.34s-.05.08-.09.08h-1.87l-.46,2.63s-.05.08-.09.08h-1.62c-.06,0-.1-.05-.09-.1"/>
    <path id="Fill-13" class="cls-5" d="M290.87,34.53l.92-5.26h-1.43c-.06,0-.1-.05-.09-.1l.22-1.33s.05-.08.09-.08h4.7c.06,0,.1.05.09.11l-.23,1.33s-.05.08-.09.08h-1.42l-.9,5.3s-.05.08-.09.08h-1.67c-.06,0-.1-.05-.09-.11"/>
    <g id="Group-17">
      <g class="cls-4">
        <path id="Fill-15" class="cls-5" d="M279.77,34.76c-1.2-.72-1.81-1.57-1.77-2.85.05-1.59,1.33-2.86,2.88-2.88,0,0,.01,0,.02,0,.29,0,.54-.23.56-.53l.06-.86c.01-.16-.1-.29-.26-.31-.17-.02-.35-.02-.53-.01-1.94.08-3.51,1.72-3.56,3.71-.04,1.74,1.06,3.23,2.58,3.73h0Z"/>
      </g>
      <path id="Fill-15-2" data-name="Fill-15" class="cls-11" d="M279.77,34.76c-1.2-.72-1.81-1.57-1.77-2.85.05-1.59,1.33-2.86,2.88-2.88,0,0,.01,0,.02,0,.29,0,.54-.23.56-.53l.06-.86c.01-.16-.1-.29-.26-.31-.17-.02-.35-.02-.53-.01-1.94.08-3.51,1.72-3.56,3.71-.04,1.74,1.06,3.23,2.58,3.73h0Z"/>
    </g>
    <g id="Group-20">
      <g class="cls-2">
        <path id="Fill-18" class="cls-5" d="M282.3,27.54c1.2.71,1.81,1.54,1.77,2.8-.05,1.56-1.33,2.82-2.88,2.83,0,0-.01,0-.02,0-.29,0-.54.22-.56.52l-.06.85c-.01.16.1.29.26.3.17.02.35.02.53.01,1.94-.08,3.51-1.69,3.56-3.65.04-1.71-1.06-3.17-2.58-3.67h0Z"/>
      </g>
      <path id="Fill-18-2" data-name="Fill-18" class="cls-11" d="M282.3,27.54c1.2.71,1.81,1.54,1.77,2.8-.05,1.56-1.33,2.82-2.88,2.83,0,0-.01,0-.02,0-.29,0-.54.22-.56.52l-.06.85c-.01.16.1.29.26.3.17.02.35.02.53.01,1.94-.08,3.51-1.69,3.56-3.65.04-1.71-1.06-3.17-2.58-3.67h0Z"/>
    </g>
    <g id="Group-6">
      <g id="Group-3">
        <g class="cls-8">
          <path id="Fill-1-2" data-name="Fill-1" class="cls-5" d="M296.9,33.89c0,.1-.02.19-.06.27-.04.09-.09.16-.15.23-.06.06-.14.12-.23.15-.09.04-.18.06-.27.06s-.19-.02-.27-.06c-.09-.04-.16-.09-.23-.15-.06-.06-.12-.14-.15-.23-.04-.09-.06-.18-.06-.27s.02-.19.06-.28c.04-.09.09-.16.15-.23.06-.06.14-.12.23-.15.09-.04.18-.06.27-.06s.19.02.27.06c.09.04.16.09.23.15.06.06.12.14.15.23.04.09.06.18.06.28M296.94,33.58c-.04-.1-.1-.19-.18-.26-.07-.07-.16-.13-.26-.17-.1-.04-.2-.06-.32-.06s-.22.02-.31.06c-.1.04-.19.1-.26.17-.08.07-.13.16-.18.26-.04.1-.06.2-.06.32s.02.22.06.31c.04.1.1.19.18.26.08.07.16.13.26.17.1.04.2.06.31.06s.22-.02.32-.06c.1-.04.19-.1.26-.17.07-.07.13-.16.18-.26.04-.1.06-.2.06-.31s-.02-.22-.06-.32"/>
        </g>
      </g>
      <path id="Fill-4" class="cls-5" d="M296,33.54h.22c.06,0,.11,0,.14.03.03.02.05.04.06.06,0,.03.01.05.01.08s0,.05-.01.08c0,.02-.03.05-.06.06-.03.02-.08.03-.14.03h-.22v-.34ZM296.39,33.96s.05-.02.07-.04c.03-.02.05-.05.07-.08.02-.03.03-.08.03-.14,0-.09-.03-.16-.09-.21-.06-.05-.14-.07-.24-.07h-.35v.94h.12v-.37h.22l.24.37h.14l-.25-.39s.02,0,.04-.01h0Z"/>
    </g>
  </g>
  <path class="cls-10" d="M322.99,26.17h-6.67v1.24h2.69v6.82h1.3v-6.82h2.69v-1.24h0ZM323.22,28.96l-.12-.7h-1.16v5.97h1.3v-3.97c.2-.27.47-.48.82-.62.37-.15.76-.25,1.16-.25h.23v-1.26h-.23c-.78,0-1.45.28-2,.82ZM326.1,25.96h1.38v1.38h-1.38v-1.38ZM326.14,28.26h1.3v5.97h-1.3v-5.97ZM342.58,28.14c-.71,0-1.38.27-1.95.83l-.12-.71h-1.16v5.97h1.3v-3.89c.52-.64,1.1-.97,1.68-.97.73,0,1.08.39,1.08,1.22v3.64h1.3v-3.76c0-.65-.2-1.22-.56-1.67-.39-.42-.91-.66-1.57-.66ZM347.42,26.83l-2.36,2.32v.27h1.06v3.31c0,1.06.62,1.62,1.78,1.62.39,0,.73-.09,1.06-.27l.08-.04v-1.06h-.25l-.02.02c-.5.21-.93.2-1.16.09-.12-.06-.17-.2-.17-.44v-3.23h1.62v-1.16h-1.62v-1.42h0ZM349.79,25.96h1.38v1.38h-1.38v-1.38ZM349.84,28.26h1.3v5.97h-1.3v-5.97ZM356.08,31.43c-.25-.29-.54-.47-.91-.56l-.99-.25c-.31-.08-.6-.17-.82-.29-.25-.12-.27-.25-.27-.37,0-.15.09-.29.27-.41.2-.12.52-.2.99-.2.44,0,.93.09,1.41.31l.02.02h.25v-1.18l-.09-.04c-.58-.21-1.2-.33-1.86-.33s-1.22.17-1.62.52-.62.82-.62,1.38c0,.41.14.76.39,1.05.25.27.56.44.91.54l.99.27c.31.08.58.17.82.29.27.12.27.25.27.29,0,.27-.12.65-1.08.65-.7,0-1.33-.17-1.91-.52l-.04-.02h-.23v1.2l.08.04c.62.35,1.33.52,2.09.52s1.38-.17,1.76-.5c.41-.35.62-.76.62-1.26-.05-.47-.16-.88-.42-1.15ZM336.03,28.14c-.35,0-.71.06-1.05.2-.35.14-.64.33-.91.58-.27.25-.48.58-.64.97s-.23.85-.23,1.38c0,.44.06.85.2,1.22.12.37.31.7.58.97.25.27.58.48.99.64.39.15.87.23,1.41.23.21,0,.42-.02.62-.04.2-.02.39-.06.56-.08.17-.04.33-.08.47-.12s.23-.08.31-.12l-.17-1.08c-.15.06-.39.14-.65.17-.29.06-.6.09-.95.09-.6,0-1.05-.14-1.35-.41s-.48-.64-.54-1.12v-.02h4.06c0-.08.02-.15.02-.23v-.25c0-1-.23-1.76-.7-2.26-.53-.45-1.18-.71-2.01-.71ZM337.32,30.68h-2.69v-.02c.02-.17.08-.35.14-.52s.15-.33.27-.44c.12-.14.25-.23.42-.31s.37-.12.58-.12.41.04.56.12.29.17.39.31c.12.14.2.27.25.44s.07.34.07.54h0ZM331.56,28.11c-1.91,0-3.41,1.35-3.41,3.09v.02c0,1.73,1.49,3.08,3.41,3.08.7,0,1.3-.14,1.82-.42l-.02-.02-.06-.06h0c-.23-.25-.42-.54-.56-.87-.35.17-.7.27-1.08.27-1.16,0-2.05-.85-2.05-1.99v-.02c0-1.1.87-1.97,1.97-1.97.44,0,.83.09,1.18.31.17-.39.41-.73.65-1-.54-.28-1.15-.42-1.86-.42ZM306.8,33.46l-1.3-1.3,1.95-1.95-1.94-1.94,1.3-1.3,3.23,3.25-3.25,3.25ZM308.79,35.46l-1.3-1.3,3.25-3.25,3.25,3.23-1.3,1.3-1.95-1.94-1.94,1.95ZM310.74,29.52l-3.25-3.23,1.32-1.3,1.94,1.94,1.95-1.95,1.3,1.3-3.26,3.25Z"/>
</svg>