<?xml version="1.0" encoding="UTF-8"?>
<svg id="Capa_1" data-name="Capa 1" xmlns="http://www.w3.org/2000/svg" xmlns:xlink="http://www.w3.org/1999/xlink" viewBox="0 0 425.5 62">
  <defs>
    <style>
      .cls-1 {
        fill: url(#Degradado_sin_nombre_16);
      }

      .cls-2 {
        fill: #fff;
      }

      .cls-3 {
        fill: none;
      }

      .cls-4 {
        fill: url(#Degradado_sin_nombre_4);
      }

      .cls-5 {
        fill: url(#Degradado_sin_nombre_2);
        opacity: .05;
      }

      .cls-6 {
        fill: #9d789f;
      }

      .cls-7 {
        fill: #292323;
      }

      .cls-8 {
        fill: #e51b27;
      }

      .cls-9 {
        fill: #5d2960;
      }
    </style>
    <linearGradient id="Degradado_sin_nombre_2" data-name="Degradado sin nombre 2" x1="180.11" y1="-87.15" x2="419.83" y2="246.64" gradientUnits="userSpaceOnUse">
      <stop offset="0" stop-color="#fff"/>
      <stop offset="1" stop-color="#000"/>
    </linearGradient>
    <linearGradient id="Degradado_sin_nombre_16" data-name="Degradado sin nombre 16" x1="2.89" y1="31.02" x2="102.71" y2="31.02" gradientUnits="userSpaceOnUse">
      <stop offset="0" stop-color="#00aeef"/>
      <stop offset=".36" stop-color="#049ddf"/>
      <stop offset="1" stop-color="#0f75bc"/>
    </linearGradient>
    <linearGradient id="Degradado_sin_nombre_4" data-name="Degradado sin nombre 4" x1="328.6" y1="-2133.82" x2="328.6" y2="-2154.45" gradientTransform="translate(0 -2112) scale(1 -1)" gradientUnits="userSpaceOnUse">
      <stop offset="0" stop-color="#0ae"/>
      <stop offset="1" stop-color="#05a"/>
    </linearGradient>
    <clipPath id="clippath">
      <rect class="cls-3" x="123.83" y="-720.66" width="960.22" height="540.01"/>
    </clipPath>
  </defs>
  <rect class="cls-5" x="104.8" width="320.36" height="62.04"/>
  <rect class="cls-1" x="-.66" width="103.44" height="62.04"/>
  <g>
    <path class="cls-2" d="M12.27,13.76c2.25,0,3.4,1.34,3.4,3.7v.46h-2.18v-.61c0-1.05-.42-1.45-1.15-1.45s-1.16.4-1.16,1.45c0,3.02,4.51,3.59,4.51,7.79,0,2.35-1.18,3.7-3.44,3.7s-3.44-1.34-3.44-3.7v-.9h2.18v1.05c0,1.05.46,1.43,1.2,1.43s1.2-.38,1.2-1.43c0-3.02-4.51-3.59-4.51-7.79,0-2.35,1.15-3.7,3.4-3.7Z"/>
    <path class="cls-2" d="M16.83,17.46c0-2.35,1.24-3.7,3.51-3.7s3.51,1.34,3.51,3.7v7.64c0,2.35-1.24,3.7-3.51,3.7s-3.51-1.34-3.51-3.7v-7.64ZM19.14,25.25c0,1.05.46,1.45,1.2,1.45s1.2-.4,1.2-1.45v-7.94c0-1.05-.46-1.45-1.2-1.45s-1.2.4-1.2,1.45v7.94Z"/>
    <path class="cls-2" d="M32.18,17.57v1.91c0,2.35-1.13,3.63-3.44,3.63h-1.09v5.52h-2.31v-14.7h3.4c2.31,0,3.44,1.28,3.44,3.63ZM27.64,16.03v4.98h1.09c.73,0,1.13-.34,1.13-1.39v-2.21c0-1.05-.4-1.39-1.13-1.39h-1.09Z"/>
    <path class="cls-2" d="M33.06,17.46c0-2.35,1.24-3.7,3.51-3.7s3.51,1.34,3.51,3.7v7.64c0,2.35-1.24,3.7-3.51,3.7s-3.51-1.34-3.51-3.7v-7.64ZM35.37,25.25c0,1.05.46,1.45,1.2,1.45s1.2-.4,1.2-1.45v-7.94c0-1.05-.46-1.45-1.2-1.45s-1.2.4-1.2,1.45v7.94Z"/>
    <path class="cls-2" d="M46.39,28.63c-.13-.38-.21-.61-.21-1.81v-2.31c0-1.36-.46-1.87-1.51-1.87h-.8v5.98h-2.31v-14.7h3.49c2.39,0,3.42,1.11,3.42,3.38v1.15c0,1.51-.48,2.5-1.51,2.98,1.16.48,1.53,1.6,1.53,3.13v2.27c0,.71.02,1.24.25,1.78h-2.35ZM43.87,16.03v4.51h.9c.86,0,1.39-.38,1.39-1.55v-1.45c0-1.05-.36-1.51-1.18-1.51h-1.11Z"/>
    <path class="cls-2" d="M49.33,13.93h7.14v2.1h-2.41v12.6h-2.31v-12.6h-2.41v-2.1Z"/>
    <path class="cls-2" d="M59.79,20.13h3.17v2.1h-3.17v4.3h3.99v2.1h-6.3v-14.7h6.3v2.1h-3.99v4.09Z"/>
    <path class="cls-2" d="M9.83,47.68h-.88l3.21-14.72h1.41l3.28,14.72h-.97l-.73-3.25h-4.58l-.74,3.25ZM15,43.58l-2.16-9.51-2.12,9.51h4.28Z"/>
    <path class="cls-2" d="M23.75,33.85c.51.67.77,1.56.77,2.68v.32h-.92v-.38c0-.84-.18-1.5-.53-2s-.9-.74-1.66-.74-1.31.25-1.66.74c-.35.49-.52,1.15-.52,1.97,0,.53.11,1,.34,1.42.22.41.5.77.83,1.07.33.3.78.66,1.35,1.08.6.43,1.09.82,1.47,1.16.38.34.69.75.94,1.24.25.49.38,1.06.38,1.72,0,1.12-.26,2.01-.78,2.68-.52.67-1.32,1-2.39,1s-1.88-.33-2.39-1c-.52-.66-.78-1.56-.78-2.68v-.76h.92v.82c0,.84.18,1.5.54,1.98.36.48.92.72,1.69.72s1.33-.24,1.69-.72c.36-.48.54-1.14.54-1.98,0-.53-.11-1-.34-1.41-.22-.41-.5-.76-.83-1.06-.33-.3-.77-.65-1.33-1.06-.6-.43-1.09-.82-1.47-1.17s-.7-.76-.96-1.26c-.26-.5-.39-1.07-.39-1.73,0-1.13.26-2.02.78-2.67.52-.64,1.3-.97,2.35-.99,1.06,0,1.85.33,2.36,1Z"/>
    <path class="cls-2" d="M30.01,47.68h-.88l3.21-14.72h1.41l3.28,14.72h-.97l-.73-3.25h-4.58l-.74,3.25ZM35.18,43.58l-2.16-9.51-2.12,9.51h4.28Z"/>
    <path class="cls-2" d="M47.18,33.85c.51.67.77,1.56.77,2.68v.32h-.92v-.38c0-.84-.18-1.5-.53-2s-.9-.74-1.66-.74-1.31.25-1.66.74c-.35.49-.52,1.15-.52,1.97,0,.53.11,1,.34,1.42.22.41.5.77.83,1.07.33.3.78.66,1.35,1.08.6.43,1.09.82,1.47,1.16.38.34.69.75.94,1.24.25.49.38,1.06.38,1.72,0,1.12-.26,2.01-.78,2.68-.52.67-1.32,1-2.39,1s-1.88-.33-2.39-1c-.52-.66-.78-1.56-.78-2.68v-.76h.92v.82c0,.84.18,1.5.54,1.98.36.48.92.72,1.69.72s1.33-.24,1.69-.72c.36-.48.54-1.14.54-1.98,0-.53-.11-1-.34-1.41-.22-.41-.5-.76-.83-1.06-.33-.3-.77-.65-1.33-1.06-.6-.43-1.09-.82-1.47-1.17s-.7-.76-.96-1.26c-.26-.5-.39-1.07-.39-1.73,0-1.13.26-2.02.78-2.67.52-.64,1.3-.97,2.35-.99,1.06,0,1.85.33,2.36,1Z"/>
    <path class="cls-2" d="M54.5,40.67h-4.01v6.13h4.83v.88h-5.8v-14.7h5.8v.88h-4.83v5.92h4.01v.88Z"/>
    <path class="cls-2" d="M63.11,36.3v1.28c0,.87-.17,1.55-.51,2.05-.34.5-.88.83-1.61,1,1.41.31,2.12,1.31,2.12,3v2.29c0,.81.12,1.4.36,1.76h-1.01c-.13-.21-.21-.45-.25-.72-.04-.27-.06-.62-.06-1.04v-2.31c0-.92-.23-1.57-.69-1.94-.46-.37-1.15-.56-2.06-.56h-1.53v6.57h-.97v-14.7h3.07c2.1,0,3.15,1.11,3.15,3.32ZM61.47,39.7c.45-.35.67-.99.67-1.93v-1.39c0-.83-.17-1.45-.52-1.88-.35-.43-.91-.64-1.68-.64h-2.08v6.36h1.55c.92,0,1.61-.17,2.06-.53Z"/>
    <path class="cls-2" d="M68.72,46.57l2.98-13.59h.9l-3.19,14.7h-1.43l-3.23-14.7h.99l2.98,13.59Z"/>
    <path class="cls-2" d="M75.04,47.68h-.97v-14.7h.97v14.7Z"/>
    <path class="cls-2" d="M82.22,33.87c.52.68.78,1.58.78,2.7v1.22h-.92v-1.28c0-.84-.18-1.51-.54-2.02-.36-.5-.92-.76-1.69-.76s-1.33.25-1.69.76c-.36.5-.54,1.18-.54,2.02v7.64c0,.84.18,1.51.54,2.01.36.5.92.75,1.69.75s1.33-.25,1.69-.75c.36-.5.54-1.17.54-2.01v-1.74h.92v1.68c0,1.12-.26,2.02-.78,2.7s-1.32,1.02-2.39,1.02-1.88-.34-2.39-1.02c-.52-.68-.78-1.58-.78-2.7v-7.52c0-1.12.26-2.02.78-2.7.52-.68,1.32-1.02,2.39-1.02s1.88.34,2.39,1.02Z"/>
    <path class="cls-2" d="M89.55,40.67h-4.01v6.13h4.83v.88h-5.8v-14.7h5.8v.88h-4.83v5.92h4.01v.88Z"/>
  </g>
  <g>
    <g>
      <path d="M130.73,45.09h-.89l-.15-1.02h-1.08l-.15,1.02h-.81l.9-5.6h1.29l.9,5.6ZM128.72,43.31h.85l-.42-2.83-.42,2.83Z"/>
      <path d="M131.97,39.49v4.32c0,.4.18.54.46.54s.46-.14.46-.54v-4.32h.83v4.26c0,.9-.45,1.41-1.31,1.41s-1.31-.51-1.31-1.41v-4.26h.88Z"/>
      <path d="M134.06,39.49h2.72v.8h-.92v4.8h-.88v-4.8h-.92v-.8Z"/>
      <path d="M137.09,40.84c0-.9.47-1.41,1.33-1.41s1.34.51,1.34,1.41v2.91c0,.9-.47,1.41-1.34,1.41s-1.33-.51-1.33-1.41v-2.91ZM137.97,43.8c0,.4.18.55.46.55s.46-.15.46-.55v-3.02c0-.4-.18-.55-.46-.55s-.46.15-.46.55v3.02Z"/>
      <path d="M142.2,43.47l.6-3.97h1.22v5.6h-.83v-4.01l-.61,4.01h-.83l-.66-3.96v3.96h-.77v-5.6h1.22l.65,3.97Z"/>
      <path d="M147.51,45.09h-.89l-.15-1.02h-1.08l-.15,1.02h-.81l.9-5.6h1.29l.9,5.6ZM145.5,43.31h.85l-.42-2.83-.42,2.83Z"/>
      <path d="M147.36,39.49h2.72v.8h-.92v4.8h-.88v-4.8h-.92v-.8Z"/>
      <path d="M150.46,39.49h.88v5.6h-.88v-5.6Z"/>
      <path d="M154.53,43v.74c0,.9-.45,1.41-1.31,1.41s-1.31-.51-1.31-1.41v-2.91c0-.9.45-1.41,1.31-1.41s1.31.51,1.31,1.41v.54h-.83v-.6c0-.4-.18-.55-.46-.55s-.46.15-.46.55v3.02c0,.4.18.54.46.54s.46-.14.46-.54v-.8h.83Z"/>
    </g>
    <g>
      <path d="M136.72,23.67c-.08,0-.15-.02-.22-.06l-4.23-2.54c-.2-.12-.26-.38-.14-.58.04-.06.09-.11.14-.14l4.23-2.54c.13-.08.3-.08.44,0l4.23,2.54c.2.12.26.38.14.58-.04.06-.09.11-.14.14l-4.23,2.54c-.07.04-.14.06-.22.06Z"/>
      <path d="M149.82,29.59h-6.77c-.23,0-.42-.19-.42-.42v-4.23c0-.23.19-.42.42-.42h6.77c.23,0,.42.19.42.42v4.23c0,.23-.19.42-.42.42Z"/>
      <path d="M138.41,36.35h-3.38c-1.4,0-2.54-1.14-2.54-2.54s1.14-2.54,2.54-2.54h3.38c1.4,0,2.54,1.14,2.54,2.54s-1.14,2.54-2.54,2.54Z"/>
      <path d="M146.02,30.43v2.96h-4.23v.85h4.65c.23,0,.42-.19.42-.42v-3.38h-.85Z"/>
      <rect x="136.29" y="24.51" width=".85" height="5.92"/>
      <path d="M146.44,20.28h-4.23v.85h3.81v2.54h.85v-2.96c0-.23-.19-.42-.42-.42Z"/>
    </g>
  </g>
  <g>
    <path class="cls-4" d="M349.47,21.82h-41.73v20.63h21.09"/>
    <path class="cls-2" d="M328.37,25.94v9.72l-3.58-9.72h-3.58l-3.03,8.07c-.37-2.02-2.48-2.75-4.13-3.3-1.1-.37-2.29-.83-2.29-1.47,0-.46.64-.92,1.83-.83.83.09,1.56.09,3.03.83l1.47-2.48c-1.38-.73-3.21-1.1-4.68-1.1-1.74,0-3.21.55-4.13,1.47-.64.64-.92,1.47-1.01,2.38,0,1.28.46,2.2,1.47,2.93.83.55,1.83.92,2.75,1.19,1.19.37,2.11.73,2.11,1.38-.09.83-1.01,1.01-1.65,1.01-1.1.09-2.02-.09-3.39-.92l-1.28,2.48c1.38.83,2.84,1.19,4.59,1.19,1.19,0,3.03-.37,4.03-1.28l-.18.83h3.48l.64-1.56c1.38.37,2.93.46,4.31,0l.46,1.56h6.24v-3.67h1.28c3.21,0,5.14-1.56,5.14-4.31,0-3.12-1.83-4.4-5.78-4.4h-4.13ZM321.68,34.01l1.28-4.13h.09l1.28,4.13c-.92.28-1.83.28-2.66,0ZM331.86,31.9v-3.3h.92c1.19,0,2.11.37,2.11,1.56,0,1.28-.92,1.74-2.11,1.74h-.92Z"/>
  </g>
  <g>
    <path class="cls-9" d="M378.24,39.57c-.58-.43-.9-1.06-1.25-1.66-.57-1.55-.6-3.17-.64-4.79-.03-1.2-.11-2.42-.93-3.43-.19-.31-.37-.63-.56-.94-.57-1.37-1.62-2.24-2.97-2.78-.43-.46-.98-.53-1.57-.44-3.59.53-6.26,4.23-5.56,7.78.59,3.01,2.47,4.81,5.42,5.57-.18.28-.5.28-.76.3-1.37.12-2.7,0-4-.57-.98-.43-1.71-1.19-2.59-1.73-2.91-3.89-1.46-9.83,3.29-12.37,5.73-3.07,12.63.36,13.65,6.74.2,1.25.03,2.48-.15,3.71-.16,1.12-.23,2.24.07,3.35.25.94.73,1.71,1.72,2.04,0,.08,0,.16,0,.24-.44.05-.86-.03-1.28-.12-.05-.06-.11-.09-.19-.04-.57-.18-1.14-.35-1.59-.78,0-.04-.01-.09-.02-.14-.03.02-.06.04-.08.06Z"/>
    <path class="cls-6" d="M375.43,29.69c.82,1.01.89,2.23.93,3.43.05,1.63.08,3.24.64,4.79-1.49,1.54-3.25,2.62-5.4,2.9-3.42.44-6.23-.71-8.44-3.32-.15-.17-.34-.35-.33-.62.89.54,1.61,1.29,2.59,1.73,1.3.57,2.62.69,4,.57.27-.02.58-.02.76-.3.42.01.78-.12,1.11-.38.8-.36,1.57-.76,2.05-1.55,1-.89,1.7-1.96,2.08-3.25.38-1.34.35-2.67.01-4Z"/>
    <path class="cls-9" d="M391.28,28.4c-1.51-.13-3.02-.02-4.56-.06-.15-.47-.05-.94-.07-1.46h10.93c.08.46.05.92,0,1.46h-4.6v8.54h-1.64c0-2.34,0-4.67,0-7,.05-.5.15-1-.05-1.48Z"/>
    <path class="cls-9" d="M402.4,26.86c.57-.05,1.06-.07,1.62.01v8.52h7.53c.22.51.11.98.1,1.49h-9.25v-10.02Z"/>
    <path class="cls-9" d="M384.31,26.83h1.24v10.04c-.54.08-1.05.08-1.59,0,0-3.34,0-6.66,0-9.98.13.04.24.03.34-.06Z"/>
    <path class="cls-9" d="M398.72,26.85h1.56v10.02c-.5.11-1.01.06-1.56.03v-10.05Z"/>
    <path class="cls-9" d="M413.31,27.26c.09-.1.17-.06.21.03.25.53,0,1.17-.56,1.43-.59.28-1.25.07-1.54-.49-.29-.55-.06-1.25.5-1.53.55-.28,1.22-.09,1.49.41.01.03-.06.1-.09.15-.2.02-.26-.18-.39-.26-.41-.26-.79-.21-1.08.14-.32.38-.34.79.08,1.17.27-.38-.23-.95.37-1.18.08.16-.16.43.16.52.31-.12.09-.35.11-.53.71.22.16.77.31,1.14-.28.05-.19-.37-.47-.36-.14.03-.08.19-.12.28-.04.11-.31.11-.15.31q.53.07.72-.25c.76-.05.27-.68.46-.99Z"/>
    <path class="cls-6" d="M391.28,28.4c.21.49.1.99.05,1.48-.14-.49-.06-.99-.05-1.48Z"/>
    <path class="cls-6" d="M381.41,40.58c0-.08,0-.16,0-.24.2-.04.36.02.51.17-.18.16-.35.11-.52.07Z"/>
    <path class="cls-6" d="M384.31,26.83c-.1.09-.22.1-.34.06.09-.17.21-.16.34-.06Z"/>
    <path class="cls-6" d="M378.24,39.57s.05-.04.08-.06c0,.05.02.1.02.14-.03-.03-.07-.05-.1-.08Z"/>
    <path class="cls-6" d="M379.93,40.43c.08-.05.14-.02.19.04-.06-.01-.13-.03-.19-.04Z"/>
    <path class="cls-6" d="M367,28.99c.8-1.6,2.18-2.44,3.85-2.88.33-.09.69-.21,1.05-.14,1.35.55,2.4,1.41,2.97,2.78-.33-.16-.55-.54-.97-.53.05-.21-.07-.31-.24-.38-1.48-.68-2.97-.82-4.53-.26-.84.3-1.38,1.01-2.13,1.41Z"/>
    <path class="cls-9" d="M367,28.99c.75-.41,1.28-1.11,2.13-1.41,1.57-.56,3.06-.42,4.53.26.17.08.28.18.24.38-1.88-.15-3.34.58-4.33,2.14-.98,1.53-1.22,3.15-.38,4.83.49.98,1.32,1.64,2.3,2.08.67.3,1.24-.18,1.86-.33-.47.79-1.25,1.19-2.05,1.55-2.23-.49-3.87-1.75-4.83-3.81-.92-1.98-.67-3.89.53-5.7Z"/>
    <path class="cls-6" d="M412.29,27.13c.09,0,.18,0,.27,0-.02.18.2.41-.11.53-.32-.09-.08-.36-.16-.52Z"/>
  </g>
  <g>
    <path class="cls-8" d="M249.61,24.18c.59,0,1.18,0,1.77,0,1.09,0,2.16.73,2.56,1.77.43,1.13.26,2.18-.56,3.09-.59.65-1.33.92-2.2.92-1.08,0-2.15,0-3.23,0-1.28,0-2.38-.77-2.78-1.95-.41-1.2-.01-2.5,1.01-3.27.48-.36,1.03-.56,1.64-.56.6,0,1.2,0,1.8,0ZM249.59,28.91h0c.51.01,1.02.01,1.53.01,1.1,0,1.93-.79,1.95-1.84.02-.99-.81-1.85-1.86-1.87-1.08-.02-2.15-.02-3.23,0-1.03.02-1.79.77-1.86,1.77-.06.94.64,1.82,1.6,1.93.61.07,1.24.01,1.86.01Z"/>
    <path class="cls-7" d="M240.2,33.2c-.04-.1-.03-.2-.01-.32h54.44c.05.1.04.2,0,.32h-54.44Z"/>
    <path class="cls-8" d="M289.79,24.18c-.23.37-.44.69-.64,1.01-1.07,0-2.13,0-3.18,0-.91,0-1.63.51-1.85,1.33h5.35c-.19.4-.42.71-.63,1.04h-4.7c.11.73.88,1.34,1.69,1.35,1.23,0,2.47,0,3.7,0h.38c-.24.37-.45.7-.66,1.04-1.27-.02-2.53.07-3.78-.04-1.55-.14-2.65-1.51-2.55-3.07.09-1.48,1.37-2.66,2.88-2.66,1.21,0,2.42,0,3.63,0h.37Z"/>
    <path class="cls-8" d="M261.34,29.95c-.58,0-1.08,0-1.57,0-.06,0-.12-.05-.17-.09-1.05-.91-2.1-1.83-3.22-2.8.39,0,.7,0,1.02,0,.69,0,1.38,0,2.07,0,.55,0,.98-.38,1-.9.02-.52-.4-.95-.98-.96-.87-.01-1.73,0-2.6,0-.33,0-.66,0-1.02,0v4.73h-1.1v-5.71c.1-.07.21-.03.32-.03,1.51,0,3.02,0,4.53,0,1.11,0,1.97.86,1.96,1.96,0,1.09-.85,1.93-1.95,1.93-.13,0-.27,0-.51,0,.76.64,1.45,1.23,2.23,1.88Z"/>
    <path class="cls-8" d="M267.34,27.93c-.54-.87-1.03-1.67-1.56-2.52-.97,1.53-1.91,3.03-2.87,4.53h-1.27c-.03-.11.07-.19.12-.27,1.09-1.71,2.18-3.42,3.27-5.13.36-.56,1.08-.59,1.44-.05,1.17,1.79,2.31,3.6,3.49,5.43h-1.32c-.19-.31-.4-.65-.62-.99h-2.99c-.21-.32-.42-.64-.66-1.01h2.96Z"/>
    <path class="cls-8" d="M276.25,24.23c-.2.32-.4.63-.61.97-1.04,0-2.08,0-3.13,0-.62,0-1.16.18-1.56.67-.48.58-.6,1.24-.3,1.92.31.71.88,1.11,1.66,1.12,1.23.02,2.46,0,3.7,0,.11,0,.21,0,.37,0-.24.37-.45.7-.64,1.01-1.29,0-2.55.07-3.8-.02-1.54-.11-2.64-1.48-2.55-3.03.09-1.53,1.34-2.7,2.87-2.7,1.21,0,2.42,0,3.63,0,.11,0,.22-.03.35.05Z"/>
    <path class="cls-8" d="M276.86,24.2h1.13v4.72h5.15c-.17.4-.42.69-.63,1.03h-.77c-1.38,0-2.75,0-4.13,0-.57,0-.74-.17-.74-.73,0-1.66,0-3.33,0-5.02Z"/>
    <path class="cls-7" d="M263.79,40.05h-1.22c-.49-1.02-.98-2.06-1.48-3.11-.02,0-.04,0-.05,0v3.1h-.8v-3.94h1.26c.47.96.94,1.94,1.42,2.93.02,0,.04,0,.05,0v-2.9c.29-.05.55-.04.83-.02v3.94Z"/>
    <path class="cls-7" d="M248.25,37.99c.47.18.75.44.8.9.04.37-.08.65-.38.86-.26.18-.55.29-.87.3-.6.01-1.2,0-1.82,0v-3.93c.66,0,1.32-.04,1.98.01.44.03.8.28.9.76.11.5-.12.83-.61,1.1ZM246.84,39.37c.32,0,.62.02.91,0,.29-.03.41-.24.4-.52-.01-.26-.12-.46-.41-.47-.29-.02-.59,0-.9,0v1ZM246.84,37.67c.27,0,.51,0,.76,0,.26-.01.41-.15.42-.42,0-.27-.13-.45-.41-.47-.25-.02-.5,0-.77,0v.89Z"/>
    <path class="cls-7" d="M254.28,38.79h.86c0,.27.08.52.34.65.23.12.47.08.71,0,.22-.06.37-.19.39-.44.01-.24-.13-.37-.33-.44-.19-.06-.38-.11-.57-.16-.2-.06-.41-.12-.6-.2-.4-.16-.69-.42-.7-.88-.01-.46.19-.82.58-1.05.52-.3,1.09-.37,1.67-.17.51.18.76.55.77,1.1-.26.06-.52.02-.78.02-.22-.53-.45-.69-.89-.58-.23.06-.41.19-.43.45-.02.26.12.42.37.48.35.1.71.18,1.05.3.41.14.77.37.78.88.02.55-.21.96-.7,1.17-.58.26-1.18.28-1.79.08-.51-.17-.73-.55-.73-1.23Z"/>
    <path class="cls-7" d="M271.35,37.23h-.78c-.22-.52-.39-.64-.8-.58-.27.03-.47.16-.51.44-.04.3.15.45.41.52.36.1.73.17,1.08.31.4.16.7.41.71.87.02.49-.18.9-.63,1.12-.64.31-1.3.34-1.96.07-.46-.19-.66-.59-.63-1.18h.82c.18.66.52.86,1.1.65.22-.07.38-.2.38-.45,0-.23-.13-.38-.34-.44-.31-.09-.62-.15-.93-.25-.67-.22-.96-.56-.94-1.05.02-.57.37-.98,1.01-1.16.35-.1.7-.13,1.05-.05.59.13.93.53.95,1.18Z"/>
    <path class="cls-7" d="M277.97,38.8s.08-.01.12-.01c.23,0,.46,0,.69,0,.13.68.65.94,1.22.61.16-.09.26-.21.25-.4,0-.18-.09-.33-.26-.4-.15-.06-.31-.11-.47-.15-.31-.07-.63-.15-.91-.3-.67-.36-.77-1.18-.21-1.7.52-.48,1.5-.6,2.12-.24.38.22.53.57.54,1.02h-.8c-.17-.5-.39-.66-.84-.57-.25.05-.43.19-.46.46-.02.26.14.41.37.48.34.1.69.18,1.02.29.43.15.79.37.81.89.02.57-.24.99-.77,1.2-.54.21-1.1.23-1.66.07-.56-.17-.82-.6-.77-1.24Z"/>
    <path class="cls-7" d="M275.27,37.23h-.76c-.22-.52-.41-.65-.84-.57-.25.05-.44.17-.47.44-.03.28.13.43.38.5.35.1.71.18,1.05.3.41.14.74.38.76.86.02.51-.16.92-.64,1.15-.64.31-1.31.33-1.97.06-.5-.21-.62-.65-.64-1.16.29-.06.56-.02.83-.03.24.68.54.86,1.1.67.22-.07.38-.2.39-.44.01-.25-.15-.38-.36-.46-.34-.13-.71-.15-1.05-.3-.41-.18-.78-.39-.79-.92-.01-.54.25-.95.78-1.16.49-.2.99-.25,1.49-.07.49.18.76.58.72,1.11Z"/>
    <path class="cls-7" d="M282.14,36.11h.84c0,.73,0,1.43,0,2.14,0,.17,0,.33.03.5.08.55.33.78.85.77.5,0,.79-.27.81-.82.03-.85,0-1.71,0-2.57.3-.06.57-.02.88-.03v1.06c0,.43,0,.87,0,1.3.02,1.18-.71,1.69-1.77,1.69-1.11,0-1.69-.63-1.69-1.74,0-.74,0-1.49,0-2.23,0-.02.02-.04.03-.07Z"/>
    <path class="cls-7" d="M249.96,36.11c.29-.03.56-.03.86,0,0,.49,0,.98,0,1.47,0,.37,0,.73.01,1.1.03.57.29.83.82.84.53.01.81-.23.85-.81.04-.7.03-1.4.03-2.09,0-.16,0-.33,0-.51h.85c-.02.96.07,1.93-.05,2.88-.06.53-.45.88-.96,1.04-.51.16-1.03.15-1.53-.04-.52-.2-.85-.6-.88-1.15-.04-.91-.01-1.81-.01-2.73Z"/>
    <path class="cls-7" d="M264.73,36.11h2.62c.07.2.03.42.02.66h-1.77v.88h1.63c.08.24.05.45.02.7h-1.65v1.02h1.81c.04.24.03.45.01.67h-2.7v-3.94Z"/>
    <path class="cls-7" d="M242.81,36.11v.63h-1.78v.93h1.64c.04.23.03.44,0,.67h-1.65v1.03h1.8c.09.22.03.43.05.66h-2.71v-3.92h2.64Z"/>
    <path class="cls-7" d="M294.68,36.11v.64h-1.76v.92h1.64v.67h-1.63v1.03h1.81v.67h-2.69v-3.93h2.64Z"/>
    <path class="cls-7" d="M288.16,36.77c-.04-.24-.03-.44,0-.66h3.18v.65h-1.15v3.29h-.88v-3.27h-1.15Z"/>
    <path class="cls-7" d="M286.6,40.05v-3.93h.84v3.93h-.84Z"/>
    <path class="cls-7" d="M259.22,40.05h-.85v-3.93c.29-.03.56-.03.85,0v3.93Z"/>
    <path class="cls-7" d="M243.71,38.31h1.35v.58h-1.35v-.58Z"/>
    <path class="cls-8" d="M291.56,24.81c0,.34-.32.65-.67.65-.35,0-.65-.31-.65-.66,0-.37.31-.67.68-.66.36.01.64.31.64.67ZM290.62,24.39c-.27.22-.31.46-.12.7.17.22.45.26.67.1.23-.17.29-.45.15-.67-.16-.25-.42-.29-.71-.13h0Z"/>
    <path class="cls-8" d="M290.62,24.4c.18.02.38-.05.53.13.06.19-.16.39.05.58-.24.04-.22-.16-.33-.23-.12.03.01.23-.17.24-.14-.23,0-.5-.07-.74,0,0,0,0,0,0ZM290.85,24.54c-.05.06-.05.12,0,.17.08.01.12-.02.15-.09-.03-.07-.08-.1-.15-.09Z"/>
  </g>
  <g>
    <path class="cls-8" d="M184.16,29.28c.59,0,1.18,0,1.77,0,1.09,0,2.16.73,2.56,1.77.43,1.13.26,2.18-.56,3.09-.59.65-1.33.92-2.2.92-1.08,0-2.15,0-3.23,0-1.28,0-2.38-.77-2.78-1.95-.41-1.2-.01-2.5,1.01-3.27.48-.36,1.03-.56,1.64-.56.6,0,1.2,0,1.8,0ZM184.13,34h0c.51.01,1.02.01,1.53.01,1.1,0,1.93-.79,1.95-1.84.02-.99-.81-1.85-1.86-1.87-1.08-.02-2.15-.02-3.23,0-1.03.02-1.79.77-1.86,1.77-.06.94.64,1.82,1.6,1.93.61.07,1.24.01,1.86.01Z"/>
    <path class="cls-8" d="M224.34,29.28c-.23.37-.44.69-.64,1.01-1.07,0-2.13,0-3.18,0-.91,0-1.63.51-1.85,1.33h5.35c-.19.4-.42.71-.63,1.04h-4.7c.11.73.88,1.34,1.69,1.35,1.23,0,2.47,0,3.7,0h.38c-.24.37-.45.7-.66,1.04-1.27-.02-2.53.07-3.78-.04-1.55-.14-2.65-1.51-2.55-3.07.09-1.48,1.37-2.66,2.88-2.66,1.21,0,2.42,0,3.63,0h.37Z"/>
    <path class="cls-8" d="M195.89,35.04c-.58,0-1.08,0-1.57,0-.06,0-.12-.05-.17-.09-1.05-.91-2.1-1.83-3.22-2.8.39,0,.7,0,1.02,0,.69,0,1.38,0,2.07,0,.55,0,.98-.38,1-.9.02-.52-.4-.95-.98-.96-.87-.01-1.73,0-2.6,0-.33,0-.66,0-1.02,0v4.73h-1.1v-5.71c.1-.07.21-.03.32-.03,1.51,0,3.02,0,4.53,0,1.11,0,1.97.86,1.96,1.96,0,1.09-.85,1.93-1.95,1.93-.13,0-.27,0-.51,0,.76.64,1.45,1.23,2.23,1.88Z"/>
    <path class="cls-8" d="M201.89,33.02c-.54-.87-1.03-1.67-1.56-2.52-.97,1.53-1.91,3.03-2.87,4.53h-1.27c-.03-.11.07-.19.12-.27,1.09-1.71,2.18-3.42,3.27-5.13.36-.56,1.08-.59,1.44-.05,1.17,1.79,2.31,3.6,3.49,5.43h-1.32c-.19-.31-.4-.65-.62-.99h-2.99c-.21-.32-.42-.64-.66-1.01h2.96Z"/>
    <path class="cls-8" d="M210.8,29.32c-.2.32-.4.63-.61.97-1.04,0-2.08,0-3.13,0-.62,0-1.16.18-1.56.67-.48.58-.6,1.24-.3,1.92.31.71.88,1.11,1.66,1.12,1.23.02,2.46,0,3.7,0,.11,0,.21,0,.37,0-.24.37-.45.7-.64,1.01-1.29,0-2.55.07-3.8-.02-1.54-.11-2.64-1.48-2.55-3.03.09-1.53,1.34-2.7,2.87-2.7,1.21,0,2.42,0,3.63,0,.11,0,.22-.03.35.05Z"/>
    <path class="cls-8" d="M211.41,29.29h1.13v4.72h5.15c-.17.4-.42.69-.63,1.03h-.77c-1.38,0-2.75,0-4.13,0-.57,0-.74-.17-.74-.73,0-1.66,0-3.33,0-5.02Z"/>
    <path class="cls-8" d="M226.1,29.9c0,.34-.32.65-.67.65-.35,0-.65-.31-.65-.66,0-.37.31-.67.68-.66.36.01.64.31.64.67ZM225.17,29.49c-.27.22-.31.46-.12.7.17.22.45.26.67.1.23-.17.29-.45.15-.67-.16-.25-.42-.29-.71-.13h0Z"/>
    <path class="cls-8" d="M225.17,29.49c.18.02.38-.05.53.13.06.19-.16.39.05.58-.24.04-.22-.16-.33-.23-.12.03.01.23-.17.24-.14-.23,0-.5-.07-.74,0,0,0,0,0,0ZM225.4,29.64c-.05.06-.05.12,0,.17.08.01.12-.02.15-.09-.03-.07-.08-.1-.15-.09Z"/>
  </g>
</svg>