<?xml version="1.0" encoding="UTF-8"?>
<svg xmlns="http://www.w3.org/2000/svg" xmlns:xlink="http://www.w3.org/1999/xlink" viewBox="0 0 103 97">
  <defs>
    <style>
      .cls-1 {
        letter-spacing: -.01em;
      }

      .cls-2 {
        font-family: BebasNeue-Book, 'Bebas Neue';
      }

      .cls-3 {
        fill: #00aeef;
      }

      .cls-4 {
        letter-spacing: -.01em;
      }

      .cls-5 {
        letter-spacing: 0em;
      }

      .cls-6 {
        fill: none;
      }

      .cls-7 {
        isolation: isolate;
      }

      .cls-8 {
        font-size: 14.63px;
      }

      .cls-9 {
        fill: #fff;
        mix-blend-mode: soft-light;
      }

      .cls-10 {
        font-family: BebasNeueBold, 'Bebas Neue';
      }

      .cls-11 {
        letter-spacing: -.02em;
      }
    </style>
    <clipPath id="clippath">
      <rect class="cls-6" x="533.83" y="-259.66" width="960.22" height="540.01"/>
    </clipPath>
  </defs>
  <g class="cls-7">
    <g id="Capa_1" data-name="Capa 1">
      <g>
        <rect class="cls-9" width="102.46" height="96.94" rx="5" ry="5"/>
        <text class="cls-8" transform="translate(27.85 71.35)"><tspan class="cls-10"><tspan x="0" y="0">Soft</tspan><tspan class="cls-11" x="21.51" y="0">w</tspan><tspan x="29.53" y="0">are</tspan></tspan><tspan class="cls-2"><tspan class="cls-4" x="3.86" y="13.05">F</tspan><tspan class="cls-5" x="8.58" y="13.05">a</tspan><tspan x="14.95" y="13.05">cto</tspan><tspan class="cls-1" x="31.32" y="13.05">r</tspan><tspan x="36.83" y="13.05">y</tspan></tspan></text>
        <g>
          <path class="cls-3" d="M66.44,23.36h-.52c-5.23,0-10.45,0-15.68,0-.17,0-.35,0-.51-.02-.64-.12-1.08-.72-1.02-1.36.06-.62.57-1.11,1.21-1.15.13,0,.26,0,.4,0,5.2,0,10.4,0,15.6,0h.5v-2.51h-30.36v25.32h.44c4.41,0,8.82,0,13.23,0,.21,0,.43,0,.62.07.59.17.95.74.89,1.34-.07.59-.55,1.07-1.15,1.12-.12.01-.24,0-.36,0-4.9,0-9.79,0-14.69,0-1.07,0-1.54-.47-1.54-1.55,0-9.11,0-18.21,0-27.32,0-1.09.45-1.55,1.53-1.55,10.81,0,21.62,0,32.43,0,1.05,0,1.52.47,1.53,1.52,0,3.26,0,6.52,0,9.78,0,.98-.84,1.61-1.69,1.3-.52-.19-.83-.64-.84-1.22,0-1.1,0-2.19,0-3.29,0-.14,0-.29,0-.48Z"/>
          <path class="cls-3" d="M51.23,37.3c0-4.87,3.97-8.85,8.83-8.86,4.94,0,8.92,3.96,8.91,8.89,0,4.84-3.99,8.85-8.81,8.84-4.97,0-8.93-3.94-8.93-8.87ZM66.44,37.3c-.01-3.5-2.85-6.34-6.31-6.34-3.54,0-6.36,2.84-6.36,6.37,0,3.48,2.88,6.31,6.39,6.3,3.45-.01,6.29-2.88,6.28-6.33Z"/>
          <path class="cls-3" d="M43.62,37.24s.06.04.07.05c.9.1,1.32.89,1.19,1.52-.16.77-.86,1.16-1.75.97-1.19-.25-2-1.24-2.02-2.45,0-.42,0-.84,0-1.27-.02-.73-.51-1.24-1.23-1.29-.78-.06-1.3-.56-1.3-1.27,0-.71.52-1.21,1.3-1.27.73-.05,1.22-.56,1.24-1.29,0-.45,0-.9,0-1.35.04-1.29,1.09-2.36,2.37-2.43.73-.04,1.32.42,1.42,1.09.09.66-.34,1.24-1.04,1.42-.06.02-.13.02-.17.03-.04.69,0,1.37-.15,2.02-.14.62-.49,1.2-.77,1.88.92.98.94,2.31.87,3.63Z"/>
          <path class="cls-3" d="M49.27,32.23c-.22,0-.45.01-.67,0-.66-.05-1.17-.61-1.17-1.27,0-.66.52-1.22,1.18-1.25.47-.02.95-.02,1.42,0,.66.03,1.19.59,1.19,1.25,0,.67-.52,1.24-1.2,1.28-.25.01-.5,0-.75,0h0Z"/>
          <path class="cls-3" d="M39.83,20.83c.69,0,1.26.58,1.25,1.27,0,.7-.59,1.28-1.3,1.26-.69-.02-1.25-.6-1.23-1.29.01-.69.58-1.25,1.28-1.24Z"/>
          <path class="cls-3" d="M46.16,22.1c0,.69-.57,1.26-1.26,1.26-.71,0-1.28-.58-1.27-1.29.01-.69.59-1.25,1.28-1.24.69,0,1.25.58,1.25,1.27Z"/>
          <path class="cls-3" d="M49.96,36.03c0,.69-.56,1.26-1.25,1.27-.71,0-1.29-.58-1.28-1.28,0-.69.58-1.25,1.27-1.25.69,0,1.26.58,1.26,1.26Z"/>
          <path class="cls-3" d="M59.09,37.44c.86-1.16,1.67-2.26,2.48-3.36.33-.44.76-.65,1.31-.54.51.1.84.42.98.93.11.4.02.76-.22,1.08-1.25,1.68-2.5,3.36-3.77,5.02-.62.81-1.67.71-2.14-.19-.41-.79-.81-1.59-1.2-2.4-.32-.67-.08-1.4.56-1.71.64-.32,1.35-.07,1.7.6.09.17.18.35.3.58Z"/>
        </g>
      </g>
    </g>
  </g>
</svg>