<?xml version="1.0" encoding="UTF-8"?>
<svg xmlns="http://www.w3.org/2000/svg" xmlns:xlink="http://www.w3.org/1999/xlink" viewBox="0 0 103 97">
  <defs>
    <style>
      .cls-1 {
        fill: #00aeef;
      }

      .cls-2 {
        fill: none;
      }

      .cls-3 {
        isolation: isolate;
      }

      .cls-4 {
        fill: #fff;
        mix-blend-mode: soft-light;
      }
    </style>
    <clipPath id="clippath">
      <rect class="cls-2" x="533.83" y="-259.66" width="960.22" height="540.01"/>
    </clipPath>
  </defs>
  <g class="cls-3">
    <g id="Capa_1" data-name="Capa 1">
      <rect class="cls-4" width="102.46" height="96.94" rx="5" ry="5"/>
      <g>
        <path d="M30.6,60.99c1.56,0,2.37.94,2.37,2.58v.32h-1.52v-.42c0-.73-.29-1.01-.8-1.01s-.8.28-.8,1.01c0,2.11,3.15,2.5,3.15,5.43,0,1.64-.82,2.58-2.4,2.58s-2.4-.94-2.4-2.58v-.63h1.52v.73c0,.73.32,1,.83,1s.83-.26.83-1c0-2.11-3.15-2.5-3.15-5.43,0-1.64.8-2.58,2.37-2.58Z"/>
        <path d="M33.78,63.56c0-1.64.86-2.58,2.44-2.58s2.44.94,2.44,2.58v5.33c0,1.64-.86,2.58-2.44,2.58s-2.44-.94-2.44-2.58v-5.33ZM35.39,68.99c0,.73.32,1.01.83,1.01s.83-.28.83-1.01v-5.53c0-.73-.32-1.01-.83-1.01s-.83.28-.83,1.01v5.53Z"/>
        <path d="M41.31,65.66h2.08v1.46h-2.08v4.23h-1.61v-10.24h4.26v1.46h-2.65v3.09Z"/>
        <path d="M44.27,61.1h4.97v1.46h-1.68v8.78h-1.61v-8.78h-1.68v-1.46Z"/>
        <path d="M53.52,65.89l-.59,5.46h-2.21l-1.14-10.24h1.57l.86,8.08.78-8.08h1.55l.8,8.14.83-8.14h1.4l-1.14,10.24h-2.14l-.58-5.46Z"/>
        <path d="M63.18,71.35h-1.62l-.28-1.86h-1.97l-.28,1.86h-1.48l1.64-10.24h2.36l1.64,10.24ZM59.5,68.1h1.55l-.78-5.18-.78,5.18Z"/>
        <path d="M67.29,71.35c-.09-.26-.15-.42-.15-1.26v-1.61c0-.95-.32-1.3-1.05-1.3h-.55v4.17h-1.61v-10.24h2.43c1.67,0,2.38.78,2.38,2.36v.8c0,1.05-.34,1.74-1.05,2.08.8.34,1.07,1.11,1.07,2.18v1.58c0,.5.01.86.18,1.24h-1.64ZM65.53,62.57v3.15h.63c.6,0,.96-.26.96-1.08v-1.01c0-.73-.25-1.05-.82-1.05h-.78Z"/>
        <path d="M71.42,65.42h2.21v1.46h-2.21v3h2.78v1.46h-4.39v-10.24h4.39v1.46h-2.78v2.85Z"/>
        <path d="M35.62,79.76h-2.65v4.64h-.67v-10.24h3.89v.61h-3.22v4.38h2.65v.61Z"/>
        <path d="M37.49,84.4h-.61l2.24-10.26h.98l2.28,10.26h-.67l-.51-2.27h-3.19l-.51,2.27ZM41.09,81.54l-1.51-6.63-1.48,6.63h2.98Z"/>
        <path d="M47.22,74.78c.36.47.54,1.1.54,1.88v.85h-.64v-.89c0-.58-.12-1.05-.37-1.4-.25-.35-.64-.53-1.18-.53s-.93.18-1.18.53c-.25.35-.37.82-.37,1.4v5.33c0,.58.12,1.05.37,1.4.25.35.64.52,1.18.52s.93-.17,1.18-.52c.25-.35.37-.81.37-1.4v-1.21h.64v1.17c0,.78-.18,1.41-.54,1.88-.36.47-.92.71-1.67.71s-1.31-.24-1.67-.71c-.36-.47-.54-1.1-.54-1.88v-5.24c0-.78.18-1.41.54-1.88.36-.47.92-.71,1.67-.71s1.31.24,1.67.71Z"/>
        <path d="M50.59,74.77h-2.08v-.61h4.84v.61h-2.09v9.63h-.67v-9.63Z"/>
        <path d="M54.71,74.78c.38-.47.93-.71,1.68-.71s1.33.23,1.71.7c.38.47.56,1.1.56,1.89v5.24c0,.79-.19,1.42-.56,1.89-.38.47-.95.7-1.71.7s-1.3-.24-1.68-.71c-.38-.47-.56-1.1-.56-1.88v-5.24c0-.78.19-1.41.56-1.88ZM55.2,83.35c.25.35.65.52,1.19.52s.95-.17,1.21-.52.39-.82.39-1.41v-5.33c0-.59-.13-1.07-.39-1.41-.26-.35-.66-.52-1.21-.52s-.93.17-1.19.52c-.25.35-.38.82-.38,1.41v5.33c0,.59.13,1.07.38,1.41Z"/>
        <path d="M64.09,76.47v.89c0,.6-.12,1.08-.36,1.43-.24.35-.61.58-1.12.69.99.21,1.48.91,1.48,2.09v1.6c0,.57.08.98.25,1.23h-.7c-.09-.15-.15-.31-.18-.5s-.04-.43-.04-.72v-1.61c0-.64-.16-1.09-.48-1.35-.32-.26-.8-.39-1.43-.39h-1.07v4.58h-.67v-10.24h2.14c1.46,0,2.2.77,2.2,2.31ZM62.95,78.84c.31-.24.47-.69.47-1.35v-.97c0-.58-.12-1.01-.37-1.31-.24-.3-.63-.45-1.17-.45h-1.45v4.43h1.08c.64,0,1.12-.12,1.43-.37Z"/>
        <path d="M65.07,74.15h.7l1.96,5.38,1.96-5.38h.66l-2.31,6.31v3.94h-.67v-3.94l-2.3-6.31Z"/>
      </g>
      <g>
        <path class="cls-1" d="M66.44,23.36h-.52c-5.23,0-10.45,0-15.68,0-.17,0-.35,0-.51-.02-.64-.12-1.08-.72-1.02-1.36.06-.62.57-1.11,1.21-1.15.13,0,.26,0,.4,0,5.2,0,10.4,0,15.6,0h.5v-2.51h-30.36v25.32h.44c4.41,0,8.82,0,13.23,0,.21,0,.43,0,.62.07.59.17.95.74.89,1.34-.07.59-.55,1.07-1.15,1.12-.12.01-.24,0-.36,0-4.9,0-9.79,0-14.69,0-1.07,0-1.54-.47-1.54-1.55,0-9.11,0-18.21,0-27.32,0-1.09.45-1.55,1.53-1.55,10.81,0,21.62,0,32.43,0,1.05,0,1.52.47,1.53,1.52,0,3.26,0,6.52,0,9.78,0,.98-.84,1.61-1.69,1.3-.52-.19-.83-.64-.84-1.22,0-1.1,0-2.19,0-3.29,0-.14,0-.29,0-.48Z"/>
        <path class="cls-1" d="M51.23,37.3c0-4.87,3.97-8.85,8.83-8.86,4.94,0,8.92,3.96,8.91,8.89,0,4.84-3.99,8.85-8.81,8.84-4.97,0-8.93-3.94-8.93-8.87ZM66.44,37.3c-.01-3.5-2.85-6.34-6.31-6.34-3.54,0-6.36,2.84-6.36,6.37,0,3.48,2.88,6.31,6.39,6.3,3.45-.01,6.29-2.88,6.28-6.33Z"/>
        <path class="cls-1" d="M43.62,37.24s.06.04.07.05c.9.1,1.32.89,1.19,1.52-.16.77-.86,1.16-1.75.97-1.19-.25-2-1.24-2.02-2.45,0-.42,0-.84,0-1.27-.02-.73-.51-1.24-1.23-1.29-.78-.06-1.3-.56-1.3-1.27,0-.71.52-1.21,1.3-1.27.73-.05,1.22-.56,1.24-1.29,0-.45,0-.9,0-1.35.04-1.29,1.09-2.36,2.37-2.43.73-.04,1.32.42,1.42,1.09.09.66-.34,1.24-1.04,1.42-.06.02-.13.02-.17.03-.04.69,0,1.37-.15,2.02-.14.62-.49,1.2-.77,1.88.92.98.94,2.31.87,3.63Z"/>
        <path class="cls-1" d="M49.27,32.23c-.22,0-.45.01-.67,0-.66-.05-1.17-.61-1.17-1.27,0-.66.52-1.22,1.18-1.25.47-.02.95-.02,1.42,0,.66.03,1.19.59,1.19,1.25,0,.67-.52,1.24-1.2,1.28-.25.01-.5,0-.75,0h0Z"/>
        <path class="cls-1" d="M39.83,20.83c.69,0,1.26.58,1.25,1.27,0,.7-.59,1.28-1.3,1.26-.69-.02-1.25-.6-1.23-1.29.01-.69.58-1.25,1.28-1.24Z"/>
        <path class="cls-1" d="M46.16,22.1c0,.69-.57,1.26-1.26,1.26-.71,0-1.28-.58-1.27-1.29.01-.69.59-1.25,1.28-1.24.69,0,1.25.58,1.25,1.27Z"/>
        <path class="cls-1" d="M49.96,36.03c0,.69-.56,1.26-1.25,1.27-.71,0-1.29-.58-1.28-1.28,0-.69.58-1.25,1.27-1.25.69,0,1.26.58,1.26,1.26Z"/>
        <path class="cls-1" d="M59.09,37.44c.86-1.16,1.67-2.26,2.48-3.36.33-.44.76-.65,1.31-.54.51.1.84.42.98.93.11.4.02.76-.22,1.08-1.25,1.68-2.5,3.36-3.77,5.02-.62.81-1.67.71-2.14-.19-.41-.79-.81-1.59-1.2-2.4-.32-.67-.08-1.4.56-1.71.64-.32,1.35-.07,1.7.6.09.17.18.35.3.58Z"/>
      </g>
    </g>
  </g>
</svg>