<?xml version="1.0" encoding="UTF-8"?>
<svg xmlns="http://www.w3.org/2000/svg" xmlns:xlink="http://www.w3.org/1999/xlink" viewBox="0 0 103 97">
  <defs>
    <style>
      .cls-1 {
        fill: #00aeef;
      }

      .cls-2 {
        fill: none;
      }

      .cls-3 {
        isolation: isolate;
      }

      .cls-4 {
        fill: #fff;
        mix-blend-mode: soft-light;
      }
    </style>
    <clipPath id="clippath">
      <rect class="cls-2" x="420.83" y="-471.66" width="960.22" height="540.01"/>
    </clipPath>
  </defs>
  <g class="cls-3">
    <g id="Capa_1" data-name="Capa 1">
      <rect class="cls-4" width="102.46" height="96.94" rx="5" ry="5"/>
      <g>
        <path class="cls-1" d="M60.72,33.38h-18.99c-1.73,0-3.14-1.41-3.14-3.14v-13.04c0-1.73,1.41-3.14,3.14-3.14h18.99c1.73,0,3.14,1.41,3.14,3.14v13.04c0,1.73-1.41,3.14-3.14,3.14ZM41.74,16.41c-.43,0-.79.35-.79.79v13.04c0,.43.35.79.79.79h18.99c.43,0,.79-.35.79-.79v-13.04c0-.43-.35-.79-.79-.79h-18.99Z"/>
        <g>
          <circle class="cls-1" cx="40.56" cy="39.37" r="3.04"/>
          <path class="cls-1" d="M45.13,47.88c0-2.52-2.04-4.57-4.57-4.57s-4.57,2.04-4.57,4.57h9.13Z"/>
        </g>
        <g>
          <circle class="cls-1" cx="51.23" cy="39.37" r="3.04"/>
          <path class="cls-1" d="M55.79,47.88c0-2.52-2.04-4.57-4.57-4.57s-4.57,2.04-4.57,4.57h9.13Z"/>
        </g>
        <g>
          <circle class="cls-1" cx="61.9" cy="39.37" r="3.04"/>
          <path class="cls-1" d="M66.46,47.88c0-2.52-2.04-4.57-4.57-4.57s-4.57,2.04-4.57,4.57h9.13Z"/>
        </g>
        <polygon class="cls-1" points="44.27 27.85 43.6 27.19 49.22 21.56 52.99 25.33 58.19 20.13 58.86 20.79 52.99 26.66 49.22 22.9 44.27 27.85"/>
        <circle class="cls-1" cx="43.93" cy="27.52" r="1.21"/>
        <circle class="cls-1" cx="49.24" cy="22.22" r="1.21"/>
        <circle class="cls-1" cx="52.99" cy="26.02" r="1.21"/>
        <circle class="cls-1" cx="58.53" cy="20.57" r="1.21"/>
      </g>
      <g>
        <path d="M24.44,63.64v1.33c0,1.64-.79,2.53-2.4,2.53h-.76v3.85h-1.61v-10.24h2.37c1.61,0,2.4.89,2.4,2.53ZM21.28,62.57v3.47h.76c.51,0,.79-.23.79-.97v-1.54c0-.73-.28-.97-.79-.97h-.76Z"/>
        <path d="M28.62,71.35c-.09-.26-.15-.42-.15-1.26v-1.61c0-.95-.32-1.3-1.05-1.3h-.56v4.17h-1.61v-10.24h2.43c1.67,0,2.38.78,2.38,2.36v.8c0,1.05-.34,1.74-1.05,2.08.81.34,1.07,1.11,1.07,2.18v1.58c0,.5.01.86.18,1.24h-1.64ZM26.87,62.57v3.15h.63c.6,0,.97-.26.97-1.08v-1.01c0-.73-.25-1.05-.82-1.05h-.78Z"/>
        <path d="M31.01,63.56c0-1.64.86-2.58,2.44-2.58s2.44.94,2.44,2.58v5.33c0,1.64-.86,2.58-2.44,2.58s-2.44-.94-2.44-2.58v-5.33ZM32.62,68.99c0,.73.32,1.01.83,1.01s.83-.28.83-1.01v-5.53c0-.73-.32-1.01-.83-1.01s-.83.28-.83,1.01v5.53Z"/>
        <path d="M38.54,65.66h2.08v1.46h-2.08v4.23h-1.61v-10.24h4.26v1.46h-2.65v3.09Z"/>
        <path d="M43.58,65.42h2.21v1.46h-2.21v3h2.78v1.46h-4.39v-10.24h4.39v1.46h-2.78v2.85Z"/>
        <path d="M49.52,60.99c1.57,0,2.37.94,2.37,2.58v.32h-1.52v-.42c0-.73-.29-1.01-.8-1.01s-.8.28-.8,1.01c0,2.11,3.15,2.5,3.15,5.43,0,1.64-.82,2.58-2.4,2.58s-2.4-.94-2.4-2.58v-.63h1.52v.73c0,.73.32,1,.83,1s.83-.26.83-1c0-2.11-3.15-2.5-3.15-5.43,0-1.64.8-2.58,2.37-2.58Z"/>
        <path d="M54.99,60.99c1.57,0,2.37.94,2.37,2.58v.32h-1.52v-.42c0-.73-.29-1.01-.8-1.01s-.8.28-.8,1.01c0,2.11,3.15,2.5,3.15,5.43,0,1.64-.82,2.58-2.4,2.58s-2.4-.94-2.4-2.58v-.63h1.52v.73c0,.73.32,1,.83,1s.83-.26.83-1c0-2.11-3.15-2.5-3.15-5.43,0-1.64.8-2.58,2.37-2.58Z"/>
        <path d="M58.3,61.1h1.61v10.24h-1.61v-10.24Z"/>
        <path d="M60.95,63.56c0-1.64.86-2.58,2.44-2.58s2.44.94,2.44,2.58v5.33c0,1.64-.86,2.58-2.44,2.58s-2.44-.94-2.44-2.58v-5.33ZM62.56,68.99c0,.73.32,1.01.83,1.01s.83-.28.83-1.01v-5.53c0-.73-.32-1.01-.83-1.01s-.83.28-.83,1.01v5.53Z"/>
        <path d="M68.31,63.93v7.42h-1.45v-10.24h2.02l1.65,6.13v-6.13h1.43v10.24h-1.65l-2-7.42Z"/>
        <path d="M78.33,71.35h-1.62l-.28-1.86h-1.98l-.28,1.86h-1.48l1.64-10.24h2.36l1.64,10.24ZM74.66,68.1h1.55l-.78-5.18-.78,5.18Z"/>
        <path d="M79.08,61.1h1.61v8.78h2.65v1.46h-4.26v-10.24Z"/>
        <path d="M34.58,74.77h-2.08v-.61h4.84v.61h-2.09v9.63h-.67v-9.63Z"/>
        <path d="M42.51,76.47v.89c0,.6-.12,1.08-.36,1.43-.24.35-.61.58-1.12.69.99.21,1.48.91,1.48,2.09v1.6c0,.57.08.98.25,1.23h-.7c-.09-.15-.15-.31-.17-.5-.03-.19-.04-.43-.04-.72v-1.61c0-.64-.16-1.09-.48-1.35-.32-.26-.8-.39-1.43-.39h-1.07v4.58h-.67v-10.24h2.14c1.46,0,2.2.77,2.2,2.31ZM41.37,78.84c.31-.24.47-.69.47-1.35v-.97c0-.58-.12-1.01-.37-1.31-.24-.3-.63-.45-1.17-.45h-1.45v4.43h1.08c.64,0,1.12-.12,1.43-.37Z"/>
        <path d="M44.3,84.4h-.61l2.24-10.26h.98l2.28,10.26h-.67l-.51-2.27h-3.19l-.51,2.27ZM47.9,81.54l-1.51-6.63-1.48,6.63h2.99Z"/>
        <path d="M50.88,84.4h-.67v-10.24h.67v10.24Z"/>
        <path d="M52.05,84.4v-10.24h.88l3.07,8.65v-8.65h.62v10.24h-.75l-3.2-9.13v9.13h-.62Z"/>
        <path d="M58.45,84.4h-.67v-10.24h.67v10.24Z"/>
        <path d="M59.62,84.4v-10.24h.88l3.07,8.65v-8.65h.62v10.24h-.75l-3.2-9.13v9.13h-.62Z"/>
        <path d="M69.18,74.78c.36.47.54,1.1.54,1.88v.76h-.64v-.81c0-.58-.12-1.05-.37-1.4-.25-.35-.64-.53-1.18-.53s-.93.18-1.18.53c-.25.35-.37.82-.37,1.4v5.33c0,.58.12,1.05.37,1.4s.64.52,1.18.52.93-.17,1.18-.52c.25-.35.37-.81.37-1.4v-2.21h-1.36v-.61h2v2.78c0,.78-.18,1.41-.54,1.88-.36.47-.92.71-1.67.71s-1.31-.24-1.67-.71c-.36-.47-.54-1.1-.54-1.88v-5.24c0-.78.18-1.41.54-1.88.36-.47.92-.71,1.67-.71s1.31.24,1.67.71Z"/>
      </g>
    </g>
  </g>
</svg>