<?xml version="1.0" encoding="UTF-8"?>
<svg xmlns="http://www.w3.org/2000/svg" xmlns:xlink="http://www.w3.org/1999/xlink" viewBox="0 0 103 97">
  <defs>
    <style>
      .cls-1 {
        font-family: BebasNeue-Book, 'Bebas Neue';
      }

      .cls-2 {
        fill: #00aeef;
      }

      .cls-3 {
        fill: none;
      }

      .cls-4 {
        isolation: isolate;
      }

      .cls-5 {
        font-size: 14.63px;
      }

      .cls-6 {
        fill: #fff;
        mix-blend-mode: soft-light;
      }

      .cls-7 {
        font-family: BebasNeueBold, 'Bebas Neue';
      }
    </style>
    <clipPath id="clippath">
      <rect class="cls-3" x="307.83" y="-471.66" width="960.22" height="540.01"/>
    </clipPath>
  </defs>
  <g class="cls-4">
    <g id="Capa_1" data-name="Capa 1">
      <g>
        <rect class="cls-6" width="102.46" height="96.94" rx="5" ry="5"/>
        <text class="cls-5" transform="translate(46.86 71.35)"><tspan class="cls-7"><tspan x="0" y="0">IA</tspan></tspan><tspan class="cls-1"><tspan x="-6.75" y="13.05">Labs</tspan></tspan></text>
        <g>
          <path class="cls-2" d="M64.6,14.99h-7.57c-1.99,0-3.62,1.62-3.62,3.62v.53c0,1.61,1.06,2.98,2.52,3.45v19.71c0,1.29.87,4.64,4.87,4.64s4.87-3.35,4.87-4.64v-19.71c1.47-.46,2.54-1.83,2.54-3.45v-.53c0-1.99-1.62-3.62-3.62-3.62ZM66.03,19.14c0,.79-.64,1.43-1.43,1.43h-.02c-.6,0-1.09.49-1.09,1.09v20.64c0,.25-.08,2.45-2.68,2.45s-2.68-2.05-2.68-2.45v-3.99h2.69c.32,0,.59-.26.59-.59s-.26-.59-.59-.59h-2.69v-2.31h2.69c.32,0,.59-.26.59-.59s-.26-.59-.59-.59h-2.69v-2.16h2.69c.32,0,.59-.26.59-.59s-.26-.59-.59-.59h-2.69v-2.12h2.69c.32,0,.59-.26.59-.59s-.26-.59-.59-.59h-2.69v-2.34h2.69c.32,0,.59-.26.59-.59s-.26-.59-.59-.59h-2.69v-1.83c0-.6-.49-1.09-1.09-1.09-.79,0-1.43-.64-1.43-1.43v-.53c0-.79.64-1.43,1.43-1.43h7.57c.79,0,1.43.64,1.43,1.43v.53Z"/>
          <path class="cls-2" d="M53.56,30.31h-14.51c-.26-1.06-1.22-1.85-2.37-1.85-1.35,0-2.44,1.09-2.44,2.44s1.09,2.44,2.44,2.44c1.14,0,2.1-.79,2.37-1.85h14.51c.32,0,.59-.26.59-.59s-.26-.59-.59-.59Z"/>
          <path class="cls-2" d="M53.56,27.01h-6.64l-3.35-3.35c-.11-.11-.26-.17-.42-.17h-1.94c-.26-1.06-1.22-1.85-2.37-1.85-1.35,0-2.44,1.09-2.44,2.44s1.09,2.44,2.44,2.44c1.14,0,2.1-.79,2.37-1.85h1.7l3.35,3.35c.11.11.26.17.42.17h6.89c.32,0,.59-.26.59-.59s-.26-.59-.59-.59Z"/>
          <path class="cls-2" d="M53.56,23.49h-3.08l-3.62-3.62c.22-.37.35-.8.35-1.26,0-1.35-1.09-2.44-2.44-2.44s-2.44,1.09-2.44,2.44,1.09,2.44,2.44,2.44c.46,0,.89-.13,1.26-.35l3.79,3.79c.11.11.26.17.42.17h3.32c.32,0,.59-.26.59-.59s-.26-.59-.59-.59Z"/>
          <path class="cls-2" d="M53.56,33.65h-6.89c-.16,0-.31.06-.42.17l-3.35,3.35h-1.7c-.26-1.06-1.22-1.85-2.37-1.85-1.35,0-2.44,1.09-2.44,2.44s1.09,2.44,2.44,2.44c1.14,0,2.1-.79,2.37-1.85h1.94c.16,0,.31-.06.42-.17l3.35-3.35h6.64c.32,0,.59-.26.59-.59s-.26-.59-.59-.59Z"/>
          <path class="cls-2" d="M53.56,37.17h-3.32c-.16,0-.31.06-.42.17l-3.79,3.79c-.37-.22-.8-.35-1.26-.35-1.35,0-2.44,1.09-2.44,2.44s1.09,2.44,2.44,2.44,2.44-1.09,2.44-2.44c0-.46-.13-.89-.35-1.26l3.62-3.62h3.08c.32,0,.59-.26.59-.59s-.26-.59-.59-.59Z"/>
        </g>
      </g>
    </g>
  </g>
</svg>