<?xml version="1.0" encoding="UTF-8"?>
<svg xmlns="http://www.w3.org/2000/svg" xmlns:xlink="http://www.w3.org/1999/xlink" viewBox="0 0 103 97">
  <defs>
    <style>
      .cls-1 {
        fill: #00aeef;
      }

      .cls-2 {
        fill: none;
      }

      .cls-3 {
        isolation: isolate;
      }

      .cls-4 {
        fill: #fff;
        mix-blend-mode: soft-light;
      }
    </style>
    <clipPath id="clippath">
      <rect class="cls-2" x="420.83" y="-259.66" width="960.22" height="540.01"/>
    </clipPath>
  </defs>
  <g class="cls-3">
    <g id="Capa_1" data-name="Capa 1">
      <rect class="cls-4" width="102.46" height="96.94" rx="5" ry="5"/>
      <g>
        <path d="M34.28,71.35h-1.62l-.28-1.86h-1.98l-.28,1.86h-1.48l1.64-10.24h2.36l1.64,10.24ZM30.6,68.1h1.55l-.78-5.18-.78,5.18Z"/>
        <path d="M36.46,63.93v7.42h-1.45v-10.24h2.02l1.65,6.13v-6.13h1.43v10.24h-1.65l-2-7.42Z"/>
        <path d="M46.48,71.35h-1.62l-.28-1.86h-1.98l-.28,1.86h-1.48l1.64-10.24h2.36l1.64,10.24ZM42.81,68.1h1.55l-.78-5.18-.78,5.18Z"/>
        <path d="M47.23,61.1h1.61v8.78h2.65v1.46h-4.26v-10.24Z"/>
        <path d="M54.72,58.94l-1.49,1.62h-1.08l1-1.62h1.58ZM52.19,61.1h1.61v10.24h-1.61v-10.24Z"/>
        <path d="M54.5,61.1h4.98v1.46h-1.68v8.78h-1.61v-8.78h-1.68v-1.46Z"/>
        <path d="M60.18,61.1h1.61v10.24h-1.61v-10.24Z"/>
        <path d="M67.63,67.53v1.36c0,1.64-.82,2.58-2.4,2.58s-2.4-.94-2.4-2.58v-5.33c0-1.64.82-2.58,2.4-2.58s2.4.94,2.4,2.58v1h-1.52v-1.1c0-.73-.32-1.01-.83-1.01s-.83.28-.83,1.01v5.53c0,.73.32,1,.83,1s.83-.26.83-1v-1.46h1.52Z"/>
        <path d="M73.82,71.35h-1.62l-.28-1.86h-1.98l-.28,1.86h-1.48l1.64-10.24h2.36l1.64,10.24ZM70.14,68.1h1.55l-.78-5.18-.78,5.18Z"/>
        <path d="M28.2,84.4h-.61l2.24-10.26h.98l2.28,10.26h-.67l-.51-2.27h-3.19l-.51,2.27ZM31.8,81.54l-1.51-6.63-1.48,6.63h2.99Z"/>
        <path d="M36.37,83.62l2.08-9.47h.63l-2.22,10.24h-1l-2.25-10.24h.69l2.08,9.47Z"/>
        <path d="M40.2,84.4h-.61l2.24-10.26h.98l2.28,10.26h-.67l-.51-2.27h-3.19l-.51,2.27ZM43.8,81.54l-1.51-6.63-1.48,6.63h2.99Z"/>
        <path d="M46.11,84.4v-10.24h.88l3.07,8.65v-8.65h.62v10.24h-.75l-3.2-9.13v9.13h-.62Z"/>
        <path d="M51.75,84.4v-.61l3.97-9.01h-3.78v-.61h4.48v.63l-3.97,9h3.91v.61h-4.61Z"/>
        <path d="M57.98,84.4h-.61l2.24-10.26h.98l2.28,10.26h-.67l-.51-2.27h-3.19l-.51,2.27ZM61.58,81.54l-1.51-6.63-1.48,6.63h2.99Z"/>
        <path d="M67.85,74.83c.38.45.56,1.08.56,1.87v5.15c0,.79-.19,1.41-.56,1.87-.38.45-.94.68-1.71.68h-2.25v-10.24h2.25c.76,0,1.33.23,1.71.68ZM67.35,83.28c.26-.34.39-.8.39-1.4v-5.21c0-.58-.13-1.05-.39-1.39s-.67-.51-1.21-.51h-1.57v9.01h1.57c.55,0,.95-.17,1.21-.5Z"/>
        <path d="M69.98,84.4h-.61l2.24-10.26h.98l2.28,10.26h-.67l-.51-2.27h-3.19l-.51,2.27ZM73.58,81.54l-1.51-6.63-1.48,6.63h2.99Z"/>
      </g>
      <g>
        <path class="cls-1" d="M68.95,17.17c-.04.12-.09.24-.12.36-.54,1.83-2.56,2.74-4.27,1.89-.21-.1-.35-.1-.55.02-1.67,1-3.34,1.99-5.01,2.98-.17.1-.23.21-.24.42-.02,1.5-1.13,2.77-2.59,2.98-1.49.22-2.87-.64-3.37-2.07-.06-.17-.21-.34-.37-.42-1.51-.76-3.03-1.51-4.55-2.26-.18-.09-.29-.11-.47.03-.94.74-1.99.87-3.09.41-.19-.08-.31-.07-.48.06-1.8,1.35-3.61,2.7-5.42,4.05-.19.14-.2.26-.15.48.3,1.27-.03,2.36-1.05,3.17-1.01.8-2.15.91-3.29.31-1.16-.6-1.71-1.61-1.64-2.91.11-2.11,2.35-3.45,4.28-2.57.22.1.37.1.57-.05,1.76-1.33,3.53-2.65,5.31-3.96.2-.15.22-.27.15-.5-.49-1.67.48-3.39,2.15-3.83,1.67-.44,3.36.59,3.75,2.29.06.27.04.57.07.85.01.1.05.25.12.28,1.43.72,2.88,1.44,4.34,2.16.53-.88,1.28-1.44,2.29-1.57,1-.13,1.86.2,2.61.92,1.68-1,3.37-2,4.98-2.96,0-.59-.08-1.13.01-1.64.26-1.44,1.49-2.43,2.94-2.45,1.45-.02,2.68.94,3.02,2.36.02.08.05.15.08.23v.93ZM66.91,16.7c0-.56-.46-1.03-1.02-1.03-.55,0-1.02.48-1.02,1.03,0,.54.45.99,1,1,.56.01,1.03-.44,1.03-1.01ZM36.35,26.9c.01-.55-.45-1.03-1.01-1.03-.54,0-1,.44-1.02.98-.02.56.43,1.04.99,1.05.55.02,1.03-.45,1.04-1ZM56.72,22.82c0-.57-.43-1.02-1.01-1.02-.55,0-1,.44-1.01.98-.01.56.43,1.04.99,1.05.56.01,1.02-.44,1.03-1.01ZM45.53,17.73c-.57,0-1.01.42-1.02.98-.01.57.43,1.04,1,1.05.56,0,1.03-.46,1.02-1.02,0-.56-.44-1-1-1Z"/>
        <path class="cls-1" d="M68.95,47.55c-.28.57-.74.76-1.37.74-1.18-.04-2.36,0-3.54-.01-.82,0-1.2-.37-1.2-1.2,0-6.67,0-13.34,0-20.02,0-.8.38-1.19,1.18-1.19,1.19,0,2.39.02,3.58,0,.63-.01,1.09.18,1.34.78v20.92ZM64.91,27.93v18.29h1.99v-18.29h-1.99Z"/>
        <path class="cls-1" d="M42.46,38.07c0-2.96,0-5.92,0-8.88,0-.92.36-1.28,1.28-1.28,1.15,0,2.29.04,3.44-.01,1.14-.05,1.42.55,1.42,1.4-.02,4.86,0,9.72,0,14.57,0,1.05,0,2.1,0,3.15,0,.88-.37,1.24-1.24,1.24-1.21,0-2.41,0-3.62,0-.91,0-1.27-.36-1.27-1.29,0-2.97,0-5.94,0-8.92ZM46.51,46.23v-16.28h-1.99v16.28h1.99Z"/>
        <path class="cls-1" d="M52.65,40.14c0-2.28,0-4.56,0-6.84,0-.97.34-1.32,1.31-1.32,1.2,0,2.41,0,3.61,0,.82,0,1.2.39,1.2,1.21,0,4.62,0,9.23,0,13.85,0,.85-.38,1.22-1.22,1.22-1.22,0-2.43,0-3.65,0-.89,0-1.25-.36-1.25-1.27,0-2.29,0-4.58,0-6.87ZM54.72,34.03v12.19h1.98v-12.19h-1.98Z"/>
        <path class="cls-1" d="M38.38,42.17c0,1.62,0,3.25,0,4.87,0,.88-.36,1.23-1.24,1.23-1.24,0-2.48,0-3.72,0-.75,0-1.14-.4-1.15-1.15,0-3.31,0-6.61,0-9.92,0-.74.38-1.14,1.12-1.15,1.29-.01,2.58-.01,3.87,0,.74,0,1.12.4,1.12,1.14,0,1.66,0,3.32,0,4.98ZM36.33,46.24v-8.13h-1.99v8.13h1.99Z"/>
      </g>
    </g>
  </g>
</svg>