<?xml version="1.0" encoding="UTF-8"?>
<svg xmlns="http://www.w3.org/2000/svg" xmlns:xlink="http://www.w3.org/1999/xlink" viewBox="0 0 103 97">
  <defs>
    <style>
      .cls-1 {
        fill: #00aeef;
      }

      .cls-2 {
        fill: none;
      }

      .cls-3 {
        isolation: isolate;
      }

      .cls-4 {
        fill: #fff;
        mix-blend-mode: soft-light;
      }
    </style>
    <clipPath id="clippath">
      <rect class="cls-2" x="307.83" y="-259.66" width="960.22" height="540.01"/>
    </clipPath>
  </defs>
  <g class="cls-3">
    <g id="Capa_1" data-name="Capa 1">
      <rect class="cls-4" width="102.46" height="96.94" rx="5" ry="5"/>
      <g>
        <path d="M16.18,61.1h1.61v10.24h-1.61v-10.24Z"/>
        <path d="M20.4,63.93v7.42h-1.45v-10.24h2.02l1.65,6.13v-6.13h1.43v10.24h-1.65l-2-7.42Z"/>
        <path d="M24.74,61.1h4.98v1.46h-1.68v8.78h-1.61v-8.78h-1.68v-1.46Z"/>
        <path d="M32.03,65.42h2.21v1.46h-2.21v3h2.78v1.46h-4.39v-10.24h4.39v1.46h-2.78v2.85Z"/>
        <path d="M38.22,65.64h2.25v3.25c0,1.64-.82,2.58-2.4,2.58s-2.4-.94-2.4-2.58v-5.33c0-1.64.82-2.58,2.4-2.58s2.4.94,2.4,2.58v1h-1.52v-1.1c0-.73-.32-1.01-.83-1.01s-.83.28-.83,1.01v5.53c0,.73.32,1,.83,1s.83-.26.83-1v-1.89h-.73v-1.46Z"/>
        <path d="M44.88,71.35c-.09-.26-.15-.42-.15-1.26v-1.61c0-.95-.32-1.3-1.05-1.3h-.56v4.17h-1.61v-10.24h2.43c1.67,0,2.38.78,2.38,2.36v.8c0,1.05-.34,1.74-1.05,2.08.8.34,1.07,1.11,1.07,2.18v1.58c0,.5.01.86.18,1.24h-1.64ZM43.12,62.57v3.15h.63c.6,0,.97-.26.97-1.08v-1.01c0-.73-.25-1.05-.82-1.05h-.78Z"/>
        <path d="M52.6,71.35h-1.62l-.28-1.86h-1.98l-.28,1.86h-1.48l1.64-10.24h2.36l1.64,10.24ZM48.93,68.1h1.55l-.78-5.18-.78,5.18Z"/>
        <path d="M58.02,67.53v1.36c0,1.64-.82,2.58-2.4,2.58s-2.4-.94-2.4-2.58v-5.33c0-1.64.82-2.58,2.4-2.58s2.4.94,2.4,2.58v1h-1.52v-1.1c0-.73-.32-1.01-.83-1.01s-.83.28-.83,1.01v5.53c0,.73.32,1,.83,1s.83-.26.83-1v-1.46h1.52Z"/>
        <path d="M59,61.1h1.61v10.24h-1.61v-10.24Z"/>
        <path d="M61.65,63.56c0-1.64.86-2.58,2.44-2.58s2.44.94,2.44,2.58v5.33c0,1.64-.86,2.58-2.44,2.58s-2.44-.94-2.44-2.58v-5.33ZM65.82,58.94l-1.49,1.62h-1.08l1-1.62h1.58ZM63.26,68.99c0,.73.32,1.01.83,1.01s.83-.28.83-1.01v-5.53c0-.73-.32-1.01-.83-1.01s-.83.28-.83,1.01v5.53Z"/>
        <path d="M69.01,63.93v7.42h-1.45v-10.24h2.02l1.65,6.13v-6.13h1.43v10.24h-1.65l-2-7.42Z"/>
        <path d="M76.09,61.1h2.55c1.61,0,2.4.89,2.4,2.53v5.18c0,1.64-.79,2.53-2.4,2.53h-2.55v-10.24ZM77.7,62.57v7.32h.91c.51,0,.82-.26.82-1v-5.33c0-.73-.31-1-.82-1h-.91Z"/>
        <path d="M83.67,65.42h2.21v1.46h-2.21v3h2.78v1.46h-4.39v-10.24h4.39v1.46h-2.78v2.85Z"/>
        <path d="M41.58,74.83c.38.45.56,1.08.56,1.87v5.15c0,.79-.19,1.41-.56,1.87-.38.45-.94.68-1.71.68h-2.25v-10.24h2.25c.76,0,1.33.23,1.71.68ZM41.07,83.28c.26-.34.39-.8.39-1.4v-5.21c0-.58-.13-1.05-.39-1.39s-.67-.51-1.21-.51h-1.57v9.01h1.57c.55,0,.95-.17,1.21-.5Z"/>
        <path d="M43.71,84.4h-.61l2.24-10.26h.98l2.28,10.26h-.67l-.51-2.27h-3.19l-.51,2.27ZM47.31,81.54l-1.51-6.63-1.48,6.63h2.99Z"/>
        <path d="M51.39,74.77h-2.09v-.61h4.84v.61h-2.08v9.63h-.67v-9.63Z"/>
        <path d="M55.54,74.78c.38-.47.93-.71,1.68-.71s1.33.23,1.71.7c.38.47.56,1.1.56,1.89v5.24c0,.79-.19,1.42-.56,1.89-.38.47-.94.7-1.71.7s-1.3-.24-1.68-.71c-.38-.47-.56-1.1-.56-1.88v-5.24c0-.78.19-1.41.56-1.88ZM56.03,83.35c.25.35.65.52,1.19.52s.95-.17,1.21-.52c.26-.35.39-.82.39-1.41v-5.33c0-.59-.13-1.07-.39-1.41-.26-.35-.66-.52-1.21-.52s-.93.17-1.19.52c-.25.35-.38.82-.38,1.41v5.33c0,.59.13,1.07.38,1.41Z"/>
        <path d="M64.38,74.76c.36.46.53,1.08.53,1.87v.22h-.64v-.26c0-.58-.12-1.05-.37-1.39s-.63-.51-1.16-.51-.91.17-1.16.51c-.24.34-.37.8-.37,1.38,0,.37.08.7.23.99.16.29.35.54.58.75.23.21.54.46.94.75.42.3.76.57,1.02.8s.48.52.66.86c.18.34.26.74.26,1.2,0,.78-.18,1.4-.54,1.87-.36.46-.92.7-1.67.7s-1.31-.23-1.67-.7c-.36-.46-.54-1.08-.54-1.87v-.53h.64v.57c0,.58.12,1.05.37,1.38.25.34.64.5,1.18.5s.93-.17,1.18-.5c.25-.34.37-.8.37-1.38,0-.37-.08-.7-.23-.98-.16-.28-.35-.53-.58-.74s-.54-.46-.93-.74c-.42-.3-.76-.57-1.02-.81-.26-.24-.49-.53-.67-.88-.18-.35-.27-.75-.27-1.21,0-.79.18-1.41.54-1.86.36-.45.91-.68,1.64-.69.74,0,1.29.23,1.65.7Z"/>
      </g>
      <g>
        <path class="cls-1" d="M61.39,29.99c1.56,0,3.04,0,4.52,0,.32,0,.64.03.94.12.84.26,1.32.99,1.32,1.95,0,2.05,0,4.11,0,6.16,0,2.34,0,4.69,0,7.03,0,1.4-.78,2.18-2.2,2.18-9.83,0-19.67,0-29.5,0-1.42,0-2.2-.76-2.2-2.17,0-9.53,0-19.06,0-28.58,0-1.41.77-2.18,2.19-2.18,7.57,0,15.15,0,22.72,0,1.44,0,2.19.76,2.2,2.21,0,4.24,0,8.49,0,12.73,0,.16,0,.33,0,.54ZM66.21,31.97h-13.5v13.49h13.5v-13.49ZM36.25,16.47v5.75h23.18v-5.75h-23.18ZM59.43,24.22h-23.19v5.75h23.19v-5.75ZM50.71,39.72h-14.48v5.74h14.48v-5.74ZM36.24,31.97v5.74h14.47v-5.74h-14.47Z"/>
        <path class="cls-1" d="M45.9,18.39c-.62,0-1.25,0-1.87,0-.61,0-1.04.41-1.04.96,0,.54.43.96,1.03.97,1.25,0,2.5,0,3.74,0,.61,0,1.03-.41,1.03-.96,0-.56-.41-.95-1.03-.96-.62,0-1.25,0-1.87,0ZM39.13,19.34c0,.55.43.98.97.98.52,0,.95-.44.96-.95,0-.54-.43-.97-.97-.97-.53,0-.94.41-.95.95Z"/>
        <path class="cls-1" d="M58.47,39.31c1.06-1.07,2.07-2.1,3.11-3.09.22-.21.58-.37.87-.36.73.03,1.1.88.68,1.49-.07.1-.16.19-.25.28-1.18,1.19-2.37,2.37-3.56,3.56-.59.59-1.09.59-1.68,0-.56-.56-1.12-1.11-1.68-1.68-.47-.47-.49-1.07-.08-1.47.4-.39.98-.36,1.44.1.37.37.73.75,1.14,1.17Z"/>
        <path class="cls-1" d="M45.9,18.39c.62,0,1.25,0,1.87,0,.62,0,1.03.4,1.03.96,0,.56-.42.96-1.03.96-1.25,0-2.5,0-3.74,0-.6,0-1.03-.42-1.03-.97,0-.55.42-.95,1.04-.96.62,0,1.25,0,1.87,0Z"/>
        <path class="cls-1" d="M39.13,19.34c0-.53.41-.94.95-.95.55,0,.98.43.97.97,0,.52-.44.95-.96.95-.54,0-.97-.43-.97-.98Z"/>
        <path class="cls-1" d="M45.89,28.06c-.62,0-1.25,0-1.87,0-.6,0-1.03-.42-1.03-.97,0-.55.43-.95,1.04-.96,1.25,0,2.5,0,3.74,0,.62,0,1.03.4,1.02.96,0,.56-.42.95-1.03.96-.62,0-1.25,0-1.87,0Z"/>
        <path class="cls-1" d="M40.1,28.06c-.53,0-.95-.41-.96-.93-.01-.55.4-.98.95-.99.54,0,.98.43.97.97,0,.52-.44.95-.96.95Z"/>
        <path class="cls-1" d="M45.89,43.55c-.62,0-1.25,0-1.87,0-.61,0-1.03-.42-1.03-.97,0-.54.44-.95,1.05-.95,1.25,0,2.5,0,3.74,0,.61,0,1.02.42,1.02.97,0,.55-.41.94-1,.95-.64.01-1.28,0-1.91,0Z"/>
        <path class="cls-1" d="M40.09,43.55c-.55,0-.97-.42-.96-.97,0-.53.43-.95.95-.95.53,0,.98.45.97.98,0,.53-.43.94-.96.94Z"/>
        <path class="cls-1" d="M45.88,35.8c-.62,0-1.25,0-1.87,0-.6-.01-1.03-.43-1.02-.98.01-.53.43-.94,1.01-.94,1.26,0,2.52,0,3.78,0,.59,0,1,.39,1.01.93.01.56-.4.98-1,.99-.64.01-1.28,0-1.91,0Z"/>
        <path class="cls-1" d="M40.08,35.8c-.55,0-.96-.44-.95-.99.01-.53.44-.94.97-.93.52,0,.95.43.95.95,0,.54-.43.97-.98.97Z"/>
      </g>
    </g>
  </g>
</svg>