<?xml version="1.0" encoding="UTF-8"?>
<svg xmlns="http://www.w3.org/2000/svg" xmlns:xlink="http://www.w3.org/1999/xlink" viewBox="0 0 103 97">
  <defs>
    <style>
      .cls-1 {
        font-family: BebasNeue-Book, 'Bebas Neue';
      }

      .cls-2 {
        fill: #00aeef;
      }

      .cls-3 {
        fill: none;
      }

      .cls-4 {
        isolation: isolate;
      }

      .cls-5 {
        font-size: 14.63px;
      }

      .cls-6 {
        letter-spacing: 0em;
      }

      .cls-7 {
        fill: #fff;
        mix-blend-mode: soft-light;
      }

      .cls-8 {
        font-family: BebasNeueBold, 'Bebas Neue';
      }
    </style>
    <clipPath id="clippath">
      <rect class="cls-3" x="307.83" y="-259.66" width="960.22" height="540.01"/>
    </clipPath>
  </defs>
  <g class="cls-4">
    <g id="Capa_1" data-name="Capa 1">
      <g>
        <rect class="cls-7" width="102.46" height="96.94" rx="5" ry="5"/>
        <text class="cls-5" transform="translate(15.6 71.35)"><tspan class="cls-8"><tspan x="0" y="0">INTEGRACIÓN DE</tspan></tspan><tspan class="cls-1"><tspan class="cls-6" x="21.44" y="13.05">D</tspan><tspan x="27.06" y="13.05">ATOS</tspan></tspan></text>
        <g>
          <path class="cls-2" d="M61.39,29.99c1.56,0,3.04,0,4.52,0,.32,0,.64.03.94.12.84.26,1.32.99,1.32,1.95,0,2.05,0,4.11,0,6.16,0,2.34,0,4.69,0,7.03,0,1.4-.78,2.18-2.2,2.18-9.83,0-19.67,0-29.5,0-1.42,0-2.2-.76-2.2-2.17,0-9.53,0-19.06,0-28.58,0-1.41.77-2.18,2.19-2.18,7.57,0,15.15,0,22.72,0,1.44,0,2.19.76,2.2,2.21,0,4.24,0,8.49,0,12.73,0,.16,0,.33,0,.54ZM66.21,31.97h-13.5v13.49h13.5v-13.49ZM36.25,16.47v5.75h23.18v-5.75h-23.18ZM59.43,24.22h-23.19v5.75h23.19v-5.75ZM50.71,39.72h-14.48v5.74h14.48v-5.74ZM36.24,31.97v5.74h14.47v-5.74h-14.47Z"/>
          <path class="cls-2" d="M45.9,18.39c-.62,0-1.25,0-1.87,0-.61,0-1.04.41-1.04.96,0,.54.43.96,1.03.97,1.25,0,2.5,0,3.74,0,.61,0,1.03-.41,1.03-.96,0-.56-.41-.95-1.03-.96-.62,0-1.25,0-1.87,0ZM39.13,19.34c0,.55.43.98.97.98.52,0,.95-.44.96-.95,0-.54-.43-.97-.97-.97-.53,0-.94.41-.95.95Z"/>
          <path class="cls-2" d="M58.47,39.31c1.06-1.07,2.07-2.1,3.11-3.09.22-.21.58-.37.87-.36.73.03,1.1.88.68,1.49-.07.1-.16.19-.25.28-1.18,1.19-2.37,2.37-3.56,3.56-.59.59-1.09.59-1.68,0-.56-.56-1.12-1.11-1.68-1.68-.47-.47-.49-1.07-.08-1.47.4-.39.98-.36,1.44.1.37.37.73.75,1.14,1.17Z"/>
          <path class="cls-2" d="M45.9,18.39c.62,0,1.25,0,1.87,0,.62,0,1.03.4,1.03.96,0,.56-.42.96-1.03.96-1.25,0-2.5,0-3.74,0-.6,0-1.03-.42-1.03-.97,0-.55.42-.95,1.04-.96.62,0,1.25,0,1.87,0Z"/>
          <path class="cls-2" d="M39.13,19.34c0-.53.41-.94.95-.95.55,0,.98.43.97.97,0,.52-.44.95-.96.95-.54,0-.97-.43-.97-.98Z"/>
          <path class="cls-2" d="M45.89,28.06c-.62,0-1.25,0-1.87,0-.6,0-1.03-.42-1.03-.97,0-.55.43-.95,1.04-.96,1.25,0,2.5,0,3.74,0,.62,0,1.03.4,1.02.96,0,.56-.42.95-1.03.96-.62,0-1.25,0-1.87,0Z"/>
          <path class="cls-2" d="M40.1,28.06c-.53,0-.95-.41-.96-.93-.01-.55.4-.98.95-.99.54,0,.98.43.97.97,0,.52-.44.95-.96.95Z"/>
          <path class="cls-2" d="M45.89,43.55c-.62,0-1.25,0-1.87,0-.61,0-1.03-.42-1.03-.97,0-.54.44-.95,1.05-.95,1.25,0,2.5,0,3.74,0,.61,0,1.02.42,1.02.97,0,.55-.41.94-1,.95-.64.01-1.28,0-1.91,0Z"/>
          <path class="cls-2" d="M40.09,43.55c-.55,0-.97-.42-.96-.97,0-.53.43-.95.95-.95.53,0,.98.45.97.98,0,.53-.43.94-.96.94Z"/>
          <path class="cls-2" d="M45.88,35.8c-.62,0-1.25,0-1.87,0-.6-.01-1.03-.43-1.02-.98.01-.53.43-.94,1.01-.94,1.26,0,2.52,0,3.78,0,.59,0,1,.39,1.01.93.01.56-.4.98-1,.99-.64.01-1.28,0-1.91,0Z"/>
          <path class="cls-2" d="M40.08,35.8c-.55,0-.96-.44-.95-.99.01-.53.44-.94.97-.93.52,0,.95.43.95.95,0,.54-.43.97-.98.97Z"/>
        </g>
      </g>
    </g>
  </g>
</svg>