<?xml version="1.0" encoding="UTF-8"?>
<svg xmlns="http://www.w3.org/2000/svg" xmlns:xlink="http://www.w3.org/1999/xlink" viewBox="0 0 103 97">
  <defs>
    <style>
      .cls-1 {
        font-family: BebasNeue-Book, 'Bebas Neue';
      }

      .cls-2 {
        fill: #00aeef;
      }

      .cls-3 {
        fill: none;
      }

      .cls-4 {
        isolation: isolate;
      }

      .cls-5 {
        font-size: 14.63px;
      }

      .cls-6 {
        letter-spacing: -.01em;
      }

      .cls-7 {
        fill: #fff;
        mix-blend-mode: soft-light;
      }

      .cls-8 {
        letter-spacing: 0em;
      }

      .cls-9 {
        font-family: BebasNeueBold, 'Bebas Neue';
      }
    </style>
    <clipPath id="clippath">
      <rect class="cls-3" x="194.83" y="-259.66" width="960.22" height="540.01"/>
    </clipPath>
  </defs>
  <g class="cls-4">
    <g id="Capa_1" data-name="Capa 1">
      <g>
        <rect class="cls-7" x=".54" width="102.46" height="96.94" rx="5" ry="5"/>
        <text class="cls-5" transform="translate(26.66 71.35)"><tspan class="cls-9"><tspan x="0" y="0">GESTIÓN DE</tspan></tspan><tspan class="cls-1"><tspan x=".39" y="13.05">PR</tspan><tspan class="cls-6" x="11.4" y="13.05">O</tspan><tspan class="cls-8" x="16.75" y="13.05">YECTOS</tspan></tspan></text>
        <g>
          <path class="cls-2" d="M59.97,24.32c-.18,0-.31,0-.44,0-1.49,0-2.98,0-4.47,0-1.77,0-2.91-1.14-2.91-2.91,0-1.48,0-2.95,0-4.43,0-.13,0-.27,0-.46-.15,0-.28,0-.41,0-4.1,0-8.21,0-12.31,0-1.34,0-2.12.78-2.12,2.11,0,8.23,0,16.46,0,24.69,0,1.31.79,2.1,2.1,2.1,4.02,0,8.03,0,12.05,0,.19,0,.39,0,.58.05.56.12.93.66.89,1.22-.05.56-.5,1.02-1.07,1.07-.07,0-.15,0-.22,0-4.1,0-8.21,0-12.31,0-2.09,0-3.76-1.3-4.24-3.26-.09-.37-.12-.77-.12-1.16,0-8.24,0-16.48,0-24.72,0-2.28,1.43-4.01,3.62-4.38.3-.05.61-.05.91-.05,4.31,0,8.62,0,12.93,0,.94,0,1.7.3,2.36.97,2.17,2.19,4.36,4.38,6.55,6.55.66.66.99,1.42.98,2.36-.02,1.78,0,3.56,0,5.35,0,.56-.35,1-.86,1.14-.5.13-1.05-.06-1.29-.51-.12-.21-.18-.48-.18-.73-.02-1.5,0-3,0-4.5,0-.13,0-.27,0-.46ZM54.49,18.27v.28c0,.94,0,1.88,0,2.82,0,.5.1.61.59.61.95,0,1.9,0,2.86,0,.09,0,.18-.02.21-.02-1.21-1.22-2.42-2.44-3.66-3.69Z"/>
          <path class="cls-2" d="M55.86,34.1c.33.04.65.08.98.12.71.11,1.05-.08,1.32-.75.09-.21.19-.42.27-.64.21-.64.66-.96,1.31-.98.81-.02,1.63-.02,2.44,0,.61.02,1.02.34,1.23.93.08.24.19.47.29.71.26.64.61.83,1.3.73.12-.02.25,0,.36-.04.93-.27,1.6.09,2.05.9.37.66.72,1.32,1.05,2,.2.43.12.86-.18,1.24-.19.24-.37.48-.56.73-.4.53-.4.91,0,1.43.2.26.4.52.6.79.26.35.3.74.16,1.14-.33.96-.83,1.81-1.49,2.58-.26.31-.6.46-1,.43-.33-.03-.66-.07-.98-.11-.71-.11-1.04.08-1.32.75-.09.21-.2.42-.27.64-.21.64-.66.96-1.31.98-.81.02-1.63.02-2.44,0-.61-.02-1.02-.35-1.23-.93-.08-.24-.19-.47-.29-.71-.27-.64-.61-.83-1.31-.72-.11.02-.22,0-.33.04-.98.29-1.66-.11-2.13-.95-.36-.65-.7-1.31-1.01-1.98-.19-.4-.1-.81.17-1.17.19-.25.39-.5.58-.76.4-.52.4-.92,0-1.43-.19-.25-.39-.5-.58-.76-.27-.36-.33-.75-.18-1.17.33-.96.83-1.81,1.49-2.58.26-.31.59-.46,1-.44ZM57.71,42.82c.15.06.41.14.64.25.23.11.42.31.65.4.62.22.97.66,1.16,1.27.05.16.12.32.19.47.03.06.07.17.12.17.29.02.59.05.87,0,.1-.02.18-.23.23-.38.24-.7.63-1.2,1.31-1.6.8-.48,1.54-.65,2.42-.43.1.02.26,0,.32-.08.42-.42.43-.73.07-1.2-.1-.14-.2-.28-.31-.41-.25-.3-.35-.63-.3-1.02.02-.17.05-.35.02-.51-.16-.82.15-1.48.7-2.05.06-.06.11-.13.15-.2.03-.05.09-.12.07-.16-.13-.25-.24-.52-.42-.72-.08-.09-.32-.07-.47-.04-.74.15-1.46.18-2.06-.4-.03-.02-.06-.05-.09-.06-.78-.24-1.18-.82-1.4-1.56-.03-.1-.07-.21-.13-.3-.04-.06-.11-.13-.18-.14-.64-.14-.85-.03-1.1.58-.03.07-.06.13-.08.2-.17.53-.49.91-1.03,1.11-.2.07-.39.2-.57.33-.38.3-.79.41-1.27.3-.21-.05-.44-.04-.65-.1-.37-.1-.46.18-.59.4-.13.21-.29.41-.03.67.61.61.96,1.32.76,2.21,0,.01,0,.02,0,.04.16.74-.13,1.32-.61,1.86-.39.44-.35.45-.07.96.15.28.34.33.62.27.3-.06.6-.09,1.02-.14Z"/>
          <path class="cls-2" d="M48.65,29.8c-2.06,0-4.13,0-6.19,0-.91,0-1.5-.83-1.16-1.62.22-.5.62-.72,1.17-.72,2.42,0,4.83,0,7.25,0,1.67,0,3.34,0,5.02,0,.78,0,1.32.47,1.33,1.16.01.69-.54,1.19-1.34,1.19-2.03,0-4.05,0-6.08,0Z"/>
          <path class="cls-2" d="M45.88,40.73c-1.12,0-2.25,0-3.37,0-.78,0-1.31-.49-1.3-1.18,0-.68.53-1.16,1.28-1.16,2.27,0,4.54,0,6.81,0,.68,0,1.16.39,1.27.98.09.54-.22,1.1-.75,1.28-.18.06-.38.07-.57.08-1.12,0-2.25,0-3.37,0Z"/>
          <path class="cls-2" d="M45.94,32.93c1.17,0,2.34,0,3.52,0,.54,0,.98.38,1.11.9.12.48-.11,1.04-.57,1.27-.2.1-.44.16-.67.16-2.28.01-4.57.01-6.85,0-.74,0-1.27-.51-1.26-1.19,0-.68.52-1.15,1.28-1.15,1.15,0,2.29,0,3.44,0h0Z"/>
          <path class="cls-2" d="M63.27,39.77c0,1.29-1.06,2.34-2.36,2.33-1.28,0-2.32-1.06-2.32-2.34,0-1.29,1.05-2.35,2.35-2.35,1.3,0,2.34,1.06,2.34,2.35Z"/>
        </g>
      </g>
    </g>
  </g>
</svg>