<?xml version="1.0" encoding="UTF-8"?>
<svg xmlns="http://www.w3.org/2000/svg" xmlns:xlink="http://www.w3.org/1999/xlink" viewBox="0 0 103 97">
  <defs>
    <style>
      .cls-1 {
        font-family: BebasNeue-Book, 'Bebas Neue';
      }

      .cls-2 {
        fill: #00aeef;
      }

      .cls-3 {
        fill: none;
      }

      .cls-4 {
        isolation: isolate;
      }

      .cls-5 {
        font-size: 14.63px;
      }

      .cls-6 {
        letter-spacing: -.05em;
      }

      .cls-7 {
        fill: #fff;
        mix-blend-mode: soft-light;
      }

      .cls-8 {
        font-family: BebasNeueBold, 'Bebas Neue';
      }
    </style>
    <clipPath id="clippath">
      <rect class="cls-3" x="533.83" y="-365.66" width="960.22" height="540.01"/>
    </clipPath>
  </defs>
  <g class="cls-4">
    <g id="Capa_1" data-name="Capa 1">
      <g>
        <rect class="cls-7" width="102.46" height="96.94" rx="5" ry="5"/>
        <text class="cls-5" transform="translate(21.81 71.35)"><tspan class="cls-8"><tspan x="0" y="0">CONSU</tspan><tspan class="cls-6" x="28.99" y="0">L</tspan><tspan x="33.22" y="0">TORÍA</tspan></tspan><tspan class="cls-1"><tspan x="-.7" y="13.05">SAP / ORACLE</tspan></tspan></text>
        <g>
          <path class="cls-2" d="M58.54,39.87c2.15-1.25,4.34-2.53,6.53-3.81,1.76-1.03,4.07-.14,4.57,1.79.25.96.04,1.84-.66,2.54-4.25,4.2-9.19,7.13-15.09,8.34-2.62.54-5.09.14-7.5-.9-1.02-.44-2.03-.9-3.01-1.41-.56-.29-1.01-.27-1.53.08-1,.66-2.02,1.27-3.04,1.9-.62.39-1.1.26-1.45-.4-1.49-2.79-2.98-5.57-4.46-8.36-.33-.62-.19-1.07.43-1.39.55-.29,1.11-.57,1.66-.85.85-.43,1.67-.89,2.44-1.46,1.74-1.29,3.68-2.17,5.86-2.4,2.33-.25,4.57.15,6.34,1.75,1.01.91,2.11,1.32,3.36,1.5,1.19.18,2.4.27,3.59.45.4.06.8.23,1.15.43.85.48,1.06,1.16.82,2.21ZM56.92,39.26c-.01-.05-.02-.1-.03-.16-.46-.09-.91-.2-1.37-.26-1.28-.18-2.57-.3-3.84-.53-1.02-.19-2.03-.5-2.76-1.32-.51-.57-1.13-.96-1.84-1.23-2.07-.82-4.11-.61-6.13.21-.94.38-1.82.87-2.64,1.49,1.24,2.29,2.45,4.56,3.68,6.82.04.08.18.17.27.16.69-.09,1.29.11,1.9.41.96.48,1.93.95,2.92,1.36,1.98.83,4,1.26,6.17.84,5.62-1.11,10.34-3.84,14.4-7.81.47-.46.41-1.12-.09-1.54-.45-.38-1.05-.43-1.57-.13-1.69,1-3.37,2.01-5.07,3.01-.88.52-1.74,1.1-2.69,1.47-2.38.94-4.89,1.06-7.43.93-.92-.05-1.82-.16-2.68-.52-.53-.23-.75-.67-.58-1.14.18-.49.64-.69,1.2-.51,1.23.41,2.5.57,3.79.44,1.38-.14,2.69-.5,3.8-1.37.22-.17.39-.41.59-.62ZM36.75,38.45c-.66.34-1.31.67-1.96,1.01,1.26,2.36,2.5,4.68,3.75,7.02.66-.41,1.29-.8,1.94-1.2-1.25-2.29-2.48-4.54-3.72-6.82Z"/>
          <path class="cls-2" d="M47.01,27.65c.16-.36.28-.75.5-1.06.21-.3.26-.53.13-.89-.14-.41-.35-.59-.77-.68-.92-.21-1.39-.86-1.39-1.8,0-.29,0-.59,0-.88.02-.84.51-1.46,1.31-1.68.22-.06.53-.08.63-.23.2-.3.31-.66.39-1.02.03-.12-.13-.3-.22-.43-.35-.48-.55-1.01-.34-1.58.31-.84.88-1.49,1.67-1.9.52-.27,1.08-.18,1.57.13.32.2.56.2.89,0,.39-.24.84-.39,1.27-.56.21-.08.33-.18.39-.42.29-1.25.84-1.67,2.11-1.67.2,0,.39,0,.59,0,.94.03,1.57.53,1.76,1.45.08.38.24.57.62.69.45.14.89.35,1.29.6.3.19.53.19.83.01.4-.24.83-.33,1.3-.23.79.18,1.92,1.45,1.99,2.26.05.56-.14,1.03-.49,1.45-.17.2-.15.38-.09.63.13.51.4.8.93.83.07,0,.14.04.21.07.64.3,1.01.79,1.05,1.5.02.34.01.68,0,1.03-.01.9-.5,1.52-1.36,1.76-.2.05-.49.06-.57.19-.19.32-.33.69-.4,1.05-.03.14.16.34.27.49.32.47.49.98.29,1.52-.32.84-.89,1.49-1.69,1.89-.55.28-1.13.15-1.64-.18-.26-.16-.46-.17-.73,0-.35.22-.73.41-1.12.53-.43.12-.62.34-.71.78-.15.74-.63,1.23-1.38,1.33-.52.07-1.08.07-1.6,0-.73-.1-1.22-.58-1.37-1.3-.09-.47-.3-.69-.75-.83-.46-.14-.89-.39-1.31-.63-.2-.11-.33-.1-.53-.02-.37.14-.76.24-1.14.34-.08.02-.17,0-.25-.02-.91-.17-2.05-1.55-2.05-2.47-.03-.01-.06-.03-.09-.04ZM54.85,30.9h.96c.08-.34.17-.65.24-.97.09-.45.35-.71.79-.81.81-.19,1.55-.53,2.22-1,.36-.25.72-.27,1.1-.06.3.17.62.32.93.49.23-.26.42-.49.62-.72-.2-.28-.37-.55-.57-.8-.29-.38-.32-.76-.1-1.19.16-.3.31-.62.4-.94.36-1.27.31-1.19,1.63-1.49.28-.07.37-.18.36-.47-.03-.58-.02-.59-.59-.72-.15-.04-.31-.07-.46-.11-.4-.1-.64-.34-.76-.75-.15-.5-.34-.99-.54-1.47-.16-.39-.15-.73.1-1.07.21-.28.41-.57.63-.87-.22-.25-.42-.49-.63-.72-.32.16-.61.29-.88.45-.42.24-.78.17-1.19-.07-.66-.38-1.35-.74-2.07-.98-.6-.19-.93-.48-1.05-1.1-.17-.87-.2-.87-1.09-.77-.01,0-.02,0-.06.03-.08.32-.16.66-.24,1.01-.09.4-.32.65-.72.75-.83.19-1.59.54-2.29,1.03-.33.23-.68.25-1.03.06-.32-.17-.64-.34-.98-.51-.22.25-.41.48-.62.73.2.28.39.57.6.84.26.35.27.7.09,1.1-.23.52-.43,1.06-.61,1.6-.12.39-.35.63-.74.73-.27.07-.55.11-.82.2-.1.04-.22.18-.23.28-.05.71-.04.71.64.88.14.03.28.07.43.1.38.09.59.33.71.71.16.51.35,1.01.55,1.51.16.38.15.73-.11,1.07-.21.28-.41.57-.63.87.22.25.43.49.64.72.35-.18.66-.34.98-.5.33-.17.67-.16.97.06.75.55,1.57.93,2.47,1.15.39.09.6.35.69.73.08.34.17.68.25,1.03Z"/>
          <path class="cls-2" d="M55.32,19.15c2.03,0,3.68,1.64,3.69,3.67,0,2.03-1.64,3.69-3.67,3.69-2.03,0-3.68-1.64-3.68-3.68,0-2.04,1.63-3.68,3.67-3.69ZM57.24,22.83c0-1.06-.84-1.91-1.9-1.92-1.07-.01-1.93.85-1.93,1.93,0,1.06.85,1.92,1.9,1.92,1.07,0,1.93-.85,1.93-1.93Z"/>
        </g>
      </g>
    </g>
  </g>
</svg>