<?xml version="1.0" encoding="UTF-8"?>
<svg xmlns="http://www.w3.org/2000/svg" xmlns:xlink="http://www.w3.org/1999/xlink" viewBox="0 0 103 97">
  <defs>
    <style>
      .cls-1 {
        fill: #00aeef;
      }

      .cls-2 {
        fill: none;
      }

      .cls-3 {
        isolation: isolate;
      }

      .cls-4 {
        fill: #fff;
        mix-blend-mode: soft-light;
      }
    </style>
    <clipPath id="clippath">
      <rect class="cls-2" x="533.83" y="-365.66" width="960.22" height="540.01"/>
    </clipPath>
  </defs>
  <g class="cls-3">
    <g id="Capa_1" data-name="Capa 1">
      <rect class="cls-4" width="102.46" height="96.94" rx="5" ry="5"/>
      <g>
        <path d="M27.06,67.53v1.36c0,1.64-.82,2.58-2.4,2.58s-2.4-.94-2.4-2.58v-5.33c0-1.64.82-2.58,2.4-2.58s2.4.94,2.4,2.58v1h-1.52v-1.1c0-.73-.32-1.01-.83-1.01s-.83.28-.83,1.01v5.53c0,.73.32.99.83.99s.83-.26.83-.99v-1.46h1.52Z"/>
        <path d="M27.91,63.56c0-1.64.86-2.58,2.44-2.58s2.44.94,2.44,2.58v5.33c0,1.64-.86,2.58-2.44,2.58s-2.44-.94-2.44-2.58v-5.33ZM29.52,68.99c0,.73.32,1.01.83,1.01s.83-.28.83-1.01v-5.53c0-.73-.32-1.01-.83-1.01s-.83.28-.83,1.01v5.53Z"/>
        <path d="M35.27,63.93v7.42h-1.45v-10.24h2.02l1.65,6.13v-6.13h1.43v10.24h-1.65l-2.01-7.42Z"/>
        <path d="M42.25,60.99c1.56,0,2.37.94,2.37,2.58v.32h-1.52v-.42c0-.73-.29-1.01-.8-1.01s-.8.28-.8,1.01c0,2.11,3.15,2.5,3.15,5.43,0,1.64-.82,2.58-2.4,2.58s-2.4-.94-2.4-2.58v-.63h1.52v.73c0,.73.32.99.83.99s.83-.26.83-.99c0-2.11-3.15-2.5-3.15-5.43,0-1.64.8-2.58,2.37-2.58Z"/>
        <path d="M47.1,61.1v7.9c0,.73.32,1,.83,1s.83-.26.83-1v-7.9h1.52v7.8c0,1.64-.82,2.58-2.4,2.58s-2.4-.94-2.4-2.58v-7.8h1.61Z"/>
        <path d="M51.38,61.1h1.61v8.78h2.65v1.46h-4.26v-10.24Z"/>
        <path d="M55.14,61.1h4.97v1.46h-1.68v8.78h-1.61v-8.78h-1.68v-1.46Z"/>
        <path d="M60.69,63.56c0-1.64.86-2.58,2.44-2.58s2.44.94,2.44,2.58v5.33c0,1.64-.86,2.58-2.44,2.58s-2.44-.94-2.44-2.58v-5.33ZM62.3,68.99c0,.73.32,1.01.83,1.01s.83-.28.83-1.01v-5.53c0-.73-.32-1.01-.83-1.01s-.83.28-.83,1.01v5.53Z"/>
        <path d="M69.98,71.35c-.09-.26-.15-.42-.15-1.26v-1.61c0-.95-.32-1.3-1.05-1.3h-.55v4.17h-1.61v-10.24h2.43c1.67,0,2.38.78,2.38,2.36v.8c0,1.05-.34,1.74-1.05,2.08.8.34,1.07,1.11,1.07,2.18v1.58c0,.5.01.86.18,1.24h-1.64ZM68.23,62.57v3.15h.63c.6,0,.96-.26.96-1.08v-1.01c0-.73-.25-1.05-.82-1.05h-.78Z"/>
        <path d="M75.03,58.94l-1.49,1.62h-1.08l.99-1.62h1.58ZM72.5,61.1h1.61v10.24h-1.61v-10.24Z"/>
        <path d="M80.49,71.35h-1.62l-.28-1.86h-1.98l-.28,1.86h-1.48l1.64-10.24h2.36l1.64,10.24ZM76.81,68.1h1.55l-.78-5.18-.78,5.18Z"/>
        <path d="M25.48,74.76c.36.46.53,1.08.53,1.87v.22h-.64v-.26c0-.58-.12-1.05-.37-1.39-.24-.34-.63-.51-1.16-.51s-.91.17-1.16.51c-.24.34-.37.8-.37,1.38,0,.37.08.7.23.99s.35.54.58.75c.23.21.54.46.94.75.42.3.76.57,1.03.8.26.23.48.52.66.86.18.34.26.74.26,1.2,0,.78-.18,1.4-.54,1.87-.36.46-.92.7-1.67.7s-1.31-.23-1.67-.7c-.36-.46-.54-1.08-.54-1.87v-.53h.64v.57c0,.58.12,1.05.37,1.38.25.34.64.5,1.18.5s.93-.17,1.18-.5.37-.8.37-1.38c0-.37-.08-.7-.23-.98-.16-.28-.35-.53-.58-.74-.23-.21-.54-.46-.93-.74-.42-.3-.76-.57-1.02-.81-.26-.24-.49-.53-.67-.88s-.27-.75-.27-1.21c0-.79.18-1.41.54-1.86.36-.45.91-.68,1.64-.69.74,0,1.29.23,1.65.69Z"/>
        <path d="M27.58,84.4h-.62l2.24-10.26h.98l2.28,10.26h-.67l-.51-2.27h-3.19l-.51,2.27ZM31.18,81.54l-1.51-6.63-1.48,6.63h2.99Z"/>
        <path d="M37.28,74.81c.35.44.53,1.05.53,1.83v1.11c0,.82-.19,1.43-.58,1.83-.39.4-.98.6-1.79.6h-1.27v4.21h-.67v-10.24h2.12c.76,0,1.32.22,1.67.66ZM36.73,79.15c.27-.28.4-.73.4-1.35v-1.2c0-.6-.12-1.05-.35-1.36s-.62-.47-1.17-.47h-1.45v4.8h1.27c.6,0,1.03-.14,1.29-.42Z"/>
        <path d="M41.53,84.4h-.6l4.04-10.24h.6l-4.04,10.24Z"/>
        <path d="M49.33,74.78c.38-.47.93-.71,1.68-.71s1.33.23,1.71.7c.38.47.56,1.1.56,1.89v5.24c0,.79-.19,1.42-.56,1.89-.38.47-.95.7-1.71.7s-1.3-.24-1.68-.71c-.38-.47-.56-1.1-.56-1.88v-5.24c0-.78.19-1.41.56-1.88ZM49.82,83.35c.25.35.65.52,1.19.52s.95-.17,1.21-.52.39-.82.39-1.41v-5.33c0-.59-.13-1.06-.39-1.41-.26-.35-.66-.52-1.21-.52s-.93.17-1.19.52c-.25.35-.38.82-.38,1.41v5.33c0,.59.13,1.07.38,1.41Z"/>
        <path d="M58.72,76.47v.89c0,.6-.12,1.08-.36,1.43-.24.35-.61.58-1.12.7.99.21,1.48.91,1.48,2.09v1.6c0,.57.08.98.25,1.23h-.7c-.09-.15-.15-.31-.18-.5-.03-.19-.04-.43-.04-.72v-1.61c0-.64-.16-1.1-.48-1.35-.32-.26-.8-.39-1.43-.39h-1.07v4.58h-.67v-10.24h2.14c1.46,0,2.2.77,2.2,2.31ZM57.58,78.84c.31-.24.47-.69.47-1.35v-.97c0-.57-.12-1.01-.37-1.31-.24-.3-.63-.45-1.17-.45h-1.45v4.43h1.08c.64,0,1.12-.12,1.43-.37Z"/>
        <path d="M60.51,84.4h-.61l2.24-10.26h.98l2.28,10.26h-.67l-.51-2.27h-3.19l-.51,2.27ZM64.11,81.54l-1.51-6.63-1.48,6.63h2.98Z"/>
        <path d="M70.25,74.78c.36.47.54,1.1.54,1.88v.85h-.64v-.89c0-.58-.12-1.05-.37-1.4-.25-.35-.64-.53-1.18-.53s-.93.18-1.18.53c-.25.35-.37.82-.37,1.4v5.33c0,.58.12,1.05.37,1.4.25.35.64.52,1.18.52s.93-.17,1.18-.52c.25-.35.37-.81.37-1.4v-1.21h.64v1.17c0,.78-.18,1.41-.54,1.88-.36.47-.92.71-1.67.71s-1.31-.24-1.67-.71c-.36-.47-.54-1.1-.54-1.88v-5.24c0-.78.18-1.41.54-1.88.36-.47.92-.71,1.67-.71s1.31.24,1.67.71Z"/>
        <path d="M71.89,74.15h.67v9.63h3.22v.61h-3.89v-10.24Z"/>
        <path d="M80.26,79.51h-2.79v4.27h3.37v.61h-4.04v-10.24h4.04v.61h-3.37v4.13h2.79v.62Z"/>
      </g>
      <g>
        <path class="cls-1" d="M58.54,39.87c2.15-1.25,4.34-2.53,6.53-3.81,1.76-1.03,4.07-.14,4.57,1.79.25.96.04,1.84-.66,2.54-4.25,4.2-9.19,7.13-15.09,8.34-2.62.54-5.09.14-7.5-.9-1.02-.44-2.03-.9-3.01-1.41-.56-.29-1.01-.27-1.53.08-1,.66-2.02,1.27-3.04,1.9-.62.39-1.1.26-1.45-.4-1.49-2.79-2.98-5.57-4.46-8.36-.33-.62-.19-1.07.43-1.39.55-.29,1.11-.57,1.66-.85.85-.43,1.67-.89,2.44-1.46,1.74-1.29,3.68-2.17,5.86-2.4,2.33-.25,4.57.15,6.34,1.75,1.01.91,2.11,1.32,3.36,1.5,1.19.18,2.4.27,3.59.45.4.06.8.23,1.15.43.85.48,1.06,1.16.82,2.21ZM56.92,39.26c-.01-.05-.02-.1-.03-.16-.46-.09-.91-.2-1.37-.26-1.28-.18-2.57-.3-3.84-.53-1.02-.19-2.03-.5-2.76-1.32-.51-.57-1.13-.96-1.84-1.23-2.07-.82-4.11-.61-6.13.21-.94.38-1.82.87-2.64,1.49,1.24,2.29,2.45,4.56,3.68,6.82.04.08.18.17.27.16.69-.09,1.29.11,1.9.41.96.48,1.93.95,2.92,1.36,1.98.83,4,1.26,6.17.84,5.62-1.11,10.34-3.84,14.4-7.81.47-.46.41-1.12-.09-1.54-.45-.38-1.05-.43-1.57-.13-1.69,1-3.37,2.01-5.07,3.01-.88.52-1.74,1.1-2.69,1.47-2.38.94-4.89,1.06-7.43.93-.92-.05-1.82-.16-2.68-.52-.53-.23-.75-.67-.58-1.14.18-.49.64-.69,1.2-.51,1.23.41,2.5.57,3.79.44,1.38-.14,2.69-.5,3.8-1.37.22-.17.39-.41.59-.62ZM36.75,38.45c-.66.34-1.31.67-1.96,1.01,1.26,2.36,2.5,4.68,3.75,7.02.66-.41,1.29-.8,1.94-1.2-1.25-2.29-2.48-4.54-3.72-6.82Z"/>
        <path class="cls-1" d="M47.01,27.65c.16-.36.28-.75.5-1.06.21-.3.26-.53.13-.89-.14-.41-.35-.59-.77-.68-.92-.21-1.39-.86-1.39-1.8,0-.29,0-.59,0-.88.02-.84.51-1.46,1.31-1.68.22-.06.53-.08.63-.23.2-.3.31-.66.39-1.02.03-.12-.13-.3-.22-.43-.35-.48-.55-1.01-.34-1.58.31-.84.88-1.49,1.67-1.9.52-.27,1.08-.18,1.57.13.32.2.56.2.89,0,.39-.24.84-.39,1.27-.56.21-.08.33-.18.39-.42.29-1.25.84-1.67,2.11-1.67.2,0,.39,0,.59,0,.94.03,1.57.53,1.76,1.45.08.38.24.57.62.69.45.14.89.35,1.29.6.3.19.53.19.83.01.4-.24.83-.33,1.3-.23.79.18,1.92,1.45,1.99,2.26.05.56-.14,1.03-.49,1.45-.17.2-.15.38-.09.63.13.51.4.8.93.83.07,0,.14.04.21.07.64.3,1.01.79,1.05,1.5.02.34.01.68,0,1.03-.01.9-.5,1.52-1.36,1.76-.2.05-.49.06-.57.19-.19.32-.33.69-.4,1.05-.03.14.16.34.27.49.32.47.49.98.29,1.52-.32.84-.89,1.49-1.69,1.89-.55.28-1.13.15-1.64-.18-.26-.16-.46-.17-.73,0-.35.22-.73.41-1.12.53-.43.12-.62.34-.71.78-.15.74-.63,1.23-1.38,1.33-.52.07-1.08.07-1.6,0-.73-.1-1.22-.58-1.37-1.3-.09-.47-.3-.69-.75-.83-.46-.14-.89-.39-1.31-.63-.2-.11-.33-.1-.53-.02-.37.14-.76.24-1.14.34-.08.02-.17,0-.25-.02-.91-.17-2.05-1.55-2.05-2.47-.03-.01-.06-.03-.09-.04ZM54.85,30.9h.96c.08-.34.17-.65.24-.97.09-.45.35-.71.79-.81.81-.19,1.55-.53,2.22-1,.36-.25.72-.27,1.1-.06.3.17.62.32.93.49.23-.26.42-.49.62-.72-.2-.28-.37-.55-.57-.8-.29-.38-.32-.76-.1-1.19.16-.3.31-.62.4-.94.36-1.27.31-1.19,1.63-1.49.28-.07.37-.18.36-.47-.03-.58-.02-.59-.59-.72-.15-.04-.31-.07-.46-.11-.4-.1-.64-.34-.76-.75-.15-.5-.34-.99-.54-1.47-.16-.39-.15-.73.1-1.07.21-.28.41-.57.63-.87-.22-.25-.42-.49-.63-.72-.32.16-.61.29-.88.45-.42.24-.78.17-1.19-.07-.66-.38-1.35-.74-2.07-.98-.6-.19-.93-.48-1.05-1.1-.17-.87-.2-.87-1.09-.77-.01,0-.02,0-.06.03-.08.32-.16.66-.24,1.01-.09.4-.32.65-.72.75-.83.19-1.59.54-2.29,1.03-.33.23-.68.25-1.03.06-.32-.17-.64-.34-.98-.51-.22.25-.41.48-.62.73.2.28.39.57.6.84.26.35.27.7.09,1.1-.23.52-.43,1.06-.61,1.6-.12.39-.35.63-.74.73-.27.07-.55.11-.82.2-.1.04-.22.18-.23.28-.05.71-.04.71.64.88.14.03.28.07.43.1.38.09.59.33.71.71.16.51.35,1.01.55,1.51.16.38.15.73-.11,1.07-.21.28-.41.57-.63.87.22.25.43.49.64.72.35-.18.66-.34.98-.5.33-.17.67-.16.97.06.75.55,1.57.93,2.47,1.15.39.09.6.35.69.73.08.34.17.68.25,1.03Z"/>
        <path class="cls-1" d="M55.32,19.15c2.03,0,3.68,1.64,3.69,3.67,0,2.03-1.64,3.69-3.67,3.69-2.03,0-3.68-1.64-3.68-3.68,0-2.04,1.63-3.68,3.67-3.69ZM57.24,22.83c0-1.06-.84-1.91-1.9-1.92-1.07-.01-1.93.85-1.93,1.93,0,1.06.85,1.92,1.9,1.92,1.07,0,1.93-.85,1.93-1.93Z"/>
      </g>
    </g>
  </g>
</svg>