<?xml version="1.0" encoding="UTF-8"?>
<svg xmlns="http://www.w3.org/2000/svg" xmlns:xlink="http://www.w3.org/1999/xlink" viewBox="0 0 103 97">
  <defs>
    <style>
      .cls-1 {
        font-family: BebasNeue-Book, 'Bebas Neue';
      }

      .cls-2 {
        fill: #00aeef;
      }

      .cls-3 {
        fill: none;
      }

      .cls-4 {
        isolation: isolate;
      }

      .cls-5 {
        font-size: 14.63px;
      }

      .cls-6 {
        fill: #fff;
        mix-blend-mode: soft-light;
      }

      .cls-7 {
        font-family: BebasNeueBold, 'Bebas Neue';
      }

      .cls-8 {
        letter-spacing: -.04em;
      }
    </style>
    <clipPath id="clippath">
      <rect class="cls-3" x="420.83" y="-365.66" width="960.22" height="540.01"/>
    </clipPath>
  </defs>
  <g class="cls-4">
    <g id="Capa_1" data-name="Capa 1">
      <g>
        <rect class="cls-6" width="102.46" height="96.94" rx="5" ry="5"/>
        <text class="cls-5" transform="translate(11.32 71.35)"><tspan class="cls-7"><tspan x="0" y="0">TRANSFORMACIÓN</tspan></tspan><tspan class="cls-1"><tspan x="24.44" y="13.05">DIGI</tspan><tspan class="cls-8" x="39.26" y="13.05">T</tspan><tspan x="44.1" y="13.05">AL</tspan></tspan></text>
        <g>
          <path class="cls-2" d="M69.34,18.23v25.47c-.02.08-.06.15-.07.23-.41,2-2.11,3.45-4.13,3.45-9.28,0-18.55,0-27.83,0-2.28,0-4.18-1.9-4.18-4.17-.01-8.16-.01-16.31,0-24.47,0-2.28,1.9-4.17,4.18-4.17,9.29,0,18.58,0,27.86,0,1.35,0,2.45.6,3.29,1.66.48.59.69,1.3.88,2.01ZM66.51,23.98h-30.56v.41c0,6.17,0,12.33,0,18.5,0,1.13.54,1.67,1.67,1.67,9.08,0,18.15,0,27.23,0,1.13,0,1.67-.54,1.67-1.67,0-6.17,0-12.33,0-18.5v-.41ZM35.95,21.11c.12,0,.2.01.28.01,6.15,0,12.31,0,18.46,0,.21,0,.31-.08.41-.25.58-1.08,1.17-2.15,1.75-3.23.04-.07.07-.16.11-.26-.13,0-.21,0-.29,0-6.4,0-12.8,0-19.2,0-.07,0-.14,0-.21,0-.7.05-1.28.61-1.3,1.31-.03.79,0,1.58,0,2.41ZM58.22,21.09h8.29c0-.76,0-1.49,0-2.22,0-.89-.6-1.49-1.49-1.49-1.51,0-3.02,0-4.53,0-.2,0-.31.06-.41.24-.58,1.08-1.17,2.15-1.75,3.23-.04.07-.06.14-.11.24Z"/>
          <path class="cls-2" d="M51.25,27.34c3.48,0,6.96,0,10.43,0,1.11,0,1.64.53,1.65,1.65,0,1.76,0,3.51,0,5.27,0,.98-.57,1.57-1.56,1.57-7.03,0-14.05,0-21.08,0-.99,0-1.56-.58-1.56-1.57,0-1.79,0-3.58,0-5.38,0-.97.57-1.54,1.54-1.54,3.53,0,7.05,0,10.58,0ZM41.98,32.97h18.5v-2.78h-18.5v2.78Z"/>
          <path class="cls-2" d="M44.55,41.59c-1.35,0-2.71,0-4.06,0-.62,0-1.12-.42-1.29-1.02-.17-.58.04-1.23.57-1.54.24-.14.55-.25.83-.25,2.64-.02,5.28-.02,7.91,0,.83,0,1.45.62,1.45,1.42,0,.8-.61,1.4-1.45,1.41-1.32,0-2.64,0-3.96,0,0,0,0,0,0,0Z"/>
          <path class="cls-2" d="M57.91,41.59c-1.34,0-2.69,0-4.03,0-.63,0-1.13-.4-1.32-.99-.18-.58.01-1.23.54-1.55.25-.15.57-.27.86-.27,2.64-.02,5.28-.02,7.91,0,.83,0,1.45.63,1.45,1.42,0,.8-.61,1.4-1.46,1.4-1.32,0-2.64,0-3.96,0h0Z"/>
        </g>
      </g>
    </g>
  </g>
</svg>