<?xml version="1.0" encoding="UTF-8"?>
<svg xmlns="http://www.w3.org/2000/svg" xmlns:xlink="http://www.w3.org/1999/xlink" viewBox="0 0 103 97">
  <defs>
    <style>
      .cls-1 {
        fill: #00aeef;
      }

      .cls-2 {
        fill: none;
      }

      .cls-3 {
        isolation: isolate;
      }

      .cls-4 {
        fill: #fff;
        mix-blend-mode: soft-light;
      }
    </style>
    <clipPath id="clippath">
      <rect class="cls-2" x="420.83" y="-365.66" width="960.22" height="540.01"/>
    </clipPath>
  </defs>
  <g class="cls-3">
    <g id="Capa_1" data-name="Capa 1">
      <rect class="cls-4" width="102.46" height="96.94" rx="5" ry="5"/>
      <g>
        <path d="M11.43,61.1h4.98v1.46h-1.68v8.78h-1.61v-8.78h-1.68v-1.46Z"/>
        <path d="M20.48,71.35c-.09-.26-.15-.42-.15-1.26v-1.61c0-.95-.32-1.3-1.05-1.3h-.56v4.17h-1.61v-10.24h2.43c1.67,0,2.38.78,2.38,2.36v.8c0,1.05-.34,1.74-1.05,2.08.81.34,1.07,1.11,1.07,2.18v1.58c0,.5.01.86.18,1.24h-1.64ZM18.72,62.57v3.15h.63c.6,0,.97-.26.97-1.08v-1.01c0-.73-.25-1.05-.82-1.05h-.78Z"/>
        <path d="M28.2,71.35h-1.62l-.28-1.86h-1.98l-.28,1.86h-1.48l1.64-10.24h2.36l1.64,10.24ZM24.53,68.1h1.55l-.78-5.18-.78,5.18Z"/>
        <path d="M30.38,63.93v7.42h-1.45v-10.24h2.02l1.65,6.13v-6.13h1.43v10.24h-1.65l-2-7.42Z"/>
        <path d="M37.36,60.99c1.57,0,2.37.94,2.37,2.58v.32h-1.52v-.42c0-.73-.29-1.01-.8-1.01s-.8.28-.8,1.01c0,2.11,3.15,2.5,3.15,5.43,0,1.64-.82,2.58-2.4,2.58s-2.4-.94-2.4-2.58v-.63h1.52v.73c0,.73.32.99.83.99s.83-.26.83-.99c0-2.11-3.15-2.5-3.15-5.43,0-1.64.8-2.58,2.37-2.58Z"/>
        <path d="M42.28,65.66h2.08v1.46h-2.08v4.23h-1.61v-10.24h4.26v1.46h-2.65v3.09Z"/>
        <path d="M45.57,63.56c0-1.64.86-2.58,2.44-2.58s2.44.94,2.44,2.58v5.33c0,1.64-.86,2.58-2.44,2.58s-2.44-.94-2.44-2.58v-5.33ZM47.18,68.99c0,.73.32,1.01.83,1.01s.83-.28.83-1.01v-5.53c0-.73-.32-1.01-.83-1.01s-.83.28-.83,1.01v5.53Z"/>
        <path d="M54.87,71.35c-.09-.26-.15-.42-.15-1.26v-1.61c0-.95-.32-1.3-1.05-1.3h-.56v4.17h-1.61v-10.24h2.43c1.67,0,2.38.78,2.38,2.36v.8c0,1.05-.34,1.74-1.05,2.08.81.34,1.07,1.11,1.07,2.18v1.58c0,.5.01.86.18,1.24h-1.64ZM53.11,62.57v3.15h.63c.6,0,.97-.26.97-1.08v-1.01c0-.73-.25-1.05-.82-1.05h-.78Z"/>
        <path d="M60.79,68.38l1.1-7.27h2.24v10.24h-1.52v-7.35l-1.11,7.35h-1.52l-1.2-7.24v7.24h-1.41v-10.24h2.24l1.19,7.27Z"/>
        <path d="M70.51,71.35h-1.62l-.28-1.86h-1.98l-.28,1.86h-1.48l1.64-10.24h2.36l1.64,10.24ZM66.84,68.1h1.55l-.78-5.18-.78,5.18Z"/>
        <path d="M75.92,67.53v1.36c0,1.64-.82,2.58-2.4,2.58s-2.4-.94-2.4-2.58v-5.33c0-1.64.82-2.58,2.4-2.58s2.4.94,2.4,2.58v1h-1.52v-1.1c0-.73-.32-1.01-.83-1.01s-.83.28-.83,1.01v5.53c0,.73.32.99.83.99s.83-.26.83-.99v-1.46h1.52Z"/>
        <path d="M76.9,61.1h1.61v10.24h-1.61v-10.24Z"/>
        <path d="M79.55,63.56c0-1.64.86-2.58,2.44-2.58s2.44.94,2.44,2.58v5.33c0,1.64-.86,2.58-2.44,2.58s-2.44-.94-2.44-2.58v-5.33ZM83.72,58.94l-1.49,1.62h-1.08l1-1.62h1.58ZM81.16,68.99c0,.73.32,1.01.83,1.01s.83-.28.83-1.01v-5.53c0-.73-.32-1.01-.83-1.01s-.83.28-.83,1.01v5.53Z"/>
        <path d="M86.91,63.93v7.42h-1.45v-10.24h2.02l1.65,6.13v-6.13h1.43v10.24h-1.65l-2-7.42Z"/>
        <path d="M40.3,74.83c.38.45.56,1.08.56,1.87v5.15c0,.79-.19,1.41-.56,1.87-.38.45-.94.68-1.71.68h-2.25v-10.24h2.25c.76,0,1.33.23,1.71.68ZM39.79,83.28c.26-.34.39-.8.39-1.4v-5.21c0-.58-.13-1.05-.39-1.39-.26-.34-.67-.51-1.21-.51h-1.57v9.01h1.57c.55,0,.95-.17,1.21-.5Z"/>
        <path d="M42.65,84.4h-.67v-10.24h.67v10.24Z"/>
        <path d="M47.65,74.78c.36.47.54,1.1.54,1.88v.76h-.64v-.81c0-.58-.12-1.05-.37-1.4-.25-.35-.64-.53-1.18-.53s-.93.18-1.18.53-.37.82-.37,1.4v5.33c0,.58.12,1.05.37,1.4.25.35.64.52,1.18.52s.93-.17,1.18-.52c.25-.35.37-.81.37-1.4v-2.21h-1.36v-.61h2v2.78c0,.78-.18,1.41-.54,1.88-.36.47-.92.71-1.67.71s-1.31-.24-1.67-.71c-.36-.47-.54-1.1-.54-1.88v-5.24c0-.78.18-1.41.54-1.88.36-.47.92-.71,1.67-.71s1.31.24,1.67.71Z"/>
        <path d="M49.99,84.4h-.67v-10.24h.67v10.24Z"/>
        <path d="M52.93,74.77h-2.09v-.61h4.84v.61h-2.08v9.63h-.67v-9.63Z"/>
        <path d="M56.48,84.4h-.61l2.24-10.26h.98l2.28,10.26h-.67l-.51-2.27h-3.19l-.51,2.27ZM60.08,81.54l-1.51-6.63-1.48,6.63h2.99Z"/>
        <path d="M62.39,74.15h.67v9.63h3.22v.61h-3.89v-10.24Z"/>
      </g>
      <g>
        <path class="cls-1" d="M69.34,18.23v25.47c-.02.08-.06.15-.07.23-.41,2-2.11,3.45-4.13,3.45-9.28,0-18.55,0-27.83,0-2.28,0-4.18-1.9-4.18-4.17-.01-8.16-.01-16.31,0-24.47,0-2.28,1.9-4.17,4.18-4.17,9.29,0,18.58,0,27.86,0,1.35,0,2.45.6,3.29,1.66.48.59.69,1.3.88,2.01ZM66.51,23.98h-30.56v.41c0,6.17,0,12.33,0,18.5,0,1.13.54,1.67,1.67,1.67,9.08,0,18.15,0,27.23,0,1.13,0,1.67-.54,1.67-1.67,0-6.17,0-12.33,0-18.5v-.41ZM35.95,21.11c.12,0,.2.01.28.01,6.15,0,12.31,0,18.46,0,.21,0,.31-.08.41-.25.58-1.08,1.17-2.15,1.75-3.23.04-.07.07-.16.11-.26-.13,0-.21,0-.29,0-6.4,0-12.8,0-19.2,0-.07,0-.14,0-.21,0-.7.05-1.28.61-1.3,1.31-.03.79,0,1.58,0,2.41ZM58.22,21.09h8.29c0-.76,0-1.49,0-2.22,0-.89-.6-1.49-1.49-1.49-1.51,0-3.02,0-4.53,0-.2,0-.31.06-.41.24-.58,1.08-1.17,2.15-1.75,3.23-.04.07-.06.14-.11.24Z"/>
        <path class="cls-1" d="M51.25,27.34c3.48,0,6.96,0,10.43,0,1.11,0,1.64.53,1.65,1.65,0,1.76,0,3.51,0,5.27,0,.98-.57,1.57-1.56,1.57-7.03,0-14.05,0-21.08,0-.99,0-1.56-.58-1.56-1.57,0-1.79,0-3.58,0-5.38,0-.97.57-1.54,1.54-1.54,3.53,0,7.05,0,10.58,0ZM41.98,32.97h18.5v-2.78h-18.5v2.78Z"/>
        <path class="cls-1" d="M44.55,41.59c-1.35,0-2.71,0-4.06,0-.62,0-1.12-.42-1.29-1.02-.17-.58.04-1.23.57-1.54.24-.14.55-.25.83-.25,2.64-.02,5.28-.02,7.91,0,.83,0,1.45.62,1.45,1.42,0,.8-.61,1.4-1.45,1.41-1.32,0-2.64,0-3.96,0,0,0,0,0,0,0Z"/>
        <path class="cls-1" d="M57.91,41.59c-1.34,0-2.69,0-4.03,0-.63,0-1.13-.4-1.32-.99-.18-.58.01-1.23.54-1.55.25-.15.57-.27.86-.27,2.64-.02,5.28-.02,7.91,0,.83,0,1.45.63,1.45,1.42,0,.8-.61,1.4-1.46,1.4-1.32,0-2.64,0-3.96,0h0Z"/>
      </g>
    </g>
  </g>
</svg>