<?xml version="1.0" encoding="UTF-8"?>
<svg xmlns="http://www.w3.org/2000/svg" xmlns:xlink="http://www.w3.org/1999/xlink" viewBox="0 0 103 97">
  <defs>
    <style>
      .cls-1 {
        font-family: BebasNeue-Book, 'Bebas Neue';
      }

      .cls-2 {
        fill: #00aeef;
      }

      .cls-3 {
        fill: none;
      }

      .cls-4 {
        isolation: isolate;
      }

      .cls-5 {
        font-size: 14.63px;
      }

      .cls-6 {
        fill: #fff;
        mix-blend-mode: soft-light;
      }

      .cls-7 {
        font-family: BebasNeueBold, 'Bebas Neue';
      }

      .cls-8 {
        letter-spacing: 0em;
      }
    </style>
    <clipPath id="clippath">
      <rect class="cls-3" x="307.83" y="-365.66" width="960.22" height="540.01"/>
    </clipPath>
  </defs>
  <g class="cls-4">
    <g id="Capa_1" data-name="Capa 1">
      <g>
        <rect class="cls-6" width="102.46" height="96.94" rx="5" ry="5"/>
        <text class="cls-5" transform="translate(31.43 71.35)"><tspan class="cls-7"><tspan x="0" y="0">SE</tspan><tspan class="cls-8" x="10.86" y="0">R</tspan><tspan x="16.71" y="0">VICIO</tspan></tspan><tspan class="cls-1"><tspan x="13.62" y="13.05">QA</tspan></tspan></text>
        <g>
          <path class="cls-2" d="M59.41,36.22c.11.1.2.18.31.28.08-.08.17-.15.25-.22.65-.63,1.3-.63,1.95.02,1.59,1.59,3.18,3.18,4.77,4.77.28.29.58.57.81.9,1.14,1.56.88,3.73-.58,5.04-1.42,1.26-3.64,1.28-5.01-.04-1.86-1.79-3.66-3.63-5.48-5.46-.49-.49-.47-1.19.02-1.7.1-.11.24-.19.38-.3-.15-.16-.24-.26-.34-.37-3.54,2.5-7.41,3.34-11.62,2.32-3.4-.82-6.1-2.73-8.12-5.58-3.99-5.66-3.13-13.42,2-18.21,5.06-4.72,12.9-4.94,18.28-.53,5.46,4.47,6.99,12.72,2.38,19.08ZM59.72,27.91c0-6.35-5.19-11.52-11.54-11.51-6.35,0-11.52,5.19-11.51,11.54,0,6.35,5.19,11.52,11.54,11.51,6.35,0,11.52-5.19,11.51-11.54ZM59.05,40.65c1.51,1.53,3.01,3.05,4.52,4.55.29.29.69.36,1.1.29.53-.1.89-.4,1.05-.92.18-.55.02-1.02-.37-1.42-1.42-1.42-2.83-2.84-4.25-4.25-.05-.05-.11-.08-.16-.12-.63.63-1.25,1.25-1.87,1.87Z"/>
          <path class="cls-2" d="M37.16,44.3c.52.52,1.01.99,1.48,1.47.57.57.61,1.31.1,1.81-.51.51-1.24.47-1.81-.1-.74-.74-1.48-1.48-2.22-2.22-.62-.62-.62-1.29,0-1.92.74-.74,1.48-1.49,2.22-2.22.57-.57,1.31-.6,1.81-.09.49.5.46,1.23-.09,1.79-.48.48-.97.96-1.5,1.48Z"/>
          <path class="cls-2" d="M42.26,44.3c-.53-.52-1.02-.99-1.5-1.48-.56-.57-.59-1.31-.08-1.81.5-.49,1.23-.45,1.79.1.75.75,1.5,1.5,2.25,2.25.6.61.6,1.28,0,1.9-.75.75-1.5,1.5-2.25,2.25-.56.55-1.28.58-1.79.09-.51-.51-.48-1.24.09-1.81.48-.48.97-.96,1.49-1.48Z"/>
          <path class="cls-2" d="M48.17,34.6c-1.76,0-3.51,0-5.27,0-.9,0-1.37-.48-1.37-1.38,0-3.53,0-7.05,0-10.58,0-.91.47-1.38,1.37-1.38,3.54,0,7.07,0,10.61,0,.87,0,1.36.49,1.36,1.36,0,3.54,0,7.08,0,10.61,0,.88-.48,1.36-1.35,1.37-1.78,0-3.56,0-5.34,0ZM43.97,32.15h8.44v-8.45h-8.44v8.45Z"/>
          <path class="cls-2" d="M47.41,27.83c.54-.81,1.05-1.58,1.57-2.36.3-.44.71-.64,1.23-.56.52.09.89.41.96.93.04.3-.02.68-.17.93-.77,1.23-1.58,2.43-2.4,3.63-.47.68-1.3.75-1.89.17-.38-.37-.75-.75-1.12-1.12-.53-.54-.56-1.26-.08-1.76.48-.5,1.19-.5,1.76,0,.04.03.08.06.15.12Z"/>
        </g>
      </g>
    </g>
  </g>
</svg>