<?xml version="1.0" encoding="UTF-8"?>
<svg xmlns="http://www.w3.org/2000/svg" xmlns:xlink="http://www.w3.org/1999/xlink" viewBox="0 0 103 97">
  <defs>
    <style>
      .cls-1 {
        fill: #00aeef;
      }

      .cls-2 {
        fill: none;
      }

      .cls-3 {
        isolation: isolate;
      }

      .cls-4 {
        fill: #fff;
        mix-blend-mode: soft-light;
      }
    </style>
    <clipPath id="clippath">
      <rect class="cls-2" x="194.83" y="-365.66" width="960.22" height="540.01"/>
    </clipPath>
  </defs>
  <g class="cls-3">
    <g id="Capa_1" data-name="Capa 1">
      <rect class="cls-4" x="0" width="102.46" height="96.94" rx="5" ry="5"/>
      <g>
        <path d="M34.42,60.99c1.57,0,2.37.94,2.37,2.58v.32h-1.52v-.42c0-.73-.29-1.01-.8-1.01s-.8.28-.8,1.01c0,2.11,3.15,2.5,3.15,5.43,0,1.64-.82,2.58-2.4,2.58s-2.4-.94-2.4-2.58v-.63h1.52v.73c0,.73.32.99.83.99s.83-.26.83-.99c0-2.11-3.15-2.5-3.15-5.43,0-1.64.8-2.58,2.37-2.58Z"/>
        <path d="M37.59,63.56c0-1.64.86-2.58,2.44-2.58s2.44.94,2.44,2.58v5.33c0,1.64-.86,2.58-2.44,2.58s-2.44-.94-2.44-2.58v-5.33ZM39.2,68.99c0,.73.32,1.01.83,1.01s.83-.28.83-1.01v-5.53c0-.73-.32-1.01-.83-1.01s-.83.28-.83,1.01v5.53Z"/>
        <path d="M48.29,63.64v1.33c0,1.64-.79,2.53-2.4,2.53h-.76v3.85h-1.61v-10.24h2.37c1.61,0,2.4.89,2.4,2.53ZM45.13,62.57v3.47h.76c.51,0,.79-.23.79-.96v-1.54c0-.73-.28-.96-.79-.96h-.76Z"/>
        <path d="M48.98,63.56c0-1.64.86-2.58,2.44-2.58s2.44.94,2.44,2.58v5.33c0,1.64-.86,2.58-2.44,2.58s-2.44-.94-2.44-2.58v-5.33ZM50.58,68.99c0,.73.32,1.01.83,1.01s.83-.28.83-1.01v-5.53c0-.73-.32-1.01-.83-1.01s-.83.28-.83,1.01v5.53Z"/>
        <path d="M58.27,71.35c-.09-.26-.15-.42-.15-1.26v-1.61c0-.95-.32-1.3-1.05-1.3h-.56v4.17h-1.61v-10.24h2.43c1.67,0,2.38.78,2.38,2.36v.8c0,1.05-.34,1.74-1.05,2.08.8.34,1.07,1.11,1.07,2.18v1.58c0,.5.01.86.18,1.24h-1.64ZM56.51,62.57v3.15h.63c.6,0,.97-.26.97-1.08v-1.01c0-.73-.25-1.05-.82-1.05h-.78Z"/>
        <path d="M60.32,61.1h4.98v1.46h-1.68v8.78h-1.61v-8.78h-1.68v-1.46Z"/>
        <path d="M67.6,65.42h2.21v1.46h-2.21v3h2.78v1.46h-4.39v-10.24h4.39v1.46h-2.78v2.85Z"/>
        <path d="M20.73,84.4h-.61l2.24-10.26h.98l2.28,10.26h-.67l-.51-2.27h-3.19l-.51,2.27ZM24.33,81.54l-1.51-6.63-1.48,6.63h2.99Z"/>
        <path d="M30.43,74.76c.36.46.53,1.08.53,1.87v.22h-.64v-.26c0-.58-.12-1.05-.37-1.39-.24-.34-.63-.51-1.16-.51s-.91.17-1.16.51c-.24.34-.37.8-.37,1.38,0,.37.08.7.23.99.16.29.35.54.58.75.23.21.54.46.94.75.42.3.76.57,1.02.8.26.23.48.52.66.86.18.34.26.74.26,1.2,0,.78-.18,1.4-.54,1.87-.36.46-.92.7-1.67.7s-1.31-.23-1.67-.7c-.36-.46-.54-1.08-.54-1.87v-.53h.64v.57c0,.58.12,1.05.37,1.38s.64.5,1.18.5.93-.17,1.18-.5c.25-.34.37-.8.37-1.38,0-.37-.08-.7-.23-.98-.16-.28-.35-.53-.58-.74-.23-.21-.54-.46-.93-.74-.42-.3-.76-.57-1.02-.81-.26-.24-.49-.53-.67-.88-.18-.35-.27-.75-.27-1.21,0-.79.18-1.41.54-1.86.36-.45.91-.68,1.64-.69.74,0,1.29.23,1.65.69Z"/>
        <path d="M34.8,84.4h-.61l2.24-10.26h.98l2.28,10.26h-.67l-.51-2.27h-3.19l-.51,2.27ZM38.4,81.54l-1.51-6.63-1.48,6.63h2.99Z"/>
        <path d="M46.76,74.76c.36.46.53,1.08.53,1.87v.22h-.64v-.26c0-.58-.12-1.05-.37-1.39-.24-.34-.63-.51-1.16-.51s-.91.17-1.16.51c-.24.34-.37.8-.37,1.38,0,.37.08.7.23.99.16.29.35.54.58.75.23.21.54.46.94.75.42.3.76.57,1.02.8.26.23.48.52.66.86.18.34.26.74.26,1.2,0,.78-.18,1.4-.54,1.87-.36.46-.92.7-1.67.7s-1.31-.23-1.67-.7c-.36-.46-.54-1.08-.54-1.87v-.53h.64v.57c0,.58.12,1.05.37,1.38s.64.5,1.18.5.93-.17,1.18-.5c.25-.34.37-.8.37-1.38,0-.37-.08-.7-.23-.98-.16-.28-.35-.53-.58-.74-.23-.21-.54-.46-.93-.74-.42-.3-.76-.57-1.02-.81-.26-.24-.49-.53-.67-.88-.18-.35-.27-.75-.27-1.21,0-.79.18-1.41.54-1.86.36-.45.91-.68,1.64-.69.74,0,1.29.23,1.65.69Z"/>
        <path d="M51.86,79.51h-2.79v4.27h3.37v.61h-4.04v-10.24h4.04v.61h-3.37v4.13h2.79v.62Z"/>
        <path d="M57.86,76.47v.89c0,.6-.12,1.08-.36,1.43-.24.35-.61.58-1.12.7.99.21,1.48.91,1.48,2.09v1.6c0,.57.08.98.25,1.23h-.7c-.09-.15-.15-.31-.17-.5-.03-.19-.04-.43-.04-.72v-1.61c0-.64-.16-1.1-.48-1.35-.32-.26-.8-.39-1.43-.39h-1.07v4.58h-.67v-10.24h2.14c1.46,0,2.2.77,2.2,2.31ZM56.72,78.84c.31-.24.47-.69.47-1.35v-.97c0-.57-.12-1.01-.37-1.31-.24-.3-.63-.45-1.17-.45h-1.45v4.43h1.08c.64,0,1.12-.12,1.43-.37Z"/>
        <path d="M61.77,83.62l2.08-9.47h.63l-2.22,10.24h-1l-2.25-10.24h.69l2.08,9.47Z"/>
        <path d="M66.17,84.4h-.67v-10.24h.67v10.24Z"/>
        <path d="M71.17,74.78c.36.47.54,1.1.54,1.88v.85h-.64v-.89c0-.58-.12-1.05-.37-1.4-.25-.35-.64-.53-1.18-.53s-.93.18-1.18.53-.37.82-.37,1.4v5.33c0,.58.12,1.05.37,1.4.25.35.64.52,1.18.52s.93-.17,1.18-.52c.25-.35.37-.81.37-1.4v-1.21h.64v1.17c0,.78-.18,1.41-.54,1.88-.36.47-.92.71-1.67.71s-1.31-.24-1.67-.71c-.36-.47-.54-1.1-.54-1.88v-5.24c0-.78.18-1.41.54-1.88.36-.47.92-.71,1.67-.71s1.31.24,1.67.71Z"/>
        <path d="M76.28,79.51h-2.79v4.27h3.37v.61h-4.04v-10.24h4.04v.61h-3.37v4.13h2.79v.62Z"/>
        <path d="M81.73,74.76c.36.46.53,1.08.53,1.87v.22h-.64v-.26c0-.58-.12-1.05-.37-1.39-.24-.34-.63-.51-1.16-.51s-.91.17-1.16.51c-.24.34-.37.8-.37,1.38,0,.37.08.7.23.99.16.29.35.54.58.75.23.21.54.46.94.75.42.3.76.57,1.02.8.26.23.48.52.66.86.18.34.26.74.26,1.2,0,.78-.18,1.4-.54,1.87-.36.46-.92.7-1.67.7s-1.31-.23-1.67-.7c-.36-.46-.54-1.08-.54-1.87v-.53h.64v.57c0,.58.12,1.05.37,1.38s.64.5,1.18.5.93-.17,1.18-.5c.25-.34.37-.8.37-1.38,0-.37-.08-.7-.23-.98-.16-.28-.35-.53-.58-.74-.23-.21-.54-.46-.93-.74-.42-.3-.76-.57-1.02-.81-.26-.24-.49-.53-.67-.88-.18-.35-.27-.75-.27-1.21,0-.79.18-1.41.54-1.86.36-.45.91-.68,1.64-.69.74,0,1.29.23,1.65.69Z"/>
      </g>
      <path class="cls-1" d="M51.5,48.47h-.55c-.11-.02-.22-.05-.33-.07-1.44-.28-2.45-1.09-2.93-2.47-.48-1.35-.21-2.6.72-3.7.47-.57,1.09-.92,1.77-1.15v-6.19h-3.39v.39c0,1.47,0,2.94,0,4.41,0,.87-.38,1.25-1.25,1.25-1.38,0-2.76,0-4.14,0-.21,0-.32.05-.4.26-.58,1.45-1.64,2.28-3.21,2.44-2.5.25-4.56-2.12-3.96-4.58.38-1.58,1.75-2.78,3.3-2.89,1.75-.12,3.25.81,3.87,2.44.08.21.18.3.41.29,1-.02,2.01,0,3.01,0,.1,0,.2-.01.3-.02v-4c-.15,0-.27,0-.39,0-1.11,0-2.21.01-3.32,0-3.63-.06-6.54-2.54-7.17-6.11-.6-3.42,1.44-6.92,4.74-8.04.39-.13.52-.31.55-.7.13-1.53.73-2.89,1.75-4.03,2.73-3.03,7.03-3.35,10.19-.77.17.14.28.15.47.04,1.54-.83,3.19-1.16,4.92-.91,3.53.52,5.84,2.51,6.98,5.87.09.27.21.4.47.5,2.03.76,3.48,2.14,4.28,4.15.26.66.37,1.38.55,2.07v1.3c-.13.55-.2,1.12-.39,1.65-1.08,3.09-3.75,4.97-7.02,4.99-1.07,0-2.14,0-3.21,0-.12,0-.24,0-.36,0v4.02c1.11,0,2.19,0,3.27,0,.26,0,.37-.09.46-.33.55-1.47,1.93-2.41,3.51-2.41,1.52,0,2.92.95,3.47,2.38.11.29.18.61.27.91v.96c-.02.05-.05.1-.06.15-.33,1.73-1.66,2.93-3.44,3.1-1.6.15-3.17-.86-3.77-2.44-.08-.21-.18-.29-.42-.29-1.37.01-2.73,0-4.1,0-.91,0-1.28-.37-1.28-1.29,0-1.46,0-2.92,0-4.38v-.38h-3.41v6.18c.11.05.22.09.32.13,1.3.54,2.11,1.5,2.34,2.88.24,1.45-.26,2.64-1.39,3.57-.59.49-1.3.69-2.03.82ZM51.22,32.81c3.33,0,6.66,0,9.98,0,.34,0,.68-.02,1.02-.07,2.45-.36,4.34-2.45,4.45-4.91.11-2.51-1.55-4.78-3.95-5.35-.65-.15-.98-.5-1.11-1.16-.67-3.37-4.02-5.58-7.38-4.89-.88.18-1.68.54-2.43,1.05-.54.37-1.02.31-1.47-.15-.08-.08-.16-.17-.24-.25-1.04-1.04-2.31-1.58-3.78-1.56-3.02.04-5.31,2.49-5.2,5.52.03.9-.21,1.2-1.11,1.37-2.84.53-4.75,3.44-4.11,6.26.56,2.47,2.63,4.13,5.21,4.14,3.37,0,6.75,0,10.12,0ZM37.49,38.2c-.93,0-1.7.75-1.71,1.68-.01.93.77,1.73,1.7,1.73.93,0,1.72-.79,1.71-1.72,0-.93-.77-1.69-1.7-1.69ZM65.03,38.2c-.95-.02-1.74.72-1.76,1.67-.02.93.75,1.73,1.69,1.74.91.01,1.7-.75,1.72-1.68.02-.93-.73-1.71-1.66-1.73ZM52.94,44.69c0-.93-.76-1.69-1.69-1.7-.95,0-1.72.76-1.72,1.7,0,.92.77,1.69,1.69,1.71.93.01,1.72-.78,1.72-1.71Z"/>
    </g>
  </g>
</svg>