<?xml version="1.0" encoding="UTF-8"?>
<svg xmlns="http://www.w3.org/2000/svg" xmlns:xlink="http://www.w3.org/1999/xlink" viewBox="0 0 103 97">
  <defs>
    <style>
      .cls-1 {
        font-family: BebasNeue-Book, 'Bebas Neue';
      }

      .cls-2 {
        fill: #00aeef;
      }

      .cls-3 {
        fill: none;
      }

      .cls-4 {
        isolation: isolate;
      }

      .cls-5 {
        font-size: 14.63px;
      }

      .cls-6 {
        fill: #fff;
        mix-blend-mode: soft-light;
      }

      .cls-7 {
        font-family: BebasNeueBold, 'Bebas Neue';
      }

      .cls-8 {
        letter-spacing: 0em;
      }
    </style>
    <clipPath id="clippath">
      <rect class="cls-3" x="194.83" y="-365.66" width="960.22" height="540.01"/>
    </clipPath>
  </defs>
  <g class="cls-4">
    <g id="Capa_1" data-name="Capa 1">
      <g>
        <rect class="cls-6" x="0" width="102.46" height="96.94" rx="5" ry="5"/>
        <text class="cls-5" transform="translate(31.66 71.35)"><tspan class="cls-7"><tspan x="0" y="0">SOPORTE</tspan></tspan><tspan class="cls-1"><tspan x="-11.98" y="13.05">as a SE</tspan><tspan class="cls-8" x="21.28" y="13.05">R</tspan><tspan x="26.9" y="13.05">VICEs</tspan></tspan></text>
        <path class="cls-2" d="M51.5,48.47h-.55c-.11-.02-.22-.05-.33-.07-1.44-.28-2.45-1.09-2.93-2.47-.48-1.35-.21-2.6.72-3.7.47-.57,1.09-.92,1.77-1.15v-6.19h-3.39v.39c0,1.47,0,2.94,0,4.41,0,.87-.38,1.25-1.25,1.25-1.38,0-2.76,0-4.14,0-.21,0-.32.05-.4.26-.58,1.45-1.64,2.28-3.21,2.44-2.5.25-4.56-2.12-3.96-4.58.38-1.58,1.75-2.78,3.3-2.89,1.75-.12,3.25.81,3.87,2.44.08.21.18.3.41.29,1-.02,2.01,0,3.01,0,.1,0,.2-.01.3-.02v-4c-.15,0-.27,0-.39,0-1.11,0-2.21.01-3.32,0-3.63-.06-6.54-2.54-7.17-6.11-.6-3.42,1.44-6.92,4.74-8.04.39-.13.52-.31.55-.7.13-1.53.73-2.89,1.75-4.03,2.73-3.03,7.03-3.35,10.19-.77.17.14.28.15.47.04,1.54-.83,3.19-1.16,4.92-.91,3.53.52,5.84,2.51,6.98,5.87.09.27.21.4.47.5,2.03.76,3.48,2.14,4.28,4.15.26.66.37,1.38.55,2.07v1.3c-.13.55-.2,1.12-.39,1.65-1.08,3.09-3.75,4.97-7.02,4.99-1.07,0-2.14,0-3.21,0-.12,0-.24,0-.36,0v4.02c1.11,0,2.19,0,3.27,0,.26,0,.37-.09.46-.33.55-1.47,1.93-2.41,3.51-2.41,1.52,0,2.92.95,3.47,2.38.11.29.18.61.27.91v.96c-.02.05-.05.1-.06.15-.33,1.73-1.66,2.93-3.44,3.1-1.6.15-3.17-.86-3.77-2.44-.08-.21-.18-.29-.42-.29-1.37.01-2.73,0-4.1,0-.91,0-1.28-.37-1.28-1.29,0-1.46,0-2.92,0-4.38v-.38h-3.41v6.18c.11.05.22.09.32.13,1.3.54,2.11,1.5,2.34,2.88.24,1.45-.26,2.64-1.39,3.57-.59.49-1.3.69-2.03.82ZM51.22,32.81c3.33,0,6.66,0,9.98,0,.34,0,.68-.02,1.02-.07,2.45-.36,4.34-2.45,4.45-4.91.11-2.51-1.55-4.78-3.95-5.35-.65-.15-.98-.5-1.11-1.16-.67-3.37-4.02-5.58-7.38-4.89-.88.18-1.68.54-2.43,1.05-.54.37-1.02.31-1.47-.15-.08-.08-.16-.17-.24-.25-1.04-1.04-2.31-1.58-3.78-1.56-3.02.04-5.31,2.49-5.2,5.52.03.9-.21,1.2-1.11,1.37-2.84.53-4.75,3.44-4.11,6.26.56,2.47,2.63,4.13,5.21,4.14,3.37,0,6.75,0,10.12,0ZM37.49,38.2c-.93,0-1.7.75-1.71,1.68-.01.93.77,1.73,1.7,1.73.93,0,1.72-.79,1.71-1.72,0-.93-.77-1.69-1.7-1.69ZM65.03,38.2c-.95-.02-1.74.72-1.76,1.67-.02.93.75,1.73,1.69,1.74.91.01,1.7-.75,1.72-1.68.02-.93-.73-1.71-1.66-1.73ZM52.94,44.69c0-.93-.76-1.69-1.69-1.7-.95,0-1.72.76-1.72,1.7,0,.92.77,1.69,1.69,1.71.93.01,1.72-.78,1.72-1.71Z"/>
      </g>
    </g>
  </g>
</svg>