<?xml version="1.0" encoding="UTF-8"?>
<svg xmlns="http://www.w3.org/2000/svg" xmlns:xlink="http://www.w3.org/1999/xlink" viewBox="0 0 103 97">
  <defs>
    <style>
      .cls-1 {
        font-family: BebasNeue-Book, 'Bebas Neue';
      }

      .cls-2 {
        fill: #00aeef;
      }

      .cls-3 {
        fill: none;
      }

      .cls-4 {
        isolation: isolate;
      }

      .cls-5 {
        font-size: 14.63px;
      }

      .cls-6 {
        fill: #fff;
        mix-blend-mode: soft-light;
      }

      .cls-7 {
        font-family: BebasNeueBold, 'Bebas Neue';
      }

      .cls-8 {
        letter-spacing: 0em;
      }
    </style>
    <clipPath id="clippath">
      <rect class="cls-3" x="533.83" y="-471.66" width="960.22" height="540.01"/>
    </clipPath>
  </defs>
  <g class="cls-4">
    <g id="Capa_1" data-name="Capa 1">
      <g>
        <rect class="cls-6" width="102.46" height="96.94" rx="5" ry="5"/>
        <text class="cls-5" transform="translate(34.77 71.35)"><tspan class="cls-7"><tspan x="0" y="0">pmo as</tspan></tspan><tspan class="cls-1"><tspan x="-8.05" y="13.05">a se</tspan><tspan class="cls-8" x="11.14" y="13.05">r</tspan><tspan x="16.76" y="13.05">vices</tspan></tspan></text>
        <g>
          <path class="cls-2" d="M50.15,13.7c.72,0,1.44,0,2.15,0,.43.05.86.1,1.29.17.68.11.99.45,1.06,1.14.1.93.22,1.85.34,2.77.01.09.1.2.18.23.85.34,1.7.67,2.6,1.03.74-.58,1.53-1.2,2.32-1.82.53-.41.99-.41,1.53,0,1.23.93,2.32,2.02,3.26,3.24.49.64.49,1.06,0,1.69-.6.77-1.2,1.54-1.76,2.25.35.9.68,1.76,1.03,2.61.03.08.15.17.23.18.9.12,1.8.24,2.7.34.81.09,1.14.41,1.23,1.24.04.38.09.75.14,1.13v2.16c-.05.42-.1.84-.16,1.26-.1.7-.45,1.02-1.15,1.1-.92.1-1.85.22-2.77.34-.09.01-.2.1-.23.18-.34.85-.67,1.71-1.03,2.6.59.75,1.22,1.55,1.84,2.36.39.5.38.98,0,1.48-.93,1.23-2.01,2.33-3.23,3.27-.67.52-1.07.52-1.74,0-.76-.59-1.52-1.19-2.22-1.74-.9.35-1.76.68-2.61,1.03-.08.03-.17.17-.18.26-.12.88-.23,1.76-.33,2.64-.1.87-.4,1.18-1.27,1.27-.37.04-.73.09-1.09.14h-2.15c-.44-.06-.89-.1-1.33-.17-.63-.1-.95-.44-1.02-1.07-.11-.91-.23-1.83-.32-2.74-.02-.24-.14-.31-.33-.39-.73-.29-1.45-.58-2.17-.9-.2-.09-.31-.07-.47.05-.73.58-1.46,1.16-2.2,1.73-.5.38-.97.37-1.47,0-1.25-.95-2.35-2.05-3.3-3.3-.45-.59-.45-1.03,0-1.61.56-.72,1.12-1.44,1.68-2.15.11-.14.13-.24.05-.41-.33-.75-.64-1.51-.94-2.27-.07-.17-.13-.25-.32-.27-.91-.1-1.82-.22-2.74-.33-.65-.08-1.01-.38-1.1-1.02-.24-1.61-.24-3.22,0-4.84.09-.63.45-.94,1.07-1.02.91-.11,1.82-.23,2.74-.33.22-.02.29-.12.37-.31.29-.74.59-1.48.91-2.2.08-.18.08-.29-.04-.44-.58-.73-1.15-1.46-1.72-2.2-.4-.52-.39-.98,0-1.5.94-1.25,2.03-2.34,3.26-3.29.62-.47,1.04-.47,1.66.01.71.55,1.41,1.11,2.12,1.66.09.07.27.1.37.06.77-.3,1.53-.62,2.29-.95.11-.05.23-.18.25-.28.13-.89.24-1.78.34-2.67.09-.81.4-1.13,1.2-1.23.39-.05.77-.1,1.16-.14ZM52.6,46.03c.13-1.04.25-2,.37-2.97.06-.55.36-.89.89-1.01,1.19-.28,2.3-.75,3.34-1.38.48-.29.93-.25,1.37.09.7.55,1.39,1.1,2.09,1.64.08.06.16.11.31.22.64-.64,1.28-1.26,1.92-1.9-.68-.87-1.28-1.65-1.89-2.43-.32-.41-.38-.84-.12-1.28.65-1.09,1.13-2.24,1.43-3.47.12-.48.45-.76.95-.82.16-.02.31-.04.47-.06.83-.1,1.67-.2,2.54-.31,0-.84,0-1.66,0-2.47,0-.23-.1-.3-.32-.32-.87-.09-1.74-.2-2.6-.32-.65-.09-.92-.33-1.08-.98-.27-1.06-.67-2.07-1.22-3.02-.49-.84-.47-1.07.13-1.84.54-.7,1.09-1.39,1.67-2.13-.65-.66-1.29-1.3-1.92-1.94-.83.65-1.59,1.25-2.35,1.84-.49.38-.89.41-1.43.08-1.02-.62-2.11-1.07-3.28-1.35-.54-.13-.83-.45-.9-1-.12-.89-.22-1.78-.33-2.67-.02-.14,0-.31-.22-.31-.85,0-1.7,0-2.56,0-.02.15-.04.26-.05.37-.1.85-.22,1.69-.31,2.54-.07.61-.39.95-.98,1.09-1.07.26-2.09.67-3.04,1.23-.8.47-1.06.45-1.79-.12-.7-.55-1.41-1.11-2.17-1.7-.65.65-1.29,1.29-1.93,1.93.66.85,1.26,1.62,1.87,2.39.35.44.38.89.08,1.37-.63,1.04-1.09,2.16-1.38,3.35-.12.51-.45.81-.98.87-.89.11-1.78.21-2.67.34-.11.02-.3.13-.3.2-.02.85-.01,1.7-.01,2.56.12.02.21.04.29.05.88.11,1.76.21,2.64.33.63.08.9.34,1.05.96.27,1.11.7,2.15,1.28,3.14.4.68.38,1.01-.1,1.62-.57.73-1.15,1.47-1.77,2.27.64.65,1.28,1.29,1.92,1.93.16-.12.23-.17.3-.23.71-.55,1.41-1.11,2.12-1.66.38-.3.8-.39,1.22-.14,1.12.67,2.32,1.16,3.59,1.49.43.11.68.43.74.87.05.34.09.69.13,1.04.08.67.16,1.33.25,2.04h2.73Z"/>
          <path class="cls-2" d="M51.26,22.88c4.46.01,8.07,3.67,8.05,8.13-.02,4.45-3.66,8.06-8.1,8.05-4.45-.01-8.07-3.67-8.05-8.14.02-4.45,3.66-8.06,8.1-8.05ZM55.93,34.53c1.69-2.07,1.77-5.6-.65-7.89-2.33-2.21-6-2.14-8.26.15-2.32,2.36-2.1,5.83-.49,7.74.56-.42,1.12-.85,1.68-1.27-1.38-1.95-.69-4.1.58-5.17,1.38-1.17,3.4-1.19,4.8-.06,1.29,1.04,2.07,3.22.65,5.23.56.42,1.12.85,1.69,1.27ZM48.19,36.04c1.99,1.28,4.73,1,6.06-.04-1.68-1.76-4.59-1.59-6.06.04ZM52.85,30.96c0-.88-.72-1.61-1.6-1.61-.89,0-1.63.73-1.63,1.62,0,.88.72,1.61,1.6,1.61.89,0,1.63-.73,1.63-1.62Z"/>
        </g>
      </g>
    </g>
  </g>
</svg>