<?xml version="1.0" encoding="UTF-8"?>
<svg xmlns="http://www.w3.org/2000/svg" xmlns:xlink="http://www.w3.org/1999/xlink" viewBox="0 0 139 140">
  <defs>
    <style>
      .cls-1 {
        fill: #00aeef;
      }

      .cls-2 {
        isolation: isolate;
      }

      .cls-3 {
        filter: url(#drop-shadow-1);
      }

      .cls-3, .cls-4 {
        fill: #fff;
      }

      .cls-4 {
        mix-blend-mode: soft-light;
      }
    </style>
    <filter id="drop-shadow-1" x="0" y="0" width="139" height="140" filterUnits="userSpaceOnUse">
      <feOffset dx="7" dy="7"/>
      <feGaussianBlur result="blur" stdDeviation="6"/>
      <feFlood flood-color="#000" flood-opacity=".3"/>
      <feComposite in2="blur" operator="in"/>
      <feComposite in="SourceGraphic"/>
    </filter>
  </defs>
  <g class="cls-2">
    <g id="Capa_2" data-name="Capa 2">
      <g id="Main">
        <g>
          <rect class="cls-3" x="11.31" y="11.66" width="102.46" height="102.46" rx="7.01" ry="7.01"/>
          <g>
            <rect class="cls-4" x="11.31" y="14.36" width="102.46" height="96.94" rx="5" ry="5"/>
            <g>
              <path d="M41.91,75.35c1.57,0,2.37.94,2.37,2.58v.32h-1.52v-.42c0-.73-.29-1.01-.8-1.01s-.8.28-.8,1.01c0,2.11,3.15,2.5,3.15,5.43,0,1.64-.82,2.58-2.4,2.58s-2.4-.94-2.4-2.58v-.63h1.52v.73c0,.73.32,1,.83,1s.83-.26.83-1c0-2.11-3.15-2.5-3.15-5.43,0-1.64.8-2.58,2.37-2.58Z"/>
              <path d="M45.09,77.93c0-1.64.86-2.58,2.44-2.58s2.44.94,2.44,2.58v5.33c0,1.64-.86,2.58-2.44,2.58s-2.44-.94-2.44-2.58v-5.33ZM46.7,83.35c0,.73.32,1.01.83,1.01s.83-.28.83-1.01v-5.53c0-.73-.32-1.01-.83-1.01s-.83.28-.83,1.01v5.53Z"/>
              <path d="M52.62,80.02h2.08v1.46h-2.08v4.23h-1.61v-10.24h4.26v1.46h-2.65v3.09Z"/>
              <path d="M55.58,75.47h4.98v1.46h-1.68v8.78h-1.61v-8.78h-1.68v-1.46Z"/>
              <path d="M64.83,80.25l-.59,5.46h-2.21l-1.14-10.24h1.57l.86,8.08.78-8.08h1.55l.8,8.14.83-8.14h1.4l-1.14,10.24h-2.14l-.58-5.46Z"/>
              <path d="M74.49,85.71h-1.62l-.28-1.86h-1.98l-.28,1.86h-1.48l1.64-10.24h2.36l1.64,10.24ZM70.81,82.46h1.55l-.78-5.18-.78,5.18Z"/>
              <path d="M78.6,85.71c-.09-.26-.15-.42-.15-1.26v-1.61c0-.95-.32-1.3-1.05-1.3h-.56v4.17h-1.61v-10.24h2.43c1.67,0,2.38.78,2.38,2.36v.8c0,1.05-.34,1.74-1.05,2.08.81.34,1.07,1.11,1.07,2.18v1.58c0,.5.01.86.18,1.24h-1.64ZM76.84,76.93v3.15h.63c.6,0,.97-.26.97-1.08v-1.01c0-.73-.25-1.05-.82-1.05h-.78Z"/>
              <path d="M82.72,79.78h2.21v1.46h-2.21v3h2.78v1.46h-4.39v-10.24h4.39v1.46h-2.78v2.85Z"/>
              <path d="M44.27,89.12c.36.46.53,1.09.53,1.87v.22h-.64v-.26c0-.58-.12-1.05-.37-1.39-.24-.34-.63-.51-1.16-.51s-.91.17-1.16.51c-.24.34-.37.8-.37,1.38,0,.37.08.7.23.99.16.29.35.54.58.75.23.21.54.46.94.75.42.3.76.57,1.02.8.26.23.48.52.66.86s.26.74.26,1.2c0,.78-.18,1.4-.54,1.87-.36.46-.92.7-1.67.7s-1.31-.23-1.67-.7c-.36-.46-.54-1.08-.54-1.87v-.53h.64v.57c0,.59.12,1.05.37,1.38s.64.5,1.18.5.93-.17,1.18-.5c.25-.34.37-.8.37-1.38,0-.37-.08-.7-.23-.98-.16-.28-.35-.53-.58-.74s-.54-.46-.93-.74c-.42-.3-.76-.57-1.02-.81-.26-.24-.49-.53-.67-.88-.18-.35-.27-.75-.27-1.21,0-.79.18-1.41.54-1.86.36-.45.91-.68,1.64-.69.74,0,1.29.23,1.65.69Z"/>
              <path d="M46.42,89.14c.38-.47.93-.71,1.68-.71s1.33.23,1.71.7c.38.47.56,1.1.56,1.89v5.24c0,.79-.19,1.42-.56,1.89-.38.47-.94.7-1.71.7s-1.3-.24-1.68-.71c-.38-.47-.56-1.1-.56-1.88v-5.24c0-.78.19-1.41.56-1.88ZM46.91,97.71c.25.35.65.52,1.19.52s.95-.17,1.21-.52c.26-.35.39-.82.39-1.41v-5.33c0-.59-.13-1.07-.39-1.41-.26-.35-.66-.52-1.21-.52s-.93.17-1.19.52c-.25.35-.38.82-.38,1.41v5.33c0,.6.13,1.07.38,1.41Z"/>
              <path d="M51.47,88.52h.67v9.63h3.22v.61h-3.89v-10.24Z"/>
              <path d="M57.39,97.71c.24.35.63.53,1.17.53s.93-.18,1.17-.53c.24-.35.37-.82.37-1.42v-7.77h.63v7.74c0,.78-.18,1.41-.53,1.88-.36.47-.91.71-1.65.71s-1.29-.24-1.65-.71c-.36-.47-.54-1.1-.54-1.88v-7.74h.67v7.77c0,.6.12,1.07.37,1.42Z"/>
              <path d="M63.61,89.13h-2.08v-.61h4.84v.61h-2.09v9.63h-.67v-9.63Z"/>
              <path d="M67.88,98.76h-.67v-10.24h.67v10.24Z"/>
              <path d="M69.57,89.14c.38-.47.93-.71,1.68-.71s1.33.23,1.71.7c.38.47.56,1.1.56,1.89v5.24c0,.79-.19,1.42-.56,1.89-.38.47-.94.7-1.71.7s-1.3-.24-1.68-.71c-.38-.47-.56-1.1-.56-1.88v-5.24c0-.78.19-1.41.56-1.88ZM70.06,97.71c.25.35.65.52,1.19.52s.95-.17,1.21-.52c.26-.35.39-.82.39-1.41v-5.33c0-.59-.13-1.07-.39-1.41-.26-.35-.66-.52-1.21-.52s-.93.17-1.19.52c-.25.35-.38.82-.38,1.41v5.33c0,.6.13,1.07.38,1.41Z"/>
              <path d="M74.62,98.76v-10.24h.88l3.07,8.65v-8.65h.62v10.24h-.75l-3.2-9.13v9.13h-.62Z"/>
              <path d="M84.13,89.12c.36.46.53,1.09.53,1.87v.22h-.64v-.26c0-.58-.12-1.05-.37-1.39-.24-.34-.63-.51-1.16-.51s-.91.17-1.16.51c-.24.34-.37.8-.37,1.38,0,.37.08.7.23.99.16.29.35.54.58.75.23.21.54.46.94.75.42.3.76.57,1.02.8.26.23.48.52.66.86s.26.74.26,1.2c0,.78-.18,1.4-.54,1.87-.36.46-.92.7-1.67.7s-1.31-.23-1.67-.7c-.36-.46-.54-1.08-.54-1.87v-.53h.64v.57c0,.59.12,1.05.37,1.38s.64.5,1.18.5.93-.17,1.18-.5c.25-.34.37-.8.37-1.38,0-.37-.08-.7-.23-.98-.16-.28-.35-.53-.58-.74s-.54-.46-.93-.74c-.42-.3-.76-.57-1.02-.81-.26-.24-.49-.53-.67-.88-.18-.35-.27-.75-.27-1.21,0-.79.18-1.41.54-1.86.36-.45.91-.68,1.64-.69.74,0,1.29.23,1.65.69Z"/>
            </g>
            <g>
              <path class="cls-1" d="M77.74,37.73h-.52c-5.23,0-10.45,0-15.68,0-.17,0-.35,0-.51-.02-.64-.12-1.08-.72-1.02-1.36.06-.62.57-1.11,1.21-1.15.13,0,.26,0,.4,0,5.2,0,10.4,0,15.6,0h.5v-2.51h-30.36v25.32h.44c4.41,0,8.82,0,13.23,0,.21,0,.43,0,.62.07.59.17.95.74.89,1.34-.07.59-.55,1.07-1.15,1.12-.12.01-.24,0-.36,0-4.9,0-9.79,0-14.69,0-1.07,0-1.54-.47-1.54-1.55,0-9.11,0-18.21,0-27.32,0-1.09.45-1.55,1.53-1.55,10.81,0,21.62,0,32.43,0,1.05,0,1.52.47,1.53,1.52,0,3.26,0,6.52,0,9.78,0,.98-.84,1.61-1.69,1.3-.52-.19-.83-.64-.84-1.22,0-1.1,0-2.19,0-3.29,0-.14,0-.29,0-.48Z"/>
              <path class="cls-1" d="M62.54,51.66c0-4.87,3.97-8.85,8.83-8.86,4.94,0,8.92,3.96,8.91,8.89,0,4.84-3.99,8.85-8.81,8.84-4.97,0-8.93-3.94-8.93-8.87ZM77.74,51.67c-.01-3.5-2.85-6.34-6.31-6.34-3.54,0-6.36,2.84-6.36,6.37,0,3.48,2.88,6.31,6.39,6.3,3.45-.01,6.29-2.88,6.28-6.33Z"/>
              <path class="cls-1" d="M54.92,51.61s.06.04.07.05c.9.1,1.32.89,1.19,1.52-.16.77-.86,1.16-1.75.97-1.19-.25-2-1.24-2.02-2.45,0-.42,0-.84,0-1.27-.02-.73-.51-1.24-1.23-1.29-.78-.06-1.3-.56-1.3-1.27,0-.71.52-1.21,1.3-1.27.73-.05,1.22-.56,1.24-1.29,0-.45,0-.9,0-1.35.04-1.29,1.09-2.36,2.37-2.43.73-.04,1.32.42,1.42,1.09.09.66-.34,1.24-1.04,1.42-.06.02-.13.02-.17.03-.04.69,0,1.37-.15,2.02-.14.62-.49,1.2-.77,1.88.92.98.94,2.31.87,3.63Z"/>
              <path class="cls-1" d="M60.58,46.59c-.22,0-.45.01-.67,0-.66-.05-1.17-.61-1.17-1.27,0-.66.52-1.22,1.18-1.25.47-.02.95-.02,1.42,0,.66.03,1.19.59,1.19,1.25,0,.67-.52,1.24-1.2,1.28-.25.01-.5,0-.75,0h0Z"/>
              <path class="cls-1" d="M51.14,35.19c.69,0,1.26.58,1.25,1.27,0,.7-.59,1.28-1.3,1.26-.69-.02-1.25-.6-1.23-1.29.01-.69.58-1.25,1.28-1.24Z"/>
              <path class="cls-1" d="M57.47,36.47c0,.69-.57,1.26-1.26,1.26-.71,0-1.28-.58-1.27-1.29.01-.69.59-1.25,1.28-1.24.69,0,1.25.58,1.25,1.27Z"/>
              <path class="cls-1" d="M61.27,50.39c0,.69-.56,1.26-1.25,1.27-.71,0-1.29-.58-1.28-1.28,0-.69.58-1.25,1.27-1.25.69,0,1.26.58,1.26,1.26Z"/>
              <path class="cls-1" d="M70.4,51.8c.86-1.16,1.67-2.26,2.48-3.36.33-.44.76-.65,1.31-.54.51.1.84.42.98.93.11.4.02.76-.22,1.08-1.25,1.68-2.5,3.36-3.77,5.02-.62.81-1.67.71-2.14-.19-.41-.79-.81-1.59-1.2-2.4-.32-.67-.08-1.4.56-1.71.64-.32,1.35-.07,1.7.6.09.17.18.35.3.58Z"/>
            </g>
          </g>
        </g>
      </g>
    </g>
  </g>
</svg>