<?xml version="1.0" encoding="UTF-8"?>
<svg xmlns="http://www.w3.org/2000/svg" xmlns:xlink="http://www.w3.org/1999/xlink" viewBox="0 0 139 140">
  <defs>
    <style>
      .cls-1 {
        fill: #00aeef;
      }

      .cls-2 {
        isolation: isolate;
      }

      .cls-3 {
        filter: url(#drop-shadow-1);
      }

      .cls-3, .cls-4 {
        fill: #fff;
      }

      .cls-4 {
        mix-blend-mode: soft-light;
      }
    </style>
    <filter id="drop-shadow-1" x="0" y="0" width="139" height="140" filterUnits="userSpaceOnUse">
      <feOffset dx="7" dy="7"/>
      <feGaussianBlur result="blur" stdDeviation="6"/>
      <feFlood flood-color="#000" flood-opacity=".3"/>
      <feComposite in2="blur" operator="in"/>
      <feComposite in="SourceGraphic"/>
    </filter>
  </defs>
  <g class="cls-2">
    <g id="Capa_2" data-name="Capa 2">
      <g id="Main">
        <g>
          <rect class="cls-3" x="11.22" y="11.56" width="102.46" height="102.46" rx="7.01" ry="7.01"/>
          <g>
            <rect class="cls-4" x="11.22" y="14.32" width="102.46" height="96.94" rx="5" ry="5"/>
            <g>
              <path d="M35.19,79.74h2.21v1.46h-2.21v3h2.78v1.46h-4.39v-10.24h4.39v1.46h-2.78v2.85Z"/>
              <path d="M38.89,79.82h2.93v1.46h-2.93v-1.46Z"/>
              <path d="M47.58,81.85v1.36c0,1.64-.82,2.58-2.4,2.58s-2.4-.94-2.4-2.58v-5.33c0-1.64.82-2.58,2.4-2.58s2.4.94,2.4,2.58v1h-1.52v-1.1c0-.73-.32-1.01-.83-1.01s-.83.28-.83,1.01v5.53c0,.73.32,1,.83,1s.83-.26.83-1v-1.46h1.52Z"/>
              <path d="M48.43,77.89c0-1.64.86-2.58,2.44-2.58s2.44.94,2.44,2.58v5.33c0,1.64-.86,2.58-2.44,2.58s-2.44-.94-2.44-2.58v-5.33ZM50.04,83.31c0,.73.32,1.01.83,1.01s.83-.28.83-1.01v-5.53c0-.73-.32-1.01-.83-1.01s-.83.28-.83,1.01v5.53Z"/>
              <path d="M57.76,82.7l1.1-7.27h2.24v10.24h-1.52v-7.35l-1.11,7.35h-1.52l-1.2-7.24v7.24h-1.41v-10.24h2.24l1.19,7.27Z"/>
              <path d="M65.68,82.7l1.1-7.27h2.24v10.24h-1.52v-7.35l-1.11,7.35h-1.52l-1.2-7.24v7.24h-1.41v-10.24h2.24l1.19,7.27Z"/>
              <path d="M71.8,79.74h2.21v1.46h-2.21v3h2.78v1.46h-4.39v-10.24h4.39v1.46h-2.78v2.85Z"/>
              <path d="M78.94,85.67c-.09-.26-.15-.42-.15-1.26v-1.61c0-.95-.32-1.3-1.05-1.3h-.56v4.17h-1.61v-10.24h2.43c1.67,0,2.38.78,2.38,2.36v.8c0,1.05-.34,1.74-1.05,2.08.81.34,1.07,1.11,1.07,2.18v1.58c0,.5.01.86.18,1.24h-1.64ZM77.18,76.89v3.15h.63c.6,0,.97-.26.97-1.08v-1.01c0-.73-.25-1.05-.82-1.05h-.78Z"/>
              <path d="M86.12,81.85v1.36c0,1.64-.82,2.58-2.4,2.58s-2.4-.94-2.4-2.58v-5.33c0-1.64.82-2.58,2.4-2.58s2.4.94,2.4,2.58v1h-1.52v-1.1c0-.73-.32-1.01-.83-1.01s-.83.28-.83,1.01v5.53c0,.73.32,1,.83,1s.83-.26.83-1v-1.46h1.52Z"/>
              <path d="M88.71,79.74h2.21v1.46h-2.21v3h2.78v1.46h-4.39v-10.24h4.39v1.46h-2.78v2.85Z"/>
            </g>
            <g>
              <polygon class="cls-1" points="66.36 60.93 64.36 60.93 64.36 52.5 60.08 52.5 60.08 60.93 58.08 60.93 58.08 50.5 66.36 50.5 66.36 60.93"/>
              <polygon class="cls-1" points="75.79 61.93 48.65 61.93 48.65 46.57 50.65 46.57 50.65 59.93 73.79 59.93 73.79 46.57 75.79 46.57 75.79 61.93"/>
              <path class="cls-1" d="M58.09,44.65c-1.26,0-2.49-.39-3.53-1.14-.2-.14-.39-.3-.57-.46-1.1,1.02-2.56,1.6-4.08,1.6-.06,0-.12,0-.18,0-3.12,0-5.72-2.53-5.8-5.69v-.32s6.75-10.14,6.75-10.14h23.07l6.76,10.14v.32c-.08,3.21-2.78,5.74-5.97,5.69h-.04c-1.5,0-2.96-.58-4.05-1.6-2.07,1.91-5.28,2.17-7.65.46-.2-.14-.39-.3-.57-.47-.86.8-1.95,1.33-3.14,1.53-.33.05-.66.08-.99.08ZM53.98,39.81l.82,1.14c.26.36.57.67.93.93.88.64,1.96.89,3.03.71,1.07-.18,2.01-.76,2.65-1.64l.81-1.13.81,1.13c.26.36.57.67.93.93.88.63,1.96.89,3.03.71,1.07-.18,2.01-.76,2.65-1.64l.82-1.14.81,1.14c.75,1.07,2,1.72,3.29,1.69.03,0,.06,0,.09,0,2,0,3.64-1.5,3.84-3.44l-5.8-8.7h-20.93l-5.8,8.7c.2,1.94,1.84,3.44,3.81,3.44.04,0,.07,0,.12,0,1.33,0,2.54-.63,3.29-1.69l.81-1.14Z"/>
            </g>
          </g>
        </g>
      </g>
    </g>
  </g>
</svg>