<?xml version="1.0" encoding="UTF-8"?>
<svg xmlns="http://www.w3.org/2000/svg" xmlns:xlink="http://www.w3.org/1999/xlink" viewBox="0 0 139 140">
  <defs>
    <style>
      .cls-1 {
        fill: #00aeef;
      }

      .cls-2 {
        isolation: isolate;
      }

      .cls-3 {
        filter: url(#drop-shadow-1);
      }

      .cls-3, .cls-4 {
        fill: #fff;
      }

      .cls-4 {
        mix-blend-mode: soft-light;
      }
    </style>
    <filter id="drop-shadow-1" x="0" y="0" width="139" height="140" filterUnits="userSpaceOnUse">
      <feOffset dx="7" dy="7"/>
      <feGaussianBlur result="blur" stdDeviation="6"/>
      <feFlood flood-color="#000" flood-opacity=".3"/>
      <feComposite in2="blur" operator="in"/>
      <feComposite in="SourceGraphic"/>
    </filter>
  </defs>
  <g class="cls-2">
    <g id="Capa_2" data-name="Capa 2">
      <g id="Main">
        <g>
          <rect class="cls-3" x="11.22" y="11.66" width="102.46" height="102.46" rx="7.01" ry="7.01"/>
          <g>
            <rect class="cls-4" x="11.22" y="14.36" width="102.46" height="96.94" rx="5" ry="5"/>
            <g>
              <path d="M27.4,75.47h1.61v10.24h-1.61v-10.24Z"/>
              <path d="M31.61,78.29v7.42h-1.45v-10.24h2.02l1.65,6.13v-6.13h1.43v10.24h-1.65l-2-7.42Z"/>
              <path d="M35.96,75.47h4.98v1.46h-1.68v8.78h-1.61v-8.78h-1.68v-1.46Z"/>
              <path d="M43.25,79.78h2.21v1.46h-2.21v3h2.78v1.46h-4.39v-10.24h4.39v1.46h-2.78v2.85Z"/>
              <path d="M49.44,80h2.25v3.25c0,1.64-.82,2.58-2.4,2.58s-2.4-.94-2.4-2.58v-5.33c0-1.64.82-2.58,2.4-2.58s2.4.94,2.4,2.58v.99h-1.52v-1.1c0-.73-.32-1.01-.83-1.01s-.83.28-.83,1.01v5.53c0,.73.32,1,.83,1s.83-.26.83-1v-1.89h-.73v-1.46Z"/>
              <path d="M56.09,85.71c-.09-.26-.15-.42-.15-1.26v-1.61c0-.95-.32-1.3-1.05-1.3h-.56v4.17h-1.61v-10.24h2.43c1.67,0,2.38.78,2.38,2.36v.8c0,1.05-.34,1.74-1.05,2.08.8.34,1.07,1.11,1.07,2.18v1.58c0,.5.01.86.18,1.24h-1.64ZM54.34,76.93v3.15h.63c.6,0,.97-.26.97-1.08v-1.01c0-.73-.25-1.05-.82-1.05h-.78Z"/>
              <path d="M63.82,85.71h-1.62l-.28-1.86h-1.98l-.28,1.86h-1.48l1.64-10.24h2.36l1.64,10.24ZM60.15,82.46h1.55l-.78-5.18-.78,5.18Z"/>
              <path d="M69.23,81.89v1.36c0,1.64-.82,2.58-2.4,2.58s-2.4-.94-2.4-2.58v-5.33c0-1.64.82-2.58,2.4-2.58s2.4.94,2.4,2.58v.99h-1.52v-1.1c0-.73-.32-1.01-.83-1.01s-.83.28-.83,1.01v5.53c0,.73.32,1,.83,1s.83-.26.83-1v-1.46h1.52Z"/>
              <path d="M70.21,75.47h1.61v10.24h-1.61v-10.24Z"/>
              <path d="M72.86,77.93c0-1.64.86-2.58,2.44-2.58s2.44.94,2.44,2.58v5.33c0,1.64-.86,2.58-2.44,2.58s-2.44-.94-2.44-2.58v-5.33ZM77.03,73.3l-1.49,1.62h-1.08l1-1.62h1.58ZM74.47,83.35c0,.73.32,1.01.83,1.01s.83-.28.83-1.01v-5.53c0-.73-.32-1.01-.83-1.01s-.83.28-.83,1.01v5.53Z"/>
              <path d="M80.22,78.29v7.42h-1.45v-10.24h2.02l1.65,6.13v-6.13h1.43v10.24h-1.65l-2-7.42Z"/>
              <path d="M87.31,75.47h2.55c1.61,0,2.4.89,2.4,2.53v5.18c0,1.64-.79,2.53-2.4,2.53h-2.55v-10.24ZM88.92,76.93v7.32h.91c.51,0,.82-.26.82-1v-5.33c0-.73-.31-1-.82-1h-.91Z"/>
              <path d="M94.89,79.78h2.21v1.46h-2.21v3h2.78v1.46h-4.39v-10.24h4.39v1.46h-2.78v2.85Z"/>
              <path d="M52.79,89.2c.38.45.56,1.08.56,1.87v5.15c0,.79-.19,1.41-.56,1.87-.38.45-.94.68-1.71.68h-2.25v-10.24h2.25c.76,0,1.33.23,1.71.68ZM52.29,97.64c.26-.34.39-.8.39-1.4v-5.21c0-.59-.13-1.05-.39-1.39-.26-.34-.67-.51-1.21-.51h-1.57v9.01h1.57c.55,0,.95-.17,1.21-.5Z"/>
              <path d="M54.92,98.76h-.61l2.24-10.26h.98l2.28,10.26h-.67l-.51-2.27h-3.19l-.51,2.27ZM58.52,95.91l-1.51-6.63-1.48,6.63h2.99Z"/>
              <path d="M62.61,89.13h-2.09v-.61h4.84v.61h-2.08v9.63h-.67v-9.63Z"/>
              <path d="M66.75,89.14c.38-.47.93-.71,1.68-.71s1.33.23,1.71.7c.38.47.56,1.1.56,1.89v5.24c0,.79-.19,1.42-.56,1.89-.38.47-.94.7-1.71.7s-1.3-.24-1.68-.71c-.38-.47-.56-1.1-.56-1.88v-5.24c0-.78.19-1.41.56-1.88ZM67.24,97.71c.25.35.65.52,1.19.52s.95-.17,1.21-.52c.26-.35.39-.82.39-1.41v-5.33c0-.59-.13-1.07-.39-1.41-.26-.35-.66-.52-1.21-.52s-.93.17-1.19.52c-.25.35-.38.82-.38,1.41v5.33c0,.6.13,1.07.38,1.41Z"/>
              <path d="M75.59,89.12c.36.46.53,1.09.53,1.87v.22h-.64v-.26c0-.58-.12-1.05-.37-1.39-.24-.34-.63-.51-1.16-.51s-.91.17-1.16.51c-.24.34-.37.8-.37,1.38,0,.37.08.7.23.99.16.29.35.54.58.75.23.21.54.46.94.75.42.3.76.57,1.02.8.26.23.48.52.66.86s.26.74.26,1.2c0,.78-.18,1.4-.54,1.87-.36.46-.92.7-1.67.7s-1.31-.23-1.67-.7c-.36-.46-.54-1.08-.54-1.87v-.53h.64v.57c0,.59.12,1.05.37,1.38s.64.5,1.18.5.93-.17,1.18-.5c.25-.34.37-.8.37-1.38,0-.37-.08-.7-.23-.98-.16-.28-.35-.53-.58-.74s-.54-.46-.93-.74c-.42-.3-.76-.57-1.02-.81-.26-.24-.49-.53-.67-.88-.18-.35-.27-.75-.27-1.21,0-.79.18-1.41.54-1.86.36-.45.91-.68,1.64-.69.74,0,1.29.23,1.65.69Z"/>
            </g>
            <g>
              <path class="cls-1" d="M72.6,44.35c1.56,0,3.04,0,4.52,0,.32,0,.64.03.94.12.84.26,1.32.99,1.32,1.95,0,2.05,0,4.11,0,6.16,0,2.34,0,4.69,0,7.03,0,1.4-.78,2.18-2.2,2.18-9.83,0-19.67,0-29.5,0-1.42,0-2.2-.76-2.2-2.17,0-9.53,0-19.06,0-28.58,0-1.41.77-2.18,2.19-2.18,7.57,0,15.15,0,22.72,0,1.44,0,2.19.76,2.2,2.21,0,4.24,0,8.49,0,12.73,0,.16,0,.33,0,.54ZM77.43,46.33h-13.5v13.49h13.5v-13.49ZM47.46,30.83v5.75h23.18v-5.75h-23.18ZM70.65,38.58h-23.19v5.75h23.19v-5.75ZM61.93,54.08h-14.48v5.74h14.48v-5.74ZM47.46,46.33v5.74h14.47v-5.74h-14.47Z"/>
              <path class="cls-1" d="M57.11,32.75c-.62,0-1.25,0-1.87,0-.61,0-1.04.41-1.04.96,0,.54.43.96,1.03.97,1.25,0,2.5,0,3.74,0,.61,0,1.03-.41,1.03-.96,0-.56-.41-.95-1.03-.96-.62,0-1.25,0-1.87,0ZM50.35,33.7c0,.55.43.98.97.98.52,0,.95-.44.96-.95,0-.54-.43-.97-.97-.97-.53,0-.94.41-.95.95Z"/>
              <path class="cls-1" d="M69.69,53.67c1.06-1.07,2.07-2.1,3.11-3.09.22-.21.58-.37.87-.36.73.03,1.1.88.68,1.49-.07.1-.16.19-.25.28-1.18,1.19-2.37,2.37-3.56,3.56-.59.59-1.09.59-1.68,0-.56-.56-1.12-1.11-1.68-1.68-.47-.47-.49-1.07-.08-1.47.4-.39.98-.36,1.44.1.37.37.73.75,1.14,1.17Z"/>
              <path class="cls-1" d="M57.11,32.75c.62,0,1.25,0,1.87,0,.62,0,1.03.4,1.03.96,0,.56-.42.96-1.03.96-1.25,0-2.5,0-3.74,0-.6,0-1.03-.42-1.03-.97,0-.55.42-.95,1.04-.96.62,0,1.25,0,1.87,0Z"/>
              <path class="cls-1" d="M50.35,33.7c0-.53.41-.94.95-.95.55,0,.98.43.97.97,0,.52-.44.95-.96.95-.54,0-.97-.43-.97-.98Z"/>
              <path class="cls-1" d="M57.11,42.42c-.62,0-1.25,0-1.87,0-.6,0-1.03-.42-1.03-.97,0-.55.43-.95,1.04-.96,1.25,0,2.5,0,3.74,0,.62,0,1.03.4,1.02.96,0,.56-.42.95-1.03.96-.62,0-1.25,0-1.87,0Z"/>
              <path class="cls-1" d="M51.31,42.42c-.53,0-.95-.41-.96-.93-.01-.55.4-.98.95-.99.54,0,.98.43.97.97,0,.52-.44.95-.96.95Z"/>
              <path class="cls-1" d="M57.1,57.91c-.62,0-1.25,0-1.87,0-.61,0-1.03-.42-1.03-.97,0-.54.44-.95,1.05-.95,1.25,0,2.5,0,3.74,0,.61,0,1.02.42,1.02.97,0,.55-.41.94-1,.95-.64.01-1.28,0-1.91,0Z"/>
              <path class="cls-1" d="M51.31,57.91c-.55,0-.97-.42-.96-.97,0-.53.43-.95.95-.95.53,0,.98.45.97.98,0,.53-.43.94-.96.94Z"/>
              <path class="cls-1" d="M57.1,50.17c-.62,0-1.25,0-1.87,0-.6-.01-1.03-.43-1.02-.98.01-.53.43-.94,1.01-.94,1.26,0,2.52,0,3.78,0,.59,0,1,.39,1.01.93.01.56-.4.98-1,.99-.64.01-1.28,0-1.91,0Z"/>
              <path class="cls-1" d="M51.29,50.16c-.55,0-.96-.44-.95-.99.01-.53.44-.94.97-.93.52,0,.95.43.95.95,0,.54-.43.97-.98.97Z"/>
            </g>
          </g>
        </g>
      </g>
    </g>
  </g>
</svg>