<?xml version="1.0" encoding="UTF-8"?>
<svg xmlns="http://www.w3.org/2000/svg" xmlns:xlink="http://www.w3.org/1999/xlink" viewBox="0 0 139 140">
  <defs>
    <style>
      .cls-1 {
        mask: url(#mask);
      }

      .cls-2, .cls-3, .cls-4 {
        fill: #fff;
      }

      .cls-2, .cls-5, .cls-6 {
        fill-rule: evenodd;
      }

      .cls-7 {
        fill: none;
      }

      .cls-8 {
        isolation: isolate;
      }

      .cls-3 {
        filter: url(#drop-shadow-1);
      }

      .cls-5 {
        fill: #fe5000;
      }

      .cls-4 {
        mix-blend-mode: soft-light;
      }
    </style>
    <filter id="drop-shadow-1" x="0" y="0" width="139" height="140" filterUnits="userSpaceOnUse">
      <feOffset dx="7" dy="7"/>
      <feGaussianBlur result="blur" stdDeviation="6"/>
      <feFlood flood-color="#000" flood-opacity=".3"/>
      <feComposite in2="blur" operator="in"/>
      <feComposite in="SourceGraphic"/>
    </filter>
    <mask id="mask" x="41.07" y="31.26" width="42.65" height="37.72" maskUnits="userSpaceOnUse">
      <g id="mask0_204_4" data-name="mask0 204 4">
        <path class="cls-2" d="M41.07,31.26h42.65v37.72h-42.65V31.26Z"/>
      </g>
    </mask>
  </defs>
  <g class="cls-8">
    <g id="Capa_2" data-name="Capa 2">
      <g id="Main">
        <g>
          <rect class="cls-3" x="11.17" y="11.56" width="102.46" height="102.46" rx="7.01" ry="7.01"/>
          <g>
            <rect class="cls-4" x="11.17" y="14.32" width="102.46" height="96.94" rx="5" ry="5"/>
            <g>
              <g class="cls-1">
                <path class="cls-5" d="M63.9,68.98h-9.43c-1.95,0-3.76-1.03-4.73-2.68l-7.93-13.49c-.97-1.66-.97-3.71,0-5.37l7.93-13.49c.97-1.66,2.79-2.69,4.73-2.69h15.86c1.95,0,3.76,1.03,4.73,2.69l7.93,13.49c.97,1.65.97,3.71,0,5.37l-2.05,3.21c-.95,1.62-2.77,2.65-4.72,2.65h-9.44l5.16-8.55-4.77-8.12h-9.55l-4.78,8.12,11.05,18.86Z"/>
              </g>
              <g>
                <path class="cls-6" d="M69.93,81.38c-.14-.32-.35-.57-.59-.69.86-.51,1.38-1.36,1.38-2.56,0-1.85-1.29-2.82-3.43-2.82h-3.32v8.89h2.34v-2.96h.6c.32.02.52.19.66.5l1.1,2.44h2.5l-1.24-2.81ZM66.84,79.46h-.53v-2.35h.65c.86,0,1.35.25,1.35,1.16s-.57,1.19-1.47,1.19Z"/>
                <polygon class="cls-6" points="72.34 84.2 78.36 84.2 78.36 82.19 74.68 82.19 74.68 80.67 77.76 80.67 77.76 78.66 74.68 78.66 74.68 77.31 78.26 77.31 78.26 75.3 72.34 75.3 72.34 84.2"/>
                <path class="cls-6" d="M55.15,75.3v5.95c0,2.17,1.21,3.1,3.57,3.1,2.14,0,3.61-1.1,3.61-2.9v-6.15h-2.34v5.89c0,.84-.5,1.26-1.21,1.26-.75,0-1.28-.31-1.28-1.32v-5.82h-2.34Z"/>
                <path class="cls-6" d="M50.35,75.3h-3.32v8.89h2.34v-2.96h.69c2.18,0,3.72-1.04,3.72-3.12,0-1.84-1.29-2.82-3.43-2.82ZM49.9,79.46h-.53v-2.35h.65c.86,0,1.35.25,1.35,1.16s-.57,1.19-1.47,1.19Z"/>
              </g>
              <g>
                <g>
                  <path class="cls-6" d="M84.99,87.02c-.53,0-.95.4-.95.91s.42.91.95.91.94-.4.94-.91-.41-.91-.94-.91ZM85,88.65c-.41,0-.72-.32-.72-.72s.31-.72.72-.72.71.32.71.72-.3.72-.7.72Z"/>
                  <path class="cls-6" d="M85.2,87.95h0c.11-.04.19-.12.19-.22,0-.09-.04-.16-.09-.2-.07-.04-.15-.07-.32-.07-.15,0-.27.02-.35.03v.91h.21v-.37h.1c.12,0,.18.04.19.14.02.11.05.19.07.22h.23s-.04-.09-.07-.22c-.03-.13-.08-.2-.17-.23ZM84.95,87.89h-.1v-.26s.06-.01.12-.01c.13,0,.2.06.2.14,0,.09-.1.13-.21.13Z"/>
                </g>
                <path class="cls-6" d="M64.23,92.11c-.16-.36-.27-.54-.49-.65.79-.35,1.29-1.04,1.29-2.1,0-1.38-.91-2.11-2.43-2.11h-2.34v7.07h.86v-2.61h1.23c.09,0,.18,0,.26,0h-.01c.44,0,.65.29.83.67l.91,1.94h.91l-1.03-2.22ZM62.2,91.04h-1.08v-3.1h.94c1.22,0,2.09.14,2.09,1.54,0,1.14-.8,1.55-1.95,1.55Z"/>
                <polygon class="cls-6" points="79.33 94.33 83.44 94.33 83.44 93.6 80.19 93.6 80.19 91.08 82.92 91.08 82.92 90.36 80.19 90.36 80.19 87.98 83.36 87.98 83.36 87.25 79.33 87.25 79.33 94.33"/>
                <path class="cls-6" d="M77.87,90.56h-2.49v.72h1.64v2.11c-.26.18-.9.37-1.46.37-1.57,0-2.26-1.12-2.26-3.03,0-1.79.81-2.88,2.18-2.88.77,0,1.33.35,1.81.9l.62-.48c-.74-.93-1.68-1.15-2.41-1.15-1.44,0-3.07.93-3.07,3.68,0,2.47,1.17,3.65,3.07,3.65.94,0,1.8-.26,2.39-.65v-3.24Z"/>
                <path class="cls-6" d="M69.49,87.25h-1.02l-2.53,7.07h.84l.77-2.18h2.84l.79,2.18h.9l-2.59-7.07ZM67.76,91.47l1.2-3.46,1.22,3.46h-2.43Z"/>
                <path class="cls-6" d="M56.04,87.13c-1.47,0-3.08.95-3.08,3.68,0,2.43,1.12,3.65,2.97,3.65s3.02-1.21,3.02-3.65c0-2.71-1.35-3.68-2.91-3.68ZM56.02,93.74c-1.79,0-2.18-1.56-2.18-2.97s.59-2.93,2.16-2.93,2.07,1.73,2.07,2.99c0,1.45-.49,2.9-2.06,2.9Z"/>
                <polygon class="cls-6" points="47.3 87.25 47.3 87.98 49.44 87.98 49.44 94.33 50.3 94.33 50.3 87.98 52.48 87.98 52.48 87.25 47.3 87.25"/>
                <path class="cls-6" d="M42.05,93.12c.34.22,1.1.61,1.96.61.73,0,1.52-.22,1.52-1.31,0-.85-.76-1.13-1.62-1.36-1.04-.28-2.06-.66-2.06-1.97,0-1.18.93-1.96,2.28-1.96.98,0,1.83.45,2.34.95l-.48.56c-.56-.48-1.19-.79-1.87-.79-.61,0-1.39.26-1.39,1.15,0,.84.74,1.09,1.67,1.36,1,.31,2.01.68,2.01,2.02s-.91,2.07-2.43,2.07c-1.04,0-2-.42-2.3-.65l.36-.69Z"/>
              </g>
              <rect class="cls-7" x="30.41" y="21.83" width="63.97" height="81.93"/>
            </g>
          </g>
        </g>
      </g>
    </g>
  </g>
</svg>