<?xml version="1.0" encoding="UTF-8"?>
<svg xmlns="http://www.w3.org/2000/svg" xmlns:xlink="http://www.w3.org/1999/xlink" viewBox="0 0 139 140">
  <defs>
    <style>
      .cls-1 {
        fill: #00aeef;
      }

      .cls-2 {
        isolation: isolate;
      }

      .cls-3 {
        filter: url(#drop-shadow-1);
      }

      .cls-3, .cls-4 {
        fill: #fff;
      }

      .cls-4 {
        mix-blend-mode: soft-light;
      }
    </style>
    <filter id="drop-shadow-1" x="0" y="0" width="139" height="140" filterUnits="userSpaceOnUse">
      <feOffset dx="7" dy="7"/>
      <feGaussianBlur result="blur" stdDeviation="6"/>
      <feFlood flood-color="#000" flood-opacity=".3"/>
      <feComposite in2="blur" operator="in"/>
      <feComposite in="SourceGraphic"/>
    </filter>
  </defs>
  <g class="cls-2">
    <g id="Capa_2" data-name="Capa 2">
      <g id="Main">
        <g>
          <rect class="cls-3" x="11.26" y="11.61" width="102.46" height="102.46" rx="7.01" ry="7.01"/>
          <g>
            <rect class="cls-4" x="11.26" y="13.96" width="102.46" height="96.94" rx="5" ry="5"/>
            <g>
              <path d="M45.44,74.95c1.57,0,2.37.94,2.37,2.58v.32h-1.52v-.42c0-.73-.29-1.01-.8-1.01s-.8.28-.8,1.01c0,2.11,3.15,2.5,3.15,5.43,0,1.64-.82,2.58-2.4,2.58s-2.4-.94-2.4-2.58v-.63h1.52v.73c0,.73.32,1,.83,1s.83-.26.83-1c0-2.11-3.15-2.5-3.15-5.43,0-1.64.8-2.58,2.37-2.58Z"/>
              <path d="M50.36,79.39h2.21v1.46h-2.21v3h2.78v1.46h-4.39v-10.24h4.39v1.46h-2.78v2.85Z"/>
              <path d="M57.5,85.31c-.09-.26-.15-.42-.15-1.26v-1.61c0-.95-.32-1.3-1.05-1.3h-.56v4.17h-1.61v-10.24h2.43c1.67,0,2.38.78,2.38,2.36v.8c0,1.05-.34,1.74-1.05,2.08.81.34,1.07,1.11,1.07,2.18v1.58c0,.5.01.86.18,1.24h-1.64ZM55.75,76.53v3.15h.63c.6,0,.97-.26.97-1.08v-1.01c0-.73-.25-1.05-.82-1.05h-.78Z"/>
              <path d="M62.42,83.42l1.23-8.36h1.48l-1.58,10.24h-2.4l-1.58-10.24h1.62l1.23,8.36Z"/>
              <path d="M65.87,75.07h1.61v10.24h-1.61v-10.24Z"/>
              <path d="M73.32,81.49v1.36c0,1.64-.82,2.58-2.4,2.58s-2.4-.94-2.4-2.58v-5.33c0-1.64.82-2.58,2.4-2.58s2.4.94,2.4,2.58v.99h-1.52v-1.1c0-.73-.32-1.01-.83-1.01s-.83.28-.83,1.01v5.53c0,.73.32,1,.83,1s.83-.26.83-1v-1.46h1.52Z"/>
              <path d="M74.3,75.07h1.61v10.24h-1.61v-10.24Z"/>
              <path d="M76.95,77.53c0-1.64.86-2.58,2.44-2.58s2.44.94,2.44,2.58v5.33c0,1.64-.86,2.58-2.44,2.58s-2.44-.94-2.44-2.58v-5.33ZM78.56,82.96c0,.73.32,1.01.83,1.01s.83-.28.83-1.01v-5.53c0-.73-.32-1.01-.83-1.01s-.83.28-.83,1.01v5.53Z"/>
              <path d="M60.8,88.73c.38.47.56,1.1.56,1.89v5.24c0,.75-.16,1.34-.48,1.77.09.15.2.25.32.31s.29.1.48.1h.16v.6h-.18c-.57,0-.97-.2-1.21-.6-.37.27-.82.41-1.35.41-.75,0-1.31-.23-1.69-.7-.38-.47-.56-1.1-.56-1.89v-5.24c0-.79.19-1.42.56-1.89.38-.47.94-.7,1.69-.7s1.31.23,1.69.7ZM57.92,89.16c-.26.35-.39.82-.39,1.41v5.33c0,.6.13,1.07.39,1.41.26.35.66.52,1.19.52s.93-.17,1.19-.52c.26-.35.39-.82.39-1.41v-5.33c0-.59-.13-1.07-.39-1.41-.26-.35-.66-.52-1.19-.52s-.93.17-1.19.52Z"/>
              <path d="M63.34,98.36h-.61l2.24-10.26h.98l2.28,10.26h-.67l-.51-2.27h-3.19l-.51,2.27ZM66.94,95.51l-1.51-6.63-1.48,6.63h2.99Z"/>
            </g>
            <g>
              <path class="cls-1" d="M70.68,50.18c.11.1.2.18.31.28.08-.08.17-.15.25-.22.65-.63,1.3-.63,1.95.02,1.59,1.59,3.18,3.18,4.77,4.77.28.29.58.57.81.9,1.14,1.56.88,3.73-.58,5.04-1.42,1.26-3.64,1.28-5.01-.04-1.86-1.79-3.66-3.63-5.48-5.46-.49-.49-.47-1.19.02-1.7.1-.11.24-.19.38-.3-.15-.16-.24-.26-.34-.37-3.54,2.5-7.41,3.34-11.62,2.32-3.4-.82-6.1-2.73-8.12-5.58-3.99-5.66-3.13-13.42,2-18.21,5.06-4.72,12.9-4.94,18.28-.53,5.46,4.47,6.99,12.72,2.38,19.08ZM70.98,41.88c0-6.35-5.19-11.52-11.54-11.51-6.35,0-11.52,5.19-11.51,11.54,0,6.35,5.19,11.52,11.54,11.51,6.35,0,11.52-5.19,11.51-11.54ZM70.31,54.61c1.51,1.53,3.01,3.05,4.52,4.55.29.29.69.36,1.1.29.53-.1.89-.4,1.05-.92.18-.55.02-1.02-.37-1.42-1.42-1.42-2.83-2.84-4.25-4.25-.05-.05-.11-.08-.16-.12-.63.63-1.25,1.25-1.87,1.87Z"/>
              <path class="cls-1" d="M48.42,58.26c.52.52,1.01.99,1.48,1.47.57.57.61,1.31.1,1.81-.51.51-1.24.47-1.81-.1-.74-.74-1.48-1.48-2.22-2.22-.62-.62-.62-1.29,0-1.92.74-.74,1.48-1.49,2.22-2.22.57-.57,1.31-.6,1.81-.09.49.5.46,1.23-.09,1.79-.48.48-.97.96-1.5,1.48Z"/>
              <path class="cls-1" d="M53.52,58.26c-.53-.52-1.02-.99-1.5-1.48-.56-.57-.59-1.31-.08-1.81.5-.49,1.23-.45,1.79.1.75.75,1.5,1.5,2.25,2.25.6.61.6,1.28,0,1.9-.75.75-1.5,1.5-2.25,2.25-.56.55-1.28.58-1.79.09-.51-.51-.48-1.24.09-1.81.48-.48.97-.96,1.49-1.48Z"/>
              <path class="cls-1" d="M59.43,48.56c-1.76,0-3.51,0-5.27,0-.9,0-1.37-.48-1.37-1.38,0-3.53,0-7.05,0-10.58,0-.91.47-1.38,1.37-1.38,3.54,0,7.07,0,10.61,0,.87,0,1.36.49,1.36,1.36,0,3.54,0,7.08,0,10.61,0,.88-.48,1.36-1.35,1.37-1.78,0-3.56,0-5.34,0ZM55.23,46.11h8.44v-8.45h-8.44v8.45Z"/>
              <path class="cls-1" d="M58.67,41.79c.54-.81,1.05-1.58,1.57-2.36.3-.44.71-.64,1.23-.56.52.09.89.41.96.93.04.3-.02.68-.17.93-.77,1.23-1.58,2.43-2.4,3.63-.47.68-1.3.75-1.89.17-.38-.37-.75-.75-1.12-1.12-.53-.54-.56-1.26-.08-1.76.48-.5,1.19-.5,1.76,0,.04.03.08.06.15.12Z"/>
            </g>
          </g>
        </g>
      </g>
    </g>
  </g>
</svg>