<?xml version="1.0" encoding="UTF-8"?>
<svg xmlns="http://www.w3.org/2000/svg" xmlns:xlink="http://www.w3.org/1999/xlink" viewBox="0 0 139 140">
  <defs>
    <style>
      .cls-1 {
        fill: #00aeef;
      }

      .cls-2 {
        isolation: isolate;
      }

      .cls-3 {
        filter: url(#drop-shadow-1);
      }

      .cls-3, .cls-4 {
        fill: #fff;
      }

      .cls-4 {
        mix-blend-mode: soft-light;
      }
    </style>
    <filter id="drop-shadow-1" x="0" y="0" width="139" height="140" filterUnits="userSpaceOnUse">
      <feOffset dx="7" dy="7"/>
      <feGaussianBlur result="blur" stdDeviation="6"/>
      <feFlood flood-color="#000" flood-opacity=".3"/>
      <feComposite in2="blur" operator="in"/>
      <feComposite in="SourceGraphic"/>
    </filter>
  </defs>
  <g class="cls-2">
    <g id="Capa_2" data-name="Capa 2">
      <g id="Main">
        <g>
          <rect class="cls-3" x="11.26" y="11.56" width="102.46" height="102.46" rx="7.01" ry="7.01"/>
          <g>
            <rect class="cls-4" x="11.26" y="14.32" width="102.46" height="96.94" rx="5" ry="5"/>
            <g>
              <path d="M63.92,85.67h-1.62l-.28-1.86h-1.98l-.28,1.86h-1.48l1.64-10.24h2.36l1.64,10.24ZM60.25,82.42h1.55l-.78-5.18-.78,5.18Z"/>
              <path d="M64.67,75.43h1.61v10.24h-1.61v-10.24Z"/>
              <path d="M51.96,88.48h.67v9.63h3.22v.61h-3.89v-10.24Z"/>
              <path d="M57.33,98.72h-.61l2.24-10.26h.98l2.28,10.26h-.67l-.51-2.27h-3.19l-.51,2.27ZM60.93,95.87l-1.51-6.63-1.48,6.63h2.99Z"/>
              <path d="M67.01,89.02c.32.36.48.91.48,1.64v.59c0,.58-.1,1.04-.3,1.37-.2.33-.55.54-1.05.65,1.02.21,1.54.94,1.54,2.2v.89c0,.76-.18,1.35-.55,1.76-.37.41-.93.61-1.69.61h-2.2v-10.24h2.15c.75,0,1.29.18,1.61.54ZM66.41,92.65c.27-.23.41-.66.41-1.28v-.66c0-.56-.11-.97-.32-1.23-.21-.26-.58-.4-1.11-.4h-1.46v3.91h1.14c.62,0,1.07-.11,1.35-.34ZM66.63,97.66c.25-.3.37-.74.37-1.32v-.92c0-.65-.15-1.12-.44-1.39s-.75-.41-1.38-.41h-1.27v4.49h1.52c.55,0,.94-.15,1.19-.45Z"/>
              <path d="M72.56,89.08c.36.46.53,1.09.53,1.87v.22h-.64v-.26c0-.58-.12-1.05-.37-1.39-.24-.34-.63-.51-1.16-.51s-.91.17-1.16.51c-.24.34-.37.8-.37,1.38,0,.37.08.7.23.99.16.29.35.54.58.75.23.21.54.46.94.75.42.3.76.57,1.02.8.26.23.48.52.66.86s.26.74.26,1.2c0,.78-.18,1.4-.54,1.87-.36.46-.92.7-1.67.7s-1.31-.23-1.67-.7c-.36-.46-.54-1.08-.54-1.87v-.53h.64v.57c0,.59.12,1.05.37,1.38s.64.5,1.18.5.93-.17,1.18-.5c.25-.34.37-.8.37-1.38,0-.37-.08-.7-.23-.98-.16-.28-.35-.53-.58-.74s-.54-.46-.93-.74c-.42-.3-.76-.57-1.02-.81-.26-.24-.49-.53-.67-.88-.18-.35-.27-.75-.27-1.21,0-.79.18-1.41.54-1.86.36-.45.91-.68,1.64-.69.74,0,1.29.23,1.65.69Z"/>
            </g>
            <g>
              <path class="cls-1" d="M75.86,29.32h-7.57c-1.99,0-3.62,1.62-3.62,3.62v.53c0,1.61,1.06,2.98,2.52,3.45v19.71c0,1.29.87,4.64,4.87,4.64s4.87-3.35,4.87-4.64v-19.71c1.47-.46,2.54-1.83,2.54-3.45v-.53c0-1.99-1.62-3.62-3.62-3.62ZM77.29,33.47c0,.79-.64,1.43-1.43,1.43h-.02c-.6,0-1.09.49-1.09,1.09v20.64c0,.25-.08,2.45-2.68,2.45s-2.68-2.05-2.68-2.45v-3.99h2.69c.32,0,.59-.26.59-.59s-.26-.59-.59-.59h-2.69v-2.31h2.69c.32,0,.59-.26.59-.59s-.26-.59-.59-.59h-2.69v-2.16h2.69c.32,0,.59-.26.59-.59s-.26-.59-.59-.59h-2.69v-2.12h2.69c.32,0,.59-.26.59-.59s-.26-.59-.59-.59h-2.69v-2.34h2.69c.32,0,.59-.26.59-.59s-.26-.59-.59-.59h-2.69v-1.83c0-.6-.49-1.09-1.09-1.09-.79,0-1.43-.64-1.43-1.43v-.53c0-.79.64-1.43,1.43-1.43h7.57c.79,0,1.43.64,1.43,1.43v.53Z"/>
              <path class="cls-1" d="M64.82,44.63h-14.51c-.26-1.06-1.22-1.85-2.37-1.85-1.35,0-2.44,1.09-2.44,2.44s1.09,2.44,2.44,2.44c1.14,0,2.1-.79,2.37-1.85h14.51c.32,0,.59-.26.59-.59s-.26-.59-.59-.59Z"/>
              <path class="cls-1" d="M64.82,41.34h-6.64l-3.35-3.35c-.11-.11-.26-.17-.42-.17h-1.94c-.26-1.06-1.22-1.85-2.37-1.85-1.35,0-2.44,1.09-2.44,2.44s1.09,2.44,2.44,2.44c1.14,0,2.1-.79,2.37-1.85h1.7l3.35,3.35c.11.11.26.17.42.17h6.89c.32,0,.59-.26.59-.59s-.26-.59-.59-.59Z"/>
              <path class="cls-1" d="M64.82,37.82h-3.08l-3.62-3.62c.22-.37.35-.8.35-1.26,0-1.35-1.09-2.44-2.44-2.44s-2.44,1.09-2.44,2.44,1.09,2.44,2.44,2.44c.46,0,.89-.13,1.26-.35l3.79,3.79c.11.11.26.17.42.17h3.32c.32,0,.59-.26.59-.59s-.26-.59-.59-.59Z"/>
              <path class="cls-1" d="M64.82,47.97h-6.89c-.16,0-.31.06-.42.17l-3.35,3.35h-1.7c-.26-1.06-1.22-1.85-2.37-1.85-1.35,0-2.44,1.09-2.44,2.44s1.09,2.44,2.44,2.44c1.14,0,2.1-.79,2.37-1.85h1.94c.16,0,.31-.06.42-.17l3.35-3.35h6.64c.32,0,.59-.26.59-.59s-.26-.59-.59-.59Z"/>
              <path class="cls-1" d="M64.82,51.49h-3.32c-.16,0-.31.06-.42.17l-3.79,3.79c-.37-.22-.8-.35-1.26-.35-1.35,0-2.44,1.09-2.44,2.44s1.09,2.44,2.44,2.44,2.44-1.09,2.44-2.44c0-.46-.13-.89-.35-1.26l3.62-3.62h3.08c.32,0,.59-.26.59-.59s-.26-.59-.59-.59Z"/>
            </g>
          </g>
        </g>
      </g>
    </g>
  </g>
</svg>