<?xml version="1.0" encoding="UTF-8"?>
<svg xmlns="http://www.w3.org/2000/svg" xmlns:xlink="http://www.w3.org/1999/xlink" viewBox="0 0 139 140">
  <defs>
    <style>
      .cls-1 {
        fill: #00aeef;
      }

      .cls-2 {
        isolation: isolate;
      }

      .cls-3 {
        filter: url(#drop-shadow-1);
      }

      .cls-3, .cls-4 {
        fill: #fff;
      }

      .cls-4 {
        mix-blend-mode: soft-light;
      }
    </style>
    <filter id="drop-shadow-1" x="0" y="0" width="139" height="140" filterUnits="userSpaceOnUse">
      <feOffset dx="7" dy="7"/>
      <feGaussianBlur result="blur" stdDeviation="6"/>
      <feFlood flood-color="#000" flood-opacity=".3"/>
      <feComposite in2="blur" operator="in"/>
      <feComposite in="SourceGraphic"/>
    </filter>
  </defs>
  <g class="cls-2">
    <g id="Capa_2" data-name="Capa 2">
      <g id="Main">
        <g>
          <rect class="cls-3" x="11.17" y="11.66" width="102.46" height="102.46" rx="7.01" ry="7.01"/>
          <g>
            <rect class="cls-4" x="11.17" y="14.36" width="102.46" height="96.94" rx="5" ry="5"/>
            <g>
              <path d="M40.29,80h2.25v3.25c0,1.64-.82,2.58-2.4,2.58s-2.4-.94-2.4-2.58v-5.33c0-1.64.82-2.58,2.4-2.58s2.4.94,2.4,2.58v.99h-1.52v-1.1c0-.73-.32-1.01-.83-1.01s-.83.28-.83,1.01v5.53c0,.73.32,1,.83,1s.83-.26.83-1v-1.89h-.73v-1.46Z"/>
              <path d="M45.19,79.78h2.21v1.46h-2.21v3h2.78v1.46h-4.39v-10.24h4.39v1.46h-2.78v2.85Z"/>
              <path d="M51.13,75.35c1.57,0,2.37.94,2.37,2.58v.32h-1.52v-.42c0-.73-.29-1.01-.8-1.01s-.8.28-.8,1.01c0,2.11,3.15,2.5,3.15,5.43,0,1.64-.82,2.58-2.4,2.58s-2.4-.94-2.4-2.58v-.63h1.52v.73c0,.73.32,1,.83,1s.83-.26.83-1c0-2.11-3.15-2.5-3.15-5.43,0-1.64.8-2.58,2.37-2.58Z"/>
              <path d="M53.97,75.47h4.98v1.46h-1.68v8.78h-1.61v-8.78h-1.68v-1.46Z"/>
              <path d="M59.65,75.47h1.61v10.24h-1.61v-10.24Z"/>
              <path d="M62.3,77.93c0-1.64.86-2.58,2.44-2.58s2.44.94,2.44,2.58v5.33c0,1.64-.86,2.58-2.44,2.58s-2.44-.94-2.44-2.58v-5.33ZM66.47,73.3l-1.49,1.62h-1.08l1-1.62h1.58ZM63.91,83.35c0,.73.32,1.01.83,1.01s.83-.28.83-1.01v-5.53c0-.73-.32-1.01-.83-1.01s-.83.28-.83,1.01v5.53Z"/>
              <path d="M69.66,78.29v7.42h-1.45v-10.24h2.02l1.65,6.13v-6.13h1.43v10.24h-1.65l-2-7.42Z"/>
              <path d="M76.74,75.47h2.55c1.61,0,2.4.89,2.4,2.53v5.18c0,1.64-.79,2.53-2.4,2.53h-2.55v-10.24ZM78.35,76.93v7.32h.91c.51,0,.82-.26.82-1v-5.33c0-.73-.31-1-.82-1h-.91Z"/>
              <path d="M84.32,79.78h2.21v1.46h-2.21v3h2.78v1.46h-4.39v-10.24h4.39v1.46h-2.78v2.85Z"/>
              <path d="M42.06,89.17c.35.44.53,1.05.53,1.83v1.11c0,.82-.19,1.43-.58,1.83-.39.4-.98.6-1.79.6h-1.27v4.21h-.67v-10.24h2.12c.76,0,1.32.22,1.67.66ZM41.51,93.51c.27-.28.4-.73.4-1.35v-1.2c0-.59-.12-1.05-.35-1.36-.23-.31-.62-.47-1.17-.47h-1.45v4.8h1.27c.6,0,1.03-.14,1.29-.42Z"/>
              <path d="M47.96,90.83v.89c0,.6-.12,1.08-.36,1.43-.24.35-.61.58-1.12.69.99.21,1.48.91,1.48,2.09v1.6c0,.57.08.98.25,1.23h-.7c-.09-.15-.15-.31-.17-.5-.03-.19-.04-.43-.04-.72v-1.61c0-.64-.16-1.1-.48-1.35s-.8-.39-1.43-.39h-1.07v4.58h-.67v-10.24h2.14c1.46,0,2.2.77,2.2,2.31ZM46.81,93.2c.31-.24.47-.69.47-1.35v-.97c0-.58-.12-1.01-.37-1.31-.24-.3-.63-.45-1.17-.45h-1.45v4.43h1.08c.64,0,1.12-.12,1.43-.37Z"/>
              <path d="M49.79,89.14c.38-.47.93-.71,1.68-.71s1.33.23,1.71.7c.38.47.56,1.1.56,1.89v5.24c0,.79-.19,1.42-.56,1.89-.38.47-.94.7-1.71.7s-1.3-.24-1.68-.71c-.38-.47-.56-1.1-.56-1.88v-5.24c0-.78.19-1.41.56-1.88ZM50.28,97.71c.25.35.65.52,1.19.52s.95-.17,1.21-.52c.26-.35.39-.82.39-1.41v-5.33c0-.59-.13-1.07-.39-1.41-.26-.35-.66-.52-1.21-.52s-.93.17-1.19.52c-.25.35-.38.82-.38,1.41v5.33c0,.6.13,1.07.38,1.41Z"/>
              <path d="M54.44,88.52h.7l1.96,5.39,1.96-5.39h.66l-2.31,6.31v3.94h-.67v-3.94l-2.3-6.31Z"/>
              <path d="M64.17,93.87h-2.79v4.27h3.37v.61h-4.04v-10.24h4.04v.61h-3.37v4.13h2.79v.61Z"/>
              <path d="M69.67,89.14c.36.47.54,1.1.54,1.88v.85h-.64v-.89c0-.59-.12-1.05-.37-1.4-.25-.35-.64-.53-1.18-.53s-.93.18-1.18.53-.37.82-.37,1.4v5.33c0,.59.12,1.05.37,1.4.25.35.64.52,1.18.52s.93-.17,1.18-.52c.25-.35.37-.81.37-1.4v-1.21h.64v1.17c0,.78-.18,1.41-.54,1.88-.36.47-.92.71-1.67.71s-1.31-.24-1.67-.71c-.36-.47-.54-1.1-.54-1.88v-5.24c0-.78.18-1.41.54-1.88.36-.47.92-.71,1.67-.71s1.31.24,1.67.71Z"/>
              <path d="M73.08,89.13h-2.09v-.61h4.84v.61h-2.08v9.63h-.67v-9.63Z"/>
              <path d="M77.23,89.14c.38-.47.93-.71,1.68-.71s1.33.23,1.71.7c.38.47.56,1.1.56,1.89v5.24c0,.79-.19,1.42-.56,1.89-.38.47-.94.7-1.71.7s-1.3-.24-1.68-.71c-.38-.47-.56-1.1-.56-1.88v-5.24c0-.78.19-1.41.56-1.88ZM77.72,97.71c.25.35.65.52,1.19.52s.95-.17,1.21-.52c.26-.35.39-.82.39-1.41v-5.33c0-.59-.13-1.07-.39-1.41-.26-.35-.66-.52-1.21-.52s-.93.17-1.19.52c-.25.35-.38.82-.38,1.41v5.33c0,.6.13,1.07.38,1.41Z"/>
              <path d="M86.07,89.12c.36.46.53,1.09.53,1.87v.22h-.64v-.26c0-.58-.12-1.05-.37-1.39-.24-.34-.63-.51-1.16-.51s-.91.17-1.16.51c-.24.34-.37.8-.37,1.38,0,.37.08.7.23.99.16.29.35.54.58.75.23.21.54.46.94.75.42.3.76.57,1.02.8.26.23.48.52.66.86s.26.74.26,1.2c0,.78-.18,1.4-.54,1.87-.36.46-.92.7-1.67.7s-1.31-.23-1.67-.7c-.36-.46-.54-1.08-.54-1.87v-.53h.64v.57c0,.59.12,1.05.37,1.38s.64.5,1.18.5.93-.17,1.18-.5c.25-.34.37-.8.37-1.38,0-.37-.08-.7-.23-.98-.16-.28-.35-.53-.58-.74s-.54-.46-.93-.74c-.42-.3-.76-.57-1.02-.81-.26-.24-.49-.53-.67-.88-.18-.35-.27-.75-.27-1.21,0-.79.18-1.41.54-1.86.36-.45.91-.68,1.64-.69.74,0,1.29.23,1.65.69Z"/>
            </g>
            <g>
              <path class="cls-1" d="M70.6,38.68c-.18,0-.31,0-.44,0-1.49,0-2.98,0-4.47,0-1.77,0-2.91-1.14-2.91-2.91,0-1.48,0-2.95,0-4.43,0-.13,0-.27,0-.46-.15,0-.28,0-.41,0-4.1,0-8.21,0-12.31,0-1.34,0-2.12.78-2.12,2.11,0,8.23,0,16.46,0,24.69,0,1.31.79,2.1,2.1,2.1,4.02,0,8.03,0,12.05,0,.19,0,.39,0,.58.05.56.12.93.66.89,1.22-.05.56-.5,1.02-1.07,1.07-.07,0-.15,0-.22,0-4.1,0-8.21,0-12.31,0-2.09,0-3.76-1.3-4.24-3.26-.09-.37-.12-.77-.12-1.16,0-8.24,0-16.48,0-24.72,0-2.28,1.43-4.01,3.62-4.38.3-.05.61-.05.91-.05,4.31,0,8.62,0,12.93,0,.94,0,1.7.3,2.36.97,2.17,2.19,4.36,4.38,6.55,6.55.66.66.99,1.42.98,2.36-.02,1.78,0,3.56,0,5.35,0,.56-.35,1-.86,1.14-.5.13-1.05-.06-1.29-.51-.12-.21-.18-.48-.18-.73-.02-1.5,0-3,0-4.5,0-.13,0-.27,0-.46ZM65.12,32.63v.28c0,.94,0,1.88,0,2.82,0,.5.1.61.59.61.95,0,1.9,0,2.86,0,.09,0,.18-.02.21-.02-1.21-1.22-2.42-2.44-3.66-3.69Z"/>
              <path class="cls-1" d="M66.49,48.46c.33.04.65.08.98.12.71.11,1.05-.08,1.32-.75.09-.21.19-.42.27-.64.21-.64.66-.96,1.31-.98.81-.02,1.63-.02,2.44,0,.61.02,1.02.34,1.23.93.08.24.19.47.29.71.26.64.61.83,1.3.73.12-.02.25,0,.36-.04.93-.27,1.6.09,2.05.9.37.66.72,1.32,1.05,2,.2.43.12.86-.18,1.24-.19.24-.37.48-.56.73-.4.53-.4.91,0,1.43.2.26.4.52.6.79.26.35.3.74.16,1.14-.33.96-.83,1.81-1.49,2.58-.26.31-.6.46-1,.43-.33-.03-.66-.07-.98-.11-.71-.11-1.04.08-1.32.75-.09.21-.2.42-.27.64-.21.64-.66.96-1.31.98-.81.02-1.63.02-2.44,0-.61-.02-1.02-.35-1.23-.93-.08-.24-.19-.47-.29-.71-.27-.64-.61-.83-1.31-.72-.11.02-.22,0-.33.04-.98.29-1.66-.11-2.13-.95-.36-.65-.7-1.31-1.01-1.98-.19-.4-.1-.81.17-1.17.19-.25.39-.5.58-.76.4-.52.4-.92,0-1.43-.19-.25-.39-.5-.58-.76-.27-.36-.33-.75-.18-1.17.33-.96.83-1.81,1.49-2.58.26-.31.59-.46,1-.44ZM68.34,57.18c.15.06.41.14.64.25.23.11.42.31.65.4.62.22.97.66,1.16,1.27.05.16.12.32.19.47.03.06.07.17.12.17.29.02.59.05.87,0,.1-.02.18-.23.23-.38.24-.7.63-1.2,1.31-1.6.8-.48,1.54-.65,2.42-.43.1.02.26,0,.32-.08.42-.42.43-.73.07-1.2-.1-.14-.2-.28-.31-.41-.25-.3-.35-.63-.3-1.02.02-.17.05-.35.02-.51-.16-.82.15-1.48.7-2.05.06-.06.11-.13.15-.2.03-.05.09-.12.07-.16-.13-.25-.24-.52-.42-.72-.08-.09-.32-.07-.47-.04-.74.15-1.46.18-2.06-.4-.03-.02-.06-.05-.09-.06-.78-.24-1.18-.82-1.4-1.56-.03-.1-.07-.21-.13-.3-.04-.06-.11-.13-.18-.14-.64-.14-.85-.03-1.1.58-.03.07-.06.13-.08.2-.17.53-.49.91-1.03,1.11-.2.07-.39.2-.57.33-.38.3-.79.41-1.27.3-.21-.05-.44-.04-.65-.1-.37-.1-.46.18-.59.4-.13.21-.29.41-.03.67.61.61.96,1.32.76,2.21,0,.01,0,.02,0,.04.16.74-.13,1.32-.61,1.86-.39.44-.35.45-.07.96.15.28.34.33.62.27.3-.06.6-.09,1.02-.14Z"/>
              <path class="cls-1" d="M59.28,44.16c-2.06,0-4.13,0-6.19,0-.91,0-1.5-.83-1.16-1.62.22-.5.62-.72,1.17-.72,2.42,0,4.83,0,7.25,0,1.67,0,3.34,0,5.02,0,.78,0,1.32.47,1.33,1.16.01.69-.54,1.19-1.34,1.19-2.03,0-4.05,0-6.08,0Z"/>
              <path class="cls-1" d="M56.51,55.09c-1.12,0-2.25,0-3.37,0-.78,0-1.31-.49-1.3-1.18,0-.68.53-1.16,1.28-1.16,2.27,0,4.54,0,6.81,0,.68,0,1.16.39,1.27.98.09.54-.22,1.1-.75,1.28-.18.06-.38.07-.57.08-1.12,0-2.25,0-3.37,0Z"/>
              <path class="cls-1" d="M56.57,47.29c1.17,0,2.34,0,3.52,0,.54,0,.98.38,1.11.9.12.48-.11,1.04-.57,1.27-.2.1-.44.16-.67.16-2.28.01-4.57.01-6.85,0-.74,0-1.27-.51-1.26-1.19,0-.68.52-1.15,1.28-1.15,1.15,0,2.29,0,3.44,0h0Z"/>
              <path class="cls-1" d="M73.9,54.13c0,1.29-1.06,2.34-2.36,2.33-1.28,0-2.32-1.06-2.32-2.34,0-1.29,1.05-2.35,2.35-2.35,1.3,0,2.34,1.06,2.34,2.35Z"/>
            </g>
          </g>
        </g>
      </g>
    </g>
  </g>
</svg>