<svg width="28" height="28" viewBox="0 0 28 28" fill="none" xmlns="http://www.w3.org/2000/svg">
<path d="M28 14.2456C28 6.44737 21.8235 0 14.5376 0C7 0 -1.25661e-05 4.94118 -1.25661e-05 14.2456C-1.25661e-05 25.1176 10.7059 28 12.209 28V18.0526H8.43303V14.2456H12.209V10.4386C12.1461 9.64035 12.5237 7.72456 14.5376 6.44737C16.5514 5.17018 19.0207 5.43722 20.2794 5.76471V9.33333H18.2615C16.449 9.33333 16.0378 10.6023 16.0588 11.2368V14.2456H20.1081L19.3529 18.0526H16.0588V28C20.1081 28 28 22.2353 28 14.2456Z" fill="black"/>
</svg>
