<?xml version="1.0" encoding="UTF-8"?>
<svg xmlns="http://www.w3.org/2000/svg" version="1.1" viewBox="0 0 2100 631">
  <defs>
    <style>
      .cls-1 {
        fill: #0f75bc;
      }

      .cls-2 {
        fill: #bdbec0;
      }

      .cls-3 {
        fill: #007891;
      }

      .cls-4 {
        fill: #00aeef;
      }

      .cls-5 {
        fill: #13a89e;
      }

      .cls-6 {
        fill: #1d1d1b;
      }
    </style>
  </defs>
  <!-- Generator: Adobe Illustrator 28.7.1, SVG Export Plug-In . SVG Version: 1.2.0 Build 142)  -->
  <g>
    <g id="Capa_1">
      <polygon class="cls-6" points="818.4 514 729.4 514 596.3 112.2 696.2 112.2 776 380.9 854.7 112.2 952.1 112.2 818.4 514"/>
      <path class="cls-6" d="M1176.7,514h-76.9c-3.2-7.7-5.2-16.1-6.1-25.4-17.4,22.2-47,33.3-89,33.3-65.8,0-98.6-28.6-98.6-85.9s3.2-34.2,9.7-46.9c6.4-12.7,16.6-22.7,30.6-30,13.9-7.3,27.9-12.7,42.1-16.3,14.1-3.6,32.9-7.3,56.3-10.9,16.9-2.4,28.4-5.7,34.5-10,6.1-4.2,9.1-11,9.1-20.3s-4.1-14.4-12.4-19.1c-8.3-4.6-18.9-7-31.8-7-29.5,0-45.8,12.5-49,37.5h-79.3c1.2-69.8,45.4-104.7,132.5-104.7s78.9,9.8,98.6,29.4c19.8,19.6,29.7,48.9,29.7,88.1v188.2h0ZM1088.9,399.7l.6-25.4c-5.7,5.2-20.2,10.3-43.6,15.1-20.6,4.4-34.7,9.8-42.4,16-7.7,6.3-11.5,14.8-11.5,25.7,0,19,10.7,28.4,32.1,28.4s35.9-5.8,47.2-17.5c11.3-11.7,17.1-25.8,17.5-42.4"/>
      <rect class="cls-6" x="1205.7" y="107.4" width="87.7" height="406.7"/>
      <path class="cls-6" d="M1566.4,318v84.7c0,34.7-10,63.2-30,85.6s-50.7,33.6-92.3,33.6-72.9-11.1-92.9-33.3c-20-22.2-30-51-30-86.5V135.8h85.9v80.5h159.2v61.7h-159.2v120.4c0,31.5,12.9,47.2,38.7,47.2s38.7-15.5,38.7-46.6v-81.1h81.9Z"/>
      <path class="cls-6" d="M1680.1,514h-87.7V216.3h82.3v27.2c11.7-14.9,23.9-24.5,36.6-28.7s28.3-6.4,46.9-6.4h8.5v89.6c-7.3-1.2-14.5-1.8-21.8-1.8-22.2,0-38.5,4.8-49,14.5s-15.7,25.6-15.7,47.8v155.5h-.1Z"/>
      <path class="cls-6" d="M2045,387.6h-198.5c1.2,19,7.2,34.5,17.9,46.6,10.7,12.1,24.3,18.2,40.8,18.2s21.3-2.4,30-7.3c8.7-4.8,14-11.1,16-18.8h90.2c-8.9,30.3-25,53.8-48.4,70.5s-51.2,25.1-83.5,25.1c-100.5,0-150.7-54.1-150.7-162.2s12.8-83.2,38.4-110.4,61.2-40.8,106.8-40.8,81,14,105,42.1c24,28,36,69.5,36,124.4v12.7h0ZM1848.4,334.9h108.9c-1.2-19-6.7-33.2-16.3-42.7-9.7-9.5-22.4-14.2-38.1-14.2s-27.8,4.8-37.5,14.5-15.3,23.8-16.9,42.4"/>
      <path class="cls-3" d="M170.3,189s-88.2,207.1-39.1,272.3c42.6,56.7,106.6,42.7,232-3.8,0,0-193.1,105.5-264.6,40.8s71.8-309.4,71.8-309.4"/>
      <path class="cls-1" d="M502.7,279.6s-206.9-163-329.2-119.5c-81.5,28.9-104.5,101.4-110.7,223,0,0-38.3-219.3,54-277,129.4-80.9,385.9,173.5,385.9,173.5"/>
      <path class="cls-5" d="M205.2,543.1s261.3-69.7,277.6-170.7c11.9-73.6-128.4-126.2-197.7-153.4,0,0,269.7,61.1,268.9,157.5s-348.7,166.6-348.7,166.6"/>
      <path class="cls-2" d="M195.2,128.8c0,22.5-18.3,40.8-40.8,40.8s-40.8-18.3-40.8-40.8,18.3-40.8,40.8-40.8,40.8,18.3,40.8,40.8"/>
      <path class="cls-2" d="M156.3,482.5c0,21.5-17.4,38.9-38.9,38.9s-38.9-17.4-38.9-38.9,17.4-38.9,38.9-38.9,38.9,17.4,38.9,38.9"/>
      <path class="cls-2" d="M548.8,381c0,21.5-17.4,38.9-38.9,38.9s-38.9-17.4-38.9-38.9,17.4-38.9,38.9-38.9,38.9,17.4,38.9,38.9"/>
      <path class="cls-4" d="M336.1,351.8c0,39.7-32.2,71.9-71.9,71.9s-71.9-32.2-71.9-71.9,32.2-71.9,71.9-71.9,71.9,32.2,71.9,71.9"/>
    </g>
  </g>
</svg>