<svg width="28" height="28" viewBox="0 0 28 28" fill="none" xmlns="http://www.w3.org/2000/svg">
<g clip-path="url(#clip0_293_42)">
<path fill-rule="evenodd" clip-rule="evenodd" d="M20.4146 16.7792C20.0662 16.6056 18.3536 15.7671 18.0343 15.6512C17.715 15.5356 17.4828 15.4778 17.2505 15.8248C17.0183 16.1717 16.3507 16.9527 16.1475 17.1841C15.9443 17.4155 15.7411 17.4445 15.3927 17.2709C15.0444 17.0974 13.922 16.7313 12.5915 15.5501C11.5559 14.6309 10.8568 13.4956 10.6536 13.1486C10.4504 12.8015 10.6319 12.6139 10.8063 12.441C10.963 12.2856 11.1547 12.0361 11.3288 11.8336C11.503 11.6312 11.5611 11.4865 11.6772 11.2553C11.7933 11.0238 11.7352 10.8214 11.6481 10.648C11.5611 10.4744 10.8644 8.76793 10.5741 8.07372C10.2913 7.39778 10.0042 7.48934 9.79032 7.47862C9.58737 7.46859 9.35489 7.46644 9.12271 7.46644C8.89048 7.46644 8.51306 7.55321 8.1937 7.90019C7.87448 8.24726 6.97454 9.08607 6.97454 10.7924C6.97454 12.4989 8.22272 14.1473 8.39695 14.3787C8.57117 14.6102 10.8533 18.1118 14.3478 19.6135C15.1789 19.9707 15.8277 20.184 16.3336 20.3438C17.1681 20.6077 17.9275 20.5704 18.5277 20.4811C19.197 20.3817 20.5887 19.6425 20.879 18.8328C21.1693 18.0228 21.1693 17.3287 21.0822 17.1841C20.9951 17.0395 20.7629 16.9527 20.4146 16.7792ZM14.0585 25.4162H14.0539C11.9746 25.4154 9.93521 24.8594 8.15609 23.8087L7.73295 23.5588L3.34732 24.7037L4.51789 20.4482L4.24244 20.0118C3.0825 18.1758 2.46984 16.0537 2.47074 13.8746C2.4733 7.51634 7.67153 2.34337 14.0631 2.34337C17.1582 2.34446 20.0676 3.54556 22.2554 5.72542C24.4432 7.90513 25.6473 10.8025 25.6461 13.8839C25.6435 20.2428 20.4453 25.4162 14.0585 25.4162ZM23.9205 4.06902C21.2883 1.44644 17.7879 0.00149688 14.0584 0C6.37407 0 0.119925 6.22383 0.116816 13.8737C0.115814 16.3192 0.757753 18.706 1.97776 20.8102L0 28L7.39052 26.0706C9.42689 27.176 11.7195 27.7586 14.0529 27.7594H14.0586C21.7421 27.7594 27.9968 21.5349 28 13.8849C28.0014 10.1775 26.5526 6.69156 23.9205 4.06902Z" fill="black"/>
</g>
<defs>
<clipPath id="clip0_293_42">
<rect width="28" height="28" fill="white"/>
</clipPath>
</defs>
</svg>
